<svg width="527" height="338" viewBox="0 0 527 338" fill="none" xmlns="http://www.w3.org/2000/svg">
<path d="M0.5 8C0.5 3.85787 3.85786 0.5 8 0.5H40C44.1421 0.5 47.5 3.85786 47.5 8V40C47.5 44.1421 44.1421 47.5 40 47.5H8C3.85787 47.5 0.5 44.1421 0.5 40V8Z" fill="#252526" stroke="#005FB8"/>
<path d="M48.5 8C48.5 3.85787 51.8579 0.5 56 0.5H519C523.142 0.5 526.5 3.85787 526.5 8V40C526.5 44.1421 523.142 47.5 519 47.5H56C51.8579 47.5 48.5 44.1421 48.5 40V8Z" fill="#252526" stroke="#005FB8"/>
<path d="M70.0459 29.5898C69.3076 29.9727 68.3893 30.1641 67.291 30.1641C65.8691 30.1641 64.7298 29.7152 63.873 28.8174C63.0163 27.9196 62.5879 26.7415 62.5879 25.2832C62.5879 23.7155 63.0687 22.4486 64.0303 21.4824C64.9964 20.5163 66.2155 20.0332 67.6875 20.0332C68.6354 20.0332 69.4215 20.1676 70.0459 20.4365V22.0498C69.3851 21.6579 68.6559 21.4619 67.8584 21.4619C66.7965 21.4619 65.9352 21.8014 65.2744 22.4805C64.6182 23.1595 64.29 24.0664 64.29 25.2012C64.29 26.2812 64.5977 27.1426 65.2129 27.7852C65.8281 28.4232 66.637 28.7422 67.6396 28.7422C68.5648 28.7422 69.3669 28.5234 70.0459 28.0859V29.5898ZM77.832 30H76.2461V28.8926H76.2188C75.7585 29.7402 75.043 30.1641 74.0723 30.1641C72.418 30.1641 71.5908 29.1706 71.5908 27.1836V23H73.1768V27.0195C73.1768 28.2773 73.6621 28.9062 74.6328 28.9062C75.1022 28.9062 75.4873 28.7331 75.7881 28.3867C76.0934 28.0404 76.2461 27.5869 76.2461 27.0264V23H77.832V30ZM79.4658 29.7812V28.3115C80.0583 28.7627 80.7122 28.9883 81.4277 28.9883C82.3848 28.9883 82.8633 28.7057 82.8633 28.1406C82.8633 27.9811 82.8223 27.8467 82.7402 27.7373C82.6582 27.6234 82.5465 27.5231 82.4053 27.4365C82.2686 27.3499 82.1045 27.2725 81.9131 27.2041C81.7262 27.1357 81.5166 27.0583 81.2842 26.9717C80.9971 26.8577 80.7373 26.737 80.5049 26.6094C80.277 26.4818 80.0856 26.3382 79.9307 26.1787C79.7803 26.0146 79.6663 25.8301 79.5889 25.625C79.5114 25.4199 79.4727 25.1807 79.4727 24.9072C79.4727 24.57 79.5524 24.2738 79.7119 24.0186C79.8714 23.7588 80.0856 23.5423 80.3545 23.3691C80.6234 23.1914 80.9287 23.0592 81.2705 22.9727C81.6123 22.8815 81.9655 22.8359 82.3301 22.8359C82.9772 22.8359 83.556 22.9339 84.0664 23.1299V24.5176C83.5742 24.1803 83.0091 24.0117 82.3711 24.0117C82.1706 24.0117 81.9883 24.0322 81.8242 24.0732C81.6647 24.1143 81.528 24.1712 81.4141 24.2441C81.3001 24.3171 81.2113 24.4059 81.1475 24.5107C81.0837 24.611 81.0518 24.7227 81.0518 24.8457C81.0518 24.9961 81.0837 25.1237 81.1475 25.2285C81.2113 25.3333 81.3047 25.4268 81.4277 25.5088C81.5553 25.5863 81.7057 25.6592 81.8789 25.7275C82.0566 25.7913 82.2594 25.862 82.4873 25.9395C82.7881 26.0625 83.057 26.1878 83.2939 26.3154C83.5355 26.443 83.7406 26.5889 83.9092 26.7529C84.0778 26.9124 84.2077 27.0993 84.2988 27.3135C84.39 27.5231 84.4355 27.7738 84.4355 28.0654C84.4355 28.4209 84.3535 28.7308 84.1895 28.9951C84.0254 29.2594 83.8066 29.4782 83.5332 29.6514C83.2598 29.8245 82.943 29.9521 82.583 30.0342C82.2275 30.1208 81.8516 30.1641 81.4551 30.1641C80.6895 30.1641 80.0264 30.0365 79.4658 29.7812ZM89.6377 29.9248C89.3278 30.0798 88.9199 30.1572 88.4141 30.1572C87.056 30.1572 86.377 29.5055 86.377 28.2021V24.2441H85.208V23H86.377V21.3799L87.9629 20.9287V23H89.6377V24.2441H87.9629V27.7441C87.9629 28.1589 88.0381 28.4551 88.1885 28.6328C88.3389 28.8105 88.5895 28.8994 88.9404 28.8994C89.2093 28.8994 89.4417 28.8219 89.6377 28.667V29.9248ZM94.0264 30.1641C92.9463 30.1641 92.0827 29.8382 91.4355 29.1865C90.793 28.5303 90.4717 27.6621 90.4717 26.582C90.4717 25.4062 90.8066 24.488 91.4766 23.8271C92.151 23.1663 93.0579 22.8359 94.1973 22.8359C95.291 22.8359 96.1432 23.1572 96.7539 23.7998C97.3646 24.4424 97.6699 25.3333 97.6699 26.4727C97.6699 27.5892 97.3395 28.4847 96.6787 29.1592C96.0225 29.8291 95.1383 30.1641 94.0264 30.1641ZM94.1016 24.1006C93.4818 24.1006 92.9919 24.3171 92.6318 24.75C92.2718 25.1829 92.0918 25.7799 92.0918 26.541C92.0918 27.2747 92.2741 27.8535 92.6387 28.2773C93.0033 28.6966 93.4909 28.9062 94.1016 28.9062C94.7259 28.9062 95.2044 28.6989 95.5371 28.2842C95.8743 27.8695 96.043 27.2793 96.043 26.5137C96.043 25.7435 95.8743 25.1488 95.5371 24.7295C95.2044 24.3102 94.7259 24.1006 94.1016 24.1006ZM109.756 30H108.17V26.1855C108.17 25.4518 108.065 24.9209 107.855 24.5928C107.65 24.2646 107.302 24.1006 106.81 24.1006C106.395 24.1006 106.042 24.3079 105.75 24.7227C105.463 25.1374 105.319 25.6341 105.319 26.2129V30H103.727V26.0557C103.727 24.7523 103.266 24.1006 102.346 24.1006C101.917 24.1006 101.564 24.2965 101.286 24.6885C101.013 25.0804 100.876 25.5885 100.876 26.2129V30H99.29V23H100.876V24.1074H100.903C101.409 23.2598 102.145 22.8359 103.111 22.8359C103.594 22.8359 104.016 22.9704 104.376 23.2393C104.741 23.5036 104.989 23.8522 105.121 24.2852C105.641 23.319 106.415 22.8359 107.445 22.8359C108.986 22.8359 109.756 23.7861 109.756 25.6865V30ZM112.49 21.5303C112.23 21.5303 112.007 21.446 111.82 21.2773C111.638 21.1087 111.547 20.8945 111.547 20.6348C111.547 20.375 111.638 20.1585 111.82 19.9854C112.007 19.8122 112.23 19.7256 112.49 19.7256C112.759 19.7256 112.987 19.8122 113.174 19.9854C113.361 20.1585 113.454 20.375 113.454 20.6348C113.454 20.8809 113.361 21.0928 113.174 21.2705C112.987 21.4437 112.759 21.5303 112.49 21.5303ZM113.276 30H111.69V23H113.276V30ZM120.522 23.6631L116.742 28.7627H120.509V30H114.521V29.4053L118.383 24.2373H114.89V23H120.522V23.6631ZM127.789 26.9307H123.018C123.036 27.5778 123.234 28.0768 123.612 28.4277C123.995 28.7786 124.519 28.9541 125.185 28.9541C125.932 28.9541 126.618 28.7308 127.242 28.2842V29.5625C126.604 29.9635 125.761 30.1641 124.713 30.1641C123.683 30.1641 122.874 29.8473 122.286 29.2139C121.703 28.5758 121.411 27.6803 121.411 26.5273C121.411 25.4382 121.732 24.5518 122.375 23.8682C123.022 23.18 123.824 22.8359 124.781 22.8359C125.738 22.8359 126.479 23.1436 127.003 23.7588C127.527 24.374 127.789 25.2285 127.789 26.3223V26.9307ZM126.258 25.8096C126.253 25.2399 126.119 24.7979 125.854 24.4834C125.59 24.1644 125.226 24.0049 124.761 24.0049C124.305 24.0049 123.918 24.1712 123.599 24.5039C123.284 24.8366 123.09 25.2718 123.018 25.8096H126.258ZM133.955 21.5303C133.695 21.5303 133.472 21.446 133.285 21.2773C133.103 21.1087 133.012 20.8945 133.012 20.6348C133.012 20.375 133.103 20.1585 133.285 19.9854C133.472 19.8122 133.695 19.7256 133.955 19.7256C134.224 19.7256 134.452 19.8122 134.639 19.9854C134.826 20.1585 134.919 20.375 134.919 20.6348C134.919 20.8809 134.826 21.0928 134.639 21.2705C134.452 21.4437 134.224 21.5303 133.955 21.5303ZM134.741 30H133.155V23H134.741V30ZM143.054 30H141.468V26.0557C141.468 24.7477 141.005 24.0938 140.08 24.0938C139.597 24.0938 139.198 24.276 138.884 24.6406C138.569 25.0007 138.412 25.4564 138.412 26.0078V30H136.819V23H138.412V24.1621H138.439C138.964 23.278 139.72 22.8359 140.709 22.8359C141.47 22.8359 142.051 23.0843 142.452 23.5811C142.853 24.0732 143.054 24.7865 143.054 25.7207V30ZM144.558 29.7812V28.3115C145.15 28.7627 145.804 28.9883 146.52 28.9883C147.477 28.9883 147.955 28.7057 147.955 28.1406C147.955 27.9811 147.914 27.8467 147.832 27.7373C147.75 27.6234 147.638 27.5231 147.497 27.4365C147.36 27.3499 147.196 27.2725 147.005 27.2041C146.818 27.1357 146.608 27.0583 146.376 26.9717C146.089 26.8577 145.829 26.737 145.597 26.6094C145.369 26.4818 145.177 26.3382 145.022 26.1787C144.872 26.0146 144.758 25.8301 144.681 25.625C144.603 25.4199 144.564 25.1807 144.564 24.9072C144.564 24.57 144.644 24.2738 144.804 24.0186C144.963 23.7588 145.177 23.5423 145.446 23.3691C145.715 23.1914 146.021 23.0592 146.362 22.9727C146.704 22.8815 147.057 22.8359 147.422 22.8359C148.069 22.8359 148.648 22.9339 149.158 23.1299V24.5176C148.666 24.1803 148.101 24.0117 147.463 24.0117C147.262 24.0117 147.08 24.0322 146.916 24.0732C146.757 24.1143 146.62 24.1712 146.506 24.2441C146.392 24.3171 146.303 24.4059 146.239 24.5107C146.175 24.611 146.144 24.7227 146.144 24.8457C146.144 24.9961 146.175 25.1237 146.239 25.2285C146.303 25.3333 146.396 25.4268 146.52 25.5088C146.647 25.5863 146.798 25.6592 146.971 25.7275C147.148 25.7913 147.351 25.862 147.579 25.9395C147.88 26.0625 148.149 26.1878 148.386 26.3154C148.627 26.443 148.832 26.5889 149.001 26.7529C149.17 26.9124 149.299 27.0993 149.391 27.3135C149.482 27.5231 149.527 27.7738 149.527 28.0654C149.527 28.4209 149.445 28.7308 149.281 28.9951C149.117 29.2594 148.898 29.4782 148.625 29.6514C148.352 29.8245 148.035 29.9521 147.675 30.0342C147.319 30.1208 146.943 30.1641 146.547 30.1641C145.781 30.1641 145.118 30.0365 144.558 29.7812ZM154.729 29.9248C154.42 30.0798 154.012 30.1572 153.506 30.1572C152.148 30.1572 151.469 29.5055 151.469 28.2021V24.2441H150.3V23H151.469V21.3799L153.055 20.9287V23H154.729V24.2441H153.055V27.7441C153.055 28.1589 153.13 28.4551 153.28 28.6328C153.431 28.8105 153.681 28.8994 154.032 28.8994C154.301 28.8994 154.534 28.8219 154.729 28.667V29.9248ZM160.157 24.5107C159.966 24.3604 159.69 24.2852 159.33 24.2852C158.861 24.2852 158.469 24.4971 158.154 24.9209C157.84 25.3447 157.683 25.9212 157.683 26.6504V30H156.097V23H157.683V24.4424H157.71C157.865 23.9502 158.102 23.5674 158.421 23.2939C158.744 23.016 159.104 22.877 159.501 22.877C159.788 22.877 160.007 22.9202 160.157 23.0068V24.5107ZM167.383 30H165.797V28.8926H165.77C165.309 29.7402 164.594 30.1641 163.623 30.1641C161.969 30.1641 161.142 29.1706 161.142 27.1836V23H162.728V27.0195C162.728 28.2773 163.213 28.9062 164.184 28.9062C164.653 28.9062 165.038 28.7331 165.339 28.3867C165.644 28.0404 165.797 27.5869 165.797 27.0264V23H167.383V30ZM174.465 29.6787C173.904 30.0023 173.241 30.1641 172.476 30.1641C171.437 30.1641 170.598 29.8405 169.96 29.1934C169.322 28.5417 169.003 27.6986 169.003 26.6641C169.003 25.5111 169.345 24.5859 170.028 23.8887C170.716 23.1868 171.635 22.8359 172.783 22.8359C173.421 22.8359 173.984 22.9476 174.472 23.1709V24.6475C173.984 24.2829 173.465 24.1006 172.913 24.1006C172.243 24.1006 171.694 24.3285 171.266 24.7842C170.837 25.2354 170.623 25.8278 170.623 26.5615C170.623 27.2861 170.824 27.8581 171.225 28.2773C171.63 28.6966 172.173 28.9062 172.852 28.9062C173.421 28.9062 173.959 28.7035 174.465 28.2979V29.6787ZM179.735 29.9248C179.425 30.0798 179.018 30.1572 178.512 30.1572C177.154 30.1572 176.475 29.5055 176.475 28.2021V24.2441H175.306V23H176.475V21.3799L178.061 20.9287V23H179.735V24.2441H178.061V27.7441C178.061 28.1589 178.136 28.4551 178.286 28.6328C178.437 28.8105 178.687 28.8994 179.038 28.8994C179.307 28.8994 179.539 28.8219 179.735 28.667V29.9248ZM181.902 21.5303C181.643 21.5303 181.419 21.446 181.232 21.2773C181.05 21.1087 180.959 20.8945 180.959 20.6348C180.959 20.375 181.05 20.1585 181.232 19.9854C181.419 19.8122 181.643 19.7256 181.902 19.7256C182.171 19.7256 182.399 19.8122 182.586 19.9854C182.773 20.1585 182.866 20.375 182.866 20.6348C182.866 20.8809 182.773 21.0928 182.586 21.2705C182.399 21.4437 182.171 21.5303 181.902 21.5303ZM182.688 30H181.103V23H182.688V30ZM187.87 30.1641C186.79 30.1641 185.926 29.8382 185.279 29.1865C184.637 28.5303 184.315 27.6621 184.315 26.582C184.315 25.4062 184.65 24.488 185.32 23.8271C185.995 23.1663 186.902 22.8359 188.041 22.8359C189.135 22.8359 189.987 23.1572 190.598 23.7998C191.208 24.4424 191.514 25.3333 191.514 26.4727C191.514 27.5892 191.183 28.4847 190.522 29.1592C189.866 29.8291 188.982 30.1641 187.87 30.1641ZM187.945 24.1006C187.326 24.1006 186.836 24.3171 186.476 24.75C186.116 25.1829 185.936 25.7799 185.936 26.541C185.936 27.2747 186.118 27.8535 186.482 28.2773C186.847 28.6966 187.335 28.9062 187.945 28.9062C188.57 28.9062 189.048 28.6989 189.381 28.2842C189.718 27.8695 189.887 27.2793 189.887 26.5137C189.887 25.7435 189.718 25.1488 189.381 24.7295C189.048 24.3102 188.57 24.1006 187.945 24.1006ZM199.368 30H197.782V26.0557C197.782 24.7477 197.32 24.0938 196.395 24.0938C195.911 24.0938 195.513 24.276 195.198 24.6406C194.884 25.0007 194.727 25.4564 194.727 26.0078V30H193.134V23H194.727V24.1621H194.754C195.278 23.278 196.035 22.8359 197.023 22.8359C197.785 22.8359 198.366 23.0843 198.767 23.5811C199.168 24.0732 199.368 24.7865 199.368 25.7207V30ZM200.872 29.7812V28.3115C201.465 28.7627 202.118 28.9883 202.834 28.9883C203.791 28.9883 204.27 28.7057 204.27 28.1406C204.27 27.9811 204.229 27.8467 204.146 27.7373C204.064 27.6234 203.953 27.5231 203.812 27.4365C203.675 27.3499 203.511 27.2725 203.319 27.2041C203.132 27.1357 202.923 27.0583 202.69 26.9717C202.403 26.8577 202.144 26.737 201.911 26.6094C201.683 26.4818 201.492 26.3382 201.337 26.1787C201.187 26.0146 201.073 25.8301 200.995 25.625C200.918 25.4199 200.879 25.1807 200.879 24.9072C200.879 24.57 200.959 24.2738 201.118 24.0186C201.278 23.7588 201.492 23.5423 201.761 23.3691C202.03 23.1914 202.335 23.0592 202.677 22.9727C203.019 22.8815 203.372 22.8359 203.736 22.8359C204.383 22.8359 204.962 22.9339 205.473 23.1299V24.5176C204.98 24.1803 204.415 24.0117 203.777 24.0117C203.577 24.0117 203.395 24.0322 203.23 24.0732C203.071 24.1143 202.934 24.1712 202.82 24.2441C202.706 24.3171 202.618 24.4059 202.554 24.5107C202.49 24.611 202.458 24.7227 202.458 24.8457C202.458 24.9961 202.49 25.1237 202.554 25.2285C202.618 25.3333 202.711 25.4268 202.834 25.5088C202.962 25.5863 203.112 25.6592 203.285 25.7275C203.463 25.7913 203.666 25.862 203.894 25.9395C204.194 26.0625 204.463 26.1878 204.7 26.3154C204.942 26.443 205.147 26.5889 205.315 26.7529C205.484 26.9124 205.614 27.0993 205.705 27.3135C205.796 27.5231 205.842 27.7738 205.842 28.0654C205.842 28.4209 205.76 28.7308 205.596 28.9951C205.432 29.2594 205.213 29.4782 204.939 29.6514C204.666 29.8245 204.349 29.9521 203.989 30.0342C203.634 30.1208 203.258 30.1641 202.861 30.1641C202.096 30.1641 201.433 30.0365 200.872 29.7812Z" fill="white"/>
<path d="M17.6 18.72H16.56L15.04 17.12L16.08 16.08L17.12 17.12L19.2 14.96L20.32 16.08L17.6 18.72ZM22.48 16.48H34.48V18H22.48V16.48ZM22.48 20.96H34.48V22.48H22.48V20.96ZM34.48 25.52H22.48V26.96H34.48V25.52ZM22.48 30H34.48V31.52H22.48V30ZM16.56 23.2H17.6L20.32 20.56L19.2 19.52L17.12 21.6L16.08 20.56L15.04 21.68L16.56 23.2ZM17.6 27.76H16.56L15.04 26.16L16.08 25.12L17.12 26.16L19.2 24L20.32 25.04L17.6 27.76ZM16.56 32.24H17.6L20.32 29.6L19.2 28.56L17.12 30.64L16.08 29.6L15.04 30.64L16.56 32.24Z" fill="white"/>
<path d="M0.5 66C0.5 61.8579 3.85786 58.5 8 58.5H40C44.1421 58.5 47.5 61.8579 47.5 66V98C47.5 102.142 44.1421 105.5 40 105.5H8C3.85787 105.5 0.5 102.142 0.5 98V66Z" fill="#252526" stroke="#005FB8"/>
<path d="M48.5 66C48.5 61.8579 51.8579 58.5 56 58.5H519C523.142 58.5 526.5 61.8579 526.5 66V98C526.5 102.142 523.142 105.5 519 105.5H56C51.8579 105.5 48.5 102.142 48.5 98V66Z" fill="#252526" stroke="#005FB8"/>
<path d="M73.2627 87H71.4785L70.5967 84.5049H66.7412L65.8936 87H64.1162L67.7871 77.1973H69.6191L73.2627 87ZM70.166 83.1787L68.8057 79.2686C68.7646 79.141 68.7214 78.9359 68.6758 78.6533H68.6484C68.6074 78.9131 68.5618 79.1182 68.5117 79.2686L67.165 83.1787H70.166ZM80.8027 87H79.2168V85.8105H79.1895C78.679 86.7129 77.8929 87.1641 76.8311 87.1641C75.9697 87.1641 75.2793 86.8519 74.7598 86.2275C74.2448 85.5986 73.9873 84.7441 73.9873 83.6641C73.9873 82.5065 74.2721 81.5791 74.8418 80.8818C75.416 80.1846 76.1794 79.8359 77.1318 79.8359C78.0752 79.8359 78.7611 80.2142 79.1895 80.9707H79.2168V76.6367H80.8027V87ZM79.2373 83.8008V82.8848C79.2373 82.388 79.0755 81.9665 78.752 81.6201C78.4284 81.2738 78.016 81.1006 77.5146 81.1006C76.9222 81.1006 76.4551 81.3216 76.1133 81.7637C75.776 82.2057 75.6074 82.8187 75.6074 83.6025C75.6074 84.3135 75.7692 84.8763 76.0928 85.291C76.4209 85.7012 76.8607 85.9062 77.4121 85.9062C77.9544 85.9062 78.3942 85.708 78.7314 85.3115C79.0687 84.9105 79.2373 84.4069 79.2373 83.8008ZM89.2383 87H87.6523V85.8105H87.625C87.1146 86.7129 86.3285 87.1641 85.2666 87.1641C84.4053 87.1641 83.7148 86.8519 83.1953 86.2275C82.6803 85.5986 82.4229 84.7441 82.4229 83.6641C82.4229 82.5065 82.7077 81.5791 83.2773 80.8818C83.8516 80.1846 84.6149 79.8359 85.5674 79.8359C86.5107 79.8359 87.1966 80.2142 87.625 80.9707H87.6523V76.6367H89.2383V87ZM87.6729 83.8008V82.8848C87.6729 82.388 87.5111 81.9665 87.1875 81.6201C86.8639 81.2738 86.4515 81.1006 85.9502 81.1006C85.3577 81.1006 84.8906 81.3216 84.5488 81.7637C84.2116 82.2057 84.043 82.8187 84.043 83.6025C84.043 84.3135 84.2048 84.8763 84.5283 85.291C84.8564 85.7012 85.2962 85.9062 85.8477 85.9062C86.39 85.9062 86.8298 85.708 87.167 85.3115C87.5042 84.9105 87.6729 84.4069 87.6729 83.8008ZM100.176 86.6787C99.6152 87.0023 98.9521 87.1641 98.1865 87.1641C97.1475 87.1641 96.3089 86.8405 95.6709 86.1934C95.0329 85.5417 94.7139 84.6986 94.7139 83.6641C94.7139 82.5111 95.0557 81.5859 95.7393 80.8887C96.4274 80.1868 97.3457 79.8359 98.4941 79.8359C99.1322 79.8359 99.695 79.9476 100.183 80.1709V81.6475C99.695 81.2829 99.1755 81.1006 98.624 81.1006C97.9541 81.1006 97.4049 81.3285 96.9766 81.7842C96.5482 82.2354 96.334 82.8278 96.334 83.5615C96.334 84.2861 96.5345 84.8581 96.9355 85.2773C97.3411 85.6966 97.8835 85.9062 98.5625 85.9062C99.1322 85.9062 99.6699 85.7035 100.176 85.2979V86.6787ZM104.858 87.1641C103.778 87.1641 102.915 86.8382 102.268 86.1865C101.625 85.5303 101.304 84.6621 101.304 83.582C101.304 82.4062 101.639 81.488 102.309 80.8271C102.983 80.1663 103.89 79.8359 105.029 79.8359C106.123 79.8359 106.975 80.1572 107.586 80.7998C108.197 81.4424 108.502 82.3333 108.502 83.4727C108.502 84.5892 108.172 85.4847 107.511 86.1592C106.854 86.8291 105.97 87.1641 104.858 87.1641ZM104.934 81.1006C104.314 81.1006 103.824 81.3171 103.464 81.75C103.104 82.1829 102.924 82.7799 102.924 83.541C102.924 84.2747 103.106 84.8535 103.471 85.2773C103.835 85.6966 104.323 85.9062 104.934 85.9062C105.558 85.9062 106.036 85.6989 106.369 85.2842C106.706 84.8695 106.875 84.2793 106.875 83.5137C106.875 82.7435 106.706 82.1488 106.369 81.7295C106.036 81.3102 105.558 81.1006 104.934 81.1006ZM116.356 87H114.771V83.0557C114.771 81.7477 114.308 81.0938 113.383 81.0938C112.9 81.0938 112.501 81.276 112.187 81.6406C111.872 82.0007 111.715 82.4564 111.715 83.0078V87H110.122V80H111.715V81.1621H111.742C112.266 80.278 113.023 79.8359 114.012 79.8359C114.773 79.8359 115.354 80.0843 115.755 80.5811C116.156 81.0732 116.356 81.7865 116.356 82.7207V87ZM124.327 80L121.62 87H119.904L117.327 80H119.05L120.602 84.8945C120.72 85.2546 120.793 85.569 120.82 85.8379H120.841C120.882 85.5007 120.946 85.1953 121.032 84.9219L122.659 80H124.327ZM131.225 83.9307H126.453C126.471 84.5778 126.67 85.0768 127.048 85.4277C127.431 85.7786 127.955 85.9541 128.62 85.9541C129.368 85.9541 130.053 85.7308 130.678 85.2842V86.5625C130.04 86.9635 129.197 87.1641 128.148 87.1641C127.118 87.1641 126.31 86.8473 125.722 86.2139C125.138 85.5758 124.847 84.6803 124.847 83.5273C124.847 82.4382 125.168 81.5518 125.811 80.8682C126.458 80.18 127.26 79.8359 128.217 79.8359C129.174 79.8359 129.914 80.1436 130.438 80.7588C130.963 81.374 131.225 82.2285 131.225 83.3223V83.9307ZM129.693 82.8096C129.689 82.2399 129.554 81.7979 129.29 81.4834C129.026 81.1644 128.661 81.0049 128.196 81.0049C127.741 81.0049 127.353 81.1712 127.034 81.5039C126.72 81.8366 126.526 82.2718 126.453 82.8096H129.693ZM136.796 81.5107C136.604 81.3604 136.329 81.2852 135.969 81.2852C135.499 81.2852 135.107 81.4971 134.793 81.9209C134.479 82.3447 134.321 82.9212 134.321 83.6504V87H132.735V80H134.321V81.4424H134.349C134.504 80.9502 134.741 80.5674 135.06 80.2939C135.383 80.016 135.743 79.877 136.14 79.877C136.427 79.877 136.646 79.9202 136.796 80.0068V81.5107ZM137.575 86.7812V85.3115C138.168 85.7627 138.822 85.9883 139.537 85.9883C140.494 85.9883 140.973 85.7057 140.973 85.1406C140.973 84.9811 140.932 84.8467 140.85 84.7373C140.768 84.6234 140.656 84.5231 140.515 84.4365C140.378 84.3499 140.214 84.2725 140.022 84.2041C139.836 84.1357 139.626 84.0583 139.394 83.9717C139.106 83.8577 138.847 83.737 138.614 83.6094C138.386 83.4818 138.195 83.3382 138.04 83.1787C137.89 83.0146 137.776 82.8301 137.698 82.625C137.621 82.4199 137.582 82.1807 137.582 81.9072C137.582 81.57 137.662 81.2738 137.821 81.0186C137.981 80.7588 138.195 80.5423 138.464 80.3691C138.733 80.1914 139.038 80.0592 139.38 79.9727C139.722 79.8815 140.075 79.8359 140.439 79.8359C141.087 79.8359 141.665 79.9339 142.176 80.1299V81.5176C141.684 81.1803 141.118 81.0117 140.48 81.0117C140.28 81.0117 140.098 81.0322 139.934 81.0732C139.774 81.1143 139.637 81.1712 139.523 81.2441C139.41 81.3171 139.321 81.4059 139.257 81.5107C139.193 81.611 139.161 81.7227 139.161 81.8457C139.161 81.9961 139.193 82.1237 139.257 82.2285C139.321 82.3333 139.414 82.4268 139.537 82.5088C139.665 82.5863 139.815 82.6592 139.988 82.7275C140.166 82.7913 140.369 82.862 140.597 82.9395C140.897 83.0625 141.166 83.1878 141.403 83.3154C141.645 83.443 141.85 83.5889 142.019 83.7529C142.187 83.9124 142.317 84.0993 142.408 84.3135C142.499 84.5231 142.545 84.7738 142.545 85.0654C142.545 85.4209 142.463 85.7308 142.299 85.9951C142.135 86.2594 141.916 86.4782 141.643 86.6514C141.369 86.8245 141.052 86.9521 140.692 87.0342C140.337 87.1208 139.961 87.1641 139.564 87.1641C138.799 87.1641 138.136 87.0365 137.575 86.7812ZM149.429 87H147.891V85.9062H147.863C147.38 86.7448 146.672 87.1641 145.737 87.1641C145.049 87.1641 144.509 86.9772 144.117 86.6035C143.73 86.2298 143.536 85.7354 143.536 85.1201C143.536 83.7985 144.297 83.0283 145.819 82.8096L147.897 82.5156C147.897 81.5176 147.424 81.0186 146.476 81.0186C145.642 81.0186 144.89 81.3057 144.22 81.8799V80.4922C144.958 80.0547 145.81 79.8359 146.776 79.8359C148.545 79.8359 149.429 80.7064 149.429 82.4473V87ZM147.897 83.5615L146.428 83.7666C145.972 83.8258 145.628 83.9375 145.396 84.1016C145.168 84.2611 145.054 84.5436 145.054 84.9492C145.054 85.2454 145.159 85.4893 145.368 85.6807C145.582 85.8675 145.867 85.9609 146.223 85.9609C146.706 85.9609 147.104 85.7923 147.419 85.4551C147.738 85.1133 147.897 84.6849 147.897 84.1699V83.5615ZM155.062 86.9248C154.752 87.0798 154.344 87.1572 153.838 87.1572C152.48 87.1572 151.801 86.5055 151.801 85.2021V81.2441H150.632V80H151.801V78.3799L153.387 77.9287V80H155.062V81.2441H153.387V84.7441C153.387 85.1589 153.462 85.4551 153.612 85.6328C153.763 85.8105 154.013 85.8994 154.364 85.8994C154.633 85.8994 154.866 85.8219 155.062 85.667V86.9248ZM157.229 78.5303C156.969 78.5303 156.745 78.446 156.559 78.2773C156.376 78.1087 156.285 77.8945 156.285 77.6348C156.285 77.375 156.376 77.1585 156.559 76.9854C156.745 76.8122 156.969 76.7256 157.229 76.7256C157.497 76.7256 157.725 76.8122 157.912 76.9854C158.099 77.1585 158.192 77.375 158.192 77.6348C158.192 77.8809 158.099 78.0928 157.912 78.2705C157.725 78.4437 157.497 78.5303 157.229 78.5303ZM158.015 87H156.429V80H158.015V87ZM163.196 87.1641C162.116 87.1641 161.253 86.8382 160.605 86.1865C159.963 85.5303 159.642 84.6621 159.642 83.582C159.642 82.4062 159.977 81.488 160.646 80.8271C161.321 80.1663 162.228 79.8359 163.367 79.8359C164.461 79.8359 165.313 80.1572 165.924 80.7998C166.535 81.4424 166.84 82.3333 166.84 83.4727C166.84 84.5892 166.509 85.4847 165.849 86.1592C165.192 86.8291 164.308 87.1641 163.196 87.1641ZM163.271 81.1006C162.652 81.1006 162.162 81.3171 161.802 81.75C161.442 82.1829 161.262 82.7799 161.262 83.541C161.262 84.2747 161.444 84.8535 161.809 85.2773C162.173 85.6966 162.661 85.9062 163.271 85.9062C163.896 85.9062 164.374 85.6989 164.707 85.2842C165.044 84.8695 165.213 84.2793 165.213 83.5137C165.213 82.7435 165.044 82.1488 164.707 81.7295C164.374 81.3102 163.896 81.1006 163.271 81.1006ZM174.694 87H173.108V83.0557C173.108 81.7477 172.646 81.0938 171.721 81.0938C171.238 81.0938 170.839 81.276 170.524 81.6406C170.21 82.0007 170.053 82.4564 170.053 83.0078V87H168.46V80H170.053V81.1621H170.08C170.604 80.278 171.361 79.8359 172.35 79.8359C173.111 79.8359 173.692 80.0843 174.093 80.5811C174.494 81.0732 174.694 81.7865 174.694 82.7207V87ZM180.054 86.7812V85.3115C180.646 85.7627 181.3 85.9883 182.016 85.9883C182.973 85.9883 183.451 85.7057 183.451 85.1406C183.451 84.9811 183.41 84.8467 183.328 84.7373C183.246 84.6234 183.134 84.5231 182.993 84.4365C182.856 84.3499 182.692 84.2725 182.501 84.2041C182.314 84.1357 182.104 84.0583 181.872 83.9717C181.585 83.8577 181.325 83.737 181.093 83.6094C180.865 83.4818 180.674 83.3382 180.519 83.1787C180.368 83.0146 180.254 82.8301 180.177 82.625C180.099 82.4199 180.061 82.1807 180.061 81.9072C180.061 81.57 180.14 81.2738 180.3 81.0186C180.459 80.7588 180.674 80.5423 180.942 80.3691C181.211 80.1914 181.517 80.0592 181.858 79.9727C182.2 79.8815 182.553 79.8359 182.918 79.8359C183.565 79.8359 184.144 79.9339 184.654 80.1299V81.5176C184.162 81.1803 183.597 81.0117 182.959 81.0117C182.758 81.0117 182.576 81.0322 182.412 81.0732C182.253 81.1143 182.116 81.1712 182.002 81.2441C181.888 81.3171 181.799 81.4059 181.735 81.5107C181.672 81.611 181.64 81.7227 181.64 81.8457C181.64 81.9961 181.672 82.1237 181.735 82.2285C181.799 82.3333 181.893 82.4268 182.016 82.5088C182.143 82.5863 182.294 82.6592 182.467 82.7275C182.645 82.7913 182.847 82.862 183.075 82.9395C183.376 83.0625 183.645 83.1878 183.882 83.3154C184.123 83.443 184.328 83.5889 184.497 83.7529C184.666 83.9124 184.796 84.0993 184.887 84.3135C184.978 84.5231 185.023 84.7738 185.023 85.0654C185.023 85.4209 184.941 85.7308 184.777 85.9951C184.613 86.2594 184.395 86.4782 184.121 86.6514C183.848 86.8245 183.531 86.9521 183.171 87.0342C182.815 87.1208 182.439 87.1641 182.043 87.1641C181.277 87.1641 180.614 87.0365 180.054 86.7812ZM190.226 86.9248C189.916 87.0798 189.508 87.1572 189.002 87.1572C187.644 87.1572 186.965 86.5055 186.965 85.2021V81.2441H185.796V80H186.965V78.3799L188.551 77.9287V80H190.226V81.2441H188.551V84.7441C188.551 85.1589 188.626 85.4551 188.776 85.6328C188.927 85.8105 189.177 85.8994 189.528 85.8994C189.797 85.8994 190.03 85.8219 190.226 85.667V86.9248ZM196.966 87H195.428V85.9062H195.4C194.917 86.7448 194.209 87.1641 193.274 87.1641C192.586 87.1641 192.046 86.9772 191.654 86.6035C191.267 86.2298 191.073 85.7354 191.073 85.1201C191.073 83.7985 191.834 83.0283 193.356 82.8096L195.435 82.5156C195.435 81.5176 194.961 81.0186 194.013 81.0186C193.179 81.0186 192.427 81.3057 191.757 81.8799V80.4922C192.495 80.0547 193.347 79.8359 194.313 79.8359C196.082 79.8359 196.966 80.7064 196.966 82.4473V87ZM195.435 83.5615L193.965 83.7666C193.509 83.8258 193.165 83.9375 192.933 84.1016C192.705 84.2611 192.591 84.5436 192.591 84.9492C192.591 85.2454 192.696 85.4893 192.905 85.6807C193.119 85.8675 193.404 85.9609 193.76 85.9609C194.243 85.9609 194.642 85.7923 194.956 85.4551C195.275 85.1133 195.435 84.6849 195.435 84.1699V83.5615ZM202.968 81.5107C202.776 81.3604 202.501 81.2852 202.141 81.2852C201.671 81.2852 201.279 81.4971 200.965 81.9209C200.65 82.3447 200.493 82.9212 200.493 83.6504V87H198.907V80H200.493V81.4424H200.521C200.675 80.9502 200.912 80.5674 201.231 80.2939C201.555 80.016 201.915 79.877 202.312 79.877C202.599 79.877 202.817 79.9202 202.968 80.0068V81.5107ZM208.19 86.9248C207.881 87.0798 207.473 87.1572 206.967 87.1572C205.609 87.1572 204.93 86.5055 204.93 85.2021V81.2441H203.761V80H204.93V78.3799L206.516 77.9287V80H208.19V81.2441H206.516V84.7441C206.516 85.1589 206.591 85.4551 206.741 85.6328C206.892 85.8105 207.142 85.8994 207.493 85.8994C207.762 85.8994 207.994 85.8219 208.19 85.667V86.9248ZM215.402 83.9307H210.631C210.649 84.5778 210.847 85.0768 211.226 85.4277C211.608 85.7786 212.132 85.9541 212.798 85.9541C213.545 85.9541 214.231 85.7308 214.855 85.2842V86.5625C214.217 86.9635 213.374 87.1641 212.326 87.1641C211.296 87.1641 210.487 86.8473 209.899 86.2139C209.316 85.5758 209.024 84.6803 209.024 83.5273C209.024 82.4382 209.346 81.5518 209.988 80.8682C210.635 80.18 211.438 79.8359 212.395 79.8359C213.352 79.8359 214.092 80.1436 214.616 80.7588C215.14 81.374 215.402 82.2285 215.402 83.3223V83.9307ZM213.871 82.8096C213.867 82.2399 213.732 81.7979 213.468 81.4834C213.203 81.1644 212.839 81.0049 212.374 81.0049C211.918 81.0049 211.531 81.1712 211.212 81.5039C210.897 81.8366 210.704 82.2718 210.631 82.8096H213.871ZM220.974 81.5107C220.782 81.3604 220.507 81.2852 220.146 81.2852C219.677 81.2852 219.285 81.4971 218.971 81.9209C218.656 82.3447 218.499 82.9212 218.499 83.6504V87H216.913V80H218.499V81.4424H218.526C218.681 80.9502 218.918 80.5674 219.237 80.2939C219.561 80.016 219.921 79.877 220.317 79.877C220.604 79.877 220.823 79.9202 220.974 80.0068V81.5107ZM221.753 86.7812V85.3115C222.345 85.7627 222.999 85.9883 223.715 85.9883C224.672 85.9883 225.15 85.7057 225.15 85.1406C225.15 84.9811 225.109 84.8467 225.027 84.7373C224.945 84.6234 224.834 84.5231 224.692 84.4365C224.556 84.3499 224.392 84.2725 224.2 84.2041C224.013 84.1357 223.804 84.0583 223.571 83.9717C223.284 83.8577 223.024 83.737 222.792 83.6094C222.564 83.4818 222.373 83.3382 222.218 83.1787C222.067 83.0146 221.953 82.8301 221.876 82.625C221.799 82.4199 221.76 82.1807 221.76 81.9072C221.76 81.57 221.84 81.2738 221.999 81.0186C222.159 80.7588 222.373 80.5423 222.642 80.3691C222.91 80.1914 223.216 80.0592 223.558 79.9727C223.899 79.8815 224.253 79.8359 224.617 79.8359C225.264 79.8359 225.843 79.9339 226.354 80.1299V81.5176C225.861 81.1803 225.296 81.0117 224.658 81.0117C224.458 81.0117 224.275 81.0322 224.111 81.0732C223.952 81.1143 223.815 81.1712 223.701 81.2441C223.587 81.3171 223.498 81.4059 223.435 81.5107C223.371 81.611 223.339 81.7227 223.339 81.8457C223.339 81.9961 223.371 82.1237 223.435 82.2285C223.498 82.3333 223.592 82.4268 223.715 82.5088C223.842 82.5863 223.993 82.6592 224.166 82.7275C224.344 82.7913 224.547 82.862 224.774 82.9395C225.075 83.0625 225.344 83.1878 225.581 83.3154C225.823 83.443 226.028 83.5889 226.196 83.7529C226.365 83.9124 226.495 84.0993 226.586 84.3135C226.677 84.5231 226.723 84.7738 226.723 85.0654C226.723 85.4209 226.641 85.7308 226.477 85.9951C226.312 86.2594 226.094 86.4782 225.82 86.6514C225.547 86.8245 225.23 86.9521 224.87 87.0342C224.515 87.1208 224.139 87.1641 223.742 87.1641C222.977 87.1641 222.313 87.0365 221.753 86.7812Z" fill="white"/>
<path d="M18 86.96L19.52 85.44V87.6L17.76 89.28L16.48 88.72V84.96H14.24L13.52 84.24V72.24L14.24 71.52H32.24L33.04 72.24V78.96H31.52V72.96H15.04V83.52H17.28L18 84.24V86.96ZM27.44 89.52L30.24 92.24L31.52 91.76V89.52H33.76L34.48 88.72V81.28L33.76 80.48H21.76L21.04 81.28V88.72L21.76 89.52H27.44ZM27.76 88H22.48V82H33.04V88H30.72L30 88.72V89.92L28.24 88.24L27.76 88Z" fill="white"/>
<path d="M0.5 124C0.5 119.858 3.85786 116.5 8 116.5H40C44.1421 116.5 47.5 119.858 47.5 124V156C47.5 160.142 44.1421 163.5 40 163.5H8C3.85787 163.5 0.5 160.142 0.5 156V124Z" fill="#252526" stroke="#005FB8"/>
<path d="M48.5 124C48.5 119.858 51.8579 116.5 56 116.5H519C523.142 116.5 526.5 119.858 526.5 124V156C526.5 160.142 523.142 163.5 519 163.5H56C51.8579 163.5 48.5 160.142 48.5 156V124Z" fill="#252526" stroke="#005FB8"/>
<path d="M73.2627 145H71.4785L70.5967 142.505H66.7412L65.8936 145H64.1162L67.7871 135.197H69.6191L73.2627 145ZM70.166 141.179L68.8057 137.269C68.7646 137.141 68.7214 136.936 68.6758 136.653H68.6484C68.6074 136.913 68.5618 137.118 68.5117 137.269L67.165 141.179H70.166ZM80.8027 145H79.2168V143.811H79.1895C78.679 144.713 77.8929 145.164 76.8311 145.164C75.9697 145.164 75.2793 144.852 74.7598 144.228C74.2448 143.599 73.9873 142.744 73.9873 141.664C73.9873 140.507 74.2721 139.579 74.8418 138.882C75.416 138.185 76.1794 137.836 77.1318 137.836C78.0752 137.836 78.7611 138.214 79.1895 138.971H79.2168V134.637H80.8027V145ZM79.2373 141.801V140.885C79.2373 140.388 79.0755 139.966 78.752 139.62C78.4284 139.274 78.016 139.101 77.5146 139.101C76.9222 139.101 76.4551 139.322 76.1133 139.764C75.776 140.206 75.6074 140.819 75.6074 141.603C75.6074 142.313 75.7692 142.876 76.0928 143.291C76.4209 143.701 76.8607 143.906 77.4121 143.906C77.9544 143.906 78.3942 143.708 78.7314 143.312C79.0687 142.91 79.2373 142.407 79.2373 141.801ZM89.2383 145H87.6523V143.811H87.625C87.1146 144.713 86.3285 145.164 85.2666 145.164C84.4053 145.164 83.7148 144.852 83.1953 144.228C82.6803 143.599 82.4229 142.744 82.4229 141.664C82.4229 140.507 82.7077 139.579 83.2773 138.882C83.8516 138.185 84.6149 137.836 85.5674 137.836C86.5107 137.836 87.1966 138.214 87.625 138.971H87.6523V134.637H89.2383V145ZM87.6729 141.801V140.885C87.6729 140.388 87.5111 139.966 87.1875 139.62C86.8639 139.274 86.4515 139.101 85.9502 139.101C85.3577 139.101 84.8906 139.322 84.5488 139.764C84.2116 140.206 84.043 140.819 84.043 141.603C84.043 142.313 84.2048 142.876 84.5283 143.291C84.8564 143.701 85.2962 143.906 85.8477 143.906C86.39 143.906 86.8298 143.708 87.167 143.312C87.5042 142.91 87.6729 142.407 87.6729 141.801ZM104.578 138L102.514 145H100.853L99.5811 140.256C99.5309 140.074 99.499 139.868 99.4854 139.641H99.458C99.4489 139.796 99.4079 139.996 99.335 140.242L97.9541 145H96.3271L94.2695 138H95.9102L97.1816 143.045C97.2227 143.195 97.25 143.396 97.2637 143.646H97.3115C97.3252 143.455 97.3617 143.25 97.4209 143.031L98.8359 138H100.326L101.584 143.065C101.625 143.225 101.655 143.425 101.673 143.667H101.721C101.73 143.498 101.764 143.298 101.823 143.065L103.067 138H104.578ZM111.619 141.931H106.848C106.866 142.578 107.064 143.077 107.442 143.428C107.825 143.779 108.349 143.954 109.015 143.954C109.762 143.954 110.448 143.731 111.072 143.284V144.562C110.434 144.964 109.591 145.164 108.543 145.164C107.513 145.164 106.704 144.847 106.116 144.214C105.533 143.576 105.241 142.68 105.241 141.527C105.241 140.438 105.562 139.552 106.205 138.868C106.852 138.18 107.654 137.836 108.611 137.836C109.568 137.836 110.309 138.144 110.833 138.759C111.357 139.374 111.619 140.229 111.619 141.322V141.931ZM110.088 140.81C110.083 140.24 109.949 139.798 109.685 139.483C109.42 139.164 109.056 139.005 108.591 139.005C108.135 139.005 107.748 139.171 107.429 139.504C107.114 139.837 106.921 140.272 106.848 140.81H110.088ZM114.743 143.988H114.716V145H113.13V134.637H114.716V139.23H114.743C115.285 138.301 116.078 137.836 117.122 137.836C118.006 137.836 118.697 138.15 119.193 138.779C119.695 139.404 119.945 140.242 119.945 141.295C119.945 142.466 119.665 143.405 119.104 144.111C118.544 144.813 117.778 145.164 116.808 145.164C115.896 145.164 115.208 144.772 114.743 143.988ZM114.702 141.206V142.074C114.702 142.585 114.864 143.018 115.188 143.373C115.516 143.729 115.93 143.906 116.432 143.906C117.02 143.906 117.48 143.678 117.812 143.223C118.15 142.762 118.318 142.122 118.318 141.302C118.318 140.614 118.161 140.076 117.847 139.688C117.537 139.297 117.115 139.101 116.582 139.101C116.017 139.101 115.561 139.301 115.215 139.702C114.873 140.103 114.702 140.604 114.702 141.206ZM130.432 144.679C129.871 145.002 129.208 145.164 128.442 145.164C127.403 145.164 126.565 144.84 125.927 144.193C125.289 143.542 124.97 142.699 124.97 141.664C124.97 140.511 125.312 139.586 125.995 138.889C126.683 138.187 127.602 137.836 128.75 137.836C129.388 137.836 129.951 137.948 130.438 138.171V139.647C129.951 139.283 129.431 139.101 128.88 139.101C128.21 139.101 127.661 139.328 127.232 139.784C126.804 140.235 126.59 140.828 126.59 141.562C126.59 142.286 126.79 142.858 127.191 143.277C127.597 143.697 128.139 143.906 128.818 143.906C129.388 143.906 129.926 143.703 130.432 143.298V144.679ZM135.114 145.164C134.034 145.164 133.171 144.838 132.523 144.187C131.881 143.53 131.56 142.662 131.56 141.582C131.56 140.406 131.895 139.488 132.564 138.827C133.239 138.166 134.146 137.836 135.285 137.836C136.379 137.836 137.231 138.157 137.842 138.8C138.452 139.442 138.758 140.333 138.758 141.473C138.758 142.589 138.427 143.485 137.767 144.159C137.11 144.829 136.226 145.164 135.114 145.164ZM135.189 139.101C134.57 139.101 134.08 139.317 133.72 139.75C133.36 140.183 133.18 140.78 133.18 141.541C133.18 142.275 133.362 142.854 133.727 143.277C134.091 143.697 134.579 143.906 135.189 143.906C135.814 143.906 136.292 143.699 136.625 143.284C136.962 142.869 137.131 142.279 137.131 141.514C137.131 140.743 136.962 140.149 136.625 139.729C136.292 139.31 135.814 139.101 135.189 139.101ZM146.612 145H145.026V141.056C145.026 139.748 144.564 139.094 143.639 139.094C143.156 139.094 142.757 139.276 142.442 139.641C142.128 140.001 141.971 140.456 141.971 141.008V145H140.378V138H141.971V139.162H141.998C142.522 138.278 143.279 137.836 144.268 137.836C145.029 137.836 145.61 138.084 146.011 138.581C146.412 139.073 146.612 139.786 146.612 140.721V145ZM152.245 144.925C151.935 145.08 151.527 145.157 151.021 145.157C149.663 145.157 148.984 144.506 148.984 143.202V139.244H147.815V138H148.984V136.38L150.57 135.929V138H152.245V139.244H150.57V142.744C150.57 143.159 150.646 143.455 150.796 143.633C150.946 143.811 151.197 143.899 151.548 143.899C151.817 143.899 152.049 143.822 152.245 143.667V144.925ZM159.457 141.931H154.686C154.704 142.578 154.902 143.077 155.28 143.428C155.663 143.779 156.187 143.954 156.853 143.954C157.6 143.954 158.286 143.731 158.91 143.284V144.562C158.272 144.964 157.429 145.164 156.381 145.164C155.351 145.164 154.542 144.847 153.954 144.214C153.371 143.576 153.079 142.68 153.079 141.527C153.079 140.438 153.4 139.552 154.043 138.868C154.69 138.18 155.492 137.836 156.449 137.836C157.406 137.836 158.147 138.144 158.671 138.759C159.195 139.374 159.457 140.229 159.457 141.322V141.931ZM157.926 140.81C157.921 140.24 157.787 139.798 157.522 139.483C157.258 139.164 156.894 139.005 156.429 139.005C155.973 139.005 155.586 139.171 155.267 139.504C154.952 139.837 154.758 140.272 154.686 140.81H157.926ZM167.202 145H165.616V141.056C165.616 139.748 165.154 139.094 164.229 139.094C163.745 139.094 163.347 139.276 163.032 139.641C162.718 140.001 162.561 140.456 162.561 141.008V145H160.968V138H162.561V139.162H162.588C163.112 138.278 163.868 137.836 164.857 137.836C165.618 137.836 166.2 138.084 166.601 138.581C167.002 139.073 167.202 139.786 167.202 140.721V145ZM172.835 144.925C172.525 145.08 172.117 145.157 171.611 145.157C170.253 145.157 169.574 144.506 169.574 143.202V139.244H168.405V138H169.574V136.38L171.16 135.929V138H172.835V139.244H171.16V142.744C171.16 143.159 171.235 143.455 171.386 143.633C171.536 143.811 171.787 143.899 172.138 143.899C172.407 143.899 172.639 143.822 172.835 143.667V144.925Z" fill="white"/>
<path d="M24 150.5V149H27V150.5H24ZM15 152V146H33V152H31.5V147.5H22.5V152H21V147.5H16.5V152H15ZM24 141.5V140H30V141.5H24ZM30 131V132.5H24V131H30ZM15 144.5V137H33V144.5H15ZM22.5 138.5V143H31.5V138.5H22.5ZM16.5 138.5V143H21V138.5H16.5ZM15 128H33V135.5H15V128ZM21 134V129.5H16.5V134H21ZM31.5 134V129.5H22.5V134H31.5Z" fill="white"/>
<path d="M0.5 182C0.5 177.858 3.85786 174.5 8 174.5H40C44.1421 174.5 47.5 177.858 47.5 182V214C47.5 218.142 44.1421 221.5 40 221.5H8C3.85787 221.5 0.5 218.142 0.5 214V182Z" fill="#252526" stroke="#005FB8"/>
<path d="M48.5 182C48.5 177.858 51.8579 174.5 56 174.5H519C523.142 174.5 526.5 177.858 526.5 182V214C526.5 218.142 523.142 221.5 519 221.5H56C51.8579 221.5 48.5 218.142 48.5 214V182Z" fill="#252526" stroke="#005FB8"/>
<path d="M73.2627 203H71.4785L70.5967 200.505H66.7412L65.8936 203H64.1162L67.7871 193.197H69.6191L73.2627 203ZM70.166 199.179L68.8057 195.269C68.7646 195.141 68.7214 194.936 68.6758 194.653H68.6484C68.6074 194.913 68.5618 195.118 68.5117 195.269L67.165 199.179H70.166ZM80.8027 203H79.2168V201.811H79.1895C78.679 202.713 77.8929 203.164 76.8311 203.164C75.9697 203.164 75.2793 202.852 74.7598 202.228C74.2448 201.599 73.9873 200.744 73.9873 199.664C73.9873 198.507 74.2721 197.579 74.8418 196.882C75.416 196.185 76.1794 195.836 77.1318 195.836C78.0752 195.836 78.7611 196.214 79.1895 196.971H79.2168V192.637H80.8027V203ZM79.2373 199.801V198.885C79.2373 198.388 79.0755 197.966 78.752 197.62C78.4284 197.274 78.016 197.101 77.5146 197.101C76.9222 197.101 76.4551 197.322 76.1133 197.764C75.776 198.206 75.6074 198.819 75.6074 199.603C75.6074 200.313 75.7692 200.876 76.0928 201.291C76.4209 201.701 76.8607 201.906 77.4121 201.906C77.9544 201.906 78.3942 201.708 78.7314 201.312C79.0687 200.91 79.2373 200.407 79.2373 199.801ZM89.2383 203H87.6523V201.811H87.625C87.1146 202.713 86.3285 203.164 85.2666 203.164C84.4053 203.164 83.7148 202.852 83.1953 202.228C82.6803 201.599 82.4229 200.744 82.4229 199.664C82.4229 198.507 82.7077 197.579 83.2773 196.882C83.8516 196.185 84.6149 195.836 85.5674 195.836C86.5107 195.836 87.1966 196.214 87.625 196.971H87.6523V192.637H89.2383V203ZM87.6729 199.801V198.885C87.6729 198.388 87.5111 197.966 87.1875 197.62C86.8639 197.274 86.4515 197.101 85.9502 197.101C85.3577 197.101 84.8906 197.322 84.5488 197.764C84.2116 198.206 84.043 198.819 84.043 199.603C84.043 200.313 84.2048 200.876 84.5283 201.291C84.8564 201.701 85.2962 201.906 85.8477 201.906C86.39 201.906 86.8298 201.708 87.167 201.312C87.5042 200.91 87.6729 200.407 87.6729 199.801ZM99.3828 203.164C97.9701 203.164 96.8376 202.706 95.9854 201.79C95.1377 200.874 94.7139 199.682 94.7139 198.215C94.7139 196.638 95.1468 195.38 96.0127 194.441C96.8786 193.503 98.0544 193.033 99.54 193.033C100.916 193.033 102.024 193.489 102.862 194.4C103.705 195.312 104.127 196.504 104.127 197.976C104.127 199.575 103.696 200.84 102.835 201.77C101.974 202.699 100.823 203.164 99.3828 203.164ZM99.458 194.462C98.5602 194.462 97.8288 194.797 97.2637 195.467C96.7031 196.137 96.4229 197.019 96.4229 198.112C96.4229 199.201 96.6963 200.079 97.2432 200.744C97.79 201.41 98.5055 201.742 99.3896 201.742C100.328 201.742 101.069 201.425 101.611 200.792C102.154 200.159 102.425 199.272 102.425 198.133C102.425 196.962 102.16 196.057 101.632 195.419C101.108 194.781 100.383 194.462 99.458 194.462ZM111.981 203H110.396V199.056C110.396 197.748 109.933 197.094 109.008 197.094C108.525 197.094 108.126 197.276 107.812 197.641C107.497 198.001 107.34 198.456 107.34 199.008V203H105.747V196H107.34V197.162H107.367C107.891 196.278 108.648 195.836 109.637 195.836C110.398 195.836 110.979 196.084 111.38 196.581C111.781 197.073 111.981 197.786 111.981 198.721V203ZM119.85 199.931H115.078C115.096 200.578 115.295 201.077 115.673 201.428C116.056 201.779 116.58 201.954 117.245 201.954C117.993 201.954 118.678 201.731 119.303 201.284V202.562C118.665 202.964 117.822 203.164 116.773 203.164C115.743 203.164 114.935 202.847 114.347 202.214C113.763 201.576 113.472 200.68 113.472 199.527C113.472 198.438 113.793 197.552 114.436 196.868C115.083 196.18 115.885 195.836 116.842 195.836C117.799 195.836 118.539 196.144 119.063 196.759C119.588 197.374 119.85 198.229 119.85 199.322V199.931ZM118.318 198.81C118.314 198.24 118.179 197.798 117.915 197.483C117.651 197.164 117.286 197.005 116.821 197.005C116.366 197.005 115.978 197.171 115.659 197.504C115.345 197.837 115.151 198.272 115.078 198.81H118.318ZM121.538 203V193.197H124.368C127.982 193.197 129.789 194.79 129.789 197.976C129.789 199.489 129.288 200.705 128.285 201.626C127.283 202.542 125.938 203 124.252 203H121.538ZM123.158 194.578V201.626H124.457C125.601 201.626 126.49 201.312 127.123 200.683C127.761 200.054 128.08 199.165 128.08 198.017C128.08 195.724 126.893 194.578 124.519 194.578H123.158ZM135.47 197.511C135.278 197.36 135.003 197.285 134.643 197.285C134.173 197.285 133.781 197.497 133.467 197.921C133.152 198.345 132.995 198.921 132.995 199.65V203H131.409V196H132.995V197.442H133.022C133.177 196.95 133.414 196.567 133.733 196.294C134.057 196.016 134.417 195.877 134.813 195.877C135.101 195.877 135.319 195.92 135.47 196.007V197.511ZM137.391 194.53C137.131 194.53 136.908 194.446 136.721 194.277C136.538 194.109 136.447 193.895 136.447 193.635C136.447 193.375 136.538 193.159 136.721 192.985C136.908 192.812 137.131 192.726 137.391 192.726C137.66 192.726 137.887 192.812 138.074 192.985C138.261 193.159 138.354 193.375 138.354 193.635C138.354 193.881 138.261 194.093 138.074 194.271C137.887 194.444 137.66 194.53 137.391 194.53ZM138.177 203H136.591V196H138.177V203ZM146.284 196L143.577 203H141.861L139.284 196H141.007L142.559 200.895C142.677 201.255 142.75 201.569 142.777 201.838H142.798C142.839 201.501 142.903 201.195 142.989 200.922L144.616 196H146.284ZM153.182 199.931H148.41C148.428 200.578 148.627 201.077 149.005 201.428C149.388 201.779 149.912 201.954 150.577 201.954C151.325 201.954 152.01 201.731 152.635 201.284V202.562C151.997 202.964 151.154 203.164 150.105 203.164C149.076 203.164 148.267 202.847 147.679 202.214C147.095 201.576 146.804 200.68 146.804 199.527C146.804 198.438 147.125 197.552 147.768 196.868C148.415 196.18 149.217 195.836 150.174 195.836C151.131 195.836 151.871 196.144 152.396 196.759C152.92 197.374 153.182 198.229 153.182 199.322V199.931ZM151.65 198.81C151.646 198.24 151.511 197.798 151.247 197.483C150.983 197.164 150.618 197.005 150.153 197.005C149.698 197.005 149.31 197.171 148.991 197.504C148.677 197.837 148.483 198.272 148.41 198.81H151.65ZM163.921 203H162.383V201.906H162.355C161.872 202.745 161.164 203.164 160.229 203.164C159.541 203.164 159.001 202.977 158.609 202.604C158.222 202.23 158.028 201.735 158.028 201.12C158.028 199.799 158.789 199.028 160.312 198.81L162.39 198.516C162.39 197.518 161.916 197.019 160.968 197.019C160.134 197.019 159.382 197.306 158.712 197.88V196.492C159.45 196.055 160.302 195.836 161.269 195.836C163.037 195.836 163.921 196.706 163.921 198.447V203ZM162.39 199.562L160.92 199.767C160.464 199.826 160.12 199.938 159.888 200.102C159.66 200.261 159.546 200.544 159.546 200.949C159.546 201.245 159.651 201.489 159.86 201.681C160.075 201.868 160.359 201.961 160.715 201.961C161.198 201.961 161.597 201.792 161.911 201.455C162.23 201.113 162.39 200.685 162.39 200.17V199.562ZM172.097 203H170.511V199.056C170.511 197.748 170.048 197.094 169.123 197.094C168.64 197.094 168.241 197.276 167.927 197.641C167.612 198.001 167.455 198.456 167.455 199.008V203H165.862V196H167.455V197.162H167.482C168.007 196.278 168.763 195.836 169.752 195.836C170.513 195.836 171.094 196.084 171.495 196.581C171.896 197.073 172.097 197.786 172.097 198.721V203ZM180.402 203H178.816V201.811H178.789C178.279 202.713 177.493 203.164 176.431 203.164C175.569 203.164 174.879 202.852 174.359 202.228C173.844 201.599 173.587 200.744 173.587 199.664C173.587 198.507 173.872 197.579 174.441 196.882C175.016 196.185 175.779 195.836 176.731 195.836C177.675 195.836 178.361 196.214 178.789 196.971H178.816V192.637H180.402V203ZM178.837 199.801V198.885C178.837 198.388 178.675 197.966 178.352 197.62C178.028 197.274 177.616 197.101 177.114 197.101C176.522 197.101 176.055 197.322 175.713 197.764C175.376 198.206 175.207 198.819 175.207 199.603C175.207 200.313 175.369 200.876 175.692 201.291C176.021 201.701 176.46 201.906 177.012 201.906C177.554 201.906 177.994 201.708 178.331 201.312C178.668 200.91 178.837 200.407 178.837 199.801ZM186.056 202.61V200.936C186.206 201.072 186.384 201.195 186.589 201.305C186.799 201.414 187.02 201.507 187.252 201.585C187.484 201.658 187.717 201.715 187.949 201.756C188.182 201.797 188.396 201.817 188.592 201.817C189.275 201.817 189.784 201.703 190.116 201.476C190.453 201.248 190.622 200.917 190.622 200.484C190.622 200.252 190.565 200.051 190.451 199.883C190.342 199.71 190.187 199.552 189.986 199.411C189.786 199.27 189.549 199.135 189.275 199.008C189.007 198.876 188.717 198.739 188.407 198.598C188.075 198.42 187.765 198.24 187.478 198.058C187.19 197.875 186.94 197.675 186.726 197.456C186.516 197.233 186.35 196.982 186.227 196.704C186.108 196.426 186.049 196.1 186.049 195.727C186.049 195.266 186.151 194.868 186.356 194.53C186.566 194.188 186.84 193.908 187.177 193.689C187.519 193.466 187.906 193.302 188.339 193.197C188.772 193.088 189.214 193.033 189.665 193.033C190.69 193.033 191.438 193.149 191.907 193.382V194.988C191.351 194.587 190.636 194.387 189.761 194.387C189.519 194.387 189.278 194.41 189.036 194.455C188.799 194.501 188.585 194.576 188.394 194.681C188.207 194.785 188.054 194.92 187.936 195.084C187.817 195.248 187.758 195.446 187.758 195.679C187.758 195.897 187.803 196.087 187.895 196.246C187.986 196.406 188.118 196.551 188.291 196.684C188.469 196.816 188.683 196.946 188.934 197.073C189.189 197.196 189.483 197.331 189.815 197.477C190.157 197.654 190.479 197.841 190.779 198.037C191.085 198.233 191.351 198.45 191.579 198.687C191.812 198.924 191.994 199.188 192.126 199.479C192.263 199.767 192.331 200.095 192.331 200.464C192.331 200.961 192.231 201.38 192.03 201.722C191.83 202.063 191.559 202.341 191.217 202.556C190.88 202.77 190.49 202.925 190.048 203.021C189.606 203.116 189.139 203.164 188.646 203.164C188.482 203.164 188.28 203.15 188.038 203.123C187.801 203.1 187.557 203.064 187.307 203.014C187.056 202.968 186.819 202.911 186.596 202.843C186.372 202.774 186.192 202.697 186.056 202.61ZM200.179 203H198.593V199.172C198.593 197.786 198.13 197.094 197.205 197.094C196.74 197.094 196.348 197.294 196.029 197.695C195.71 198.096 195.551 198.609 195.551 199.233V203H193.958V192.637H195.551V197.162H195.578C196.107 196.278 196.863 195.836 197.848 195.836C199.402 195.836 200.179 196.786 200.179 198.687V203ZM207.479 203H205.941V201.906H205.914C205.431 202.745 204.722 203.164 203.788 203.164C203.1 203.164 202.56 202.977 202.168 202.604C201.781 202.23 201.587 201.735 201.587 201.12C201.587 199.799 202.348 199.028 203.87 198.81L205.948 198.516C205.948 197.518 205.474 197.019 204.526 197.019C203.692 197.019 202.94 197.306 202.271 197.88V196.492C203.009 196.055 203.861 195.836 204.827 195.836C206.595 195.836 207.479 196.706 207.479 198.447V203ZM205.948 199.562L204.479 199.767C204.023 199.826 203.679 199.938 203.446 200.102C203.218 200.261 203.104 200.544 203.104 200.949C203.104 201.245 203.209 201.489 203.419 201.681C203.633 201.868 203.918 201.961 204.273 201.961C204.757 201.961 205.155 201.792 205.47 201.455C205.789 201.113 205.948 200.685 205.948 200.17V199.562ZM213.481 197.511C213.29 197.36 213.014 197.285 212.654 197.285C212.185 197.285 211.793 197.497 211.479 197.921C211.164 198.345 211.007 198.921 211.007 199.65V203H209.421V196H211.007V197.442H211.034C211.189 196.95 211.426 196.567 211.745 196.294C212.069 196.016 212.429 195.877 212.825 195.877C213.112 195.877 213.331 195.92 213.481 196.007V197.511ZM220.406 199.931H215.635C215.653 200.578 215.851 201.077 216.229 201.428C216.612 201.779 217.136 201.954 217.802 201.954C218.549 201.954 219.235 201.731 219.859 201.284V202.562C219.221 202.964 218.378 203.164 217.33 203.164C216.3 203.164 215.491 202.847 214.903 202.214C214.32 201.576 214.028 200.68 214.028 199.527C214.028 198.438 214.35 197.552 214.992 196.868C215.639 196.18 216.441 195.836 217.398 195.836C218.355 195.836 219.096 196.144 219.62 196.759C220.144 197.374 220.406 198.229 220.406 199.322V199.931ZM218.875 198.81C218.87 198.24 218.736 197.798 218.472 197.483C218.207 197.164 217.843 197.005 217.378 197.005C216.922 197.005 216.535 197.171 216.216 197.504C215.901 197.837 215.708 198.272 215.635 198.81H218.875ZM223.715 199.445V203H222.095V193.197H225.068C226.194 193.197 227.067 193.459 227.687 193.983C228.306 194.507 228.616 195.246 228.616 196.198C228.616 197.151 228.293 197.93 227.646 198.536C226.998 199.142 226.123 199.445 225.021 199.445H223.715ZM223.715 194.537V198.119H224.768C225.465 198.119 225.996 197.957 226.36 197.634C226.725 197.31 226.907 196.854 226.907 196.267C226.907 195.114 226.237 194.537 224.897 194.537H223.715ZM232.731 203.164C231.651 203.164 230.788 202.838 230.141 202.187C229.498 201.53 229.177 200.662 229.177 199.582C229.177 198.406 229.512 197.488 230.182 196.827C230.856 196.166 231.763 195.836 232.902 195.836C233.996 195.836 234.848 196.157 235.459 196.8C236.07 197.442 236.375 198.333 236.375 199.473C236.375 200.589 236.045 201.485 235.384 202.159C234.728 202.829 233.843 203.164 232.731 203.164ZM232.807 197.101C232.187 197.101 231.697 197.317 231.337 197.75C230.977 198.183 230.797 198.78 230.797 199.541C230.797 200.275 230.979 200.854 231.344 201.277C231.708 201.697 232.196 201.906 232.807 201.906C233.431 201.906 233.91 201.699 234.242 201.284C234.579 200.869 234.748 200.279 234.748 199.514C234.748 198.743 234.579 198.149 234.242 197.729C233.91 197.31 233.431 197.101 232.807 197.101ZM238.795 194.53C238.535 194.53 238.312 194.446 238.125 194.277C237.943 194.109 237.852 193.895 237.852 193.635C237.852 193.375 237.943 193.159 238.125 192.985C238.312 192.812 238.535 192.726 238.795 192.726C239.064 192.726 239.292 192.812 239.479 192.985C239.665 193.159 239.759 193.375 239.759 193.635C239.759 193.881 239.665 194.093 239.479 194.271C239.292 194.444 239.064 194.53 238.795 194.53ZM239.581 203H237.995V196H239.581V203ZM247.894 203H246.308V199.056C246.308 197.748 245.845 197.094 244.92 197.094C244.437 197.094 244.038 197.276 243.724 197.641C243.409 198.001 243.252 198.456 243.252 199.008V203H241.659V196H243.252V197.162H243.279C243.803 196.278 244.56 195.836 245.549 195.836C246.31 195.836 246.891 196.084 247.292 196.581C247.693 197.073 247.894 197.786 247.894 198.721V203ZM253.526 202.925C253.216 203.08 252.809 203.157 252.303 203.157C250.945 203.157 250.266 202.506 250.266 201.202V197.244H249.097V196H250.266V194.38L251.852 193.929V196H253.526V197.244H251.852V200.744C251.852 201.159 251.927 201.455 252.077 201.633C252.228 201.811 252.478 201.899 252.829 201.899C253.098 201.899 253.33 201.822 253.526 201.667V202.925ZM263.76 202.679C263.199 203.002 262.536 203.164 261.771 203.164C260.731 203.164 259.893 202.84 259.255 202.193C258.617 201.542 258.298 200.699 258.298 199.664C258.298 198.511 258.64 197.586 259.323 196.889C260.011 196.187 260.93 195.836 262.078 195.836C262.716 195.836 263.279 195.948 263.767 196.171V197.647C263.279 197.283 262.759 197.101 262.208 197.101C261.538 197.101 260.989 197.328 260.561 197.784C260.132 198.235 259.918 198.828 259.918 199.562C259.918 200.286 260.118 200.858 260.52 201.277C260.925 201.697 261.467 201.906 262.146 201.906C262.716 201.906 263.254 201.703 263.76 201.298V202.679ZM268.442 203.164C267.362 203.164 266.499 202.838 265.852 202.187C265.209 201.53 264.888 200.662 264.888 199.582C264.888 198.406 265.223 197.488 265.893 196.827C266.567 196.166 267.474 195.836 268.613 195.836C269.707 195.836 270.559 196.157 271.17 196.8C271.781 197.442 272.086 198.333 272.086 199.473C272.086 200.589 271.756 201.485 271.095 202.159C270.438 202.829 269.554 203.164 268.442 203.164ZM268.518 197.101C267.898 197.101 267.408 197.317 267.048 197.75C266.688 198.183 266.508 198.78 266.508 199.541C266.508 200.275 266.69 200.854 267.055 201.277C267.419 201.697 267.907 201.906 268.518 201.906C269.142 201.906 269.62 201.699 269.953 201.284C270.29 200.869 270.459 200.279 270.459 199.514C270.459 198.743 270.29 198.149 269.953 197.729C269.62 197.31 269.142 197.101 268.518 197.101ZM279.94 203H278.354V199.056C278.354 197.748 277.892 197.094 276.967 197.094C276.484 197.094 276.085 197.276 275.771 197.641C275.456 198.001 275.299 198.456 275.299 199.008V203H273.706V196H275.299V197.162H275.326C275.85 196.278 276.607 195.836 277.596 195.836C278.357 195.836 278.938 196.084 279.339 196.581C279.74 197.073 279.94 197.786 279.94 198.721V203ZM285.573 202.925C285.263 203.08 284.855 203.157 284.35 203.157C282.992 203.157 282.312 202.506 282.312 201.202V197.244H281.144V196H282.312V194.38L283.898 193.929V196H285.573V197.244H283.898V200.744C283.898 201.159 283.974 201.455 284.124 201.633C284.274 201.811 284.525 201.899 284.876 201.899C285.145 201.899 285.377 201.822 285.573 201.667V202.925ZM292.785 199.931H288.014C288.032 200.578 288.23 201.077 288.608 201.428C288.991 201.779 289.515 201.954 290.181 201.954C290.928 201.954 291.614 201.731 292.238 201.284V202.562C291.6 202.964 290.757 203.164 289.709 203.164C288.679 203.164 287.87 202.847 287.282 202.214C286.699 201.576 286.407 200.68 286.407 199.527C286.407 198.438 286.729 197.552 287.371 196.868C288.018 196.18 288.82 195.836 289.777 195.836C290.734 195.836 291.475 196.144 291.999 196.759C292.523 197.374 292.785 198.229 292.785 199.322V199.931ZM291.254 198.81C291.249 198.24 291.115 197.798 290.851 197.483C290.586 197.164 290.222 197.005 289.757 197.005C289.301 197.005 288.914 197.171 288.595 197.504C288.28 197.837 288.087 198.272 288.014 198.81H291.254ZM300.53 203H298.944V199.056C298.944 197.748 298.482 197.094 297.557 197.094C297.074 197.094 296.675 197.276 296.36 197.641C296.046 198.001 295.889 198.456 295.889 199.008V203H294.296V196H295.889V197.162H295.916C296.44 196.278 297.197 195.836 298.186 195.836C298.947 195.836 299.528 196.084 299.929 196.581C300.33 197.073 300.53 197.786 300.53 198.721V203ZM306.163 202.925C305.853 203.08 305.445 203.157 304.939 203.157C303.581 203.157 302.902 202.506 302.902 201.202V197.244H301.733V196H302.902V194.38L304.488 193.929V196H306.163V197.244H304.488V200.744C304.488 201.159 304.563 201.455 304.714 201.633C304.864 201.811 305.115 201.899 305.466 201.899C305.735 201.899 305.967 201.822 306.163 201.667V202.925Z" fill="white"/>
<path d="M31.4531 195.762C32.0938 195.801 32.6875 195.957 33.2344 196.23C33.7891 196.504 34.2695 196.859 34.6758 197.297C35.0898 197.734 35.4141 198.238 35.6484 198.809C35.8828 199.379 36 199.984 36 200.625C36 201.297 35.8711 201.93 35.6133 202.523C35.3555 203.109 35.0039 203.625 34.5586 204.07C34.1211 204.508 33.6055 204.855 33.0117 205.113C32.4258 205.371 31.7969 205.5 31.125 205.5H18C17.1719 205.5 16.3945 205.344 15.668 205.031C14.9414 204.711 14.3047 204.281 13.7578 203.742C13.2188 203.195 12.7891 202.559 12.4688 201.832C12.1562 201.105 12 200.328 12 199.5C12 198.844 12.1016 198.215 12.3047 197.613C12.5156 197.012 12.8047 196.461 13.1719 195.961C13.5391 195.453 13.9805 195.012 14.4961 194.637C15.0117 194.254 15.582 193.965 16.207 193.77C16.4961 193.684 16.7773 193.621 17.0508 193.582C17.332 193.543 17.6211 193.516 17.918 193.5H17.9297C18.2734 192.977 18.6758 192.508 19.1367 192.094C19.5977 191.672 20.0977 191.316 20.6367 191.027C21.1758 190.73 21.7422 190.508 22.3359 190.359C22.9375 190.203 23.5547 190.125 24.1875 190.125C25.0391 190.125 25.8555 190.266 26.6367 190.547C27.4258 190.82 28.1406 191.207 28.7812 191.707C29.4297 192.199 29.9844 192.793 30.4453 193.488C30.9062 194.176 31.2422 194.934 31.4531 195.762ZM24.1875 191.625C23.3047 191.625 22.4648 191.809 21.668 192.176C20.8711 192.535 20.1914 193.055 19.6289 193.734C19.9258 193.812 20.207 193.914 20.4727 194.039C20.7461 194.156 21.0117 194.293 21.2695 194.449L26.0508 197.309L28.7812 196.16C28.9609 196.082 29.1406 196.016 29.3203 195.961C29.5078 195.898 29.7031 195.848 29.9062 195.809C29.7109 195.184 29.4258 194.617 29.0508 194.109C28.6758 193.594 28.2344 193.152 27.7266 192.785C27.2266 192.418 26.6758 192.133 26.0742 191.93C25.4727 191.727 24.8438 191.625 24.1875 191.625ZM14.4141 202.207L24.3281 198.023L20.4961 195.727C20.1055 195.492 19.6953 195.312 19.2656 195.188C18.8359 195.062 18.3945 195 17.9414 195C17.332 195 16.7578 195.121 16.2188 195.363C15.6797 195.605 15.207 195.934 14.8008 196.348C14.4023 196.754 14.0859 197.23 13.8516 197.777C13.6172 198.324 13.5 198.898 13.5 199.5C13.5 199.969 13.5781 200.445 13.7344 200.93C13.8906 201.406 14.1172 201.832 14.4141 202.207ZM31.125 204C31.5 204 31.8594 203.941 32.2031 203.824C32.5469 203.707 32.8672 203.535 33.1641 203.309L25.9336 198.984L15.6328 203.32C15.9844 203.539 16.3594 203.707 16.7578 203.824C17.1641 203.941 17.5781 204 18 204H31.125ZM34.1367 202.148C34.3789 201.664 34.5 201.156 34.5 200.625C34.5 200.109 34.4023 199.641 34.207 199.219C34.0117 198.797 33.7461 198.441 33.4102 198.152C33.082 197.855 32.6953 197.629 32.25 197.473C31.8047 197.309 31.3359 197.227 30.8438 197.227C30.5625 197.227 30.2812 197.262 30 197.332C29.7266 197.395 29.457 197.477 29.1914 197.578C28.9258 197.68 28.6641 197.793 28.4062 197.918C28.1484 198.035 27.8945 198.148 27.6445 198.258L34.1367 202.148Z" fill="white"/>
<path d="M0.5 240C0.5 235.858 3.85786 232.5 8 232.5H40C44.1421 232.5 47.5 235.858 47.5 240V272C47.5 276.142 44.1421 279.5 40 279.5H8C3.85787 279.5 0.5 276.142 0.5 272V240Z" fill="#252526" stroke="#005FB8"/>
<path d="M48.5 240C48.5 235.858 51.8579 232.5 56 232.5H519C523.142 232.5 526.5 235.858 526.5 240V272C526.5 276.142 523.142 279.5 519 279.5H56C51.8579 279.5 48.5 276.142 48.5 272V240Z" fill="#252526" stroke="#005FB8"/>
<path d="M73.2627 261H71.4785L70.5967 258.505H66.7412L65.8936 261H64.1162L67.7871 251.197H69.6191L73.2627 261ZM70.166 257.179L68.8057 253.269C68.7646 253.141 68.7214 252.936 68.6758 252.653H68.6484C68.6074 252.913 68.5618 253.118 68.5117 253.269L67.165 257.179H70.166ZM80.8027 261H79.2168V259.811H79.1895C78.679 260.713 77.8929 261.164 76.8311 261.164C75.9697 261.164 75.2793 260.852 74.7598 260.228C74.2448 259.599 73.9873 258.744 73.9873 257.664C73.9873 256.507 74.2721 255.579 74.8418 254.882C75.416 254.185 76.1794 253.836 77.1318 253.836C78.0752 253.836 78.7611 254.214 79.1895 254.971H79.2168V250.637H80.8027V261ZM79.2373 257.801V256.885C79.2373 256.388 79.0755 255.966 78.752 255.62C78.4284 255.274 78.016 255.101 77.5146 255.101C76.9222 255.101 76.4551 255.322 76.1133 255.764C75.776 256.206 75.6074 256.819 75.6074 257.603C75.6074 258.313 75.7692 258.876 76.0928 259.291C76.4209 259.701 76.8607 259.906 77.4121 259.906C77.9544 259.906 78.3942 259.708 78.7314 259.312C79.0687 258.91 79.2373 258.407 79.2373 257.801ZM89.2383 261H87.6523V259.811H87.625C87.1146 260.713 86.3285 261.164 85.2666 261.164C84.4053 261.164 83.7148 260.852 83.1953 260.228C82.6803 259.599 82.4229 258.744 82.4229 257.664C82.4229 256.507 82.7077 255.579 83.2773 254.882C83.8516 254.185 84.6149 253.836 85.5674 253.836C86.5107 253.836 87.1966 254.214 87.625 254.971H87.6523V250.637H89.2383V261ZM87.6729 257.801V256.885C87.6729 256.388 87.5111 255.966 87.1875 255.62C86.8639 255.274 86.4515 255.101 85.9502 255.101C85.3577 255.101 84.8906 255.322 84.5488 255.764C84.2116 256.206 84.043 256.819 84.043 257.603C84.043 258.313 84.2048 258.876 84.5283 259.291C84.8564 259.701 85.2962 259.906 85.8477 259.906C86.39 259.906 86.8298 259.708 87.167 259.312C87.5042 258.91 87.6729 258.407 87.6729 257.801ZM105.87 261H104.257V254.656C104.257 254.137 104.289 253.501 104.353 252.749H104.325C104.225 253.177 104.136 253.485 104.059 253.672L101.133 261H100.012L97.0791 253.727C96.9971 253.512 96.9105 253.187 96.8193 252.749H96.792C96.8285 253.141 96.8467 253.781 96.8467 254.67V261H95.3428V251.197H97.6328L100.21 257.726C100.406 258.227 100.534 258.601 100.593 258.847H100.627C100.796 258.332 100.932 257.949 101.037 257.698L103.662 251.197H105.87V261ZM108.912 252.53C108.652 252.53 108.429 252.446 108.242 252.277C108.06 252.109 107.969 251.895 107.969 251.635C107.969 251.375 108.06 251.159 108.242 250.985C108.429 250.812 108.652 250.726 108.912 250.726C109.181 250.726 109.409 250.812 109.596 250.985C109.783 251.159 109.876 251.375 109.876 251.635C109.876 251.881 109.783 252.093 109.596 252.271C109.409 252.444 109.181 252.53 108.912 252.53ZM109.698 261H108.112V254H109.698V261ZM116.787 260.679C116.227 261.002 115.563 261.164 114.798 261.164C113.759 261.164 112.92 260.84 112.282 260.193C111.644 259.542 111.325 258.699 111.325 257.664C111.325 256.511 111.667 255.586 112.351 254.889C113.039 254.187 113.957 253.836 115.105 253.836C115.743 253.836 116.306 253.948 116.794 254.171V255.647C116.306 255.283 115.787 255.101 115.235 255.101C114.565 255.101 114.016 255.328 113.588 255.784C113.16 256.235 112.945 256.828 112.945 257.562C112.945 258.286 113.146 258.858 113.547 259.277C113.952 259.697 114.495 259.906 115.174 259.906C115.743 259.906 116.281 259.703 116.787 259.298V260.679ZM122.427 255.511C122.235 255.36 121.96 255.285 121.6 255.285C121.13 255.285 120.738 255.497 120.424 255.921C120.109 256.345 119.952 256.921 119.952 257.65V261H118.366V254H119.952V255.442H119.979C120.134 254.95 120.371 254.567 120.69 254.294C121.014 254.016 121.374 253.877 121.771 253.877C122.058 253.877 122.276 253.92 122.427 254.007V255.511ZM126.528 261.164C125.448 261.164 124.585 260.838 123.938 260.187C123.295 259.53 122.974 258.662 122.974 257.582C122.974 256.406 123.309 255.488 123.979 254.827C124.653 254.166 125.56 253.836 126.699 253.836C127.793 253.836 128.645 254.157 129.256 254.8C129.867 255.442 130.172 256.333 130.172 257.473C130.172 258.589 129.841 259.485 129.181 260.159C128.524 260.829 127.64 261.164 126.528 261.164ZM126.604 255.101C125.984 255.101 125.494 255.317 125.134 255.75C124.774 256.183 124.594 256.78 124.594 257.541C124.594 258.275 124.776 258.854 125.141 259.277C125.505 259.697 125.993 259.906 126.604 259.906C127.228 259.906 127.706 259.699 128.039 259.284C128.376 258.869 128.545 258.279 128.545 257.514C128.545 256.743 128.376 256.149 128.039 255.729C127.706 255.31 127.228 255.101 126.604 255.101ZM131.354 260.781V259.312C131.947 259.763 132.601 259.988 133.316 259.988C134.273 259.988 134.752 259.706 134.752 259.141C134.752 258.981 134.711 258.847 134.629 258.737C134.547 258.623 134.435 258.523 134.294 258.437C134.157 258.35 133.993 258.272 133.802 258.204C133.615 258.136 133.405 258.058 133.173 257.972C132.886 257.858 132.626 257.737 132.394 257.609C132.166 257.482 131.974 257.338 131.819 257.179C131.669 257.015 131.555 256.83 131.478 256.625C131.4 256.42 131.361 256.181 131.361 255.907C131.361 255.57 131.441 255.274 131.601 255.019C131.76 254.759 131.974 254.542 132.243 254.369C132.512 254.191 132.817 254.059 133.159 253.973C133.501 253.882 133.854 253.836 134.219 253.836C134.866 253.836 135.445 253.934 135.955 254.13V255.518C135.463 255.18 134.898 255.012 134.26 255.012C134.059 255.012 133.877 255.032 133.713 255.073C133.553 255.114 133.417 255.171 133.303 255.244C133.189 255.317 133.1 255.406 133.036 255.511C132.972 255.611 132.94 255.723 132.94 255.846C132.94 255.996 132.972 256.124 133.036 256.229C133.1 256.333 133.193 256.427 133.316 256.509C133.444 256.586 133.594 256.659 133.768 256.728C133.945 256.791 134.148 256.862 134.376 256.939C134.677 257.062 134.946 257.188 135.183 257.315C135.424 257.443 135.629 257.589 135.798 257.753C135.966 257.912 136.096 258.099 136.188 258.313C136.279 258.523 136.324 258.774 136.324 259.065C136.324 259.421 136.242 259.731 136.078 259.995C135.914 260.259 135.695 260.478 135.422 260.651C135.148 260.825 134.832 260.952 134.472 261.034C134.116 261.121 133.74 261.164 133.344 261.164C132.578 261.164 131.915 261.036 131.354 260.781ZM140.938 261.164C139.858 261.164 138.995 260.838 138.348 260.187C137.705 259.53 137.384 258.662 137.384 257.582C137.384 256.406 137.719 255.488 138.389 254.827C139.063 254.166 139.97 253.836 141.109 253.836C142.203 253.836 143.055 254.157 143.666 254.8C144.277 255.442 144.582 256.333 144.582 257.473C144.582 258.589 144.252 259.485 143.591 260.159C142.935 260.829 142.05 261.164 140.938 261.164ZM141.014 255.101C140.394 255.101 139.904 255.317 139.544 255.75C139.184 256.183 139.004 256.78 139.004 257.541C139.004 258.275 139.186 258.854 139.551 259.277C139.915 259.697 140.403 259.906 141.014 259.906C141.638 259.906 142.117 259.699 142.449 259.284C142.786 258.869 142.955 258.279 142.955 257.514C142.955 256.743 142.786 256.149 142.449 255.729C142.117 255.31 141.638 255.101 141.014 255.101ZM149.928 251.929C149.714 251.806 149.47 251.744 149.196 251.744C148.426 251.744 148.041 252.179 148.041 253.05V254H149.668V255.244H148.048V261H146.462V255.244H145.266V254H146.462V252.865C146.462 252.127 146.703 251.546 147.187 251.122C147.67 250.694 148.273 250.479 148.998 250.479C149.39 250.479 149.7 250.523 149.928 250.609V251.929ZM154.747 260.925C154.437 261.08 154.029 261.157 153.523 261.157C152.165 261.157 151.486 260.506 151.486 259.202V255.244H150.317V254H151.486V252.38L153.072 251.929V254H154.747V255.244H153.072V258.744C153.072 259.159 153.147 259.455 153.298 259.633C153.448 259.811 153.699 259.899 154.05 259.899C154.319 259.899 154.551 259.822 154.747 259.667V260.925ZM167.797 260.33C166.776 260.886 165.639 261.164 164.386 261.164C162.937 261.164 161.763 260.713 160.865 259.811C159.967 258.908 159.519 257.714 159.519 256.229C159.519 254.711 160.008 253.467 160.988 252.496C161.973 251.521 163.221 251.033 164.734 251.033C165.824 251.033 166.74 251.193 167.482 251.512V253.187C166.73 252.685 165.835 252.435 164.796 252.435C163.752 252.435 162.896 252.779 162.226 253.467C161.56 254.155 161.228 255.046 161.228 256.14C161.228 257.265 161.515 258.152 162.089 258.799C162.663 259.441 163.442 259.763 164.427 259.763C165.101 259.763 165.685 259.633 166.177 259.373V257.042H164.112V255.675H167.797V260.33ZM173.792 255.511C173.601 255.36 173.325 255.285 172.965 255.285C172.495 255.285 172.104 255.497 171.789 255.921C171.475 256.345 171.317 256.921 171.317 257.65V261H169.731V254H171.317V255.442H171.345C171.5 254.95 171.737 254.567 172.056 254.294C172.379 254.016 172.739 253.877 173.136 253.877C173.423 253.877 173.642 253.92 173.792 254.007V255.511ZM180.286 261H178.748V259.906H178.721C178.238 260.745 177.529 261.164 176.595 261.164C175.907 261.164 175.367 260.977 174.975 260.604C174.587 260.23 174.394 259.735 174.394 259.12C174.394 257.799 175.155 257.028 176.677 256.81L178.755 256.516C178.755 255.518 178.281 255.019 177.333 255.019C176.499 255.019 175.747 255.306 175.077 255.88V254.492C175.815 254.055 176.668 253.836 177.634 253.836C179.402 253.836 180.286 254.706 180.286 256.447V261ZM178.755 257.562L177.285 257.767C176.829 257.826 176.485 257.938 176.253 258.102C176.025 258.261 175.911 258.544 175.911 258.949C175.911 259.245 176.016 259.489 176.226 259.681C176.44 259.868 176.725 259.961 177.08 259.961C177.563 259.961 177.962 259.792 178.276 259.455C178.595 259.113 178.755 258.685 178.755 258.17V257.562ZM183.841 259.968H183.813V264.22H182.228V254H183.813V255.23H183.841C184.383 254.301 185.176 253.836 186.22 253.836C187.108 253.836 187.801 254.148 188.298 254.772C188.795 255.397 189.043 256.235 189.043 257.288C189.043 258.455 188.763 259.389 188.202 260.091C187.642 260.793 186.876 261.144 185.905 261.144C185.012 261.144 184.324 260.752 183.841 259.968ZM183.8 257.206V258.074C183.8 258.585 183.962 259.018 184.285 259.373C184.613 259.729 185.028 259.906 185.529 259.906C186.117 259.906 186.577 259.678 186.91 259.223C187.247 258.762 187.416 258.122 187.416 257.302C187.416 256.614 187.259 256.076 186.944 255.688C186.634 255.297 186.213 255.101 185.68 255.101C185.115 255.101 184.659 255.301 184.312 255.702C183.971 256.103 183.8 256.604 183.8 257.206ZM196.884 261H195.298V257.172C195.298 255.786 194.835 255.094 193.91 255.094C193.445 255.094 193.053 255.294 192.734 255.695C192.415 256.096 192.256 256.609 192.256 257.233V261H190.663V250.637H192.256V255.162H192.283C192.812 254.278 193.568 253.836 194.553 253.836C196.107 253.836 196.884 254.786 196.884 256.687V261ZM207.678 260.679C207.117 261.002 206.454 261.164 205.688 261.164C204.649 261.164 203.811 260.84 203.173 260.193C202.535 259.542 202.216 258.699 202.216 257.664C202.216 256.511 202.558 255.586 203.241 254.889C203.929 254.187 204.848 253.836 205.996 253.836C206.634 253.836 207.197 253.948 207.685 254.171V255.647C207.197 255.283 206.677 255.101 206.126 255.101C205.456 255.101 204.907 255.328 204.479 255.784C204.05 256.235 203.836 256.828 203.836 257.562C203.836 258.286 204.036 258.858 204.438 259.277C204.843 259.697 205.385 259.906 206.064 259.906C206.634 259.906 207.172 259.703 207.678 259.298V260.679ZM212.36 261.164C211.28 261.164 210.417 260.838 209.77 260.187C209.127 259.53 208.806 258.662 208.806 257.582C208.806 256.406 209.141 255.488 209.811 254.827C210.485 254.166 211.392 253.836 212.531 253.836C213.625 253.836 214.477 254.157 215.088 254.8C215.699 255.442 216.004 256.333 216.004 257.473C216.004 258.589 215.674 259.485 215.013 260.159C214.356 260.829 213.472 261.164 212.36 261.164ZM212.436 255.101C211.816 255.101 211.326 255.317 210.966 255.75C210.606 256.183 210.426 256.78 210.426 257.541C210.426 258.275 210.608 258.854 210.973 259.277C211.337 259.697 211.825 259.906 212.436 259.906C213.06 259.906 213.538 259.699 213.871 259.284C214.208 258.869 214.377 258.279 214.377 257.514C214.377 256.743 214.208 256.149 213.871 255.729C213.538 255.31 213.06 255.101 212.436 255.101ZM223.858 261H222.272V257.056C222.272 255.748 221.81 255.094 220.885 255.094C220.402 255.094 220.003 255.276 219.688 255.641C219.374 256.001 219.217 256.456 219.217 257.008V261H217.624V254H219.217V255.162H219.244C219.768 254.278 220.525 253.836 221.514 253.836C222.275 253.836 222.856 254.084 223.257 254.581C223.658 255.073 223.858 255.786 223.858 256.721V261ZM232.034 261H230.448V257.056C230.448 255.748 229.986 255.094 229.061 255.094C228.577 255.094 228.179 255.276 227.864 255.641C227.55 256.001 227.393 256.456 227.393 257.008V261H225.8V254H227.393V255.162H227.42C227.944 254.278 228.701 253.836 229.689 253.836C230.451 253.836 231.032 254.084 231.433 254.581C231.834 255.073 232.034 255.786 232.034 256.721V261ZM239.902 257.931H235.131C235.149 258.578 235.347 259.077 235.726 259.428C236.108 259.779 236.632 259.954 237.298 259.954C238.045 259.954 238.731 259.731 239.355 259.284V260.562C238.717 260.964 237.874 261.164 236.826 261.164C235.796 261.164 234.987 260.847 234.399 260.214C233.816 259.576 233.524 258.68 233.524 257.527C233.524 256.438 233.846 255.552 234.488 254.868C235.135 254.18 235.938 253.836 236.895 253.836C237.852 253.836 238.592 254.144 239.116 254.759C239.64 255.374 239.902 256.229 239.902 257.322V257.931ZM238.371 256.81C238.367 256.24 238.232 255.798 237.968 255.483C237.703 255.164 237.339 255.005 236.874 255.005C236.418 255.005 236.031 255.171 235.712 255.504C235.397 255.837 235.204 256.272 235.131 256.81H238.371ZM246.424 260.679C245.863 261.002 245.2 261.164 244.435 261.164C243.396 261.164 242.557 260.84 241.919 260.193C241.281 259.542 240.962 258.699 240.962 257.664C240.962 256.511 241.304 255.586 241.987 254.889C242.675 254.187 243.594 253.836 244.742 253.836C245.38 253.836 245.943 253.948 246.431 254.171V255.647C245.943 255.283 245.424 255.101 244.872 255.101C244.202 255.101 243.653 255.328 243.225 255.784C242.796 256.235 242.582 256.828 242.582 257.562C242.582 258.286 242.783 258.858 243.184 259.277C243.589 259.697 244.132 259.906 244.811 259.906C245.38 259.906 245.918 259.703 246.424 259.298V260.679ZM251.694 260.925C251.384 261.08 250.977 261.157 250.471 261.157C249.113 261.157 248.434 260.506 248.434 259.202V255.244H247.265V254H248.434V252.38L250.02 251.929V254H251.694V255.244H250.02V258.744C250.02 259.159 250.095 259.455 250.245 259.633C250.396 259.811 250.646 259.899 250.997 259.899C251.266 259.899 251.498 259.822 251.694 259.667V260.925ZM256.083 261.164C255.003 261.164 254.139 260.838 253.492 260.187C252.85 259.53 252.528 258.662 252.528 257.582C252.528 256.406 252.863 255.488 253.533 254.827C254.208 254.166 255.115 253.836 256.254 253.836C257.348 253.836 258.2 254.157 258.811 254.8C259.421 255.442 259.727 256.333 259.727 257.473C259.727 258.589 259.396 259.485 258.735 260.159C258.079 260.829 257.195 261.164 256.083 261.164ZM256.158 255.101C255.538 255.101 255.049 255.317 254.688 255.75C254.328 256.183 254.148 256.78 254.148 257.541C254.148 258.275 254.331 258.854 254.695 259.277C255.06 259.697 255.548 259.906 256.158 259.906C256.783 259.906 257.261 259.699 257.594 259.284C257.931 258.869 258.1 258.279 258.1 257.514C258.1 256.743 257.931 256.149 257.594 255.729C257.261 255.31 256.783 255.101 256.158 255.101ZM265.407 255.511C265.216 255.36 264.94 255.285 264.58 255.285C264.111 255.285 263.719 255.497 263.404 255.921C263.09 256.345 262.933 256.921 262.933 257.65V261H261.347V254H262.933V255.442H262.96C263.115 254.95 263.352 254.567 263.671 254.294C263.994 254.016 264.354 253.877 264.751 253.877C265.038 253.877 265.257 253.92 265.407 254.007V255.511ZM266.187 260.781V259.312C266.779 259.763 267.433 259.988 268.148 259.988C269.105 259.988 269.584 259.706 269.584 259.141C269.584 258.981 269.543 258.847 269.461 258.737C269.379 258.623 269.267 258.523 269.126 258.437C268.989 258.35 268.825 258.272 268.634 258.204C268.447 258.136 268.237 258.058 268.005 257.972C267.718 257.858 267.458 257.737 267.226 257.609C266.998 257.482 266.806 257.338 266.651 257.179C266.501 257.015 266.387 256.83 266.31 256.625C266.232 256.42 266.193 256.181 266.193 255.907C266.193 255.57 266.273 255.274 266.433 255.019C266.592 254.759 266.806 254.542 267.075 254.369C267.344 254.191 267.649 254.059 267.991 253.973C268.333 253.882 268.686 253.836 269.051 253.836C269.698 253.836 270.277 253.934 270.787 254.13V255.518C270.295 255.18 269.73 255.012 269.092 255.012C268.891 255.012 268.709 255.032 268.545 255.073C268.385 255.114 268.249 255.171 268.135 255.244C268.021 255.317 267.932 255.406 267.868 255.511C267.804 255.611 267.772 255.723 267.772 255.846C267.772 255.996 267.804 256.124 267.868 256.229C267.932 256.333 268.025 256.427 268.148 256.509C268.276 256.586 268.426 256.659 268.6 256.728C268.777 256.791 268.98 256.862 269.208 256.939C269.509 257.062 269.778 257.188 270.015 257.315C270.256 257.443 270.461 257.589 270.63 257.753C270.799 257.912 270.928 258.099 271.02 258.313C271.111 258.523 271.156 258.774 271.156 259.065C271.156 259.421 271.074 259.731 270.91 259.995C270.746 260.259 270.527 260.478 270.254 260.651C269.98 260.825 269.664 260.952 269.304 261.034C268.948 261.121 268.572 261.164 268.176 261.164C267.41 261.164 266.747 261.036 266.187 260.781ZM281.533 260.679C280.973 261.002 280.31 261.164 279.544 261.164C278.505 261.164 277.666 260.84 277.028 260.193C276.39 259.542 276.071 258.699 276.071 257.664C276.071 256.511 276.413 255.586 277.097 254.889C277.785 254.187 278.703 253.836 279.852 253.836C280.49 253.836 281.052 253.948 281.54 254.171V255.647C281.052 255.283 280.533 255.101 279.981 255.101C279.312 255.101 278.762 255.328 278.334 255.784C277.906 256.235 277.691 256.828 277.691 257.562C277.691 258.286 277.892 258.858 278.293 259.277C278.699 259.697 279.241 259.906 279.92 259.906C280.49 259.906 281.027 259.703 281.533 259.298V260.679ZM286.216 261.164C285.136 261.164 284.272 260.838 283.625 260.187C282.982 259.53 282.661 258.662 282.661 257.582C282.661 256.406 282.996 255.488 283.666 254.827C284.34 254.166 285.247 253.836 286.387 253.836C287.48 253.836 288.333 254.157 288.943 254.8C289.554 255.442 289.859 256.333 289.859 257.473C289.859 258.589 289.529 259.485 288.868 260.159C288.212 260.829 287.328 261.164 286.216 261.164ZM286.291 255.101C285.671 255.101 285.181 255.317 284.821 255.75C284.461 256.183 284.281 256.78 284.281 257.541C284.281 258.275 284.464 258.854 284.828 259.277C285.193 259.697 285.68 259.906 286.291 259.906C286.915 259.906 287.394 259.699 287.727 259.284C288.064 258.869 288.232 258.279 288.232 257.514C288.232 256.743 288.064 256.149 287.727 255.729C287.394 255.31 286.915 255.101 286.291 255.101ZM297.714 261H296.128V257.056C296.128 255.748 295.665 255.094 294.74 255.094C294.257 255.094 293.858 255.276 293.544 255.641C293.229 256.001 293.072 256.456 293.072 257.008V261H291.479V254H293.072V255.162H293.1C293.624 254.278 294.38 253.836 295.369 253.836C296.13 253.836 296.711 254.084 297.112 254.581C297.513 255.073 297.714 255.786 297.714 256.721V261ZM303.347 260.925C303.037 261.08 302.629 261.157 302.123 261.157C300.765 261.157 300.086 260.506 300.086 259.202V255.244H298.917V254H300.086V252.38L301.672 251.929V254H303.347V255.244H301.672V258.744C301.672 259.159 301.747 259.455 301.897 259.633C302.048 259.811 302.299 259.899 302.649 259.899C302.918 259.899 303.151 259.822 303.347 259.667V260.925ZM310.559 257.931H305.787C305.805 258.578 306.004 259.077 306.382 259.428C306.765 259.779 307.289 259.954 307.954 259.954C308.701 259.954 309.387 259.731 310.012 259.284V260.562C309.374 260.964 308.531 261.164 307.482 261.164C306.452 261.164 305.644 260.847 305.056 260.214C304.472 259.576 304.181 258.68 304.181 257.527C304.181 256.438 304.502 255.552 305.145 254.868C305.792 254.18 306.594 253.836 307.551 253.836C308.508 253.836 309.248 254.144 309.772 254.759C310.297 255.374 310.559 256.229 310.559 257.322V257.931ZM309.027 256.81C309.023 256.24 308.888 255.798 308.624 255.483C308.36 255.164 307.995 255.005 307.53 255.005C307.075 255.005 306.687 255.171 306.368 255.504C306.054 255.837 305.86 256.272 305.787 256.81H309.027ZM318.304 261H316.718V257.056C316.718 255.748 316.255 255.094 315.33 255.094C314.847 255.094 314.448 255.276 314.134 255.641C313.819 256.001 313.662 256.456 313.662 257.008V261H312.069V254H313.662V255.162H313.689C314.214 254.278 314.97 253.836 315.959 253.836C316.72 253.836 317.301 254.084 317.702 254.581C318.103 255.073 318.304 255.786 318.304 256.721V261ZM323.937 260.925C323.627 261.08 323.219 261.157 322.713 261.157C321.355 261.157 320.676 260.506 320.676 259.202V255.244H319.507V254H320.676V252.38L322.262 251.929V254H323.937V255.244H322.262V258.744C322.262 259.159 322.337 259.455 322.487 259.633C322.638 259.811 322.888 259.899 323.239 259.899C323.508 259.899 323.741 259.822 323.937 259.667V260.925Z" fill="white"/>
<path d="M36 256C35.0234 257.68 34.0547 259.352 33.0938 261.016C32.1406 262.672 31.1758 264.34 30.1992 266.02L29.9883 266.395H18L17.7891 266.02C16.8125 264.34 15.8477 262.668 14.8945 261.004C13.9414 259.34 12.9766 257.672 12 256C12.9609 254.25 13.9609 252.52 15 250.809C16.0391 249.09 17.0391 247.355 18 245.605H29.9883C30.4648 246.488 30.957 247.359 31.4648 248.219C31.9727 249.078 32.4805 249.941 32.9883 250.809C33.5039 251.668 34.0156 252.531 34.5234 253.398C35.0312 254.258 35.5234 255.125 36 256ZM30.1172 255.098L29.2383 246.859L21.2109 249.824C21.2266 249.879 21.2344 249.934 21.2344 249.988C21.2344 250.035 21.2344 250.086 21.2344 250.141L29.8125 255.238C29.8984 255.184 30 255.137 30.1172 255.098ZM21.1289 261.086L29.3672 256.281C29.3516 256.203 29.3438 256.141 29.3438 256.094C29.3438 256.008 29.3555 255.922 29.3789 255.836L20.9062 250.809C20.8047 250.895 20.6836 250.965 20.543 251.02L20.7656 260.863C20.9141 260.918 21.0352 260.992 21.1289 261.086ZM19.8281 261.004C19.8828 260.957 19.9492 260.922 20.0273 260.898L19.8047 250.996C19.75 250.98 19.6992 250.957 19.6523 250.926C19.6133 250.895 19.5742 250.859 19.5352 250.82L13.4297 255.988L19.8281 261.004ZM28.5 246.344H18.832L20.0977 249.027C20.1133 249.027 20.1289 249.027 20.1445 249.027C20.168 249.02 20.1875 249.016 20.2031 249.016C20.3047 249.016 20.4023 249.031 20.4961 249.062C20.5977 249.094 20.6914 249.137 20.7773 249.191L28.5 246.344ZM18.1992 246.73L13.3945 255.051L19.1836 250.152C19.1836 249.996 19.1992 249.855 19.2305 249.73C19.2617 249.605 19.332 249.484 19.4414 249.367L18.1992 246.73ZM13.3477 256.855L18.2109 265.27L19.6758 262.527C19.5898 262.441 19.5234 262.336 19.4766 262.211C19.4297 262.086 19.4062 261.957 19.4062 261.824C19.4062 261.785 19.4062 261.75 19.4062 261.719C19.4062 261.688 19.4141 261.652 19.4297 261.613L13.3477 256.855ZM18.8438 265.656H28.582L21.1172 262.609C20.9922 262.719 20.8672 262.789 20.7422 262.82C20.625 262.852 20.4883 262.867 20.332 262.867L18.8438 265.656ZM29.25 265.129L30.0586 257.078C29.9492 257.047 29.8438 256.992 29.7422 256.914L21.457 261.742V261.953L29.25 265.129ZM30.0117 264.883L34.9336 256.375H31.3711C31.332 256.523 31.2617 256.656 31.1602 256.773C31.0586 256.883 30.9414 256.969 30.8086 257.031L30.0117 264.883ZM31.2891 255.625H34.9336L30.0117 247.129L30.8672 255.191C31.0547 255.301 31.1953 255.445 31.2891 255.625Z" fill="white"/>
<path d="M0.5 298C0.5 293.858 3.85786 290.5 8 290.5H40C44.1421 290.5 47.5 293.858 47.5 298V330C47.5 334.142 44.1421 337.5 40 337.5H8C3.85787 337.5 0.5 334.142 0.5 330V298Z" fill="#252526" stroke="#005FB8"/>
<path d="M48.5 298C48.5 293.858 51.8579 290.5 56 290.5H519C523.142 290.5 526.5 293.858 526.5 298V330C526.5 334.142 523.142 337.5 519 337.5H56C51.8579 337.5 48.5 334.142 48.5 330V298Z" fill="#252526" stroke="#005FB8"/>
<path d="M73.2627 319H71.4785L70.5967 316.505H66.7412L65.8936 319H64.1162L67.7871 309.197H69.6191L73.2627 319ZM70.166 315.179L68.8057 311.269C68.7646 311.141 68.7214 310.936 68.6758 310.653H68.6484C68.6074 310.913 68.5618 311.118 68.5117 311.269L67.165 315.179H70.166ZM80.8027 319H79.2168V317.811H79.1895C78.679 318.713 77.8929 319.164 76.8311 319.164C75.9697 319.164 75.2793 318.852 74.7598 318.228C74.2448 317.599 73.9873 316.744 73.9873 315.664C73.9873 314.507 74.2721 313.579 74.8418 312.882C75.416 312.185 76.1794 311.836 77.1318 311.836C78.0752 311.836 78.7611 312.214 79.1895 312.971H79.2168V308.637H80.8027V319ZM79.2373 315.801V314.885C79.2373 314.388 79.0755 313.966 78.752 313.62C78.4284 313.274 78.016 313.101 77.5146 313.101C76.9222 313.101 76.4551 313.322 76.1133 313.764C75.776 314.206 75.6074 314.819 75.6074 315.603C75.6074 316.313 75.7692 316.876 76.0928 317.291C76.4209 317.701 76.8607 317.906 77.4121 317.906C77.9544 317.906 78.3942 317.708 78.7314 317.312C79.0687 316.91 79.2373 316.407 79.2373 315.801ZM89.2383 319H87.6523V317.811H87.625C87.1146 318.713 86.3285 319.164 85.2666 319.164C84.4053 319.164 83.7148 318.852 83.1953 318.228C82.6803 317.599 82.4229 316.744 82.4229 315.664C82.4229 314.507 82.7077 313.579 83.2773 312.882C83.8516 312.185 84.6149 311.836 85.5674 311.836C86.5107 311.836 87.1966 312.214 87.625 312.971H87.6523V308.637H89.2383V319ZM87.6729 315.801V314.885C87.6729 314.388 87.5111 313.966 87.1875 313.62C86.8639 313.274 86.4515 313.101 85.9502 313.101C85.3577 313.101 84.8906 313.322 84.5488 313.764C84.2116 314.206 84.043 314.819 84.043 315.603C84.043 316.313 84.2048 316.876 84.5283 317.291C84.8564 317.701 85.2962 317.906 85.8477 317.906C86.39 317.906 86.8298 317.708 87.167 317.312C87.5042 316.91 87.6729 316.407 87.6729 315.801ZM103.396 319H101.611L100.729 316.505H96.874L96.0264 319H94.249L97.9199 309.197H99.752L103.396 319ZM100.299 315.179L98.9385 311.269C98.8975 311.141 98.8542 310.936 98.8086 310.653H98.7812C98.7402 310.913 98.6947 311.118 98.6445 311.269L97.2979 315.179H100.299ZM106.369 315.445V319H104.749V309.197H107.723C108.848 309.197 109.721 309.459 110.341 309.983C110.961 310.507 111.271 311.246 111.271 312.198C111.271 313.151 110.947 313.93 110.3 314.536C109.653 315.142 108.778 315.445 107.675 315.445H106.369ZM106.369 310.537V314.119H107.422C108.119 314.119 108.65 313.957 109.015 313.634C109.379 313.31 109.562 312.854 109.562 312.267C109.562 311.114 108.892 310.537 107.552 310.537H106.369ZM114.606 319H112.932V309.197H114.606V319ZM122.317 317.968H122.29V322.22H120.704V312H122.29V313.23H122.317C122.86 312.301 123.653 311.836 124.696 311.836C125.585 311.836 126.278 312.148 126.774 312.772C127.271 313.397 127.52 314.235 127.52 315.288C127.52 316.455 127.239 317.389 126.679 318.091C126.118 318.793 125.353 319.144 124.382 319.144C123.489 319.144 122.8 318.752 122.317 317.968ZM122.276 315.206V316.074C122.276 316.585 122.438 317.018 122.762 317.373C123.09 317.729 123.505 317.906 124.006 317.906C124.594 317.906 125.054 317.678 125.387 317.223C125.724 316.762 125.893 316.122 125.893 315.302C125.893 314.614 125.735 314.076 125.421 313.688C125.111 313.297 124.689 313.101 124.156 313.101C123.591 313.101 123.135 313.301 122.789 313.702C122.447 314.103 122.276 314.604 122.276 315.206ZM130.732 319H129.14V308.637H130.732V319ZM138.908 319H137.322V317.893H137.295C136.835 318.74 136.119 319.164 135.148 319.164C133.494 319.164 132.667 318.171 132.667 316.184V312H134.253V316.02C134.253 317.277 134.738 317.906 135.709 317.906C136.178 317.906 136.563 317.733 136.864 317.387C137.17 317.04 137.322 316.587 137.322 316.026V312H138.908V319ZM147.351 318.439C147.351 321.01 146.059 322.295 143.475 322.295C142.563 322.295 141.768 322.142 141.089 321.837V320.388C141.854 320.825 142.581 321.044 143.27 321.044C144.933 321.044 145.765 320.226 145.765 318.59V317.824H145.737C145.213 318.717 144.425 319.164 143.372 319.164C142.52 319.164 141.832 318.854 141.308 318.234C140.788 317.61 140.528 316.774 140.528 315.726C140.528 314.536 140.809 313.59 141.369 312.889C141.93 312.187 142.7 311.836 143.68 311.836C144.605 311.836 145.291 312.214 145.737 312.971H145.765V312H147.351V318.439ZM145.778 315.794V314.885C145.778 314.393 145.614 313.973 145.286 313.627C144.963 313.276 144.557 313.101 144.069 313.101C143.468 313.101 142.996 313.324 142.654 313.771C142.317 314.213 142.148 314.832 142.148 315.63C142.148 316.318 142.31 316.869 142.634 317.284C142.962 317.694 143.395 317.899 143.933 317.899C144.479 317.899 144.924 317.703 145.266 317.312C145.607 316.915 145.778 316.409 145.778 315.794ZM150.215 310.53C149.955 310.53 149.732 310.446 149.545 310.277C149.363 310.109 149.271 309.895 149.271 309.635C149.271 309.375 149.363 309.159 149.545 308.985C149.732 308.812 149.955 308.726 150.215 308.726C150.484 308.726 150.712 308.812 150.898 308.985C151.085 309.159 151.179 309.375 151.179 309.635C151.179 309.881 151.085 310.093 150.898 310.271C150.712 310.444 150.484 310.53 150.215 310.53ZM151.001 319H149.415V312H151.001V319ZM159.313 319H157.728V315.056C157.728 313.748 157.265 313.094 156.34 313.094C155.857 313.094 155.458 313.276 155.144 313.641C154.829 314.001 154.672 314.456 154.672 315.008V319H153.079V312H154.672V313.162H154.699C155.223 312.278 155.98 311.836 156.969 311.836C157.73 311.836 158.311 312.084 158.712 312.581C159.113 313.073 159.313 313.786 159.313 314.721V319ZM160.817 318.781V317.312C161.41 317.763 162.064 317.988 162.779 317.988C163.736 317.988 164.215 317.706 164.215 317.141C164.215 316.981 164.174 316.847 164.092 316.737C164.01 316.623 163.898 316.523 163.757 316.437C163.62 316.35 163.456 316.272 163.265 316.204C163.078 316.136 162.868 316.058 162.636 315.972C162.349 315.858 162.089 315.737 161.856 315.609C161.629 315.482 161.437 315.338 161.282 315.179C161.132 315.015 161.018 314.83 160.94 314.625C160.863 314.42 160.824 314.181 160.824 313.907C160.824 313.57 160.904 313.274 161.063 313.019C161.223 312.759 161.437 312.542 161.706 312.369C161.975 312.191 162.28 312.059 162.622 311.973C162.964 311.882 163.317 311.836 163.682 311.836C164.329 311.836 164.908 311.934 165.418 312.13V313.518C164.926 313.18 164.361 313.012 163.723 313.012C163.522 313.012 163.34 313.032 163.176 313.073C163.016 313.114 162.88 313.171 162.766 313.244C162.652 313.317 162.563 313.406 162.499 313.511C162.435 313.611 162.403 313.723 162.403 313.846C162.403 313.996 162.435 314.124 162.499 314.229C162.563 314.333 162.656 314.427 162.779 314.509C162.907 314.586 163.057 314.659 163.23 314.728C163.408 314.791 163.611 314.862 163.839 314.939C164.14 315.062 164.409 315.188 164.646 315.315C164.887 315.443 165.092 315.589 165.261 315.753C165.429 315.912 165.559 316.099 165.65 316.313C165.742 316.523 165.787 316.774 165.787 317.065C165.787 317.421 165.705 317.731 165.541 317.995C165.377 318.259 165.158 318.478 164.885 318.651C164.611 318.825 164.295 318.952 163.935 319.034C163.579 319.121 163.203 319.164 162.807 319.164C162.041 319.164 161.378 319.036 160.817 318.781Z" fill="white"/>
<g clip-path="url(#clip0_130_10237)">
<path d="M12.0096 315.799L18.3411 315.799C18.3904 316.285 18.5232 316.763 18.7373 317.213L13.3097 320.483C12.5976 319.255 12.1484 317.693 12.0096 315.799ZM18.1878 325.024L20.5975 319.172C20.3529 319.042 20.1181 318.886 19.8973 318.705L15.4221 323.181C16.3357 324.004 17.2766 324.62 18.1878 325.024ZM15.1126 322.884L19.579 318.418C19.3478 318.185 19.1345 317.909 18.9384 317.592L13.524 320.854C14.0158 321.654 14.5622 322.347 15.1126 322.884ZM29.8312 323.181L25.3533 318.703C25.3041 318.743 25.2544 318.782 25.204 318.819L28.4716 324.243C28.9277 323.959 29.3805 323.595 29.8312 323.181ZM28.109 324.471L24.8481 319.058C23.6311 319.738 22.3489 319.881 20.9854 319.355L18.5806 325.195C21.8713 326.53 25.2819 326.147 28.109 324.471ZM20.049 311.922L16.7815 306.498C16.305 306.803 15.8525 307.159 15.4218 307.56L19.8997 312.038C19.9488 311.999 19.9985 311.96 20.049 311.922ZM12 315.37L18.317 315.37C18.3306 314.253 18.7252 313.229 19.5792 312.323L15.1127 307.857C13.0508 310.042 12.024 312.55 12 315.37ZM22.6263 311.061L22.6265 304.744C20.53 304.757 18.6888 305.322 17.1441 306.269L20.4048 311.682C21.0178 311.323 21.7485 311.074 22.6263 311.061ZM31.364 309.321L26.7023 313.983C26.8084 314.295 26.8773 314.617 26.911 314.942H33.2434C33.202 313.021 32.5682 311.148 31.364 309.321ZM33.2521 315.37H26.9358C26.9139 316.553 26.4718 317.632 25.6738 318.418L30.1405 322.884C32.1945 320.863 33.1931 318.34 33.2521 315.37ZM23.055 304.753L23.0547 311.086C23.3867 311.123 23.7055 311.195 24.014 311.294L28.6741 306.634C27.0273 305.482 25.0863 304.836 23.055 304.753ZM32.2008 302.122C30.3649 302.659 29.5977 304.708 30.3829 306.278L23.9441 312.717C22.4251 311.96 20.4331 312.643 19.8287 314.406C19.092 316.555 20.9651 318.709 23.1922 318.275C25.1615 317.891 26.1129 315.735 25.2765 314.056L31.7213 307.611C33.346 308.418 35.4495 307.561 35.9118 305.658C36.4476 303.454 34.3809 301.484 32.2008 302.122Z" fill="white"/>
</g>
<defs>
<clipPath id="clip0_130_10237">
<rect width="24" height="24" fill="white" transform="translate(12 302)"/>
</clipPath>
</defs>
</svg>
