<svg width="419" height="375" viewBox="0 0 419 375" fill="none" xmlns="http://www.w3.org/2000/svg">
<g filter="url(#filter0_d_272_24887)">
<mask id="path-1-inside-1_272_24887" fill="var(--vscode-editor-background, white)">
<path d="M4 4C4 1.79086 5.79086 0 8 0H411C413.209 0 415 1.79086 415 4V363C415 365.209 413.209 367 411 367H8C5.79086 367 4 365.209 4 363V4Z"/>
</mask>
<path d="M4 4C4 1.79086 5.79086 0 8 0H411C413.209 0 415 1.79086 415 4V363C415 365.209 413.209 367 411 367H8C5.79086 367 4 365.209 4 363V4Z" fill="var(--vscode-editorGroupHeader-tabsBackground, #F8F8F8)"/>
<path d="M4 4C4 1.23858 6.23858 -1 9 -1H410C412.761 -1 415 1.23858 415 4C415 2.34315 413.209 1 411 1H8C5.79086 1 4 2.34315 4 4ZM415 367H4H415ZM4 367V0V367ZM415 0V367V0Z" fill="var(--vscode-activityBar-border, #E5E5E5)" mask="url(#path-1-inside-1_272_24887)"/>
</g>
<path d="M28.0908 27H26.0166V18.8438C26.0166 18.1758 26.0576 17.3584 26.1396 16.3916H26.1045C25.9756 16.9424 25.8613 17.3379 25.7617 17.5781L22 27H20.5586L16.7881 17.6484C16.6826 17.373 16.5713 16.9541 16.4541 16.3916H16.4189C16.4658 16.8955 16.4893 17.7188 16.4893 18.8613V27H14.5557V14.3965H17.5L20.8135 22.79C21.0654 23.4346 21.2295 23.915 21.3057 24.2314H21.3496C21.5664 23.5693 21.7422 23.0771 21.877 22.7549L25.252 14.3965H28.0908V27ZM32.002 16.1104C31.668 16.1104 31.3809 16.002 31.1406 15.7852C30.9062 15.5684 30.7891 15.293 30.7891 14.959C30.7891 14.625 30.9062 14.3467 31.1406 14.124C31.3809 13.9014 31.668 13.79 32.002 13.79C32.3477 13.79 32.6406 13.9014 32.8809 14.124C33.1211 14.3467 33.2412 14.625 33.2412 14.959C33.2412 15.2754 33.1211 15.5479 32.8809 15.7764C32.6406 15.999 32.3477 16.1104 32.002 16.1104ZM33.0127 27H30.9736V18H33.0127V27ZM42.127 26.5869C41.4062 27.0029 40.5537 27.2109 39.5693 27.2109C38.2334 27.2109 37.1553 26.7949 36.335 25.9629C35.5146 25.125 35.1045 24.041 35.1045 22.7109C35.1045 21.2285 35.5439 20.0391 36.4229 19.1426C37.3076 18.2402 38.4883 17.7891 39.9648 17.7891C40.7852 17.7891 41.5088 17.9326 42.1357 18.2197V20.1182C41.5088 19.6494 40.8408 19.415 40.1318 19.415C39.2705 19.415 38.5645 19.708 38.0137 20.2939C37.4629 20.874 37.1875 21.6357 37.1875 22.5791C37.1875 23.5107 37.4453 24.2461 37.9609 24.7852C38.4824 25.3242 39.1797 25.5938 40.0527 25.5938C40.7852 25.5938 41.4766 25.333 42.127 24.8115V26.5869ZM49.3779 19.9424C49.1318 19.749 48.7773 19.6523 48.3145 19.6523C47.7109 19.6523 47.207 19.9248 46.8027 20.4697C46.3984 21.0146 46.1963 21.7559 46.1963 22.6934V27H44.1572V18H46.1963V19.8545H46.2314C46.4307 19.2217 46.7354 18.7295 47.1455 18.3779C47.5615 18.0205 48.0244 17.8418 48.5342 17.8418C48.9033 17.8418 49.1846 17.8975 49.3779 18.0088V19.9424ZM54.6514 27.2109C53.2627 27.2109 52.1523 26.792 51.3203 25.9541C50.4941 25.1104 50.0811 23.9941 50.0811 22.6055C50.0811 21.0938 50.5117 19.9131 51.373 19.0635C52.2402 18.2139 53.4062 17.7891 54.8711 17.7891C56.2773 17.7891 57.373 18.2021 58.1582 19.0283C58.9434 19.8545 59.3359 21 59.3359 22.4648C59.3359 23.9004 58.9111 25.0518 58.0615 25.9189C57.2178 26.7803 56.0811 27.2109 54.6514 27.2109ZM54.748 19.415C53.9512 19.415 53.3213 19.6934 52.8584 20.25C52.3955 20.8066 52.1641 21.5742 52.1641 22.5527C52.1641 23.4961 52.3984 24.2402 52.8672 24.7852C53.3359 25.3242 53.9629 25.5938 54.748 25.5938C55.5508 25.5938 56.166 25.3271 56.5938 24.7939C57.0273 24.2607 57.2441 23.502 57.2441 22.5176C57.2441 21.5273 57.0273 20.7627 56.5938 20.2236C56.166 19.6846 55.5508 19.415 54.748 19.415ZM60.8564 26.7188V24.8291C61.6182 25.4092 62.459 25.6992 63.3789 25.6992C64.6094 25.6992 65.2246 25.3359 65.2246 24.6094C65.2246 24.4043 65.1719 24.2314 65.0664 24.0908C64.9609 23.9443 64.8174 23.8154 64.6357 23.7041C64.46 23.5928 64.249 23.4932 64.0029 23.4053C63.7627 23.3174 63.4932 23.2178 63.1943 23.1064C62.8252 22.96 62.4912 22.8047 62.1924 22.6406C61.8994 22.4766 61.6533 22.292 61.4541 22.0869C61.2607 21.876 61.1143 21.6387 61.0146 21.375C60.915 21.1113 60.8652 20.8037 60.8652 20.4521C60.8652 20.0186 60.9678 19.6377 61.1729 19.3096C61.3779 18.9756 61.6533 18.6973 61.999 18.4746C62.3447 18.2461 62.7373 18.0762 63.1768 17.9648C63.6162 17.8477 64.0703 17.7891 64.5391 17.7891C65.3711 17.7891 66.1152 17.915 66.7715 18.167V19.9512C66.1387 19.5176 65.4121 19.3008 64.5918 19.3008C64.334 19.3008 64.0996 19.3271 63.8887 19.3799C63.6836 19.4326 63.5078 19.5059 63.3613 19.5996C63.2148 19.6934 63.1006 19.8076 63.0186 19.9424C62.9365 20.0713 62.8955 20.2148 62.8955 20.373C62.8955 20.5664 62.9365 20.7305 63.0186 20.8652C63.1006 21 63.2207 21.1201 63.3789 21.2256C63.543 21.3252 63.7363 21.4189 63.959 21.5068C64.1875 21.5889 64.4482 21.6797 64.7412 21.7793C65.1279 21.9375 65.4736 22.0986 65.7783 22.2627C66.0889 22.4268 66.3525 22.6143 66.5693 22.8252C66.7861 23.0303 66.9531 23.2705 67.0703 23.5459C67.1875 23.8154 67.2461 24.1377 67.2461 24.5127C67.2461 24.9697 67.1406 25.3682 66.9297 25.708C66.7188 26.0479 66.4375 26.3291 66.0859 26.5518C65.7344 26.7744 65.3271 26.9385 64.8643 27.0439C64.4072 27.1553 63.9238 27.2109 63.4141 27.2109C62.4297 27.2109 61.5771 27.0469 60.8564 26.7188ZM73.1787 27.2109C71.79 27.2109 70.6797 26.792 69.8477 25.9541C69.0215 25.1104 68.6084 23.9941 68.6084 22.6055C68.6084 21.0938 69.0391 19.9131 69.9004 19.0635C70.7676 18.2139 71.9336 17.7891 73.3984 17.7891C74.8047 17.7891 75.9004 18.2021 76.6855 19.0283C77.4707 19.8545 77.8633 21 77.8633 22.4648C77.8633 23.9004 77.4385 25.0518 76.5889 25.9189C75.7451 26.7803 74.6084 27.2109 73.1787 27.2109ZM73.2754 19.415C72.4785 19.415 71.8486 19.6934 71.3857 20.25C70.9229 20.8066 70.6914 21.5742 70.6914 22.5527C70.6914 23.4961 70.9258 24.2402 71.3945 24.7852C71.8633 25.3242 72.4902 25.5938 73.2754 25.5938C74.0781 25.5938 74.6934 25.3271 75.1211 24.7939C75.5547 24.2607 75.7715 23.502 75.7715 22.5176C75.7715 21.5273 75.5547 20.7627 75.1211 20.2236C74.6934 19.6846 74.0781 19.415 73.2754 19.415ZM84.7363 15.3369C84.4609 15.1787 84.1475 15.0996 83.7959 15.0996C82.8057 15.0996 82.3105 15.6592 82.3105 16.7783V18H84.4023V19.5996H82.3193V27H80.2803V19.5996H78.7422V18H80.2803V16.541C80.2803 15.5918 80.5908 14.8447 81.2119 14.2998C81.833 13.749 82.6094 13.4736 83.541 13.4736C84.0449 13.4736 84.4434 13.5293 84.7363 13.6406V15.3369ZM90.9326 26.9033C90.5342 27.1025 90.0098 27.2021 89.3594 27.2021C87.6133 27.2021 86.7402 26.3643 86.7402 24.6885V19.5996H85.2373V18H86.7402V15.917L88.7793 15.3369V18H90.9326V19.5996H88.7793V24.0996C88.7793 24.6328 88.876 25.0137 89.0693 25.2422C89.2627 25.4707 89.585 25.585 90.0361 25.585C90.3818 25.585 90.6807 25.4854 90.9326 25.2861V26.9033ZM105.962 16.1719H102.341V27H100.249V16.1719H96.6367V14.3965H105.962V16.1719ZM113.441 23.0537H107.307C107.33 23.8857 107.585 24.5273 108.071 24.9785C108.563 25.4297 109.237 25.6553 110.093 25.6553C111.054 25.6553 111.936 25.3682 112.738 24.7939V26.4375C111.918 26.9531 110.834 27.2109 109.486 27.2109C108.162 27.2109 107.122 26.8037 106.366 25.9893C105.616 25.1689 105.241 24.0176 105.241 22.5352C105.241 21.1348 105.654 19.9951 106.48 19.1162C107.312 18.2314 108.344 17.7891 109.574 17.7891C110.805 17.7891 111.757 18.1846 112.431 18.9756C113.104 19.7666 113.441 20.8652 113.441 22.2715V23.0537ZM111.473 21.6123C111.467 20.8799 111.294 20.3115 110.954 19.9072C110.614 19.4971 110.146 19.292 109.548 19.292C108.962 19.292 108.464 19.5059 108.054 19.9336C107.649 20.3613 107.4 20.9209 107.307 21.6123H111.473ZM122.292 27H120.314V25.5938H120.279C119.658 26.6719 118.747 27.2109 117.546 27.2109C116.661 27.2109 115.967 26.9707 115.463 26.4902C114.965 26.0098 114.716 25.374 114.716 24.583C114.716 22.8838 115.694 21.8936 117.651 21.6123L120.323 21.2344C120.323 19.9512 119.714 19.3096 118.495 19.3096C117.423 19.3096 116.456 19.6787 115.595 20.417V18.6328C116.544 18.0703 117.64 17.7891 118.882 17.7891C121.155 17.7891 122.292 18.9082 122.292 21.1465V27ZM120.323 22.5791L118.434 22.8428C117.848 22.9189 117.405 23.0625 117.106 23.2734C116.813 23.4785 116.667 23.8418 116.667 24.3633C116.667 24.7441 116.802 25.0576 117.071 25.3037C117.347 25.5439 117.713 25.6641 118.17 25.6641C118.791 25.6641 119.304 25.4473 119.708 25.0137C120.118 24.5742 120.323 24.0234 120.323 23.3613V22.5791ZM138.244 27H136.205V22.0957C136.205 21.1523 136.07 20.4697 135.801 20.0479C135.537 19.626 135.089 19.415 134.456 19.415C133.923 19.415 133.469 19.6816 133.094 20.2148C132.725 20.748 132.54 21.3867 132.54 22.1309V27H130.492V21.9287C130.492 20.2529 129.9 19.415 128.717 19.415C128.166 19.415 127.712 19.667 127.354 20.1709C127.003 20.6748 126.827 21.3281 126.827 22.1309V27H124.788V18H126.827V19.4238H126.862C127.513 18.334 128.459 17.7891 129.701 17.7891C130.322 17.7891 130.864 17.9619 131.327 18.3076C131.796 18.6475 132.115 19.0957 132.285 19.6523C132.953 18.4102 133.949 17.7891 135.273 17.7891C137.254 17.7891 138.244 19.0107 138.244 21.4541V27ZM140.169 26.7188V24.8291C140.931 25.4092 141.771 25.6992 142.691 25.6992C143.922 25.6992 144.537 25.3359 144.537 24.6094C144.537 24.4043 144.484 24.2314 144.379 24.0908C144.273 23.9443 144.13 23.8154 143.948 23.7041C143.772 23.5928 143.562 23.4932 143.315 23.4053C143.075 23.3174 142.806 23.2178 142.507 23.1064C142.138 22.96 141.804 22.8047 141.505 22.6406C141.212 22.4766 140.966 22.292 140.767 22.0869C140.573 21.876 140.427 21.6387 140.327 21.375C140.228 21.1113 140.178 20.8037 140.178 20.4521C140.178 20.0186 140.28 19.6377 140.485 19.3096C140.69 18.9756 140.966 18.6973 141.312 18.4746C141.657 18.2461 142.05 18.0762 142.489 17.9648C142.929 17.8477 143.383 17.7891 143.852 17.7891C144.684 17.7891 145.428 17.915 146.084 18.167V19.9512C145.451 19.5176 144.725 19.3008 143.904 19.3008C143.646 19.3008 143.412 19.3271 143.201 19.3799C142.996 19.4326 142.82 19.5059 142.674 19.5996C142.527 19.6934 142.413 19.8076 142.331 19.9424C142.249 20.0713 142.208 20.2148 142.208 20.373C142.208 20.5664 142.249 20.7305 142.331 20.8652C142.413 21 142.533 21.1201 142.691 21.2256C142.855 21.3252 143.049 21.4189 143.271 21.5068C143.5 21.5889 143.761 21.6797 144.054 21.7793C144.44 21.9375 144.786 22.0986 145.091 22.2627C145.401 22.4268 145.665 22.6143 145.882 22.8252C146.099 23.0303 146.266 23.2705 146.383 23.5459C146.5 23.8154 146.559 24.1377 146.559 24.5127C146.559 24.9697 146.453 25.3682 146.242 25.708C146.031 26.0479 145.75 26.3291 145.398 26.5518C145.047 26.7744 144.64 26.9385 144.177 27.0439C143.72 27.1553 143.236 27.2109 142.727 27.2109C141.742 27.2109 140.89 27.0469 140.169 26.7188Z" fill="var(--vscode-input-placeholderForeground, #868686)"/>
<path d="M4 40H52V367H8C5.79086 367 4 365.209 4 363V40Z" fill="var(--vscode-editorGroupHeader-tabsBackground, #F8F8F8)"/>
<circle cx="18.5997" cy="251.195" r="3.17385" fill="var(--vscode-badge-background, #616161)"/>
<circle cx="28.756" cy="251.195" r="3.17385" fill="var(--vscode-badge-background, #616161)"/>
<circle cx="38.9124" cy="251.195" r="3.17385" fill="var(--vscode-badge-background, #616161)"/>
<rect x="12.8868" y="56.3208" width="30.469" height="30.469" rx="4" fill="var(--vscode-badge-background, #616161)"/>
<rect x="12.8868" y="150.267" width="30.469" height="30.469" rx="4" fill="var(--vscode-badge-background, #616161)"/>
<rect x="12.8868" y="197.24" width="30.469" height="30.469" rx="4" fill="var(--vscode-badge-background, #616161)"/>
<rect x="5" y="102" width="2.34735" height="35.2608" rx="1.17367" fill="var(--vscode-panelTitle-activeBorder, #005FB8)"/>
<rect x="12.8868" y="103.294" width="30.469" height="30.469" rx="4" fill="var(--vscode-badge-background, #616161)"/>
<line x1="5" y1="40.5" x2="416" y2="40.5" stroke="var(--vscode-activityBar-border, #E5E5E5)"/>
<rect x="52" y="41" width="363" height="326" fill="var(--vscode-editor-background, white)"/>
<rect x="147.252" y="325.027" width="253.913" height="34.3514" fill="var(--vscode-editor-background, white)"/>
<path d="M374.721 334.892L389.689 343.764C390.131 344.026 390.318 344.683 390.107 345.232C390.019 345.458 389.872 345.641 389.689 345.75L374.721 354.622C374.279 354.884 373.748 354.652 373.537 354.104C373.445 353.866 373.425 353.594 373.481 353.34L375.37 344.757L373.481 336.174C373.352 335.588 373.631 334.983 374.104 334.823C374.31 334.753 374.529 334.778 374.721 334.892ZM374.611 336.29L376.332 344.115L384.105 344.116C384.375 344.116 384.597 344.365 384.633 344.687L384.638 344.777C384.638 345.111 384.437 345.387 384.177 345.431L384.105 345.437L376.324 345.436L374.611 353.223L388.894 344.757L374.611 336.29Z" fill="var(--vscode-editor-background, white)"/>
<path d="M324.018 296.304C325.56 291.468 331.731 291.466 333.277 296.301L335.528 303.345C336.048 304.97 337.201 306.248 338.668 306.823L345.02 309.315C349.383 311.027 349.383 317.864 345.02 319.575L338.669 322.065C337.202 322.641 336.048 323.919 335.528 325.545L333.277 332.59C331.732 337.426 325.56 337.423 324.018 332.587L321.773 325.549C321.254 323.921 320.099 322.641 318.63 322.065L312.274 319.575C307.909 317.865 307.909 311.025 312.273 309.315L318.631 306.823C320.099 306.248 321.254 304.968 321.773 303.341L324.018 296.304Z" fill="var(--vscode-editor-background, white)"/>
<path d="M347.235 328.377C348.173 325.436 351.927 325.434 352.867 328.375L354.236 332.66C354.552 333.648 355.254 334.425 356.146 334.775L360.01 336.291C362.663 337.332 362.663 341.491 360.009 342.531L356.147 344.046C355.254 344.396 354.552 345.174 354.236 346.163L352.867 350.448C351.927 353.389 348.173 353.388 347.235 350.446L345.87 346.165C345.554 345.175 344.851 344.396 343.958 344.046L340.092 342.532C337.437 341.492 337.437 337.331 340.092 336.291L343.958 334.775C344.852 334.425 345.554 333.647 345.87 332.657L347.235 328.377Z" fill="var(--vscode-editor-background, white)"/>
<rect x="148.5" y="321.851" width="252.913" height="33.3514" rx="7.5" stroke="var(--vscode-menu-foreground, #CCCCCC)" stroke-opacity="0.5"/>
<path d="M384.836 338.943C384.851 338.959 384.874 338.997 384.882 339.055L384.885 339.111C384.883 339.175 384.863 339.221 384.845 339.247C384.84 339.254 384.837 339.258 384.834 339.261L384.832 339.261L379.135 339.26C377.695 339.26 376.449 340.262 376.14 341.668C375.564 344.287 378.391 346.331 380.698 344.964L383.858 343.091C386.904 341.285 386.904 336.877 383.858 335.071L380.723 333.213C378.406 331.84 375.568 333.893 376.146 336.523C376.457 337.934 377.707 338.94 379.153 338.94L384.833 338.94C384.834 338.941 384.835 338.942 384.836 338.943ZM375.214 329.646L390.181 338.518C390.373 338.632 390.53 339.008 390.388 339.376C390.335 339.514 390.254 339.601 390.181 339.644L375.214 348.516C375.134 348.563 375.06 348.564 374.99 348.533C374.914 348.5 374.815 348.415 374.751 348.248C374.695 348.104 374.682 347.932 374.717 347.771L376.227 340.908C376.492 339.704 376.492 338.458 376.227 337.254L374.717 330.391C374.626 329.978 374.847 329.676 375.012 329.621C375.075 329.599 375.142 329.604 375.214 329.646Z" stroke="var(--vscode-menu-foreground, #CCCCCC)" stroke-opacity="0.5"/>
<path d="M324.018 291.628C325.56 286.792 331.731 286.79 333.277 291.625L335.528 298.669C336.048 300.294 337.201 301.572 338.668 302.148L345.02 304.64C349.383 306.351 349.382 313.188 345.02 314.899L338.669 317.39C337.202 317.965 336.048 319.243 335.528 320.869L333.277 327.914C331.732 332.75 325.56 332.748 324.017 327.911L321.773 320.873C321.254 319.245 320.099 317.965 318.63 317.39L312.274 314.9C307.909 313.19 307.909 306.349 312.273 304.639L318.631 302.148C320.099 301.572 321.254 300.292 321.773 298.665L324.018 291.628Z" fill="var(--vscode-menu-foreground, #CCCCCC)"/>
<path d="M347.983 322.701C348.921 319.76 352.674 319.758 353.614 322.699L354.984 326.984C355.3 327.972 356.002 328.75 356.894 329.1L360.757 330.615C363.411 331.656 363.411 335.815 360.757 336.856L356.894 338.371C356.002 338.72 355.3 339.498 354.984 340.487L353.615 344.772C352.675 347.713 348.921 347.712 347.983 344.77L346.617 340.489C346.302 339.499 345.599 338.72 344.706 338.37L340.84 336.856C338.185 335.816 338.184 331.655 340.839 330.615L344.706 329.1C345.599 328.75 346.302 327.971 346.617 326.981L347.983 322.701Z" fill="var(--vscode-menu-foreground, #CCCCCC)"/>
<rect x="215" y="61" width="188" height="41" rx="8" fill="var(--vscode-chat-slashCommandBackground, #D2ECFF)"/>
<path d="M235.906 67.1973L233.138 77H231.791L229.774 69.8359C229.688 69.5306 229.635 69.1979 229.617 68.8379H229.59C229.562 69.1751 229.503 69.5033 229.412 69.8223L227.382 77H226.049L223.178 67.1973H224.442L226.527 74.7168C226.614 75.0312 226.669 75.3594 226.691 75.7012H226.726C226.748 75.4596 226.819 75.1315 226.938 74.7168L229.104 67.1973H230.205L232.283 74.7715C232.356 75.0312 232.411 75.3366 232.447 75.6875H232.475C232.493 75.4505 232.554 75.1361 232.659 74.7441L234.662 67.1973H235.906ZM243.029 77H241.908V72.9668C241.908 71.5085 241.366 70.7793 240.281 70.7793C239.734 70.7793 239.274 70.9912 238.9 71.415C238.527 71.8343 238.34 72.3743 238.34 73.0352V77H237.219V66.6367H238.34V71.1621H238.367C238.905 70.278 239.671 69.8359 240.664 69.8359C242.241 69.8359 243.029 70.7861 243.029 72.6865V77ZM245.723 68.2227C245.522 68.2227 245.351 68.1543 245.21 68.0176C245.069 67.8809 244.998 67.7077 244.998 67.498C244.998 67.2884 245.069 67.1152 245.21 66.9785C245.351 66.8372 245.522 66.7666 245.723 66.7666C245.928 66.7666 246.101 66.8372 246.242 66.9785C246.388 67.1152 246.461 67.2884 246.461 67.498C246.461 67.6986 246.388 67.8695 246.242 68.0107C246.101 68.152 245.928 68.2227 245.723 68.2227ZM246.27 77H245.148V70H246.27V77ZM253.311 76.6787C252.773 77.0023 252.135 77.1641 251.396 77.1641C250.398 77.1641 249.592 76.8405 248.977 76.1934C248.366 75.5417 248.061 74.6986 248.061 73.6641C248.061 72.5111 248.391 71.5859 249.052 70.8887C249.713 70.1868 250.594 69.8359 251.697 69.8359C252.312 69.8359 252.855 69.9499 253.324 70.1777V71.3262C252.805 70.9616 252.249 70.7793 251.656 70.7793C250.941 70.7793 250.353 71.0368 249.893 71.5518C249.437 72.0622 249.209 72.7344 249.209 73.5684C249.209 74.3887 249.423 75.0358 249.852 75.5098C250.285 75.9837 250.863 76.2207 251.588 76.2207C252.199 76.2207 252.773 76.0179 253.311 75.6123V76.6787ZM260.816 77H259.695V72.9668C259.695 71.5085 259.153 70.7793 258.068 70.7793C257.521 70.7793 257.061 70.9912 256.688 71.415C256.314 71.8343 256.127 72.3743 256.127 73.0352V77H255.006V66.6367H256.127V71.1621H256.154C256.692 70.278 257.458 69.8359 258.451 69.8359C260.028 69.8359 260.816 70.7861 260.816 72.6865V77ZM270.024 76.9316C269.76 77.0775 269.411 77.1504 268.979 77.1504C267.753 77.1504 267.14 76.4668 267.14 75.0996V70.957H265.937V70H267.14V68.291L268.261 67.9287V70H270.024V70.957H268.261V74.9014C268.261 75.3708 268.34 75.7057 268.5 75.9062C268.66 76.1068 268.924 76.207 269.293 76.207C269.576 76.207 269.819 76.1296 270.024 75.9746V76.9316ZM272.096 68.2227C271.895 68.2227 271.724 68.1543 271.583 68.0176C271.442 67.8809 271.371 67.7077 271.371 67.498C271.371 67.2884 271.442 67.1152 271.583 66.9785C271.724 66.8372 271.895 66.7666 272.096 66.7666C272.301 66.7666 272.474 66.8372 272.615 66.9785C272.761 67.1152 272.834 67.2884 272.834 67.498C272.834 67.6986 272.761 67.8695 272.615 68.0107C272.474 68.152 272.301 68.2227 272.096 68.2227ZM272.643 77H271.521V70H272.643V77ZM279.684 76.6787C279.146 77.0023 278.508 77.1641 277.77 77.1641C276.771 77.1641 275.965 76.8405 275.35 76.1934C274.739 75.5417 274.434 74.6986 274.434 73.6641C274.434 72.5111 274.764 71.5859 275.425 70.8887C276.086 70.1868 276.967 69.8359 278.07 69.8359C278.686 69.8359 279.228 69.9499 279.697 70.1777V71.3262C279.178 70.9616 278.622 70.7793 278.029 70.7793C277.314 70.7793 276.726 71.0368 276.266 71.5518C275.81 72.0622 275.582 72.7344 275.582 73.5684C275.582 74.3887 275.796 75.0358 276.225 75.5098C276.658 75.9837 277.236 76.2207 277.961 76.2207C278.572 76.2207 279.146 76.0179 279.684 75.6123V76.6787ZM287.189 77H285.617L282.527 73.6367H282.5V77H281.379V66.6367H282.5V73.2061H282.527L285.467 70H286.937L283.689 73.377L287.189 77ZM293.964 73.7803H289.021C289.04 74.5596 289.249 75.1611 289.65 75.585C290.051 76.0088 290.603 76.2207 291.305 76.2207C292.093 76.2207 292.818 75.9609 293.479 75.4414V76.4941C292.863 76.9408 292.05 77.1641 291.038 77.1641C290.049 77.1641 289.272 76.8473 288.707 76.2139C288.142 75.5758 287.859 74.6803 287.859 73.5273C287.859 72.4382 288.167 71.5518 288.782 70.8682C289.402 70.18 290.17 69.8359 291.086 69.8359C292.002 69.8359 292.711 70.1322 293.212 70.7246C293.713 71.3171 293.964 72.1396 293.964 73.1924V73.7803ZM292.815 72.8301C292.811 72.1829 292.654 71.6794 292.344 71.3193C292.038 70.9593 291.612 70.7793 291.065 70.7793C290.537 70.7793 290.088 70.9684 289.719 71.3467C289.35 71.7249 289.122 72.2194 289.035 72.8301H292.815ZM298.913 76.9316C298.649 77.0775 298.3 77.1504 297.867 77.1504C296.641 77.1504 296.028 76.4668 296.028 75.0996V70.957H294.825V70H296.028V68.291L297.149 67.9287V70H298.913V70.957H297.149V74.9014C297.149 75.3708 297.229 75.7057 297.389 75.9062C297.548 76.1068 297.812 76.207 298.182 76.207C298.464 76.207 298.708 76.1296 298.913 75.9746V76.9316ZM299.986 76.7471V75.5439C300.597 75.9951 301.269 76.2207 302.003 76.2207C302.987 76.2207 303.479 75.8926 303.479 75.2363C303.479 75.0495 303.436 74.8923 303.35 74.7646C303.268 74.6325 303.154 74.5163 303.008 74.416C302.867 74.3158 302.698 74.2269 302.502 74.1494C302.311 74.0674 302.103 73.9831 301.88 73.8965C301.57 73.7734 301.297 73.6504 301.06 73.5273C300.827 73.3997 300.631 73.2585 300.472 73.1035C300.317 72.944 300.198 72.764 300.116 72.5635C300.039 72.363 300 72.1283 300 71.8594C300 71.5312 300.075 71.2419 300.226 70.9912C300.376 70.736 300.576 70.5241 300.827 70.3555C301.078 70.1823 301.363 70.0524 301.682 69.9658C302.005 69.8792 302.338 69.8359 302.68 69.8359C303.286 69.8359 303.828 69.9408 304.307 70.1504V71.2852C303.792 70.9479 303.199 70.7793 302.529 70.7793C302.32 70.7793 302.131 70.8044 301.962 70.8545C301.793 70.9001 301.647 70.9661 301.524 71.0527C301.406 71.1393 301.312 71.2441 301.244 71.3672C301.18 71.4857 301.148 71.6178 301.148 71.7637C301.148 71.946 301.18 72.0986 301.244 72.2217C301.312 72.3447 301.41 72.4541 301.538 72.5498C301.666 72.6455 301.821 72.7321 302.003 72.8096C302.185 72.887 302.393 72.9714 302.625 73.0625C302.935 73.181 303.213 73.304 303.459 73.4316C303.705 73.5547 303.915 73.696 304.088 73.8555C304.261 74.0104 304.393 74.1904 304.484 74.3955C304.58 74.6006 304.628 74.8444 304.628 75.127C304.628 75.4733 304.55 75.7741 304.396 76.0293C304.245 76.2845 304.042 76.4964 303.787 76.665C303.532 76.8337 303.238 76.959 302.905 77.041C302.573 77.123 302.224 77.1641 301.859 77.1641C301.139 77.1641 300.515 77.0251 299.986 76.7471ZM315.21 77H314.089V75.9062H314.062C313.574 76.7448 312.856 77.1641 311.908 77.1641C311.211 77.1641 310.664 76.9795 310.268 76.6104C309.876 76.2412 309.68 75.7513 309.68 75.1406C309.68 73.8327 310.45 73.0716 311.99 72.8574L314.089 72.5635C314.089 71.374 313.608 70.7793 312.646 70.7793C311.803 70.7793 311.042 71.0664 310.363 71.6406V70.4922C311.051 70.0547 311.844 69.8359 312.742 69.8359C314.387 69.8359 315.21 70.7064 315.21 72.4473V77ZM314.089 73.459L312.4 73.6914C311.881 73.7643 311.489 73.8942 311.225 74.0811C310.96 74.2633 310.828 74.5892 310.828 75.0586C310.828 75.4004 310.949 75.6807 311.19 75.8994C311.437 76.1136 311.762 76.2207 312.168 76.2207C312.724 76.2207 313.182 76.027 313.542 75.6396C313.907 75.2477 314.089 74.7533 314.089 74.1562V73.459ZM320.973 71.1348C320.777 70.9844 320.494 70.9092 320.125 70.9092C319.646 70.9092 319.245 71.1348 318.922 71.5859C318.603 72.0371 318.443 72.6523 318.443 73.4316V77H317.322V70H318.443V71.4424H318.471C318.63 70.9502 318.874 70.5674 319.202 70.2939C319.53 70.016 319.897 69.877 320.303 69.877C320.594 69.877 320.818 69.9089 320.973 69.9727V71.1348ZM327.815 73.7803H322.873C322.891 74.5596 323.101 75.1611 323.502 75.585C323.903 76.0088 324.454 76.2207 325.156 76.2207C325.945 76.2207 326.669 75.9609 327.33 75.4414V76.4941C326.715 76.9408 325.901 77.1641 324.89 77.1641C323.901 77.1641 323.124 76.8473 322.559 76.2139C321.993 75.5758 321.711 74.6803 321.711 73.5273C321.711 72.4382 322.019 71.5518 322.634 70.8682C323.254 70.18 324.021 69.8359 324.938 69.8359C325.854 69.8359 326.562 70.1322 327.063 70.7246C327.565 71.3171 327.815 72.1396 327.815 73.1924V73.7803ZM326.667 72.8301C326.662 72.1829 326.505 71.6794 326.195 71.3193C325.89 70.9593 325.464 70.7793 324.917 70.7793C324.388 70.7793 323.939 70.9684 323.57 71.3467C323.201 71.7249 322.973 72.2194 322.887 72.8301H326.667ZM338.37 77H337.249V75.9062H337.222C336.734 76.7448 336.016 77.1641 335.068 77.1641C334.371 77.1641 333.824 76.9795 333.428 76.6104C333.036 76.2412 332.84 75.7513 332.84 75.1406C332.84 73.8327 333.61 73.0716 335.15 72.8574L337.249 72.5635C337.249 71.374 336.768 70.7793 335.807 70.7793C334.964 70.7793 334.202 71.0664 333.523 71.6406V70.4922C334.212 70.0547 335.005 69.8359 335.902 69.8359C337.548 69.8359 338.37 70.7064 338.37 72.4473V77ZM337.249 73.459L335.561 73.6914C335.041 73.7643 334.649 73.8942 334.385 74.0811C334.12 74.2633 333.988 74.5892 333.988 75.0586C333.988 75.4004 334.109 75.6807 334.351 75.8994C334.597 76.1136 334.923 76.2207 335.328 76.2207C335.884 76.2207 336.342 76.027 336.702 75.6396C337.067 75.2477 337.249 74.7533 337.249 74.1562V73.459ZM340.059 76.7471V75.5439C340.669 75.9951 341.341 76.2207 342.075 76.2207C343.06 76.2207 343.552 75.8926 343.552 75.2363C343.552 75.0495 343.508 74.8923 343.422 74.7646C343.34 74.6325 343.226 74.5163 343.08 74.416C342.939 74.3158 342.77 74.2269 342.574 74.1494C342.383 74.0674 342.175 73.9831 341.952 73.8965C341.642 73.7734 341.369 73.6504 341.132 73.5273C340.899 73.3997 340.703 73.2585 340.544 73.1035C340.389 72.944 340.271 72.764 340.188 72.5635C340.111 72.363 340.072 72.1283 340.072 71.8594C340.072 71.5312 340.147 71.2419 340.298 70.9912C340.448 70.736 340.649 70.5241 340.899 70.3555C341.15 70.1823 341.435 70.0524 341.754 69.9658C342.077 69.8792 342.41 69.8359 342.752 69.8359C343.358 69.8359 343.9 69.9408 344.379 70.1504V71.2852C343.864 70.9479 343.271 70.7793 342.602 70.7793C342.392 70.7793 342.203 70.8044 342.034 70.8545C341.866 70.9001 341.72 70.9661 341.597 71.0527C341.478 71.1393 341.385 71.2441 341.316 71.3672C341.253 71.4857 341.221 71.6178 341.221 71.7637C341.221 71.946 341.253 72.0986 341.316 72.2217C341.385 72.3447 341.483 72.4541 341.61 72.5498C341.738 72.6455 341.893 72.7321 342.075 72.8096C342.257 72.887 342.465 72.9714 342.697 73.0625C343.007 73.181 343.285 73.304 343.531 73.4316C343.777 73.5547 343.987 73.696 344.16 73.8555C344.333 74.0104 344.465 74.1904 344.557 74.3955C344.652 74.6006 344.7 74.8444 344.7 75.127C344.7 75.4733 344.623 75.7741 344.468 76.0293C344.317 76.2845 344.115 76.4964 343.859 76.665C343.604 76.8337 343.31 76.959 342.978 77.041C342.645 77.123 342.296 77.1641 341.932 77.1641C341.212 77.1641 340.587 77.0251 340.059 76.7471ZM346.006 76.7471V75.5439C346.617 75.9951 347.289 76.2207 348.022 76.2207C349.007 76.2207 349.499 75.8926 349.499 75.2363C349.499 75.0495 349.456 74.8923 349.369 74.7646C349.287 74.6325 349.173 74.5163 349.027 74.416C348.886 74.3158 348.717 74.2269 348.521 74.1494C348.33 74.0674 348.123 73.9831 347.899 73.8965C347.59 73.7734 347.316 73.6504 347.079 73.5273C346.847 73.3997 346.651 73.2585 346.491 73.1035C346.336 72.944 346.218 72.764 346.136 72.5635C346.058 72.363 346.02 72.1283 346.02 71.8594C346.02 71.5312 346.095 71.2419 346.245 70.9912C346.396 70.736 346.596 70.5241 346.847 70.3555C347.097 70.1823 347.382 70.0524 347.701 69.9658C348.025 69.8792 348.357 69.8359 348.699 69.8359C349.305 69.8359 349.848 69.9408 350.326 70.1504V71.2852C349.811 70.9479 349.219 70.7793 348.549 70.7793C348.339 70.7793 348.15 70.8044 347.981 70.8545C347.813 70.9001 347.667 70.9661 347.544 71.0527C347.425 71.1393 347.332 71.2441 347.264 71.3672C347.2 71.4857 347.168 71.6178 347.168 71.7637C347.168 71.946 347.2 72.0986 347.264 72.2217C347.332 72.3447 347.43 72.4541 347.558 72.5498C347.685 72.6455 347.84 72.7321 348.022 72.8096C348.205 72.887 348.412 72.9714 348.645 73.0625C348.954 73.181 349.232 73.304 349.479 73.4316C349.725 73.5547 349.934 73.696 350.107 73.8555C350.281 74.0104 350.413 74.1904 350.504 74.3955C350.6 74.6006 350.647 74.8444 350.647 75.127C350.647 75.4733 350.57 75.7741 350.415 76.0293C350.265 76.2845 350.062 76.4964 349.807 76.665C349.551 76.8337 349.257 76.959 348.925 77.041C348.592 77.123 348.243 77.1641 347.879 77.1641C347.159 77.1641 346.535 77.0251 346.006 76.7471ZM352.951 68.2227C352.751 68.2227 352.58 68.1543 352.438 68.0176C352.297 67.8809 352.227 67.7077 352.227 67.498C352.227 67.2884 352.297 67.1152 352.438 66.9785C352.58 66.8372 352.751 66.7666 352.951 66.7666C353.156 66.7666 353.329 66.8372 353.471 66.9785C353.617 67.1152 353.689 67.2884 353.689 67.498C353.689 67.6986 353.617 67.8695 353.471 68.0107C353.329 68.152 353.156 68.2227 352.951 68.2227ZM353.498 77H352.377V70H353.498V77ZM361.742 76.4395C361.742 79.0098 360.512 80.2949 358.051 80.2949C357.185 80.2949 356.428 80.1309 355.781 79.8027V78.6816C356.57 79.1191 357.322 79.3379 358.037 79.3379C359.76 79.3379 360.621 78.4219 360.621 76.5898V75.8242H360.594C360.061 76.7174 359.258 77.1641 358.188 77.1641C357.317 77.1641 356.615 76.8542 356.082 76.2344C355.553 75.61 355.289 74.7738 355.289 73.7256C355.289 72.5361 355.574 71.5905 356.144 70.8887C356.718 70.1868 357.502 69.8359 358.495 69.8359C359.438 69.8359 360.138 70.2142 360.594 70.9707H360.621V70H361.742V76.4395ZM360.621 73.835V72.8027C360.621 72.2467 360.432 71.7705 360.054 71.374C359.68 70.9775 359.213 70.7793 358.652 70.7793C357.96 70.7793 357.417 71.0322 357.025 71.5381C356.633 72.0394 356.438 72.7435 356.438 73.6504C356.438 74.4297 356.624 75.054 356.998 75.5234C357.376 75.9883 357.875 76.2207 358.495 76.2207C359.124 76.2207 359.634 75.9974 360.026 75.5508C360.423 75.1042 360.621 74.5322 360.621 73.835ZM369.822 77H368.701V73.0078C368.701 71.5221 368.159 70.7793 367.074 70.7793C366.514 70.7793 366.049 70.9912 365.68 71.415C365.315 71.8343 365.133 72.3652 365.133 73.0078V77H364.012V70H365.133V71.1621H365.16C365.689 70.278 366.454 69.8359 367.457 69.8359C368.223 69.8359 368.808 70.0843 369.214 70.5811C369.619 71.0732 369.822 71.7865 369.822 72.7207V77ZM377.567 73.7803H372.625C372.643 74.5596 372.853 75.1611 373.254 75.585C373.655 76.0088 374.206 76.2207 374.908 76.2207C375.697 76.2207 376.421 75.9609 377.082 75.4414V76.4941C376.467 76.9408 375.653 77.1641 374.642 77.1641C373.653 77.1641 372.876 76.8473 372.311 76.2139C371.745 75.5758 371.463 74.6803 371.463 73.5273C371.463 72.4382 371.771 71.5518 372.386 70.8682C373.006 70.18 373.773 69.8359 374.689 69.8359C375.605 69.8359 376.314 70.1322 376.815 70.7246C377.317 71.3171 377.567 72.1396 377.567 73.1924V73.7803ZM376.419 72.8301C376.414 72.1829 376.257 71.6794 375.947 71.3193C375.642 70.9593 375.216 70.7793 374.669 70.7793C374.14 70.7793 373.691 70.9684 373.322 71.3467C372.953 71.7249 372.725 72.2194 372.639 72.8301H376.419ZM385.244 77H384.123V75.8105H384.096C383.576 76.7129 382.774 77.1641 381.689 77.1641C380.81 77.1641 380.106 76.8519 379.577 76.2275C379.053 75.5986 378.791 74.7441 378.791 73.6641C378.791 72.5065 379.083 71.5791 379.666 70.8818C380.249 70.1846 381.026 69.8359 381.997 69.8359C382.959 69.8359 383.658 70.2142 384.096 70.9707H384.123V66.6367H385.244V77ZM384.123 73.835V72.8027C384.123 72.2376 383.936 71.7591 383.562 71.3672C383.189 70.9753 382.715 70.7793 382.141 70.7793C381.457 70.7793 380.919 71.0299 380.527 71.5312C380.135 72.0326 379.939 72.7253 379.939 73.6094C379.939 74.416 380.126 75.054 380.5 75.5234C380.878 75.9883 381.384 76.2207 382.018 76.2207C382.642 76.2207 383.148 75.9951 383.535 75.5439C383.927 75.0928 384.123 74.5231 384.123 73.835ZM227.382 95.9316C227.118 96.0775 226.769 96.1504 226.336 96.1504C225.11 96.1504 224.497 95.4668 224.497 94.0996V89.957H223.294V89H224.497V87.291L225.618 86.9287V89H227.382V89.957H225.618V93.9014C225.618 94.3708 225.698 94.7057 225.857 94.9062C226.017 95.1068 226.281 95.207 226.65 95.207C226.933 95.207 227.177 95.1296 227.382 94.9746V95.9316ZM231.805 96.1641C230.77 96.1641 229.943 95.8382 229.323 95.1865C228.708 94.5303 228.4 93.6621 228.4 92.582C228.4 91.4062 228.722 90.488 229.364 89.8271C230.007 89.1663 230.875 88.8359 231.969 88.8359C233.012 88.8359 233.826 89.1572 234.409 89.7998C234.997 90.4424 235.291 91.3333 235.291 92.4727C235.291 93.5892 234.974 94.4847 234.341 95.1592C233.712 95.8291 232.867 96.1641 231.805 96.1641ZM231.887 89.7793C231.167 89.7793 230.597 90.0254 230.178 90.5176C229.758 91.0052 229.549 91.6797 229.549 92.541C229.549 93.3704 229.761 94.0244 230.185 94.5029C230.608 94.9814 231.176 95.2207 231.887 95.2207C232.611 95.2207 233.167 94.986 233.555 94.5166C233.947 94.0472 234.143 93.3796 234.143 92.5137C234.143 91.6387 233.947 90.9642 233.555 90.4902C233.167 90.0163 232.611 89.7793 231.887 89.7793ZM250.863 96H249.742V91.9805C249.742 91.2057 249.621 90.6452 249.38 90.2988C249.143 89.9525 248.742 89.7793 248.177 89.7793C247.698 89.7793 247.29 89.998 246.953 90.4355C246.62 90.873 246.454 91.3971 246.454 92.0078V96H245.333V91.8438C245.333 90.4674 244.802 89.7793 243.74 89.7793C243.248 89.7793 242.842 89.9867 242.523 90.4014C242.204 90.8115 242.045 91.347 242.045 92.0078V96H240.924V89H242.045V90.1074H242.072C242.569 89.2598 243.294 88.8359 244.246 88.8359C244.725 88.8359 245.142 88.9704 245.497 89.2393C245.853 89.5036 246.096 89.8522 246.229 90.2852C246.748 89.319 247.523 88.8359 248.553 88.8359C250.093 88.8359 250.863 89.7861 250.863 91.6865V96ZM258.608 92.7803H253.666C253.684 93.5596 253.894 94.1611 254.295 94.585C254.696 95.0088 255.247 95.2207 255.949 95.2207C256.738 95.2207 257.462 94.9609 258.123 94.4414V95.4941C257.508 95.9408 256.694 96.1641 255.683 96.1641C254.694 96.1641 253.917 95.8473 253.352 95.2139C252.786 94.5758 252.504 93.6803 252.504 92.5273C252.504 91.4382 252.812 90.5518 253.427 89.8682C254.047 89.18 254.814 88.8359 255.73 88.8359C256.646 88.8359 257.355 89.1322 257.856 89.7246C258.358 90.3171 258.608 91.1396 258.608 92.1924V92.7803ZM257.46 91.8301C257.455 91.1829 257.298 90.6794 256.988 90.3193C256.683 89.9593 256.257 89.7793 255.71 89.7793C255.181 89.7793 254.732 89.9684 254.363 90.3467C253.994 90.7249 253.766 91.2194 253.68 91.8301H257.46ZM267.803 90.1348C267.607 89.9844 267.324 89.9092 266.955 89.9092C266.477 89.9092 266.076 90.1348 265.752 90.5859C265.433 91.0371 265.273 91.6523 265.273 92.4316V96H264.152V89H265.273V90.4424H265.301C265.46 89.9502 265.704 89.5674 266.032 89.2939C266.36 89.016 266.727 88.877 267.133 88.877C267.424 88.877 267.648 88.9089 267.803 88.9727V90.1348ZM269.594 87.2227C269.393 87.2227 269.222 87.1543 269.081 87.0176C268.94 86.8809 268.869 86.7077 268.869 86.498C268.869 86.2884 268.94 86.1152 269.081 85.9785C269.222 85.8372 269.393 85.7666 269.594 85.7666C269.799 85.7666 269.972 85.8372 270.113 85.9785C270.259 86.1152 270.332 86.2884 270.332 86.498C270.332 86.6986 270.259 86.8695 270.113 87.0107C269.972 87.152 269.799 87.2227 269.594 87.2227ZM270.141 96H269.02V89H270.141V96ZM278.385 95.4395C278.385 98.0098 277.154 99.2949 274.693 99.2949C273.827 99.2949 273.071 99.1309 272.424 98.8027V97.6816C273.212 98.1191 273.964 98.3379 274.68 98.3379C276.402 98.3379 277.264 97.4219 277.264 95.5898V94.8242H277.236C276.703 95.7174 275.901 96.1641 274.83 96.1641C273.96 96.1641 273.258 95.8542 272.725 95.2344C272.196 94.61 271.932 93.7738 271.932 92.7256C271.932 91.5361 272.216 90.5905 272.786 89.8887C273.36 89.1868 274.144 88.8359 275.138 88.8359C276.081 88.8359 276.781 89.2142 277.236 89.9707H277.264V89H278.385V95.4395ZM277.264 92.835V91.8027C277.264 91.2467 277.075 90.7705 276.696 90.374C276.323 89.9775 275.855 89.7793 275.295 89.7793C274.602 89.7793 274.06 90.0322 273.668 90.5381C273.276 91.0394 273.08 91.7435 273.08 92.6504C273.08 93.4297 273.267 94.054 273.641 94.5234C274.019 94.9883 274.518 95.2207 275.138 95.2207C275.767 95.2207 276.277 94.9974 276.669 94.5508C277.065 94.1042 277.264 93.5322 277.264 92.835ZM286.465 96H285.344V91.9668C285.344 90.5085 284.801 89.7793 283.717 89.7793C283.17 89.7793 282.71 89.9912 282.336 90.415C281.962 90.8343 281.775 91.3743 281.775 92.0352V96H280.654V85.6367H281.775V90.1621H281.803C282.34 89.278 283.106 88.8359 284.1 88.8359C285.676 88.8359 286.465 89.7861 286.465 91.6865V96ZM291.831 95.9316C291.567 96.0775 291.218 96.1504 290.785 96.1504C289.559 96.1504 288.946 95.4668 288.946 94.0996V89.957H287.743V89H288.946V87.291L290.067 86.9287V89H291.831V89.957H290.067V93.9014C290.067 94.3708 290.147 94.7057 290.307 94.9062C290.466 95.1068 290.73 95.207 291.1 95.207C291.382 95.207 291.626 95.1296 291.831 94.9746V95.9316ZM302.98 96H301.859V92.0078C301.859 90.5221 301.317 89.7793 300.232 89.7793C299.672 89.7793 299.207 89.9912 298.838 90.415C298.473 90.8343 298.291 91.3652 298.291 92.0078V96H297.17V89H298.291V90.1621H298.318C298.847 89.278 299.613 88.8359 300.615 88.8359C301.381 88.8359 301.966 89.0843 302.372 89.5811C302.778 90.0732 302.98 90.7865 302.98 91.7207V96ZM308.025 96.1641C306.991 96.1641 306.164 95.8382 305.544 95.1865C304.929 94.5303 304.621 93.6621 304.621 92.582C304.621 91.4062 304.942 90.488 305.585 89.8271C306.228 89.1663 307.096 88.8359 308.189 88.8359C309.233 88.8359 310.047 89.1572 310.63 89.7998C311.218 90.4424 311.512 91.3333 311.512 92.4727C311.512 93.5892 311.195 94.4847 310.562 95.1592C309.933 95.8291 309.087 96.1641 308.025 96.1641ZM308.107 89.7793C307.387 89.7793 306.818 90.0254 306.398 90.5176C305.979 91.0052 305.77 91.6797 305.77 92.541C305.77 93.3704 305.981 94.0244 306.405 94.5029C306.829 94.9814 307.396 95.2207 308.107 95.2207C308.832 95.2207 309.388 94.986 309.775 94.5166C310.167 94.0472 310.363 93.3796 310.363 92.5137C310.363 91.6387 310.167 90.9642 309.775 90.4902C309.388 90.0163 308.832 89.7793 308.107 89.7793ZM322.121 89L320.022 96H318.86L317.418 90.9893C317.363 90.7979 317.327 90.5814 317.309 90.3398H317.281C317.268 90.5039 317.22 90.7158 317.138 90.9756L315.572 96H314.451L312.332 89H313.508L314.957 94.2637C315.003 94.4232 315.035 94.6328 315.053 94.8926H315.107C315.121 94.6921 315.162 94.4779 315.23 94.25L316.844 89H317.869L319.318 94.2773C319.364 94.446 319.398 94.6556 319.421 94.9062H319.476C319.485 94.7285 319.523 94.5189 319.592 94.2773L321.014 89H322.121ZM324.575 93.2793C324.534 93.1608 324.498 93.0081 324.466 92.8213C324.434 92.6299 324.418 92.4408 324.418 92.2539C324.418 91.9622 324.475 91.7002 324.589 91.4678C324.707 91.2308 324.853 91.0098 325.026 90.8047C325.2 90.5996 325.389 90.4036 325.594 90.2168C325.799 90.0254 325.988 89.834 326.161 89.6426C326.334 89.4466 326.478 89.2438 326.592 89.0342C326.71 88.82 326.77 88.5853 326.77 88.3301C326.77 88.1113 326.726 87.9176 326.64 87.749C326.558 87.5804 326.444 87.4391 326.298 87.3252C326.152 87.2113 325.983 87.127 325.792 87.0723C325.601 87.013 325.398 86.9834 325.184 86.9834C324.413 86.9834 323.746 87.2865 323.181 87.8926V86.6895C323.878 86.252 324.6 86.0332 325.348 86.0332C325.694 86.0332 326.02 86.0788 326.325 86.1699C326.631 86.2611 326.897 86.3978 327.125 86.5801C327.357 86.7578 327.54 86.9811 327.672 87.25C327.804 87.5189 327.87 87.8311 327.87 88.1865C327.87 88.5238 327.811 88.8245 327.692 89.0889C327.574 89.3532 327.424 89.597 327.241 89.8203C327.063 90.0391 326.87 90.2441 326.66 90.4355C326.451 90.627 326.255 90.8184 326.072 91.0098C325.895 91.1966 325.746 91.3926 325.628 91.5977C325.509 91.8027 325.45 92.0283 325.45 92.2744C325.45 92.484 325.475 92.6755 325.525 92.8486C325.576 93.0173 325.626 93.1608 325.676 93.2793H324.575ZM325.19 96.123C324.99 96.123 324.812 96.0501 324.657 95.9043C324.507 95.7585 324.432 95.5807 324.432 95.3711C324.432 95.1569 324.507 94.9792 324.657 94.8379C324.808 94.6875 324.985 94.6123 325.19 94.6123C325.396 94.6123 325.573 94.6875 325.724 94.8379C325.874 94.9792 325.949 95.1569 325.949 95.3711C325.949 95.5807 325.874 95.7585 325.724 95.9043C325.569 96.0501 325.391 96.123 325.19 96.123ZM333.154 86.0332L332.197 89.082H331.391L332.129 86.0332H333.154ZM331.076 86.0332L330.119 89.082H329.312L330.071 86.0332H331.076Z" fill="var(--vscode-icon-foreground, #3B3B3B)"/>
<rect x="110" y="130" width="252" height="77" rx="8" fill="var(--vscode-activityBar-border, #E5E5E5)"/>
<path d="M121.656 111.197L118.423 117.377V121H117.274V117.404L114.123 111.197H115.429L117.623 115.627C117.65 115.682 117.73 115.882 117.862 116.229H117.883C117.928 116.074 118.015 115.873 118.143 115.627L120.439 111.197H121.656ZM124.568 121.164C123.534 121.164 122.707 120.838 122.087 120.187C121.472 119.53 121.164 118.662 121.164 117.582C121.164 116.406 121.485 115.488 122.128 114.827C122.771 114.166 123.639 113.836 124.732 113.836C125.776 113.836 126.59 114.157 127.173 114.8C127.761 115.442 128.055 116.333 128.055 117.473C128.055 118.589 127.738 119.485 127.104 120.159C126.476 120.829 125.63 121.164 124.568 121.164ZM124.65 114.779C123.93 114.779 123.361 115.025 122.941 115.518C122.522 116.005 122.312 116.68 122.312 117.541C122.312 118.37 122.524 119.024 122.948 119.503C123.372 119.981 123.939 120.221 124.65 120.221C125.375 120.221 125.931 119.986 126.318 119.517C126.71 119.047 126.906 118.38 126.906 117.514C126.906 116.639 126.71 115.964 126.318 115.49C125.931 115.016 125.375 114.779 124.65 114.779ZM135.506 121H134.385V119.893H134.357C133.893 120.74 133.173 121.164 132.197 121.164C130.529 121.164 129.695 120.171 129.695 118.184V114H130.81V118.006C130.81 119.482 131.375 120.221 132.505 120.221C133.052 120.221 133.501 120.02 133.852 119.619C134.207 119.214 134.385 118.685 134.385 118.033V114H135.506V121ZM141.426 115.135C141.23 114.984 140.947 114.909 140.578 114.909C140.1 114.909 139.699 115.135 139.375 115.586C139.056 116.037 138.896 116.652 138.896 117.432V121H137.775V114H138.896V115.442H138.924C139.083 114.95 139.327 114.567 139.655 114.294C139.983 114.016 140.35 113.877 140.756 113.877C141.048 113.877 141.271 113.909 141.426 113.973V115.135ZM153.307 120.59C152.582 120.973 151.68 121.164 150.6 121.164C149.205 121.164 148.089 120.715 147.25 119.817C146.411 118.92 145.992 117.742 145.992 116.283C145.992 114.715 146.464 113.449 147.407 112.482C148.351 111.516 149.547 111.033 150.996 111.033C151.926 111.033 152.696 111.168 153.307 111.437V112.66C152.605 112.268 151.83 112.072 150.982 112.072C149.857 112.072 148.943 112.448 148.241 113.2C147.544 113.952 147.195 114.957 147.195 116.215C147.195 117.409 147.521 118.361 148.173 119.072C148.829 119.779 149.688 120.132 150.75 120.132C151.734 120.132 152.587 119.913 153.307 119.476V120.59ZM160.812 121H159.691V119.893H159.664C159.199 120.74 158.479 121.164 157.504 121.164C155.836 121.164 155.002 120.171 155.002 118.184V114H156.116V118.006C156.116 119.482 156.681 120.221 157.812 120.221C158.358 120.221 158.807 120.02 159.158 119.619C159.514 119.214 159.691 118.685 159.691 118.033V114H160.812V121ZM162.658 120.747V119.544C163.269 119.995 163.941 120.221 164.675 120.221C165.659 120.221 166.151 119.893 166.151 119.236C166.151 119.049 166.108 118.892 166.021 118.765C165.939 118.632 165.826 118.516 165.68 118.416C165.538 118.316 165.37 118.227 165.174 118.149C164.982 118.067 164.775 117.983 164.552 117.896C164.242 117.773 163.968 117.65 163.731 117.527C163.499 117.4 163.303 117.258 163.144 117.104C162.989 116.944 162.87 116.764 162.788 116.563C162.711 116.363 162.672 116.128 162.672 115.859C162.672 115.531 162.747 115.242 162.897 114.991C163.048 114.736 163.248 114.524 163.499 114.355C163.75 114.182 164.035 114.052 164.354 113.966C164.677 113.879 165.01 113.836 165.352 113.836C165.958 113.836 166.5 113.941 166.979 114.15V115.285C166.464 114.948 165.871 114.779 165.201 114.779C164.992 114.779 164.802 114.804 164.634 114.854C164.465 114.9 164.319 114.966 164.196 115.053C164.078 115.139 163.984 115.244 163.916 115.367C163.852 115.486 163.82 115.618 163.82 115.764C163.82 115.946 163.852 116.099 163.916 116.222C163.984 116.345 164.082 116.454 164.21 116.55C164.338 116.646 164.493 116.732 164.675 116.81C164.857 116.887 165.064 116.971 165.297 117.062C165.607 117.181 165.885 117.304 166.131 117.432C166.377 117.555 166.587 117.696 166.76 117.855C166.933 118.01 167.065 118.19 167.156 118.396C167.252 118.601 167.3 118.844 167.3 119.127C167.3 119.473 167.222 119.774 167.067 120.029C166.917 120.285 166.714 120.496 166.459 120.665C166.204 120.834 165.91 120.959 165.577 121.041C165.244 121.123 164.896 121.164 164.531 121.164C163.811 121.164 163.187 121.025 162.658 120.747ZM172.276 120.932C172.012 121.077 171.663 121.15 171.23 121.15C170.005 121.15 169.392 120.467 169.392 119.1V114.957H168.188V114H169.392V112.291L170.513 111.929V114H172.276V114.957H170.513V118.901C170.513 119.371 170.592 119.706 170.752 119.906C170.911 120.107 171.176 120.207 171.545 120.207C171.827 120.207 172.071 120.13 172.276 119.975V120.932ZM176.699 121.164C175.665 121.164 174.838 120.838 174.218 120.187C173.603 119.53 173.295 118.662 173.295 117.582C173.295 116.406 173.616 115.488 174.259 114.827C174.901 114.166 175.77 113.836 176.863 113.836C177.907 113.836 178.72 114.157 179.304 114.8C179.892 115.442 180.186 116.333 180.186 117.473C180.186 118.589 179.869 119.485 179.235 120.159C178.606 120.829 177.761 121.164 176.699 121.164ZM176.781 114.779C176.061 114.779 175.492 115.025 175.072 115.518C174.653 116.005 174.443 116.68 174.443 117.541C174.443 118.37 174.655 119.024 175.079 119.503C175.503 119.981 176.07 120.221 176.781 120.221C177.506 120.221 178.062 119.986 178.449 119.517C178.841 119.047 179.037 118.38 179.037 117.514C179.037 116.639 178.841 115.964 178.449 115.49C178.062 115.016 177.506 114.779 176.781 114.779ZM191.916 121H190.795V116.98C190.795 116.206 190.674 115.645 190.433 115.299C190.196 114.952 189.795 114.779 189.229 114.779C188.751 114.779 188.343 114.998 188.006 115.436C187.673 115.873 187.507 116.397 187.507 117.008V121H186.386V116.844C186.386 115.467 185.855 114.779 184.793 114.779C184.301 114.779 183.895 114.987 183.576 115.401C183.257 115.812 183.098 116.347 183.098 117.008V121H181.977V114H183.098V115.107H183.125C183.622 114.26 184.346 113.836 185.299 113.836C185.777 113.836 186.194 113.97 186.55 114.239C186.905 114.504 187.149 114.852 187.281 115.285C187.801 114.319 188.576 113.836 189.605 113.836C191.146 113.836 191.916 114.786 191.916 116.687V121ZM203.223 121H198.027V111.197H203.004V112.236H199.176V115.497H202.717V116.529H199.176V119.961H203.223V121ZM210.77 121H209.648V117.008C209.648 115.522 209.106 114.779 208.021 114.779C207.461 114.779 206.996 114.991 206.627 115.415C206.262 115.834 206.08 116.365 206.08 117.008V121H204.959V114H206.08V115.162H206.107C206.636 114.278 207.402 113.836 208.404 113.836C209.17 113.836 209.756 114.084 210.161 114.581C210.567 115.073 210.77 115.786 210.77 116.721V121ZM218.863 120.439C218.863 123.01 217.633 124.295 215.172 124.295C214.306 124.295 213.549 124.131 212.902 123.803V122.682C213.691 123.119 214.443 123.338 215.158 123.338C216.881 123.338 217.742 122.422 217.742 120.59V119.824H217.715C217.182 120.717 216.38 121.164 215.309 121.164C214.438 121.164 213.736 120.854 213.203 120.234C212.674 119.61 212.41 118.774 212.41 117.726C212.41 116.536 212.695 115.59 213.265 114.889C213.839 114.187 214.623 113.836 215.616 113.836C216.56 113.836 217.259 114.214 217.715 114.971H217.742V114H218.863V120.439ZM217.742 117.835V116.803C217.742 116.247 217.553 115.771 217.175 115.374C216.801 114.978 216.334 114.779 215.773 114.779C215.081 114.779 214.538 115.032 214.146 115.538C213.755 116.039 213.559 116.743 213.559 117.65C213.559 118.43 213.745 119.054 214.119 119.523C214.497 119.988 214.996 120.221 215.616 120.221C216.245 120.221 216.756 119.997 217.147 119.551C217.544 119.104 217.742 118.532 217.742 117.835ZM221.707 112.223C221.507 112.223 221.336 112.154 221.194 112.018C221.053 111.881 220.982 111.708 220.982 111.498C220.982 111.288 221.053 111.115 221.194 110.979C221.336 110.837 221.507 110.767 221.707 110.767C221.912 110.767 222.085 110.837 222.227 110.979C222.372 111.115 222.445 111.288 222.445 111.498C222.445 111.699 222.372 111.869 222.227 112.011C222.085 112.152 221.912 112.223 221.707 112.223ZM222.254 121H221.133V114H222.254V121ZM230.334 121H229.213V117.008C229.213 115.522 228.671 114.779 227.586 114.779C227.025 114.779 226.561 114.991 226.191 115.415C225.827 115.834 225.645 116.365 225.645 117.008V121H224.523V114H225.645V115.162H225.672C226.201 114.278 226.966 113.836 227.969 113.836C228.734 113.836 229.32 114.084 229.726 114.581C230.131 115.073 230.334 115.786 230.334 116.721V121ZM238.079 117.78H233.137C233.155 118.56 233.365 119.161 233.766 119.585C234.167 120.009 234.718 120.221 235.42 120.221C236.208 120.221 236.933 119.961 237.594 119.441V120.494C236.979 120.941 236.165 121.164 235.153 121.164C234.164 121.164 233.387 120.847 232.822 120.214C232.257 119.576 231.975 118.68 231.975 117.527C231.975 116.438 232.282 115.552 232.897 114.868C233.517 114.18 234.285 113.836 235.201 113.836C236.117 113.836 236.826 114.132 237.327 114.725C237.828 115.317 238.079 116.14 238.079 117.192V117.78ZM236.931 116.83C236.926 116.183 236.769 115.679 236.459 115.319C236.154 114.959 235.728 114.779 235.181 114.779C234.652 114.779 234.203 114.968 233.834 115.347C233.465 115.725 233.237 116.219 233.15 116.83H236.931ZM251.361 121H250.09L249.051 118.252H244.895L243.917 121H242.639L246.398 111.197H247.588L251.361 121ZM248.675 117.22L247.137 113.043C247.087 112.906 247.036 112.688 246.986 112.387H246.959C246.913 112.665 246.861 112.883 246.802 113.043L245.277 117.22H248.675ZM258.635 120.439C258.635 123.01 257.404 124.295 254.943 124.295C254.077 124.295 253.321 124.131 252.674 123.803V122.682C253.462 123.119 254.214 123.338 254.93 123.338C256.652 123.338 257.514 122.422 257.514 120.59V119.824H257.486C256.953 120.717 256.151 121.164 255.08 121.164C254.21 121.164 253.508 120.854 252.975 120.234C252.446 119.61 252.182 118.774 252.182 117.726C252.182 116.536 252.466 115.59 253.036 114.889C253.61 114.187 254.394 113.836 255.388 113.836C256.331 113.836 257.031 114.214 257.486 114.971H257.514V114H258.635V120.439ZM257.514 117.835V116.803C257.514 116.247 257.325 115.771 256.946 115.374C256.573 114.978 256.105 114.779 255.545 114.779C254.852 114.779 254.31 115.032 253.918 115.538C253.526 116.039 253.33 116.743 253.33 117.65C253.33 118.43 253.517 119.054 253.891 119.523C254.269 119.988 254.768 120.221 255.388 120.221C256.017 120.221 256.527 119.997 256.919 119.551C257.315 119.104 257.514 118.532 257.514 117.835ZM266.53 117.78H261.588C261.606 118.56 261.816 119.161 262.217 119.585C262.618 120.009 263.169 120.221 263.871 120.221C264.66 120.221 265.384 119.961 266.045 119.441V120.494C265.43 120.941 264.616 121.164 263.604 121.164C262.616 121.164 261.839 120.847 261.273 120.214C260.708 119.576 260.426 118.68 260.426 117.527C260.426 116.438 260.733 115.552 261.349 114.868C261.968 114.18 262.736 113.836 263.652 113.836C264.568 113.836 265.277 114.132 265.778 114.725C266.28 115.317 266.53 116.14 266.53 117.192V117.78ZM265.382 116.83C265.377 116.183 265.22 115.679 264.91 115.319C264.605 114.959 264.179 114.779 263.632 114.779C263.103 114.779 262.654 114.968 262.285 115.347C261.916 115.725 261.688 116.219 261.602 116.83H265.382ZM274.043 121H272.922V117.008C272.922 115.522 272.38 114.779 271.295 114.779C270.734 114.779 270.27 114.991 269.9 115.415C269.536 115.834 269.354 116.365 269.354 117.008V121H268.232V114H269.354V115.162H269.381C269.91 114.278 270.675 113.836 271.678 113.836C272.443 113.836 273.029 114.084 273.435 114.581C273.84 115.073 274.043 115.786 274.043 116.721V121ZM279.409 120.932C279.145 121.077 278.796 121.15 278.363 121.15C277.137 121.15 276.524 120.467 276.524 119.1V114.957H275.321V114H276.524V112.291L277.646 111.929V114H279.409V114.957H277.646V118.901C277.646 119.371 277.725 119.706 277.885 119.906C278.044 120.107 278.309 120.207 278.678 120.207C278.96 120.207 279.204 120.13 279.409 119.975V120.932Z" fill="var(--vscode-icon-foreground, #3B3B3B)"/>
<path d="M129.654 152H128.506V147.529H123.434V152H122.285V142.197H123.434V146.497H128.506V142.197H129.654V152ZM135 152.164C133.965 152.164 133.138 151.838 132.519 151.187C131.903 150.53 131.596 149.662 131.596 148.582C131.596 147.406 131.917 146.488 132.56 145.827C133.202 145.166 134.07 144.836 135.164 144.836C136.208 144.836 137.021 145.157 137.604 145.8C138.192 146.442 138.486 147.333 138.486 148.473C138.486 149.589 138.17 150.485 137.536 151.159C136.907 151.829 136.062 152.164 135 152.164ZM135.082 145.779C134.362 145.779 133.792 146.025 133.373 146.518C132.954 147.005 132.744 147.68 132.744 148.541C132.744 149.37 132.956 150.024 133.38 150.503C133.804 150.981 134.371 151.221 135.082 151.221C135.807 151.221 136.363 150.986 136.75 150.517C137.142 150.047 137.338 149.38 137.338 148.514C137.338 147.639 137.142 146.964 136.75 146.49C136.363 146.016 135.807 145.779 135.082 145.779ZM149.096 145L146.997 152H145.835L144.393 146.989C144.338 146.798 144.301 146.581 144.283 146.34H144.256C144.242 146.504 144.194 146.716 144.112 146.976L142.547 152H141.426L139.307 145H140.482L141.932 150.264C141.977 150.423 142.009 150.633 142.027 150.893H142.082C142.096 150.692 142.137 150.478 142.205 150.25L143.818 145H144.844L146.293 150.277C146.339 150.446 146.373 150.656 146.396 150.906H146.45C146.459 150.729 146.498 150.519 146.566 150.277L147.988 145H149.096ZM156.369 152H155.248V150.811H155.221C154.701 151.713 153.899 152.164 152.814 152.164C151.935 152.164 151.231 151.852 150.702 151.228C150.178 150.599 149.916 149.744 149.916 148.664C149.916 147.507 150.208 146.579 150.791 145.882C151.374 145.185 152.151 144.836 153.122 144.836C154.084 144.836 154.783 145.214 155.221 145.971H155.248V141.637H156.369V152ZM155.248 148.835V147.803C155.248 147.238 155.061 146.759 154.688 146.367C154.314 145.975 153.84 145.779 153.266 145.779C152.582 145.779 152.044 146.03 151.652 146.531C151.26 147.033 151.064 147.725 151.064 148.609C151.064 149.416 151.251 150.054 151.625 150.523C152.003 150.988 152.509 151.221 153.143 151.221C153.767 151.221 154.273 150.995 154.66 150.544C155.052 150.093 155.248 149.523 155.248 148.835ZM164.21 145L160.99 153.121C160.416 154.57 159.609 155.295 158.57 155.295C158.279 155.295 158.035 155.265 157.839 155.206V154.201C158.08 154.283 158.301 154.324 158.502 154.324C159.067 154.324 159.491 153.987 159.773 153.312L160.334 151.986L157.6 145H158.844L160.737 150.387C160.76 150.455 160.808 150.633 160.881 150.92H160.922C160.945 150.811 160.99 150.637 161.059 150.4L163.048 145H164.21ZM166.849 142.197L166.719 149.238H165.796L165.673 142.197H166.849ZM166.274 152.123C166.065 152.123 165.885 152.05 165.734 151.904C165.589 151.758 165.516 151.581 165.516 151.371C165.516 151.161 165.589 150.984 165.734 150.838C165.885 150.688 166.065 150.612 166.274 150.612C166.479 150.612 166.657 150.688 166.808 150.838C166.958 150.984 167.033 151.161 167.033 151.371C167.033 151.581 166.958 151.758 166.808 151.904C166.657 152.05 166.479 152.123 166.274 152.123ZM180.979 152H179.707L178.668 149.252H174.512L173.534 152H172.256L176.016 142.197H177.205L180.979 152ZM178.292 148.22L176.754 144.043C176.704 143.906 176.654 143.688 176.604 143.387H176.576C176.531 143.665 176.478 143.883 176.419 144.043L174.895 148.22H178.292ZM183.576 152H182.428V142.197H183.576V152ZM189.592 148.541H185.859V147.659H189.592V148.541ZM195.758 144.768C195.758 144.467 195.71 144.205 195.614 143.981C195.523 143.758 195.396 143.574 195.231 143.428C195.072 143.277 194.883 143.166 194.664 143.093C194.445 143.02 194.208 142.983 193.953 142.983C193.734 142.983 193.52 143.013 193.311 143.072C193.101 143.132 192.896 143.214 192.695 143.318C192.499 143.423 192.308 143.549 192.121 143.694C191.939 143.84 191.768 144.002 191.608 144.18V142.977C191.923 142.671 192.274 142.439 192.661 142.279C193.053 142.115 193.529 142.033 194.09 142.033C194.491 142.033 194.862 142.092 195.204 142.211C195.546 142.325 195.842 142.493 196.093 142.717C196.343 142.94 196.539 143.216 196.681 143.544C196.826 143.872 196.899 144.248 196.899 144.672C196.899 145.059 196.854 145.41 196.763 145.725C196.676 146.039 196.542 146.335 196.359 146.613C196.182 146.891 195.956 147.158 195.683 147.413C195.409 147.668 195.088 147.928 194.719 148.192C194.258 148.521 193.878 148.801 193.577 149.033C193.281 149.266 193.044 149.484 192.866 149.689C192.693 149.89 192.57 150.093 192.497 150.298C192.429 150.498 192.395 150.731 192.395 150.995H197.275V152H191.226V151.515C191.226 151.095 191.271 150.726 191.362 150.407C191.453 150.088 191.604 149.785 191.813 149.498C192.023 149.211 192.297 148.924 192.634 148.637C192.976 148.35 193.393 148.026 193.885 147.666C194.24 147.411 194.536 147.167 194.773 146.935C195.015 146.702 195.209 146.47 195.354 146.237C195.5 146.005 195.603 145.77 195.662 145.533C195.726 145.292 195.758 145.036 195.758 144.768ZM204.651 149.006C204.651 149.484 204.569 149.917 204.405 150.305C204.241 150.692 204.007 151.025 203.701 151.303C203.4 151.581 203.036 151.795 202.607 151.945C202.179 152.096 201.703 152.171 201.179 152.171C200.267 152.171 199.59 152.034 199.148 151.761V150.571C199.814 151 200.495 151.214 201.192 151.214C201.548 151.214 201.867 151.161 202.149 151.057C202.437 150.952 202.68 150.806 202.881 150.619C203.081 150.432 203.234 150.207 203.339 149.942C203.448 149.678 203.503 149.389 203.503 149.074C203.503 148.436 203.289 147.937 202.86 147.577C202.432 147.213 201.81 147.03 200.994 147.03C200.862 147.03 200.723 147.033 200.577 147.037C200.431 147.042 200.285 147.049 200.14 147.058C199.994 147.062 199.85 147.069 199.709 147.078C199.572 147.087 199.447 147.099 199.333 147.112L199.668 142.197H204.2V143.209H200.639L200.44 146.087C200.586 146.078 200.741 146.071 200.905 146.066C201.069 146.057 201.215 146.053 201.343 146.053C201.862 146.053 202.327 146.121 202.737 146.258C203.147 146.395 203.494 146.59 203.776 146.846C204.063 147.096 204.28 147.406 204.426 147.775C204.576 148.14 204.651 148.55 204.651 149.006ZM211.125 143.223C210.924 143.223 210.754 143.154 210.612 143.018C210.471 142.881 210.4 142.708 210.4 142.498C210.4 142.288 210.471 142.115 210.612 141.979C210.754 141.837 210.924 141.767 211.125 141.767C211.33 141.767 211.503 141.837 211.645 141.979C211.79 142.115 211.863 142.288 211.863 142.498C211.863 142.699 211.79 142.869 211.645 143.011C211.503 143.152 211.33 143.223 211.125 143.223ZM211.672 152H210.551V145H211.672V152ZM213.518 151.747V150.544C214.128 150.995 214.8 151.221 215.534 151.221C216.519 151.221 217.011 150.893 217.011 150.236C217.011 150.049 216.967 149.892 216.881 149.765C216.799 149.632 216.685 149.516 216.539 149.416C216.398 149.316 216.229 149.227 216.033 149.149C215.842 149.067 215.634 148.983 215.411 148.896C215.101 148.773 214.828 148.65 214.591 148.527C214.358 148.4 214.162 148.258 214.003 148.104C213.848 147.944 213.729 147.764 213.647 147.563C213.57 147.363 213.531 147.128 213.531 146.859C213.531 146.531 213.606 146.242 213.757 145.991C213.907 145.736 214.108 145.524 214.358 145.355C214.609 145.182 214.894 145.052 215.213 144.966C215.536 144.879 215.869 144.836 216.211 144.836C216.817 144.836 217.359 144.941 217.838 145.15V146.285C217.323 145.948 216.73 145.779 216.061 145.779C215.851 145.779 215.662 145.804 215.493 145.854C215.325 145.9 215.179 145.966 215.056 146.053C214.937 146.139 214.844 146.244 214.775 146.367C214.712 146.486 214.68 146.618 214.68 146.764C214.68 146.946 214.712 147.099 214.775 147.222C214.844 147.345 214.942 147.454 215.069 147.55C215.197 147.646 215.352 147.732 215.534 147.81C215.716 147.887 215.924 147.971 216.156 148.062C216.466 148.181 216.744 148.304 216.99 148.432C217.236 148.555 217.446 148.696 217.619 148.855C217.792 149.01 217.924 149.19 218.016 149.396C218.111 149.601 218.159 149.844 218.159 150.127C218.159 150.473 218.082 150.774 217.927 151.029C217.776 151.285 217.574 151.496 217.318 151.665C217.063 151.834 216.769 151.959 216.437 152.041C216.104 152.123 215.755 152.164 215.391 152.164C214.671 152.164 214.046 152.025 213.518 151.747ZM228.741 152H227.62V150.906H227.593C227.105 151.745 226.387 152.164 225.439 152.164C224.742 152.164 224.195 151.979 223.799 151.61C223.407 151.241 223.211 150.751 223.211 150.141C223.211 148.833 223.981 148.072 225.521 147.857L227.62 147.563C227.62 146.374 227.139 145.779 226.178 145.779C225.335 145.779 224.574 146.066 223.895 146.641V145.492C224.583 145.055 225.376 144.836 226.273 144.836C227.919 144.836 228.741 145.706 228.741 147.447V152ZM227.62 148.459L225.932 148.691C225.412 148.764 225.02 148.894 224.756 149.081C224.492 149.263 224.359 149.589 224.359 150.059C224.359 150.4 224.48 150.681 224.722 150.899C224.968 151.114 225.294 151.221 225.699 151.221C226.255 151.221 226.713 151.027 227.073 150.64C227.438 150.248 227.62 149.753 227.62 149.156V148.459ZM230.43 151.747V150.544C231.04 150.995 231.713 151.221 232.446 151.221C233.431 151.221 233.923 150.893 233.923 150.236C233.923 150.049 233.88 149.892 233.793 149.765C233.711 149.632 233.597 149.516 233.451 149.416C233.31 149.316 233.141 149.227 232.945 149.149C232.754 149.067 232.547 148.983 232.323 148.896C232.013 148.773 231.74 148.65 231.503 148.527C231.271 148.4 231.075 148.258 230.915 148.104C230.76 147.944 230.642 147.764 230.56 147.563C230.482 147.363 230.443 147.128 230.443 146.859C230.443 146.531 230.519 146.242 230.669 145.991C230.819 145.736 231.02 145.524 231.271 145.355C231.521 145.182 231.806 145.052 232.125 144.966C232.449 144.879 232.781 144.836 233.123 144.836C233.729 144.836 234.271 144.941 234.75 145.15V146.285C234.235 145.948 233.643 145.779 232.973 145.779C232.763 145.779 232.574 145.804 232.405 145.854C232.237 145.9 232.091 145.966 231.968 146.053C231.849 146.139 231.756 146.244 231.688 146.367C231.624 146.486 231.592 146.618 231.592 146.764C231.592 146.946 231.624 147.099 231.688 147.222C231.756 147.345 231.854 147.454 231.981 147.55C232.109 147.646 232.264 147.732 232.446 147.81C232.629 147.887 232.836 147.971 233.068 148.062C233.378 148.181 233.656 148.304 233.902 148.432C234.148 148.555 234.358 148.696 234.531 148.855C234.704 149.01 234.837 149.19 234.928 149.396C235.023 149.601 235.071 149.844 235.071 150.127C235.071 150.473 234.994 150.774 234.839 151.029C234.688 151.285 234.486 151.496 234.23 151.665C233.975 151.834 233.681 151.959 233.349 152.041C233.016 152.123 232.667 152.164 232.303 152.164C231.583 152.164 230.958 152.025 230.43 151.747ZM236.377 151.747V150.544C236.988 150.995 237.66 151.221 238.394 151.221C239.378 151.221 239.87 150.893 239.87 150.236C239.87 150.049 239.827 149.892 239.74 149.765C239.658 149.632 239.544 149.516 239.398 149.416C239.257 149.316 239.089 149.227 238.893 149.149C238.701 149.067 238.494 148.983 238.271 148.896C237.961 148.773 237.687 148.65 237.45 148.527C237.218 148.4 237.022 148.258 236.862 148.104C236.707 147.944 236.589 147.764 236.507 147.563C236.429 147.363 236.391 147.128 236.391 146.859C236.391 146.531 236.466 146.242 236.616 145.991C236.767 145.736 236.967 145.524 237.218 145.355C237.468 145.182 237.753 145.052 238.072 144.966C238.396 144.879 238.729 144.836 239.07 144.836C239.676 144.836 240.219 144.941 240.697 145.15V146.285C240.182 145.948 239.59 145.779 238.92 145.779C238.71 145.779 238.521 145.804 238.353 145.854C238.184 145.9 238.038 145.966 237.915 146.053C237.797 146.139 237.703 146.244 237.635 146.367C237.571 146.486 237.539 146.618 237.539 146.764C237.539 146.946 237.571 147.099 237.635 147.222C237.703 147.345 237.801 147.454 237.929 147.55C238.056 147.646 238.211 147.732 238.394 147.81C238.576 147.887 238.783 147.971 239.016 148.062C239.326 148.181 239.604 148.304 239.85 148.432C240.096 148.555 240.305 148.696 240.479 148.855C240.652 149.01 240.784 149.19 240.875 149.396C240.971 149.601 241.019 149.844 241.019 150.127C241.019 150.473 240.941 150.774 240.786 151.029C240.636 151.285 240.433 151.496 240.178 151.665C239.923 151.834 239.629 151.959 239.296 152.041C238.963 152.123 238.615 152.164 238.25 152.164C237.53 152.164 236.906 152.025 236.377 151.747ZM243.322 143.223C243.122 143.223 242.951 143.154 242.81 143.018C242.668 142.881 242.598 142.708 242.598 142.498C242.598 142.288 242.668 142.115 242.81 141.979C242.951 141.837 243.122 141.767 243.322 141.767C243.527 141.767 243.701 141.837 243.842 141.979C243.988 142.115 244.061 142.288 244.061 142.498C244.061 142.699 243.988 142.869 243.842 143.011C243.701 143.152 243.527 143.223 243.322 143.223ZM243.869 152H242.748V145H243.869V152ZM252.113 151.439C252.113 154.01 250.883 155.295 248.422 155.295C247.556 155.295 246.799 155.131 246.152 154.803V153.682C246.941 154.119 247.693 154.338 248.408 154.338C250.131 154.338 250.992 153.422 250.992 151.59V150.824H250.965C250.432 151.717 249.63 152.164 248.559 152.164C247.688 152.164 246.986 151.854 246.453 151.234C245.924 150.61 245.66 149.774 245.66 148.726C245.66 147.536 245.945 146.59 246.515 145.889C247.089 145.187 247.873 144.836 248.866 144.836C249.81 144.836 250.509 145.214 250.965 145.971H250.992V145H252.113V151.439ZM250.992 148.835V147.803C250.992 147.247 250.803 146.771 250.425 146.374C250.051 145.978 249.584 145.779 249.023 145.779C248.331 145.779 247.788 146.032 247.396 146.538C247.005 147.039 246.809 147.743 246.809 148.65C246.809 149.43 246.995 150.054 247.369 150.523C247.747 150.988 248.246 151.221 248.866 151.221C249.495 151.221 250.006 150.997 250.397 150.551C250.794 150.104 250.992 149.532 250.992 148.835ZM260.193 152H259.072V148.008C259.072 146.522 258.53 145.779 257.445 145.779C256.885 145.779 256.42 145.991 256.051 146.415C255.686 146.834 255.504 147.365 255.504 148.008V152H254.383V145H255.504V146.162H255.531C256.06 145.278 256.826 144.836 257.828 144.836C258.594 144.836 259.179 145.084 259.585 145.581C259.991 146.073 260.193 146.786 260.193 147.721V152ZM267.938 148.78H262.996C263.014 149.56 263.224 150.161 263.625 150.585C264.026 151.009 264.577 151.221 265.279 151.221C266.068 151.221 266.792 150.961 267.453 150.441V151.494C266.838 151.941 266.024 152.164 265.013 152.164C264.024 152.164 263.247 151.847 262.682 151.214C262.117 150.576 261.834 149.68 261.834 148.527C261.834 147.438 262.142 146.552 262.757 145.868C263.377 145.18 264.145 144.836 265.061 144.836C265.977 144.836 266.685 145.132 267.187 145.725C267.688 146.317 267.938 147.14 267.938 148.192V148.78ZM266.79 147.83C266.785 147.183 266.628 146.679 266.318 146.319C266.013 145.959 265.587 145.779 265.04 145.779C264.511 145.779 264.062 145.968 263.693 146.347C263.324 146.725 263.096 147.219 263.01 147.83H266.79ZM275.615 152H274.494V150.811H274.467C273.947 151.713 273.145 152.164 272.061 152.164C271.181 152.164 270.477 151.852 269.948 151.228C269.424 150.599 269.162 149.744 269.162 148.664C269.162 147.507 269.454 146.579 270.037 145.882C270.62 145.185 271.397 144.836 272.368 144.836C273.33 144.836 274.029 145.214 274.467 145.971H274.494V141.637H275.615V152ZM274.494 148.835V147.803C274.494 147.238 274.307 146.759 273.934 146.367C273.56 145.975 273.086 145.779 272.512 145.779C271.828 145.779 271.29 146.03 270.898 146.531C270.507 147.033 270.311 147.725 270.311 148.609C270.311 149.416 270.497 150.054 270.871 150.523C271.249 150.988 271.755 151.221 272.389 151.221C273.013 151.221 273.519 150.995 273.906 150.544C274.298 150.093 274.494 149.523 274.494 148.835ZM284.974 151.932C284.709 152.077 284.361 152.15 283.928 152.15C282.702 152.15 282.089 151.467 282.089 150.1V145.957H280.886V145H282.089V143.291L283.21 142.929V145H284.974V145.957H283.21V149.901C283.21 150.371 283.29 150.706 283.449 150.906C283.609 151.107 283.873 151.207 284.242 151.207C284.525 151.207 284.769 151.13 284.974 150.975V151.932ZM289.396 152.164C288.362 152.164 287.535 151.838 286.915 151.187C286.3 150.53 285.992 149.662 285.992 148.582C285.992 147.406 286.313 146.488 286.956 145.827C287.599 145.166 288.467 144.836 289.561 144.836C290.604 144.836 291.418 145.157 292.001 145.8C292.589 146.442 292.883 147.333 292.883 148.473C292.883 149.589 292.566 150.485 291.933 151.159C291.304 151.829 290.458 152.164 289.396 152.164ZM289.479 145.779C288.758 145.779 288.189 146.025 287.77 146.518C287.35 147.005 287.141 147.68 287.141 148.541C287.141 149.37 287.353 150.024 287.776 150.503C288.2 150.981 288.768 151.221 289.479 151.221C290.203 151.221 290.759 150.986 291.146 150.517C291.538 150.047 291.734 149.38 291.734 148.514C291.734 147.639 291.538 146.964 291.146 146.49C290.759 146.016 290.203 145.779 289.479 145.779ZM304.087 145L300.867 153.121C300.293 154.57 299.486 155.295 298.447 155.295C298.156 155.295 297.912 155.265 297.716 155.206V154.201C297.957 154.283 298.178 154.324 298.379 154.324C298.944 154.324 299.368 153.987 299.65 153.312L300.211 151.986L297.477 145H298.721L300.614 150.387C300.637 150.455 300.685 150.633 300.758 150.92H300.799C300.822 150.811 300.867 150.637 300.936 150.4L302.925 145H304.087ZM308.223 152.164C307.188 152.164 306.361 151.838 305.741 151.187C305.126 150.53 304.818 149.662 304.818 148.582C304.818 147.406 305.14 146.488 305.782 145.827C306.425 145.166 307.293 144.836 308.387 144.836C309.43 144.836 310.244 145.157 310.827 145.8C311.415 146.442 311.709 147.333 311.709 148.473C311.709 149.589 311.392 150.485 310.759 151.159C310.13 151.829 309.285 152.164 308.223 152.164ZM308.305 145.779C307.585 145.779 307.015 146.025 306.596 146.518C306.176 147.005 305.967 147.68 305.967 148.541C305.967 149.37 306.179 150.024 306.603 150.503C307.026 150.981 307.594 151.221 308.305 151.221C309.029 151.221 309.585 150.986 309.973 150.517C310.365 150.047 310.561 149.38 310.561 148.514C310.561 147.639 310.365 146.964 309.973 146.49C309.585 146.016 309.029 145.779 308.305 145.779ZM319.16 152H318.039V150.893H318.012C317.547 151.74 316.827 152.164 315.852 152.164C314.184 152.164 313.35 151.171 313.35 149.184V145H314.464V149.006C314.464 150.482 315.029 151.221 316.159 151.221C316.706 151.221 317.155 151.02 317.506 150.619C317.861 150.214 318.039 149.685 318.039 149.033V145H319.16V152ZM322.858 142.197L322.729 149.238H321.806L321.683 142.197H322.858ZM322.284 152.123C322.075 152.123 321.895 152.05 321.744 151.904C321.598 151.758 321.525 151.581 321.525 151.371C321.525 151.161 321.598 150.984 321.744 150.838C321.895 150.688 322.075 150.612 322.284 150.612C322.489 150.612 322.667 150.688 322.817 150.838C322.968 150.984 323.043 151.161 323.043 151.371C323.043 151.581 322.968 151.758 322.817 151.904C322.667 152.05 322.489 152.123 322.284 152.123Z" fill="var(--vscode-icon-foreground, #3B3B3B)"/>
<rect x="123" y="169" width="100" height="10" rx="4" fill="var(--vscode-menu-foreground, #CCCCCC)"/>
<path d="M89.5462 121.425C89.6152 121.474 89.6813 121.526 89.7442 121.582C89.748 121.516 89.75 121.449 89.75 121.382V114.625C89.75 112.761 88.239 111.25 86.375 111.25L81.1243 111.249L81.1255 110.126L81.1152 109.973C81.0407 109.424 80.57 109.001 80.0005 109.001L79.8478 109.011C79.2987 109.085 78.8755 109.556 78.8755 110.126L78.8743 111.249L73.625 111.25C71.761 111.25 70.25 112.761 70.25 114.625V121.382C70.25 123.246 71.761 124.757 73.625 124.757H85.3013C85.3111 124.731 85.3205 124.705 85.3295 124.679L85.3428 124.639L86.0182 122.563L86.0244 122.545C86.184 122.093 86.4799 121.702 86.8711 121.425C87.2623 121.148 87.7297 121 88.2087 121C88.6877 121 89.155 121.148 89.5462 121.425ZM76.6239 115.75C77.6589 115.75 78.4979 116.589 78.4979 117.624C78.4979 118.659 77.6589 119.498 76.6239 119.498C75.589 119.498 74.75 118.659 74.75 117.624C74.75 116.589 75.589 115.75 76.6239 115.75ZM83.363 115.75C84.398 115.75 85.237 116.589 85.237 117.624C85.237 118.659 84.398 119.498 83.363 119.498C82.3281 119.498 81.4891 118.659 81.4891 117.624C81.4891 116.589 82.3281 115.75 83.363 115.75ZM81.5637 127.055L81.7325 127H71.3803C69.5163 127 68.0053 128.511 68.0053 130.375V131.736C68.0053 133.375 68.7203 134.933 69.9632 136.001C72.3075 138.017 75.6658 139.002 80 139.002C83.1139 139.002 85.725 138.493 87.8193 137.46C87.4946 137.398 87.185 137.268 86.9124 137.075C86.5212 136.798 86.2253 136.407 86.0657 135.955L86.0595 135.937L85.3838 133.86L85.383 133.858C85.2848 133.56 85.1369 133.283 84.9462 133.036C84.876 132.946 84.7999 132.859 84.7185 132.778L84.1803 132.385L83.6421 132.11L81.5637 131.435L81.5461 131.429C81.0943 131.27 80.7028 130.974 80.4258 130.583C80.1488 130.192 80 129.724 80 129.245C80 128.765 80.1488 128.298 80.4258 127.907C80.7028 127.516 81.0943 127.22 81.5461 127.061L81.5637 127.055ZM85.7808 131.719C85.9066 131.845 86.024 131.978 86.1324 132.118C86.4277 132.5 86.6567 132.93 86.8085 133.391L87.4802 135.456C87.5364 135.615 87.6406 135.753 87.7785 135.85C87.9163 135.948 88.0811 136 88.25 136C88.4189 136 88.5837 135.948 88.7215 135.85C88.8446 135.763 88.9408 135.644 89 135.506C89.0072 135.49 89.0138 135.473 89.0198 135.456L89.6915 133.391C89.9004 132.763 90.2529 132.192 90.7211 131.724C91.1893 131.257 91.7602 130.904 92.3885 130.696L94.4552 130.024C94.6145 129.968 94.7525 129.864 94.85 129.726C94.9476 129.589 95 129.424 95 129.255C95 129.086 94.9476 128.922 94.85 128.784C94.7525 128.646 94.6145 128.542 94.4552 128.486L94.4139 128.476L92.3472 127.804C91.7189 127.596 91.148 127.243 90.6798 126.776C90.2116 126.308 89.859 125.737 89.6502 125.109L88.9785 123.044C88.9223 122.885 88.8181 122.747 88.6802 122.65C88.5423 122.552 88.3776 122.5 88.2087 122.5C88.0398 122.5 87.875 122.552 87.7371 122.65C87.5992 122.747 87.495 122.885 87.4388 123.044L86.7671 125.109L86.75 125.161C86.5434 125.764 86.2036 126.313 85.7555 126.768C85.2948 127.236 84.7321 127.59 84.1114 127.804L82.0448 128.476C81.8855 128.532 81.7475 128.636 81.65 128.774C81.5524 128.911 81.5 129.076 81.5 129.245C81.5 129.414 81.5524 129.578 81.65 129.716C81.7475 129.854 81.8855 129.958 82.0448 130.014L84.1114 130.685C84.7409 130.895 85.3125 131.249 85.7808 131.719ZM96.5262 137.447L97.6744 137.82L97.6974 137.826C97.7858 137.857 97.8625 137.915 97.9167 137.991C97.9709 138.068 98 138.159 98 138.253C98 138.347 97.9709 138.438 97.9167 138.515C97.8625 138.591 97.7858 138.649 97.6974 138.68L96.5492 139.053C96.2001 139.169 95.8829 139.365 95.6228 139.625C95.3627 139.885 95.1669 140.202 95.0508 140.55L94.6777 141.698C94.6465 141.786 94.5886 141.863 94.512 141.917C94.4354 141.971 94.3438 142 94.25 142C94.1562 142 94.0646 141.971 93.988 141.917C93.9114 141.863 93.8535 141.786 93.8223 141.698L93.4492 140.55C93.3339 140.2 93.1384 139.882 92.8782 139.621C92.6181 139.36 92.3005 139.164 91.9508 139.047L90.8026 138.674C90.7141 138.643 90.6375 138.585 90.5833 138.509C90.5291 138.432 90.5 138.341 90.5 138.247C90.5 138.153 90.5291 138.062 90.5833 137.985C90.6375 137.909 90.7141 137.851 90.8026 137.82L91.9508 137.447C92.2956 137.328 92.6082 137.131 92.8642 136.871C93.1201 136.611 93.3125 136.296 93.4262 135.95L93.7993 134.802C93.8306 134.714 93.8885 134.637 93.9651 134.583C94.0417 134.529 94.1332 134.5 94.227 134.5C94.3209 134.5 94.4124 134.529 94.489 134.583C94.5656 134.637 94.6235 134.714 94.6547 134.802L95.0279 135.95C95.1439 136.298 95.3398 136.615 95.5999 136.875C95.86 137.135 96.1772 137.331 96.5262 137.447Z" fill="var(--vscode-icon-foreground, #3B3B3B)"/>
<defs>
<filter id="filter0_d_272_24887" x="0" y="0" width="419" height="375" filterUnits="userSpaceOnUse" color-interpolation-filters="sRGB">
<feFlood flood-opacity="0" result="BackgroundImageFix"/>
<feColorMatrix in="SourceAlpha" type="matrix" values="0 0 0 0 0 0 0 0 0 0 0 0 0 0 0 0 0 0 127 0" result="hardAlpha"/>
<feOffset dy="4"/>
<feGaussianBlur stdDeviation="2"/>
<feComposite in2="hardAlpha" operator="out"/>
<feColorMatrix type="matrix" values="0 0 0 0 0 0 0 0 0 0 0 0 0 0 0 0 0 0 0.25 0"/>
<feBlend mode="normal" in2="BackgroundImageFix" result="effect1_dropShadow_272_24887"/>
<feBlend mode="normal" in="SourceGraphic" in2="effect1_dropShadow_272_24887" result="shape"/>
</filter>
</defs>
</svg>
