<svg width="609" height="405" viewBox="0 0 609 405" fill="none" xmlns="http://www.w3.org/2000/svg">
<rect x="0.5" y="24.5" width="608" height="351" rx="7.5" fill="var(--vscode-editor-background, white)" stroke="var(--vscode-panelTitle-activeBorder, #005FB8)"/>
<a href="https://learn.microsoft.com/en-us/microsoftteams/platform/bots/how-to/teams%20conversational%20ai/teams-conversation-ai-overview">
<rect x="27.5" y="266.5" width="554" height="73" rx="11.5" fill="var(--vscode-editor-background, white)" stroke="var(--vscode-panelTitle-activeBorder, #005FB8)"/>
<path d="M207.996 296.953H201.961V315H198.475V296.953H192.454V293.994H207.996V296.953ZM220.462 308.423H210.237C210.276 309.81 210.701 310.879 211.512 311.631C212.332 312.383 213.455 312.759 214.881 312.759C216.482 312.759 217.952 312.28 219.29 311.323V314.062C217.923 314.922 216.116 315.352 213.87 315.352C211.663 315.352 209.93 314.673 208.67 313.315C207.42 311.948 206.795 310.029 206.795 307.559C206.795 305.225 207.483 303.325 208.86 301.86C210.247 300.386 211.966 299.648 214.017 299.648C216.067 299.648 217.654 300.308 218.777 301.626C219.9 302.944 220.462 304.775 220.462 307.119V308.423ZM217.181 306.021C217.171 304.8 216.883 303.853 216.316 303.179C215.75 302.495 214.969 302.153 213.973 302.153C212.996 302.153 212.166 302.51 211.482 303.223C210.809 303.936 210.394 304.868 210.237 306.021H217.181ZM235.213 315H231.917V312.656H231.858C230.823 314.453 229.305 315.352 227.303 315.352C225.828 315.352 224.671 314.951 223.831 314.15C223.001 313.35 222.586 312.29 222.586 310.972C222.586 308.14 224.217 306.489 227.479 306.021L231.932 305.391C231.932 303.252 230.916 302.183 228.885 302.183C227.098 302.183 225.486 302.798 224.051 304.028V301.055C225.633 300.117 227.459 299.648 229.529 299.648C233.318 299.648 235.213 301.514 235.213 305.244V315ZM231.932 307.632L228.782 308.071C227.806 308.198 227.068 308.438 226.57 308.789C226.082 309.131 225.838 309.736 225.838 310.605C225.838 311.24 226.063 311.763 226.512 312.173C226.971 312.573 227.581 312.773 228.343 312.773C229.378 312.773 230.232 312.412 230.906 311.689C231.59 310.957 231.932 310.039 231.932 308.936V307.632ZM261.8 315H258.401V306.826C258.401 305.254 258.177 304.116 257.728 303.413C257.288 302.71 256.541 302.358 255.486 302.358C254.598 302.358 253.841 302.803 253.216 303.691C252.601 304.58 252.293 305.645 252.293 306.885V315H248.88V306.548C248.88 303.755 247.894 302.358 245.921 302.358C245.003 302.358 244.246 302.778 243.65 303.618C243.064 304.458 242.771 305.547 242.771 306.885V315H239.373V300H242.771V302.373H242.83C243.914 300.557 245.491 299.648 247.562 299.648C248.597 299.648 249.5 299.937 250.271 300.513C251.053 301.079 251.585 301.826 251.868 302.754C252.981 300.684 254.642 299.648 256.849 299.648C260.149 299.648 261.8 301.685 261.8 305.757V315ZM265.008 314.531V311.382C266.277 312.349 267.679 312.832 269.212 312.832C271.263 312.832 272.288 312.227 272.288 311.016C272.288 310.674 272.2 310.386 272.024 310.151C271.849 309.907 271.609 309.692 271.307 309.507C271.014 309.321 270.662 309.155 270.252 309.009C269.852 308.862 269.402 308.696 268.904 308.511C268.289 308.267 267.732 308.008 267.234 307.734C266.746 307.461 266.336 307.153 266.004 306.812C265.682 306.46 265.438 306.064 265.271 305.625C265.105 305.186 265.022 304.673 265.022 304.087C265.022 303.364 265.193 302.729 265.535 302.183C265.877 301.626 266.336 301.162 266.912 300.791C267.488 300.41 268.143 300.127 268.875 299.941C269.607 299.746 270.364 299.648 271.146 299.648C272.532 299.648 273.772 299.858 274.866 300.278V303.252C273.812 302.529 272.601 302.168 271.233 302.168C270.804 302.168 270.413 302.212 270.062 302.3C269.72 302.388 269.427 302.51 269.183 302.666C268.938 302.822 268.748 303.013 268.611 303.237C268.475 303.452 268.406 303.691 268.406 303.955C268.406 304.277 268.475 304.551 268.611 304.775C268.748 305 268.948 305.2 269.212 305.376C269.485 305.542 269.808 305.698 270.179 305.845C270.56 305.981 270.994 306.133 271.482 306.299C272.127 306.562 272.703 306.831 273.211 307.104C273.729 307.378 274.168 307.69 274.529 308.042C274.891 308.384 275.169 308.784 275.364 309.243C275.56 309.692 275.657 310.229 275.657 310.854C275.657 311.616 275.481 312.28 275.13 312.847C274.778 313.413 274.31 313.882 273.724 314.253C273.138 314.624 272.459 314.897 271.688 315.073C270.926 315.259 270.12 315.352 269.271 315.352C267.63 315.352 266.209 315.078 265.008 314.531ZM304.793 315H300.97L299.08 309.653H290.818L289.002 315H285.193L293.06 293.994H296.985L304.793 315ZM298.157 306.812L295.242 298.433C295.154 298.159 295.062 297.72 294.964 297.114H294.905C294.817 297.671 294.72 298.11 294.612 298.433L291.727 306.812H298.157ZM311.268 315H307.679V293.994H311.268V315ZM336.346 315H324.715V293.994H328.201V312.056H336.346V315ZM340.726 296.851C340.169 296.851 339.69 296.67 339.29 296.309C338.899 295.947 338.704 295.488 338.704 294.932C338.704 294.375 338.899 293.911 339.29 293.54C339.69 293.169 340.169 292.983 340.726 292.983C341.302 292.983 341.79 293.169 342.19 293.54C342.591 293.911 342.791 294.375 342.791 294.932C342.791 295.459 342.591 295.913 342.19 296.294C341.79 296.665 341.302 296.851 340.726 296.851ZM342.41 315H339.012V300H342.41V315ZM350.32 312.832H350.262V315H346.863V292.793H350.262V302.637H350.32C351.482 300.645 353.182 299.648 355.418 299.648C357.313 299.648 358.792 300.322 359.856 301.67C360.931 303.008 361.468 304.805 361.468 307.061C361.468 309.57 360.867 311.582 359.666 313.096C358.465 314.6 356.824 315.352 354.744 315.352C352.791 315.352 351.316 314.512 350.32 312.832ZM350.232 306.87V308.73C350.232 309.824 350.579 310.752 351.272 311.514C351.976 312.275 352.864 312.656 353.938 312.656C355.198 312.656 356.185 312.168 356.897 311.191C357.62 310.205 357.981 308.833 357.981 307.075C357.981 305.601 357.645 304.448 356.971 303.618C356.307 302.778 355.403 302.358 354.261 302.358C353.05 302.358 352.073 302.788 351.331 303.647C350.599 304.507 350.232 305.581 350.232 306.87ZM373.641 303.237C373.23 302.915 372.64 302.754 371.868 302.754C370.862 302.754 370.022 303.208 369.349 304.116C368.675 305.024 368.338 306.26 368.338 307.822V315H364.939V300H368.338V303.091H368.396C368.729 302.036 369.236 301.216 369.92 300.63C370.613 300.034 371.385 299.736 372.234 299.736C372.85 299.736 373.318 299.829 373.641 300.015V303.237ZM387.557 315H384.261V312.656H384.202C383.167 314.453 381.648 315.352 379.646 315.352C378.172 315.352 377.015 314.951 376.175 314.15C375.345 313.35 374.93 312.29 374.93 310.972C374.93 308.14 376.561 306.489 379.822 306.021L384.275 305.391C384.275 303.252 383.26 302.183 381.229 302.183C379.441 302.183 377.83 302.798 376.395 304.028V301.055C377.977 300.117 379.803 299.648 381.873 299.648C385.662 299.648 387.557 301.514 387.557 305.244V315ZM384.275 307.632L381.126 308.071C380.149 308.198 379.412 308.438 378.914 308.789C378.426 309.131 378.182 309.736 378.182 310.605C378.182 311.24 378.406 311.763 378.855 312.173C379.314 312.573 379.925 312.773 380.687 312.773C381.722 312.773 382.576 312.412 383.25 311.689C383.934 310.957 384.275 310.039 384.275 308.936V307.632ZM400.418 303.237C400.008 302.915 399.417 302.754 398.646 302.754C397.64 302.754 396.8 303.208 396.126 304.116C395.452 305.024 395.115 306.26 395.115 307.822V315H391.717V300H395.115V303.091H395.174C395.506 302.036 396.014 301.216 396.697 300.63C397.391 300.034 398.162 299.736 399.012 299.736C399.627 299.736 400.096 299.829 400.418 300.015V303.237ZM417.015 300L410.247 317.402C408.841 320.508 406.868 322.061 404.329 322.061C403.616 322.061 403.021 321.997 402.542 321.87V319.043C403.079 319.219 403.567 319.307 404.007 319.307C405.276 319.307 406.224 318.682 406.849 317.432L407.859 314.971L401.897 300H405.662L409.236 310.898C409.275 311.035 409.363 311.396 409.5 311.982H409.573C409.622 311.758 409.71 311.406 409.837 310.928L413.587 300H417.015Z" fill="var(--vscode-icon-foreground, #3B3B3B)"/>
</a>
<a href="https://learn.microsoft.com/en-us/azure/ai-services/openai/concepts/prompt-engineering#basics">
<rect x="27.5" y="175.5" width="554" height="73" rx="11.5" fill="var(--vscode-editor-background, white)" stroke="var(--vscode-panelTitle-activeBorder, #005FB8)"/>
<path d="M174.07 216.383V224H170.599V202.994H176.971C179.383 202.994 181.253 203.556 182.581 204.679C183.909 205.802 184.573 207.384 184.573 209.425C184.573 211.466 183.88 213.136 182.493 214.435C181.106 215.733 179.231 216.383 176.868 216.383H174.07ZM174.07 205.865V213.541H176.326C177.82 213.541 178.958 213.194 179.739 212.501C180.52 211.808 180.911 210.831 180.911 209.571C180.911 207.101 179.476 205.865 176.604 205.865H174.07ZM196.468 212.237C196.058 211.915 195.467 211.754 194.695 211.754C193.689 211.754 192.85 212.208 192.176 213.116C191.502 214.024 191.165 215.26 191.165 216.822V224H187.767V209H191.165V212.091H191.224C191.556 211.036 192.063 210.216 192.747 209.63C193.44 209.034 194.212 208.736 195.061 208.736C195.677 208.736 196.145 208.829 196.468 209.015V212.237ZM205.257 224.352C202.942 224.352 201.092 223.653 199.705 222.257C198.328 220.851 197.64 218.99 197.64 216.676C197.64 214.156 198.357 212.188 199.793 210.772C201.238 209.356 203.182 208.648 205.623 208.648C207.967 208.648 209.793 209.337 211.102 210.714C212.41 212.091 213.064 214 213.064 216.441C213.064 218.834 212.356 220.753 210.94 222.198C209.534 223.634 207.64 224.352 205.257 224.352ZM205.418 211.358C204.09 211.358 203.04 211.822 202.269 212.75C201.497 213.678 201.111 214.957 201.111 216.588C201.111 218.16 201.502 219.4 202.283 220.309C203.064 221.207 204.109 221.656 205.418 221.656C206.756 221.656 207.781 221.212 208.494 220.323C209.217 219.435 209.578 218.17 209.578 216.529C209.578 214.879 209.217 213.604 208.494 212.706C207.781 211.808 206.756 211.358 205.418 211.358ZM238.963 224H235.564V215.826C235.564 214.254 235.34 213.116 234.891 212.413C234.451 211.71 233.704 211.358 232.649 211.358C231.761 211.358 231.004 211.803 230.379 212.691C229.764 213.58 229.456 214.645 229.456 215.885V224H226.043V215.548C226.043 212.755 225.057 211.358 223.084 211.358C222.166 211.358 221.409 211.778 220.813 212.618C220.228 213.458 219.935 214.547 219.935 215.885V224H216.536V209H219.935V211.373H219.993C221.077 209.557 222.654 208.648 224.725 208.648C225.76 208.648 226.663 208.937 227.435 209.513C228.216 210.079 228.748 210.826 229.031 211.754C230.145 209.684 231.805 208.648 234.012 208.648C237.312 208.648 238.963 210.685 238.963 214.757V224ZM246.565 221.788H246.507V230.899H243.108V209H246.507V211.637H246.565C247.728 209.645 249.427 208.648 251.663 208.648C253.567 208.648 255.052 209.317 256.116 210.655C257.181 211.993 257.713 213.79 257.713 216.046C257.713 218.546 257.112 220.548 255.911 222.052C254.71 223.556 253.069 224.308 250.989 224.308C249.075 224.308 247.601 223.468 246.565 221.788ZM246.478 215.87V217.73C246.478 218.824 246.824 219.752 247.518 220.514C248.221 221.275 249.109 221.656 250.184 221.656C251.443 221.656 252.43 221.168 253.143 220.191C253.865 219.205 254.227 217.833 254.227 216.075C254.227 214.601 253.89 213.448 253.216 212.618C252.552 211.778 251.648 211.358 250.506 211.358C249.295 211.358 248.318 211.788 247.576 212.647C246.844 213.507 246.478 214.581 246.478 215.87ZM269.095 223.839C268.431 224.171 267.557 224.337 266.473 224.337C263.562 224.337 262.107 222.94 262.107 220.147V211.666H259.603V209H262.107V205.528L265.506 204.562V209H269.095V211.666H265.506V219.166C265.506 220.055 265.667 220.689 265.989 221.07C266.311 221.451 266.849 221.642 267.601 221.642C268.177 221.642 268.675 221.476 269.095 221.144V223.839ZM292.459 224H280.667V202.994H291.99V205.953H284.153V211.9H291.375V214.845H284.153V221.056H292.459V224ZM309.173 224H305.774V215.548C305.774 212.745 304.783 211.344 302.801 211.344C301.766 211.344 300.911 211.734 300.237 212.516C299.563 213.287 299.227 214.264 299.227 215.445V224H295.813V209H299.227V211.49H299.285C300.408 209.596 302.029 208.648 304.148 208.648C305.779 208.648 307.024 209.181 307.884 210.245C308.743 211.3 309.173 212.828 309.173 214.83V224ZM326.985 222.799C326.985 228.307 324.217 231.061 318.68 231.061C316.727 231.061 315.022 230.733 313.567 230.079V226.974C315.208 227.911 316.766 228.38 318.24 228.38C321.805 228.38 323.587 226.627 323.587 223.121V221.48H323.528C322.405 223.395 320.716 224.352 318.46 224.352C316.634 224.352 315.159 223.688 314.036 222.359C312.923 221.021 312.366 219.229 312.366 216.983C312.366 214.435 312.967 212.408 314.168 210.904C315.369 209.4 317.02 208.648 319.119 208.648C321.102 208.648 322.571 209.459 323.528 211.08H323.587V209H326.985V222.799ZM323.616 217.13V215.182C323.616 214.127 323.265 213.229 322.561 212.486C321.868 211.734 320.999 211.358 319.954 211.358C318.665 211.358 317.654 211.837 316.922 212.794C316.199 213.741 315.838 215.069 315.838 216.778C315.838 218.253 316.185 219.435 316.878 220.323C317.581 221.202 318.509 221.642 319.661 221.642C320.833 221.642 321.785 221.222 322.518 220.382C323.25 219.532 323.616 218.448 323.616 217.13ZM333.123 205.851C332.566 205.851 332.088 205.67 331.687 205.309C331.297 204.947 331.102 204.488 331.102 203.932C331.102 203.375 331.297 202.911 331.687 202.54C332.088 202.169 332.566 201.983 333.123 201.983C333.699 201.983 334.187 202.169 334.588 202.54C334.988 202.911 335.188 203.375 335.188 203.932C335.188 204.459 334.988 204.913 334.588 205.294C334.187 205.665 333.699 205.851 333.123 205.851ZM334.808 224H331.409V209H334.808V224ZM352.62 224H349.222V215.548C349.222 212.745 348.23 211.344 346.248 211.344C345.213 211.344 344.358 211.734 343.685 212.516C343.011 213.287 342.674 214.264 342.674 215.445V224H339.261V209H342.674V211.49H342.732C343.855 209.596 345.477 208.648 347.596 208.648C349.227 208.648 350.472 209.181 351.331 210.245C352.19 211.3 352.62 212.828 352.62 214.83V224ZM369.48 217.423H359.256C359.295 218.81 359.72 219.879 360.53 220.631C361.351 221.383 362.474 221.759 363.899 221.759C365.501 221.759 366.971 221.28 368.309 220.323V223.062C366.941 223.922 365.135 224.352 362.889 224.352C360.682 224.352 358.948 223.673 357.688 222.315C356.438 220.948 355.813 219.029 355.813 216.559C355.813 214.225 356.502 212.325 357.879 210.86C359.266 209.386 360.984 208.648 363.035 208.648C365.086 208.648 366.673 209.308 367.796 210.626C368.919 211.944 369.48 213.775 369.48 216.119V217.423ZM366.199 215.021C366.189 213.8 365.901 212.853 365.335 212.179C364.769 211.495 363.987 211.153 362.991 211.153C362.015 211.153 361.185 211.51 360.501 212.223C359.827 212.936 359.412 213.868 359.256 215.021H366.199ZM385.418 217.423H375.193C375.232 218.81 375.657 219.879 376.468 220.631C377.288 221.383 378.411 221.759 379.837 221.759C381.438 221.759 382.908 221.28 384.246 220.323V223.062C382.879 223.922 381.072 224.352 378.826 224.352C376.619 224.352 374.886 223.673 373.626 222.315C372.376 220.948 371.751 219.029 371.751 216.559C371.751 214.225 372.439 212.325 373.816 210.86C375.203 209.386 376.922 208.648 378.973 208.648C381.023 208.648 382.61 209.308 383.733 210.626C384.856 211.944 385.418 213.775 385.418 216.119V217.423ZM382.137 215.021C382.127 213.8 381.839 212.853 381.272 212.179C380.706 211.495 379.925 211.153 378.929 211.153C377.952 211.153 377.122 211.51 376.438 212.223C375.765 212.936 375.35 213.868 375.193 215.021H382.137ZM397.356 212.237C396.946 211.915 396.355 211.754 395.584 211.754C394.578 211.754 393.738 212.208 393.064 213.116C392.391 214.024 392.054 215.26 392.054 216.822V224H388.655V209H392.054V212.091H392.112C392.444 211.036 392.952 210.216 393.636 209.63C394.329 209.034 395.101 208.736 395.95 208.736C396.565 208.736 397.034 208.829 397.356 209.015V212.237ZM401.473 205.851C400.916 205.851 400.437 205.67 400.037 205.309C399.646 204.947 399.451 204.488 399.451 203.932C399.451 203.375 399.646 202.911 400.037 202.54C400.437 202.169 400.916 201.983 401.473 201.983C402.049 201.983 402.537 202.169 402.937 202.54C403.338 202.911 403.538 203.375 403.538 203.932C403.538 204.459 403.338 204.913 402.937 205.294C402.537 205.665 402.049 205.851 401.473 205.851ZM403.157 224H399.759V209H403.157V224ZM420.97 224H417.571V215.548C417.571 212.745 416.58 211.344 414.598 211.344C413.562 211.344 412.708 211.734 412.034 212.516C411.36 213.287 411.023 214.264 411.023 215.445V224H407.61V209H411.023V211.49H411.082C412.205 209.596 413.826 208.648 415.945 208.648C417.576 208.648 418.821 209.181 419.681 210.245C420.54 211.3 420.97 212.828 420.97 214.83V224ZM438.782 222.799C438.782 228.307 436.014 231.061 430.477 231.061C428.523 231.061 426.819 230.733 425.364 230.079V226.974C427.005 227.911 428.562 228.38 430.037 228.38C433.602 228.38 435.384 226.627 435.384 223.121V221.48H435.325C434.202 223.395 432.513 224.352 430.257 224.352C428.431 224.352 426.956 223.688 425.833 222.359C424.72 221.021 424.163 219.229 424.163 216.983C424.163 214.435 424.764 212.408 425.965 210.904C427.166 209.4 428.816 208.648 430.916 208.648C432.898 208.648 434.368 209.459 435.325 211.08H435.384V209H438.782V222.799ZM435.413 217.13V215.182C435.413 214.127 435.061 213.229 434.358 212.486C433.665 211.734 432.796 211.358 431.751 211.358C430.462 211.358 429.451 211.837 428.719 212.794C427.996 213.741 427.635 215.069 427.635 216.778C427.635 218.253 427.981 219.435 428.675 220.323C429.378 221.202 430.306 221.642 431.458 221.642C432.63 221.642 433.582 221.222 434.314 220.382C435.047 219.532 435.413 218.448 435.413 217.13Z" fill="var(--vscode-icon-foreground, #3B3B3B)"/>
</a>
<a href="https://learn.microsoft.com/en-us/azure/ai-services/openai/overview">
<rect x="27.5" y="84.5" width="554" height="73" rx="11.5" fill="var(--vscode-editor-background, white)" stroke="var(--vscode-panelTitle-activeBorder, #005FB8)"/>
<path d="M225.947 133H222.124L220.234 127.653H211.973L210.156 133H206.348L214.214 111.994H218.14L225.947 133ZM219.312 124.812L216.397 116.433C216.309 116.159 216.216 115.72 216.118 115.114H216.06C215.972 115.671 215.874 116.11 215.767 116.433L212.881 124.812H219.312ZM239.541 119.421L231.441 130.349H239.512V133H226.68V131.726L234.956 120.651H227.471V118H239.541V119.421ZM255.493 133H252.095V130.627H252.036C251.05 132.443 249.517 133.352 247.437 133.352C243.892 133.352 242.119 131.223 242.119 126.965V118H245.518V126.613C245.518 129.309 246.558 130.656 248.638 130.656C249.644 130.656 250.469 130.285 251.113 129.543C251.768 128.801 252.095 127.829 252.095 126.628V118H255.493V133ZM268.633 121.237C268.223 120.915 267.632 120.754 266.86 120.754C265.855 120.754 265.015 121.208 264.341 122.116C263.667 123.024 263.33 124.26 263.33 125.822V133H259.932V118H263.33V121.091H263.389C263.721 120.036 264.229 119.216 264.912 118.63C265.606 118.034 266.377 117.736 267.227 117.736C267.842 117.736 268.311 117.829 268.633 118.015V121.237ZM283.472 126.423H273.247C273.286 127.81 273.711 128.879 274.522 129.631C275.342 130.383 276.465 130.759 277.891 130.759C279.492 130.759 280.962 130.28 282.3 129.323V132.062C280.933 132.922 279.126 133.352 276.88 133.352C274.673 133.352 272.94 132.673 271.68 131.315C270.43 129.948 269.805 128.029 269.805 125.559C269.805 123.225 270.493 121.325 271.87 119.86C273.257 118.386 274.976 117.648 277.026 117.648C279.077 117.648 280.664 118.308 281.787 119.626C282.91 120.944 283.472 122.775 283.472 125.119V126.423ZM280.191 124.021C280.181 122.8 279.893 121.853 279.326 121.179C278.76 120.495 277.979 120.153 276.983 120.153C276.006 120.153 275.176 120.51 274.492 121.223C273.818 121.936 273.403 122.868 273.247 124.021H280.191ZM304.009 133.352C300.982 133.352 298.555 132.37 296.729 130.407C294.912 128.444 294.004 125.891 294.004 122.746C294.004 119.367 294.932 116.672 296.787 114.66C298.643 112.648 301.162 111.643 304.346 111.643C307.295 111.643 309.668 112.619 311.465 114.572C313.272 116.525 314.175 119.079 314.175 122.233C314.175 125.661 313.252 128.371 311.406 130.363C309.561 132.355 307.095 133.352 304.009 133.352ZM304.17 114.704C302.246 114.704 300.679 115.422 299.468 116.857C298.267 118.293 297.666 120.183 297.666 122.526C297.666 124.86 298.252 126.74 299.424 128.166C300.596 129.592 302.129 130.305 304.024 130.305C306.035 130.305 307.622 129.626 308.784 128.269C309.946 126.911 310.527 125.012 310.527 122.57C310.527 120.061 309.961 118.122 308.828 116.755C307.705 115.388 306.152 114.704 304.17 114.704ZM321.104 130.788H321.045V139.899H317.647V118H321.045V120.637H321.104C322.266 118.645 323.965 117.648 326.201 117.648C328.106 117.648 329.59 118.317 330.654 119.655C331.719 120.993 332.251 122.79 332.251 125.046C332.251 127.546 331.651 129.548 330.449 131.052C329.248 132.556 327.608 133.308 325.527 133.308C323.613 133.308 322.139 132.468 321.104 130.788ZM321.016 124.87V126.73C321.016 127.824 321.362 128.752 322.056 129.514C322.759 130.275 323.648 130.656 324.722 130.656C325.982 130.656 326.968 130.168 327.681 129.191C328.403 128.205 328.765 126.833 328.765 125.075C328.765 123.601 328.428 122.448 327.754 121.618C327.09 120.778 326.187 120.358 325.044 120.358C323.833 120.358 322.857 120.788 322.114 121.647C321.382 122.507 321.016 123.581 321.016 124.87ZM348.423 126.423H338.198C338.237 127.81 338.662 128.879 339.473 129.631C340.293 130.383 341.416 130.759 342.842 130.759C344.443 130.759 345.913 130.28 347.251 129.323V132.062C345.884 132.922 344.077 133.352 341.831 133.352C339.624 133.352 337.891 132.673 336.631 131.315C335.381 129.948 334.756 128.029 334.756 125.559C334.756 123.225 335.444 121.325 336.821 119.86C338.208 118.386 339.927 117.648 341.978 117.648C344.028 117.648 345.615 118.308 346.738 119.626C347.861 120.944 348.423 122.775 348.423 125.119V126.423ZM345.142 124.021C345.132 122.8 344.844 121.853 344.277 121.179C343.711 120.495 342.93 120.153 341.934 120.153C340.957 120.153 340.127 120.51 339.443 121.223C338.77 121.936 338.355 122.868 338.198 124.021H345.142ZM365.02 133H361.621V124.548C361.621 121.745 360.63 120.344 358.648 120.344C357.612 120.344 356.758 120.734 356.084 121.516C355.41 122.287 355.073 123.264 355.073 124.445V133H351.66V118H355.073V120.49H355.132C356.255 118.596 357.876 117.648 359.995 117.648C361.626 117.648 362.871 118.181 363.731 119.245C364.59 120.3 365.02 121.828 365.02 123.83V133ZM395.078 133H391.255L389.365 127.653H381.104L379.287 133H375.479L383.345 111.994H387.271L395.078 133ZM388.443 124.812L385.527 116.433C385.44 116.159 385.347 115.72 385.249 115.114H385.191C385.103 115.671 385.005 116.11 384.898 116.433L382.012 124.812H388.443ZM401.553 133H397.964V111.994H401.553V133Z" fill="var(--vscode-icon-foreground, #3B3B3B)"/>
</a>
<rect x="68" width="495" height="59" fill="var(--vscode-editor-background, white)"/>
<path d="M106.934 44V18.793H116.109C118.922 18.793 121.084 19.3086 122.596 20.3398C124.107 21.3711 124.863 22.8242 124.863 24.6992C124.863 26.0586 124.4 27.248 123.475 28.2676C122.561 29.2871 121.389 29.9961 119.959 30.3945V30.4648C121.752 30.6875 123.182 31.3496 124.248 32.4512C125.326 33.5527 125.865 34.8945 125.865 36.4766C125.865 38.7852 125.039 40.6191 123.387 41.9785C121.734 43.3262 119.479 44 116.619 44H106.934ZM112.611 22.9766V28.9531H115.107C116.279 28.9531 117.199 28.6719 117.867 28.1094C118.547 27.5352 118.887 26.75 118.887 25.7539C118.887 23.9023 117.504 22.9766 114.738 22.9766H112.611ZM112.611 33.1719V39.8164H115.688C117 39.8164 118.025 39.5117 118.764 38.9023C119.514 38.293 119.889 37.4609 119.889 36.4062C119.889 35.3984 119.52 34.6074 118.781 34.0332C118.055 33.459 117.035 33.1719 115.723 33.1719H112.611ZM146.59 44H141.053V41.2578H140.965C139.594 43.3789 137.76 44.4395 135.463 44.4395C131.291 44.4395 129.205 41.9141 129.205 36.8633V26H134.742V36.3711C134.742 38.9141 135.75 40.1855 137.766 40.1855C138.762 40.1855 139.559 39.8398 140.156 39.1484C140.754 38.4453 141.053 37.4961 141.053 36.3008V26H146.59V44ZM154.096 23.1523C153.158 23.1523 152.391 22.877 151.793 22.3262C151.195 21.7637 150.896 21.0781 150.896 20.2695C150.896 19.4375 151.195 18.7578 151.793 18.2305C152.391 17.7031 153.158 17.4395 154.096 17.4395C155.045 17.4395 155.812 17.7031 156.398 18.2305C156.996 18.7578 157.295 19.4375 157.295 20.2695C157.295 21.1133 156.996 21.8047 156.398 22.3438C155.812 22.8828 155.045 23.1523 154.096 23.1523ZM156.838 44H151.283V26H156.838V44ZM167.068 44H161.514V17.3516H167.068V44ZM189.357 44H183.803V41.5215H183.732C182.467 43.4668 180.609 44.4395 178.16 44.4395C175.91 44.4395 174.1 43.6484 172.729 42.0664C171.357 40.4727 170.672 38.252 170.672 35.4043C170.672 32.4277 171.428 30.043 172.939 28.25C174.451 26.457 176.432 25.5605 178.881 25.5605C181.201 25.5605 182.818 26.3926 183.732 28.0566H183.803V17.3516H189.357V44ZM183.908 35.2461V33.8926C183.908 32.7207 183.568 31.748 182.889 30.9746C182.209 30.2012 181.324 29.8145 180.234 29.8145C179.004 29.8145 178.043 30.3008 177.352 31.2734C176.66 32.2344 176.314 33.5586 176.314 35.2461C176.314 36.8281 176.648 38.0469 177.316 38.9023C177.984 39.7578 178.91 40.1855 180.094 40.1855C181.219 40.1855 182.133 39.7344 182.836 38.832C183.551 37.9297 183.908 36.7344 183.908 35.2461ZM222.598 43.1035C220.758 43.9941 218.355 44.4395 215.391 44.4395C211.523 44.4395 208.482 43.3027 206.268 41.0293C204.053 38.7559 202.945 35.7266 202.945 31.9414C202.945 27.9102 204.188 24.6406 206.672 22.1328C209.168 19.625 212.402 18.3711 216.375 18.3711C218.836 18.3711 220.91 18.6816 222.598 19.3027V24.7695C220.91 23.7617 218.988 23.2578 216.832 23.2578C214.465 23.2578 212.555 24.002 211.102 25.4902C209.648 26.9785 208.922 28.9941 208.922 31.5371C208.922 33.9746 209.607 35.9199 210.979 37.373C212.35 38.8145 214.195 39.5352 216.516 39.5352C218.73 39.5352 220.758 38.9961 222.598 37.918V43.1035ZM243.551 44H238.014V41.2578H237.926C236.555 43.3789 234.721 44.4395 232.424 44.4395C228.252 44.4395 226.166 41.9141 226.166 36.8633V26H231.703V36.3711C231.703 38.9141 232.711 40.1855 234.727 40.1855C235.723 40.1855 236.52 39.8398 237.117 39.1484C237.715 38.4453 238.014 37.4961 238.014 36.3008V26H243.551V44ZM247.066 43.5254V39.0254C247.98 39.5762 248.889 39.9863 249.791 40.2559C250.705 40.5254 251.566 40.6602 252.375 40.6602C253.359 40.6602 254.133 40.5254 254.695 40.2559C255.27 39.9863 255.557 39.5762 255.557 39.0254C255.557 38.6738 255.428 38.3809 255.17 38.1465C254.912 37.9121 254.578 37.707 254.168 37.5312C253.77 37.3555 253.33 37.1973 252.85 37.0566C252.369 36.916 251.906 36.7578 251.461 36.582C250.746 36.3125 250.113 36.0254 249.562 35.7207C249.023 35.4043 248.566 35.041 248.191 34.6309C247.828 34.2207 247.547 33.7461 247.348 33.207C247.16 32.668 247.066 32.0293 247.066 31.291C247.066 30.2832 247.283 29.416 247.717 28.6895C248.162 27.9629 248.748 27.3711 249.475 26.9141C250.213 26.4453 251.051 26.1055 251.988 25.8945C252.938 25.6719 253.922 25.5605 254.941 25.5605C255.738 25.5605 256.547 25.625 257.367 25.7539C258.188 25.8711 258.996 26.0469 259.793 26.2812V30.5703C259.09 30.1602 258.334 29.8555 257.525 29.6562C256.729 29.4453 255.943 29.3398 255.17 29.3398C254.807 29.3398 254.461 29.375 254.133 29.4453C253.816 29.5039 253.535 29.5977 253.289 29.7266C253.043 29.8438 252.85 30.002 252.709 30.2012C252.568 30.3887 252.498 30.6055 252.498 30.8516C252.498 31.1797 252.604 31.4609 252.814 31.6953C253.025 31.9297 253.301 32.1348 253.641 32.3105C253.98 32.4746 254.355 32.627 254.766 32.7676C255.188 32.8965 255.604 33.0312 256.014 33.1719C256.752 33.4297 257.42 33.7109 258.018 34.0156C258.615 34.3203 259.125 34.6777 259.547 35.0879C259.98 35.498 260.309 35.9785 260.531 36.5293C260.766 37.0801 260.883 37.7363 260.883 38.498C260.883 39.5645 260.648 40.4785 260.18 41.2402C259.723 41.9902 259.107 42.6055 258.334 43.0859C257.572 43.5547 256.688 43.8945 255.68 44.1055C254.684 44.3281 253.646 44.4395 252.568 44.4395C250.588 44.4395 248.754 44.1348 247.066 43.5254ZM274.98 43.7891C274.16 44.2227 272.924 44.4395 271.271 44.4395C267.357 44.4395 265.4 42.4062 265.4 38.3398V30.0957H262.482V26H265.4V22.1152L270.938 20.5332V26H274.98V30.0957H270.938V37.373C270.938 39.248 271.682 40.1855 273.17 40.1855C273.756 40.1855 274.359 40.0156 274.98 39.6758V43.7891ZM286.564 44.4395C283.564 44.4395 281.203 43.6016 279.48 41.9258C277.77 40.2383 276.914 37.9531 276.914 35.0703C276.914 32.0938 277.805 29.7676 279.586 28.0918C281.367 26.4043 283.775 25.5605 286.811 25.5605C289.799 25.5605 292.143 26.4043 293.842 28.0918C295.541 29.7676 296.391 31.9883 296.391 34.7539C296.391 37.7422 295.512 40.1035 293.754 41.8379C292.008 43.5723 289.611 44.4395 286.564 44.4395ZM286.705 29.8145C285.393 29.8145 284.373 30.2656 283.646 31.168C282.92 32.0703 282.557 33.3477 282.557 35C282.557 38.457 283.951 40.1855 286.74 40.1855C289.4 40.1855 290.73 38.4102 290.73 34.8594C290.73 31.4961 289.389 29.8145 286.705 29.8145ZM328.576 44H323.039V33.7344C323.039 31.1211 322.078 29.8145 320.156 29.8145C319.242 29.8145 318.498 30.207 317.924 30.9922C317.35 31.7773 317.062 32.7559 317.062 33.9277V44H311.508V33.6289C311.508 31.0859 310.564 29.8145 308.678 29.8145C307.729 29.8145 306.967 30.1895 306.393 30.9395C305.83 31.6895 305.549 32.709 305.549 33.998V44H299.994V26H305.549V28.8125H305.619C306.193 27.8516 306.996 27.0723 308.027 26.4746C309.07 25.8652 310.207 25.5605 311.438 25.5605C313.98 25.5605 315.721 26.6797 316.658 28.918C318.029 26.6797 320.045 25.5605 322.705 25.5605C326.619 25.5605 328.576 27.9746 328.576 32.8027V44ZM361.535 43.1035C359.695 43.9941 357.293 44.4395 354.328 44.4395C350.461 44.4395 347.42 43.3027 345.205 41.0293C342.99 38.7559 341.883 35.7266 341.883 31.9414C341.883 27.9102 343.125 24.6406 345.609 22.1328C348.105 19.625 351.34 18.3711 355.312 18.3711C357.773 18.3711 359.848 18.6816 361.535 19.3027V24.7695C359.848 23.7617 357.926 23.2578 355.77 23.2578C353.402 23.2578 351.492 24.002 350.039 25.4902C348.586 26.9785 347.859 28.9941 347.859 31.5371C347.859 33.9746 348.545 35.9199 349.916 37.373C351.287 38.8145 353.133 39.5352 355.453 39.5352C357.668 39.5352 359.695 38.9961 361.535 37.918V43.1035ZM373.963 44.4395C370.963 44.4395 368.602 43.6016 366.879 41.9258C365.168 40.2383 364.312 37.9531 364.312 35.0703C364.312 32.0938 365.203 29.7676 366.984 28.0918C368.766 26.4043 371.174 25.5605 374.209 25.5605C377.197 25.5605 379.541 26.4043 381.24 28.0918C382.939 29.7676 383.789 31.9883 383.789 34.7539C383.789 37.7422 382.91 40.1035 381.152 41.8379C379.406 43.5723 377.01 44.4395 373.963 44.4395ZM374.104 29.8145C372.791 29.8145 371.771 30.2656 371.045 31.168C370.318 32.0703 369.955 33.3477 369.955 35C369.955 38.457 371.35 40.1855 374.139 40.1855C376.799 40.1855 378.129 38.4102 378.129 34.8594C378.129 31.4961 376.787 29.8145 374.104 29.8145ZM393.018 41.9082H392.947V52.2793H387.393V26H392.947V28.707H393.018C394.389 26.6094 396.316 25.5605 398.801 25.5605C401.133 25.5605 402.932 26.3633 404.197 27.9688C405.475 29.5625 406.113 31.7363 406.113 34.4902C406.113 37.4902 405.369 39.8984 403.881 41.7148C402.404 43.5312 400.436 44.4395 397.975 44.4395C395.807 44.4395 394.154 43.5957 393.018 41.9082ZM392.859 34.5254V35.9668C392.859 37.209 393.188 38.2227 393.844 39.0078C394.5 39.793 395.361 40.1855 396.428 40.1855C397.693 40.1855 398.672 39.6992 399.363 38.7266C400.066 37.7422 400.418 36.3535 400.418 34.5605C400.418 31.3965 399.188 29.8145 396.727 29.8145C395.59 29.8145 394.658 30.248 393.932 31.1152C393.217 31.9707 392.859 33.1074 392.859 34.5254ZM412.529 23.1523C411.592 23.1523 410.824 22.877 410.227 22.3262C409.629 21.7637 409.33 21.0781 409.33 20.2695C409.33 19.4375 409.629 18.7578 410.227 18.2305C410.824 17.7031 411.592 17.4395 412.529 17.4395C413.479 17.4395 414.246 17.7031 414.832 18.2305C415.43 18.7578 415.729 19.4375 415.729 20.2695C415.729 21.1133 415.43 21.8047 414.832 22.3438C414.246 22.8828 413.479 23.1523 412.529 23.1523ZM415.271 44H409.717V26H415.271V44ZM425.502 44H419.947V17.3516H425.502V44ZM438.756 44.4395C435.756 44.4395 433.395 43.6016 431.672 41.9258C429.961 40.2383 429.105 37.9531 429.105 35.0703C429.105 32.0938 429.996 29.7676 431.777 28.0918C433.559 26.4043 435.967 25.5605 439.002 25.5605C441.99 25.5605 444.334 26.4043 446.033 28.0918C447.732 29.7676 448.582 31.9883 448.582 34.7539C448.582 37.7422 447.703 40.1035 445.945 41.8379C444.199 43.5723 441.803 44.4395 438.756 44.4395ZM438.896 29.8145C437.584 29.8145 436.564 30.2656 435.838 31.168C435.111 32.0703 434.748 33.3477 434.748 35C434.748 38.457 436.143 40.1855 438.932 40.1855C441.592 40.1855 442.922 38.4102 442.922 34.8594C442.922 31.4961 441.58 29.8145 438.896 29.8145ZM463.066 43.7891C462.246 44.2227 461.01 44.4395 459.357 44.4395C455.443 44.4395 453.486 42.4062 453.486 38.3398V30.0957H450.568V26H453.486V22.1152L459.023 20.5332V26H463.066V30.0957H459.023V37.373C459.023 39.248 459.768 40.1855 461.256 40.1855C461.842 40.1855 462.445 40.0156 463.066 39.6758V43.7891ZM509.684 18.793L503.021 44H496.729L492.545 27.8281C492.322 26.9844 492.188 26.041 492.141 24.998H492.07C491.965 26.1465 491.812 27.0898 491.613 27.8281L487.324 44H480.768L474.141 18.793H480.346L483.896 35.5801C484.049 36.2949 484.16 37.2559 484.23 38.4629H484.336C484.383 37.5605 484.553 36.5762 484.846 35.5098L489.416 18.793H495.498L499.629 35.7207C499.781 36.3418 499.916 37.2441 500.033 38.4277H500.104C500.15 37.502 500.273 36.5645 500.473 35.6152L503.953 18.793H509.684ZM515.15 23.1523C514.213 23.1523 513.445 22.877 512.848 22.3262C512.25 21.7637 511.951 21.0781 511.951 20.2695C511.951 19.4375 512.25 18.7578 512.848 18.2305C513.445 17.7031 514.213 17.4395 515.15 17.4395C516.1 17.4395 516.867 17.7031 517.453 18.2305C518.051 18.7578 518.35 19.4375 518.35 20.2695C518.35 21.1133 518.051 21.8047 517.453 22.3438C516.867 22.8828 516.1 23.1523 515.15 23.1523ZM517.893 44H512.338V26H517.893V44ZM533.449 43.7891C532.629 44.2227 531.393 44.4395 529.74 44.4395C525.826 44.4395 523.869 42.4062 523.869 38.3398V30.0957H520.951V26H523.869V22.1152L529.406 20.5332V26H533.449V30.0957H529.406V37.373C529.406 39.248 530.15 40.1855 531.639 40.1855C532.225 40.1855 532.828 40.0156 533.449 39.6758V43.7891ZM553.875 44H548.338V33.7695C548.338 31.1328 547.377 29.8145 545.455 29.8145C544.471 29.8145 543.674 30.1836 543.064 30.9219C542.455 31.6602 542.15 32.5977 542.15 33.7344V44H536.596V17.3516H542.15V28.6719H542.221C543.58 26.5977 545.426 25.5605 547.758 25.5605C551.836 25.5605 553.875 28.0215 553.875 32.9434V44Z" fill="var(--vscode-icon-foreground, #3B3B3B)"/>
<rect width="48" height="48" transform="translate(44 7)" fill="var(--vscode-editor-background, white)"/>
<path d="M80.7283 27.5668C80.8203 27.6319 80.9084 27.7017 80.9922 27.7759C80.9974 27.6876 81 27.5987 81 27.5092V18.5C81 16.0147 78.9853 14 76.5 14L69.4991 13.999L69.5007 12.501L69.487 12.2974C69.3876 11.5653 68.76 11.001 68.0007 11.001L67.7971 11.0147C67.065 11.114 66.5007 11.7416 66.5007 12.501L66.4991 13.999L59.5 14C57.0147 14 55 16.0147 55 18.5V27.5092C55 29.9945 57.0147 32.0092 59.5 32.0092H75.0684C75.0814 31.9746 75.094 31.9398 75.106 31.9048L75.1238 31.852L76.0242 29.0835L76.0325 29.06C76.2453 28.4573 76.6398 27.9356 77.1615 27.5668C77.6831 27.198 78.3062 27 78.9449 27C79.5836 27 80.2067 27.198 80.7283 27.5668ZM63.4986 20C64.8785 20 65.9972 21.1186 65.9972 22.4986C65.9972 23.8785 64.8785 24.9971 63.4986 24.9971C62.1186 24.9971 61 23.8785 61 22.4986C61 21.1186 62.1186 20 63.4986 20ZM72.484 20C73.864 20 74.9826 21.1186 74.9826 22.4986C74.9826 23.8785 73.864 24.9971 72.484 24.9971C71.1041 24.9971 69.9855 23.8785 69.9855 22.4986C69.9855 21.1186 71.1041 20 72.484 20ZM70.0849 35.0729L70.31 34.9998H56.5071C54.0218 34.9998 52.0071 37.0146 52.0071 39.4998V41.3145C52.0071 43.5 52.9604 45.5768 54.6176 47.0016C57.7434 49.6889 62.221 51.0021 68 51.0021C72.1519 51.0021 75.6334 50.3243 78.4257 48.9462C77.9928 48.8642 77.5801 48.6902 77.2166 48.4332C76.695 48.0644 76.3004 47.5427 76.0876 46.94L76.0793 46.9165L75.1784 44.1466L75.1774 44.1434C75.0464 43.7472 74.8491 43.3772 74.5949 43.0487C74.5013 42.9277 74.3999 42.8123 74.2914 42.7034L73.5737 42.18L72.8561 41.8133L70.0849 40.9133L70.0614 40.905C69.459 40.6927 68.9371 40.2987 68.5678 39.7772C68.1985 39.2557 68 38.6324 68 37.9931C68 37.3539 68.1985 36.7305 68.5678 36.209C68.9371 35.6875 69.459 35.2936 70.0614 35.0812L70.0849 35.0729ZM75.7077 41.2914C75.8754 41.4596 76.032 41.6377 76.1766 41.8246C76.5703 42.3333 76.8756 42.9066 77.078 43.5207L77.9735 46.2742C78.0485 46.4864 78.1874 46.6702 78.3713 46.8002C78.5551 46.9302 78.7748 47 79 47C79.2252 47 79.4449 46.9302 79.6287 46.8002C79.7927 46.6842 79.921 46.5255 80 46.3419C80.0095 46.3197 80.0184 46.2971 80.0265 46.2742L80.922 43.5207C81.2005 42.6836 81.6706 41.9229 82.2948 41.2992C82.9191 40.6754 83.6803 40.2057 84.5181 39.9274L87.2737 39.0326C87.486 38.9577 87.67 38.8188 87.8 38.6351C87.9301 38.4514 88 38.2319 88 38.0069C88 37.7818 87.9301 37.5623 87.8 37.3786C87.67 37.1949 87.486 37.0561 87.2737 36.9812L87.2185 36.9674L84.463 36.0726C83.6252 35.7943 82.864 35.3246 82.2397 34.7008C81.6154 34.0771 81.1454 33.3164 80.8669 32.4793L79.9713 29.7258C79.8964 29.5136 79.7575 29.3298 79.5736 29.1998C79.3898 29.0698 79.1701 29 78.9449 29C78.7197 29 78.5 29.0698 78.3162 29.1998C78.1323 29.3298 77.9934 29.5136 77.9184 29.7258L77.0229 32.4793L77 32.5474C76.7245 33.3519 76.2714 34.0845 75.674 34.6907C75.0597 35.3141 74.3095 35.787 73.4819 36.0726L70.7263 36.9674C70.514 37.0423 70.33 37.1812 70.2 37.3649C70.0699 37.5486 70 37.7681 70 37.9931C70 38.2182 70.0699 38.4377 70.2 38.6214C70.33 38.8051 70.514 38.9439 70.7263 39.0188L73.4819 39.9137C74.3212 40.1933 75.0834 40.6651 75.7077 41.2914ZM90.035 48.9292L91.5659 49.4264L91.5965 49.434C91.7145 49.4756 91.8166 49.5527 91.8889 49.6548C91.9612 49.7569 92 49.8788 92 50.0038C92 50.1288 91.9612 50.2508 91.8889 50.3529C91.8166 50.4549 91.7145 50.5321 91.5965 50.5736L90.0656 51.0708C89.6002 51.2254 89.1773 51.4863 88.8304 51.8329C88.4836 52.1794 88.2225 52.602 88.0678 53.0671L87.5703 54.5968C87.5286 54.7147 87.4514 54.8168 87.3493 54.889C87.2472 54.9612 87.1251 55 87 55C86.8749 55 86.7528 54.9612 86.6507 54.889C86.5486 54.8168 86.4714 54.7147 86.4297 54.5968L85.9322 53.0671C85.7785 52.6006 85.5178 52.1765 85.171 51.8285C84.8241 51.4806 84.4007 51.2185 83.9344 51.0631L82.4035 50.566C82.2855 50.5244 82.1834 50.4473 82.1111 50.3452C82.0388 50.2431 82 50.1212 82 49.9962C82 49.8712 82.0388 49.7492 82.1111 49.6472C82.1834 49.5451 82.2855 49.468 82.4035 49.4264L83.9344 48.9292C84.3942 48.7706 84.811 48.5078 85.1522 48.1615C85.4935 47.8152 85.75 47.3947 85.9016 46.9329L86.3991 45.4032C86.4408 45.2853 86.518 45.1832 86.6201 45.111C86.7222 45.0388 86.8443 45 86.9694 45C87.0945 45 87.2165 45.0388 87.3187 45.111C87.4208 45.1832 87.498 45.2853 87.5396 45.4032L88.0372 46.9329C88.1919 47.398 88.453 47.8206 88.7998 48.1671C89.1466 48.5137 89.5696 48.7746 90.035 48.9292Z" fill="var(--vscode-icon-foreground, #3B3B3B)"/>
</svg>