<svg width="379" height="264" viewBox="0 0 379 264" fill="none" xmlns="http://www.w3.org/2000/svg">
<g filter="url(#filter0_d_88_5050)">
<rect x="4" width="371" height="256" rx="4" fill="white" shape-rendering="crispEdges"/>
<path d="M4 4C4 1.79086 5.79086 0 8 0H371C373.209 0 375 1.79086 375 4V30H4V4Z" fill="#F8F8F8"/>
<path d="M4 29H42V256H8C5.79086 256 4 254.209 4 252V29Z" fill="#F8F8F8"/>
<circle cx="15.5" cy="195.5" r="2.5" fill="#616161"/>
<circle cx="23.5" cy="195.5" r="2.5" fill="#616161"/>
<circle cx="31.5" cy="195.5" r="2.5" fill="#616161"/>
<rect x="11" y="42" width="24" height="24" rx="4" fill="#616161"/>
<rect x="11" y="116" width="24" height="24" rx="4" fill="#616161"/>
<rect x="11" y="153" width="24" height="24" rx="4" fill="#616161"/>
<rect x="5" y="78" width="1.84897" height="27.7744" rx="0.924486" fill="#005FB8"/>
<rect x="11" y="79" width="24" height="24" rx="4" fill="#005FB8"/>
<path d="M41 30H122V252C122 254.209 120.209 256 118 256H41V30Z" fill="#E5E5E5"/>
<path d="M41 30H97V73.8307C97 76.0398 95.2091 77.8307 93 77.8307H41V30Z" fill="#E5E5E5"/>
<path d="M26.0908 22H24.0166V13.8438C24.0166 13.1758 24.0576 12.3584 24.1396 11.3916H24.1045C23.9756 11.9424 23.8613 12.3379 23.7617 12.5781L20 22H18.5586L14.7881 12.6484C14.6826 12.373 14.5713 11.9541 14.4541 11.3916H14.4189C14.4658 11.8955 14.4893 12.7188 14.4893 13.8613V22H12.5557V9.39648H15.5L18.8135 17.79C19.0654 18.4346 19.2295 18.915 19.3057 19.2314H19.3496C19.5664 18.5693 19.7422 18.0771 19.877 17.7549L23.252 9.39648H26.0908V22ZM30.002 11.1104C29.668 11.1104 29.3809 11.002 29.1406 10.7852C28.9062 10.5684 28.7891 10.293 28.7891 9.95898C28.7891 9.625 28.9062 9.34668 29.1406 9.12402C29.3809 8.90137 29.668 8.79004 30.002 8.79004C30.3477 8.79004 30.6406 8.90137 30.8809 9.12402C31.1211 9.34668 31.2412 9.625 31.2412 9.95898C31.2412 10.2754 31.1211 10.5479 30.8809 10.7764C30.6406 10.999 30.3477 11.1104 30.002 11.1104ZM31.0127 22H28.9736V13H31.0127V22ZM40.127 21.5869C39.4062 22.0029 38.5537 22.2109 37.5693 22.2109C36.2334 22.2109 35.1553 21.7949 34.335 20.9629C33.5146 20.125 33.1045 19.041 33.1045 17.7109C33.1045 16.2285 33.5439 15.0391 34.4229 14.1426C35.3076 13.2402 36.4883 12.7891 37.9648 12.7891C38.7852 12.7891 39.5088 12.9326 40.1357 13.2197V15.1182C39.5088 14.6494 38.8408 14.415 38.1318 14.415C37.2705 14.415 36.5645 14.708 36.0137 15.2939C35.4629 15.874 35.1875 16.6357 35.1875 17.5791C35.1875 18.5107 35.4453 19.2461 35.9609 19.7852C36.4824 20.3242 37.1797 20.5938 38.0527 20.5938C38.7852 20.5938 39.4766 20.333 40.127 19.8115V21.5869ZM47.3779 14.9424C47.1318 14.749 46.7773 14.6523 46.3145 14.6523C45.7109 14.6523 45.207 14.9248 44.8027 15.4697C44.3984 16.0146 44.1963 16.7559 44.1963 17.6934V22H42.1572V13H44.1963V14.8545H44.2314C44.4307 14.2217 44.7354 13.7295 45.1455 13.3779C45.5615 13.0205 46.0244 12.8418 46.5342 12.8418C46.9033 12.8418 47.1846 12.8975 47.3779 13.0088V14.9424ZM52.6514 22.2109C51.2627 22.2109 50.1523 21.792 49.3203 20.9541C48.4941 20.1104 48.0811 18.9941 48.0811 17.6055C48.0811 16.0938 48.5117 14.9131 49.373 14.0635C50.2402 13.2139 51.4062 12.7891 52.8711 12.7891C54.2773 12.7891 55.373 13.2021 56.1582 14.0283C56.9434 14.8545 57.3359 16 57.3359 17.4648C57.3359 18.9004 56.9111 20.0518 56.0615 20.9189C55.2178 21.7803 54.0811 22.2109 52.6514 22.2109ZM52.748 14.415C51.9512 14.415 51.3213 14.6934 50.8584 15.25C50.3955 15.8066 50.1641 16.5742 50.1641 17.5527C50.1641 18.4961 50.3984 19.2402 50.8672 19.7852C51.3359 20.3242 51.9629 20.5938 52.748 20.5938C53.5508 20.5938 54.166 20.3271 54.5938 19.7939C55.0273 19.2607 55.2441 18.502 55.2441 17.5176C55.2441 16.5273 55.0273 15.7627 54.5938 15.2236C54.166 14.6846 53.5508 14.415 52.748 14.415ZM58.8564 21.7188V19.8291C59.6182 20.4092 60.459 20.6992 61.3789 20.6992C62.6094 20.6992 63.2246 20.3359 63.2246 19.6094C63.2246 19.4043 63.1719 19.2314 63.0664 19.0908C62.9609 18.9443 62.8174 18.8154 62.6357 18.7041C62.46 18.5928 62.249 18.4932 62.0029 18.4053C61.7627 18.3174 61.4932 18.2178 61.1943 18.1064C60.8252 17.96 60.4912 17.8047 60.1924 17.6406C59.8994 17.4766 59.6533 17.292 59.4541 17.0869C59.2607 16.876 59.1143 16.6387 59.0146 16.375C58.915 16.1113 58.8652 15.8037 58.8652 15.4521C58.8652 15.0186 58.9678 14.6377 59.1729 14.3096C59.3779 13.9756 59.6533 13.6973 59.999 13.4746C60.3447 13.2461 60.7373 13.0762 61.1768 12.9648C61.6162 12.8477 62.0703 12.7891 62.5391 12.7891C63.3711 12.7891 64.1152 12.915 64.7715 13.167V14.9512C64.1387 14.5176 63.4121 14.3008 62.5918 14.3008C62.334 14.3008 62.0996 14.3271 61.8887 14.3799C61.6836 14.4326 61.5078 14.5059 61.3613 14.5996C61.2148 14.6934 61.1006 14.8076 61.0186 14.9424C60.9365 15.0713 60.8955 15.2148 60.8955 15.373C60.8955 15.5664 60.9365 15.7305 61.0186 15.8652C61.1006 16 61.2207 16.1201 61.3789 16.2256C61.543 16.3252 61.7363 16.4189 61.959 16.5068C62.1875 16.5889 62.4482 16.6797 62.7412 16.7793C63.1279 16.9375 63.4736 17.0986 63.7783 17.2627C64.0889 17.4268 64.3525 17.6143 64.5693 17.8252C64.7861 18.0303 64.9531 18.2705 65.0703 18.5459C65.1875 18.8154 65.2461 19.1377 65.2461 19.5127C65.2461 19.9697 65.1406 20.3682 64.9297 20.708C64.7188 21.0479 64.4375 21.3291 64.0859 21.5518C63.7344 21.7744 63.3271 21.9385 62.8643 22.0439C62.4072 22.1553 61.9238 22.2109 61.4141 22.2109C60.4297 22.2109 59.5771 22.0469 58.8564 21.7188ZM71.1787 22.2109C69.79 22.2109 68.6797 21.792 67.8477 20.9541C67.0215 20.1104 66.6084 18.9941 66.6084 17.6055C66.6084 16.0938 67.0391 14.9131 67.9004 14.0635C68.7676 13.2139 69.9336 12.7891 71.3984 12.7891C72.8047 12.7891 73.9004 13.2021 74.6855 14.0283C75.4707 14.8545 75.8633 16 75.8633 17.4648C75.8633 18.9004 75.4385 20.0518 74.5889 20.9189C73.7451 21.7803 72.6084 22.2109 71.1787 22.2109ZM71.2754 14.415C70.4785 14.415 69.8486 14.6934 69.3857 15.25C68.9229 15.8066 68.6914 16.5742 68.6914 17.5527C68.6914 18.4961 68.9258 19.2402 69.3945 19.7852C69.8633 20.3242 70.4902 20.5938 71.2754 20.5938C72.0781 20.5938 72.6934 20.3271 73.1211 19.7939C73.5547 19.2607 73.7715 18.502 73.7715 17.5176C73.7715 16.5273 73.5547 15.7627 73.1211 15.2236C72.6934 14.6846 72.0781 14.415 71.2754 14.415ZM82.7363 10.3369C82.4609 10.1787 82.1475 10.0996 81.7959 10.0996C80.8057 10.0996 80.3105 10.6592 80.3105 11.7783V13H82.4023V14.5996H80.3193V22H78.2803V14.5996H76.7422V13H78.2803V11.541C78.2803 10.5918 78.5908 9.84473 79.2119 9.2998C79.833 8.74902 80.6094 8.47363 81.541 8.47363C82.0449 8.47363 82.4434 8.5293 82.7363 8.64062V10.3369ZM88.9326 21.9033C88.5342 22.1025 88.0098 22.2021 87.3594 22.2021C85.6133 22.2021 84.7402 21.3643 84.7402 19.6885V14.5996H83.2373V13H84.7402V10.917L86.7793 10.3369V13H88.9326V14.5996H86.7793V19.0996C86.7793 19.6328 86.876 20.0137 87.0693 20.2422C87.2627 20.4707 87.585 20.585 88.0361 20.585C88.3818 20.585 88.6807 20.4854 88.9326 20.2861V21.9033ZM103.962 11.1719H100.341V22H98.249V11.1719H94.6367V9.39648H103.962V11.1719ZM111.441 18.0537H105.307C105.33 18.8857 105.585 19.5273 106.071 19.9785C106.563 20.4297 107.237 20.6553 108.093 20.6553C109.054 20.6553 109.936 20.3682 110.738 19.7939V21.4375C109.918 21.9531 108.834 22.2109 107.486 22.2109C106.162 22.2109 105.122 21.8037 104.366 20.9893C103.616 20.1689 103.241 19.0176 103.241 17.5352C103.241 16.1348 103.654 14.9951 104.48 14.1162C105.312 13.2314 106.344 12.7891 107.574 12.7891C108.805 12.7891 109.757 13.1846 110.431 13.9756C111.104 14.7666 111.441 15.8652 111.441 17.2715V18.0537ZM109.473 16.6123C109.467 15.8799 109.294 15.3115 108.954 14.9072C108.614 14.4971 108.146 14.292 107.548 14.292C106.962 14.292 106.464 14.5059 106.054 14.9336C105.649 15.3613 105.4 15.9209 105.307 16.6123H109.473ZM120.292 22H118.314V20.5938H118.279C117.658 21.6719 116.747 22.2109 115.546 22.2109C114.661 22.2109 113.967 21.9707 113.463 21.4902C112.965 21.0098 112.716 20.374 112.716 19.583C112.716 17.8838 113.694 16.8936 115.651 16.6123L118.323 16.2344C118.323 14.9512 117.714 14.3096 116.495 14.3096C115.423 14.3096 114.456 14.6787 113.595 15.417V13.6328C114.544 13.0703 115.64 12.7891 116.882 12.7891C119.155 12.7891 120.292 13.9082 120.292 16.1465V22ZM118.323 17.5791L116.434 17.8428C115.848 17.9189 115.405 18.0625 115.106 18.2734C114.813 18.4785 114.667 18.8418 114.667 19.3633C114.667 19.7441 114.802 20.0576 115.071 20.3037C115.347 20.5439 115.713 20.6641 116.17 20.6641C116.791 20.6641 117.304 20.4473 117.708 20.0137C118.118 19.5742 118.323 19.0234 118.323 18.3613V17.5791ZM136.244 22H134.205V17.0957C134.205 16.1523 134.07 15.4697 133.801 15.0479C133.537 14.626 133.089 14.415 132.456 14.415C131.923 14.415 131.469 14.6816 131.094 15.2148C130.725 15.748 130.54 16.3867 130.54 17.1309V22H128.492V16.9287C128.492 15.2529 127.9 14.415 126.717 14.415C126.166 14.415 125.712 14.667 125.354 15.1709C125.003 15.6748 124.827 16.3281 124.827 17.1309V22H122.788V13H124.827V14.4238H124.862C125.513 13.334 126.459 12.7891 127.701 12.7891C128.322 12.7891 128.864 12.9619 129.327 13.3076C129.796 13.6475 130.115 14.0957 130.285 14.6523C130.953 13.4102 131.949 12.7891 133.273 12.7891C135.254 12.7891 136.244 14.0107 136.244 16.4541V22ZM138.169 21.7188V19.8291C138.931 20.4092 139.771 20.6992 140.691 20.6992C141.922 20.6992 142.537 20.3359 142.537 19.6094C142.537 19.4043 142.484 19.2314 142.379 19.0908C142.273 18.9443 142.13 18.8154 141.948 18.7041C141.772 18.5928 141.562 18.4932 141.315 18.4053C141.075 18.3174 140.806 18.2178 140.507 18.1064C140.138 17.96 139.804 17.8047 139.505 17.6406C139.212 17.4766 138.966 17.292 138.767 17.0869C138.573 16.876 138.427 16.6387 138.327 16.375C138.228 16.1113 138.178 15.8037 138.178 15.4521C138.178 15.0186 138.28 14.6377 138.485 14.3096C138.69 13.9756 138.966 13.6973 139.312 13.4746C139.657 13.2461 140.05 13.0762 140.489 12.9648C140.929 12.8477 141.383 12.7891 141.852 12.7891C142.684 12.7891 143.428 12.915 144.084 13.167V14.9512C143.451 14.5176 142.725 14.3008 141.904 14.3008C141.646 14.3008 141.412 14.3271 141.201 14.3799C140.996 14.4326 140.82 14.5059 140.674 14.5996C140.527 14.6934 140.413 14.8076 140.331 14.9424C140.249 15.0713 140.208 15.2148 140.208 15.373C140.208 15.5664 140.249 15.7305 140.331 15.8652C140.413 16 140.533 16.1201 140.691 16.2256C140.855 16.3252 141.049 16.4189 141.271 16.5068C141.5 16.5889 141.761 16.6797 142.054 16.7793C142.44 16.9375 142.786 17.0986 143.091 17.2627C143.401 17.4268 143.665 17.6143 143.882 17.8252C144.099 18.0303 144.266 18.2705 144.383 18.5459C144.5 18.8154 144.559 19.1377 144.559 19.5127C144.559 19.9697 144.453 20.3682 144.242 20.708C144.031 21.0479 143.75 21.3291 143.398 21.5518C143.047 21.7744 142.64 21.9385 142.177 22.0439C141.72 22.1553 141.236 22.2109 140.727 22.2109C139.742 22.2109 138.89 22.0469 138.169 21.7188Z" fill="#868686"/>
<line x1="4" y1="29.5" x2="375" y2="29.5" stroke="#E5E5E5"/>
<rect x="51" y="95" width="55" height="8" rx="4" fill="#CCCCCC"/>
<rect x="51" y="75" width="44.5238" height="8" rx="4" fill="#CCCCCC"/>
<rect x="51" y="55" width="55" height="8" rx="4" fill="#CCCCCC"/>
<rect x="138" y="115" width="80" height="8" rx="4" fill="#E5E5E5"/>
<rect x="138" y="94" width="90" height="8" rx="4" fill="#E5E5E5"/>
<rect x="138" y="74" width="80" height="8" rx="4" fill="#E5E5E5"/>
<rect x="138" y="54" width="100" height="8" rx="4" fill="#E5E5E5"/>
<path d="M260 30H375V252C375 254.209 373.209 256 371 256H260V30Z" fill="#D2ECFF"/>
<rect x="269.02" y="228" width="96.9608" height="16" rx="8" fill="#E5E5E5"/>
<path d="M279.351 68.699C279.894 68.7135 280.259 68.8121 280.517 68.932C280.793 69.0607 281.022 69.25 281.232 69.5238C281.683 70.1138 281.938 70.927 282.286 72.0373L282.331 72.1829C282.666 73.2508 283.103 74.6031 284.068 75.6596C285.121 76.8138 286.676 77.4983 288.9 77.4983H302.406C305.266 77.4983 307.371 75.8436 308.887 73.8391C310.412 71.8216 311.544 69.1966 312.423 66.6804L312.424 66.6767C313.43 63.7952 314.702 60.1484 314.655 57.2056C314.631 55.7151 314.271 54.2026 313.152 53.0553C311.996 51.8699 310.257 51.301 308.042 51.301H307.688C307.146 51.2865 306.78 51.1879 306.523 51.0679C306.247 50.9393 306.017 50.75 305.808 50.4762C305.357 49.8862 305.102 49.073 304.754 47.9627L304.708 47.817C304.373 46.7492 303.936 45.3968 302.972 44.3403C301.918 43.1862 300.363 42.5016 298.139 42.5016H284.634C281.774 42.5016 279.668 44.1564 278.153 46.1608C276.627 48.1784 275.495 50.8034 274.617 53.3196L274.616 53.3232C273.61 56.2048 272.337 59.8515 272.384 62.7944C272.408 64.2848 272.769 65.7973 273.888 66.9447C275.044 68.13 276.783 68.699 278.998 68.699H279.351ZM277.309 54.0589C278.165 51.6062 279.201 49.2624 280.493 47.5534C281.796 45.8312 283.159 45.0016 284.634 45.0016H293.636C293.248 45.6094 292.924 46.2878 292.633 46.9899C292.251 47.912 291.897 48.9507 291.532 50.0193L291.451 50.2568C290.012 54.4679 288.214 59.8861 287.047 63.4222C286.516 65.0302 284.882 66.1459 283.005 66.1971H279.211C279.185 66.1971 279.16 66.1978 279.134 66.199H278.998C277.324 66.199 276.482 65.7838 276.019 65.309C275.519 64.7962 275.222 63.9725 275.203 62.7589C275.163 60.2948 276.261 57.0635 277.309 54.0589ZM306.546 72.4466C305.244 74.1687 303.881 74.9983 302.406 74.9983H293.404C293.791 74.3906 294.115 73.7121 294.406 73.01C294.788 72.088 295.143 71.0493 295.507 69.9806L295.588 69.7431C297.027 65.532 298.825 60.1138 299.992 56.5777C300.523 54.9697 302.158 53.854 304.035 53.8028H307.828C307.854 53.8028 307.88 53.8022 307.905 53.801H308.042C309.715 53.801 310.557 54.2162 311.02 54.6909C311.52 55.2037 311.817 56.0274 311.837 57.2411C311.876 59.7052 310.779 62.9365 309.73 65.9411C308.874 68.3937 307.838 70.7375 306.546 72.4466ZM290.606 66.1971H288.571C289.094 65.5893 289.499 64.8909 289.752 64.1247C290.262 62.58 290.892 60.6777 291.559 58.6749L292.269 56.5577C292.817 54.9233 294.511 53.8028 296.434 53.8028H298.468C297.945 54.4106 297.54 55.1091 297.287 55.8753C296.777 57.4199 296.148 59.3222 295.481 61.325L294.77 63.4423C294.222 65.0766 292.528 66.1971 290.606 66.1971ZM296.434 51.3028C295.549 51.3028 294.693 51.447 293.899 51.7134C293.983 51.466 294.066 51.222 294.148 50.9819L294.222 50.7662C294.595 49.6741 294.927 48.7029 295.279 47.8523C295.656 46.9414 296.024 46.2551 296.42 45.7699C296.769 45.3428 297.322 45.0016 298.139 45.0016C299.623 45.0016 300.328 45.4172 300.781 45.9133C301.323 46.507 301.637 47.355 301.993 48.4874C302.02 48.5733 302.047 48.6615 302.075 48.7517C302.319 49.5382 302.609 50.4735 303.091 51.3028H296.434ZM290.606 68.6971C291.491 68.6971 292.347 68.553 293.14 68.2865C293.056 68.5339 292.973 68.778 292.891 69.0181L292.817 69.2338C292.444 70.3259 292.113 71.2971 291.76 72.1477C291.383 73.0586 291.015 73.7449 290.619 74.2301C290.27 74.6571 289.717 74.9983 288.9 74.9983C287.417 74.9983 286.711 74.5827 286.258 74.0867C285.717 73.4929 285.402 72.645 285.047 71.5125C285.02 71.4267 284.992 71.3384 284.964 71.2483C284.721 70.4617 284.431 69.5264 283.948 68.6971H290.606Z" fill="#3B3B3B"/>
<rect x="269.02" y="150" width="96.9608" height="67" rx="8" fill="#E5E5E5"/>
<rect x="269.02" y="93" width="96.9608" height="47" rx="8" fill="#E5E5E5"/>
</g>
<defs>
<filter id="filter0_d_88_5050" x="0" y="0" width="379" height="264" filterUnits="userSpaceOnUse" color-interpolation-filters="sRGB">
<feFlood flood-opacity="0" result="BackgroundImageFix"/>
<feColorMatrix in="SourceAlpha" type="matrix" values="0 0 0 0 0 0 0 0 0 0 0 0 0 0 0 0 0 0 127 0" result="hardAlpha"/>
<feOffset dy="4"/>
<feGaussianBlur stdDeviation="2"/>
<feComposite in2="hardAlpha" operator="out"/>
<feColorMatrix type="matrix" values="0 0 0 0 0 0 0 0 0 0 0 0 0 0 0 0 0 0 0.5 0"/>
<feBlend mode="normal" in2="BackgroundImageFix" result="effect1_dropShadow_88_5050"/>
<feBlend mode="normal" in="SourceGraphic" in2="effect1_dropShadow_88_5050" result="shape"/>
</filter>
</defs>
</svg>
