<svg width="379" height="634" viewBox="0 0 379 634" fill="none" xmlns="http://www.w3.org/2000/svg">
<g filter="url(#filter0_d_451_27140)">
<rect x="4" width="371" height="256" rx="4" fill="var(--vscode-editor-background, white)" shape-rendering="crispEdges"/>
<path d="M4 4C4 1.79086 5.79086 0 8 0H371C373.209 0 375 1.79086 375 4V30H4V4Z" fill="var(--vscode-editorGroupHeader-tabsBackground, #F8F8F8)"/>
<path d="M4 4C4 1.79086 5.79086 0 8 0H71C73.2091 0 75 1.79086 75 4V30H4V4Z" fill="var(--vscode-editorGroupHeader-tabsBackground, #F8F8F8)"/>
<path d="M4 29H42V256H8C5.79086 256 4 254.209 4 252V29Z" fill="var(--vscode-editorGroupHeader-tabsBackground, #F8F8F8)"/>
<circle cx="15.5" cy="195.5" r="2.5" fill="var(--vscode-badge-background, #616161)"/>
<circle cx="23.5" cy="195.5" r="2.5" fill="var(--vscode-badge-background, #616161)"/>
<circle cx="31.5" cy="195.5" r="2.5" fill="var(--vscode-badge-background, #616161)"/>
<rect x="11" y="42" width="24" height="24" rx="4" fill="var(--vscode-badge-background, #616161)"/>
<rect x="11" y="116" width="24" height="24" rx="4" fill="var(--vscode-badge-background, #616161)"/>
<rect x="11" y="153" width="24" height="24" rx="4" fill="var(--vscode-badge-background, #616161)"/>
<rect x="5" y="78" width="1.84897" height="27.7744" rx="0.924486" fill="var(--vscode-panelTitle-activeBorder, #005FB8)"/>
<rect x="11" y="79" width="24" height="24" rx="4" fill="var(--vscode-panelTitle-activeBorder, #005FB8)"/>
<path d="M41 30H122V252C122 254.209 120.209 256 118 256H41V30Z" fill="var(--vscode-activityBar-border, #E5E5E5)"/>
<path d="M41 30H97V73.8307C97 76.0398 95.2091 77.8307 93 77.8307H41V30Z" fill="var(--vscode-activityBar-border, #E5E5E5)"/>
<path d="M26.0908 22H24.0166V13.8438C24.0166 13.1758 24.0576 12.3584 24.1396 11.3916H24.1045C23.9756 11.9424 23.8613 12.3379 23.7617 12.5781L20 22H18.5586L14.7881 12.6484C14.6826 12.373 14.5713 11.9541 14.4541 11.3916H14.4189C14.4658 11.8955 14.4893 12.7188 14.4893 13.8613V22H12.5557V9.39648H15.5L18.8135 17.79C19.0654 18.4346 19.2295 18.915 19.3057 19.2314H19.3496C19.5664 18.5693 19.7422 18.0771 19.877 17.7549L23.252 9.39648H26.0908V22ZM30.002 11.1104C29.668 11.1104 29.3809 11.002 29.1406 10.7852C28.9062 10.5684 28.7891 10.293 28.7891 9.95898C28.7891 9.625 28.9062 9.34668 29.1406 9.12402C29.3809 8.90137 29.668 8.79004 30.002 8.79004C30.3477 8.79004 30.6406 8.90137 30.8809 9.12402C31.1211 9.34668 31.2412 9.625 31.2412 9.95898C31.2412 10.2754 31.1211 10.5479 30.8809 10.7764C30.6406 10.999 30.3477 11.1104 30.002 11.1104ZM31.0127 22H28.9736V13H31.0127V22ZM40.127 21.5869C39.4062 22.0029 38.5537 22.2109 37.5693 22.2109C36.2334 22.2109 35.1553 21.7949 34.335 20.9629C33.5146 20.125 33.1045 19.041 33.1045 17.7109C33.1045 16.2285 33.5439 15.0391 34.4229 14.1426C35.3076 13.2402 36.4883 12.7891 37.9648 12.7891C38.7852 12.7891 39.5088 12.9326 40.1357 13.2197V15.1182C39.5088 14.6494 38.8408 14.415 38.1318 14.415C37.2705 14.415 36.5645 14.708 36.0137 15.2939C35.4629 15.874 35.1875 16.6357 35.1875 17.5791C35.1875 18.5107 35.4453 19.2461 35.9609 19.7852C36.4824 20.3242 37.1797 20.5938 38.0527 20.5938C38.7852 20.5938 39.4766 20.333 40.127 19.8115V21.5869ZM47.3779 14.9424C47.1318 14.749 46.7773 14.6523 46.3145 14.6523C45.7109 14.6523 45.207 14.9248 44.8027 15.4697C44.3984 16.0146 44.1963 16.7559 44.1963 17.6934V22H42.1572V13H44.1963V14.8545H44.2314C44.4307 14.2217 44.7354 13.7295 45.1455 13.3779C45.5615 13.0205 46.0244 12.8418 46.5342 12.8418C46.9033 12.8418 47.1846 12.8975 47.3779 13.0088V14.9424ZM52.6514 22.2109C51.2627 22.2109 50.1523 21.792 49.3203 20.9541C48.4941 20.1104 48.0811 18.9941 48.0811 17.6055C48.0811 16.0938 48.5117 14.9131 49.373 14.0635C50.2402 13.2139 51.4062 12.7891 52.8711 12.7891C54.2773 12.7891 55.373 13.2021 56.1582 14.0283C56.9434 14.8545 57.3359 16 57.3359 17.4648C57.3359 18.9004 56.9111 20.0518 56.0615 20.9189C55.2178 21.7803 54.0811 22.2109 52.6514 22.2109ZM52.748 14.415C51.9512 14.415 51.3213 14.6934 50.8584 15.25C50.3955 15.8066 50.1641 16.5742 50.1641 17.5527C50.1641 18.4961 50.3984 19.2402 50.8672 19.7852C51.3359 20.3242 51.9629 20.5938 52.748 20.5938C53.5508 20.5938 54.166 20.3271 54.5938 19.7939C55.0273 19.2607 55.2441 18.502 55.2441 17.5176C55.2441 16.5273 55.0273 15.7627 54.5938 15.2236C54.166 14.6846 53.5508 14.415 52.748 14.415ZM58.8564 21.7188V19.8291C59.6182 20.4092 60.459 20.6992 61.3789 20.6992C62.6094 20.6992 63.2246 20.3359 63.2246 19.6094C63.2246 19.4043 63.1719 19.2314 63.0664 19.0908C62.9609 18.9443 62.8174 18.8154 62.6357 18.7041C62.46 18.5928 62.249 18.4932 62.0029 18.4053C61.7627 18.3174 61.4932 18.2178 61.1943 18.1064C60.8252 17.96 60.4912 17.8047 60.1924 17.6406C59.8994 17.4766 59.6533 17.292 59.4541 17.0869C59.2607 16.876 59.1143 16.6387 59.0146 16.375C58.915 16.1113 58.8652 15.8037 58.8652 15.4521C58.8652 15.0186 58.9678 14.6377 59.1729 14.3096C59.3779 13.9756 59.6533 13.6973 59.999 13.4746C60.3447 13.2461 60.7373 13.0762 61.1768 12.9648C61.6162 12.8477 62.0703 12.7891 62.5391 12.7891C63.3711 12.7891 64.1152 12.915 64.7715 13.167V14.9512C64.1387 14.5176 63.4121 14.3008 62.5918 14.3008C62.334 14.3008 62.0996 14.3271 61.8887 14.3799C61.6836 14.4326 61.5078 14.5059 61.3613 14.5996C61.2148 14.6934 61.1006 14.8076 61.0186 14.9424C60.9365 15.0713 60.8955 15.2148 60.8955 15.373C60.8955 15.5664 60.9365 15.7305 61.0186 15.8652C61.1006 16 61.2207 16.1201 61.3789 16.2256C61.543 16.3252 61.7363 16.4189 61.959 16.5068C62.1875 16.5889 62.4482 16.6797 62.7412 16.7793C63.1279 16.9375 63.4736 17.0986 63.7783 17.2627C64.0889 17.4268 64.3525 17.6143 64.5693 17.8252C64.7861 18.0303 64.9531 18.2705 65.0703 18.5459C65.1875 18.8154 65.2461 19.1377 65.2461 19.5127C65.2461 19.9697 65.1406 20.3682 64.9297 20.708C64.7188 21.0479 64.4375 21.3291 64.0859 21.5518C63.7344 21.7744 63.3271 21.9385 62.8643 22.0439C62.4072 22.1553 61.9238 22.2109 61.4141 22.2109C60.4297 22.2109 59.5771 22.0469 58.8564 21.7188ZM71.1787 22.2109C69.79 22.2109 68.6797 21.792 67.8477 20.9541C67.0215 20.1104 66.6084 18.9941 66.6084 17.6055C66.6084 16.0938 67.0391 14.9131 67.9004 14.0635C68.7676 13.2139 69.9336 12.7891 71.3984 12.7891C72.8047 12.7891 73.9004 13.2021 74.6855 14.0283C75.4707 14.8545 75.8633 16 75.8633 17.4648C75.8633 18.9004 75.4385 20.0518 74.5889 20.9189C73.7451 21.7803 72.6084 22.2109 71.1787 22.2109ZM71.2754 14.415C70.4785 14.415 69.8486 14.6934 69.3857 15.25C68.9229 15.8066 68.6914 16.5742 68.6914 17.5527C68.6914 18.4961 68.9258 19.2402 69.3945 19.7852C69.8633 20.3242 70.4902 20.5938 71.2754 20.5938C72.0781 20.5938 72.6934 20.3271 73.1211 19.7939C73.5547 19.2607 73.7715 18.502 73.7715 17.5176C73.7715 16.5273 73.5547 15.7627 73.1211 15.2236C72.6934 14.6846 72.0781 14.415 71.2754 14.415ZM82.7363 10.3369C82.4609 10.1787 82.1475 10.0996 81.7959 10.0996C80.8057 10.0996 80.3105 10.6592 80.3105 11.7783V13H82.4023V14.5996H80.3193V22H78.2803V14.5996H76.7422V13H78.2803V11.541C78.2803 10.5918 78.5908 9.84473 79.2119 9.2998C79.833 8.74902 80.6094 8.47363 81.541 8.47363C82.0449 8.47363 82.4434 8.5293 82.7363 8.64062V10.3369ZM88.9326 21.9033C88.5342 22.1025 88.0098 22.2021 87.3594 22.2021C85.6133 22.2021 84.7402 21.3643 84.7402 19.6885V14.5996H83.2373V13H84.7402V10.917L86.7793 10.3369V13H88.9326V14.5996H86.7793V19.0996C86.7793 19.6328 86.876 20.0137 87.0693 20.2422C87.2627 20.4707 87.585 20.585 88.0361 20.585C88.3818 20.585 88.6807 20.4854 88.9326 20.2861V21.9033ZM103.962 11.1719H100.341V22H98.249V11.1719H94.6367V9.39648H103.962V11.1719ZM111.441 18.0537H105.307C105.33 18.8857 105.585 19.5273 106.071 19.9785C106.563 20.4297 107.237 20.6553 108.093 20.6553C109.054 20.6553 109.936 20.3682 110.738 19.7939V21.4375C109.918 21.9531 108.834 22.2109 107.486 22.2109C106.162 22.2109 105.122 21.8037 104.366 20.9893C103.616 20.1689 103.241 19.0176 103.241 17.5352C103.241 16.1348 103.654 14.9951 104.48 14.1162C105.312 13.2314 106.344 12.7891 107.574 12.7891C108.805 12.7891 109.757 13.1846 110.431 13.9756C111.104 14.7666 111.441 15.8652 111.441 17.2715V18.0537ZM109.473 16.6123C109.467 15.8799 109.294 15.3115 108.954 14.9072C108.614 14.4971 108.146 14.292 107.548 14.292C106.962 14.292 106.464 14.5059 106.054 14.9336C105.649 15.3613 105.4 15.9209 105.307 16.6123H109.473ZM120.292 22H118.314V20.5938H118.279C117.658 21.6719 116.747 22.2109 115.546 22.2109C114.661 22.2109 113.967 21.9707 113.463 21.4902C112.965 21.0098 112.716 20.374 112.716 19.583C112.716 17.8838 113.694 16.8936 115.651 16.6123L118.323 16.2344C118.323 14.9512 117.714 14.3096 116.495 14.3096C115.423 14.3096 114.456 14.6787 113.595 15.417V13.6328C114.544 13.0703 115.64 12.7891 116.882 12.7891C119.155 12.7891 120.292 13.9082 120.292 16.1465V22ZM118.323 17.5791L116.434 17.8428C115.848 17.9189 115.405 18.0625 115.106 18.2734C114.813 18.4785 114.667 18.8418 114.667 19.3633C114.667 19.7441 114.802 20.0576 115.071 20.3037C115.347 20.5439 115.713 20.6641 116.17 20.6641C116.791 20.6641 117.304 20.4473 117.708 20.0137C118.118 19.5742 118.323 19.0234 118.323 18.3613V17.5791ZM136.244 22H134.205V17.0957C134.205 16.1523 134.07 15.4697 133.801 15.0479C133.537 14.626 133.089 14.415 132.456 14.415C131.923 14.415 131.469 14.6816 131.094 15.2148C130.725 15.748 130.54 16.3867 130.54 17.1309V22H128.492V16.9287C128.492 15.2529 127.9 14.415 126.717 14.415C126.166 14.415 125.712 14.667 125.354 15.1709C125.003 15.6748 124.827 16.3281 124.827 17.1309V22H122.788V13H124.827V14.4238H124.862C125.513 13.334 126.459 12.7891 127.701 12.7891C128.322 12.7891 128.864 12.9619 129.327 13.3076C129.796 13.6475 130.115 14.0957 130.285 14.6523C130.953 13.4102 131.949 12.7891 133.273 12.7891C135.254 12.7891 136.244 14.0107 136.244 16.4541V22ZM138.169 21.7188V19.8291C138.931 20.4092 139.771 20.6992 140.691 20.6992C141.922 20.6992 142.537 20.3359 142.537 19.6094C142.537 19.4043 142.484 19.2314 142.379 19.0908C142.273 18.9443 142.13 18.8154 141.948 18.7041C141.772 18.5928 141.562 18.4932 141.315 18.4053C141.075 18.3174 140.806 18.2178 140.507 18.1064C140.138 17.96 139.804 17.8047 139.505 17.6406C139.212 17.4766 138.966 17.292 138.767 17.0869C138.573 16.876 138.427 16.6387 138.327 16.375C138.228 16.1113 138.178 15.8037 138.178 15.4521C138.178 15.0186 138.28 14.6377 138.485 14.3096C138.69 13.9756 138.966 13.6973 139.312 13.4746C139.657 13.2461 140.05 13.0762 140.489 12.9648C140.929 12.8477 141.383 12.7891 141.852 12.7891C142.684 12.7891 143.428 12.915 144.084 13.167V14.9512C143.451 14.5176 142.725 14.3008 141.904 14.3008C141.646 14.3008 141.412 14.3271 141.201 14.3799C140.996 14.4326 140.82 14.5059 140.674 14.5996C140.527 14.6934 140.413 14.8076 140.331 14.9424C140.249 15.0713 140.208 15.2148 140.208 15.373C140.208 15.5664 140.249 15.7305 140.331 15.8652C140.413 16 140.533 16.1201 140.691 16.2256C140.855 16.3252 141.049 16.4189 141.271 16.5068C141.5 16.5889 141.761 16.6797 142.054 16.7793C142.44 16.9375 142.786 17.0986 143.091 17.2627C143.401 17.4268 143.665 17.6143 143.882 17.8252C144.099 18.0303 144.266 18.2705 144.383 18.5459C144.5 18.8154 144.559 19.1377 144.559 19.5127C144.559 19.9697 144.453 20.3682 144.242 20.708C144.031 21.0479 143.75 21.3291 143.398 21.5518C143.047 21.7744 142.64 21.9385 142.177 22.0439C141.72 22.1553 141.236 22.2109 140.727 22.2109C139.742 22.2109 138.89 22.0469 138.169 21.7188Z" fill="var(--vscode-input-placeholderForeground, #868686)"/>
<line x1="4" y1="29.5" x2="375" y2="29.5" stroke="var(--vscode-activityBar-border, #E5E5E5)"/>
<rect x="51" y="95" width="55" height="8" rx="4" fill="var(--vscode-button-secondaryHoverBackground, #CCCCCC)"/>
<rect x="51" y="75" width="44.5238" height="8" rx="4" fill="var(--vscode-button-secondaryHoverBackground, #CCCCCC)"/>
<rect x="51" y="55" width="55" height="8" rx="4" fill="var(--vscode-button-secondaryHoverBackground, #CCCCCC)"/>
<rect x="138" y="115" width="80" height="8" rx="4" fill="var(--vscode-activityBar-border, #E5E5E5)"/>
<rect x="138" y="94" width="90" height="8" rx="4" fill="var(--vscode-activityBar-border, #E5E5E5)"/>
<rect x="138" y="74" width="80" height="8" rx="4" fill="var(--vscode-activityBar-border, #E5E5E5)"/>
<rect x="138" y="54" width="100" height="8" rx="4" fill="var(--vscode-activityBar-border, #E5E5E5)"/>
<path d="M260 30H375V252C375 254.209 373.209 256 371 256H260V30Z" fill="var(--vscode-chat-slashCommandBackground, #D2ECFF)"/>
<rect x="269.02" y="228" width="96.9608" height="16" rx="8" fill="var(--vscode-activityBar-border, #E5E5E5)"/>
<path d="M279.351 68.699C279.894 68.7135 280.259 68.8121 280.517 68.932C280.793 69.0607 281.023 69.25 281.232 69.5238C281.683 70.1138 281.938 70.927 282.286 72.0373L282.331 72.1829C282.666 73.2508 283.104 74.6031 284.068 75.6596C285.121 76.8138 286.676 77.4983 288.9 77.4983H302.406C305.266 77.4983 307.371 75.8436 308.887 73.8391C310.413 71.8216 311.545 69.1966 312.423 66.6804L312.424 66.6767C313.43 63.7952 314.702 60.1484 314.655 57.2056C314.631 55.7151 314.271 54.2026 313.152 53.0553C311.996 51.8699 310.257 51.301 308.042 51.301H307.688C307.146 51.2865 306.78 51.1879 306.523 51.0679C306.247 50.9393 306.017 50.75 305.808 50.4762C305.357 49.8862 305.102 49.073 304.754 47.9627L304.708 47.817C304.373 46.7492 303.936 45.3968 302.972 44.3403C301.919 43.1862 300.364 42.5016 298.139 42.5016H284.634C281.774 42.5016 279.668 44.1564 278.153 46.1608C276.627 48.1784 275.495 50.8034 274.617 53.3196L274.616 53.3232C273.61 56.2048 272.337 59.8515 272.384 62.7944C272.408 64.2848 272.769 65.7973 273.888 66.9447C275.044 68.13 276.783 68.699 278.998 68.699H279.351ZM277.309 54.0589C278.165 51.6062 279.201 49.2624 280.494 47.5534C281.796 45.8312 283.159 45.0016 284.634 45.0016H293.636C293.248 45.6094 292.924 46.2878 292.633 46.9899C292.251 47.912 291.897 48.9507 291.532 50.0193L291.451 50.2568C290.012 54.4679 288.214 59.8861 287.047 63.4222C286.516 65.0302 284.882 66.1459 283.005 66.1971H279.211C279.186 66.1971 279.16 66.1978 279.134 66.199H278.998C277.324 66.199 276.483 65.7838 276.019 65.309C275.519 64.7962 275.222 63.9725 275.203 62.7589C275.163 60.2948 276.261 57.0635 277.309 54.0589ZM306.546 72.4466C305.244 74.1687 303.881 74.9983 302.406 74.9983H293.404C293.791 74.3906 294.115 73.7121 294.406 73.01C294.788 72.088 295.143 71.0493 295.508 69.9806L295.589 69.7431C297.027 65.532 298.825 60.1138 299.992 56.5777C300.523 54.9697 302.158 53.854 304.035 53.8028H307.828C307.854 53.8028 307.88 53.8022 307.905 53.801H308.042C309.715 53.801 310.557 54.2162 311.02 54.6909C311.52 55.2037 311.818 56.0274 311.837 57.2411C311.876 59.7052 310.779 62.9365 309.73 65.9411C308.874 68.3937 307.838 70.7375 306.546 72.4466ZM290.606 66.1971H288.571C289.094 65.5893 289.499 64.8909 289.752 64.1247C290.262 62.58 290.892 60.6777 291.559 58.6749L292.269 56.5577C292.818 54.9233 294.512 53.8028 296.434 53.8028H298.469C297.945 54.4106 297.54 55.1091 297.287 55.8753C296.778 57.4199 296.148 59.3222 295.481 61.325L294.77 63.4423C294.222 65.0766 292.528 66.1971 290.606 66.1971ZM296.434 51.3028C295.549 51.3028 294.693 51.447 293.899 51.7134C293.983 51.466 294.066 51.222 294.148 50.9819L294.222 50.7662C294.595 49.6741 294.927 48.7029 295.279 47.8523C295.657 46.9414 296.024 46.2551 296.42 45.7699C296.769 45.3428 297.322 45.0016 298.139 45.0016C299.623 45.0016 300.328 45.4172 300.781 45.9133C301.323 46.507 301.638 47.355 301.993 48.4874C302.02 48.5733 302.047 48.6615 302.075 48.7517C302.319 49.5382 302.609 50.4735 303.091 51.3028H296.434ZM290.606 68.6971C291.491 68.6971 292.347 68.553 293.141 68.2865C293.056 68.5339 292.973 68.778 292.891 69.0181L292.817 69.2338C292.445 70.3259 292.113 71.2971 291.761 72.1477C291.383 73.0586 291.015 73.7449 290.619 74.2301C290.27 74.6571 289.718 74.9983 288.9 74.9983C287.417 74.9983 286.711 74.5827 286.259 74.0867C285.717 73.4929 285.402 72.645 285.047 71.5125C285.02 71.4267 284.992 71.3384 284.964 71.2483C284.721 70.4617 284.431 69.5264 283.948 68.6971H290.606Z" fill="var(--vscode-icon-foreground, #3B3B3B)"/>
<rect x="269.02" y="150" width="96.9608" height="67" rx="8" fill="var(--vscode-activityBar-border, #E5E5E5)"/>
<rect x="269.02" y="93" width="96.9608" height="47" rx="8" fill="var(--vscode-activityBar-border, #E5E5E5)"/>
</g>
<path d="M147.644 293.239C144.902 293.239 143.193 291.257 143.193 288.071C143.193 284.879 144.896 282.896 147.637 282.896C149.811 282.896 151.492 284.284 151.738 286.26H150.214C149.927 285.036 148.936 284.257 147.637 284.257C145.866 284.257 144.759 285.727 144.759 288.071C144.759 290.416 145.866 291.879 147.644 291.879C148.949 291.879 149.94 291.175 150.214 290.054H151.738C151.465 291.975 149.845 293.239 147.644 293.239ZM156.729 293.144C154.548 293.144 153.215 291.688 153.215 289.288C153.215 286.896 154.555 285.433 156.729 285.433C158.896 285.433 160.235 286.889 160.235 289.288C160.235 291.688 158.902 293.144 156.729 293.144ZM156.729 291.893C158 291.893 158.725 290.936 158.725 289.288C158.725 287.634 158 286.677 156.729 286.677C155.45 286.677 154.732 287.634 154.732 289.288C154.732 290.942 155.45 291.893 156.729 291.893ZM165.868 285.446C167.762 285.446 168.958 286.93 168.958 289.288C168.958 291.633 167.762 293.123 165.882 293.123C164.822 293.123 163.981 292.665 163.592 291.879H163.476V295.475H162.006V285.576H163.421V286.807H163.53C163.981 285.959 164.856 285.446 165.868 285.446ZM165.451 291.865C166.702 291.865 167.447 290.901 167.447 289.288C167.447 287.675 166.702 286.704 165.458 286.704C164.221 286.704 163.448 287.695 163.448 289.288C163.448 290.874 164.221 291.865 165.451 291.865ZM171.487 284.25C170.975 284.25 170.558 283.833 170.558 283.327C170.558 282.814 170.975 282.397 171.487 282.397C172 282.397 172.417 282.814 172.417 283.327C172.417 283.833 172 284.25 171.487 284.25ZM170.756 293V285.576H172.219V293H170.756ZM174.447 293V282.664H175.917V293H174.447ZM181.27 293.144C179.089 293.144 177.756 291.688 177.756 289.288C177.756 286.896 179.096 285.433 181.27 285.433C183.437 285.433 184.776 286.889 184.776 289.288C184.776 291.688 183.443 293.144 181.27 293.144ZM181.27 291.893C182.541 291.893 183.266 290.936 183.266 289.288C183.266 287.634 182.541 286.677 181.27 286.677C179.991 286.677 179.273 287.634 179.273 289.288C179.273 290.942 179.991 291.893 181.27 291.893ZM187.066 283.703H188.536V285.597H190.149V286.772H188.536V290.689C188.536 291.489 188.857 291.838 189.589 291.838C189.814 291.838 189.944 291.824 190.149 291.804V292.973C189.91 293.014 189.637 293.048 189.35 293.048C187.716 293.048 187.066 292.474 187.066 291.045V286.772H185.884V285.597H187.066V283.703ZM195.878 283.136H199.74C201.668 283.136 202.994 284.462 202.994 286.403C202.994 288.304 201.627 289.63 199.692 289.63H197.409V293H195.878V283.136ZM197.409 284.428V288.345H199.337C200.656 288.345 201.429 287.641 201.429 286.403C201.429 285.125 200.684 284.428 199.337 284.428H197.409ZM204.867 293V282.664H206.337V293H204.867ZM214.82 285.576V293H213.405V291.824H213.289C212.927 292.665 212.168 293.144 211.04 293.144C209.393 293.144 208.477 292.139 208.477 290.396V285.576H209.946V290.033C209.946 291.264 210.432 291.852 211.512 291.852C212.701 291.852 213.351 291.127 213.351 289.931V285.576H214.82ZM220.091 295.837C218.231 295.837 217.028 295.01 216.871 293.759H218.375C218.498 294.319 219.12 294.675 220.111 294.675C221.335 294.675 222.06 294.073 222.06 293.068V291.64H221.95C221.499 292.446 220.679 292.891 219.653 292.891C217.753 292.891 216.577 291.421 216.577 289.192C216.577 286.943 217.767 285.446 219.667 285.446C220.692 285.446 221.588 285.952 222.005 286.759H222.121V285.576H223.529V293.075C223.529 294.764 222.196 295.837 220.091 295.837ZM220.07 291.674C221.328 291.674 222.087 290.71 222.087 289.192C222.087 287.675 221.321 286.704 220.07 286.704C218.806 286.704 218.095 287.675 218.095 289.192C218.095 290.71 218.806 291.674 220.07 291.674ZM226.421 284.25C225.908 284.25 225.491 283.833 225.491 283.327C225.491 282.814 225.908 282.397 226.421 282.397C226.934 282.397 227.351 282.814 227.351 283.327C227.351 283.833 226.934 284.25 226.421 284.25ZM225.689 293V285.576H227.152V293H225.689ZM229.312 293V285.576H230.728V286.752H230.837C231.199 285.932 231.938 285.433 233.059 285.433C234.72 285.433 235.636 286.424 235.636 288.194V293H234.166V288.543C234.166 287.312 233.646 286.711 232.56 286.711C231.473 286.711 230.782 287.449 230.782 288.646V293H229.312Z" fill="var(--vscode-button-secondaryHoverBackground, #CCCCCC)"/>
<g filter="url(#filter1_d_451_27140)">
<rect x="4" y="337" width="371" height="256" rx="4" fill="var(--vscode-editor-background, white)" shape-rendering="crispEdges"/>
<path d="M4 341C4 338.791 5.79086 337 8 337H371C373.209 337 375 338.791 375 341V367H4V341Z" fill="var(--vscode-editorGroupHeader-tabsBackground, #F8F8F8)"/>
<path d="M4 366H42V593H8C5.79086 593 4 591.209 4 589V366Z" fill="var(--vscode-editorGroupHeader-tabsBackground, #F8F8F8)"/>
<circle cx="15.5" cy="532.5" r="2.5" fill="var(--vscode-badge-background, #616161)"/>
<circle cx="23.5" cy="532.5" r="2.5" fill="var(--vscode-badge-background, #616161)"/>
<circle cx="31.5" cy="532.5" r="2.5" fill="var(--vscode-badge-background, #616161)"/>
<rect x="11" y="379" width="24" height="24" rx="4" fill="var(--vscode-badge-background, #616161)"/>
<rect x="11" y="453" width="24" height="24" rx="4" fill="var(--vscode-badge-background, #616161)"/>
<rect x="11" y="490" width="24" height="24" rx="4" fill="var(--vscode-badge-background, #616161)"/>
<rect x="5" y="415" width="1.84897" height="27.7744" rx="0.924486" fill="var(--vscode-panelTitle-activeBorder, #005FB8)"/>
<rect x="11" y="416" width="24" height="24" rx="4" fill="var(--vscode-panelTitle-activeBorder, #005FB8)"/>
<path d="M41 392.686H122V589C122 591.209 120.209 593 118 593H41V392.686Z" fill="var(--vscode-activityBar-border, #E5E5E5)"/>
<path d="M41 367H122V416.417C122 418.626 120.209 420.417 118 420.417H41V367Z" fill="var(--vscode-activityBar-border, #E5E5E5)"/>
<path d="M26.0908 359H24.0166V350.844C24.0166 350.176 24.0576 349.358 24.1396 348.392H24.1045C23.9756 348.942 23.8613 349.338 23.7617 349.578L20 359H18.5586L14.7881 349.648C14.6826 349.373 14.5713 348.954 14.4541 348.392H14.4189C14.4658 348.896 14.4893 349.719 14.4893 350.861V359H12.5557V346.396H15.5L18.8135 354.79C19.0654 355.435 19.2295 355.915 19.3057 356.231H19.3496C19.5664 355.569 19.7422 355.077 19.877 354.755L23.252 346.396H26.0908V359ZM30.002 348.11C29.668 348.11 29.3809 348.002 29.1406 347.785C28.9062 347.568 28.7891 347.293 28.7891 346.959C28.7891 346.625 28.9062 346.347 29.1406 346.124C29.3809 345.901 29.668 345.79 30.002 345.79C30.3477 345.79 30.6406 345.901 30.8809 346.124C31.1211 346.347 31.2412 346.625 31.2412 346.959C31.2412 347.275 31.1211 347.548 30.8809 347.776C30.6406 347.999 30.3477 348.11 30.002 348.11ZM31.0127 359H28.9736V350H31.0127V359ZM40.127 358.587C39.4062 359.003 38.5537 359.211 37.5693 359.211C36.2334 359.211 35.1553 358.795 34.335 357.963C33.5146 357.125 33.1045 356.041 33.1045 354.711C33.1045 353.229 33.5439 352.039 34.4229 351.143C35.3076 350.24 36.4883 349.789 37.9648 349.789C38.7852 349.789 39.5088 349.933 40.1357 350.22V352.118C39.5088 351.649 38.8408 351.415 38.1318 351.415C37.2705 351.415 36.5645 351.708 36.0137 352.294C35.4629 352.874 35.1875 353.636 35.1875 354.579C35.1875 355.511 35.4453 356.246 35.9609 356.785C36.4824 357.324 37.1797 357.594 38.0527 357.594C38.7852 357.594 39.4766 357.333 40.127 356.812V358.587ZM47.3779 351.942C47.1318 351.749 46.7773 351.652 46.3145 351.652C45.7109 351.652 45.207 351.925 44.8027 352.47C44.3984 353.015 44.1963 353.756 44.1963 354.693V359H42.1572V350H44.1963V351.854H44.2314C44.4307 351.222 44.7354 350.729 45.1455 350.378C45.5615 350.021 46.0244 349.842 46.5342 349.842C46.9033 349.842 47.1846 349.897 47.3779 350.009V351.942ZM52.6514 359.211C51.2627 359.211 50.1523 358.792 49.3203 357.954C48.4941 357.11 48.0811 355.994 48.0811 354.605C48.0811 353.094 48.5117 351.913 49.373 351.063C50.2402 350.214 51.4062 349.789 52.8711 349.789C54.2773 349.789 55.373 350.202 56.1582 351.028C56.9434 351.854 57.3359 353 57.3359 354.465C57.3359 355.9 56.9111 357.052 56.0615 357.919C55.2178 358.78 54.0811 359.211 52.6514 359.211ZM52.748 351.415C51.9512 351.415 51.3213 351.693 50.8584 352.25C50.3955 352.807 50.1641 353.574 50.1641 354.553C50.1641 355.496 50.3984 356.24 50.8672 356.785C51.3359 357.324 51.9629 357.594 52.748 357.594C53.5508 357.594 54.166 357.327 54.5938 356.794C55.0273 356.261 55.2441 355.502 55.2441 354.518C55.2441 353.527 55.0273 352.763 54.5938 352.224C54.166 351.685 53.5508 351.415 52.748 351.415ZM58.8564 358.719V356.829C59.6182 357.409 60.459 357.699 61.3789 357.699C62.6094 357.699 63.2246 357.336 63.2246 356.609C63.2246 356.404 63.1719 356.231 63.0664 356.091C62.9609 355.944 62.8174 355.815 62.6357 355.704C62.46 355.593 62.249 355.493 62.0029 355.405C61.7627 355.317 61.4932 355.218 61.1943 355.106C60.8252 354.96 60.4912 354.805 60.1924 354.641C59.8994 354.477 59.6533 354.292 59.4541 354.087C59.2607 353.876 59.1143 353.639 59.0146 353.375C58.915 353.111 58.8652 352.804 58.8652 352.452C58.8652 352.019 58.9678 351.638 59.1729 351.31C59.3779 350.976 59.6533 350.697 59.999 350.475C60.3447 350.246 60.7373 350.076 61.1768 349.965C61.6162 349.848 62.0703 349.789 62.5391 349.789C63.3711 349.789 64.1152 349.915 64.7715 350.167V351.951C64.1387 351.518 63.4121 351.301 62.5918 351.301C62.334 351.301 62.0996 351.327 61.8887 351.38C61.6836 351.433 61.5078 351.506 61.3613 351.6C61.2148 351.693 61.1006 351.808 61.0186 351.942C60.9365 352.071 60.8955 352.215 60.8955 352.373C60.8955 352.566 60.9365 352.73 61.0186 352.865C61.1006 353 61.2207 353.12 61.3789 353.226C61.543 353.325 61.7363 353.419 61.959 353.507C62.1875 353.589 62.4482 353.68 62.7412 353.779C63.1279 353.938 63.4736 354.099 63.7783 354.263C64.0889 354.427 64.3525 354.614 64.5693 354.825C64.7861 355.03 64.9531 355.271 65.0703 355.546C65.1875 355.815 65.2461 356.138 65.2461 356.513C65.2461 356.97 65.1406 357.368 64.9297 357.708C64.7188 358.048 64.4375 358.329 64.0859 358.552C63.7344 358.774 63.3271 358.938 62.8643 359.044C62.4072 359.155 61.9238 359.211 61.4141 359.211C60.4297 359.211 59.5771 359.047 58.8564 358.719ZM71.1787 359.211C69.79 359.211 68.6797 358.792 67.8477 357.954C67.0215 357.11 66.6084 355.994 66.6084 354.605C66.6084 353.094 67.0391 351.913 67.9004 351.063C68.7676 350.214 69.9336 349.789 71.3984 349.789C72.8047 349.789 73.9004 350.202 74.6855 351.028C75.4707 351.854 75.8633 353 75.8633 354.465C75.8633 355.9 75.4385 357.052 74.5889 357.919C73.7451 358.78 72.6084 359.211 71.1787 359.211ZM71.2754 351.415C70.4785 351.415 69.8486 351.693 69.3857 352.25C68.9229 352.807 68.6914 353.574 68.6914 354.553C68.6914 355.496 68.9258 356.24 69.3945 356.785C69.8633 357.324 70.4902 357.594 71.2754 357.594C72.0781 357.594 72.6934 357.327 73.1211 356.794C73.5547 356.261 73.7715 355.502 73.7715 354.518C73.7715 353.527 73.5547 352.763 73.1211 352.224C72.6934 351.685 72.0781 351.415 71.2754 351.415ZM82.7363 347.337C82.4609 347.179 82.1475 347.1 81.7959 347.1C80.8057 347.1 80.3105 347.659 80.3105 348.778V350H82.4023V351.6H80.3193V359H78.2803V351.6H76.7422V350H78.2803V348.541C78.2803 347.592 78.5908 346.845 79.2119 346.3C79.833 345.749 80.6094 345.474 81.541 345.474C82.0449 345.474 82.4434 345.529 82.7363 345.641V347.337ZM88.9326 358.903C88.5342 359.103 88.0098 359.202 87.3594 359.202C85.6133 359.202 84.7402 358.364 84.7402 356.688V351.6H83.2373V350H84.7402V347.917L86.7793 347.337V350H88.9326V351.6H86.7793V356.1C86.7793 356.633 86.876 357.014 87.0693 357.242C87.2627 357.471 87.585 357.585 88.0361 357.585C88.3818 357.585 88.6807 357.485 88.9326 357.286V358.903ZM103.962 348.172H100.341V359H98.249V348.172H94.6367V346.396H103.962V348.172ZM111.441 355.054H105.307C105.33 355.886 105.585 356.527 106.071 356.979C106.563 357.43 107.237 357.655 108.093 357.655C109.054 357.655 109.936 357.368 110.738 356.794V358.438C109.918 358.953 108.834 359.211 107.486 359.211C106.162 359.211 105.122 358.804 104.366 357.989C103.616 357.169 103.241 356.018 103.241 354.535C103.241 353.135 103.654 351.995 104.48 351.116C105.312 350.231 106.344 349.789 107.574 349.789C108.805 349.789 109.757 350.185 110.431 350.976C111.104 351.767 111.441 352.865 111.441 354.271V355.054ZM109.473 353.612C109.467 352.88 109.294 352.312 108.954 351.907C108.614 351.497 108.146 351.292 107.548 351.292C106.962 351.292 106.464 351.506 106.054 351.934C105.649 352.361 105.4 352.921 105.307 353.612H109.473ZM120.292 359H118.314V357.594H118.279C117.658 358.672 116.747 359.211 115.546 359.211C114.661 359.211 113.967 358.971 113.463 358.49C112.965 358.01 112.716 357.374 112.716 356.583C112.716 354.884 113.694 353.894 115.651 353.612L118.323 353.234C118.323 351.951 117.714 351.31 116.495 351.31C115.423 351.31 114.456 351.679 113.595 352.417V350.633C114.544 350.07 115.64 349.789 116.882 349.789C119.155 349.789 120.292 350.908 120.292 353.146V359ZM118.323 354.579L116.434 354.843C115.848 354.919 115.405 355.062 115.106 355.273C114.813 355.479 114.667 355.842 114.667 356.363C114.667 356.744 114.802 357.058 115.071 357.304C115.347 357.544 115.713 357.664 116.17 357.664C116.791 357.664 117.304 357.447 117.708 357.014C118.118 356.574 118.323 356.023 118.323 355.361V354.579ZM136.244 359H134.205V354.096C134.205 353.152 134.07 352.47 133.801 352.048C133.537 351.626 133.089 351.415 132.456 351.415C131.923 351.415 131.469 351.682 131.094 352.215C130.725 352.748 130.54 353.387 130.54 354.131V359H128.492V353.929C128.492 352.253 127.9 351.415 126.717 351.415C126.166 351.415 125.712 351.667 125.354 352.171C125.003 352.675 124.827 353.328 124.827 354.131V359H122.788V350H124.827V351.424H124.862C125.513 350.334 126.459 349.789 127.701 349.789C128.322 349.789 128.864 349.962 129.327 350.308C129.796 350.647 130.115 351.096 130.285 351.652C130.953 350.41 131.949 349.789 133.273 349.789C135.254 349.789 136.244 351.011 136.244 353.454V359ZM138.169 358.719V356.829C138.931 357.409 139.771 357.699 140.691 357.699C141.922 357.699 142.537 357.336 142.537 356.609C142.537 356.404 142.484 356.231 142.379 356.091C142.273 355.944 142.13 355.815 141.948 355.704C141.772 355.593 141.562 355.493 141.315 355.405C141.075 355.317 140.806 355.218 140.507 355.106C140.138 354.96 139.804 354.805 139.505 354.641C139.212 354.477 138.966 354.292 138.767 354.087C138.573 353.876 138.427 353.639 138.327 353.375C138.228 353.111 138.178 352.804 138.178 352.452C138.178 352.019 138.28 351.638 138.485 351.31C138.69 350.976 138.966 350.697 139.312 350.475C139.657 350.246 140.05 350.076 140.489 349.965C140.929 349.848 141.383 349.789 141.852 349.789C142.684 349.789 143.428 349.915 144.084 350.167V351.951C143.451 351.518 142.725 351.301 141.904 351.301C141.646 351.301 141.412 351.327 141.201 351.38C140.996 351.433 140.82 351.506 140.674 351.6C140.527 351.693 140.413 351.808 140.331 351.942C140.249 352.071 140.208 352.215 140.208 352.373C140.208 352.566 140.249 352.73 140.331 352.865C140.413 353 140.533 353.12 140.691 353.226C140.855 353.325 141.049 353.419 141.271 353.507C141.5 353.589 141.761 353.68 142.054 353.779C142.44 353.938 142.786 354.099 143.091 354.263C143.401 354.427 143.665 354.614 143.882 354.825C144.099 355.03 144.266 355.271 144.383 355.546C144.5 355.815 144.559 356.138 144.559 356.513C144.559 356.97 144.453 357.368 144.242 357.708C144.031 358.048 143.75 358.329 143.398 358.552C143.047 358.774 142.64 358.938 142.177 359.044C141.72 359.155 141.236 359.211 140.727 359.211C139.742 359.211 138.89 359.047 138.169 358.719Z" fill="var(--vscode-input-placeholderForeground, #868686)"/>
<line x1="4" y1="366.5" x2="375" y2="366.5" stroke="var(--vscode-editorGroupHeader-tabsBorder, #E7E7E7)"/>
<rect x="51" y="432" width="55" height="8" rx="4" fill="var(--vscode-button-secondaryHoverBackground, #CCCCCC)"/>
<rect x="51" y="412" width="44.5238" height="8" rx="4" fill="var(--vscode-button-secondaryHoverBackground, #CCCCCC)"/>
<rect x="51" y="392" width="55" height="8" rx="4" fill="var(--vscode-button-secondaryHoverBackground, #CCCCCC)"/>
<rect x="132.5" y="546.5" width="232" height="30" rx="7.5" stroke="var(--vscode-activityBar-border, #E5E5E5)"/>
<path d="M337.422 552.097L354.163 560.104C354.658 560.341 354.867 560.934 354.631 561.428C354.533 561.633 354.368 561.798 354.163 561.896L337.422 569.903C336.927 570.139 336.334 569.93 336.097 569.435C335.995 569.22 335.973 568.975 336.035 568.745L338.148 561L336.035 553.254C335.891 552.725 336.203 552.179 336.732 552.035C336.962 551.972 337.207 551.994 337.422 552.097ZM337.299 553.36L339.224 560.421L347.918 560.422C348.219 560.422 348.469 560.646 348.508 560.937L348.514 561.018C348.514 561.319 348.289 561.569 347.999 561.608L347.918 561.614L339.215 561.613L337.299 568.64L353.274 561L337.299 553.36Z" fill="var(--vscode-activityBar-border, #E5E5E5)"/>
<rect x="225" y="381" width="140" height="31" rx="8" fill="var(--vscode-editor-selectionHighlightBackground, #ADD6FF)" fill-opacity="0.501961"/>
<path d="M162.607 446.139C162.683 446.193 162.757 446.251 162.827 446.313C162.831 446.24 162.833 446.166 162.833 446.091V438.583C162.833 436.512 161.154 434.833 159.083 434.833L153.249 434.832L153.25 433.584L153.239 433.415C153.156 432.804 152.633 432.334 152 432.334L151.831 432.346C151.221 432.428 150.75 432.951 150.75 433.584L150.749 434.832L144.916 434.833C142.845 434.833 141.166 436.512 141.166 438.583V446.091C141.166 448.162 142.845 449.841 144.916 449.841H157.89C157.901 449.812 157.911 449.783 157.921 449.754L157.936 449.71L158.687 447.403L158.694 447.383C158.871 446.881 159.2 446.446 159.634 446.139C160.069 445.832 160.588 445.667 161.121 445.667C161.653 445.667 162.172 445.832 162.607 446.139ZM148.249 439.833C149.399 439.833 150.331 440.766 150.331 441.915C150.331 443.065 149.399 443.998 148.249 443.998C147.099 443.998 146.166 443.065 146.166 441.915C146.166 440.766 147.099 439.833 148.249 439.833ZM155.737 439.833C156.886 439.833 157.819 440.766 157.819 441.915C157.819 443.065 156.886 443.998 155.737 443.998C154.587 443.998 153.654 443.065 153.654 441.915C153.654 440.766 154.587 439.833 155.737 439.833ZM153.737 452.394L153.925 452.333H142.422C140.351 452.333 138.672 454.012 138.672 456.083V457.595C138.672 459.417 139.467 461.147 140.848 462.335C143.453 464.574 147.184 465.668 152 465.668C155.46 465.668 158.361 465.104 160.688 463.955C160.327 463.887 159.983 463.742 159.68 463.528C159.246 463.22 158.917 462.786 158.739 462.283L158.733 462.264L157.982 459.955L157.981 459.953C157.872 459.623 157.707 459.314 157.496 459.041C157.418 458.94 157.333 458.844 157.243 458.753L156.645 458.317L156.047 458.011L153.737 457.261L153.718 457.254C153.216 457.077 152.781 456.749 152.473 456.314C152.165 455.88 152 455.36 152 454.828C152 454.295 152.165 453.775 152.473 453.341C152.781 452.906 153.216 452.578 153.718 452.401L153.737 452.394ZM158.423 457.576C158.563 457.716 158.693 457.865 158.814 458.02C159.142 458.444 159.396 458.922 159.565 459.434L160.311 461.729C160.374 461.905 160.489 462.059 160.643 462.167C160.796 462.275 160.979 462.333 161.166 462.333C161.354 462.333 161.537 462.275 161.69 462.167C161.827 462.07 161.934 461.938 162 461.785C162.008 461.766 162.015 461.748 162.022 461.729L162.768 459.434C163 458.736 163.392 458.102 163.912 457.583C164.432 457.063 165.067 456.671 165.765 456.44L168.061 455.694C168.238 455.631 168.391 455.516 168.5 455.363C168.608 455.21 168.666 455.027 168.666 454.839C168.666 454.652 168.608 454.469 168.5 454.316C168.391 454.162 168.238 454.047 168.061 453.984L168.015 453.973L165.719 453.227C165.021 452.995 164.386 452.604 163.866 452.084C163.346 451.564 162.954 450.93 162.722 450.233L161.976 447.938C161.913 447.761 161.798 447.608 161.644 447.5C161.491 447.392 161.308 447.333 161.121 447.333C160.933 447.333 160.75 447.392 160.597 447.5C160.443 447.608 160.328 447.761 160.265 447.938L159.519 450.233L159.5 450.29C159.27 450.96 158.893 451.57 158.395 452.076C157.883 452.595 157.258 452.989 156.568 453.227L154.272 453.973C154.095 454.035 153.941 454.151 153.833 454.304C153.725 454.457 153.666 454.64 153.666 454.828C153.666 455.015 153.725 455.198 153.833 455.351C153.941 455.504 154.095 455.62 154.272 455.682L156.568 456.428C157.267 456.661 157.903 457.054 158.423 457.576ZM170.362 463.941L171.638 464.355L171.664 464.362C171.762 464.396 171.847 464.461 171.907 464.546C171.967 464.631 172 464.732 172 464.837C172 464.941 171.967 465.042 171.907 465.127C171.847 465.212 171.762 465.277 171.664 465.311L170.388 465.726C170 465.854 169.648 466.072 169.359 466.361C169.069 466.65 168.852 467.002 168.723 467.389L168.308 468.664C168.274 468.762 168.209 468.847 168.124 468.908C168.039 468.968 167.937 469 167.833 469C167.729 469 167.627 468.968 167.542 468.908C167.457 468.847 167.393 468.762 167.358 468.664L166.943 467.389C166.815 467 166.598 466.647 166.309 466.357C166.02 466.067 165.667 465.849 165.278 465.719L164.003 465.305C163.904 465.27 163.819 465.206 163.759 465.121C163.699 465.036 163.666 464.934 163.666 464.83C163.666 464.726 163.699 464.624 163.759 464.539C163.819 464.454 163.904 464.39 164.003 464.355L165.278 463.941C165.662 463.809 166.009 463.59 166.293 463.301C166.578 463.013 166.791 462.662 166.918 462.277L167.332 461.003C167.367 460.904 167.431 460.819 167.517 460.759C167.602 460.699 167.703 460.667 167.808 460.667C167.912 460.667 168.014 460.699 168.099 460.759C168.184 460.819 168.248 460.904 168.283 461.003L168.697 462.277C168.826 462.665 169.044 463.017 169.333 463.306C169.622 463.595 169.974 463.812 170.362 463.941Z" fill="var(--vscode-icon-foreground, #3B3B3B)"/>
<rect x="184" y="429" width="151" height="87" rx="8" fill="var(--vscode-activityBar-border, #E5E5E5)"/>
<rect x="194" y="447" width="80" height="10" rx="4" fill="var(--vscode-actionBar-toggledBackground, #DDDDDD)"/>
<rect x="194" y="467" width="80" height="10" rx="4" fill="var(--vscode-actionBar-toggledBackground, #DDDDDD)"/>
<rect x="194" y="487" width="80" height="10" rx="4" fill="var(--vscode-actionBar-toggledBackground, #DDDDDD)"/>
</g>
<path d="M142.544 630.239C139.803 630.239 138.094 628.257 138.094 625.071C138.094 621.879 139.796 619.896 142.537 619.896C144.711 619.896 146.393 621.284 146.639 623.26H145.114C144.827 622.036 143.836 621.257 142.537 621.257C140.767 621.257 139.659 622.727 139.659 625.071C139.659 627.416 140.767 628.879 142.544 628.879C143.85 628.879 144.841 628.175 145.114 627.054H146.639C146.365 628.975 144.745 630.239 142.544 630.239ZM154.76 622.576V630H153.345V628.824H153.229C152.866 629.665 152.107 630.144 150.979 630.144C149.332 630.144 148.416 629.139 148.416 627.396V622.576H149.886V627.033C149.886 628.264 150.371 628.852 151.451 628.852C152.641 628.852 153.29 628.127 153.29 626.931V622.576H154.76ZM156.722 624.654C156.722 623.362 157.932 622.433 159.613 622.433C161.288 622.433 162.382 623.212 162.525 624.497H161.117C160.98 623.943 160.447 623.581 159.613 623.581C158.793 623.581 158.171 623.984 158.171 624.586C158.171 625.044 158.547 625.331 159.354 625.522L160.591 625.81C162.006 626.138 162.669 626.746 162.669 627.826C162.669 629.207 161.363 630.144 159.586 630.144C157.815 630.144 156.66 629.344 156.53 628.052H158C158.185 628.633 158.731 628.995 159.62 628.995C160.536 628.995 161.186 628.571 161.186 627.963C161.186 627.498 160.837 627.197 160.092 627.02L158.793 626.712C157.378 626.384 156.722 625.755 156.722 624.654ZM164.904 620.703H166.374V622.597H167.987V623.772H166.374V627.689C166.374 628.489 166.695 628.838 167.427 628.838C167.652 628.838 167.782 628.824 167.987 628.804V629.973C167.748 630.014 167.475 630.048 167.188 630.048C165.554 630.048 164.904 629.474 164.904 628.045V623.772H163.722V622.597H164.904V620.703ZM172.779 630.144C170.599 630.144 169.266 628.688 169.266 626.288C169.266 623.896 170.605 622.433 172.779 622.433C174.946 622.433 176.286 623.889 176.286 626.288C176.286 628.688 174.953 630.144 172.779 630.144ZM172.779 628.893C174.051 628.893 174.775 627.936 174.775 626.288C174.775 624.634 174.051 623.677 172.779 623.677C171.501 623.677 170.783 624.634 170.783 626.288C170.783 627.942 171.501 628.893 172.779 628.893ZM178.057 630V622.576H179.472V623.759H179.581C179.909 622.925 180.661 622.433 181.652 622.433C182.671 622.433 183.375 622.959 183.703 623.759H183.819C184.195 622.959 185.05 622.433 186.082 622.433C187.586 622.433 188.461 623.335 188.461 624.88V630H186.991V625.235C186.991 624.21 186.513 623.711 185.549 623.711C184.599 623.711 183.977 624.408 183.977 625.304V630H182.534V625.085C182.534 624.237 181.974 623.711 181.099 623.711C180.203 623.711 179.526 624.47 179.526 625.44V630H178.057ZM198.571 630.239C195.83 630.239 194.121 628.257 194.121 625.071C194.121 621.879 195.823 619.896 198.564 619.896C200.738 619.896 202.42 621.284 202.666 623.26H201.142C200.854 622.036 199.863 621.257 198.564 621.257C196.794 621.257 195.687 622.727 195.687 625.071C195.687 627.416 196.794 628.879 198.571 628.879C199.877 628.879 200.868 628.175 201.142 627.054H202.666C202.393 628.975 200.772 630.239 198.571 630.239ZM207.656 630.144C205.476 630.144 204.143 628.688 204.143 626.288C204.143 623.896 205.482 622.433 207.656 622.433C209.823 622.433 211.163 623.889 211.163 626.288C211.163 628.688 209.83 630.144 207.656 630.144ZM207.656 628.893C208.928 628.893 209.652 627.936 209.652 626.288C209.652 624.634 208.928 623.677 207.656 623.677C206.378 623.677 205.66 624.634 205.66 626.288C205.66 627.942 206.378 628.893 207.656 628.893ZM216.796 622.446C218.689 622.446 219.886 623.93 219.886 626.288C219.886 628.633 218.689 630.123 216.81 630.123C215.75 630.123 214.909 629.665 214.52 628.879H214.403V632.475H212.934V622.576H214.349V623.807H214.458C214.909 622.959 215.784 622.446 216.796 622.446ZM216.379 628.865C217.63 628.865 218.375 627.901 218.375 626.288C218.375 624.675 217.63 623.704 216.386 623.704C215.148 623.704 214.376 624.695 214.376 626.288C214.376 627.874 215.148 628.865 216.379 628.865ZM222.415 621.25C221.902 621.25 221.485 620.833 221.485 620.327C221.485 619.814 221.902 619.397 222.415 619.397C222.928 619.397 223.345 619.814 223.345 620.327C223.345 620.833 222.928 621.25 222.415 621.25ZM221.684 630V622.576H223.146V630H221.684ZM225.375 630V619.664H226.845V630H225.375ZM232.197 630.144C230.017 630.144 228.684 628.688 228.684 626.288C228.684 623.896 230.023 622.433 232.197 622.433C234.364 622.433 235.704 623.889 235.704 626.288C235.704 628.688 234.371 630.144 232.197 630.144ZM232.197 628.893C233.469 628.893 234.193 627.936 234.193 626.288C234.193 624.634 233.469 623.677 232.197 623.677C230.919 623.677 230.201 624.634 230.201 626.288C230.201 627.942 230.919 628.893 232.197 628.893ZM237.994 620.703H239.464V622.597H241.077V623.772H239.464V627.689C239.464 628.489 239.785 628.838 240.517 628.838C240.742 628.838 240.872 628.824 241.077 628.804V629.973C240.838 630.014 240.564 630.048 240.277 630.048C238.644 630.048 237.994 629.474 237.994 628.045V623.772H236.812V622.597H237.994V620.703Z" fill="var(--vscode-button-secondaryHoverBackground, #CCCCCC)"/>
<defs>
<filter id="filter0_d_451_27140" x="0" y="0" width="379" height="264" filterUnits="userSpaceOnUse" color-interpolation-filters="sRGB">
<feFlood flood-opacity="0" result="BackgroundImageFix"/>
<feColorMatrix in="SourceAlpha" type="matrix" values="0 0 0 0 0 0 0 0 0 0 0 0 0 0 0 0 0 0 127 0" result="hardAlpha"/>
<feOffset dy="4"/>
<feGaussianBlur stdDeviation="2"/>
<feComposite in2="hardAlpha" operator="out"/>
<feColorMatrix type="matrix" values="0 0 0 0 0 0 0 0 0 0 0 0 0 0 0 0 0 0 0.5 0"/>
<feBlend mode="normal" in2="BackgroundImageFix" result="effect1_dropShadow_451_27140"/>
<feBlend mode="normal" in="SourceGraphic" in2="effect1_dropShadow_451_27140" result="shape"/>
</filter>
<filter id="filter1_d_451_27140" x="0" y="337" width="379" height="264" filterUnits="userSpaceOnUse" color-interpolation-filters="sRGB">
<feFlood flood-opacity="0" result="BackgroundImageFix"/>
<feColorMatrix in="SourceAlpha" type="matrix" values="0 0 0 0 0 0 0 0 0 0 0 0 0 0 0 0 0 0 127 0" result="hardAlpha"/>
<feOffset dy="4"/>
<feGaussianBlur stdDeviation="2"/>
<feComposite in2="hardAlpha" operator="out"/>
<feColorMatrix type="matrix" values="0 0 0 0 0 0 0 0 0 0 0 0 0 0 0 0 0 0 0.5 0"/>
<feBlend mode="normal" in2="BackgroundImageFix" result="effect1_dropShadow_451_27140"/>
<feBlend mode="normal" in="SourceGraphic" in2="effect1_dropShadow_451_27140" result="shape"/>
</filter>
</defs>
</svg>
