<svg width="428" height="220" viewBox="0 0 428 220" fill="none" xmlns="http://www.w3.org/2000/svg">
<g filter="url(#filter0_d_96_6347)">
<rect x="5" y="1" width="418" height="210" rx="4" fill="#EEECEC"/>
</g>
<path d="M5 29H44V211H9C6.79086 211 5 209.209 5 207V29Z" fill="#F8F8F8"/>
<rect x="12.7358" y="41.4151" width="24" height="24" rx="4" fill="#CECECE"/>
<rect x="13" y="109" width="24" height="24" rx="4" fill="#CECECE"/>
<rect x="13" y="142" width="24" height="24" rx="4" fill="#CECECE"/>
<rect x="6" y="74.0001" width="2" height="26" rx="1" fill="#0078D4"/>
<path d="M15.8318 92.6544C16.1445 92.6639 16.3552 92.728 16.5037 92.8059C16.6629 92.8896 16.7953 93.0126 16.916 93.1906C17.176 93.5741 17.3229 94.1027 17.5235 94.8244L17.5498 94.919C17.743 95.6131 17.995 96.4921 18.5509 97.1789C19.1582 97.9291 20.0547 98.374 21.3371 98.374H29.1231C30.7722 98.374 31.9859 97.2984 32.8597 95.9955C33.7393 94.6841 34.3919 92.9779 34.8982 91.3423L34.8989 91.34C35.4787 89.467 36.2125 87.0966 36.1853 85.1837C36.1716 84.2149 35.9637 83.2318 35.3185 82.4861C34.652 81.7156 33.6496 81.3457 32.3724 81.3457H32.1687C31.856 81.3363 31.6453 81.2722 31.4968 81.1943C31.3376 81.1106 31.2052 80.9876 31.0845 80.8096C30.8245 80.4261 30.6776 79.8975 30.477 79.1758L30.4507 79.0812C30.2575 78.3871 30.0055 77.508 29.4496 76.8213C28.8423 76.0711 27.9458 75.6262 26.6634 75.6262H18.8774C17.2283 75.6262 16.0146 76.7018 15.1408 78.0047C14.2612 79.3161 13.6086 81.0223 13.1023 82.6578L13.1016 82.6602C12.5218 84.5332 11.788 86.9036 11.8152 88.8165C11.8289 89.7852 12.0368 90.7684 12.682 91.5141C13.3485 92.2846 14.3509 92.6544 15.6281 92.6544H15.8318ZM14.6546 83.1384C15.1481 81.5442 15.7453 80.0207 16.4903 78.9098C17.2411 77.7904 18.0269 77.2512 18.8774 77.2512H24.0671C23.8438 77.6462 23.657 78.0872 23.4892 78.5436C23.269 79.1429 23.0646 79.818 22.8543 80.5127L22.8075 80.667C21.978 83.4042 20.9416 86.9261 20.2686 89.2246C19.9626 90.2697 19.0204 90.995 17.9381 91.0283H15.7511C15.7362 91.0283 15.7214 91.0287 15.7067 91.0294H15.6281C14.6633 91.0294 14.1779 90.7596 13.9109 90.451C13.6226 90.1176 13.4512 89.5823 13.44 88.7934C13.4173 87.1917 14.0501 85.0914 14.6546 83.1384ZM31.5102 95.0904C30.7594 96.2098 29.9736 96.749 29.1231 96.749H23.9334C24.1568 96.354 24.3435 95.913 24.5113 95.4566C24.7315 94.8573 24.9359 94.1821 25.1462 93.4875L25.193 93.3331C26.0225 90.5959 27.0589 87.0741 27.7319 84.7756C28.0379 83.7304 28.9801 83.0052 30.0624 82.9719H32.2494C32.2643 82.9719 32.2791 82.9715 32.2938 82.9707H32.3724C33.3372 82.9707 33.8226 83.2406 34.0896 83.5492C34.3779 83.8825 34.5493 84.4179 34.5605 85.2068C34.5832 86.8085 33.9504 88.9088 33.3459 90.8618C32.8524 92.456 32.2553 93.9795 31.5102 95.0904ZM22.3202 91.0283H21.1472C21.4488 90.6332 21.6824 90.1792 21.8282 89.6811C22.1221 88.6771 22.4852 87.4406 22.8698 86.1388L23.2793 84.7626C23.5954 83.7003 24.572 82.9719 25.6803 82.9719H26.8533C26.5517 83.367 26.3181 83.821 26.1723 84.319C25.8784 85.3231 25.5153 86.5596 25.1307 87.8614L24.7212 89.2376C24.4051 90.2999 23.4285 91.0283 22.3202 91.0283ZM25.6803 81.3469C25.1699 81.3469 24.6764 81.4406 24.2189 81.6138C24.2674 81.453 24.3154 81.2944 24.3627 81.1383L24.4052 80.9981C24.6201 80.2882 24.8113 79.657 25.0145 79.1041C25.2321 78.512 25.4441 78.0659 25.6725 77.7505C25.8736 77.473 26.1924 77.2512 26.6634 77.2512C27.5188 77.2512 27.9255 77.5213 28.1865 77.8437C28.4989 78.2297 28.6803 78.7808 28.8852 79.5169C28.9007 79.5727 28.9165 79.6301 28.9326 79.6887C29.0731 80.2 29.2402 80.8079 29.5184 81.3469H25.6803ZM22.3202 92.6533C22.8306 92.6533 23.3241 92.5596 23.7816 92.3863C23.7331 92.5472 23.6851 92.7058 23.6378 92.8619L23.5953 93.0021C23.3804 93.7119 23.1892 94.3432 22.986 94.8961C22.7684 95.4882 22.5564 95.9343 22.328 96.2497C22.1269 96.5272 21.8081 96.749 21.3371 96.749C20.4817 96.749 20.075 96.4789 19.814 96.1565C19.5016 95.7705 19.3202 95.2193 19.1153 94.4833C19.0998 94.4274 19.084 94.3701 19.0679 94.3115C18.9274 93.8002 18.7603 93.1923 18.4821 92.6533H22.3202Z" fill="#242424"/>
<line x1="5" y1="30.1157" x2="308.95" y2="30.1157" stroke="#E7E7E7"/>
<rect x="44" y="30" width="265" height="181.153" fill="#D2ECFF" fill-opacity="0.49"/>
<rect x="72" y="168" width="206" height="31" rx="8" fill="white"/>
<rect x="72.5" y="168.5" width="205" height="30" rx="7.5" stroke="#CCCCCC" stroke-opacity="0.5"/>
<line x1="72" y1="198.25" x2="278" y2="198.25" stroke="#0078D4" stroke-width="1.5"/>
<path d="M252.808 175.097L268.676 183.104C269.145 183.341 269.344 183.934 269.119 184.428C269.027 184.633 268.87 184.798 268.676 184.896L252.808 192.903C252.339 193.139 251.777 192.93 251.552 192.435C251.455 192.22 251.434 191.975 251.493 191.745L253.496 184L251.493 176.254C251.357 175.725 251.652 175.179 252.154 175.035C252.372 174.972 252.604 174.994 252.808 175.097ZM252.691 176.36L254.516 183.421L262.756 183.422C263.042 183.422 263.279 183.646 263.316 183.937L263.321 184.018C263.321 184.319 263.109 184.569 262.833 184.608L262.756 184.614L254.507 184.613L252.691 191.64L267.834 184L252.691 176.36Z" fill="#CCCCCC" fill-opacity="0.5"/>
<rect x="142.5" y="84.5" width="65" height="34" rx="7.5" fill="white" stroke="#D9D9D9"/>
<rect x="72.5" y="84.5" width="65" height="34" rx="7.5" fill="white" stroke="#D9D9D9"/>
<rect x="142.5" y="124.5" width="65" height="34" rx="7.5" fill="white" stroke="#D9D9D9"/>
<rect x="212.5" y="84.5" width="65" height="34" rx="7.5" fill="white" stroke="#D9D9D9"/>
<rect x="212.5" y="124.5" width="65" height="34" rx="7.5" fill="white" stroke="#D9D9D9"/>
<rect x="72.5" y="124.5" width="65" height="34" rx="7.5" fill="white" stroke="#D9D9D9"/>
<path d="M163.69 65.8291C164.123 65.8421 164.415 65.9309 164.62 66.0388C164.841 66.1546 165.024 66.325 165.191 66.5714C165.551 67.1024 165.755 67.8343 166.032 68.8336L166.069 68.9647C166.336 69.9257 166.685 71.1428 167.455 72.0937C168.296 73.1324 169.537 73.7485 171.313 73.7485H182.093C184.377 73.7485 186.057 72.2592 187.267 70.4552C188.485 68.6394 189.389 66.2769 190.09 64.0123L190.091 64.0091C190.893 61.4157 191.909 58.1336 191.872 55.485C191.853 54.1436 191.565 52.7824 190.672 51.7498C189.749 50.6829 188.361 50.1709 186.592 50.1709H186.31C185.877 50.1578 185.586 50.0691 185.38 49.9611C185.159 49.8453 184.976 49.675 184.809 49.4285C184.449 48.8976 184.246 48.1657 183.968 47.1664L183.931 47.0353C183.664 46.0742 183.315 44.8571 182.545 43.9063C181.704 42.8676 180.463 42.2515 178.688 42.2515H167.907C165.624 42.2515 163.943 43.7408 162.733 45.5448C161.515 47.3606 160.612 49.7231 159.911 51.9876L159.91 51.9909C159.107 54.5843 158.091 57.8664 158.128 60.515C158.148 61.8564 158.435 63.2176 159.329 64.2502C160.252 65.317 161.639 65.8291 163.408 65.8291H163.69ZM162.06 52.653C162.743 50.4456 163.57 48.3362 164.602 46.7981C165.641 45.2481 166.729 44.5015 167.907 44.5015H175.093C174.783 45.0484 174.525 45.6591 174.293 46.2909C173.988 47.1208 173.705 48.0556 173.413 49.0174L173.349 49.2312C172.2 53.0211 170.765 57.8975 169.833 61.08C169.41 62.5272 168.105 63.5313 166.606 63.5774H163.578C163.558 63.5774 163.537 63.578 163.517 63.5791H163.408C162.072 63.5791 161.4 63.2054 161.03 62.7781C160.631 62.3166 160.394 61.5753 160.378 60.483C160.347 58.2653 161.223 55.3572 162.06 52.653ZM185.398 69.2019C184.359 70.7519 183.271 71.4985 182.093 71.4985H174.908C175.217 70.9515 175.475 70.3409 175.708 69.709C176.013 68.8792 176.296 67.9444 176.587 66.9826L176.652 66.7688C177.8 62.9789 179.235 58.1025 180.167 54.92C180.591 53.4728 181.895 52.4686 183.394 52.4225H186.422C186.443 52.4225 186.463 52.422 186.483 52.4209H186.592C187.928 52.4209 188.6 52.7945 188.97 53.2218C189.369 53.6834 189.606 54.4247 189.622 55.517C189.653 57.7347 188.777 60.6428 187.94 63.347C187.257 65.5543 186.43 67.6638 185.398 69.2019ZM172.674 63.5774H171.05C171.467 63.0304 171.791 62.4018 171.993 61.7122C172.4 60.322 172.902 58.61 173.435 56.8075L174.002 54.9019C174.44 53.431 175.792 52.4225 177.326 52.4225H178.95C178.533 52.9696 178.209 53.5982 178.008 54.2878C177.601 55.678 177.098 57.39 176.565 59.1925L175.998 61.0981C175.561 62.569 174.208 63.5774 172.674 63.5774ZM177.326 50.1725C176.62 50.1725 175.936 50.3023 175.303 50.5421C175.37 50.3194 175.436 50.0998 175.502 49.8837L175.561 49.6896C175.858 48.7067 176.123 47.8326 176.404 47.0671C176.706 46.2472 176.999 45.6296 177.316 45.1929C177.594 44.8086 178.035 44.5015 178.688 44.5015C179.872 44.5015 180.435 44.8755 180.796 45.322C181.229 45.8563 181.48 46.6195 181.764 47.6387C181.785 47.716 181.807 47.7954 181.829 47.8765C182.024 48.5844 182.255 49.4262 182.641 50.1725H177.326ZM172.674 65.8274C173.381 65.8274 174.064 65.6977 174.697 65.4579C174.63 65.6805 174.564 65.9002 174.498 66.1163L174.439 66.3104C174.142 67.2933 173.877 68.1674 173.596 68.9329C173.294 69.7527 173.001 70.3704 172.685 70.8071C172.406 71.1914 171.965 71.4985 171.313 71.4985C170.128 71.4985 169.565 71.1245 169.204 70.678C168.771 70.1437 168.52 69.3805 168.236 68.3613C168.215 68.284 168.193 68.2046 168.171 68.1234C167.976 67.4156 167.745 66.5738 167.36 65.8274H172.674Z" fill="#242424"/>
<line x1="5" y1="29.5" x2="423" y2="29.5" stroke="#D9D9D9"/>
<path d="M21.3838 20H20.2314V15.4688C20.2314 15.0977 20.2542 14.6436 20.2998 14.1064H20.2803C20.2087 14.4124 20.1452 14.6322 20.0898 14.7656L18 20H17.1992L15.1045 14.8047C15.0459 14.6517 14.984 14.4189 14.9189 14.1064H14.8994C14.9255 14.3864 14.9385 14.8438 14.9385 15.4785V20H13.8643V12.998H15.5L17.3408 17.6611C17.4808 18.0192 17.5719 18.2861 17.6143 18.4619H17.6387C17.7591 18.0941 17.8568 17.8206 17.9316 17.6416L19.8066 12.998H21.3838V20ZM23.5566 13.9502C23.3711 13.9502 23.2116 13.89 23.0781 13.7695C22.9479 13.6491 22.8828 13.4961 22.8828 13.3105C22.8828 13.125 22.9479 12.9704 23.0781 12.8467C23.2116 12.723 23.3711 12.6611 23.5566 12.6611C23.7487 12.6611 23.9115 12.723 24.0449 12.8467C24.1784 12.9704 24.2451 13.125 24.2451 13.3105C24.2451 13.4863 24.1784 13.6377 24.0449 13.7646C23.9115 13.8883 23.7487 13.9502 23.5566 13.9502ZM24.1182 20H22.9854V15H24.1182V20ZM29.1816 19.7705C28.7812 20.0016 28.3076 20.1172 27.7607 20.1172C27.0186 20.1172 26.4196 19.8861 25.9639 19.4238C25.5081 18.9583 25.2803 18.3561 25.2803 17.6172C25.2803 16.7936 25.5244 16.1328 26.0127 15.6348C26.5042 15.1335 27.1602 14.8828 27.9805 14.8828C28.4362 14.8828 28.8382 14.9626 29.1865 15.1221V16.1768C28.8382 15.9163 28.4671 15.7861 28.0732 15.7861C27.5947 15.7861 27.2025 15.9489 26.8965 16.2744C26.5905 16.5967 26.4375 17.0199 26.4375 17.5439C26.4375 18.0615 26.5807 18.4701 26.8672 18.7695C27.1569 19.069 27.5443 19.2188 28.0293 19.2188C28.4362 19.2188 28.8203 19.0739 29.1816 18.7842V19.7705ZM33.21 16.0791C33.0732 15.9717 32.8763 15.918 32.6191 15.918C32.2839 15.918 32.0039 16.0693 31.7793 16.3721C31.5547 16.6748 31.4424 17.0866 31.4424 17.6074V20H30.3096V15H31.4424V16.0303H31.4619C31.5726 15.6787 31.7419 15.4053 31.9697 15.21C32.2008 15.0114 32.458 14.9121 32.7412 14.9121C32.9463 14.9121 33.1025 14.943 33.21 15.0049V16.0791ZM36.1396 20.1172C35.3682 20.1172 34.7513 19.8844 34.2891 19.4189C33.8301 18.9502 33.6006 18.3301 33.6006 17.5586C33.6006 16.7188 33.8398 16.0628 34.3184 15.5908C34.8001 15.1188 35.4479 14.8828 36.2617 14.8828C37.043 14.8828 37.6517 15.1123 38.0879 15.5713C38.5241 16.0303 38.7422 16.6667 38.7422 17.4805C38.7422 18.278 38.5062 18.9176 38.0342 19.3994C37.5654 19.8779 36.9339 20.1172 36.1396 20.1172ZM36.1934 15.7861C35.7507 15.7861 35.4007 15.9408 35.1436 16.25C34.8864 16.5592 34.7578 16.9857 34.7578 17.5293C34.7578 18.0534 34.888 18.4668 35.1484 18.7695C35.4089 19.069 35.7572 19.2188 36.1934 19.2188C36.6393 19.2188 36.9811 19.0706 37.2188 18.7744C37.4596 18.4782 37.5801 18.0566 37.5801 17.5098C37.5801 16.9596 37.4596 16.5348 37.2188 16.2354C36.9811 15.9359 36.6393 15.7861 36.1934 15.7861ZM39.5869 19.8438V18.7939C40.0101 19.1162 40.4772 19.2773 40.9883 19.2773C41.6719 19.2773 42.0137 19.0755 42.0137 18.6719C42.0137 18.5579 41.9844 18.4619 41.9258 18.3838C41.8672 18.3024 41.7874 18.2308 41.6865 18.1689C41.5889 18.1071 41.4717 18.0518 41.335 18.0029C41.2015 17.9541 41.0518 17.8988 40.8857 17.8369C40.6807 17.7555 40.4951 17.6693 40.3291 17.5781C40.1663 17.487 40.0296 17.3844 39.9189 17.2705C39.8115 17.1533 39.7301 17.0215 39.6748 16.875C39.6195 16.7285 39.5918 16.5576 39.5918 16.3623C39.5918 16.1214 39.6488 15.9098 39.7627 15.7275C39.8766 15.542 40.0296 15.3874 40.2217 15.2637C40.4137 15.1367 40.6318 15.0423 40.876 14.9805C41.1201 14.9154 41.3724 14.8828 41.6328 14.8828C42.0951 14.8828 42.5085 14.9528 42.873 15.0928V16.084C42.5215 15.8431 42.1178 15.7227 41.6621 15.7227C41.5189 15.7227 41.3887 15.7373 41.2715 15.7666C41.1576 15.7959 41.0599 15.8366 40.9785 15.8887C40.8971 15.9408 40.8337 16.0042 40.7881 16.0791C40.7425 16.1507 40.7197 16.2305 40.7197 16.3184C40.7197 16.4258 40.7425 16.5169 40.7881 16.5918C40.8337 16.6667 40.9004 16.7334 40.9883 16.792C41.0794 16.8473 41.1868 16.8994 41.3105 16.9482C41.4375 16.9938 41.5824 17.0443 41.7451 17.0996C41.96 17.1875 42.152 17.277 42.3213 17.3682C42.4938 17.4593 42.6403 17.5635 42.7607 17.6807C42.8812 17.7946 42.974 17.9281 43.0391 18.0811C43.1042 18.2308 43.1367 18.4098 43.1367 18.6182C43.1367 18.8721 43.0781 19.0934 42.9609 19.2822C42.8438 19.471 42.6875 19.6273 42.4922 19.751C42.2969 19.8747 42.0706 19.9658 41.8135 20.0244C41.5596 20.0863 41.291 20.1172 41.0078 20.1172C40.4609 20.1172 39.9873 20.026 39.5869 19.8438ZM46.4326 20.1172C45.6611 20.1172 45.0443 19.8844 44.582 19.4189C44.123 18.9502 43.8936 18.3301 43.8936 17.5586C43.8936 16.7188 44.1328 16.0628 44.6113 15.5908C45.0931 15.1188 45.7409 14.8828 46.5547 14.8828C47.3359 14.8828 47.9447 15.1123 48.3809 15.5713C48.8171 16.0303 49.0352 16.6667 49.0352 17.4805C49.0352 18.278 48.7992 18.9176 48.3271 19.3994C47.8584 19.8779 47.2269 20.1172 46.4326 20.1172ZM46.4863 15.7861C46.0436 15.7861 45.6937 15.9408 45.4365 16.25C45.1794 16.5592 45.0508 16.9857 45.0508 17.5293C45.0508 18.0534 45.181 18.4668 45.4414 18.7695C45.7018 19.069 46.0501 19.2188 46.4863 19.2188C46.9323 19.2188 47.2741 19.0706 47.5117 18.7744C47.7526 18.4782 47.873 18.0566 47.873 17.5098C47.873 16.9596 47.7526 16.5348 47.5117 16.2354C47.2741 15.9359 46.9323 15.7861 46.4863 15.7861ZM52.8535 13.5205C52.7005 13.4326 52.5264 13.3887 52.3311 13.3887C51.7809 13.3887 51.5059 13.6995 51.5059 14.3213V15H52.668V15.8887H51.5107V20H50.3779V15.8887H49.5234V15H50.3779V14.1895C50.3779 13.6621 50.5505 13.2471 50.8955 12.9443C51.2406 12.6383 51.6719 12.4854 52.1895 12.4854C52.4694 12.4854 52.6908 12.5163 52.8535 12.5781V13.5205ZM56.2959 19.9463C56.0745 20.057 55.7832 20.1123 55.4219 20.1123C54.4518 20.1123 53.9668 19.6468 53.9668 18.7158V15.8887H53.1318V15H53.9668V13.8428L55.0996 13.5205V15H56.2959V15.8887H55.0996V18.3887C55.0996 18.6849 55.1533 18.8965 55.2607 19.0234C55.3682 19.1504 55.5472 19.2139 55.7979 19.2139C55.9899 19.2139 56.1559 19.1585 56.2959 19.0479V19.9463Z" fill="#505050"/>
<rect x="313" y="38" width="106" height="20" rx="4" fill="white"/>
<path d="M327.064 53.3652H330.754C331.538 53.3652 332.118 52.8622 332.538 52.2373C332.96 51.6101 333.273 50.7884 333.515 49.9832C333.794 49.0604 334.144 47.8979 334.131 46.9613C334.125 46.4881 334.026 46.0104 333.72 45.6479C333.404 45.272 332.925 45.0894 332.312 45.0894H331.979C331.693 45.0656 331.445 44.8749 331.349 44.5993L331.017 43.6417C330.807 43.0387 330.241 42.6347 329.605 42.6347H328.948L328.936 42.6348H325.245C324.462 42.6348 323.882 43.1379 323.462 43.7627C323.04 44.3899 322.727 45.2116 322.484 46.0168C322.206 46.9396 321.856 48.1021 321.869 49.0387C321.875 49.5119 321.974 49.9896 322.279 50.3521C322.596 50.728 323.075 50.9106 323.688 50.9106H324.021C324.307 50.9344 324.555 51.1251 324.651 51.4007L324.983 52.3584C325.192 52.9613 325.759 53.3653 326.395 53.3653H327.052C327.056 53.3653 327.06 53.3653 327.064 53.3652ZM327.828 46.9713L328.02 46.369C328.116 46.0648 328.398 45.8584 328.716 45.8584H329.122C329.067 45.9582 329.022 46.0655 328.989 46.179C328.789 46.8831 328.483 47.955 328.172 49.0289L327.98 49.631C327.883 49.9352 327.602 50.1416 327.283 50.1416H326.878C326.933 50.0418 326.978 49.9345 327.01 49.821C327.211 49.1169 327.517 48.0451 327.828 46.9713ZM327.635 50.866C327.539 51.194 327.451 51.4877 327.358 51.7468C327.254 52.0388 327.152 52.2602 327.041 52.4173C326.975 52.5111 326.847 52.5988 326.562 52.5988C326.56 52.5988 326.558 52.5988 326.556 52.5988H326.395C326.084 52.5988 325.807 52.4012 325.704 52.1062L325.372 51.1485C325.343 51.0652 325.307 50.9857 325.265 50.9106H325.572C325.601 50.9106 325.63 50.9097 325.659 50.9081L327.283 50.9081C327.404 50.9081 327.522 50.8936 327.635 50.866ZM330.628 44.8515C330.657 44.9348 330.693 45.0143 330.734 45.0894H330.428C330.399 45.0894 330.37 45.0903 330.341 45.092H328.716C328.596 45.092 328.478 45.1064 328.364 45.134C328.461 44.806 328.549 44.5123 328.641 44.2532C328.746 43.9612 328.848 43.7398 328.959 43.5827C329.025 43.489 329.153 43.4012 329.438 43.4012L329.444 43.4012H329.605C329.916 43.4012 330.193 43.5988 330.296 43.8938L330.628 44.8515ZM323.215 46.2388C323.452 45.4553 323.738 44.7221 324.095 44.1915C324.453 43.6587 324.831 43.4012 325.245 43.4012H328.177C328.08 43.5839 327.997 43.7854 327.923 43.9941C327.817 44.2882 327.72 44.6197 327.619 44.9616L327.596 45.0374C327.153 46.5379 326.587 48.5181 326.276 49.6104C326.186 49.9264 325.899 50.1441 325.572 50.1441H323.688C323.227 50.1441 322.993 50.0121 322.862 49.8571C322.721 49.6888 322.638 49.4196 322.632 49.0281C322.621 48.2355 322.926 47.1983 323.215 46.2388ZM331.905 51.8085C331.547 52.3413 331.169 52.5988 330.754 52.5988H327.823C327.92 52.4161 328.002 52.2146 328.077 52.006C328.182 51.7118 328.28 51.3803 328.381 51.0384L328.403 50.9626C328.846 49.4621 329.413 47.4819 329.724 46.3896C329.814 46.0736 330.101 45.8559 330.428 45.8559H332.312C332.773 45.8559 333.007 45.9879 333.137 46.1429C333.279 46.3112 333.362 46.5804 333.368 46.9719C333.379 47.7645 333.074 48.8017 332.785 49.7612C332.548 50.5447 332.262 51.278 331.905 51.8085Z" fill="#242424"/>
<rect x="317" y="43" width="2" height="10" rx="1" fill="#0078D4"/>
<path d="M319.616 77H318.342L317.712 75.2178H314.958L314.353 77H313.083L315.705 69.998H317.014L319.616 77ZM317.404 74.2705L316.433 71.4775C316.403 71.3864 316.372 71.2399 316.34 71.0381H316.32C316.291 71.2236 316.258 71.3701 316.223 71.4775L315.261 74.2705H317.404ZM325.007 76.5996C325.007 78.4355 324.084 79.3535 322.238 79.3535C321.587 79.3535 321.019 79.2445 320.534 79.0264V77.9912C321.081 78.3037 321.6 78.46 322.092 78.46C323.28 78.46 323.874 77.8757 323.874 76.707V76.1602H323.854C323.48 76.7982 322.917 77.1172 322.165 77.1172C321.556 77.1172 321.065 76.8958 320.69 76.4531C320.319 76.0072 320.134 75.4098 320.134 74.6611C320.134 73.8115 320.334 73.1361 320.734 72.6348C321.135 72.1335 321.685 71.8828 322.385 71.8828C323.046 71.8828 323.535 72.153 323.854 72.6934H323.874V72H325.007V76.5996ZM323.884 74.71V74.0605C323.884 73.709 323.767 73.4095 323.532 73.1621C323.301 72.9115 323.011 72.7861 322.663 72.7861C322.233 72.7861 321.896 72.9456 321.652 73.2646C321.411 73.5804 321.291 74.0231 321.291 74.5928C321.291 75.0843 321.407 75.4782 321.638 75.7744C321.872 76.0674 322.181 76.2139 322.565 76.2139C322.956 76.2139 323.273 76.0739 323.518 75.7939C323.762 75.5107 323.884 75.1494 323.884 74.71ZM330.715 74.8076H327.307C327.32 75.2699 327.461 75.6263 327.731 75.877C328.005 76.1276 328.379 76.2529 328.854 76.2529C329.388 76.2529 329.878 76.0934 330.324 75.7744V76.6875C329.868 76.974 329.266 77.1172 328.518 77.1172C327.782 77.1172 327.204 76.891 326.784 76.4385C326.368 75.9827 326.159 75.3431 326.159 74.5195C326.159 73.7415 326.389 73.1084 326.848 72.6201C327.31 72.1286 327.883 71.8828 328.566 71.8828C329.25 71.8828 329.779 72.1025 330.153 72.542C330.528 72.9814 330.715 73.5918 330.715 74.373V74.8076ZM329.621 74.0068C329.618 73.5999 329.522 73.2842 329.333 73.0596C329.144 72.8317 328.884 72.7178 328.552 72.7178C328.226 72.7178 327.95 72.8366 327.722 73.0742C327.497 73.3118 327.359 73.6227 327.307 74.0068H329.621ZM336.247 77H335.114V74.1826C335.114 73.2484 334.784 72.7812 334.123 72.7812C333.778 72.7812 333.493 72.9115 333.269 73.1719C333.044 73.429 332.932 73.7546 332.932 74.1484V77H331.794V72H332.932V72.8301H332.951C333.326 72.1986 333.866 71.8828 334.572 71.8828C335.116 71.8828 335.531 72.0602 335.817 72.415C336.104 72.7666 336.247 73.276 336.247 73.9434V77ZM340.271 76.9463C340.049 77.057 339.758 77.1123 339.396 77.1123C338.426 77.1123 337.941 76.6468 337.941 75.7158V72.8887H337.106V72H337.941V70.8428L339.074 70.5205V72H340.271V72.8887H339.074V75.3887C339.074 75.6849 339.128 75.8965 339.235 76.0234C339.343 76.1504 339.522 76.2139 339.772 76.2139C339.965 76.2139 340.131 76.1585 340.271 76.0479V76.9463ZM340.935 76.8438V75.7939C341.358 76.1162 341.825 76.2773 342.336 76.2773C343.02 76.2773 343.361 76.0755 343.361 75.6719C343.361 75.5579 343.332 75.4619 343.273 75.3838C343.215 75.3024 343.135 75.2308 343.034 75.1689C342.937 75.1071 342.819 75.0518 342.683 75.0029C342.549 74.9541 342.399 74.8988 342.233 74.8369C342.028 74.7555 341.843 74.6693 341.677 74.5781C341.514 74.487 341.377 74.3844 341.267 74.2705C341.159 74.1533 341.078 74.0215 341.022 73.875C340.967 73.7285 340.939 73.5576 340.939 73.3623C340.939 73.1214 340.996 72.9098 341.11 72.7275C341.224 72.542 341.377 72.3874 341.569 72.2637C341.761 72.1367 341.979 72.0423 342.224 71.9805C342.468 71.9154 342.72 71.8828 342.98 71.8828C343.443 71.8828 343.856 71.9528 344.221 72.0928V73.084C343.869 72.8431 343.465 72.7227 343.01 72.7227C342.867 72.7227 342.736 72.7373 342.619 72.7666C342.505 72.7959 342.408 72.8366 342.326 72.8887C342.245 72.9408 342.181 73.0042 342.136 73.0791C342.09 73.1507 342.067 73.2305 342.067 73.3184C342.067 73.4258 342.09 73.5169 342.136 73.5918C342.181 73.6667 342.248 73.7334 342.336 73.792C342.427 73.8473 342.535 73.8994 342.658 73.9482C342.785 73.9938 342.93 74.0443 343.093 74.0996C343.308 74.1875 343.5 74.277 343.669 74.3682C343.841 74.4593 343.988 74.5635 344.108 74.6807C344.229 74.7946 344.322 74.9281 344.387 75.0811C344.452 75.2308 344.484 75.4098 344.484 75.6182C344.484 75.8721 344.426 76.0934 344.309 76.2822C344.191 76.471 344.035 76.6273 343.84 76.751C343.645 76.8747 343.418 76.9658 343.161 77.0244C342.907 77.0863 342.639 77.1172 342.355 77.1172C341.809 77.1172 341.335 77.026 340.935 76.8438Z" fill="#3B3B3B"/>
<path d="M316.75 89C315.784 89 315 89.7835 315 90.75V99.25C315 100.216 315.784 101 316.75 101H325.25C326.216 101 327 100.216 327 99.25V96.25C327 95.2835 326.216 94.5 325.25 94.5H321.5V90.75C321.5 89.7835 320.716 89 319.75 89H316.75ZM320.5 95.5V100H316.75C316.336 100 316 99.6642 316 99.25V95.5H320.5ZM320.5 90.75V94.5H316V90.75C316 90.3358 316.336 90 316.75 90H319.75C320.164 90 320.5 90.3358 320.5 90.75ZM325.25 100H321.5V95.5H325.25C325.664 95.5 326 95.8358 326 96.25V99.25C326 99.6642 325.664 100 325.25 100Z" fill="#0078D4"/>
<path fill-rule="evenodd" clip-rule="evenodd" d="M328 88H324L324 92H328V88ZM324 87C323.448 87 323 87.4477 323 88V92C323 92.5523 323.448 93 324 93H328C328.552 93 329 92.5523 329 92V88C329 87.4477 328.552 87 328 87H324Z" fill="#0078D4"/>
<path d="M333.918 99.5V92.498H335.852C338.319 92.498 339.553 93.6357 339.553 95.9111C339.553 96.9919 339.209 97.861 338.522 98.5186C337.839 99.1729 336.923 99.5 335.773 99.5H333.918ZM334.738 93.2402V98.7578H335.783C336.701 98.7578 337.416 98.512 337.927 98.0205C338.438 97.529 338.693 96.8324 338.693 95.9307C338.693 94.137 337.74 93.2402 335.832 93.2402H334.738ZM344.841 97.2002H341.311C341.324 97.7568 341.473 98.1865 341.76 98.4893C342.046 98.792 342.44 98.9434 342.941 98.9434C343.505 98.9434 344.022 98.7578 344.494 98.3867V99.1387C344.055 99.4577 343.474 99.6172 342.751 99.6172C342.045 99.6172 341.49 99.391 341.086 98.9385C340.682 98.4827 340.48 97.8431 340.48 97.0195C340.48 96.2415 340.7 95.6084 341.14 95.1201C341.582 94.6286 342.131 94.3828 342.785 94.3828C343.439 94.3828 343.946 94.5944 344.304 95.0176C344.662 95.4408 344.841 96.0283 344.841 96.7803V97.2002ZM344.021 96.5215C344.017 96.0592 343.905 95.6995 343.684 95.4424C343.465 95.1852 343.161 95.0566 342.771 95.0566C342.393 95.0566 342.072 95.1917 341.809 95.4619C341.545 95.7321 341.382 96.0853 341.32 96.5215H344.021ZM349.465 99.2705C349.081 99.5016 348.625 99.6172 348.098 99.6172C347.385 99.6172 346.809 99.3861 346.369 98.9238C345.933 98.4583 345.715 97.8561 345.715 97.1172C345.715 96.2936 345.951 95.6328 346.423 95.1348C346.895 94.6335 347.525 94.3828 348.312 94.3828C348.752 94.3828 349.139 94.4642 349.475 94.627V95.4473C349.104 95.1868 348.706 95.0566 348.283 95.0566C347.772 95.0566 347.352 95.2406 347.023 95.6084C346.698 95.973 346.535 96.4531 346.535 97.0488C346.535 97.6348 346.688 98.097 346.994 98.4355C347.303 98.7741 347.717 98.9434 348.234 98.9434C348.671 98.9434 349.081 98.7985 349.465 98.5088V99.2705ZM351.477 99.5H350.676V92.0977H351.477V99.5ZM356.677 99.5H355.876V98.7188H355.856C355.508 99.3177 354.995 99.6172 354.318 99.6172C353.82 99.6172 353.43 99.4854 353.146 99.2217C352.867 98.958 352.727 98.6081 352.727 98.1719C352.727 97.2376 353.277 96.694 354.377 96.541L355.876 96.3311C355.876 95.4814 355.533 95.0566 354.846 95.0566C354.243 95.0566 353.7 95.2617 353.215 95.6719V94.8516C353.706 94.5391 354.273 94.3828 354.914 94.3828C356.089 94.3828 356.677 95.0046 356.677 96.248V99.5ZM355.876 96.9707L354.67 97.1367C354.299 97.1888 354.019 97.2816 353.83 97.415C353.641 97.5452 353.547 97.778 353.547 98.1133C353.547 98.3574 353.633 98.5576 353.806 98.7139C353.981 98.8669 354.214 98.9434 354.504 98.9434C354.901 98.9434 355.228 98.805 355.485 98.5283C355.746 98.2484 355.876 97.8952 355.876 97.4688V96.9707ZM360.793 95.3105C360.653 95.2031 360.451 95.1494 360.188 95.1494C359.846 95.1494 359.559 95.3105 359.328 95.6328C359.1 95.9551 358.986 96.3945 358.986 96.9512V99.5H358.186V94.5H358.986V95.5303H359.006C359.12 95.1787 359.294 94.9053 359.528 94.71C359.763 94.5114 360.025 94.4121 360.314 94.4121C360.523 94.4121 360.682 94.4349 360.793 94.4805V95.3105ZM365.241 99.5H364.44V98.7188H364.421C364.073 99.3177 363.56 99.6172 362.883 99.6172C362.385 99.6172 361.994 99.4854 361.711 99.2217C361.431 98.958 361.291 98.6081 361.291 98.1719C361.291 97.2376 361.841 96.694 362.941 96.541L364.44 96.3311C364.44 95.4814 364.097 95.0566 363.41 95.0566C362.808 95.0566 362.264 95.2617 361.779 95.6719V94.8516C362.271 94.5391 362.837 94.3828 363.479 94.3828C364.654 94.3828 365.241 95.0046 365.241 96.248V99.5ZM364.44 96.9707L363.234 97.1367C362.863 97.1888 362.583 97.2816 362.395 97.415C362.206 97.5452 362.111 97.778 362.111 98.1133C362.111 98.3574 362.198 98.5576 362.37 98.7139C362.546 98.8669 362.779 98.9434 363.068 98.9434C363.465 98.9434 363.793 98.805 364.05 98.5283C364.31 98.2484 364.44 97.8952 364.44 97.4688V96.9707ZM369.069 99.4512C368.881 99.5553 368.632 99.6074 368.322 99.6074C367.447 99.6074 367.009 99.1191 367.009 98.1426V95.1836H366.149V94.5H367.009V93.2793L367.81 93.0205V94.5H369.069V95.1836H367.81V98.001C367.81 98.3363 367.867 98.5755 367.98 98.7188C368.094 98.862 368.283 98.9336 368.547 98.9336C368.749 98.9336 368.923 98.8783 369.069 98.7676V99.4512ZM370.549 93.2305C370.406 93.2305 370.284 93.1816 370.183 93.084C370.082 92.9863 370.031 92.8626 370.031 92.7129C370.031 92.5632 370.082 92.4395 370.183 92.3418C370.284 92.2409 370.406 92.1904 370.549 92.1904C370.695 92.1904 370.819 92.2409 370.92 92.3418C371.024 92.4395 371.076 92.5632 371.076 92.7129C371.076 92.8561 371.024 92.9782 370.92 93.0791C370.819 93.18 370.695 93.2305 370.549 93.2305ZM370.939 99.5H370.139V94.5H370.939V99.5ZM376.491 94.5L374.499 99.5H373.713L371.818 94.5H372.697L373.967 98.1328C374.061 98.3997 374.12 98.6325 374.143 98.8311H374.162C374.195 98.5804 374.247 98.3542 374.318 98.1523L375.646 94.5H376.491ZM381.374 97.2002H377.844C377.857 97.7568 378.007 98.1865 378.293 98.4893C378.579 98.792 378.973 98.9434 379.475 98.9434C380.038 98.9434 380.555 98.7578 381.027 98.3867V99.1387C380.588 99.4577 380.007 99.6172 379.284 99.6172C378.578 99.6172 378.023 99.391 377.619 98.9385C377.215 98.4827 377.014 97.8431 377.014 97.0195C377.014 96.2415 377.233 95.6084 377.673 95.1201C378.116 94.6286 378.664 94.3828 379.318 94.3828C379.973 94.3828 380.479 94.5944 380.837 95.0176C381.195 95.4408 381.374 96.0283 381.374 96.7803V97.2002ZM380.554 96.5215C380.55 96.0592 380.438 95.6995 380.217 95.4424C379.999 95.1852 379.694 95.0566 379.304 95.0566C378.926 95.0566 378.605 95.1917 378.342 95.4619C378.078 95.7321 377.915 96.0853 377.854 96.5215H380.554ZM388.913 99.5H388.112V98.7188H388.093C387.744 99.3177 387.232 99.6172 386.555 99.6172C386.057 99.6172 385.666 99.4854 385.383 99.2217C385.103 98.958 384.963 98.6081 384.963 98.1719C384.963 97.2376 385.513 96.694 386.613 96.541L388.112 96.3311C388.112 95.4814 387.769 95.0566 387.082 95.0566C386.48 95.0566 385.936 95.2617 385.451 95.6719V94.8516C385.943 94.5391 386.509 94.3828 387.15 94.3828C388.326 94.3828 388.913 95.0046 388.913 96.248V99.5ZM388.112 96.9707L386.906 97.1367C386.535 97.1888 386.255 97.2816 386.066 97.415C385.878 97.5452 385.783 97.778 385.783 98.1133C385.783 98.3574 385.869 98.5576 386.042 98.7139C386.218 98.8669 386.451 98.9434 386.74 98.9434C387.137 98.9434 387.465 98.805 387.722 98.5283C387.982 98.2484 388.112 97.8952 388.112 97.4688V96.9707ZM394.689 99.0996C394.689 100.936 393.811 101.854 392.053 101.854C391.434 101.854 390.894 101.736 390.432 101.502V100.701C390.995 101.014 391.532 101.17 392.043 101.17C393.273 101.17 393.889 100.516 393.889 99.207V98.6602H393.869C393.488 99.2982 392.915 99.6172 392.15 99.6172C391.529 99.6172 391.027 99.3958 390.646 98.9531C390.269 98.5072 390.08 97.9098 390.08 97.1611C390.08 96.3115 390.284 95.6361 390.69 95.1348C391.101 94.6335 391.66 94.3828 392.37 94.3828C393.044 94.3828 393.544 94.653 393.869 95.1934H393.889V94.5H394.689V99.0996ZM393.889 97.2393V96.502C393.889 96.1048 393.754 95.7646 393.483 95.4814C393.216 95.1982 392.883 95.0566 392.482 95.0566C391.988 95.0566 391.6 95.2373 391.32 95.5986C391.04 95.9567 390.9 96.4596 390.9 97.1074C390.9 97.6641 391.034 98.11 391.301 98.4453C391.571 98.7773 391.927 98.9434 392.37 98.9434C392.819 98.9434 393.184 98.7839 393.464 98.4648C393.747 98.1458 393.889 97.7373 393.889 97.2393ZM400.329 97.2002H396.799C396.812 97.7568 396.962 98.1865 397.248 98.4893C397.535 98.792 397.928 98.9434 398.43 98.9434C398.993 98.9434 399.51 98.7578 399.982 98.3867V99.1387C399.543 99.4577 398.962 99.6172 398.239 99.6172C397.533 99.6172 396.978 99.391 396.574 98.9385C396.171 98.4827 395.969 97.8431 395.969 97.0195C395.969 96.2415 396.188 95.6084 396.628 95.1201C397.071 94.6286 397.619 94.3828 398.273 94.3828C398.928 94.3828 399.434 94.5944 399.792 95.0176C400.15 95.4408 400.329 96.0283 400.329 96.7803V97.2002ZM399.509 96.5215C399.506 96.0592 399.393 95.6995 399.172 95.4424C398.954 95.1852 398.649 95.0566 398.259 95.0566C397.881 95.0566 397.561 95.1917 397.297 95.4619C397.033 95.7321 396.87 96.0853 396.809 96.5215H399.509ZM405.695 99.5H404.895V96.6484C404.895 95.5872 404.507 95.0566 403.732 95.0566C403.332 95.0566 403 95.208 402.736 95.5107C402.476 95.8102 402.346 96.1895 402.346 96.6484V99.5H401.545V94.5H402.346V95.3301H402.365C402.743 94.6986 403.29 94.3828 404.006 94.3828C404.553 94.3828 404.971 94.5602 405.261 94.915C405.55 95.2666 405.695 95.776 405.695 96.4434V99.5ZM409.528 99.4512C409.34 99.5553 409.09 99.6074 408.781 99.6074C407.906 99.6074 407.468 99.1191 407.468 98.1426V95.1836H406.608V94.5H407.468V93.2793L408.269 93.0205V94.5H409.528V95.1836H408.269V98.001C408.269 98.3363 408.326 98.5755 408.439 98.7188C408.553 98.862 408.742 98.9336 409.006 98.9336C409.208 98.9336 409.382 98.8783 409.528 98.7676V99.4512Z" fill="#3B3B3B"/>
<defs>
<filter id="filter0_d_96_6347" x="0" y="0" width="428" height="220" filterUnits="userSpaceOnUse" color-interpolation-filters="sRGB">
<feFlood flood-opacity="0" result="BackgroundImageFix"/>
<feColorMatrix in="SourceAlpha" type="matrix" values="0 0 0 0 0 0 0 0 0 0 0 0 0 0 0 0 0 0 127 0" result="hardAlpha"/>
<feMorphology radius="1" operator="dilate" in="SourceAlpha" result="effect1_dropShadow_96_6347"/>
<feOffset dy="4"/>
<feGaussianBlur stdDeviation="2"/>
<feComposite in2="hardAlpha" operator="out"/>
<feColorMatrix type="matrix" values="0 0 0 0 0 0 0 0 0 0 0 0 0 0 0 0 0 0 0.4 0"/>
<feBlend mode="multiply" in2="BackgroundImageFix" result="effect1_dropShadow_96_6347"/>
<feBlend mode="normal" in="SourceGraphic" in2="effect1_dropShadow_96_6347" result="shape"/>
</filter>
</defs>
</svg>
