<svg width="419" height="375" viewBox="0 0 419 375" fill="none" xmlns="http://www.w3.org/2000/svg">
<g filter="url(#filter0_d_272_24887)">
<mask id="path-1-inside-1_272_24887" fill="var(--vscode-editor-background, white)">
<path d="M 4 4 C 4 1.8 5.8 0 8 0 H 411 C 413.2 0 415 1.8 415 4 V 363 C 415 365.2 413.2 367 411 367 H 8 C 5.8 367 4 365.2 4 363 V 4 Z"/>
</mask>
<path d="M 4 4 C 4 1.8 5.8 0 8 0 H 411 C 413.2 0 415 1.8 415 4 V 363 C 415 365.2 413.2 367 411 367 H 8 C 5.8 367 4 365.2 4 363 V 4 Z" fill="var(--vscode-editorGroupHeader-tabsBackground, #F8F8F8)"/>
<path d="M 4 4 C 4 1.2 6.2 -1 9 -1 H 410 C 412.8 -1 415 1.2 415 4 C 415 2.3 413.2 1 411 1 H 8 C 5.8 1 4 2.3 4 4 Z M 415 367 H 4 H 415 Z M 4 367 V 0 V 367 Z M 415 0 V 367 V 0 Z" fill="var(--vscode-activityBar-border, #E5E5E5)" mask="url(#path-1-inside-1_272_24887)"/>
</g>
<path d="M 28.1 27 H 26 V 18.8 C 26 18.2 26.1 17.4 26.1 16.4 H 26.1 C 26 16.9 25.9 17.3 25.8 17.6 L 22 27 H 20.6 L 16.8 17.6 C 16.7 17.4 16.6 17 16.5 16.4 H 16.4 C 16.5 16.9 16.5 17.7 16.5 18.9 V 27 H 14.6 V 14.4 H 17.5 L 20.8 22.8 C 21.1 23.4 21.2 23.9 21.3 24.2 H 21.3 C 21.6 23.6 21.7 23.1 21.9 22.8 L 25.3 14.4 H 28.1 V 27 Z M 32 16.1 C 31.7 16.1 31.4 16 31.1 15.8 C 30.9 15.6 30.8 15.3 30.8 15 C 30.8 14.6 30.9 14.3 31.1 14.1 C 31.4 13.9 31.7 13.8 32 13.8 C 32.3 13.8 32.6 13.9 32.9 14.1 C 33.1 14.3 33.2 14.6 33.2 15 C 33.2 15.3 33.1 15.5 32.9 15.8 C 32.6 16 32.3 16.1 32 16.1 Z M 33 27 H 31 V 18 H 33 V 27 Z M 42.1 26.6 C 41.4 27 40.6 27.2 39.6 27.2 C 38.2 27.2 37.2 26.8 36.3 26 C 35.5 25.1 35.1 24 35.1 22.7 C 35.1 21.2 35.5 20 36.4 19.1 C 37.3 18.2 38.5 17.8 40 17.8 C 40.8 17.8 41.5 17.9 42.1 18.2 V 20.1 C 41.5 19.6 40.8 19.4 40.1 19.4 C 39.3 19.4 38.6 19.7 38 20.3 C 37.5 20.9 37.2 21.6 37.2 22.6 C 37.2 23.5 37.4 24.2 38 24.8 C 38.5 25.3 39.2 25.6 40.1 25.6 C 40.8 25.6 41.5 25.3 42.1 24.8 V 26.6 Z M 49.4 19.9 C 49.1 19.7 48.8 19.7 48.3 19.7 C 47.7 19.7 47.2 19.9 46.8 20.5 C 46.4 21 46.2 21.8 46.2 22.7 V 27 H 44.2 V 18 H 46.2 V 19.9 H 46.2 C 46.4 19.2 46.7 18.7 47.1 18.4 C 47.6 18 48 17.8 48.5 17.8 C 48.9 17.8 49.2 17.9 49.4 18 V 19.9 Z M 54.7 27.2 C 53.3 27.2 52.2 26.8 51.3 26 C 50.5 25.1 50.1 24 50.1 22.6 C 50.1 21.1 50.5 19.9 51.4 19.1 C 52.2 18.2 53.4 17.8 54.9 17.8 C 56.3 17.8 57.4 18.2 58.2 19 C 58.9 19.9 59.3 21 59.3 22.5 C 59.3 23.9 58.9 25.1 58.1 25.9 C 57.2 26.8 56.1 27.2 54.7 27.2 Z M 54.7 19.4 C 54 19.4 53.3 19.7 52.9 20.3 C 52.4 20.8 52.2 21.6 52.2 22.6 C 52.2 23.5 52.4 24.2 52.9 24.8 C 53.3 25.3 54 25.6 54.7 25.6 C 55.6 25.6 56.2 25.3 56.6 24.8 C 57 24.3 57.2 23.5 57.2 22.5 C 57.2 21.5 57 20.8 56.6 20.2 C 56.2 19.7 55.6 19.4 54.7 19.4 Z M 60.9 26.7 V 24.8 C 61.6 25.4 62.5 25.7 63.4 25.7 C 64.6 25.7 65.2 25.3 65.2 24.6 C 65.2 24.4 65.2 24.2 65.1 24.1 C 65 23.9 64.8 23.8 64.6 23.7 C 64.5 23.6 64.2 23.5 64 23.4 C 63.8 23.3 63.5 23.2 63.2 23.1 C 62.8 23 62.5 22.8 62.2 22.6 C 61.9 22.5 61.7 22.3 61.5 22.1 C 61.3 21.9 61.1 21.6 61 21.4 C 60.9 21.1 60.9 20.8 60.9 20.5 C 60.9 20 61 19.6 61.2 19.3 C 61.4 19 61.7 18.7 62 18.5 C 62.3 18.2 62.7 18.1 63.2 18 C 63.6 17.8 64.1 17.8 64.5 17.8 C 65.4 17.8 66.1 17.9 66.8 18.2 V 20 C 66.1 19.5 65.4 19.3 64.6 19.3 C 64.3 19.3 64.1 19.3 63.9 19.4 C 63.7 19.4 63.5 19.5 63.4 19.6 C 63.2 19.7 63.1 19.8 63 19.9 C 62.9 20.1 62.9 20.2 62.9 20.4 C 62.9 20.6 62.9 20.7 63 20.9 C 63.1 21 63.2 21.1 63.4 21.2 C 63.5 21.3 63.7 21.4 64 21.5 C 64.2 21.6 64.4 21.7 64.7 21.8 C 65.1 21.9 65.5 22.1 65.8 22.3 C 66.1 22.4 66.4 22.6 66.6 22.8 C 66.8 23 67 23.3 67.1 23.5 C 67.2 23.8 67.2 24.1 67.2 24.5 C 67.2 25 67.1 25.4 66.9 25.7 C 66.7 26 66.4 26.3 66.1 26.6 C 65.7 26.8 65.3 26.9 64.9 27 C 64.4 27.2 63.9 27.2 63.4 27.2 C 62.4 27.2 61.6 27 60.9 26.7 Z M 73.2 27.2 C 71.8 27.2 70.7 26.8 69.8 26 C 69 25.1 68.6 24 68.6 22.6 C 68.6 21.1 69 19.9 69.9 19.1 C 70.8 18.2 71.9 17.8 73.4 17.8 C 74.8 17.8 75.9 18.2 76.7 19 C 77.5 19.9 77.9 21 77.9 22.5 C 77.9 23.9 77.4 25.1 76.6 25.9 C 75.7 26.8 74.6 27.2 73.2 27.2 Z M 73.3 19.4 C 72.5 19.4 71.8 19.7 71.4 20.3 C 70.9 20.8 70.7 21.6 70.7 22.6 C 70.7 23.5 70.9 24.2 71.4 24.8 C 71.9 25.3 72.5 25.6 73.3 25.6 C 74.1 25.6 74.7 25.3 75.1 24.8 C 75.6 24.3 75.8 23.5 75.8 22.5 C 75.8 21.5 75.6 20.8 75.1 20.2 C 74.7 19.7 74.1 19.4 73.3 19.4 Z M 84.7 15.3 C 84.5 15.2 84.1 15.1 83.8 15.1 C 82.8 15.1 82.3 15.7 82.3 16.8 V 18 H 84.4 V 19.6 H 82.3 V 27 H 80.3 V 19.6 H 78.7 V 18 H 80.3 V 16.5 C 80.3 15.6 80.6 14.8 81.2 14.3 C 81.8 13.7 82.6 13.5 83.5 13.5 C 84 13.5 84.4 13.5 84.7 13.6 V 15.3 Z M 90.9 26.9 C 90.5 27.1 90 27.2 89.4 27.2 C 87.6 27.2 86.7 26.4 86.7 24.7 V 19.6 H 85.2 V 18 H 86.7 V 15.9 L 88.8 15.3 V 18 H 90.9 V 19.6 H 88.8 V 24.1 C 88.8 24.6 88.9 25 89.1 25.2 C 89.3 25.5 89.6 25.6 90 25.6 C 90.4 25.6 90.7 25.5 90.9 25.3 V 26.9 Z M 106 16.2 H 102.3 V 27 H 100.2 V 16.2 H 96.6 V 14.4 H 106 V 16.2 Z M 113.4 23.1 H 107.3 C 107.3 23.9 107.6 24.5 108.1 25 C 108.6 25.4 109.2 25.7 110.1 25.7 C 111.1 25.7 111.9 25.4 112.7 24.8 V 26.4 C 111.9 27 110.8 27.2 109.5 27.2 C 108.2 27.2 107.1 26.8 106.4 26 C 105.6 25.2 105.2 24 105.2 22.5 C 105.2 21.1 105.7 20 106.5 19.1 C 107.3 18.2 108.3 17.8 109.6 17.8 C 110.8 17.8 111.8 18.2 112.4 19 C 113.1 19.8 113.4 20.9 113.4 22.3 V 23.1 Z M 111.5 21.6 C 111.5 20.9 111.3 20.3 111 19.9 C 110.6 19.5 110.1 19.3 109.5 19.3 C 109 19.3 108.5 19.5 108.1 19.9 C 107.6 20.4 107.4 20.9 107.3 21.6 H 111.5 Z M 122.3 27 H 120.3 V 25.6 H 120.3 C 119.7 26.7 118.7 27.2 117.5 27.2 C 116.7 27.2 116 27 115.5 26.5 C 115 26 114.7 25.4 114.7 24.6 C 114.7 22.9 115.7 21.9 117.7 21.6 L 120.3 21.2 C 120.3 20 119.7 19.3 118.5 19.3 C 117.4 19.3 116.5 19.7 115.6 20.4 V 18.6 C 116.5 18.1 117.6 17.8 118.9 17.8 C 121.2 17.8 122.3 18.9 122.3 21.1 V 27 Z M 120.3 22.6 L 118.4 22.8 C 117.8 22.9 117.4 23.1 117.1 23.3 C 116.8 23.5 116.7 23.8 116.7 24.4 C 116.7 24.7 116.8 25.1 117.1 25.3 C 117.3 25.5 117.7 25.7 118.2 25.7 C 118.8 25.7 119.3 25.4 119.7 25 C 120.1 24.6 120.3 24 120.3 23.4 V 22.6 Z M 138.2 27 H 136.2 V 22.1 C 136.2 21.2 136.1 20.5 135.8 20 C 135.5 19.6 135.1 19.4 134.5 19.4 C 133.9 19.4 133.5 19.7 133.1 20.2 C 132.7 20.7 132.5 21.4 132.5 22.1 V 27 H 130.5 V 21.9 C 130.5 20.3 129.9 19.4 128.7 19.4 C 128.2 19.4 127.7 19.7 127.4 20.2 C 127 20.7 126.8 21.3 126.8 22.1 V 27 H 124.8 V 18 H 126.8 V 19.4 H 126.9 C 127.5 18.3 128.5 17.8 129.7 17.8 C 130.3 17.8 130.9 18 131.3 18.3 C 131.8 18.6 132.1 19.1 132.3 19.7 C 133 18.4 133.9 17.8 135.3 17.8 C 137.3 17.8 138.2 19 138.2 21.5 V 27 Z M 140.2 26.7 V 24.8 C 140.9 25.4 141.8 25.7 142.7 25.7 C 143.9 25.7 144.5 25.3 144.5 24.6 C 144.5 24.4 144.5 24.2 144.4 24.1 C 144.3 23.9 144.1 23.8 143.9 23.7 C 143.8 23.6 143.6 23.5 143.3 23.4 C 143.1 23.3 142.8 23.2 142.5 23.1 C 142.1 23 141.8 22.8 141.5 22.6 C 141.2 22.5 141 22.3 140.8 22.1 C 140.6 21.9 140.4 21.6 140.3 21.4 C 140.2 21.1 140.2 20.8 140.2 20.5 C 140.2 20 140.3 19.6 140.5 19.3 C 140.7 19 141 18.7 141.3 18.5 C 141.7 18.2 142.1 18.1 142.5 18 C 142.9 17.8 143.4 17.8 143.9 17.8 C 144.7 17.8 145.4 17.9 146.1 18.2 V 20 C 145.5 19.5 144.7 19.3 143.9 19.3 C 143.6 19.3 143.4 19.3 143.2 19.4 C 143 19.4 142.8 19.5 142.7 19.6 C 142.5 19.7 142.4 19.8 142.3 19.9 C 142.2 20.1 142.2 20.2 142.2 20.4 C 142.2 20.6 142.2 20.7 142.3 20.9 C 142.4 21 142.5 21.1 142.7 21.2 C 142.9 21.3 143 21.4 143.3 21.5 C 143.5 21.6 143.8 21.7 144.1 21.8 C 144.4 21.9 144.8 22.1 145.1 22.3 C 145.4 22.4 145.7 22.6 145.9 22.8 C 146.1 23 146.3 23.3 146.4 23.5 C 146.5 23.8 146.6 24.1 146.6 24.5 C 146.6 25 146.5 25.4 146.2 25.7 C 146 26 145.8 26.3 145.4 26.6 C 145 26.8 144.6 26.9 144.2 27 C 143.7 27.2 143.2 27.2 142.7 27.2 C 141.7 27.2 140.9 27 140.2 26.7 Z" fill="var(--vscode-input-placeholderForeground, #868686)"/>
<path d="M 4 40 H 52 V 367 H 8 C 5.8 367 4 365.2 4 363 V 40 Z" fill="var(--vscode-editorGroupHeader-tabsBackground, #F8F8F8)"/>
<circle cx="18.6" cy="251.2" r="3.2" fill="var(--vscode-badge-background, #616161)"/>
<circle cx="28.8" cy="251.2" r="3.2" fill="var(--vscode-badge-background, #616161)"/>
<circle cx="38.9" cy="251.2" r="3.2" fill="var(--vscode-badge-background, #616161)"/>
<rect x="12.9" y="56.3" width="30.5" height="30.5" rx="4" fill="var(--vscode-badge-background, #616161)"/>
<rect x="12.9" y="150.3" width="30.5" height="30.5" rx="4" fill="var(--vscode-badge-background, #616161)"/>
<rect x="12.9" y="197.2" width="30.5" height="30.5" rx="4" fill="var(--vscode-badge-background, #616161)"/>
<rect x="5" y="102" width="2.3" height="35.3" rx="1.2" fill="var(--vscode-panelTitle-activeBorder, #005FB8)"/>
<rect x="12.9" y="103.3" width="30.5" height="30.5" rx="4" fill="var(--vscode-panelTitle-activeBorder, #005FB8)"/>
<line x1="5" y1="40.5" x2="416" y2="40.5" stroke="var(--vscode-activityBar-border, #E5E5E5)"/>
<rect x="52" y="41" width="363" height="326" fill="var(--vscode-editor-background, white)"/>
<rect x="147.3" y="325" width="253.9" height="34.4" fill="var(--vscode-editor-background, white)"/>
<path d="M 374.7 334.9 L 389.7 343.8 C 390.1 344 390.3 344.7 390.1 345.2 C 390 345.5 389.9 345.6 389.7 345.8 L 374.7 354.6 C 374.3 354.9 373.7 354.7 373.5 354.1 C 373.4 353.9 373.4 353.6 373.5 353.3 L 375.4 344.8 L 373.5 336.2 C 373.4 335.6 373.6 335 374.1 334.8 C 374.3 334.8 374.5 334.8 374.7 334.9 Z M 374.6 336.3 L 376.3 344.1 L 384.1 344.1 C 384.4 344.1 384.6 344.4 384.6 344.7 L 384.6 344.8 C 384.6 345.1 384.4 345.4 384.2 345.4 L 384.1 345.4 L 376.3 345.4 L 374.6 353.2 L 388.9 344.8 L 374.6 336.3 Z" fill="var(--vscode-editor-background, white)"/>
<path d="M 324 296.3 C 325.6 291.5 331.7 291.5 333.3 296.3 L 335.5 303.3 C 336 305 337.2 306.2 338.7 306.8 L 345 309.3 C 349.4 311 349.4 317.9 345 319.6 L 338.7 322.1 C 337.2 322.6 336 323.9 335.5 325.5 L 333.3 332.6 C 331.7 337.4 325.6 337.4 324 332.6 L 321.8 325.5 C 321.3 323.9 320.1 322.6 318.6 322.1 L 312.3 319.6 C 307.9 317.9 307.9 311 312.3 309.3 L 318.6 306.8 C 320.1 306.2 321.3 305 321.8 303.3 L 324 296.3 Z" fill="var(--vscode-editor-background, white)"/>
<path d="M 347.2 328.4 C 348.2 325.4 351.9 325.4 352.9 328.4 L 354.2 332.7 C 354.6 333.6 355.3 334.4 356.1 334.8 L 360 336.3 C 362.7 337.3 362.7 341.5 360 342.5 L 356.1 344 C 355.3 344.4 354.6 345.2 354.2 346.2 L 352.9 350.4 C 351.9 353.4 348.2 353.4 347.2 350.4 L 345.9 346.2 C 345.6 345.2 344.9 344.4 344 344 L 340.1 342.5 C 337.4 341.5 337.4 337.3 340.1 336.3 L 344 334.8 C 344.9 334.4 345.6 333.6 345.9 332.7 L 347.2 328.4 Z" fill="var(--vscode-editor-background, white)"/>
<rect x="148.5" y="321.9" width="252.9" height="33.4" rx="7.5" stroke="var(--vscode-button-secondaryHoverBackground, #CCCCCC)" stroke-opacity="0.5"/>
<path d="M 384.8 338.9 C 384.9 339 384.9 339 384.9 339.1 L 384.9 339.1 C 384.9 339.2 384.9 339.2 384.8 339.2 C 384.8 339.3 384.8 339.3 384.8 339.3 L 384.8 339.3 L 379.1 339.3 C 377.7 339.3 376.4 340.3 376.1 341.7 C 375.6 344.3 378.4 346.3 380.7 345 L 383.9 343.1 C 386.9 341.3 386.9 336.9 383.9 335.1 L 380.7 333.2 C 378.4 331.8 375.6 333.9 376.1 336.5 C 376.5 337.9 377.7 338.9 379.2 338.9 L 384.8 338.9 C 384.8 338.9 384.8 338.9 384.8 338.9 Z M 375.2 329.6 L 390.2 338.5 C 390.4 338.6 390.5 339 390.4 339.4 C 390.3 339.5 390.3 339.6 390.2 339.6 L 375.2 348.5 C 375.1 348.6 375.1 348.6 375 348.5 C 374.9 348.5 374.8 348.4 374.8 348.2 C 374.7 348.1 374.7 347.9 374.7 347.8 L 376.2 340.9 C 376.5 339.7 376.5 338.5 376.2 337.3 L 374.7 330.4 C 374.6 330 374.8 329.7 375 329.6 C 375.1 329.6 375.1 329.6 375.2 329.6 Z" stroke="var(--vscode-button-secondaryHoverBackground, #CCCCCC)" stroke-opacity="0.5"/>
<path d="M 324 291.6 C 325.6 286.8 331.7 286.8 333.3 291.6 L 335.5 298.7 C 336 300.3 337.2 301.6 338.7 302.1 L 345 304.6 C 349.4 306.4 349.4 313.2 345 314.9 L 338.7 317.4 C 337.2 318 336 319.2 335.5 320.9 L 333.3 327.9 C 331.7 332.8 325.6 332.7 324 327.9 L 321.8 320.9 C 321.3 319.2 320.1 318 318.6 317.4 L 312.3 314.9 C 307.9 313.2 307.9 306.3 312.3 304.6 L 318.6 302.1 C 320.1 301.6 321.3 300.3 321.8 298.7 L 324 291.6 Z" fill="var(--vscode-panelTitle-activeBorder, #005FB8)"/>
<path d="M 348 322.7 C 348.9 319.8 352.7 319.8 353.6 322.7 L 355 327 C 355.3 328 356 328.8 356.9 329.1 L 360.8 330.6 C 363.4 331.7 363.4 335.8 360.8 336.9 L 356.9 338.4 C 356 338.7 355.3 339.5 355 340.5 L 353.6 344.8 C 352.7 347.7 348.9 347.7 348 344.8 L 346.6 340.5 C 346.3 339.5 345.6 338.7 344.7 338.4 L 340.8 336.9 C 338.2 335.8 338.2 331.7 340.8 330.6 L 344.7 329.1 C 345.6 328.8 346.3 328 346.6 327 L 348 322.7 Z" fill="var(--vscode-panelTitle-activeBorder, #005FB8)"/>
<rect x="216" y="60" width="188" height="41" rx="8" fill="var(--vscode-editor-selectionHighlightBackground, #ADD6FF)" fill-opacity="0.501961"/>
<path d="M 235.9 67.2 L 233.1 77 H 231.8 L 229.8 69.8 C 229.7 69.5 229.6 69.2 229.6 68.8 H 229.6 C 229.6 69.2 229.5 69.5 229.4 69.8 L 227.4 77 H 226 L 223.2 67.2 H 224.4 L 226.5 74.7 C 226.6 75 226.7 75.4 226.7 75.7 H 226.7 C 226.7 75.5 226.8 75.1 226.9 74.7 L 229.1 67.2 H 230.2 L 232.3 74.8 C 232.4 75 232.4 75.3 232.4 75.7 H 232.5 C 232.5 75.5 232.6 75.1 232.7 74.7 L 234.7 67.2 H 235.9 Z M 243 77 H 241.9 V 73 C 241.9 71.5 241.4 70.8 240.3 70.8 C 239.7 70.8 239.3 71 238.9 71.4 C 238.5 71.8 238.3 72.4 238.3 73 V 77 H 237.2 V 66.6 H 238.3 V 71.2 H 238.4 C 238.9 70.3 239.7 69.8 240.7 69.8 C 242.2 69.8 243 70.8 243 72.7 V 77 Z M 245.7 68.2 C 245.5 68.2 245.4 68.2 245.2 68 C 245.1 67.9 245 67.7 245 67.5 C 245 67.3 245.1 67.1 245.2 67 C 245.4 66.8 245.5 66.8 245.7 66.8 C 245.9 66.8 246.1 66.8 246.2 67 C 246.4 67.1 246.5 67.3 246.5 67.5 C 246.5 67.7 246.4 67.9 246.2 68 C 246.1 68.2 245.9 68.2 245.7 68.2 Z M 246.3 77 H 245.1 V 70 H 246.3 V 77 Z M 253.3 76.7 C 252.8 77 252.1 77.2 251.4 77.2 C 250.4 77.2 249.6 76.8 249 76.2 C 248.4 75.5 248.1 74.7 248.1 73.7 C 248.1 72.5 248.4 71.6 249.1 70.9 C 249.7 70.2 250.6 69.8 251.7 69.8 C 252.3 69.8 252.9 69.9 253.3 70.2 V 71.3 C 252.8 71 252.2 70.8 251.7 70.8 C 250.9 70.8 250.4 71 249.9 71.6 C 249.4 72.1 249.2 72.7 249.2 73.6 C 249.2 74.4 249.4 75 249.9 75.5 C 250.3 76 250.9 76.2 251.6 76.2 C 252.2 76.2 252.8 76 253.3 75.6 V 76.7 Z M 260.8 77 H 259.7 V 73 C 259.7 71.5 259.2 70.8 258.1 70.8 C 257.5 70.8 257.1 71 256.7 71.4 C 256.3 71.8 256.1 72.4 256.1 73 V 77 H 255 V 66.6 H 256.1 V 71.2 H 256.2 C 256.7 70.3 257.5 69.8 258.5 69.8 C 260 69.8 260.8 70.8 260.8 72.7 V 77 Z M 270 76.9 C 269.8 77.1 269.4 77.2 269 77.2 C 267.8 77.2 267.1 76.5 267.1 75.1 V 71 H 265.9 V 70 H 267.1 V 68.3 L 268.3 67.9 V 70 H 270 V 71 H 268.3 V 74.9 C 268.3 75.4 268.3 75.7 268.5 75.9 C 268.7 76.1 268.9 76.2 269.3 76.2 C 269.6 76.2 269.8 76.1 270 76 V 76.9 Z M 272.1 68.2 C 271.9 68.2 271.7 68.2 271.6 68 C 271.4 67.9 271.4 67.7 271.4 67.5 C 271.4 67.3 271.4 67.1 271.6 67 C 271.7 66.8 271.9 66.8 272.1 66.8 C 272.3 66.8 272.5 66.8 272.6 67 C 272.8 67.1 272.8 67.3 272.8 67.5 C 272.8 67.7 272.8 67.9 272.6 68 C 272.5 68.2 272.3 68.2 272.1 68.2 Z M 272.6 77 H 271.5 V 70 H 272.6 V 77 Z M 279.7 76.7 C 279.1 77 278.5 77.2 277.8 77.2 C 276.8 77.2 276 76.8 275.4 76.2 C 274.7 75.5 274.4 74.7 274.4 73.7 C 274.4 72.5 274.8 71.6 275.4 70.9 C 276.1 70.2 277 69.8 278.1 69.8 C 278.7 69.8 279.2 69.9 279.7 70.2 V 71.3 C 279.2 71 278.6 70.8 278 70.8 C 277.3 70.8 276.7 71 276.3 71.6 C 275.8 72.1 275.6 72.7 275.6 73.6 C 275.6 74.4 275.8 75 276.2 75.5 C 276.7 76 277.2 76.2 278 76.2 C 278.6 76.2 279.1 76 279.7 75.6 V 76.7 Z M 287.2 77 H 285.6 L 282.5 73.6 H 282.5 V 77 H 281.4 V 66.6 H 282.5 V 73.2 H 282.5 L 285.5 70 H 286.9 L 283.7 73.4 L 287.2 77 Z M 294 73.8 H 289 C 289 74.6 289.2 75.2 289.6 75.6 C 290.1 76 290.6 76.2 291.3 76.2 C 292.1 76.2 292.8 76 293.5 75.4 V 76.5 C 292.9 76.9 292.1 77.2 291 77.2 C 290 77.2 289.3 76.8 288.7 76.2 C 288.1 75.6 287.9 74.7 287.9 73.5 C 287.9 72.4 288.2 71.6 288.8 70.9 C 289.4 70.2 290.2 69.8 291.1 69.8 C 292 69.8 292.7 70.1 293.2 70.7 C 293.7 71.3 294 72.1 294 73.2 V 73.8 Z M 292.8 72.8 C 292.8 72.2 292.7 71.7 292.3 71.3 C 292 71 291.6 70.8 291.1 70.8 C 290.5 70.8 290.1 71 289.7 71.3 C 289.4 71.7 289.1 72.2 289 72.8 H 292.8 Z M 298.9 76.9 C 298.6 77.1 298.3 77.2 297.9 77.2 C 296.6 77.2 296 76.5 296 75.1 V 71 H 294.8 V 70 H 296 V 68.3 L 297.1 67.9 V 70 H 298.9 V 71 H 297.1 V 74.9 C 297.1 75.4 297.2 75.7 297.4 75.9 C 297.5 76.1 297.8 76.2 298.2 76.2 C 298.5 76.2 298.7 76.1 298.9 76 V 76.9 Z M 300 76.7 V 75.5 C 300.6 76 301.3 76.2 302 76.2 C 303 76.2 303.5 75.9 303.5 75.2 C 303.5 75 303.4 74.9 303.4 74.8 C 303.3 74.6 303.2 74.5 303 74.4 C 302.9 74.3 302.7 74.2 302.5 74.1 C 302.3 74.1 302.1 74 301.9 73.9 C 301.6 73.8 301.3 73.7 301.1 73.5 C 300.8 73.4 300.6 73.3 300.5 73.1 C 300.3 72.9 300.2 72.8 300.1 72.6 C 300 72.4 300 72.1 300 71.9 C 300 71.5 300.1 71.2 300.2 71 C 300.4 70.7 300.6 70.5 300.8 70.4 C 301.1 70.2 301.4 70.1 301.7 70 C 302 69.9 302.3 69.8 302.7 69.8 C 303.3 69.8 303.8 69.9 304.3 70.2 V 71.3 C 303.8 70.9 303.2 70.8 302.5 70.8 C 302.3 70.8 302.1 70.8 302 70.9 C 301.8 70.9 301.6 71 301.5 71.1 C 301.4 71.1 301.3 71.2 301.2 71.4 C 301.2 71.5 301.1 71.6 301.1 71.8 C 301.1 71.9 301.2 72.1 301.2 72.2 C 301.3 72.3 301.4 72.5 301.5 72.5 C 301.7 72.6 301.8 72.7 302 72.8 C 302.2 72.9 302.4 73 302.6 73.1 C 302.9 73.2 303.2 73.3 303.5 73.4 C 303.7 73.6 303.9 73.7 304.1 73.9 C 304.3 74 304.4 74.2 304.5 74.4 C 304.6 74.6 304.6 74.8 304.6 75.1 C 304.6 75.5 304.6 75.8 304.4 76 C 304.2 76.3 304 76.5 303.8 76.7 C 303.5 76.8 303.2 77 302.9 77 C 302.6 77.1 302.2 77.2 301.9 77.2 C 301.1 77.2 300.5 77 300 76.7 Z M 315.2 77 H 314.1 V 75.9 H 314.1 C 313.6 76.7 312.9 77.2 311.9 77.2 C 311.2 77.2 310.7 77 310.3 76.6 C 309.9 76.2 309.7 75.8 309.7 75.1 C 309.7 73.8 310.4 73.1 312 72.9 L 314.1 72.6 C 314.1 71.4 313.6 70.8 312.6 70.8 C 311.8 70.8 311 71.1 310.4 71.6 V 70.5 C 311.1 70.1 311.8 69.8 312.7 69.8 C 314.4 69.8 315.2 70.7 315.2 72.4 V 77 Z M 314.1 73.5 L 312.4 73.7 C 311.9 73.8 311.5 73.9 311.2 74.1 C 311 74.3 310.8 74.6 310.8 75.1 C 310.8 75.4 310.9 75.7 311.2 75.9 C 311.4 76.1 311.8 76.2 312.2 76.2 C 312.7 76.2 313.2 76 313.5 75.6 C 313.9 75.2 314.1 74.8 314.1 74.2 V 73.5 Z M 321 71.1 C 320.8 71 320.5 70.9 320.1 70.9 C 319.6 70.9 319.2 71.1 318.9 71.6 C 318.6 72 318.4 72.7 318.4 73.4 V 77 H 317.3 V 70 H 318.4 V 71.4 H 318.5 C 318.6 71 318.9 70.6 319.2 70.3 C 319.5 70 319.9 69.9 320.3 69.9 C 320.6 69.9 320.8 69.9 321 70 V 71.1 Z M 327.8 73.8 H 322.9 C 322.9 74.6 323.1 75.2 323.5 75.6 C 323.9 76 324.5 76.2 325.2 76.2 C 325.9 76.2 326.7 76 327.3 75.4 V 76.5 C 326.7 76.9 325.9 77.2 324.9 77.2 C 323.9 77.2 323.1 76.8 322.6 76.2 C 322 75.6 321.7 74.7 321.7 73.5 C 321.7 72.4 322 71.6 322.6 70.9 C 323.3 70.2 324 69.8 324.9 69.8 C 325.9 69.8 326.6 70.1 327.1 70.7 C 327.6 71.3 327.8 72.1 327.8 73.2 V 73.8 Z M 326.7 72.8 C 326.7 72.2 326.5 71.7 326.2 71.3 C 325.9 71 325.5 70.8 324.9 70.8 C 324.4 70.8 323.9 71 323.6 71.3 C 323.2 71.7 323 72.2 322.9 72.8 H 326.7 Z M 338.4 77 H 337.2 V 75.9 H 337.2 C 336.7 76.7 336 77.2 335.1 77.2 C 334.4 77.2 333.8 77 333.4 76.6 C 333 76.2 332.8 75.8 332.8 75.1 C 332.8 73.8 333.6 73.1 335.1 72.9 L 337.2 72.6 C 337.2 71.4 336.8 70.8 335.8 70.8 C 335 70.8 334.2 71.1 333.5 71.6 V 70.5 C 334.2 70.1 335 69.8 335.9 69.8 C 337.5 69.8 338.4 70.7 338.4 72.4 V 77 Z M 337.2 73.5 L 335.6 73.7 C 335 73.8 334.6 73.9 334.4 74.1 C 334.1 74.3 334 74.6 334 75.1 C 334 75.4 334.1 75.7 334.4 75.9 C 334.6 76.1 334.9 76.2 335.3 76.2 C 335.9 76.2 336.3 76 336.7 75.6 C 337.1 75.2 337.2 74.8 337.2 74.2 V 73.5 Z M 340.1 76.7 V 75.5 C 340.7 76 341.3 76.2 342.1 76.2 C 343.1 76.2 343.6 75.9 343.6 75.2 C 343.6 75 343.5 74.9 343.4 74.8 C 343.3 74.6 343.2 74.5 343.1 74.4 C 342.9 74.3 342.8 74.2 342.6 74.1 C 342.4 74.1 342.2 74 342 73.9 C 341.6 73.8 341.4 73.7 341.1 73.5 C 340.9 73.4 340.7 73.3 340.5 73.1 C 340.4 72.9 340.3 72.8 340.2 72.6 C 340.1 72.4 340.1 72.1 340.1 71.9 C 340.1 71.5 340.1 71.2 340.3 71 C 340.4 70.7 340.6 70.5 340.9 70.4 C 341.1 70.2 341.4 70.1 341.8 70 C 342.1 69.9 342.4 69.8 342.8 69.8 C 343.4 69.8 343.9 69.9 344.4 70.2 V 71.3 C 343.9 70.9 343.3 70.8 342.6 70.8 C 342.4 70.8 342.2 70.8 342 70.9 C 341.9 70.9 341.7 71 341.6 71.1 C 341.5 71.1 341.4 71.2 341.3 71.4 C 341.3 71.5 341.2 71.6 341.2 71.8 C 341.2 71.9 341.3 72.1 341.3 72.2 C 341.4 72.3 341.5 72.5 341.6 72.5 C 341.7 72.6 341.9 72.7 342.1 72.8 C 342.3 72.9 342.5 73 342.7 73.1 C 343 73.2 343.3 73.3 343.5 73.4 C 343.8 73.6 344 73.7 344.2 73.9 C 344.3 74 344.5 74.2 344.6 74.4 C 344.7 74.6 344.7 74.8 344.7 75.1 C 344.7 75.5 344.6 75.8 344.5 76 C 344.3 76.3 344.1 76.5 343.9 76.7 C 343.6 76.8 343.3 77 343 77 C 342.6 77.1 342.3 77.2 341.9 77.2 C 341.2 77.2 340.6 77 340.1 76.7 Z M 346 76.7 V 75.5 C 346.6 76 347.3 76.2 348 76.2 C 349 76.2 349.5 75.9 349.5 75.2 C 349.5 75 349.5 74.9 349.4 74.8 C 349.3 74.6 349.2 74.5 349 74.4 C 348.9 74.3 348.7 74.2 348.5 74.1 C 348.3 74.1 348.1 74 347.9 73.9 C 347.6 73.8 347.3 73.7 347.1 73.5 C 346.8 73.4 346.7 73.3 346.5 73.1 C 346.3 72.9 346.2 72.8 346.1 72.6 C 346.1 72.4 346 72.1 346 71.9 C 346 71.5 346.1 71.2 346.2 71 C 346.4 70.7 346.6 70.5 346.8 70.4 C 347.1 70.2 347.4 70.1 347.7 70 C 348 69.9 348.4 69.8 348.7 69.8 C 349.3 69.8 349.8 69.9 350.3 70.2 V 71.3 C 349.8 70.9 349.2 70.8 348.5 70.8 C 348.3 70.8 348.1 70.8 348 70.9 C 347.8 70.9 347.7 71 347.5 71.1 C 347.4 71.1 347.3 71.2 347.3 71.4 C 347.2 71.5 347.2 71.6 347.2 71.8 C 347.2 71.9 347.2 72.1 347.3 72.2 C 347.3 72.3 347.4 72.5 347.6 72.5 C 347.7 72.6 347.8 72.7 348 72.8 C 348.2 72.9 348.4 73 348.6 73.1 C 349 73.2 349.2 73.3 349.5 73.4 C 349.7 73.6 349.9 73.7 350.1 73.9 C 350.3 74 350.4 74.2 350.5 74.4 C 350.6 74.6 350.6 74.8 350.6 75.1 C 350.6 75.5 350.6 75.8 350.4 76 C 350.3 76.3 350.1 76.5 349.8 76.7 C 349.6 76.8 349.3 77 348.9 77 C 348.6 77.1 348.2 77.2 347.9 77.2 C 347.2 77.2 346.5 77 346 76.7 Z M 353 68.2 C 352.8 68.2 352.6 68.2 352.4 68 C 352.3 67.9 352.2 67.7 352.2 67.5 C 352.2 67.3 352.3 67.1 352.4 67 C 352.6 66.8 352.8 66.8 353 66.8 C 353.2 66.8 353.3 66.8 353.5 67 C 353.6 67.1 353.7 67.3 353.7 67.5 C 353.7 67.7 353.6 67.9 353.5 68 C 353.3 68.2 353.2 68.2 353 68.2 Z M 353.5 77 H 352.4 V 70 H 353.5 V 77 Z M 361.7 76.4 C 361.7 79 360.5 80.3 358.1 80.3 C 357.2 80.3 356.4 80.1 355.8 79.8 V 78.7 C 356.6 79.1 357.3 79.3 358 79.3 C 359.8 79.3 360.6 78.4 360.6 76.6 V 75.8 H 360.6 C 360.1 76.7 359.3 77.2 358.2 77.2 C 357.3 77.2 356.6 76.9 356.1 76.2 C 355.6 75.6 355.3 74.8 355.3 73.7 C 355.3 72.5 355.6 71.6 356.1 70.9 C 356.7 70.2 357.5 69.8 358.5 69.8 C 359.4 69.8 360.1 70.2 360.6 71 H 360.6 V 70 H 361.7 V 76.4 Z M 360.6 73.8 V 72.8 C 360.6 72.2 360.4 71.8 360.1 71.4 C 359.7 71 359.2 70.8 358.7 70.8 C 358 70.8 357.4 71 357 71.5 C 356.6 72 356.4 72.7 356.4 73.7 C 356.4 74.4 356.6 75.1 357 75.5 C 357.4 76 357.9 76.2 358.5 76.2 C 359.1 76.2 359.6 76 360 75.6 C 360.4 75.1 360.6 74.5 360.6 73.8 Z M 369.8 77 H 368.7 V 73 C 368.7 71.5 368.2 70.8 367.1 70.8 C 366.5 70.8 366 71 365.7 71.4 C 365.3 71.8 365.1 72.4 365.1 73 V 77 H 364 V 70 H 365.1 V 71.2 H 365.2 C 365.7 70.3 366.5 69.8 367.5 69.8 C 368.2 69.8 368.8 70.1 369.2 70.6 C 369.6 71.1 369.8 71.8 369.8 72.7 V 77 Z M 377.6 73.8 H 372.6 C 372.6 74.6 372.9 75.2 373.3 75.6 C 373.7 76 374.2 76.2 374.9 76.2 C 375.7 76.2 376.4 76 377.1 75.4 V 76.5 C 376.5 76.9 375.7 77.2 374.6 77.2 C 373.7 77.2 372.9 76.8 372.3 76.2 C 371.7 75.6 371.5 74.7 371.5 73.5 C 371.5 72.4 371.8 71.6 372.4 70.9 C 373 70.2 373.8 69.8 374.7 69.8 C 375.6 69.8 376.3 70.1 376.8 70.7 C 377.3 71.3 377.6 72.1 377.6 73.2 V 73.8 Z M 376.4 72.8 C 376.4 72.2 376.3 71.7 375.9 71.3 C 375.6 71 375.2 70.8 374.7 70.8 C 374.1 70.8 373.7 71 373.3 71.3 C 373 71.7 372.7 72.2 372.6 72.8 H 376.4 Z M 385.2 77 H 384.1 V 75.8 H 384.1 C 383.6 76.7 382.8 77.2 381.7 77.2 C 380.8 77.2 380.1 76.9 379.6 76.2 C 379.1 75.6 378.8 74.7 378.8 73.7 C 378.8 72.5 379.1 71.6 379.7 70.9 C 380.2 70.2 381 69.8 382 69.8 C 383 69.8 383.7 70.2 384.1 71 H 384.1 V 66.6 H 385.2 V 77 Z M 384.1 73.8 V 72.8 C 384.1 72.2 383.9 71.8 383.6 71.4 C 383.2 71 382.7 70.8 382.1 70.8 C 381.5 70.8 380.9 71 380.5 71.5 C 380.1 72 379.9 72.7 379.9 73.6 C 379.9 74.4 380.1 75.1 380.5 75.5 C 380.9 76 381.4 76.2 382 76.2 C 382.6 76.2 383.1 76 383.5 75.5 C 383.9 75.1 384.1 74.5 384.1 73.8 Z M 227.4 95.9 C 227.1 96.1 226.8 96.2 226.3 96.2 C 225.1 96.2 224.5 95.5 224.5 94.1 V 90 H 223.3 V 89 H 224.5 V 87.3 L 225.6 86.9 V 89 H 227.4 V 90 H 225.6 V 93.9 C 225.6 94.4 225.7 94.7 225.9 94.9 C 226 95.1 226.3 95.2 226.7 95.2 C 226.9 95.2 227.2 95.1 227.4 95 V 95.9 Z M 231.8 96.2 C 230.8 96.2 229.9 95.8 229.3 95.2 C 228.7 94.5 228.4 93.7 228.4 92.6 C 228.4 91.4 228.7 90.5 229.4 89.8 C 230 89.2 230.9 88.8 232 88.8 C 233 88.8 233.8 89.2 234.4 89.8 C 235 90.4 235.3 91.3 235.3 92.5 C 235.3 93.6 235 94.5 234.3 95.2 C 233.7 95.8 232.9 96.2 231.8 96.2 Z M 231.9 89.8 C 231.2 89.8 230.6 90 230.2 90.5 C 229.8 91 229.5 91.7 229.5 92.5 C 229.5 93.4 229.8 94 230.2 94.5 C 230.6 95 231.2 95.2 231.9 95.2 C 232.6 95.2 233.2 95 233.6 94.5 C 233.9 94 234.1 93.4 234.1 92.5 C 234.1 91.6 233.9 91 233.6 90.5 C 233.2 90 232.6 89.8 231.9 89.8 Z M 250.9 96 H 249.7 V 92 C 249.7 91.2 249.6 90.6 249.4 90.3 C 249.1 90 248.7 89.8 248.2 89.8 C 247.7 89.8 247.3 90 247 90.4 C 246.6 90.9 246.5 91.4 246.5 92 V 96 H 245.3 V 91.8 C 245.3 90.5 244.8 89.8 243.7 89.8 C 243.2 89.8 242.8 90 242.5 90.4 C 242.2 90.8 242 91.3 242 92 V 96 H 240.9 V 89 H 242 V 90.1 H 242.1 C 242.6 89.3 243.3 88.8 244.2 88.8 C 244.7 88.8 245.1 89 245.5 89.2 C 245.9 89.5 246.1 89.9 246.2 90.3 C 246.7 89.3 247.5 88.8 248.6 88.8 C 250.1 88.8 250.9 89.8 250.9 91.7 V 96 Z M 258.6 92.8 H 253.7 C 253.7 93.6 253.9 94.2 254.3 94.6 C 254.7 95 255.2 95.2 255.9 95.2 C 256.7 95.2 257.5 95 258.1 94.4 V 95.5 C 257.5 95.9 256.7 96.2 255.7 96.2 C 254.7 96.2 253.9 95.8 253.4 95.2 C 252.8 94.6 252.5 93.7 252.5 92.5 C 252.5 91.4 252.8 90.6 253.4 89.9 C 254 89.2 254.8 88.8 255.7 88.8 C 256.6 88.8 257.4 89.1 257.9 89.7 C 258.4 90.3 258.6 91.1 258.6 92.2 V 92.8 Z M 257.5 91.8 C 257.5 91.2 257.3 90.7 257 90.3 C 256.7 90 256.3 89.8 255.7 89.8 C 255.2 89.8 254.7 90 254.4 90.3 C 254 90.7 253.8 91.2 253.7 91.8 H 257.5 Z M 267.8 90.1 C 267.6 90 267.3 89.9 267 89.9 C 266.5 89.9 266.1 90.1 265.8 90.6 C 265.4 91 265.3 91.7 265.3 92.4 V 96 H 264.2 V 89 H 265.3 V 90.4 H 265.3 C 265.5 90 265.7 89.6 266 89.3 C 266.4 89 266.7 88.9 267.1 88.9 C 267.4 88.9 267.6 88.9 267.8 89 V 90.1 Z M 269.6 87.2 C 269.4 87.2 269.2 87.2 269.1 87 C 268.9 86.9 268.9 86.7 268.9 86.5 C 268.9 86.3 268.9 86.1 269.1 86 C 269.2 85.8 269.4 85.8 269.6 85.8 C 269.8 85.8 270 85.8 270.1 86 C 270.3 86.1 270.3 86.3 270.3 86.5 C 270.3 86.7 270.3 86.9 270.1 87 C 270 87.2 269.8 87.2 269.6 87.2 Z M 270.1 96 H 269 V 89 H 270.1 V 96 Z M 278.4 95.4 C 278.4 98 277.2 99.3 274.7 99.3 C 273.8 99.3 273.1 99.1 272.4 98.8 V 97.7 C 273.2 98.1 274 98.3 274.7 98.3 C 276.4 98.3 277.3 97.4 277.3 95.6 V 94.8 H 277.2 C 276.7 95.7 275.9 96.2 274.8 96.2 C 274 96.2 273.3 95.9 272.7 95.2 C 272.2 94.6 271.9 93.8 271.9 92.7 C 271.9 91.5 272.2 90.6 272.8 89.9 C 273.4 89.2 274.1 88.8 275.1 88.8 C 276.1 88.8 276.8 89.2 277.2 90 H 277.3 V 89 H 278.4 V 95.4 Z M 277.3 92.8 V 91.8 C 277.3 91.2 277.1 90.8 276.7 90.4 C 276.3 90 275.9 89.8 275.3 89.8 C 274.6 89.8 274.1 90 273.7 90.5 C 273.3 91 273.1 91.7 273.1 92.7 C 273.1 93.4 273.3 94.1 273.6 94.5 C 274 95 274.5 95.2 275.1 95.2 C 275.8 95.2 276.3 95 276.7 94.6 C 277.1 94.1 277.3 93.5 277.3 92.8 Z M 286.5 96 H 285.3 V 92 C 285.3 90.5 284.8 89.8 283.7 89.8 C 283.2 89.8 282.7 90 282.3 90.4 C 282 90.8 281.8 91.4 281.8 92 V 96 H 280.7 V 85.6 H 281.8 V 90.2 H 281.8 C 282.3 89.3 283.1 88.8 284.1 88.8 C 285.7 88.8 286.5 89.8 286.5 91.7 V 96 Z M 291.8 95.9 C 291.6 96.1 291.2 96.2 290.8 96.2 C 289.6 96.2 288.9 95.5 288.9 94.1 V 90 H 287.7 V 89 H 288.9 V 87.3 L 290.1 86.9 V 89 H 291.8 V 90 H 290.1 V 93.9 C 290.1 94.4 290.1 94.7 290.3 94.9 C 290.5 95.1 290.7 95.2 291.1 95.2 C 291.4 95.2 291.6 95.1 291.8 95 V 95.9 Z M 303 96 H 301.9 V 92 C 301.9 90.5 301.3 89.8 300.2 89.8 C 299.7 89.8 299.2 90 298.8 90.4 C 298.5 90.8 298.3 91.4 298.3 92 V 96 H 297.2 V 89 H 298.3 V 90.2 H 298.3 C 298.8 89.3 299.6 88.8 300.6 88.8 C 301.4 88.8 302 89.1 302.4 89.6 C 302.8 90.1 303 90.8 303 91.7 V 96 Z M 308 96.2 C 307 96.2 306.2 95.8 305.5 95.2 C 304.9 94.5 304.6 93.7 304.6 92.6 C 304.6 91.4 304.9 90.5 305.6 89.8 C 306.2 89.2 307.1 88.8 308.2 88.8 C 309.2 88.8 310 89.2 310.6 89.8 C 311.2 90.4 311.5 91.3 311.5 92.5 C 311.5 93.6 311.2 94.5 310.6 95.2 C 309.9 95.8 309.1 96.2 308 96.2 Z M 308.1 89.8 C 307.4 89.8 306.8 90 306.4 90.5 C 306 91 305.8 91.7 305.8 92.5 C 305.8 93.4 306 94 306.4 94.5 C 306.8 95 307.4 95.2 308.1 95.2 C 308.8 95.2 309.4 95 309.8 94.5 C 310.2 94 310.4 93.4 310.4 92.5 C 310.4 91.6 310.2 91 309.8 90.5 C 309.4 90 308.8 89.8 308.1 89.8 Z M 322.1 89 L 320 96 H 318.9 L 317.4 91 C 317.4 90.8 317.3 90.6 317.3 90.3 H 317.3 C 317.3 90.5 317.2 90.7 317.1 91 L 315.6 96 H 314.5 L 312.3 89 H 313.5 L 315 94.3 C 315 94.4 315 94.6 315.1 94.9 H 315.1 C 315.1 94.7 315.2 94.5 315.2 94.3 L 316.8 89 H 317.9 L 319.3 94.3 C 319.4 94.4 319.4 94.7 319.4 94.9 H 319.5 C 319.5 94.7 319.5 94.5 319.6 94.3 L 321 89 H 322.1 Z M 324.6 93.3 C 324.5 93.2 324.5 93 324.5 92.8 C 324.4 92.6 324.4 92.4 324.4 92.3 C 324.4 92 324.5 91.7 324.6 91.5 C 324.7 91.2 324.9 91 325 90.8 C 325.2 90.6 325.4 90.4 325.6 90.2 C 325.8 90 326 89.8 326.2 89.6 C 326.3 89.4 326.5 89.2 326.6 89 C 326.7 88.8 326.8 88.6 326.8 88.3 C 326.8 88.1 326.7 87.9 326.6 87.7 C 326.6 87.6 326.4 87.4 326.3 87.3 C 326.2 87.2 326 87.1 325.8 87.1 C 325.6 87 325.4 87 325.2 87 C 324.4 87 323.7 87.3 323.2 87.9 V 86.7 C 323.9 86.3 324.6 86 325.3 86 C 325.7 86 326 86.1 326.3 86.2 C 326.6 86.3 326.9 86.4 327.1 86.6 C 327.4 86.8 327.5 87 327.7 87.3 C 327.8 87.5 327.9 87.8 327.9 88.2 C 327.9 88.5 327.8 88.8 327.7 89.1 C 327.6 89.4 327.4 89.6 327.2 89.8 C 327.1 90 326.9 90.2 326.7 90.4 C 326.5 90.6 326.3 90.8 326.1 91 C 325.9 91.2 325.7 91.4 325.6 91.6 C 325.5 91.8 325.4 92 325.4 92.3 C 325.4 92.5 325.5 92.7 325.5 92.8 C 325.6 93 325.6 93.2 325.7 93.3 H 324.6 Z M 325.2 96.1 C 325 96.1 324.8 96.1 324.7 95.9 C 324.5 95.8 324.4 95.6 324.4 95.4 C 324.4 95.2 324.5 95 324.7 94.8 C 324.8 94.7 325 94.6 325.2 94.6 C 325.4 94.6 325.6 94.7 325.7 94.8 C 325.9 95 325.9 95.2 325.9 95.4 C 325.9 95.6 325.9 95.8 325.7 95.9 C 325.6 96.1 325.4 96.1 325.2 96.1 Z M 333.2 86 L 332.2 89.1 H 331.4 L 332.1 86 H 333.2 Z M 331.1 86 L 330.1 89.1 H 329.3 L 330.1 86 H 331.1 Z" fill="var(--vscode-icon-foreground, #3B3B3B)"/>
<rect x="110" y="130" width="252" height="77" rx="8" fill="var(--vscode-activityBar-border, #E5E5E5)"/>
<path d="M121.656 111.197L118.423 117.377V121H117.274V117.404L114.123 111.197H115.429L117.623 115.627C117.65 115.682 117.73 115.882 117.862 116.229H117.883C117.928 116.074 118.015 115.873 118.143 115.627L120.439 111.197H121.656ZM124.568 121.164C123.534 121.164 122.707 120.838 122.087 120.187C121.472 119.53 121.164 118.662 121.164 117.582C121.164 116.406 121.485 115.488 122.128 114.827C122.771 114.166 123.639 113.836 124.732 113.836C125.776 113.836 126.59 114.157 127.173 114.8C127.761 115.442 128.055 116.333 128.055 117.473C128.055 118.589 127.738 119.485 127.104 120.159C126.476 120.829 125.63 121.164 124.568 121.164ZM124.65 114.779C123.93 114.779 123.361 115.025 122.941 115.518C122.522 116.005 122.312 116.68 122.312 117.541C122.312 118.37 122.524 119.024 122.948 119.503C123.372 119.981 123.939 120.221 124.65 120.221C125.375 120.221 125.931 119.986 126.318 119.517C126.71 119.047 126.906 118.38 126.906 117.514C126.906 116.639 126.71 115.964 126.318 115.49C125.931 115.016 125.375 114.779 124.65 114.779ZM135.506 121H134.385V119.893H134.357C133.893 120.74 133.173 121.164 132.197 121.164C130.529 121.164 129.695 120.171 129.695 118.184V114H130.81V118.006C130.81 119.482 131.375 120.221 132.505 120.221C133.052 120.221 133.501 120.02 133.852 119.619C134.207 119.214 134.385 118.685 134.385 118.033V114H135.506V121ZM141.426 115.135C141.23 114.984 140.947 114.909 140.578 114.909C140.1 114.909 139.699 115.135 139.375 115.586C139.056 116.037 138.896 116.652 138.896 117.432V121H137.775V114H138.896V115.442H138.924C139.083 114.95 139.327 114.567 139.655 114.294C139.983 114.016 140.35 113.877 140.756 113.877C141.048 113.877 141.271 113.909 141.426 113.973V115.135ZM153.307 120.59C152.582 120.973 151.68 121.164 150.6 121.164C149.205 121.164 148.089 120.715 147.25 119.817C146.411 118.92 145.992 117.742 145.992 116.283C145.992 114.715 146.464 113.449 147.407 112.482C148.351 111.516 149.547 111.033 150.996 111.033C151.926 111.033 152.696 111.168 153.307 111.437V112.66C152.605 112.268 151.83 112.072 150.982 112.072C149.857 112.072 148.943 112.448 148.241 113.2C147.544 113.952 147.195 114.957 147.195 116.215C147.195 117.409 147.521 118.361 148.173 119.072C148.829 119.779 149.688 120.132 150.75 120.132C151.734 120.132 152.587 119.913 153.307 119.476V120.59ZM160.812 121H159.691V119.893H159.664C159.199 120.74 158.479 121.164 157.504 121.164C155.836 121.164 155.002 120.171 155.002 118.184V114H156.116V118.006C156.116 119.482 156.681 120.221 157.812 120.221C158.358 120.221 158.807 120.02 159.158 119.619C159.514 119.214 159.691 118.685 159.691 118.033V114H160.812V121ZM162.658 120.747V119.544C163.269 119.995 163.941 120.221 164.675 120.221C165.659 120.221 166.151 119.893 166.151 119.236C166.151 119.049 166.108 118.892 166.021 118.765C165.939 118.632 165.826 118.516 165.68 118.416C165.538 118.316 165.37 118.227 165.174 118.149C164.982 118.067 164.775 117.983 164.552 117.896C164.242 117.773 163.968 117.65 163.731 117.527C163.499 117.4 163.303 117.258 163.144 117.104C162.989 116.944 162.87 116.764 162.788 116.563C162.711 116.363 162.672 116.128 162.672 115.859C162.672 115.531 162.747 115.242 162.897 114.991C163.048 114.736 163.248 114.524 163.499 114.355C163.75 114.182 164.035 114.052 164.354 113.966C164.677 113.879 165.01 113.836 165.352 113.836C165.958 113.836 166.5 113.941 166.979 114.15V115.285C166.464 114.948 165.871 114.779 165.201 114.779C164.992 114.779 164.802 114.804 164.634 114.854C164.465 114.9 164.319 114.966 164.196 115.053C164.078 115.139 163.984 115.244 163.916 115.367C163.852 115.486 163.82 115.618 163.82 115.764C163.82 115.946 163.852 116.099 163.916 116.222C163.984 116.345 164.082 116.454 164.21 116.55C164.338 116.646 164.493 116.732 164.675 116.81C164.857 116.887 165.064 116.971 165.297 117.062C165.607 117.181 165.885 117.304 166.131 117.432C166.377 117.555 166.587 117.696 166.76 117.855C166.933 118.01 167.065 118.19 167.156 118.396C167.252 118.601 167.3 118.844 167.3 119.127C167.3 119.473 167.222 119.774 167.067 120.029C166.917 120.285 166.714 120.496 166.459 120.665C166.204 120.834 165.91 120.959 165.577 121.041C165.244 121.123 164.896 121.164 164.531 121.164C163.811 121.164 163.187 121.025 162.658 120.747ZM172.276 120.932C172.012 121.077 171.663 121.15 171.23 121.15C170.005 121.15 169.392 120.467 169.392 119.1V114.957H168.188V114H169.392V112.291L170.513 111.929V114H172.276V114.957H170.513V118.901C170.513 119.371 170.592 119.706 170.752 119.906C170.911 120.107 171.176 120.207 171.545 120.207C171.827 120.207 172.071 120.13 172.276 119.975V120.932ZM176.699 121.164C175.665 121.164 174.838 120.838 174.218 120.187C173.603 119.53 173.295 118.662 173.295 117.582C173.295 116.406 173.616 115.488 174.259 114.827C174.901 114.166 175.77 113.836 176.863 113.836C177.907 113.836 178.72 114.157 179.304 114.8C179.892 115.442 180.186 116.333 180.186 117.473C180.186 118.589 179.869 119.485 179.235 120.159C178.606 120.829 177.761 121.164 176.699 121.164ZM176.781 114.779C176.061 114.779 175.492 115.025 175.072 115.518C174.653 116.005 174.443 116.68 174.443 117.541C174.443 118.37 174.655 119.024 175.079 119.503C175.503 119.981 176.07 120.221 176.781 120.221C177.506 120.221 178.062 119.986 178.449 119.517C178.841 119.047 179.037 118.38 179.037 117.514C179.037 116.639 178.841 115.964 178.449 115.49C178.062 115.016 177.506 114.779 176.781 114.779ZM191.916 121H190.795V116.98C190.795 116.206 190.674 115.645 190.433 115.299C190.196 114.952 189.795 114.779 189.229 114.779C188.751 114.779 188.343 114.998 188.006 115.436C187.673 115.873 187.507 116.397 187.507 117.008V121H186.386V116.844C186.386 115.467 185.855 114.779 184.793 114.779C184.301 114.779 183.895 114.987 183.576 115.401C183.257 115.812 183.098 116.347 183.098 117.008V121H181.977V114H183.098V115.107H183.125C183.622 114.26 184.346 113.836 185.299 113.836C185.777 113.836 186.194 113.97 186.55 114.239C186.905 114.504 187.149 114.852 187.281 115.285C187.801 114.319 188.576 113.836 189.605 113.836C191.146 113.836 191.916 114.786 191.916 116.687V121ZM203.223 121H198.027V111.197H203.004V112.236H199.176V115.497H202.717V116.529H199.176V119.961H203.223V121ZM210.77 121H209.648V117.008C209.648 115.522 209.106 114.779 208.021 114.779C207.461 114.779 206.996 114.991 206.627 115.415C206.262 115.834 206.08 116.365 206.08 117.008V121H204.959V114H206.08V115.162H206.107C206.636 114.278 207.402 113.836 208.404 113.836C209.17 113.836 209.756 114.084 210.161 114.581C210.567 115.073 210.77 115.786 210.77 116.721V121ZM218.863 120.439C218.863 123.01 217.633 124.295 215.172 124.295C214.306 124.295 213.549 124.131 212.902 123.803V122.682C213.691 123.119 214.443 123.338 215.158 123.338C216.881 123.338 217.742 122.422 217.742 120.59V119.824H217.715C217.182 120.717 216.38 121.164 215.309 121.164C214.438 121.164 213.736 120.854 213.203 120.234C212.674 119.61 212.41 118.774 212.41 117.726C212.41 116.536 212.695 115.59 213.265 114.889C213.839 114.187 214.623 113.836 215.616 113.836C216.56 113.836 217.259 114.214 217.715 114.971H217.742V114H218.863V120.439ZM217.742 117.835V116.803C217.742 116.247 217.553 115.771 217.175 115.374C216.801 114.978 216.334 114.779 215.773 114.779C215.081 114.779 214.538 115.032 214.146 115.538C213.755 116.039 213.559 116.743 213.559 117.65C213.559 118.43 213.745 119.054 214.119 119.523C214.497 119.988 214.996 120.221 215.616 120.221C216.245 120.221 216.756 119.997 217.147 119.551C217.544 119.104 217.742 118.532 217.742 117.835ZM221.707 112.223C221.507 112.223 221.336 112.154 221.194 112.018C221.053 111.881 220.982 111.708 220.982 111.498C220.982 111.288 221.053 111.115 221.194 110.979C221.336 110.837 221.507 110.767 221.707 110.767C221.912 110.767 222.085 110.837 222.227 110.979C222.372 111.115 222.445 111.288 222.445 111.498C222.445 111.699 222.372 111.869 222.227 112.011C222.085 112.152 221.912 112.223 221.707 112.223ZM222.254 121H221.133V114H222.254V121ZM230.334 121H229.213V117.008C229.213 115.522 228.671 114.779 227.586 114.779C227.025 114.779 226.561 114.991 226.191 115.415C225.827 115.834 225.645 116.365 225.645 117.008V121H224.523V114H225.645V115.162H225.672C226.201 114.278 226.966 113.836 227.969 113.836C228.734 113.836 229.32 114.084 229.726 114.581C230.131 115.073 230.334 115.786 230.334 116.721V121ZM238.079 117.78H233.137C233.155 118.56 233.365 119.161 233.766 119.585C234.167 120.009 234.718 120.221 235.42 120.221C236.208 120.221 236.933 119.961 237.594 119.441V120.494C236.979 120.941 236.165 121.164 235.153 121.164C234.164 121.164 233.387 120.847 232.822 120.214C232.257 119.576 231.975 118.68 231.975 117.527C231.975 116.438 232.282 115.552 232.897 114.868C233.517 114.18 234.285 113.836 235.201 113.836C236.117 113.836 236.826 114.132 237.327 114.725C237.828 115.317 238.079 116.14 238.079 117.192V117.78ZM236.931 116.83C236.926 116.183 236.769 115.679 236.459 115.319C236.154 114.959 235.728 114.779 235.181 114.779C234.652 114.779 234.203 114.968 233.834 115.347C233.465 115.725 233.237 116.219 233.15 116.83H236.931ZM250.445 120.59C249.721 120.973 248.818 121.164 247.738 121.164C246.344 121.164 245.227 120.715 244.389 119.817C243.55 118.92 243.131 117.742 243.131 116.283C243.131 114.715 243.603 113.449 244.546 112.482C245.489 111.516 246.686 111.033 248.135 111.033C249.064 111.033 249.835 111.168 250.445 111.437V112.66C249.743 112.268 248.969 112.072 248.121 112.072C246.995 112.072 246.082 112.448 245.38 113.2C244.683 113.952 244.334 114.957 244.334 116.215C244.334 117.409 244.66 118.361 245.312 119.072C245.968 119.779 246.827 120.132 247.889 120.132C248.873 120.132 249.725 119.913 250.445 119.476V120.59ZM255.217 121.164C254.182 121.164 253.355 120.838 252.735 120.187C252.12 119.53 251.812 118.662 251.812 117.582C251.812 116.406 252.134 115.488 252.776 114.827C253.419 114.166 254.287 113.836 255.381 113.836C256.424 113.836 257.238 114.157 257.821 114.8C258.409 115.442 258.703 116.333 258.703 117.473C258.703 118.589 258.386 119.485 257.753 120.159C257.124 120.829 256.279 121.164 255.217 121.164ZM255.299 114.779C254.579 114.779 254.009 115.025 253.59 115.518C253.171 116.005 252.961 116.68 252.961 117.541C252.961 118.37 253.173 119.024 253.597 119.503C254.021 119.981 254.588 120.221 255.299 120.221C256.023 120.221 256.579 119.986 256.967 119.517C257.359 119.047 257.555 118.38 257.555 117.514C257.555 116.639 257.359 115.964 256.967 115.49C256.579 115.016 256.023 114.779 255.299 114.779ZM261.643 119.988H261.615V124.22H260.494V114H261.615V115.23H261.643C262.194 114.301 263.001 113.836 264.062 113.836C264.965 113.836 265.669 114.15 266.175 114.779C266.681 115.404 266.934 116.242 266.934 117.295C266.934 118.466 266.649 119.405 266.079 120.111C265.509 120.813 264.73 121.164 263.741 121.164C262.834 121.164 262.135 120.772 261.643 119.988ZM261.615 117.165V118.143C261.615 118.721 261.802 119.214 262.176 119.619C262.554 120.02 263.033 120.221 263.611 120.221C264.29 120.221 264.821 119.961 265.204 119.441C265.591 118.922 265.785 118.2 265.785 117.274C265.785 116.495 265.605 115.884 265.245 115.442C264.885 115 264.397 114.779 263.782 114.779C263.131 114.779 262.606 115.007 262.21 115.463C261.813 115.914 261.615 116.481 261.615 117.165ZM269.299 112.223C269.098 112.223 268.927 112.154 268.786 112.018C268.645 111.881 268.574 111.708 268.574 111.498C268.574 111.288 268.645 111.115 268.786 110.979C268.927 110.837 269.098 110.767 269.299 110.767C269.504 110.767 269.677 110.837 269.818 110.979C269.964 111.115 270.037 111.288 270.037 111.498C270.037 111.699 269.964 111.869 269.818 112.011C269.677 112.152 269.504 112.223 269.299 112.223ZM269.846 121H268.725V114H269.846V121ZM273.236 121H272.115V110.637H273.236V121ZM278.432 121.164C277.397 121.164 276.57 120.838 275.95 120.187C275.335 119.53 275.027 118.662 275.027 117.582C275.027 116.406 275.349 115.488 275.991 114.827C276.634 114.166 277.502 113.836 278.596 113.836C279.639 113.836 280.453 114.157 281.036 114.8C281.624 115.442 281.918 116.333 281.918 117.473C281.918 118.589 281.601 119.485 280.968 120.159C280.339 120.829 279.493 121.164 278.432 121.164ZM278.514 114.779C277.794 114.779 277.224 115.025 276.805 115.518C276.385 116.005 276.176 116.68 276.176 117.541C276.176 118.37 276.388 119.024 276.812 119.503C277.235 119.981 277.803 120.221 278.514 120.221C279.238 120.221 279.794 119.986 280.182 119.517C280.574 119.047 280.77 118.38 280.77 117.514C280.77 116.639 280.574 115.964 280.182 115.49C279.794 115.016 279.238 114.779 278.514 114.779ZM286.956 120.932C286.692 121.077 286.343 121.15 285.91 121.15C284.684 121.15 284.071 120.467 284.071 119.1V114.957H282.868V114H284.071V112.291L285.192 111.929V114H286.956V114.957H285.192V118.901C285.192 119.371 285.272 119.706 285.432 119.906C285.591 120.107 285.855 120.207 286.225 120.207C286.507 120.207 286.751 120.13 286.956 119.975V120.932Z" fill="var(--vscode-icon-foreground, #3B3B3B)"/>
<path d="M 129.7 152 H 128.5 V 147.5 H 123.4 V 152 H 122.3 V 142.2 H 123.4 V 146.5 H 128.5 V 142.2 H 129.7 V 152 Z M 135 152.2 C 134 152.2 133.1 151.8 132.5 151.2 C 131.9 150.5 131.6 149.7 131.6 148.6 C 131.6 147.4 131.9 146.5 132.6 145.8 C 133.2 145.2 134.1 144.8 135.2 144.8 C 136.2 144.8 137 145.2 137.6 145.8 C 138.2 146.4 138.5 147.3 138.5 148.5 C 138.5 149.6 138.2 150.5 137.5 151.2 C 136.9 151.8 136.1 152.2 135 152.2 Z M 135.1 145.8 C 134.4 145.8 133.8 146 133.4 146.5 C 133 147 132.7 147.7 132.7 148.5 C 132.7 149.4 133 150 133.4 150.5 C 133.8 151 134.4 151.2 135.1 151.2 C 135.8 151.2 136.4 151 136.8 150.5 C 137.1 150 137.3 149.4 137.3 148.5 C 137.3 147.6 137.1 147 136.8 146.5 C 136.4 146 135.8 145.8 135.1 145.8 Z M 149.1 145 L 147 152 H 145.8 L 144.4 147 C 144.3 146.8 144.3 146.6 144.3 146.3 H 144.3 C 144.2 146.5 144.2 146.7 144.1 147 L 142.5 152 H 141.4 L 139.3 145 H 140.5 L 141.9 150.3 C 142 150.4 142 150.6 142 150.9 H 142.1 C 142.1 150.7 142.1 150.5 142.2 150.3 L 143.8 145 H 144.8 L 146.3 150.3 C 146.3 150.4 146.4 150.7 146.4 150.9 H 146.4 C 146.5 150.7 146.5 150.5 146.6 150.3 L 148 145 H 149.1 Z M 156.4 152 H 155.2 V 150.8 H 155.2 C 154.7 151.7 153.9 152.2 152.8 152.2 C 151.9 152.2 151.2 151.9 150.7 151.2 C 150.2 150.6 149.9 149.7 149.9 148.7 C 149.9 147.5 150.2 146.6 150.8 145.9 C 151.4 145.2 152.2 144.8 153.1 144.8 C 154.1 144.8 154.8 145.2 155.2 146 H 155.2 V 141.6 H 156.4 V 152 Z M 155.2 148.8 V 147.8 C 155.2 147.2 155.1 146.8 154.7 146.4 C 154.3 146 153.8 145.8 153.3 145.8 C 152.6 145.8 152 146 151.7 146.5 C 151.3 147 151.1 147.7 151.1 148.6 C 151.1 149.4 151.3 150.1 151.6 150.5 C 152 151 152.5 151.2 153.1 151.2 C 153.8 151.2 154.3 151 154.7 150.5 C 155.1 150.1 155.2 149.5 155.2 148.8 Z M 164.2 145 L 161 153.1 C 160.4 154.6 159.6 155.3 158.6 155.3 C 158.3 155.3 158 155.3 157.8 155.2 V 154.2 C 158.1 154.3 158.3 154.3 158.5 154.3 C 159.1 154.3 159.5 154 159.8 153.3 L 160.3 152 L 157.6 145 H 158.8 L 160.7 150.4 C 160.8 150.5 160.8 150.6 160.9 150.9 H 160.9 C 160.9 150.8 161 150.6 161.1 150.4 L 163 145 H 164.2 Z M 166.8 142.2 L 166.7 149.2 H 165.8 L 165.7 142.2 H 166.8 Z M 166.3 152.1 C 166.1 152.1 165.9 152.1 165.7 151.9 C 165.6 151.8 165.5 151.6 165.5 151.4 C 165.5 151.2 165.6 151 165.7 150.8 C 165.9 150.7 166.1 150.6 166.3 150.6 C 166.5 150.6 166.7 150.7 166.8 150.8 C 167 151 167 151.2 167 151.4 C 167 151.6 167 151.8 166.8 151.9 C 166.7 152.1 166.5 152.1 166.3 152.1 Z M 181 152 H 179.7 L 178.7 149.3 H 174.5 L 173.5 152 H 172.3 L 176 142.2 H 177.2 L 181 152 Z M 178.3 148.2 L 176.8 144 C 176.7 143.9 176.7 143.7 176.6 143.4 H 176.6 C 176.5 143.7 176.5 143.9 176.4 144 L 174.9 148.2 H 178.3 Z M 183.6 152 H 182.4 V 142.2 H 183.6 V 152 Z M 189.6 148.5 H 185.9 V 147.7 H 189.6 V 148.5 Z M 195.8 144.8 C 195.8 144.5 195.7 144.2 195.6 144 C 195.5 143.8 195.4 143.6 195.2 143.4 C 195.1 143.3 194.9 143.2 194.7 143.1 C 194.4 143 194.2 143 194 143 C 193.7 143 193.5 143 193.3 143.1 C 193.1 143.1 192.9 143.2 192.7 143.3 C 192.5 143.4 192.3 143.5 192.1 143.7 C 191.9 143.8 191.8 144 191.6 144.2 V 143 C 191.9 142.7 192.3 142.4 192.7 142.3 C 193.1 142.1 193.5 142 194.1 142 C 194.5 142 194.9 142.1 195.2 142.2 C 195.5 142.3 195.8 142.5 196.1 142.7 C 196.3 142.9 196.5 143.2 196.7 143.5 C 196.8 143.9 196.9 144.2 196.9 144.7 C 196.9 145.1 196.9 145.4 196.8 145.7 C 196.7 146 196.5 146.3 196.4 146.6 C 196.2 146.9 196 147.2 195.7 147.4 C 195.4 147.7 195.1 147.9 194.7 148.2 C 194.3 148.5 193.9 148.8 193.6 149 C 193.3 149.3 193 149.5 192.9 149.7 C 192.7 149.9 192.6 150.1 192.5 150.3 C 192.4 150.5 192.4 150.7 192.4 151 H 197.3 V 152 H 191.2 V 151.5 C 191.2 151.1 191.3 150.7 191.4 150.4 C 191.5 150.1 191.6 149.8 191.8 149.5 C 192 149.2 192.3 148.9 192.6 148.6 C 193 148.3 193.4 148 193.9 147.7 C 194.2 147.4 194.5 147.2 194.8 146.9 C 195 146.7 195.2 146.5 195.4 146.2 C 195.5 146 195.6 145.8 195.7 145.5 C 195.7 145.3 195.8 145 195.8 144.8 Z M 204.7 149 C 204.7 149.5 204.6 149.9 204.4 150.3 C 204.2 150.7 204 151 203.7 151.3 C 203.4 151.6 203 151.8 202.6 151.9 C 202.2 152.1 201.7 152.2 201.2 152.2 C 200.3 152.2 199.6 152 199.1 151.8 V 150.6 C 199.8 151 200.5 151.2 201.2 151.2 C 201.5 151.2 201.9 151.2 202.1 151.1 C 202.4 151 202.7 150.8 202.9 150.6 C 203.1 150.4 203.2 150.2 203.3 149.9 C 203.4 149.7 203.5 149.4 203.5 149.1 C 203.5 148.4 203.3 147.9 202.9 147.6 C 202.4 147.2 201.8 147 201 147 C 200.9 147 200.7 147 200.6 147 C 200.4 147 200.3 147 200.1 147.1 C 200 147.1 199.8 147.1 199.7 147.1 C 199.6 147.1 199.4 147.1 199.3 147.1 L 199.7 142.2 H 204.2 V 143.2 H 200.6 L 200.4 146.1 C 200.6 146.1 200.7 146.1 200.9 146.1 C 201.1 146.1 201.2 146.1 201.3 146.1 C 201.9 146.1 202.3 146.1 202.7 146.3 C 203.1 146.4 203.5 146.6 203.8 146.8 C 204.1 147.1 204.3 147.4 204.4 147.8 C 204.6 148.1 204.7 148.6 204.7 149 Z M 211.1 143.2 C 210.9 143.2 210.8 143.2 210.6 143 C 210.5 142.9 210.4 142.7 210.4 142.5 C 210.4 142.3 210.5 142.1 210.6 142 C 210.8 141.8 210.9 141.8 211.1 141.8 C 211.3 141.8 211.5 141.8 211.6 142 C 211.8 142.1 211.9 142.3 211.9 142.5 C 211.9 142.7 211.8 142.9 211.6 143 C 211.5 143.2 211.3 143.2 211.1 143.2 Z M 211.7 152 H 210.6 V 145 H 211.7 V 152 Z M 213.5 151.7 V 150.5 C 214.1 151 214.8 151.2 215.5 151.2 C 216.5 151.2 217 150.9 217 150.2 C 217 150 217 149.9 216.9 149.8 C 216.8 149.6 216.7 149.5 216.5 149.4 C 216.4 149.3 216.2 149.2 216 149.1 C 215.8 149.1 215.6 149 215.4 148.9 C 215.1 148.8 214.8 148.7 214.6 148.5 C 214.4 148.4 214.2 148.3 214 148.1 C 213.8 147.9 213.7 147.8 213.6 147.6 C 213.6 147.4 213.5 147.1 213.5 146.9 C 213.5 146.5 213.6 146.2 213.8 146 C 213.9 145.7 214.1 145.5 214.4 145.4 C 214.6 145.2 214.9 145.1 215.2 145 C 215.5 144.9 215.9 144.8 216.2 144.8 C 216.8 144.8 217.4 144.9 217.8 145.2 V 146.3 C 217.3 145.9 216.7 145.8 216.1 145.8 C 215.9 145.8 215.7 145.8 215.5 145.9 C 215.3 145.9 215.2 146 215.1 146.1 C 214.9 146.1 214.8 146.2 214.8 146.4 C 214.7 146.5 214.7 146.6 214.7 146.8 C 214.7 146.9 214.7 147.1 214.8 147.2 C 214.8 147.3 214.9 147.5 215.1 147.6 C 215.2 147.6 215.4 147.7 215.5 147.8 C 215.7 147.9 215.9 148 216.2 148.1 C 216.5 148.2 216.7 148.3 217 148.4 C 217.2 148.6 217.4 148.7 217.6 148.9 C 217.8 149 217.9 149.2 218 149.4 C 218.1 149.6 218.2 149.8 218.2 150.1 C 218.2 150.5 218.1 150.8 217.9 151 C 217.8 151.3 217.6 151.5 217.3 151.7 C 217.1 151.8 216.8 152 216.4 152 C 216.1 152.1 215.8 152.2 215.4 152.2 C 214.7 152.2 214 152 213.5 151.7 Z M 228.7 152 H 227.6 V 150.9 H 227.6 C 227.1 151.7 226.4 152.2 225.4 152.2 C 224.7 152.2 224.2 152 223.8 151.6 C 223.4 151.2 223.2 150.8 223.2 150.1 C 223.2 148.8 224 148.1 225.5 147.9 L 227.6 147.6 C 227.6 146.4 227.1 145.8 226.2 145.8 C 225.3 145.8 224.6 146.1 223.9 146.6 V 145.5 C 224.6 145.1 225.4 144.8 226.3 144.8 C 227.9 144.8 228.7 145.7 228.7 147.4 V 152 Z M 227.6 148.5 L 225.9 148.7 C 225.4 148.8 225 148.9 224.8 149.1 C 224.5 149.3 224.4 149.6 224.4 150.1 C 224.4 150.4 224.5 150.7 224.7 150.9 C 225 151.1 225.3 151.2 225.7 151.2 C 226.3 151.2 226.7 151 227.1 150.6 C 227.4 150.2 227.6 149.8 227.6 149.2 V 148.5 Z M 230.4 151.7 V 150.5 C 231 151 231.7 151.2 232.4 151.2 C 233.4 151.2 233.9 150.9 233.9 150.2 C 233.9 150 233.9 149.9 233.8 149.8 C 233.7 149.6 233.6 149.5 233.5 149.4 C 233.3 149.3 233.1 149.2 232.9 149.1 C 232.8 149.1 232.5 149 232.3 148.9 C 232 148.8 231.7 148.7 231.5 148.5 C 231.3 148.4 231.1 148.3 230.9 148.1 C 230.8 147.9 230.6 147.8 230.6 147.6 C 230.5 147.4 230.4 147.1 230.4 146.9 C 230.4 146.5 230.5 146.2 230.7 146 C 230.8 145.7 231 145.5 231.3 145.4 C 231.5 145.2 231.8 145.1 232.1 145 C 232.4 144.9 232.8 144.8 233.1 144.8 C 233.7 144.8 234.3 144.9 234.8 145.2 V 146.3 C 234.2 145.9 233.6 145.8 233 145.8 C 232.8 145.8 232.6 145.8 232.4 145.9 C 232.2 145.9 232.1 146 232 146.1 C 231.8 146.1 231.8 146.2 231.7 146.4 C 231.6 146.5 231.6 146.6 231.6 146.8 C 231.6 146.9 231.6 147.1 231.7 147.2 C 231.8 147.3 231.9 147.5 232 147.6 C 232.1 147.6 232.3 147.7 232.4 147.8 C 232.6 147.9 232.8 148 233.1 148.1 C 233.4 148.2 233.7 148.3 233.9 148.4 C 234.1 148.6 234.4 148.7 234.5 148.9 C 234.7 149 234.8 149.2 234.9 149.4 C 235 149.6 235.1 149.8 235.1 150.1 C 235.1 150.5 235 150.8 234.8 151 C 234.7 151.3 234.5 151.5 234.2 151.7 C 234 151.8 233.7 152 233.3 152 C 233 152.1 232.7 152.2 232.3 152.2 C 231.6 152.2 231 152 230.4 151.7 Z M 236.4 151.7 V 150.5 C 237 151 237.7 151.2 238.4 151.2 C 239.4 151.2 239.9 150.9 239.9 150.2 C 239.9 150 239.8 149.9 239.7 149.8 C 239.7 149.6 239.5 149.5 239.4 149.4 C 239.3 149.3 239.1 149.2 238.9 149.1 C 238.7 149.1 238.5 149 238.3 148.9 C 238 148.8 237.7 148.7 237.4 148.5 C 237.2 148.4 237 148.3 236.9 148.1 C 236.7 147.9 236.6 147.8 236.5 147.6 C 236.4 147.4 236.4 147.1 236.4 146.9 C 236.4 146.5 236.5 146.2 236.6 146 C 236.8 145.7 237 145.5 237.2 145.4 C 237.5 145.2 237.8 145.1 238.1 145 C 238.4 144.9 238.7 144.8 239.1 144.8 C 239.7 144.8 240.2 144.9 240.7 145.2 V 146.3 C 240.2 145.9 239.6 145.8 238.9 145.8 C 238.7 145.8 238.5 145.8 238.4 145.9 C 238.2 145.9 238 146 237.9 146.1 C 237.8 146.1 237.7 146.2 237.6 146.4 C 237.6 146.5 237.5 146.6 237.5 146.8 C 237.5 146.9 237.6 147.1 237.6 147.2 C 237.7 147.3 237.8 147.5 237.9 147.6 C 238.1 147.6 238.2 147.7 238.4 147.8 C 238.6 147.9 238.8 148 239 148.1 C 239.3 148.2 239.6 148.3 239.8 148.4 C 240.1 148.6 240.3 148.7 240.5 148.9 C 240.7 149 240.8 149.2 240.9 149.4 C 241 149.6 241 149.8 241 150.1 C 241 150.5 240.9 150.8 240.8 151 C 240.6 151.3 240.4 151.5 240.2 151.7 C 239.9 151.8 239.6 152 239.3 152 C 239 152.1 238.6 152.2 238.3 152.2 C 237.5 152.2 236.9 152 236.4 151.7 Z M 243.3 143.2 C 243.1 143.2 243 143.2 242.8 143 C 242.7 142.9 242.6 142.7 242.6 142.5 C 242.6 142.3 242.7 142.1 242.8 142 C 243 141.8 243.1 141.8 243.3 141.8 C 243.5 141.8 243.7 141.8 243.8 142 C 244 142.1 244.1 142.3 244.1 142.5 C 244.1 142.7 244 142.9 243.8 143 C 243.7 143.2 243.5 143.2 243.3 143.2 Z M 243.9 152 H 242.7 V 145 H 243.9 V 152 Z M 252.1 151.4 C 252.1 154 250.9 155.3 248.4 155.3 C 247.6 155.3 246.8 155.1 246.2 154.8 V 153.7 C 246.9 154.1 247.7 154.3 248.4 154.3 C 250.1 154.3 251 153.4 251 151.6 V 150.8 H 251 C 250.4 151.7 249.6 152.2 248.6 152.2 C 247.7 152.2 247 151.9 246.5 151.2 C 245.9 150.6 245.7 149.8 245.7 148.7 C 245.7 147.5 245.9 146.6 246.5 145.9 C 247.1 145.2 247.9 144.8 248.9 144.8 C 249.8 144.8 250.5 145.2 251 146 H 251 V 145 H 252.1 V 151.4 Z M 251 148.8 V 147.8 C 251 147.2 250.8 146.8 250.4 146.4 C 250.1 146 249.6 145.8 249 145.8 C 248.3 145.8 247.8 146 247.4 146.5 C 247 147 246.8 147.7 246.8 148.7 C 246.8 149.4 247 150.1 247.4 150.5 C 247.7 151 248.2 151.2 248.9 151.2 C 249.5 151.2 250 151 250.4 150.6 C 250.8 150.1 251 149.5 251 148.8 Z M 260.2 152 H 259.1 V 148 C 259.1 146.5 258.5 145.8 257.4 145.8 C 256.9 145.8 256.4 146 256.1 146.4 C 255.7 146.8 255.5 147.4 255.5 148 V 152 H 254.4 V 145 H 255.5 V 146.2 H 255.5 C 256.1 145.3 256.8 144.8 257.8 144.8 C 258.6 144.8 259.2 145.1 259.6 145.6 C 260 146.1 260.2 146.8 260.2 147.7 V 152 Z M 267.9 148.8 H 263 C 263 149.6 263.2 150.2 263.6 150.6 C 264 151 264.6 151.2 265.3 151.2 C 266.1 151.2 266.8 151 267.5 150.4 V 151.5 C 266.8 151.9 266 152.2 265 152.2 C 264 152.2 263.2 151.8 262.7 151.2 C 262.1 150.6 261.8 149.7 261.8 148.5 C 261.8 147.4 262.1 146.6 262.8 145.9 C 263.4 145.2 264.1 144.8 265.1 144.8 C 266 144.8 266.7 145.1 267.2 145.7 C 267.7 146.3 267.9 147.1 267.9 148.2 V 148.8 Z M 266.8 147.8 C 266.8 147.2 266.6 146.7 266.3 146.3 C 266 146 265.6 145.8 265 145.8 C 264.5 145.8 264.1 146 263.7 146.3 C 263.3 146.7 263.1 147.2 263 147.8 H 266.8 Z M 275.6 152 H 274.5 V 150.8 H 274.5 C 273.9 151.7 273.1 152.2 272.1 152.2 C 271.2 152.2 270.5 151.9 269.9 151.2 C 269.4 150.6 269.2 149.7 269.2 148.7 C 269.2 147.5 269.5 146.6 270 145.9 C 270.6 145.2 271.4 144.8 272.4 144.8 C 273.3 144.8 274 145.2 274.5 146 H 274.5 V 141.6 H 275.6 V 152 Z M 274.5 148.8 V 147.8 C 274.5 147.2 274.3 146.8 273.9 146.4 C 273.6 146 273.1 145.8 272.5 145.8 C 271.8 145.8 271.3 146 270.9 146.5 C 270.5 147 270.3 147.7 270.3 148.6 C 270.3 149.4 270.5 150.1 270.9 150.5 C 271.2 151 271.8 151.2 272.4 151.2 C 273 151.2 273.5 151 273.9 150.5 C 274.3 150.1 274.5 149.5 274.5 148.8 Z M 285 151.9 C 284.7 152.1 284.4 152.2 283.9 152.2 C 282.7 152.2 282.1 151.5 282.1 150.1 V 146 H 280.9 V 145 H 282.1 V 143.3 L 283.2 142.9 V 145 H 285 V 146 H 283.2 V 149.9 C 283.2 150.4 283.3 150.7 283.4 150.9 C 283.6 151.1 283.9 151.2 284.2 151.2 C 284.5 151.2 284.8 151.1 285 151 V 151.9 Z M 289.4 152.2 C 288.4 152.2 287.5 151.8 286.9 151.2 C 286.3 150.5 286 149.7 286 148.6 C 286 147.4 286.3 146.5 287 145.8 C 287.6 145.2 288.5 144.8 289.6 144.8 C 290.6 144.8 291.4 145.2 292 145.8 C 292.6 146.4 292.9 147.3 292.9 148.5 C 292.9 149.6 292.6 150.5 291.9 151.2 C 291.3 151.8 290.5 152.2 289.4 152.2 Z M 289.5 145.8 C 288.8 145.8 288.2 146 287.8 146.5 C 287.4 147 287.1 147.7 287.1 148.5 C 287.1 149.4 287.4 150 287.8 150.5 C 288.2 151 288.8 151.2 289.5 151.2 C 290.2 151.2 290.8 151 291.1 150.5 C 291.5 150 291.7 149.4 291.7 148.5 C 291.7 147.6 291.5 147 291.1 146.5 C 290.8 146 290.2 145.8 289.5 145.8 Z M 304.1 145 L 300.9 153.1 C 300.3 154.6 299.5 155.3 298.4 155.3 C 298.2 155.3 297.9 155.3 297.7 155.2 V 154.2 C 298 154.3 298.2 154.3 298.4 154.3 C 298.9 154.3 299.4 154 299.6 153.3 L 300.2 152 L 297.5 145 H 298.7 L 300.6 150.4 C 300.6 150.5 300.7 150.6 300.8 150.9 H 300.8 C 300.8 150.8 300.9 150.6 300.9 150.4 L 302.9 145 H 304.1 Z M 308.2 152.2 C 307.2 152.2 306.4 151.8 305.7 151.2 C 305.1 150.5 304.8 149.7 304.8 148.6 C 304.8 147.4 305.1 146.5 305.8 145.8 C 306.4 145.2 307.3 144.8 308.4 144.8 C 309.4 144.8 310.2 145.2 310.8 145.8 C 311.4 146.4 311.7 147.3 311.7 148.5 C 311.7 149.6 311.4 150.5 310.8 151.2 C 310.1 151.8 309.3 152.2 308.2 152.2 Z M 308.3 145.8 C 307.6 145.8 307 146 306.6 146.5 C 306.2 147 306 147.7 306 148.5 C 306 149.4 306.2 150 306.6 150.5 C 307 151 307.6 151.2 308.3 151.2 C 309 151.2 309.6 151 310 150.5 C 310.4 150 310.6 149.4 310.6 148.5 C 310.6 147.6 310.4 147 310 146.5 C 309.6 146 309 145.8 308.3 145.8 Z M 319.2 152 H 318 V 150.9 H 318 C 317.5 151.7 316.8 152.2 315.9 152.2 C 314.2 152.2 313.4 151.2 313.4 149.2 V 145 H 314.5 V 149 C 314.5 150.5 315 151.2 316.2 151.2 C 316.7 151.2 317.2 151 317.5 150.6 C 317.9 150.2 318 149.7 318 149 V 145 H 319.2 V 152 Z M 322.9 142.2 L 322.7 149.2 H 321.8 L 321.7 142.2 H 322.9 Z M 322.3 152.1 C 322.1 152.1 321.9 152.1 321.7 151.9 C 321.6 151.8 321.5 151.6 321.5 151.4 C 321.5 151.2 321.6 151 321.7 150.8 C 321.9 150.7 322.1 150.6 322.3 150.6 C 322.5 150.6 322.7 150.7 322.8 150.8 C 323 151 323 151.2 323 151.4 C 323 151.6 323 151.8 322.8 151.9 C 322.7 152.1 322.5 152.1 322.3 152.1 Z" fill="var(--vscode-icon-foreground, #3B3B3B)"/>
<rect x="123" y="169" width="100" height="10" rx="4" fill="var(--vscode-button-secondaryHoverBackground, #CCCCCC)"/>
<path d="M 89.5 121.4 C 89.6 121.5 89.7 121.5 89.7 121.6 C 89.7 121.5 89.8 121.4 89.8 121.4 V 114.6 C 89.8 112.8 88.2 111.3 86.4 111.3 L 81.1 111.2 L 81.1 110.1 L 81.1 110 C 81 109.4 80.6 109 80 109 L 79.8 109 C 79.3 109.1 78.9 109.6 78.9 110.1 L 78.9 111.2 L 73.6 111.3 C 71.8 111.3 70.3 112.8 70.3 114.6 V 121.4 C 70.3 123.2 71.8 124.8 73.6 124.8 H 85.3 C 85.3 124.7 85.3 124.7 85.3 124.7 L 85.3 124.6 L 86 122.6 L 86 122.5 C 86.2 122.1 86.5 121.7 86.9 121.4 C 87.3 121.1 87.7 121 88.2 121 C 88.7 121 89.2 121.1 89.5 121.4 Z M 76.6 115.8 C 77.7 115.8 78.5 116.6 78.5 117.6 C 78.5 118.7 77.7 119.5 76.6 119.5 C 75.6 119.5 74.8 118.7 74.8 117.6 C 74.8 116.6 75.6 115.8 76.6 115.8 Z M 83.4 115.8 C 84.4 115.8 85.2 116.6 85.2 117.6 C 85.2 118.7 84.4 119.5 83.4 119.5 C 82.3 119.5 81.5 118.7 81.5 117.6 C 81.5 116.6 82.3 115.8 83.4 115.8 Z M 81.6 127.1 L 81.7 127 H 71.4 C 69.5 127 68 128.5 68 130.4 V 131.7 C 68 133.4 68.7 134.9 70 136 C 72.3 138 75.7 139 80 139 C 83.1 139 85.7 138.5 87.8 137.5 C 87.5 137.4 87.2 137.3 86.9 137.1 C 86.5 136.8 86.2 136.4 86.1 136 L 86.1 135.9 L 85.4 133.9 L 85.4 133.9 C 85.3 133.6 85.1 133.3 84.9 133 C 84.9 132.9 84.8 132.9 84.7 132.8 L 84.2 132.4 L 83.6 132.1 L 81.6 131.4 L 81.5 131.4 C 81.1 131.3 80.7 131 80.4 130.6 C 80.1 130.2 80 129.7 80 129.2 C 80 128.8 80.1 128.3 80.4 127.9 C 80.7 127.5 81.1 127.2 81.5 127.1 L 81.6 127.1 Z M 85.8 131.7 C 85.9 131.8 86 132 86.1 132.1 C 86.4 132.5 86.7 132.9 86.8 133.4 L 87.5 135.5 C 87.5 135.6 87.6 135.8 87.8 135.8 C 87.9 135.9 88.1 136 88.3 136 C 88.4 136 88.6 135.9 88.7 135.8 C 88.8 135.8 88.9 135.6 89 135.5 C 89 135.5 89 135.5 89 135.5 L 89.7 133.4 C 89.9 132.8 90.3 132.2 90.7 131.7 C 91.2 131.3 91.8 130.9 92.4 130.7 L 94.5 130 C 94.6 130 94.8 129.9 94.8 129.7 C 94.9 129.6 95 129.4 95 129.3 C 95 129.1 94.9 128.9 94.8 128.8 C 94.8 128.6 94.6 128.5 94.5 128.5 L 94.4 128.5 L 92.3 127.8 C 91.7 127.6 91.1 127.2 90.7 126.8 C 90.2 126.3 89.9 125.7 89.7 125.1 L 89 123 C 88.9 122.9 88.8 122.7 88.7 122.7 C 88.5 122.6 88.4 122.5 88.2 122.5 C 88 122.5 87.9 122.6 87.7 122.7 C 87.6 122.7 87.5 122.9 87.4 123 L 86.8 125.1 L 86.8 125.2 C 86.5 125.8 86.2 126.3 85.8 126.8 C 85.3 127.2 84.7 127.6 84.1 127.8 L 82 128.5 C 81.9 128.5 81.7 128.6 81.7 128.8 C 81.6 128.9 81.5 129.1 81.5 129.2 C 81.5 129.4 81.6 129.6 81.7 129.7 C 81.7 129.9 81.9 130 82 130 L 84.1 130.7 C 84.7 130.9 85.3 131.2 85.8 131.7 Z M 96.5 137.4 L 97.7 137.8 L 97.7 137.8 C 97.8 137.9 97.9 137.9 97.9 138 C 98 138.1 98 138.2 98 138.3 C 98 138.3 98 138.4 97.9 138.5 C 97.9 138.6 97.8 138.6 97.7 138.7 L 96.5 139.1 C 96.2 139.2 95.9 139.4 95.6 139.6 C 95.4 139.9 95.2 140.2 95.1 140.6 L 94.7 141.7 C 94.6 141.8 94.6 141.9 94.5 141.9 C 94.4 142 94.3 142 94.3 142 C 94.2 142 94.1 142 94 141.9 C 93.9 141.9 93.9 141.8 93.8 141.7 L 93.4 140.6 C 93.3 140.2 93.1 139.9 92.9 139.6 C 92.6 139.4 92.3 139.2 92 139 L 90.8 138.7 C 90.7 138.6 90.6 138.6 90.6 138.5 C 90.5 138.4 90.5 138.3 90.5 138.2 C 90.5 138.2 90.5 138.1 90.6 138 C 90.6 137.9 90.7 137.9 90.8 137.8 L 92 137.4 C 92.3 137.3 92.6 137.1 92.9 136.9 C 93.1 136.6 93.3 136.3 93.4 135.9 L 93.8 134.8 C 93.8 134.7 93.9 134.6 94 134.6 C 94 134.5 94.1 134.5 94.2 134.5 C 94.3 134.5 94.4 134.5 94.5 134.6 C 94.6 134.6 94.6 134.7 94.7 134.8 L 95 135.9 C 95.1 136.3 95.3 136.6 95.6 136.9 C 95.9 137.1 96.2 137.3 96.5 137.4 Z" fill="var(--vscode-icon-foreground, #3B3B3B)"/>
<defs>
<filter id="filter0_d_272_24887" x="0" y="0" width="419" height="375" filterUnits="userSpaceOnUse" color-interpolation-filters="sRGB">
<feFlood flood-opacity="0" result="BackgroundImageFix"/>
<feColorMatrix in="SourceAlpha" type="matrix" values="0 0 0 0 0 0 0 0 0 0 0 0 0 0 0 0 0 0 127 0" result="hardAlpha"/>
<feOffset dy="4"/>
<feGaussianBlur stdDeviation="2"/>
<feComposite in2="hardAlpha" operator="out"/>
<feColorMatrix type="matrix" values="0 0 0 0 0 0 0 0 0 0 0 0 0 0 0 0 0 0 0.25 0"/>
<feBlend mode="normal" in2="BackgroundImageFix" result="effect1_dropShadow_272_24887"/>
<feBlend mode="normal" in="SourceGraphic" in2="effect1_dropShadow_272_24887" result="shape"/>
</filter>
</defs>
</svg>
