<svg width="412" height="110" viewBox="0 0 412 110" fill="none" xmlns="http://www.w3.org/2000/svg">
<path d="M110 0H408C410.209 0 412 1.79086 412 4V106C412 108.209 410.209 110 408 110H110V0Z" fill="#292929"/>
<path d="M135.196 30.1357V40H139.079C142.032 40 143.707 38.1953 143.707 35.0029C143.707 31.9062 142.012 30.1357 139.079 30.1357H135.196ZM137.261 31.8379H138.751C140.542 31.8379 141.602 33 141.602 35.0371C141.602 37.1494 140.576 38.2979 138.751 38.2979H137.261V31.8379ZM148.813 40.1572C151.131 40.1572 152.525 38.6943 152.525 36.2334C152.525 33.793 151.11 32.3096 148.813 32.3096C146.517 32.3096 145.102 33.7998 145.102 36.2334C145.102 38.6875 146.496 40.1572 148.813 40.1572ZM148.813 38.585C147.747 38.585 147.146 37.7236 147.146 36.2334C147.146 34.7568 147.754 33.8887 148.813 33.8887C149.866 33.8887 150.481 34.7568 150.481 36.2334C150.481 37.7236 149.873 38.585 148.813 38.585ZM160.824 35.0986C160.66 33.417 159.464 32.3096 157.468 32.3096C155.109 32.3096 153.783 33.7383 153.783 36.2197C153.783 38.7285 155.116 40.1572 157.468 40.1572C159.43 40.1572 160.66 39.0771 160.824 37.4229H158.965C158.814 38.1748 158.281 38.5781 157.468 38.5781C156.401 38.5781 155.793 37.7373 155.793 36.2197C155.793 34.7227 156.395 33.8955 157.468 33.8955C158.315 33.8955 158.828 34.374 158.965 35.0986H160.824ZM169.205 32.4736H167.216V36.8213C167.216 37.8535 166.683 38.4893 165.691 38.4893C164.775 38.4893 164.304 37.9492 164.304 36.8828V32.4736H162.314V37.375C162.314 39.125 163.326 40.1572 164.953 40.1572C166.095 40.1572 166.799 39.665 167.154 38.79H167.277V40H169.205V32.4736ZM171.201 40H173.19V35.4609C173.19 34.5996 173.744 33.9707 174.523 33.9707C175.303 33.9707 175.768 34.4355 175.768 35.2422V40H177.682V35.3721C177.682 34.5586 178.201 33.9707 179.008 33.9707C179.849 33.9707 180.266 34.4219 180.266 35.3311V40H182.255V34.832C182.255 33.2803 181.318 32.3096 179.814 32.3096C178.762 32.3096 177.894 32.8633 177.545 33.6973H177.422C177.121 32.8359 176.396 32.3096 175.337 32.3096C174.346 32.3096 173.56 32.8359 173.252 33.6973H173.129V32.4736H171.201V40ZM189.063 37.874C188.852 38.3867 188.312 38.6738 187.525 38.6738C186.486 38.6738 185.83 37.9561 185.803 36.8076V36.7051H190.978V36.1104C190.978 33.7314 189.665 32.3096 187.443 32.3096C185.201 32.3096 183.82 33.8271 183.82 36.2744C183.82 38.708 185.174 40.1572 187.471 40.1572C189.316 40.1572 190.622 39.2754 190.916 37.874H189.063ZM187.45 33.793C188.38 33.793 188.981 34.4355 189.022 35.4678H185.81C185.878 34.4561 186.527 33.793 187.45 33.793ZM192.611 40H194.601V35.6455C194.601 34.627 195.168 33.9707 196.091 33.9707C197.034 33.9707 197.479 34.5244 197.479 35.584V40H199.468V35.1328C199.468 33.335 198.565 32.3096 196.891 32.3096C195.776 32.3096 195.011 32.8359 194.662 33.6836H194.539V32.4736H192.611V40ZM201.97 30.6758V32.542H200.794V34.0527H201.97V37.9697C201.97 39.4326 202.694 40.0273 204.526 40.0273C204.909 40.0273 205.278 39.9863 205.524 39.9385V38.4688C205.333 38.4893 205.196 38.5029 204.937 38.5029C204.26 38.5029 203.959 38.1885 203.959 37.5117V34.0527H205.524V32.542H203.959V30.6758H201.97ZM209.25 40.1162C210.228 40.1162 211.048 39.6992 211.438 39.002H211.561V40H213.488V34.8594C213.488 33.2529 212.36 32.3096 210.364 32.3096C208.471 32.3096 207.192 33.1777 207.062 34.5586H208.895C209.059 34.0869 209.537 33.834 210.255 33.834C211.075 33.834 211.526 34.21 211.526 34.8594V35.4814L209.701 35.5908C207.828 35.7002 206.782 36.4932 206.782 37.8535C206.782 39.2275 207.801 40.1162 209.25 40.1162ZM209.906 38.6602C209.216 38.6602 208.73 38.3115 208.73 37.7305C208.73 37.1768 209.147 36.8555 210.002 36.8008L211.526 36.6982V37.2588C211.526 38.0518 210.829 38.6602 209.906 38.6602ZM216.011 30.6758V32.542H214.835V34.0527H216.011V37.9697C216.011 39.4326 216.735 40.0273 218.567 40.0273C218.95 40.0273 219.319 39.9863 219.565 39.9385V38.4688C219.374 38.4893 219.237 38.5029 218.978 38.5029C218.301 38.5029 218 38.1885 218 37.5117V34.0527H219.565V32.542H218V30.6758H216.011ZM222.238 31.3184C222.854 31.3184 223.359 30.8262 223.359 30.2109C223.359 29.5889 222.854 29.0967 222.238 29.0967C221.623 29.0967 221.11 29.5889 221.11 30.2109C221.11 30.8262 221.623 31.3184 222.238 31.3184ZM221.24 40H223.229V32.4736H221.24V40ZM228.589 40.1572C230.906 40.1572 232.301 38.6943 232.301 36.2334C232.301 33.793 230.886 32.3096 228.589 32.3096C226.292 32.3096 224.877 33.7998 224.877 36.2334C224.877 38.6875 226.271 40.1572 228.589 40.1572ZM228.589 38.585C227.522 38.585 226.921 37.7236 226.921 36.2334C226.921 34.7568 227.529 33.8887 228.589 33.8887C229.642 33.8887 230.257 34.7568 230.257 36.2334C230.257 37.7236 229.648 38.585 228.589 38.585ZM233.928 40H235.917V35.6455C235.917 34.627 236.484 33.9707 237.407 33.9707C238.351 33.9707 238.795 34.5244 238.795 35.584V40H240.784V35.1328C240.784 33.335 239.882 32.3096 238.207 32.3096C237.093 32.3096 236.327 32.8359 235.979 33.6836H235.855V32.4736H233.928V40Z" fill="white"/>
<path opacity="0.8" d="M135.149 52.8403V62H138.456C141.186 62 142.766 60.3115 142.766 57.3979C142.766 54.5161 141.173 52.8403 138.456 52.8403H135.149ZM136.571 54.0654H138.297C140.195 54.0654 141.319 55.3032 141.319 57.417C141.319 59.5498 140.214 60.7749 138.297 60.7749H136.571V54.0654ZM145.242 53.875C145.718 53.875 146.105 53.4878 146.105 53.0181C146.105 52.542 145.718 52.1548 145.242 52.1548C144.766 52.1548 144.378 52.542 144.378 53.0181C144.378 53.4878 144.766 53.875 145.242 53.875ZM144.562 62H145.921V55.1064H144.562V62ZM147.768 57.0361C147.768 58.0581 148.377 58.6421 149.691 58.9468L150.897 59.2324C151.589 59.3975 151.913 59.6768 151.913 60.1084C151.913 60.6733 151.31 61.0669 150.459 61.0669C149.634 61.0669 149.126 60.7305 148.955 60.1909H147.59C147.711 61.3906 148.784 62.1333 150.428 62.1333C152.078 62.1333 153.291 61.2637 153.291 59.9814C153.291 58.9785 152.675 58.4136 151.361 58.1089L150.212 57.8423C149.463 57.6646 149.114 57.3979 149.114 56.9727C149.114 56.4141 149.691 56.0396 150.453 56.0396C151.228 56.0396 151.723 56.376 151.85 56.8901H153.157C153.024 55.6968 152.008 54.9731 150.453 54.9731C148.892 54.9731 147.768 55.8364 147.768 57.0361ZM160.787 57.3218C160.609 55.9824 159.562 54.9731 157.829 54.9731C155.817 54.9731 154.592 56.3379 154.592 58.5278C154.592 60.7622 155.823 62.1333 157.835 62.1333C159.543 62.1333 160.609 61.1748 160.787 59.8164H159.46C159.283 60.5654 158.692 60.9717 157.829 60.9717C156.693 60.9717 155.988 60.0513 155.988 58.5278C155.988 57.0361 156.687 56.1348 157.829 56.1348C158.743 56.1348 159.302 56.6489 159.46 57.3218H160.787ZM165.269 62.1333C167.287 62.1333 168.525 60.7812 168.525 58.5532C168.525 56.3252 167.281 54.9731 165.269 54.9731C163.25 54.9731 162.006 56.3315 162.006 58.5532C162.006 60.7812 163.244 62.1333 165.269 62.1333ZM165.269 60.9717C164.082 60.9717 163.415 60.0894 163.415 58.5532C163.415 57.0171 164.082 56.1284 165.269 56.1284C166.449 56.1284 167.122 57.0171 167.122 58.5532C167.122 60.083 166.449 60.9717 165.269 60.9717ZM175.755 55.1064H174.308L172.594 60.6035H172.486L170.766 55.1064H169.306L171.8 62H173.267L175.755 55.1064ZM181.404 60.1528C181.15 60.7114 180.585 61.0161 179.76 61.0161C178.668 61.0161 177.964 60.229 177.919 58.9785V58.915H182.801V58.4453C182.801 56.2871 181.639 54.9731 179.716 54.9731C177.767 54.9731 176.529 56.376 176.529 58.5659C176.529 60.7686 177.742 62.1333 179.722 62.1333C181.303 62.1333 182.42 61.3716 182.718 60.1528H181.404ZM179.709 56.084C180.719 56.084 181.379 56.814 181.411 57.9312H177.919C177.996 56.8203 178.7 56.084 179.709 56.084ZM184.438 62H185.803V57.8804C185.803 56.9092 186.533 56.2427 187.568 56.2427C187.809 56.2427 188.215 56.2871 188.33 56.3188V55.0366C188.184 55.0049 187.923 54.9858 187.72 54.9858C186.819 54.9858 186.051 55.4746 185.854 56.1538H185.752V55.1064H184.438V62ZM199.051 57.3218C198.873 55.9824 197.826 54.9731 196.093 54.9731C194.081 54.9731 192.855 56.3379 192.855 58.5278C192.855 60.7622 194.087 62.1333 196.099 62.1333C197.807 62.1333 198.873 61.1748 199.051 59.8164H197.724C197.546 60.5654 196.956 60.9717 196.093 60.9717C194.957 60.9717 194.252 60.0513 194.252 58.5278C194.252 57.0361 194.95 56.1348 196.093 56.1348C197.007 56.1348 197.565 56.6489 197.724 57.3218H199.051ZM203.532 62.1333C205.551 62.1333 206.789 60.7812 206.789 58.5532C206.789 56.3252 205.544 54.9731 203.532 54.9731C201.514 54.9731 200.27 56.3315 200.27 58.5532C200.27 60.7812 201.507 62.1333 203.532 62.1333ZM203.532 60.9717C202.345 60.9717 201.679 60.0894 201.679 58.5532C201.679 57.0171 202.345 56.1284 203.532 56.1284C204.713 56.1284 205.386 57.0171 205.386 58.5532C205.386 60.083 204.713 60.9717 203.532 60.9717ZM208.433 62H209.797V57.7661C209.797 56.8647 210.426 56.1602 211.257 56.1602C212.07 56.1602 212.59 56.6489 212.59 57.436V62H213.93V57.6392C213.93 56.8076 214.507 56.1602 215.39 56.1602C216.285 56.1602 216.729 56.6235 216.729 57.5757V62H218.094V57.2456C218.094 55.811 217.281 54.9731 215.885 54.9731C214.926 54.9731 214.133 55.4619 213.784 56.2046H213.676C213.371 55.4619 212.717 54.9731 211.771 54.9731C210.851 54.9731 210.153 55.4302 209.848 56.2046H209.747V55.1064H208.433V62ZM223.597 54.9858C222.658 54.9858 221.845 55.4619 221.426 56.249H221.325V55.1064H220.011V64.2979H221.375V60.959H221.483C221.845 61.689 222.626 62.1143 223.61 62.1143C225.355 62.1143 226.466 60.7305 226.466 58.5532C226.466 56.3633 225.355 54.9858 223.597 54.9858ZM223.21 60.9463C222.067 60.9463 221.35 60.0259 221.35 58.5532C221.35 57.0742 222.067 56.1538 223.216 56.1538C224.372 56.1538 225.063 57.0552 225.063 58.5532C225.063 60.0513 224.372 60.9463 223.21 60.9463ZM228.11 62H229.475V57.8804C229.475 56.9092 230.205 56.2427 231.24 56.2427C231.481 56.2427 231.887 56.2871 232.001 56.3188V55.0366C231.855 55.0049 231.595 54.9858 231.392 54.9858C230.491 54.9858 229.723 55.4746 229.526 56.1538H229.424V55.1064H228.11V62ZM237.67 60.1528C237.416 60.7114 236.851 61.0161 236.026 61.0161C234.934 61.0161 234.229 60.229 234.185 58.9785V58.915H239.066V58.4453C239.066 56.2871 237.905 54.9731 235.981 54.9731C234.033 54.9731 232.795 56.376 232.795 58.5659C232.795 60.7686 234.007 62.1333 235.988 62.1333C237.568 62.1333 238.686 61.3716 238.984 60.1528H237.67ZM235.975 56.084C236.984 56.084 237.645 56.814 237.676 57.9312H234.185C234.261 56.8203 234.966 56.084 235.975 56.084ZM240.768 62H242.132V57.9629C242.132 56.8838 242.754 56.1665 243.872 56.1665C244.836 56.1665 245.351 56.7314 245.351 57.8677V62H246.715V57.5439C246.715 55.9126 245.808 54.9795 244.335 54.9795C243.294 54.9795 242.564 55.4365 242.228 56.2046H242.12V52.4023H240.768V62ZM253.171 60.1528C252.917 60.7114 252.352 61.0161 251.527 61.0161C250.435 61.0161 249.73 60.229 249.686 58.9785V58.915H254.567V58.4453C254.567 56.2871 253.406 54.9731 251.482 54.9731C249.534 54.9731 248.296 56.376 248.296 58.5659C248.296 60.7686 249.508 62.1333 251.489 62.1333C253.069 62.1333 254.187 61.3716 254.485 60.1528H253.171ZM251.476 56.084C252.485 56.084 253.146 56.814 253.177 57.9312H249.686C249.762 56.8203 250.467 56.084 251.476 56.084ZM256.205 62H257.57V57.9565C257.57 56.8457 258.211 56.1602 259.22 56.1602C260.229 56.1602 260.712 56.7188 260.712 57.8613V62H262.077V57.5376C262.077 55.8936 261.226 54.9731 259.684 54.9731C258.643 54.9731 257.957 55.4365 257.621 56.1982H257.519V55.1064H256.205V62ZM263.841 57.0361C263.841 58.0581 264.451 58.6421 265.765 58.9468L266.971 59.2324C267.663 59.3975 267.986 59.6768 267.986 60.1084C267.986 60.6733 267.383 61.0669 266.533 61.0669C265.708 61.0669 265.2 60.7305 265.028 60.1909H263.664C263.784 61.3906 264.857 62.1333 266.501 62.1333C268.151 62.1333 269.364 61.2637 269.364 59.9814C269.364 58.9785 268.748 58.4136 267.434 58.1089L266.285 57.8423C265.536 57.6646 265.187 57.3979 265.187 56.9727C265.187 56.4141 265.765 56.0396 266.526 56.0396C267.301 56.0396 267.796 56.376 267.923 56.8901H269.23C269.097 55.6968 268.082 54.9731 266.526 54.9731C264.965 54.9731 263.841 55.8364 263.841 57.0361ZM271.712 53.875C272.188 53.875 272.576 53.4878 272.576 53.0181C272.576 52.542 272.188 52.1548 271.712 52.1548C271.236 52.1548 270.849 52.542 270.849 53.0181C270.849 53.4878 271.236 53.875 271.712 53.875ZM271.033 62H272.392V55.1064H271.033V62ZM280.25 55.1064H278.803L277.089 60.6035H276.981L275.261 55.1064H273.801L276.295 62H277.762L280.25 55.1064ZM285.899 60.1528C285.646 60.7114 285.081 61.0161 284.255 61.0161C283.164 61.0161 282.459 60.229 282.415 58.9785V58.915H287.296V58.4453C287.296 56.2871 286.134 54.9731 284.211 54.9731C282.262 54.9731 281.024 56.376 281.024 58.5659C281.024 60.7686 282.237 62.1333 284.217 62.1333C285.798 62.1333 286.915 61.3716 287.213 60.1528H285.899ZM284.205 56.084C285.214 56.084 285.874 56.814 285.906 57.9312H282.415C282.491 56.8203 283.195 56.084 284.205 56.084ZM294.024 58.0137H293.917V52.4023H292.552V62H293.917V59.4927L294.52 58.915L296.894 62H298.569L295.535 58.0581L298.379 55.1064H296.767L294.024 58.0137ZM299.826 62H301.191V57.9565C301.191 56.8457 301.832 56.1602 302.841 56.1602C303.851 56.1602 304.333 56.7188 304.333 57.8613V62H305.698V57.5376C305.698 55.8936 304.847 54.9731 303.305 54.9731C302.264 54.9731 301.578 55.4365 301.242 56.1982H301.14V55.1064H299.826V62ZM310.541 62.1333C312.56 62.1333 313.797 60.7812 313.797 58.5532C313.797 56.3252 312.553 54.9731 310.541 54.9731C308.522 54.9731 307.278 56.3315 307.278 58.5532C307.278 60.7812 308.516 62.1333 310.541 62.1333ZM310.541 60.9717C309.354 60.9717 308.688 60.0894 308.688 58.5532C308.688 57.0171 309.354 56.1284 310.541 56.1284C311.722 56.1284 312.395 57.0171 312.395 58.5532C312.395 60.083 311.722 60.9717 310.541 60.9717ZM324.176 55.1064H322.811L321.58 60.4258H321.472L320.05 55.1064H318.742L317.32 60.4258H317.219L315.981 55.1064H314.597L316.501 62H317.904L319.326 56.8584H319.434L320.862 62H322.278L324.176 55.1064ZM325.648 62H327.013V52.4023H325.648V62ZM333.596 60.1528C333.342 60.7114 332.777 61.0161 331.952 61.0161C330.86 61.0161 330.155 60.229 330.111 58.9785V58.915H334.992V58.4453C334.992 56.2871 333.831 54.9731 331.907 54.9731C329.958 54.9731 328.721 56.376 328.721 58.5659C328.721 60.7686 329.933 62.1333 331.914 62.1333C333.494 62.1333 334.611 61.3716 334.91 60.1528H333.596ZM331.901 56.084C332.91 56.084 333.57 56.814 333.602 57.9312H330.111C330.187 56.8203 330.892 56.084 331.901 56.084ZM339.156 62.1143C340.108 62.1143 340.915 61.6636 341.327 60.9082H341.435V62H342.743V52.4023H341.378V56.1982H341.276C340.902 55.4429 340.102 54.9858 339.156 54.9858C337.411 54.9858 336.287 56.376 336.287 58.5469C336.287 60.7305 337.398 62.1143 339.156 62.1143ZM339.543 56.1538C340.686 56.1538 341.403 57.0806 341.403 58.5532C341.403 60.0386 340.692 60.9463 339.543 60.9463C338.388 60.9463 337.696 60.0513 337.696 58.5532C337.696 57.0615 338.395 56.1538 339.543 56.1538ZM347.707 64.6343C349.662 64.6343 350.899 63.6377 350.899 62.0698V55.1064H349.592V56.2046H349.484C349.097 55.4556 348.265 54.9858 347.313 54.9858C345.548 54.9858 344.444 56.376 344.444 58.4644C344.444 60.5337 345.536 61.8984 347.3 61.8984C348.252 61.8984 349.014 61.4858 349.433 60.7368H349.535V62.0635C349.535 62.9966 348.862 63.5552 347.726 63.5552C346.805 63.5552 346.228 63.2251 346.113 62.7046H344.717C344.863 63.8662 345.98 64.6343 347.707 64.6343ZM347.688 60.7686C346.513 60.7686 345.853 59.8735 345.853 58.4644C345.853 57.0552 346.513 56.1538 347.688 56.1538C348.849 56.1538 349.56 57.0552 349.56 58.4644C349.56 59.8735 348.855 60.7686 347.688 60.7686ZM357.412 60.1528C357.158 60.7114 356.593 61.0161 355.768 61.0161C354.676 61.0161 353.972 60.229 353.927 58.9785V58.915H358.809V58.4453C358.809 56.2871 357.647 54.9731 355.724 54.9731C353.775 54.9731 352.537 56.376 352.537 58.5659C352.537 60.7686 353.75 62.1333 355.73 62.1333C357.311 62.1333 358.428 61.3716 358.726 60.1528H357.412ZM355.717 56.084C356.727 56.084 357.387 56.814 357.418 57.9312H353.927C354.003 56.8203 354.708 56.084 355.717 56.084ZM138.653 78.1143C140.398 78.1143 141.509 76.7241 141.509 74.5532C141.509 72.3633 140.405 70.9858 138.653 70.9858C137.707 70.9858 136.895 71.4492 136.526 72.1982H136.418V68.4023H135.054V78H136.368V76.9082H136.469C136.882 77.6699 137.688 78.1143 138.653 78.1143ZM138.259 72.1538C139.415 72.1538 140.106 73.0615 140.106 74.5532C140.106 76.0449 139.415 76.9463 138.259 76.9463C137.11 76.9463 136.399 76.0322 136.393 74.5532C136.399 73.0742 137.117 72.1538 138.259 72.1538ZM145.064 78.1143C145.972 78.1143 146.727 77.7207 147.14 77.0225H147.248V78H148.562V73.2837C148.562 71.8364 147.584 70.9731 145.851 70.9731C144.283 70.9731 143.166 71.7285 143.026 72.8901H144.347C144.499 72.3887 145.026 72.103 145.788 72.103C146.721 72.103 147.203 72.5283 147.203 73.2837V73.8867L145.331 74.001C143.687 74.1025 142.76 74.8198 142.76 76.0576C142.76 77.3145 143.731 78.1143 145.064 78.1143ZM145.413 77.0161C144.67 77.0161 144.131 76.6416 144.131 76.0005C144.131 75.3721 144.562 75.0356 145.515 74.9722L147.203 74.8579V75.4546C147.203 76.3433 146.441 77.0161 145.413 77.0161ZM150.345 73.0361C150.345 74.0581 150.955 74.6421 152.269 74.9468L153.475 75.2324C154.167 75.3975 154.49 75.6768 154.49 76.1084C154.49 76.6733 153.887 77.0669 153.037 77.0669C152.211 77.0669 151.704 76.7305 151.532 76.1909H150.167C150.288 77.3906 151.361 78.1333 153.005 78.1333C154.655 78.1333 155.868 77.2637 155.868 75.9814C155.868 74.9785 155.252 74.4136 153.938 74.1089L152.789 73.8423C152.04 73.6646 151.691 73.3979 151.691 72.9727C151.691 72.4141 152.269 72.0396 153.03 72.0396C153.805 72.0396 154.3 72.376 154.427 72.8901H155.734C155.601 71.6968 154.585 70.9731 153.03 70.9731C151.469 70.9731 150.345 71.8364 150.345 73.0361ZM162.044 76.1528C161.79 76.7114 161.225 77.0161 160.4 77.0161C159.308 77.0161 158.604 76.229 158.559 74.9785V74.915H163.44V74.4453C163.44 72.2871 162.279 70.9731 160.355 70.9731C158.407 70.9731 157.169 72.376 157.169 74.5659C157.169 76.7686 158.381 78.1333 160.362 78.1333C161.942 78.1333 163.06 77.3716 163.358 76.1528H162.044ZM160.349 72.084C161.358 72.084 162.019 72.814 162.05 73.9312H158.559C158.635 72.8203 159.34 72.084 160.349 72.084ZM169.122 78H170.486V72.2173H172.01V71.1255H170.467V70.4463C170.467 69.748 170.778 69.3989 171.54 69.3989C171.756 69.3989 171.94 69.4116 172.067 69.4307V68.4023C171.832 68.3643 171.565 68.3389 171.254 68.3389C169.82 68.3389 169.122 69.0117 169.122 70.3828V71.1255H167.985V72.2173H169.122V78ZM176.212 78.1333C178.23 78.1333 179.468 76.7812 179.468 74.5532C179.468 72.3252 178.224 70.9731 176.212 70.9731C174.193 70.9731 172.949 72.3315 172.949 74.5532C172.949 76.7812 174.187 78.1333 176.212 78.1333ZM176.212 76.9717C175.025 76.9717 174.358 76.0894 174.358 74.5532C174.358 73.0171 175.025 72.1284 176.212 72.1284C177.393 72.1284 178.065 73.0171 178.065 74.5532C178.065 76.083 177.393 76.9717 176.212 76.9717ZM181.112 78H182.477V73.8804C182.477 72.9092 183.207 72.2427 184.242 72.2427C184.483 72.2427 184.889 72.2871 185.003 72.3188V71.0366C184.857 71.0049 184.597 70.9858 184.394 70.9858C183.493 70.9858 182.725 71.4746 182.528 72.1538H182.426V71.1064H181.112V78ZM193.776 78V70.0654H196.651V68.8403H189.472V70.0654H192.354V78H193.776ZM201.526 76.1528C201.272 76.7114 200.708 77.0161 199.882 77.0161C198.791 77.0161 198.086 76.229 198.042 74.9785V74.915H202.923V74.4453C202.923 72.2871 201.761 70.9731 199.838 70.9731C197.889 70.9731 196.651 72.376 196.651 74.5659C196.651 76.7686 197.864 78.1333 199.844 78.1333C201.425 78.1333 202.542 77.3716 202.84 76.1528H201.526ZM199.832 72.084C200.841 72.084 201.501 72.814 201.533 73.9312H198.042C198.118 72.8203 198.822 72.084 199.832 72.084ZM206.471 78.1143C207.379 78.1143 208.134 77.7207 208.547 77.0225H208.655V78H209.969V73.2837C209.969 71.8364 208.991 70.9731 207.258 70.9731C205.69 70.9731 204.573 71.7285 204.434 72.8901H205.754C205.906 72.3887 206.433 72.103 207.195 72.103C208.128 72.103 208.61 72.5283 208.61 73.2837V73.8867L206.738 74.001C205.094 74.1025 204.167 74.8198 204.167 76.0576C204.167 77.3145 205.138 78.1143 206.471 78.1143ZM206.82 77.0161C206.078 77.0161 205.538 76.6416 205.538 76.0005C205.538 75.3721 205.97 75.0356 206.922 74.9722L208.61 74.8579V75.4546C208.61 76.3433 207.849 77.0161 206.82 77.0161ZM211.911 78H213.276V73.7661C213.276 72.8647 213.904 72.1602 214.736 72.1602C215.548 72.1602 216.069 72.6489 216.069 73.436V78H217.408V73.6392C217.408 72.8076 217.986 72.1602 218.868 72.1602C219.763 72.1602 220.208 72.6235 220.208 73.5757V78H221.572V73.2456C221.572 71.811 220.76 70.9731 219.363 70.9731C218.405 70.9731 217.611 71.4619 217.262 72.2046H217.154C216.85 71.4619 216.196 70.9731 215.25 70.9731C214.33 70.9731 213.631 71.4302 213.327 72.2046H213.225V71.1064H211.911V78ZM223.331 73.0361C223.331 74.0581 223.94 74.6421 225.254 74.9468L226.46 75.2324C227.152 75.3975 227.476 75.6768 227.476 76.1084C227.476 76.6733 226.873 77.0669 226.022 77.0669C225.197 77.0669 224.689 76.7305 224.518 76.1909H223.153C223.273 77.3906 224.346 78.1333 225.99 78.1333C227.641 78.1333 228.853 77.2637 228.853 75.9814C228.853 74.9785 228.237 74.4136 226.923 74.1089L225.774 73.8423C225.025 73.6646 224.676 73.3979 224.676 72.9727C224.676 72.4141 225.254 72.0396 226.016 72.0396C226.79 72.0396 227.285 72.376 227.412 72.8901H228.72C228.586 71.6968 227.571 70.9731 226.016 70.9731C224.454 70.9731 223.331 71.8364 223.331 73.0361ZM235.962 78.1143C236.87 78.1143 237.625 77.7207 238.038 77.0225H238.146V78H239.46V73.2837C239.46 71.8364 238.482 70.9731 236.75 70.9731C235.182 70.9731 234.064 71.7285 233.925 72.8901H235.245C235.397 72.3887 235.924 72.103 236.686 72.103C237.619 72.103 238.102 72.5283 238.102 73.2837V73.8867L236.229 74.001C234.585 74.1025 233.658 74.8198 233.658 76.0576C233.658 77.3145 234.629 78.1143 235.962 78.1143ZM236.312 77.0161C235.569 77.0161 235.029 76.6416 235.029 76.0005C235.029 75.3721 235.461 75.0356 236.413 74.9722L238.102 74.8579V75.4546C238.102 76.3433 237.34 77.0161 236.312 77.0161ZM244.989 70.9858C244.049 70.9858 243.237 71.4619 242.818 72.249H242.716V71.1064H241.402V80.2979H242.767V76.959H242.875C243.237 77.689 244.018 78.1143 245.001 78.1143C246.747 78.1143 247.858 76.7305 247.858 74.5532C247.858 72.3633 246.747 70.9858 244.989 70.9858ZM244.602 76.9463C243.459 76.9463 242.742 76.0259 242.742 74.5532C242.742 73.0742 243.459 72.1538 244.608 72.1538C245.763 72.1538 246.455 73.0552 246.455 74.5532C246.455 76.0513 245.763 76.9463 244.602 76.9463ZM253.088 70.9858C252.149 70.9858 251.336 71.4619 250.917 72.249H250.816V71.1064H249.502V80.2979H250.867V76.959H250.975C251.336 77.689 252.117 78.1143 253.101 78.1143C254.847 78.1143 255.958 76.7305 255.958 74.5532C255.958 72.3633 254.847 70.9858 253.088 70.9858ZM252.701 76.9463C251.559 76.9463 250.841 76.0259 250.841 74.5532C250.841 73.0742 251.559 72.1538 252.708 72.1538C253.863 72.1538 254.555 73.0552 254.555 74.5532C254.555 76.0513 253.863 76.9463 252.701 76.9463ZM263.683 78.1143C264.635 78.1143 265.441 77.6636 265.854 76.9082H265.961V78H267.269V68.4023H265.904V72.1982H265.803C265.428 71.4429 264.628 70.9858 263.683 70.9858C261.937 70.9858 260.813 72.376 260.813 74.5469C260.813 76.7305 261.924 78.1143 263.683 78.1143ZM264.07 72.1538C265.212 72.1538 265.93 73.0806 265.93 74.5532C265.93 76.0386 265.219 76.9463 264.07 76.9463C262.915 76.9463 262.223 76.0513 262.223 74.5532C262.223 73.0615 262.921 72.1538 264.07 72.1538ZM273.852 76.1528C273.598 76.7114 273.033 77.0161 272.208 77.0161C271.116 77.0161 270.411 76.229 270.367 74.9785V74.915H275.248V74.4453C275.248 72.2871 274.086 70.9731 272.163 70.9731C270.214 70.9731 268.977 72.376 268.977 74.5659C268.977 76.7686 270.189 78.1333 272.169 78.1333C273.75 78.1333 274.867 77.3716 275.166 76.1528H273.852ZM272.157 72.084C273.166 72.084 273.826 72.814 273.858 73.9312H270.367C270.443 72.8203 271.147 72.084 272.157 72.084ZM282.586 71.1064H281.139L279.425 76.6035H279.317L277.597 71.1064H276.137L278.631 78H280.098L282.586 71.1064ZM288.235 76.1528C287.981 76.7114 287.417 77.0161 286.591 77.0161C285.5 77.0161 284.795 76.229 284.75 74.9785V74.915H289.632V74.4453C289.632 72.2871 288.47 70.9731 286.547 70.9731C284.598 70.9731 283.36 72.376 283.36 74.5659C283.36 76.7686 284.573 78.1333 286.553 78.1333C288.134 78.1333 289.251 77.3716 289.549 76.1528H288.235ZM286.541 72.084C287.55 72.084 288.21 72.814 288.242 73.9312H284.75C284.827 72.8203 285.531 72.084 286.541 72.084ZM291.333 78H292.698V68.4023H291.333V78ZM297.668 78.1333C299.687 78.1333 300.924 76.7812 300.924 74.5532C300.924 72.3252 299.68 70.9731 297.668 70.9731C295.649 70.9731 294.405 72.3315 294.405 74.5532C294.405 76.7812 295.643 78.1333 297.668 78.1333ZM297.668 76.9717C296.481 76.9717 295.814 76.0894 295.814 74.5532C295.814 73.0171 296.481 72.1284 297.668 72.1284C298.849 72.1284 299.521 73.0171 299.521 74.5532C299.521 76.083 298.849 76.9717 297.668 76.9717ZM306.155 70.9858C305.215 70.9858 304.403 71.4619 303.984 72.249H303.882V71.1064H302.568V80.2979H303.933V76.959H304.041C304.403 77.689 305.184 78.1143 306.167 78.1143C307.913 78.1143 309.024 76.7305 309.024 74.5532C309.024 72.3633 307.913 70.9858 306.155 70.9858ZM305.768 76.9463C304.625 76.9463 303.908 76.0259 303.908 74.5532C303.908 73.0742 304.625 72.1538 305.774 72.1538C306.929 72.1538 307.621 73.0552 307.621 74.5532C307.621 76.0513 306.929 76.9463 305.768 76.9463ZM310.668 78H312.033V73.7661C312.033 72.8647 312.661 72.1602 313.493 72.1602C314.305 72.1602 314.826 72.6489 314.826 73.436V78H316.165V73.6392C316.165 72.8076 316.743 72.1602 317.625 72.1602C318.52 72.1602 318.964 72.6235 318.964 73.5757V78H320.329V73.2456C320.329 71.811 319.517 70.9731 318.12 70.9731C317.162 70.9731 316.368 71.4619 316.019 72.2046H315.911C315.606 71.4619 314.953 70.9731 314.007 70.9731C313.086 70.9731 312.388 71.4302 312.083 72.2046H311.982V71.1064H310.668V78ZM326.778 76.1528C326.524 76.7114 325.959 77.0161 325.134 77.0161C324.042 77.0161 323.338 76.229 323.293 74.9785V74.915H328.175V74.4453C328.175 72.2871 327.013 70.9731 325.09 70.9731C323.141 70.9731 321.903 72.376 321.903 74.5659C321.903 76.7686 323.116 78.1333 325.096 78.1333C326.677 78.1333 327.794 77.3716 328.092 76.1528H326.778ZM325.083 72.084C326.093 72.084 326.753 72.814 326.785 73.9312H323.293C323.37 72.8203 324.074 72.084 325.083 72.084ZM329.812 78H331.177V73.9565C331.177 72.8457 331.818 72.1602 332.828 72.1602C333.837 72.1602 334.319 72.7188 334.319 73.8613V78H335.684V73.5376C335.684 71.8936 334.833 70.9731 333.291 70.9731C332.25 70.9731 331.564 71.4365 331.228 72.1982H331.126V71.1064H329.812V78ZM338.09 69.3672V71.1255H336.992V72.2173H338.09V76.1846C338.09 77.5112 338.693 78.0444 340.21 78.0444C340.477 78.0444 340.73 78.0127 340.953 77.9746V76.8892C340.762 76.9082 340.642 76.9209 340.432 76.9209C339.753 76.9209 339.455 76.5972 339.455 75.8545V72.2173H340.953V71.1255H339.455V69.3672H338.09Z" fill="#CCCCCC"/>
<path d="M0 4C0 1.79086 1.79086 0 4 0H110V110H4C1.79086 110 0 108.209 0 106V4Z" fill="#252526"/>
<path d="M71.2667 39.9333H57.5333L56.6 40.3333L55 41.9333L53.4 40.3333L52.4667 39.9333H38.7333L37.5333 41.2667V66.2L38.7333 67.5333H51.9333L54.0667 69.6667H55.9333L58.0667 67.5333H71.2667L72.4667 66.2V41.2667L71.2667 39.9333ZM53.8 65.8L53.2667 65.4L52.4667 65H40.0667V42.4667H51.9333L53.8 44.3333V65.8ZM70.0667 65H57.5333L56.6 65.4L56.3333 65.6667V44.2L58.0667 42.4667H70.0667V65ZM50.0667 47.5333H42.4667V49.9333H50.0667V47.5333ZM50.0667 57.5333H42.4667V59.9333H50.0667V57.5333ZM42.4667 52.4667H50.0667V55H42.4667V52.4667ZM67.5333 47.5333H60.0667V49.9333H67.5333V47.5333ZM60.0667 52.4667H67.5333V55H60.0667V52.4667ZM60.0667 57.5333H67.5333V59.9333H60.0667V57.5333Z" fill="#CCCCCC"/>
</svg>
