<svg width="412" height="110" viewBox="0 0 412 110" fill="none" xmlns="http://www.w3.org/2000/svg">
<path d="M77.2062 0H408C410.209 0 412 1.79086 412 4V106C412 108.209 410.209 110 408 110H77.2062V0Z" fill="#292929"/>
<path d="M0 4C0 1.79086 1.79086 0 4 0H110V110H4C1.79086 110 0 108.209 0 106V4Z" fill="#252526"/>
<path d="M69.2667 45.6667L61.8 38.2L60.0667 37.5333H45L42.4667 39.9333V69.9333L45 72.4667H67.5333L70.0667 69.9333V47.5333L69.2667 45.6667ZM67.5333 69.9333H45V39.9333H57.5333V49.9333H67.5333V69.9333ZM60.0667 47.5333V39.9333L67.5333 47.5333H60.0667Z" fill="#CCCCCC"/>
<path d="M137.261 36.3906H138.949L140.788 40H143.126L141.048 36.083C142.183 35.6387 142.839 34.5449 142.839 33.2803C142.839 31.332 141.506 30.1357 139.339 30.1357H135.196V40H137.261V36.3906ZM137.261 31.749H139.052C140.077 31.749 140.72 32.3506 140.72 33.3076C140.72 34.2852 140.111 34.8525 139.072 34.8525H137.261V31.749ZM151.452 38.2979H146.981V35.8027H151.199V34.2168H146.981V31.8379H151.452V30.1357H144.917V40H151.452V38.2979ZM159.963 40H162.198L158.773 30.1357H156.347L152.922 40H154.993L155.752 37.6074H159.218L159.963 40ZM157.434 32.1387H157.557L158.78 36.0625H156.196L157.434 32.1387ZM163.88 30.1357V40H167.763C170.716 40 172.391 38.1953 172.391 35.0029C172.391 31.9062 170.695 30.1357 167.763 30.1357H163.88ZM165.944 31.8379H167.435C169.226 31.8379 170.285 33 170.285 35.0371C170.285 37.1494 169.26 38.2979 167.435 38.2979H165.944V31.8379ZM184.798 40V30.1357H182.371L179.637 36.9375H179.514L176.786 30.1357H174.353V40H176.267V33.3213H176.376L178.892 39.5146H180.266L182.774 33.3213H182.884V40H184.798ZM193.726 38.2979H189.255V35.8027H193.473V34.2168H189.255V31.8379H193.726V30.1357H187.19V40H193.726V38.2979ZM197.137 40.1709C197.875 40.1709 198.347 39.6787 198.347 39.0088C198.347 38.3389 197.875 37.8535 197.137 37.8535C196.405 37.8535 195.927 38.3389 195.927 39.0088C195.927 39.6787 196.405 40.1709 197.137 40.1709ZM200.568 40H202.558V35.4609C202.558 34.5996 203.111 33.9707 203.891 33.9707C204.67 33.9707 205.135 34.4355 205.135 35.2422V40H207.049V35.3721C207.049 34.5586 207.568 33.9707 208.375 33.9707C209.216 33.9707 209.633 34.4219 209.633 35.3311V40H211.622V34.832C211.622 33.2803 210.686 32.3096 209.182 32.3096C208.129 32.3096 207.261 32.8633 206.912 33.6973H206.789C206.488 32.8359 205.764 32.3096 204.704 32.3096C203.713 32.3096 202.927 32.8359 202.619 33.6973H202.496V32.4736H200.568V40ZM216.257 40.1162C217.303 40.1162 218.157 39.6309 218.561 38.8174H218.684V40H220.611V29.5957H218.622V33.6768H218.506C218.116 32.8428 217.275 32.3506 216.257 32.3506C214.363 32.3506 213.188 33.834 213.188 36.2266C213.188 38.626 214.356 40.1162 216.257 40.1162ZM216.934 33.9639C217.993 33.9639 218.643 34.832 218.643 36.2402C218.643 37.6484 218 38.5098 216.934 38.5098C215.867 38.5098 215.231 37.6553 215.231 36.2334C215.231 34.8184 215.874 33.9639 216.934 33.9639Z" fill="white"/>
<path opacity="0.8" d="M135.149 52.8403V62H136.571V58.8706H138.691C140.487 58.8706 141.757 57.6392 141.757 55.8745C141.757 54.0718 140.525 52.8403 138.735 52.8403H135.149ZM136.571 54.04H138.361C139.611 54.04 140.303 54.6875 140.303 55.8745C140.303 57.0234 139.586 57.6772 138.361 57.6772H136.571V54.04ZM143.433 62H144.797V57.8804C144.797 56.9092 145.527 56.2427 146.562 56.2427C146.803 56.2427 147.209 56.2871 147.324 56.3188V55.0366C147.178 55.0049 146.917 54.9858 146.714 54.9858C145.813 54.9858 145.045 55.4746 144.848 56.1538H144.747V55.1064H143.433V62ZM151.38 62.1333C153.398 62.1333 154.636 60.7812 154.636 58.5532C154.636 56.3252 153.392 54.9731 151.38 54.9731C149.361 54.9731 148.117 56.3315 148.117 58.5532C148.117 60.7812 149.355 62.1333 151.38 62.1333ZM151.38 60.9717C150.193 60.9717 149.526 60.0894 149.526 58.5532C149.526 57.0171 150.193 56.1284 151.38 56.1284C152.561 56.1284 153.233 57.0171 153.233 58.5532C153.233 60.083 152.561 60.9717 151.38 60.9717ZM156.998 53.875C157.467 53.875 157.861 53.4878 157.861 53.0181C157.861 52.542 157.467 52.1548 156.998 52.1548C156.521 52.1548 156.134 52.542 156.134 53.0181C156.134 53.4878 156.521 53.875 156.998 53.875ZM157.664 55.1064H156.306V62.292C156.306 62.9839 156.052 63.2632 155.322 63.2632C155.303 63.2632 155.15 63.2632 155.131 63.2632V64.355C155.163 64.355 155.385 64.3613 155.436 64.3613C156.934 64.3613 157.664 63.7139 157.664 62.2983V55.1064ZM164.202 60.1528C163.948 60.7114 163.383 61.0161 162.558 61.0161C161.466 61.0161 160.762 60.229 160.717 58.9785V58.915H165.599V58.4453C165.599 56.2871 164.437 54.9731 162.514 54.9731C160.565 54.9731 159.327 56.376 159.327 58.5659C159.327 60.7686 160.54 62.1333 162.52 62.1333C164.101 62.1333 165.218 61.3716 165.516 60.1528H164.202ZM162.507 56.084C163.517 56.084 164.177 56.814 164.208 57.9312H160.717C160.793 56.8203 161.498 56.084 162.507 56.084ZM173.089 57.3218C172.911 55.9824 171.864 54.9731 170.131 54.9731C168.119 54.9731 166.894 56.3379 166.894 58.5278C166.894 60.7622 168.125 62.1333 170.137 62.1333C171.845 62.1333 172.911 61.1748 173.089 59.8164H171.762C171.584 60.5654 170.994 60.9717 170.131 60.9717C168.995 60.9717 168.29 60.0513 168.29 58.5278C168.29 57.0361 168.988 56.1348 170.131 56.1348C171.045 56.1348 171.604 56.6489 171.762 57.3218H173.089ZM175.234 53.3672V55.1255H174.136V56.2173H175.234V60.1846C175.234 61.5112 175.837 62.0444 177.354 62.0444C177.621 62.0444 177.875 62.0127 178.097 61.9746V60.8892C177.907 60.9082 177.786 60.9209 177.577 60.9209C176.897 60.9209 176.599 60.5972 176.599 59.8545V56.2173H178.097V55.1255H176.599V53.3672H175.234ZM183.677 58.9404V57.6772H179.513V58.9404H183.677ZM185.524 57.0361C185.524 58.0581 186.133 58.6421 187.447 58.9468L188.653 59.2324C189.345 59.3975 189.669 59.6768 189.669 60.1084C189.669 60.6733 189.066 61.0669 188.215 61.0669C187.39 61.0669 186.882 60.7305 186.711 60.1909H185.346C185.467 61.3906 186.54 62.1333 188.184 62.1333C189.834 62.1333 191.046 61.2637 191.046 59.9814C191.046 58.9785 190.431 58.4136 189.117 58.1089L187.968 57.8423C187.219 57.6646 186.87 57.3979 186.87 56.9727C186.87 56.4141 187.447 56.0396 188.209 56.0396C188.983 56.0396 189.479 56.376 189.605 56.8901H190.913C190.78 55.6968 189.764 54.9731 188.209 54.9731C186.647 54.9731 185.524 55.8364 185.524 57.0361ZM196.277 54.9858C195.337 54.9858 194.525 55.4619 194.106 56.249H194.004V55.1064H192.69V64.2979H194.055V60.959H194.163C194.525 61.689 195.306 62.1143 196.29 62.1143C198.035 62.1143 199.146 60.7305 199.146 58.5532C199.146 56.3633 198.035 54.9858 196.277 54.9858ZM195.89 60.9463C194.747 60.9463 194.03 60.0259 194.03 58.5532C194.03 57.0742 194.747 56.1538 195.896 56.1538C197.051 56.1538 197.743 57.0552 197.743 58.5532C197.743 60.0513 197.051 60.9463 195.89 60.9463ZM205.322 60.1528C205.068 60.7114 204.503 61.0161 203.678 61.0161C202.586 61.0161 201.882 60.229 201.837 58.9785V58.915H206.719V58.4453C206.719 56.2871 205.557 54.9731 203.634 54.9731C201.685 54.9731 200.447 56.376 200.447 58.5659C200.447 60.7686 201.66 62.1333 203.64 62.1333C205.221 62.1333 206.338 61.3716 206.636 60.1528H205.322ZM203.627 56.084C204.637 56.084 205.297 56.814 205.329 57.9312H201.837C201.914 56.8203 202.618 56.084 203.627 56.084ZM214.209 57.3218C214.031 55.9824 212.984 54.9731 211.251 54.9731C209.239 54.9731 208.014 56.3379 208.014 58.5278C208.014 60.7622 209.245 62.1333 211.257 62.1333C212.965 62.1333 214.031 61.1748 214.209 59.8164H212.882C212.705 60.5654 212.114 60.9717 211.251 60.9717C210.115 60.9717 209.41 60.0513 209.41 58.5278C209.41 57.0361 210.108 56.1348 211.251 56.1348C212.165 56.1348 212.724 56.6489 212.882 57.3218H214.209ZM216.475 53.875C216.951 53.875 217.338 53.4878 217.338 53.0181C217.338 52.542 216.951 52.1548 216.475 52.1548C215.999 52.1548 215.612 52.542 215.612 53.0181C215.612 53.4878 215.999 53.875 216.475 53.875ZM215.796 62H217.154V55.1064H215.796V62ZM219.649 62H221.014V56.2173H222.537V55.1255H220.995V54.4463C220.995 53.748 221.306 53.3989 222.067 53.3989C222.283 53.3989 222.467 53.4116 222.594 53.4307V52.4023C222.359 52.3643 222.093 52.3389 221.782 52.3389C220.347 52.3389 219.649 53.0117 219.649 54.3828V55.1255H218.513V56.2173H219.649V62ZM224.791 53.875C225.267 53.875 225.654 53.4878 225.654 53.0181C225.654 52.542 225.267 52.1548 224.791 52.1548C224.314 52.1548 223.927 52.542 223.927 53.0181C223.927 53.4878 224.314 53.875 224.791 53.875ZM224.111 62H225.47V55.1064H224.111V62ZM233.328 57.3218C233.15 55.9824 232.103 54.9731 230.37 54.9731C228.358 54.9731 227.133 56.3379 227.133 58.5278C227.133 60.7622 228.364 62.1333 230.376 62.1333C232.084 62.1333 233.15 61.1748 233.328 59.8164H232.001C231.824 60.5654 231.233 60.9717 230.37 60.9717C229.234 60.9717 228.529 60.0513 228.529 58.5278C228.529 57.0361 229.228 56.1348 230.37 56.1348C231.284 56.1348 231.843 56.6489 232.001 57.3218H233.328ZM240.971 62.1143C241.923 62.1143 242.729 61.6636 243.142 60.9082H243.25V62H244.557V52.4023H243.192V56.1982H243.091C242.716 55.4429 241.917 54.9858 240.971 54.9858C239.225 54.9858 238.102 56.376 238.102 58.5469C238.102 60.7305 239.212 62.1143 240.971 62.1143ZM241.358 56.1538C242.5 56.1538 243.218 57.0806 243.218 58.5532C243.218 60.0386 242.507 60.9463 241.358 60.9463C240.203 60.9463 239.511 60.0513 239.511 58.5532C239.511 57.0615 240.209 56.1538 241.358 56.1538ZM249.527 62.1333C251.546 62.1333 252.784 60.7812 252.784 58.5532C252.784 56.3252 251.54 54.9731 249.527 54.9731C247.509 54.9731 246.265 56.3315 246.265 58.5532C246.265 60.7812 247.502 62.1333 249.527 62.1333ZM249.527 60.9717C248.34 60.9717 247.674 60.0894 247.674 58.5532C247.674 57.0171 248.34 56.1284 249.527 56.1284C250.708 56.1284 251.381 57.0171 251.381 58.5532C251.381 60.083 250.708 60.9717 249.527 60.9717ZM260.28 57.3218C260.103 55.9824 259.055 54.9731 257.322 54.9731C255.31 54.9731 254.085 56.3379 254.085 58.5278C254.085 60.7622 255.316 62.1333 257.329 62.1333C259.036 62.1333 260.103 61.1748 260.28 59.8164H258.954C258.776 60.5654 258.186 60.9717 257.322 60.9717C256.186 60.9717 255.481 60.0513 255.481 58.5278C255.481 57.0361 256.18 56.1348 257.322 56.1348C258.236 56.1348 258.795 56.6489 258.954 57.3218H260.28ZM267.669 55.1064H266.304V59.1499C266.304 60.2607 265.701 60.9336 264.597 60.9336C263.594 60.9336 263.143 60.3877 263.143 59.2451V55.1064H261.778V59.5815C261.778 61.2002 262.629 62.1333 264.159 62.1333C265.206 62.1333 265.911 61.689 266.247 60.9082H266.355V62H267.669V55.1064ZM269.649 62H271.014V57.7661C271.014 56.8647 271.643 56.1602 272.474 56.1602C273.287 56.1602 273.807 56.6489 273.807 57.436V62H275.146V57.6392C275.146 56.8076 275.724 56.1602 276.606 56.1602C277.501 56.1602 277.946 56.6235 277.946 57.5757V62H279.311V57.2456C279.311 55.811 278.498 54.9731 277.102 54.9731C276.143 54.9731 275.35 55.4619 275 56.2046H274.893C274.588 55.4619 273.934 54.9731 272.988 54.9731C272.068 54.9731 271.37 55.4302 271.065 56.2046H270.963V55.1064H269.649V62ZM285.76 60.1528C285.506 60.7114 284.941 61.0161 284.116 61.0161C283.024 61.0161 282.319 60.229 282.275 58.9785V58.915H287.156V58.4453C287.156 56.2871 285.995 54.9731 284.071 54.9731C282.123 54.9731 280.885 56.376 280.885 58.5659C280.885 60.7686 282.097 62.1333 284.078 62.1333C285.658 62.1333 286.775 61.3716 287.074 60.1528H285.76ZM284.065 56.084C285.074 56.084 285.734 56.814 285.766 57.9312H282.275C282.351 56.8203 283.056 56.084 284.065 56.084ZM288.794 62H290.159V57.9565C290.159 56.8457 290.8 56.1602 291.809 56.1602C292.818 56.1602 293.301 56.7188 293.301 57.8613V62H294.666V57.5376C294.666 55.8936 293.815 54.9731 292.272 54.9731C291.231 54.9731 290.546 55.4365 290.209 56.1982H290.108V55.1064H288.794V62ZM298.5 62.1143C299.407 62.1143 300.163 61.7207 300.575 61.0225H300.683V62H301.997V57.2837C301.997 55.8364 301.02 54.9731 299.287 54.9731C297.719 54.9731 296.602 55.7285 296.462 56.8901H297.782C297.935 56.3887 298.461 56.103 299.223 56.103C300.156 56.103 300.639 56.5283 300.639 57.2837V57.8867L298.766 58.001C297.122 58.1025 296.195 58.8198 296.195 60.0576C296.195 61.3145 297.167 62.1143 298.5 62.1143ZM298.849 61.0161C298.106 61.0161 297.566 60.6416 297.566 60.0005C297.566 59.3721 297.998 59.0356 298.95 58.9722L300.639 58.8579V59.4546C300.639 60.3433 299.877 61.0161 298.849 61.0161ZM304.422 53.3672V55.1255H303.324V56.2173H304.422V60.1846C304.422 61.5112 305.025 62.0444 306.542 62.0444C306.809 62.0444 307.062 62.0127 307.285 61.9746V60.8892C307.094 60.9082 306.974 60.9209 306.764 60.9209C306.085 60.9209 305.787 60.5972 305.787 59.8545V56.2173H307.285V55.1255H305.787V53.3672H304.422ZM309.595 53.875C310.071 53.875 310.458 53.4878 310.458 53.0181C310.458 52.542 310.071 52.1548 309.595 52.1548C309.119 52.1548 308.732 52.542 308.732 53.0181C308.732 53.4878 309.119 53.875 309.595 53.875ZM308.916 62H310.274V55.1064H308.916V62ZM315.2 62.1333C317.219 62.1333 318.457 60.7812 318.457 58.5532C318.457 56.3252 317.212 54.9731 315.2 54.9731C313.182 54.9731 311.938 56.3315 311.938 58.5532C311.938 60.7812 313.175 62.1333 315.2 62.1333ZM315.2 60.9717C314.013 60.9717 313.347 60.0894 313.347 58.5532C313.347 57.0171 314.013 56.1284 315.2 56.1284C316.381 56.1284 317.054 57.0171 317.054 58.5532C317.054 60.083 316.381 60.9717 315.2 60.9717ZM320.101 62H321.465V57.9565C321.465 56.8457 322.106 56.1602 323.116 56.1602C324.125 56.1602 324.607 56.7188 324.607 57.8613V62H325.972V57.5376C325.972 55.8936 325.122 54.9731 323.579 54.9731C322.538 54.9731 321.853 55.4365 321.516 56.1982H321.415V55.1064H320.101V62ZM331.933 53.3672V55.1255H330.834V56.2173H331.933V60.1846C331.933 61.5112 332.536 62.0444 334.053 62.0444C334.319 62.0444 334.573 62.0127 334.795 61.9746V60.8892C334.605 60.9082 334.484 60.9209 334.275 60.9209C333.596 60.9209 333.297 60.5972 333.297 59.8545V56.2173H334.795V55.1255H333.297V53.3672H331.933ZM339.245 62.1333C341.264 62.1333 342.501 60.7812 342.501 58.5532C342.501 56.3252 341.257 54.9731 339.245 54.9731C337.227 54.9731 335.982 56.3315 335.982 58.5532C335.982 60.7812 337.22 62.1333 339.245 62.1333ZM339.245 60.9717C338.058 60.9717 337.392 60.0894 337.392 58.5532C337.392 57.0171 338.058 56.1284 339.245 56.1284C340.426 56.1284 341.099 57.0171 341.099 58.5532C341.099 60.083 340.426 60.9717 339.245 60.9717ZM350.227 62.1143C351.179 62.1143 351.985 61.6636 352.397 60.9082H352.505V62H353.813V52.4023H352.448V56.1982H352.347C351.972 55.4429 351.172 54.9858 350.227 54.9858C348.481 54.9858 347.357 56.376 347.357 58.5469C347.357 60.7305 348.468 62.1143 350.227 62.1143ZM350.614 56.1538C351.756 56.1538 352.474 57.0806 352.474 58.5532C352.474 60.0386 351.763 60.9463 350.614 60.9463C349.458 60.9463 348.767 60.0513 348.767 58.5532C348.767 57.0615 349.465 56.1538 350.614 56.1538ZM356.568 53.875C357.044 53.875 357.431 53.4878 357.431 53.0181C357.431 52.542 357.044 52.1548 356.568 52.1548C356.092 52.1548 355.705 52.542 355.705 53.0181C355.705 53.4878 356.092 53.875 356.568 53.875ZM355.889 62H357.247V55.1064H355.889V62ZM365.105 55.1064H363.658L361.944 60.6035H361.836L360.116 55.1064H358.656L361.151 62H362.617L365.105 55.1064ZM370.755 60.1528C370.501 60.7114 369.936 61.0161 369.111 61.0161C368.019 61.0161 367.314 60.229 367.27 58.9785V58.915H372.151V58.4453C372.151 56.2871 370.99 54.9731 369.066 54.9731C367.118 54.9731 365.88 56.376 365.88 58.5659C365.88 60.7686 367.092 62.1333 369.073 62.1333C370.653 62.1333 371.771 61.3716 372.069 60.1528H370.755ZM369.06 56.084C370.069 56.084 370.729 56.814 370.761 57.9312H367.27C367.346 56.8203 368.051 56.084 369.06 56.084ZM135.695 69.875C136.171 69.875 136.558 69.4878 136.558 69.0181C136.558 68.542 136.171 68.1548 135.695 68.1548C135.219 68.1548 134.832 68.542 134.832 69.0181C134.832 69.4878 135.219 69.875 135.695 69.875ZM135.016 78H136.374V71.1064H135.016V78ZM138.38 78H139.745V73.9565C139.745 72.8457 140.386 72.1602 141.395 72.1602C142.404 72.1602 142.887 72.7188 142.887 73.8613V78H144.251V73.5376C144.251 71.8936 143.401 70.9731 141.858 70.9731C140.817 70.9731 140.132 71.4365 139.795 72.1982H139.694V71.1064H138.38V78ZM146.657 69.3672V71.1255H145.559V72.2173H146.657V76.1846C146.657 77.5112 147.26 78.0444 148.777 78.0444C149.044 78.0444 149.298 78.0127 149.52 77.9746V76.8892C149.33 76.9082 149.209 76.9209 149 76.9209C148.32 76.9209 148.022 76.5972 148.022 75.8545V72.2173H149.52V71.1255H148.022V69.3672H146.657ZM153.97 78.1333C155.988 78.1333 157.226 76.7812 157.226 74.5532C157.226 72.3252 155.982 70.9731 153.97 70.9731C151.951 70.9731 150.707 72.3315 150.707 74.5532C150.707 76.7812 151.945 78.1333 153.97 78.1333ZM153.97 76.9717C152.783 76.9717 152.116 76.0894 152.116 74.5532C152.116 73.0171 152.783 72.1284 153.97 72.1284C155.15 72.1284 155.823 73.0171 155.823 74.5532C155.823 76.083 155.15 76.9717 153.97 76.9717ZM162.907 69.3672V71.1255H161.809V72.2173H162.907V76.1846C162.907 77.5112 163.51 78.0444 165.027 78.0444C165.294 78.0444 165.548 78.0127 165.77 77.9746V76.8892C165.58 76.9082 165.459 76.9209 165.25 76.9209C164.57 76.9209 164.272 76.5972 164.272 75.8545V72.2173H165.77V71.1255H164.272V69.3672H162.907ZM167.439 78H168.804V73.9629C168.804 72.8838 169.426 72.1665 170.543 72.1665C171.508 72.1665 172.022 72.7314 172.022 73.8677V78H173.387V73.5439C173.387 71.9126 172.479 70.9795 171.007 70.9795C169.966 70.9795 169.236 71.4365 168.899 72.2046H168.792V68.4023H167.439V78ZM179.843 76.1528C179.589 76.7114 179.024 77.0161 178.199 77.0161C177.107 77.0161 176.402 76.229 176.358 74.9785V74.915H181.239V74.4453C181.239 72.2871 180.078 70.9731 178.154 70.9731C176.206 70.9731 174.968 72.376 174.968 74.5659C174.968 76.7686 176.18 78.1333 178.161 78.1333C179.741 78.1333 180.858 77.3716 181.157 76.1528H179.843ZM178.148 72.084C179.157 72.084 179.817 72.814 179.849 73.9312H176.358C176.434 72.8203 177.139 72.084 178.148 72.084ZM190.335 78V70.0654H193.211V68.8403H186.032V70.0654H188.914V78H190.335ZM198.086 76.1528C197.832 76.7114 197.267 77.0161 196.442 77.0161C195.35 77.0161 194.646 76.229 194.601 74.9785V74.915H199.482V74.4453C199.482 72.2871 198.321 70.9731 196.397 70.9731C194.449 70.9731 193.211 72.376 193.211 74.5659C193.211 76.7686 194.423 78.1333 196.404 78.1333C197.984 78.1333 199.102 77.3716 199.4 76.1528H198.086ZM196.391 72.084C197.4 72.084 198.061 72.814 198.092 73.9312H194.601C194.677 72.8203 195.382 72.084 196.391 72.084ZM203.031 78.1143C203.938 78.1143 204.694 77.7207 205.106 77.0225H205.214V78H206.528V73.2837C206.528 71.8364 205.551 70.9731 203.818 70.9731C202.25 70.9731 201.133 71.7285 200.993 72.8901H202.313C202.466 72.3887 202.993 72.103 203.754 72.103C204.688 72.103 205.17 72.5283 205.17 73.2837V73.8867L203.297 74.001C201.653 74.1025 200.727 74.8198 200.727 76.0576C200.727 77.3145 201.698 78.1143 203.031 78.1143ZM203.38 77.0161C202.637 77.0161 202.098 76.6416 202.098 76.0005C202.098 75.3721 202.529 75.0356 203.481 74.9722L205.17 74.8579V75.4546C205.17 76.3433 204.408 77.0161 203.38 77.0161ZM208.471 78H209.835V73.7661C209.835 72.8647 210.464 72.1602 211.295 72.1602C212.108 72.1602 212.628 72.6489 212.628 73.436V78H213.968V73.6392C213.968 72.8076 214.545 72.1602 215.428 72.1602C216.323 72.1602 216.767 72.6235 216.767 73.5757V78H218.132V73.2456C218.132 71.811 217.319 70.9731 215.923 70.9731C214.964 70.9731 214.171 71.4619 213.822 72.2046H213.714C213.409 71.4619 212.755 70.9731 211.81 70.9731C210.889 70.9731 210.191 71.4302 209.886 72.2046H209.785V71.1064H208.471V78ZM219.89 73.0361C219.89 74.0581 220.5 74.6421 221.813 74.9468L223.02 75.2324C223.711 75.3975 224.035 75.6768 224.035 76.1084C224.035 76.6733 223.432 77.0669 222.582 77.0669C221.756 77.0669 221.249 76.7305 221.077 76.1909H219.712C219.833 77.3906 220.906 78.1333 222.55 78.1333C224.2 78.1333 225.413 77.2637 225.413 75.9814C225.413 74.9785 224.797 74.4136 223.483 74.1089L222.334 73.8423C221.585 73.6646 221.236 73.3979 221.236 72.9727C221.236 72.4141 221.813 72.0396 222.575 72.0396C223.35 72.0396 223.845 72.376 223.972 72.8901H225.279C225.146 71.6968 224.13 70.9731 222.575 70.9731C221.014 70.9731 219.89 71.8364 219.89 73.0361ZM232.522 78.1143C233.43 78.1143 234.185 77.7207 234.598 77.0225H234.706V78H236.02V73.2837C236.02 71.8364 235.042 70.9731 233.309 70.9731C231.741 70.9731 230.624 71.7285 230.484 72.8901H231.805C231.957 72.3887 232.484 72.103 233.246 72.103C234.179 72.103 234.661 72.5283 234.661 73.2837V73.8867L232.789 74.001C231.145 74.1025 230.218 74.8198 230.218 76.0576C230.218 77.3145 231.189 78.1143 232.522 78.1143ZM232.871 77.0161C232.128 77.0161 231.589 76.6416 231.589 76.0005C231.589 75.3721 232.021 75.0356 232.973 74.9722L234.661 74.8579V75.4546C234.661 76.3433 233.899 77.0161 232.871 77.0161ZM241.548 70.9858C240.609 70.9858 239.796 71.4619 239.377 72.249H239.276V71.1064H237.962V80.2979H239.327V76.959H239.435C239.796 77.689 240.577 78.1143 241.561 78.1143C243.307 78.1143 244.417 76.7305 244.417 74.5532C244.417 72.3633 243.307 70.9858 241.548 70.9858ZM241.161 76.9463C240.019 76.9463 239.301 76.0259 239.301 74.5532C239.301 73.0742 240.019 72.1538 241.167 72.1538C242.323 72.1538 243.015 73.0552 243.015 74.5532C243.015 76.0513 242.323 76.9463 241.161 76.9463ZM249.648 70.9858C248.708 70.9858 247.896 71.4619 247.477 72.249H247.375V71.1064H246.062V80.2979H247.426V76.959H247.534C247.896 77.689 248.677 78.1143 249.661 78.1143C251.406 78.1143 252.517 76.7305 252.517 74.5532C252.517 72.3633 251.406 70.9858 249.648 70.9858ZM249.261 76.9463C248.118 76.9463 247.401 76.0259 247.401 74.5532C247.401 73.0742 248.118 72.1538 249.267 72.1538C250.422 72.1538 251.114 73.0552 251.114 74.5532C251.114 76.0513 250.422 76.9463 249.261 76.9463ZM260.242 78.1143C261.194 78.1143 262 77.6636 262.413 76.9082H262.521V78H263.829V68.4023H262.464V72.1982H262.362C261.988 71.4429 261.188 70.9858 260.242 70.9858C258.497 70.9858 257.373 72.376 257.373 74.5469C257.373 76.7305 258.484 78.1143 260.242 78.1143ZM260.629 72.1538C261.772 72.1538 262.489 73.0806 262.489 74.5532C262.489 76.0386 261.778 76.9463 260.629 76.9463C259.474 76.9463 258.782 76.0513 258.782 74.5532C258.782 73.0615 259.48 72.1538 260.629 72.1538ZM270.411 76.1528C270.157 76.7114 269.592 77.0161 268.767 77.0161C267.675 77.0161 266.971 76.229 266.926 74.9785V74.915H271.808V74.4453C271.808 72.2871 270.646 70.9731 268.723 70.9731C266.774 70.9731 265.536 72.376 265.536 74.5659C265.536 76.7686 266.749 78.1333 268.729 78.1333C270.31 78.1333 271.427 77.3716 271.725 76.1528H270.411ZM268.716 72.084C269.726 72.084 270.386 72.814 270.417 73.9312H266.926C267.002 72.8203 267.707 72.084 268.716 72.084ZM279.146 71.1064H277.698L275.984 76.6035H275.876L274.156 71.1064H272.696L275.191 78H276.657L279.146 71.1064ZM284.795 76.1528C284.541 76.7114 283.976 77.0161 283.151 77.0161C282.059 77.0161 281.354 76.229 281.31 74.9785V74.915H286.191V74.4453C286.191 72.2871 285.03 70.9731 283.106 70.9731C281.158 70.9731 279.92 72.376 279.92 74.5659C279.92 76.7686 281.132 78.1333 283.113 78.1333C284.693 78.1333 285.811 77.3716 286.109 76.1528H284.795ZM283.1 72.084C284.109 72.084 284.77 72.814 284.801 73.9312H281.31C281.386 72.8203 282.091 72.084 283.1 72.084ZM287.893 78H289.257V68.4023H287.893V78ZM294.228 78.1333C296.246 78.1333 297.484 76.7812 297.484 74.5532C297.484 72.3252 296.24 70.9731 294.228 70.9731C292.209 70.9731 290.965 72.3315 290.965 74.5532C290.965 76.7812 292.203 78.1333 294.228 78.1333ZM294.228 76.9717C293.041 76.9717 292.374 76.0894 292.374 74.5532C292.374 73.0171 293.041 72.1284 294.228 72.1284C295.408 72.1284 296.081 73.0171 296.081 74.5532C296.081 76.083 295.408 76.9717 294.228 76.9717ZM302.714 70.9858C301.775 70.9858 300.962 71.4619 300.543 72.249H300.442V71.1064H299.128V80.2979H300.493V76.959H300.601C300.962 77.689 301.743 78.1143 302.727 78.1143C304.473 78.1143 305.583 76.7305 305.583 74.5532C305.583 72.3633 304.473 70.9858 302.714 70.9858ZM302.327 76.9463C301.185 76.9463 300.467 76.0259 300.467 74.5532C300.467 73.0742 301.185 72.1538 302.333 72.1538C303.489 72.1538 304.181 73.0552 304.181 74.5532C304.181 76.0513 303.489 76.9463 302.327 76.9463ZM307.228 78H308.592V73.7661C308.592 72.8647 309.221 72.1602 310.052 72.1602C310.865 72.1602 311.385 72.6489 311.385 73.436V78H312.725V73.6392C312.725 72.8076 313.302 72.1602 314.185 72.1602C315.08 72.1602 315.524 72.6235 315.524 73.5757V78H316.889V73.2456C316.889 71.811 316.076 70.9731 314.68 70.9731C313.721 70.9731 312.928 71.4619 312.579 72.2046H312.471C312.166 71.4619 311.512 70.9731 310.566 70.9731C309.646 70.9731 308.948 71.4302 308.643 72.2046H308.542V71.1064H307.228V78ZM323.338 76.1528C323.084 76.7114 322.519 77.0161 321.694 77.0161C320.602 77.0161 319.897 76.229 319.853 74.9785V74.915H324.734V74.4453C324.734 72.2871 323.573 70.9731 321.649 70.9731C319.701 70.9731 318.463 72.376 318.463 74.5659C318.463 76.7686 319.675 78.1333 321.656 78.1333C323.236 78.1333 324.354 77.3716 324.652 76.1528H323.338ZM321.643 72.084C322.652 72.084 323.312 72.814 323.344 73.9312H319.853C319.929 72.8203 320.634 72.084 321.643 72.084ZM326.372 78H327.737V73.9565C327.737 72.8457 328.378 72.1602 329.387 72.1602C330.396 72.1602 330.879 72.7188 330.879 73.8613V78H332.244V73.5376C332.244 71.8936 331.393 70.9731 329.851 70.9731C328.81 70.9731 328.124 71.4365 327.788 72.1982H327.686V71.1064H326.372V78ZM334.649 69.3672V71.1255H333.551V72.2173H334.649V76.1846C334.649 77.5112 335.252 78.0444 336.77 78.0444C337.036 78.0444 337.29 78.0127 337.512 77.9746V76.8892C337.322 76.9082 337.201 76.9209 336.992 76.9209C336.312 76.9209 336.014 76.5972 336.014 75.8545V72.2173H337.512V71.1255H336.014V69.3672H334.649Z" fill="#CCCCCC"/>
</svg>
