<svg width="412" height="110" viewBox="0 0 412 110" fill="none" xmlns="http://www.w3.org/2000/svg">
<path d="M110 0H408C410.209 0 412 1.79086 412 4V106C412 108.209 410.209 110 408 110H110V0Z" fill="#292929"/>
<path d="M139.653 40V31.8379H142.613V30.1357H134.629V31.8379H137.589V40H139.653ZM150.338 32.4736H148.349V36.8213C148.349 37.8535 147.815 38.4893 146.824 38.4893C145.908 38.4893 145.437 37.9492 145.437 36.8828V32.4736H143.447V37.375C143.447 39.125 144.459 40.1572 146.086 40.1572C147.228 40.1572 147.932 39.665 148.287 38.79H148.41V40H150.338V32.4736ZM152.901 30.6758V32.542H151.726V34.0527H152.901V37.9697C152.901 39.4326 153.626 40.0273 155.458 40.0273C155.841 40.0273 156.21 39.9863 156.456 39.9385V38.4688C156.265 38.4893 156.128 38.5029 155.868 38.5029C155.191 38.5029 154.891 38.1885 154.891 37.5117V34.0527H156.456V32.542H154.891V30.6758H152.901ZM161.405 40.1572C163.723 40.1572 165.117 38.6943 165.117 36.2334C165.117 33.793 163.702 32.3096 161.405 32.3096C159.108 32.3096 157.693 33.7998 157.693 36.2334C157.693 38.6875 159.088 40.1572 161.405 40.1572ZM161.405 38.585C160.339 38.585 159.737 37.7236 159.737 36.2334C159.737 34.7568 160.346 33.8887 161.405 33.8887C162.458 33.8887 163.073 34.7568 163.073 36.2334C163.073 37.7236 162.465 38.585 161.405 38.585ZM166.744 40H168.733V35.7891C168.733 34.7295 169.479 34.0801 170.565 34.0801C170.887 34.0801 171.352 34.1348 171.509 34.1895V32.4395C171.338 32.3848 171.003 32.3506 170.729 32.3506C169.772 32.3506 168.993 32.918 168.795 33.6699H168.672V32.4736H166.744V40ZM173.854 31.3184C174.469 31.3184 174.975 30.8262 174.975 30.2109C174.975 29.5889 174.469 29.0967 173.854 29.0967C173.238 29.0967 172.726 29.5889 172.726 30.2109C172.726 30.8262 173.238 31.3184 173.854 31.3184ZM172.855 40H174.845V32.4736H172.855V40ZM178.926 40.1162C179.903 40.1162 180.724 39.6992 181.113 39.002H181.236V40H183.164V34.8594C183.164 33.2529 182.036 32.3096 180.04 32.3096C178.146 32.3096 176.868 33.1777 176.738 34.5586H178.57C178.734 34.0869 179.213 33.834 179.931 33.834C180.751 33.834 181.202 34.21 181.202 34.8594V35.4814L179.377 35.5908C177.504 35.7002 176.458 36.4932 176.458 37.8535C176.458 39.2275 177.477 40.1162 178.926 40.1162ZM179.582 38.6602C178.892 38.6602 178.406 38.3115 178.406 37.7305C178.406 37.1768 178.823 36.8555 179.678 36.8008L181.202 36.6982V37.2588C181.202 38.0518 180.505 38.6602 179.582 38.6602ZM185.188 40H187.177V29.5957H185.188V40ZM189.077 34.668C189.077 35.8232 189.788 36.5137 191.251 36.835L192.618 37.1426C193.281 37.293 193.568 37.5254 193.568 37.9082C193.568 38.4072 193.035 38.749 192.263 38.749C191.47 38.749 190.984 38.4414 190.834 37.9219H188.893C189.029 39.3438 190.232 40.1572 192.222 40.1572C194.197 40.1572 195.544 39.1865 195.544 37.6963C195.544 36.5752 194.888 35.96 193.425 35.6387L192.01 35.3311C191.312 35.1738 190.991 34.9346 190.991 34.5518C190.991 34.0596 191.518 33.7246 192.229 33.7246C192.967 33.7246 193.425 34.0322 193.527 34.5312H195.366C195.257 33.1094 194.129 32.3096 192.215 32.3096C190.335 32.3096 189.077 33.2598 189.077 34.668Z" fill="white"/>
<path opacity="0.8" d="M134.717 59.5562C134.819 61.1812 136.184 62.2222 138.215 62.2222C140.386 62.2222 141.744 61.1304 141.744 59.3975C141.744 58.0264 140.97 57.271 139.091 56.8203L138.082 56.5728C136.888 56.2808 136.406 55.8999 136.406 55.2334C136.406 54.3765 137.155 53.8242 138.278 53.8242C139.345 53.8242 140.081 54.3574 140.214 55.2271H141.598C141.516 53.6973 140.157 52.6182 138.297 52.6182C136.298 52.6182 134.965 53.6973 134.965 55.3096C134.965 56.6426 135.72 57.4297 137.377 57.8296L138.558 58.1152C139.77 58.4072 140.303 58.8516 140.303 59.5688C140.303 60.4067 139.465 61.0098 138.323 61.0098C137.098 61.0098 136.247 60.4448 136.126 59.5562H134.717ZM149.311 57.3218C149.133 55.9824 148.085 54.9731 146.353 54.9731C144.34 54.9731 143.115 56.3379 143.115 58.5278C143.115 60.7622 144.347 62.1333 146.359 62.1333C148.066 62.1333 149.133 61.1748 149.311 59.8164H147.984C147.806 60.5654 147.216 60.9717 146.353 60.9717C145.216 60.9717 144.512 60.0513 144.512 58.5278C144.512 57.0361 145.21 56.1348 146.353 56.1348C147.267 56.1348 147.825 56.6489 147.984 57.3218H149.311ZM155.404 60.1528C155.15 60.7114 154.585 61.0161 153.76 61.0161C152.668 61.0161 151.964 60.229 151.919 58.9785V58.915H156.801V58.4453C156.801 56.2871 155.639 54.9731 153.716 54.9731C151.767 54.9731 150.529 56.376 150.529 58.5659C150.529 60.7686 151.742 62.1333 153.722 62.1333C155.303 62.1333 156.42 61.3716 156.718 60.1528H155.404ZM153.709 56.084C154.719 56.084 155.379 56.814 155.411 57.9312H151.919C151.996 56.8203 152.7 56.084 153.709 56.084ZM158.438 62H159.803V57.9565C159.803 56.8457 160.444 56.1602 161.454 56.1602C162.463 56.1602 162.945 56.7188 162.945 57.8613V62H164.31V57.5376C164.31 55.8936 163.459 54.9731 161.917 54.9731C160.876 54.9731 160.19 55.4365 159.854 56.1982H159.752V55.1064H158.438V62ZM168.144 62.1143C169.052 62.1143 169.807 61.7207 170.22 61.0225H170.328V62H171.642V57.2837C171.642 55.8364 170.664 54.9731 168.931 54.9731C167.363 54.9731 166.246 55.7285 166.106 56.8901H167.427C167.579 56.3887 168.106 56.103 168.868 56.103C169.801 56.103 170.283 56.5283 170.283 57.2837V57.8867L168.411 58.001C166.767 58.1025 165.84 58.8198 165.84 60.0576C165.84 61.3145 166.811 62.1143 168.144 62.1143ZM168.493 61.0161C167.75 61.0161 167.211 60.6416 167.211 60.0005C167.211 59.3721 167.643 59.0356 168.595 58.9722L170.283 58.8579V59.4546C170.283 60.3433 169.521 61.0161 168.493 61.0161ZM173.584 62H174.949V57.8804C174.949 56.9092 175.679 56.2427 176.713 56.2427C176.955 56.2427 177.361 56.2871 177.475 56.3188V55.0366C177.329 55.0049 177.069 54.9858 176.866 54.9858C175.964 54.9858 175.196 55.4746 175 56.1538H174.898V55.1064H173.584V62ZM179.494 53.875C179.97 53.875 180.357 53.4878 180.357 53.0181C180.357 52.542 179.97 52.1548 179.494 52.1548C179.018 52.1548 178.63 52.542 178.63 53.0181C178.63 53.4878 179.018 53.875 179.494 53.875ZM178.814 62H180.173V55.1064H178.814V62ZM185.099 62.1333C187.117 62.1333 188.355 60.7812 188.355 58.5532C188.355 56.3252 187.111 54.9731 185.099 54.9731C183.08 54.9731 181.836 56.3315 181.836 58.5532C181.836 60.7812 183.074 62.1333 185.099 62.1333ZM185.099 60.9717C183.912 60.9717 183.245 60.0894 183.245 58.5532C183.245 57.0171 183.912 56.1284 185.099 56.1284C186.279 56.1284 186.952 57.0171 186.952 58.5532C186.952 60.083 186.279 60.9717 185.099 60.9717ZM194.188 58.9404V57.6772H190.024V58.9404H194.188ZM199.857 62.1143C201.603 62.1143 202.713 60.7241 202.713 58.5532C202.713 56.3633 201.609 54.9858 199.857 54.9858C198.911 54.9858 198.099 55.4492 197.73 56.1982H197.623V52.4023H196.258V62H197.572V60.9082H197.673C198.086 61.6699 198.892 62.1143 199.857 62.1143ZM199.463 56.1538C200.619 56.1538 201.311 57.0615 201.311 58.5532C201.311 60.0449 200.619 60.9463 199.463 60.9463C198.314 60.9463 197.604 60.0322 197.597 58.5532C197.604 57.0742 198.321 56.1538 199.463 56.1538ZM206.268 62.1143C207.176 62.1143 207.931 61.7207 208.344 61.0225H208.452V62H209.766V57.2837C209.766 55.8364 208.788 54.9731 207.055 54.9731C205.487 54.9731 204.37 55.7285 204.23 56.8901H205.551C205.703 56.3887 206.23 56.103 206.992 56.103C207.925 56.103 208.407 56.5283 208.407 57.2837V57.8867L206.535 58.001C204.891 58.1025 203.964 58.8198 203.964 60.0576C203.964 61.3145 204.935 62.1143 206.268 62.1143ZM206.617 61.0161C205.875 61.0161 205.335 60.6416 205.335 60.0005C205.335 59.3721 205.767 59.0356 206.719 58.9722L208.407 58.8579V59.4546C208.407 60.3433 207.646 61.0161 206.617 61.0161ZM211.549 57.0361C211.549 58.0581 212.159 58.6421 213.473 58.9468L214.679 59.2324C215.371 59.3975 215.694 59.6768 215.694 60.1084C215.694 60.6733 215.091 61.0669 214.241 61.0669C213.416 61.0669 212.908 60.7305 212.736 60.1909H211.372C211.492 61.3906 212.565 62.1333 214.209 62.1333C215.859 62.1333 217.072 61.2637 217.072 59.9814C217.072 58.9785 216.456 58.4136 215.142 58.1089L213.993 57.8423C213.244 57.6646 212.895 57.3979 212.895 56.9727C212.895 56.4141 213.473 56.0396 214.234 56.0396C215.009 56.0396 215.504 56.376 215.631 56.8901H216.938C216.805 55.6968 215.79 54.9731 214.234 54.9731C212.673 54.9731 211.549 55.8364 211.549 57.0361ZM223.248 60.1528C222.994 60.7114 222.429 61.0161 221.604 61.0161C220.512 61.0161 219.808 60.229 219.763 58.9785V58.915H224.645V58.4453C224.645 56.2871 223.483 54.9731 221.56 54.9731C219.611 54.9731 218.373 56.376 218.373 58.5659C218.373 60.7686 219.585 62.1333 221.566 62.1333C223.146 62.1333 224.264 61.3716 224.562 60.1528H223.248ZM221.553 56.084C222.562 56.084 223.223 56.814 223.254 57.9312H219.763C219.839 56.8203 220.544 56.084 221.553 56.084ZM228.809 62.1143C229.761 62.1143 230.567 61.6636 230.979 60.9082H231.087V62H232.395V52.4023H231.03V56.1982H230.929C230.554 55.4429 229.754 54.9858 228.809 54.9858C227.063 54.9858 225.939 56.376 225.939 58.5469C225.939 60.7305 227.05 62.1143 228.809 62.1143ZM229.196 56.1538C230.338 56.1538 231.056 57.0806 231.056 58.5532C231.056 60.0386 230.345 60.9463 229.196 60.9463C228.041 60.9463 227.349 60.0513 227.349 58.5532C227.349 57.0615 228.047 56.1538 229.196 56.1538ZM238.482 53.3672V55.1255H237.384V56.2173H238.482V60.1846C238.482 61.5112 239.085 62.0444 240.603 62.0444C240.869 62.0444 241.123 62.0127 241.345 61.9746V60.8892C241.155 60.9082 241.034 60.9209 240.825 60.9209C240.146 60.9209 239.847 60.5972 239.847 59.8545V56.2173H241.345V55.1255H239.847V53.3672H238.482ZM248.778 55.1064H247.414V59.1499C247.414 60.2607 246.811 60.9336 245.706 60.9336C244.703 60.9336 244.252 60.3877 244.252 59.2451V55.1064H242.888V59.5815C242.888 61.2002 243.738 62.1333 245.268 62.1333C246.315 62.1333 247.02 61.689 247.356 60.9082H247.464V62H248.778V55.1064ZM251.241 53.3672V55.1255H250.143V56.2173H251.241V60.1846C251.241 61.5112 251.844 62.0444 253.361 62.0444C253.628 62.0444 253.882 62.0127 254.104 61.9746V60.8892C253.914 60.9082 253.793 60.9209 253.583 60.9209C252.904 60.9209 252.606 60.5972 252.606 59.8545V56.2173H254.104V55.1255H252.606V53.3672H251.241ZM258.554 62.1333C260.572 62.1333 261.81 60.7812 261.81 58.5532C261.81 56.3252 260.566 54.9731 258.554 54.9731C256.535 54.9731 255.291 56.3315 255.291 58.5532C255.291 60.7812 256.529 62.1333 258.554 62.1333ZM258.554 60.9717C257.367 60.9717 256.7 60.0894 256.7 58.5532C256.7 57.0171 257.367 56.1284 258.554 56.1284C259.734 56.1284 260.407 57.0171 260.407 58.5532C260.407 60.083 259.734 60.9717 258.554 60.9717ZM263.454 62H264.819V57.8804C264.819 56.9092 265.549 56.2427 266.583 56.2427C266.825 56.2427 267.231 56.2871 267.345 56.3188V55.0366C267.199 55.0049 266.939 54.9858 266.736 54.9858C265.834 54.9858 265.066 55.4746 264.87 56.1538H264.768V55.1064H263.454V62ZM269.364 53.875C269.84 53.875 270.227 53.4878 270.227 53.0181C270.227 52.542 269.84 52.1548 269.364 52.1548C268.888 52.1548 268.5 52.542 268.5 53.0181C268.5 53.4878 268.888 53.875 269.364 53.875ZM268.685 62H270.043V55.1064H268.685V62ZM273.959 62.1143C274.867 62.1143 275.623 61.7207 276.035 61.0225H276.143V62H277.457V57.2837C277.457 55.8364 276.479 54.9731 274.747 54.9731C273.179 54.9731 272.062 55.7285 271.922 56.8901H273.242C273.395 56.3887 273.921 56.103 274.683 56.103C275.616 56.103 276.099 56.5283 276.099 57.2837V57.8867L274.226 58.001C272.582 58.1025 271.655 58.8198 271.655 60.0576C271.655 61.3145 272.626 62.1143 273.959 62.1143ZM274.309 61.0161C273.566 61.0161 273.026 60.6416 273.026 60.0005C273.026 59.3721 273.458 59.0356 274.41 58.9722L276.099 58.8579V59.4546C276.099 60.3433 275.337 61.0161 274.309 61.0161ZM279.463 62H280.828V52.4023H279.463V62ZM282.719 57.0361C282.719 58.0581 283.329 58.6421 284.643 58.9468L285.849 59.2324C286.541 59.3975 286.864 59.6768 286.864 60.1084C286.864 60.6733 286.261 61.0669 285.411 61.0669C284.585 61.0669 284.078 60.7305 283.906 60.1909H282.542C282.662 61.3906 283.735 62.1333 285.379 62.1333C287.029 62.1333 288.242 61.2637 288.242 59.9814C288.242 58.9785 287.626 58.4136 286.312 58.1089L285.163 57.8423C284.414 57.6646 284.065 57.3979 284.065 56.9727C284.065 56.4141 284.643 56.0396 285.404 56.0396C286.179 56.0396 286.674 56.376 286.801 56.8901H288.108C287.975 55.6968 286.959 54.9731 285.404 54.9731C283.843 54.9731 282.719 55.8364 282.719 57.0361ZM293.923 53.3672V55.1255H292.825V56.2173H293.923V60.1846C293.923 61.5112 294.526 62.0444 296.043 62.0444C296.31 62.0444 296.563 62.0127 296.786 61.9746V60.8892C296.595 60.9082 296.475 60.9209 296.265 60.9209C295.586 60.9209 295.288 60.5972 295.288 59.8545V56.2173H296.786V55.1255H295.288V53.3672H293.923ZM301.235 62.1333C303.254 62.1333 304.492 60.7812 304.492 58.5532C304.492 56.3252 303.248 54.9731 301.235 54.9731C299.217 54.9731 297.973 56.3315 297.973 58.5532C297.973 60.7812 299.21 62.1333 301.235 62.1333ZM301.235 60.9717C300.048 60.9717 299.382 60.0894 299.382 58.5532C299.382 57.0171 300.048 56.1284 301.235 56.1284C302.416 56.1284 303.089 57.0171 303.089 58.5532C303.089 60.083 302.416 60.9717 301.235 60.9717ZM311.601 62.1143C312.509 62.1143 313.264 61.7207 313.677 61.0225H313.785V62H315.099V57.2837C315.099 55.8364 314.121 54.9731 312.388 54.9731C310.82 54.9731 309.703 55.7285 309.563 56.8901H310.884C311.036 56.3887 311.563 56.103 312.325 56.103C313.258 56.103 313.74 56.5283 313.74 57.2837V57.8867L311.868 58.001C310.224 58.1025 309.297 58.8198 309.297 60.0576C309.297 61.3145 310.268 62.1143 311.601 62.1143ZM311.95 61.0161C311.208 61.0161 310.668 60.6416 310.668 60.0005C310.668 59.3721 311.1 59.0356 312.052 58.9722L313.74 58.8579V59.4546C313.74 60.3433 312.979 61.0161 311.95 61.0161ZM319.567 62.1143C320.52 62.1143 321.326 61.6636 321.738 60.9082H321.846V62H323.154V52.4023H321.789V56.1982H321.688C321.313 55.4429 320.513 54.9858 319.567 54.9858C317.822 54.9858 316.698 56.376 316.698 58.5469C316.698 60.7305 317.809 62.1143 319.567 62.1143ZM319.955 56.1538C321.097 56.1538 321.814 57.0806 321.814 58.5532C321.814 60.0386 321.104 60.9463 319.955 60.9463C318.799 60.9463 318.107 60.0513 318.107 58.5532C318.107 57.0615 318.806 56.1538 319.955 56.1538ZM331.057 55.1064H329.609L327.896 60.6035H327.788L326.067 55.1064H324.607L327.102 62H328.568L331.057 55.1064ZM334.11 62.1143C335.018 62.1143 335.773 61.7207 336.186 61.0225H336.293V62H337.607V57.2837C337.607 55.8364 336.63 54.9731 334.897 54.9731C333.329 54.9731 332.212 55.7285 332.072 56.8901H333.393C333.545 56.3887 334.072 56.103 334.833 56.103C335.767 56.103 336.249 56.5283 336.249 57.2837V57.8867L334.376 58.001C332.732 58.1025 331.806 58.8198 331.806 60.0576C331.806 61.3145 332.777 62.1143 334.11 62.1143ZM334.459 61.0161C333.716 61.0161 333.177 60.6416 333.177 60.0005C333.177 59.3721 333.608 59.0356 334.561 58.9722L336.249 58.8579V59.4546C336.249 60.3433 335.487 61.0161 334.459 61.0161ZM339.55 62H340.915V57.9565C340.915 56.8457 341.556 56.1602 342.565 56.1602C343.574 56.1602 344.057 56.7188 344.057 57.8613V62H345.421V57.5376C345.421 55.8936 344.571 54.9731 343.028 54.9731C341.987 54.9731 341.302 55.4365 340.965 56.1982H340.864V55.1064H339.55V62ZM353.197 57.3218C353.02 55.9824 351.972 54.9731 350.239 54.9731C348.227 54.9731 347.002 56.3379 347.002 58.5278C347.002 60.7622 348.233 62.1333 350.246 62.1333C351.953 62.1333 353.02 61.1748 353.197 59.8164H351.871C351.693 60.5654 351.103 60.9717 350.239 60.9717C349.103 60.9717 348.398 60.0513 348.398 58.5278C348.398 57.0361 349.097 56.1348 350.239 56.1348C351.153 56.1348 351.712 56.6489 351.871 57.3218H353.197ZM359.291 60.1528C359.037 60.7114 358.472 61.0161 357.647 61.0161C356.555 61.0161 355.851 60.229 355.806 58.9785V58.915H360.688V58.4453C360.688 56.2871 359.526 54.9731 357.603 54.9731C355.654 54.9731 354.416 56.376 354.416 58.5659C354.416 60.7686 355.628 62.1333 357.609 62.1333C359.189 62.1333 360.307 61.3716 360.605 60.1528H359.291ZM357.596 56.084C358.605 56.084 359.266 56.814 359.297 57.9312H355.806C355.882 56.8203 356.587 56.084 357.596 56.084ZM135.676 80.501C137.085 80.501 137.739 79.9741 138.329 78.3174L140.906 71.1064H139.459L137.732 76.6289H137.625L135.892 71.1064H134.406L136.907 78.019L136.806 78.3745C136.571 79.1045 136.203 79.3774 135.555 79.3774C135.428 79.3774 135.219 79.3711 135.111 79.3521V80.4692C135.238 80.4883 135.562 80.501 135.676 80.501ZM144.956 78.1333C146.975 78.1333 148.212 76.7812 148.212 74.5532C148.212 72.3252 146.968 70.9731 144.956 70.9731C142.938 70.9731 141.693 72.3315 141.693 74.5532C141.693 76.7812 142.931 78.1333 144.956 78.1333ZM144.956 76.9717C143.769 76.9717 143.103 76.0894 143.103 74.5532C143.103 73.0171 143.769 72.1284 144.956 72.1284C146.137 72.1284 146.81 73.0171 146.81 74.5532C146.81 76.083 146.137 76.9717 144.956 76.9717ZM155.684 71.1064H154.319V75.1499C154.319 76.2607 153.716 76.9336 152.611 76.9336C151.608 76.9336 151.158 76.3877 151.158 75.2451V71.1064H149.793V75.5815C149.793 77.2002 150.644 78.1333 152.173 78.1333C153.221 78.1333 153.925 77.689 154.262 76.9082H154.37V78H155.684V71.1064ZM157.664 78H159.029V73.8804C159.029 72.9092 159.759 72.2427 160.793 72.2427C161.035 72.2427 161.441 72.2871 161.555 72.3188V71.0366C161.409 71.0049 161.149 70.9858 160.946 70.9858C160.044 70.9858 159.276 71.4746 159.08 72.1538H158.978V71.1064H157.664V78ZM170.328 78V70.0654H173.203V68.8403H166.024V70.0654H168.906V78H170.328ZM178.078 76.1528C177.824 76.7114 177.259 77.0161 176.434 77.0161C175.342 77.0161 174.638 76.229 174.593 74.9785V74.915H179.475V74.4453C179.475 72.2871 178.313 70.9731 176.39 70.9731C174.441 70.9731 173.203 72.376 173.203 74.5659C173.203 76.7686 174.416 78.1333 176.396 78.1333C177.977 78.1333 179.094 77.3716 179.392 76.1528H178.078ZM176.383 72.084C177.393 72.084 178.053 72.814 178.084 73.9312H174.593C174.669 72.8203 175.374 72.084 176.383 72.084ZM183.023 78.1143C183.931 78.1143 184.686 77.7207 185.099 77.0225H185.207V78H186.521V73.2837C186.521 71.8364 185.543 70.9731 183.81 70.9731C182.242 70.9731 181.125 71.7285 180.985 72.8901H182.306C182.458 72.3887 182.985 72.103 183.747 72.103C184.68 72.103 185.162 72.5283 185.162 73.2837V73.8867L183.29 74.001C181.646 74.1025 180.719 74.8198 180.719 76.0576C180.719 77.3145 181.69 78.1143 183.023 78.1143ZM183.372 77.0161C182.629 77.0161 182.09 76.6416 182.09 76.0005C182.09 75.3721 182.521 75.0356 183.474 74.9722L185.162 74.8579V75.4546C185.162 76.3433 184.4 77.0161 183.372 77.0161ZM188.463 78H189.828V73.7661C189.828 72.8647 190.456 72.1602 191.288 72.1602C192.1 72.1602 192.621 72.6489 192.621 73.436V78H193.96V73.6392C193.96 72.8076 194.538 72.1602 195.42 72.1602C196.315 72.1602 196.759 72.6235 196.759 73.5757V78H198.124V73.2456C198.124 71.811 197.312 70.9731 195.915 70.9731C194.957 70.9731 194.163 71.4619 193.814 72.2046H193.706C193.401 71.4619 192.748 70.9731 191.802 70.9731C190.881 70.9731 190.183 71.4302 189.878 72.2046H189.777V71.1064H188.463V78ZM199.882 73.0361C199.882 74.0581 200.492 74.6421 201.806 74.9468L203.012 75.2324C203.704 75.3975 204.027 75.6768 204.027 76.1084C204.027 76.6733 203.424 77.0669 202.574 77.0669C201.749 77.0669 201.241 76.7305 201.069 76.1909H199.705C199.825 77.3906 200.898 78.1333 202.542 78.1333C204.192 78.1333 205.405 77.2637 205.405 75.9814C205.405 74.9785 204.789 74.4136 203.475 74.1089L202.326 73.8423C201.577 73.6646 201.228 73.3979 201.228 72.9727C201.228 72.4141 201.806 72.0396 202.567 72.0396C203.342 72.0396 203.837 72.376 203.964 72.8901H205.271C205.138 71.6968 204.123 70.9731 202.567 70.9731C201.006 70.9731 199.882 71.8364 199.882 73.0361ZM212.514 78.1143C213.422 78.1143 214.177 77.7207 214.59 77.0225H214.698V78H216.012V73.2837C216.012 71.8364 215.034 70.9731 213.301 70.9731C211.733 70.9731 210.616 71.7285 210.477 72.8901H211.797C211.949 72.3887 212.476 72.103 213.238 72.103C214.171 72.103 214.653 72.5283 214.653 73.2837V73.8867L212.781 74.001C211.137 74.1025 210.21 74.8198 210.21 76.0576C210.21 77.3145 211.181 78.1143 212.514 78.1143ZM212.863 77.0161C212.121 77.0161 211.581 76.6416 211.581 76.0005C211.581 75.3721 212.013 75.0356 212.965 74.9722L214.653 74.8579V75.4546C214.653 76.3433 213.892 77.0161 212.863 77.0161ZM221.541 70.9858C220.601 70.9858 219.789 71.4619 219.37 72.249H219.268V71.1064H217.954V80.2979H219.319V76.959H219.427C219.789 77.689 220.569 78.1143 221.553 78.1143C223.299 78.1143 224.41 76.7305 224.41 74.5532C224.41 72.3633 223.299 70.9858 221.541 70.9858ZM221.153 76.9463C220.011 76.9463 219.293 76.0259 219.293 74.5532C219.293 73.0742 220.011 72.1538 221.16 72.1538C222.315 72.1538 223.007 73.0552 223.007 74.5532C223.007 76.0513 222.315 76.9463 221.153 76.9463ZM229.64 70.9858C228.701 70.9858 227.888 71.4619 227.469 72.249H227.368V71.1064H226.054V80.2979H227.418V76.959H227.526C227.888 77.689 228.669 78.1143 229.653 78.1143C231.398 78.1143 232.509 76.7305 232.509 74.5532C232.509 72.3633 231.398 70.9858 229.64 70.9858ZM229.253 76.9463C228.11 76.9463 227.393 76.0259 227.393 74.5532C227.393 73.0742 228.11 72.1538 229.259 72.1538C230.415 72.1538 231.106 73.0552 231.106 74.5532C231.106 76.0513 230.415 76.9463 229.253 76.9463ZM238.197 78H239.562V72.2173H241.085V71.1255H239.542V70.4463C239.542 69.748 239.854 69.3989 240.615 69.3989C240.831 69.3989 241.015 69.4116 241.142 69.4307V68.4023C240.907 68.3643 240.641 68.3389 240.33 68.3389C238.895 68.3389 238.197 69.0117 238.197 70.3828V71.1255H237.061V72.2173H238.197V78ZM248.461 71.1064H247.096V75.1499C247.096 76.2607 246.493 76.9336 245.389 76.9336C244.386 76.9336 243.935 76.3877 243.935 75.2451V71.1064H242.57V75.5815C242.57 77.2002 243.421 78.1333 244.951 78.1333C245.998 78.1333 246.703 77.689 247.039 76.9082H247.147V78H248.461V71.1064ZM250.441 78H251.806V73.9565C251.806 72.8457 252.447 72.1602 253.457 72.1602C254.466 72.1602 254.948 72.7188 254.948 73.8613V78H256.313V73.5376C256.313 71.8936 255.462 70.9731 253.92 70.9731C252.879 70.9731 252.193 71.4365 251.857 72.1982H251.755V71.1064H250.441V78ZM264.089 73.3218C263.911 71.9824 262.864 70.9731 261.131 70.9731C259.119 70.9731 257.894 72.3379 257.894 74.5278C257.894 76.7622 259.125 78.1333 261.137 78.1333C262.845 78.1333 263.911 77.1748 264.089 75.8164H262.762C262.584 76.5654 261.994 76.9717 261.131 76.9717C259.995 76.9717 259.29 76.0513 259.29 74.5278C259.29 73.0361 259.988 72.1348 261.131 72.1348C262.045 72.1348 262.604 72.6489 262.762 73.3218H264.089ZM266.234 69.3672V71.1255H265.136V72.2173H266.234V76.1846C266.234 77.5112 266.837 78.0444 268.354 78.0444C268.621 78.0444 268.875 78.0127 269.097 77.9746V76.8892C268.907 76.9082 268.786 76.9209 268.577 76.9209C267.897 76.9209 267.599 76.5972 267.599 75.8545V72.2173H269.097V71.1255H267.599V69.3672H266.234ZM271.408 69.875C271.884 69.875 272.271 69.4878 272.271 69.0181C272.271 68.542 271.884 68.1548 271.408 68.1548C270.932 68.1548 270.544 68.542 270.544 69.0181C270.544 69.4878 270.932 69.875 271.408 69.875ZM270.729 78H272.087V71.1064H270.729V78ZM277.013 78.1333C279.031 78.1333 280.269 76.7812 280.269 74.5532C280.269 72.3252 279.025 70.9731 277.013 70.9731C274.994 70.9731 273.75 72.3315 273.75 74.5532C273.75 76.7812 274.988 78.1333 277.013 78.1333ZM277.013 76.9717C275.826 76.9717 275.159 76.0894 275.159 74.5532C275.159 73.0171 275.826 72.1284 277.013 72.1284C278.193 72.1284 278.866 73.0171 278.866 74.5532C278.866 76.083 278.193 76.9717 277.013 76.9717ZM281.913 78H283.278V73.9565C283.278 72.8457 283.919 72.1602 284.928 72.1602C285.938 72.1602 286.42 72.7188 286.42 73.8613V78H287.785V73.5376C287.785 71.8936 286.934 70.9731 285.392 70.9731C284.351 70.9731 283.665 71.4365 283.329 72.1982H283.227V71.1064H281.913V78ZM291.619 78.1143C292.526 78.1143 293.282 77.7207 293.694 77.0225H293.802V78H295.116V73.2837C295.116 71.8364 294.139 70.9731 292.406 70.9731C290.838 70.9731 289.721 71.7285 289.581 72.8901H290.901C291.054 72.3887 291.581 72.103 292.342 72.103C293.275 72.103 293.758 72.5283 293.758 73.2837V73.8867L291.885 74.001C290.241 74.1025 289.314 74.8198 289.314 76.0576C289.314 77.3145 290.286 78.1143 291.619 78.1143ZM291.968 77.0161C291.225 77.0161 290.686 76.6416 290.686 76.0005C290.686 75.3721 291.117 75.0356 292.069 74.9722L293.758 74.8579V75.4546C293.758 76.3433 292.996 77.0161 291.968 77.0161ZM297.122 78H298.487V68.4023H297.122V78ZM301.242 69.875C301.718 69.875 302.105 69.4878 302.105 69.0181C302.105 68.542 301.718 68.1548 301.242 68.1548C300.766 68.1548 300.378 68.542 300.378 69.0181C300.378 69.4878 300.766 69.875 301.242 69.875ZM300.562 78H301.921V71.1064H300.562V78ZM304.409 69.3672V71.1255H303.311V72.2173H304.409V76.1846C304.409 77.5112 305.012 78.0444 306.529 78.0444C306.796 78.0444 307.05 78.0127 307.272 77.9746V76.8892C307.082 76.9082 306.961 76.9209 306.751 76.9209C306.072 76.9209 305.774 76.5972 305.774 75.8545V72.2173H307.272V71.1255H305.774V69.3672H304.409ZM309.583 69.875C310.059 69.875 310.446 69.4878 310.446 69.0181C310.446 68.542 310.059 68.1548 309.583 68.1548C309.106 68.1548 308.719 68.542 308.719 69.0181C308.719 69.4878 309.106 69.875 309.583 69.875ZM308.903 78H310.262V71.1064H308.903V78ZM316.8 76.1528C316.546 76.7114 315.981 77.0161 315.156 77.0161C314.064 77.0161 313.359 76.229 313.315 74.9785V74.915H318.196V74.4453C318.196 72.2871 317.035 70.9731 315.111 70.9731C313.163 70.9731 311.925 72.376 311.925 74.5659C311.925 76.7686 313.137 78.1333 315.118 78.1333C316.698 78.1333 317.815 77.3716 318.114 76.1528H316.8ZM315.105 72.084C316.114 72.084 316.774 72.814 316.806 73.9312H313.315C313.391 72.8203 314.096 72.084 315.105 72.084ZM319.675 73.0361C319.675 74.0581 320.285 74.6421 321.599 74.9468L322.805 75.2324C323.497 75.3975 323.82 75.6768 323.82 76.1084C323.82 76.6733 323.217 77.0669 322.367 77.0669C321.542 77.0669 321.034 76.7305 320.862 76.1909H319.498C319.618 77.3906 320.691 78.1333 322.335 78.1333C323.985 78.1333 325.198 77.2637 325.198 75.9814C325.198 74.9785 324.582 74.4136 323.268 74.1089L322.119 73.8423C321.37 73.6646 321.021 73.3979 321.021 72.9727C321.021 72.4141 321.599 72.0396 322.36 72.0396C323.135 72.0396 323.63 72.376 323.757 72.8901H325.064C324.931 71.6968 323.916 70.9731 322.36 70.9731C320.799 70.9731 319.675 71.8364 319.675 73.0361Z" fill="white"/>
<path d="M0 4C0 1.79086 1.79086 0 4 0H110V110H4C1.79086 110 0 108.209 0 106V4Z" fill="#252526"/>
<path d="M43.9333 51.8L58.2 39.4L56.4667 37.5333L43.1333 49L39.4 44.4667L37.5333 46.0667L42.0667 51.6667L43.9333 51.8ZM72.4667 47.5333H52.0667L57.8 42.4667H72.4667V47.5333ZM50.0667 52.4667H72.4667V57.5333H50.0667V52.4667ZM72.4667 62.4667H50.0667V67.5333H72.4667V62.4667Z" fill="#CCCCCC"/>
</svg>
