<svg width="588" height="362" viewBox="0 0 588 362" fill="none" xmlns="http://www.w3.org/2000/svg">
<a href="command:fx-extension.selectTutorials?%5B%22WalkThrough%22%5D">
<path d="M109.5 0.5H584C585.933 0.5 587.5 2.067 587.5 4V106C587.5 107.933 585.933 109.5 584 109.5H109.5V0.5Z" fill="var(--vscode-notificationCenterHeader-background, #2c2c2d)" stroke="var(--vscode-contrastBorder)"/>
<path d="M139.653 48V39.8379H142.613V38.1357H134.629V39.8379H137.589V48H139.653ZM150.338 40.4736H148.349V44.8213C148.349 45.8535 147.815 46.4893 146.824 46.4893C145.908 46.4893 145.437 45.9492 145.437 44.8828V40.4736H143.447V45.375C143.447 47.125 144.459 48.1572 146.086 48.1572C147.228 48.1572 147.932 47.665 148.287 46.79H148.41V48H150.338V40.4736ZM152.901 38.6758V40.542H151.726V42.0527H152.901V45.9697C152.901 47.4326 153.626 48.0273 155.458 48.0273C155.841 48.0273 156.21 47.9863 156.456 47.9385V46.4688C156.265 46.4893 156.128 46.5029 155.868 46.5029C155.191 46.5029 154.891 46.1885 154.891 45.5117V42.0527H156.456V40.542H154.891V38.6758H152.901ZM161.405 48.1572C163.723 48.1572 165.117 46.6943 165.117 44.2334C165.117 41.793 163.702 40.3096 161.405 40.3096C159.108 40.3096 157.693 41.7998 157.693 44.2334C157.693 46.6875 159.088 48.1572 161.405 48.1572ZM161.405 46.585C160.339 46.585 159.737 45.7236 159.737 44.2334C159.737 42.7568 160.346 41.8887 161.405 41.8887C162.458 41.8887 163.073 42.7568 163.073 44.2334C163.073 45.7236 162.465 46.585 161.405 46.585ZM166.744 48H168.733V43.7891C168.733 42.7295 169.479 42.0801 170.565 42.0801C170.887 42.0801 171.352 42.1348 171.509 42.1895V40.4395C171.338 40.3848 171.003 40.3506 170.729 40.3506C169.772 40.3506 168.993 40.918 168.795 41.6699H168.672V40.4736H166.744V48ZM173.854 39.3184C174.469 39.3184 174.975 38.8262 174.975 38.2109C174.975 37.5889 174.469 37.0967 173.854 37.0967C173.238 37.0967 172.726 37.5889 172.726 38.2109C172.726 38.8262 173.238 39.3184 173.854 39.3184ZM172.855 48H174.845V40.4736H172.855V48ZM178.926 48.1162C179.903 48.1162 180.724 47.6992 181.113 47.002H181.236V48H183.164V42.8594C183.164 41.2529 182.036 40.3096 180.04 40.3096C178.146 40.3096 176.868 41.1777 176.738 42.5586H178.57C178.734 42.0869 179.213 41.834 179.931 41.834C180.751 41.834 181.202 42.21 181.202 42.8594V43.4814L179.377 43.5908C177.504 43.7002 176.458 44.4932 176.458 45.8535C176.458 47.2275 177.477 48.1162 178.926 48.1162ZM179.582 46.6602C178.892 46.6602 178.406 46.3115 178.406 45.7305C178.406 45.1768 178.823 44.8555 179.678 44.8008L181.202 44.6982V45.2588C181.202 46.0518 180.505 46.6602 179.582 46.6602ZM185.188 48H187.177V37.5957H185.188V48ZM189.077 42.668C189.077 43.8232 189.788 44.5137 191.251 44.835L192.618 45.1426C193.281 45.293 193.568 45.5254 193.568 45.9082C193.568 46.4072 193.035 46.749 192.263 46.749C191.47 46.749 190.984 46.4414 190.834 45.9219H188.893C189.029 47.3438 190.232 48.1572 192.222 48.1572C194.197 48.1572 195.544 47.1865 195.544 45.6963C195.544 44.5752 194.888 43.96 193.425 43.6387L192.01 43.3311C191.312 43.1738 190.991 42.9346 190.991 42.5518C190.991 42.0596 191.518 41.7246 192.229 41.7246C192.967 41.7246 193.425 42.0322 193.527 42.5312H195.366C195.257 41.1094 194.129 40.3096 192.215 40.3096C190.335 40.3096 189.077 41.2598 189.077 42.668Z" fill="var(--vscode-inputOption-activeForeground, white)"/>
<path opacity="0.8" d="M134.717 66.5562C134.819 68.1812 136.184 69.2222 138.215 69.2222C140.386 69.2222 141.744 68.1304 141.744 66.3975C141.744 65.0264 140.97 64.271 139.091 63.8203L138.082 63.5728C136.888 63.2808 136.406 62.8999 136.406 62.2334C136.406 61.3765 137.155 60.8242 138.278 60.8242C139.345 60.8242 140.081 61.3574 140.214 62.2271H141.598C141.516 60.6973 140.157 59.6182 138.297 59.6182C136.298 59.6182 134.965 60.6973 134.965 62.3096C134.965 63.6426 135.72 64.4297 137.377 64.8296L138.558 65.1152C139.77 65.4072 140.303 65.8516 140.303 66.5688C140.303 67.4067 139.465 68.0098 138.323 68.0098C137.098 68.0098 136.247 67.4448 136.126 66.5562H134.717ZM149.311 64.3218C149.133 62.9824 148.085 61.9731 146.353 61.9731C144.34 61.9731 143.115 63.3379 143.115 65.5278C143.115 67.7622 144.347 69.1333 146.359 69.1333C148.066 69.1333 149.133 68.1748 149.311 66.8164H147.984C147.806 67.5654 147.216 67.9717 146.353 67.9717C145.216 67.9717 144.512 67.0513 144.512 65.5278C144.512 64.0361 145.21 63.1348 146.353 63.1348C147.267 63.1348 147.825 63.6489 147.984 64.3218H149.311ZM155.404 67.1528C155.15 67.7114 154.585 68.0161 153.76 68.0161C152.668 68.0161 151.964 67.229 151.919 65.9785V65.915H156.801V65.4453C156.801 63.2871 155.639 61.9731 153.716 61.9731C151.767 61.9731 150.529 63.376 150.529 65.5659C150.529 67.7686 151.742 69.1333 153.722 69.1333C155.303 69.1333 156.42 68.3716 156.718 67.1528H155.404ZM153.709 63.084C154.719 63.084 155.379 63.814 155.411 64.9312H151.919C151.996 63.8203 152.7 63.084 153.709 63.084ZM158.438 69H159.803V64.9565C159.803 63.8457 160.444 63.1602 161.454 63.1602C162.463 63.1602 162.945 63.7188 162.945 64.8613V69H164.31V64.5376C164.31 62.8936 163.459 61.9731 161.917 61.9731C160.876 61.9731 160.19 62.4365 159.854 63.1982H159.752V62.1064H158.438V69ZM168.144 69.1143C169.052 69.1143 169.807 68.7207 170.22 68.0225H170.328V69H171.642V64.2837C171.642 62.8364 170.664 61.9731 168.931 61.9731C167.363 61.9731 166.246 62.7285 166.106 63.8901H167.427C167.579 63.3887 168.106 63.103 168.868 63.103C169.801 63.103 170.283 63.5283 170.283 64.2837V64.8867L168.411 65.001C166.767 65.1025 165.84 65.8198 165.84 67.0576C165.84 68.3145 166.811 69.1143 168.144 69.1143ZM168.493 68.0161C167.75 68.0161 167.211 67.6416 167.211 67.0005C167.211 66.3721 167.643 66.0356 168.595 65.9722L170.283 65.8579V66.4546C170.283 67.3433 169.521 68.0161 168.493 68.0161ZM173.584 69H174.949V64.8804C174.949 63.9092 175.679 63.2427 176.713 63.2427C176.955 63.2427 177.361 63.2871 177.475 63.3188V62.0366C177.329 62.0049 177.069 61.9858 176.866 61.9858C175.964 61.9858 175.196 62.4746 175 63.1538H174.898V62.1064H173.584V69ZM179.494 60.875C179.97 60.875 180.357 60.4878 180.357 60.0181C180.357 59.542 179.97 59.1548 179.494 59.1548C179.018 59.1548 178.63 59.542 178.63 60.0181C178.63 60.4878 179.018 60.875 179.494 60.875ZM178.814 69H180.173V62.1064H178.814V69ZM185.099 69.1333C187.117 69.1333 188.355 67.7812 188.355 65.5532C188.355 63.3252 187.111 61.9731 185.099 61.9731C183.08 61.9731 181.836 63.3315 181.836 65.5532C181.836 67.7812 183.074 69.1333 185.099 69.1333ZM185.099 67.9717C183.912 67.9717 183.245 67.0894 183.245 65.5532C183.245 64.0171 183.912 63.1284 185.099 63.1284C186.279 63.1284 186.952 64.0171 186.952 65.5532C186.952 67.083 186.279 67.9717 185.099 67.9717ZM194.188 65.9404V64.6772H190.024V65.9404H194.188ZM199.857 69.1143C201.603 69.1143 202.713 67.7241 202.713 65.5532C202.713 63.3633 201.609 61.9858 199.857 61.9858C198.911 61.9858 198.099 62.4492 197.73 63.1982H197.623V59.4023H196.258V69H197.572V67.9082H197.673C198.086 68.6699 198.892 69.1143 199.857 69.1143ZM199.463 63.1538C200.619 63.1538 201.311 64.0615 201.311 65.5532C201.311 67.0449 200.619 67.9463 199.463 67.9463C198.314 67.9463 197.604 67.0322 197.597 65.5532C197.604 64.0742 198.321 63.1538 199.463 63.1538ZM206.268 69.1143C207.176 69.1143 207.931 68.7207 208.344 68.0225H208.452V69H209.766V64.2837C209.766 62.8364 208.788 61.9731 207.055 61.9731C205.487 61.9731 204.37 62.7285 204.23 63.8901H205.551C205.703 63.3887 206.23 63.103 206.992 63.103C207.925 63.103 208.407 63.5283 208.407 64.2837V64.8867L206.535 65.001C204.891 65.1025 203.964 65.8198 203.964 67.0576C203.964 68.3145 204.935 69.1143 206.268 69.1143ZM206.617 68.0161C205.875 68.0161 205.335 67.6416 205.335 67.0005C205.335 66.3721 205.767 66.0356 206.719 65.9722L208.407 65.8579V66.4546C208.407 67.3433 207.646 68.0161 206.617 68.0161ZM211.549 64.0361C211.549 65.0581 212.159 65.6421 213.473 65.9468L214.679 66.2324C215.371 66.3975 215.694 66.6768 215.694 67.1084C215.694 67.6733 215.091 68.0669 214.241 68.0669C213.416 68.0669 212.908 67.7305 212.736 67.1909H211.372C211.492 68.3906 212.565 69.1333 214.209 69.1333C215.859 69.1333 217.072 68.2637 217.072 66.9814C217.072 65.9785 216.456 65.4136 215.142 65.1089L213.993 64.8423C213.244 64.6646 212.895 64.3979 212.895 63.9727C212.895 63.4141 213.473 63.0396 214.234 63.0396C215.009 63.0396 215.504 63.376 215.631 63.8901H216.938C216.805 62.6968 215.79 61.9731 214.234 61.9731C212.673 61.9731 211.549 62.8364 211.549 64.0361ZM223.248 67.1528C222.994 67.7114 222.429 68.0161 221.604 68.0161C220.512 68.0161 219.808 67.229 219.763 65.9785V65.915H224.645V65.4453C224.645 63.2871 223.483 61.9731 221.56 61.9731C219.611 61.9731 218.373 63.376 218.373 65.5659C218.373 67.7686 219.585 69.1333 221.566 69.1333C223.146 69.1333 224.264 68.3716 224.562 67.1528H223.248ZM221.553 63.084C222.562 63.084 223.223 63.814 223.254 64.9312H219.763C219.839 63.8203 220.544 63.084 221.553 63.084ZM228.809 69.1143C229.761 69.1143 230.567 68.6636 230.979 67.9082H231.087V69H232.395V59.4023H231.03V63.1982H230.929C230.554 62.4429 229.754 61.9858 228.809 61.9858C227.063 61.9858 225.939 63.376 225.939 65.5469C225.939 67.7305 227.05 69.1143 228.809 69.1143ZM229.196 63.1538C230.338 63.1538 231.056 64.0806 231.056 65.5532C231.056 67.0386 230.345 67.9463 229.196 67.9463C228.041 67.9463 227.349 67.0513 227.349 65.5532C227.349 64.0615 228.047 63.1538 229.196 63.1538ZM238.482 60.3672V62.1255H237.384V63.2173H238.482V67.1846C238.482 68.5112 239.085 69.0444 240.603 69.0444C240.869 69.0444 241.123 69.0127 241.345 68.9746V67.8892C241.155 67.9082 241.034 67.9209 240.825 67.9209C240.146 67.9209 239.847 67.5972 239.847 66.8545V63.2173H241.345V62.1255H239.847V60.3672H238.482ZM248.778 62.1064H247.414V66.1499C247.414 67.2607 246.811 67.9336 245.706 67.9336C244.703 67.9336 244.252 67.3877 244.252 66.2451V62.1064H242.888V66.5815C242.888 68.2002 243.738 69.1333 245.268 69.1333C246.315 69.1333 247.02 68.689 247.356 67.9082H247.464V69H248.778V62.1064ZM251.241 60.3672V62.1255H250.143V63.2173H251.241V67.1846C251.241 68.5112 251.844 69.0444 253.361 69.0444C253.628 69.0444 253.882 69.0127 254.104 68.9746V67.8892C253.914 67.9082 253.793 67.9209 253.583 67.9209C252.904 67.9209 252.606 67.5972 252.606 66.8545V63.2173H254.104V62.1255H252.606V60.3672H251.241ZM258.554 69.1333C260.572 69.1333 261.81 67.7812 261.81 65.5532C261.81 63.3252 260.566 61.9731 258.554 61.9731C256.535 61.9731 255.291 63.3315 255.291 65.5532C255.291 67.7812 256.529 69.1333 258.554 69.1333ZM258.554 67.9717C257.367 67.9717 256.7 67.0894 256.7 65.5532C256.7 64.0171 257.367 63.1284 258.554 63.1284C259.734 63.1284 260.407 64.0171 260.407 65.5532C260.407 67.083 259.734 67.9717 258.554 67.9717ZM263.454 69H264.819V64.8804C264.819 63.9092 265.549 63.2427 266.583 63.2427C266.825 63.2427 267.231 63.2871 267.345 63.3188V62.0366C267.199 62.0049 266.939 61.9858 266.736 61.9858C265.834 61.9858 265.066 62.4746 264.87 63.1538H264.768V62.1064H263.454V69ZM269.364 60.875C269.84 60.875 270.227 60.4878 270.227 60.0181C270.227 59.542 269.84 59.1548 269.364 59.1548C268.888 59.1548 268.5 59.542 268.5 60.0181C268.5 60.4878 268.888 60.875 269.364 60.875ZM268.685 69H270.043V62.1064H268.685V69ZM273.959 69.1143C274.867 69.1143 275.623 68.7207 276.035 68.0225H276.143V69H277.457V64.2837C277.457 62.8364 276.479 61.9731 274.747 61.9731C273.179 61.9731 272.062 62.7285 271.922 63.8901H273.242C273.395 63.3887 273.921 63.103 274.683 63.103C275.616 63.103 276.099 63.5283 276.099 64.2837V64.8867L274.226 65.001C272.582 65.1025 271.655 65.8198 271.655 67.0576C271.655 68.3145 272.626 69.1143 273.959 69.1143ZM274.309 68.0161C273.566 68.0161 273.026 67.6416 273.026 67.0005C273.026 66.3721 273.458 66.0356 274.41 65.9722L276.099 65.8579V66.4546C276.099 67.3433 275.337 68.0161 274.309 68.0161ZM279.463 69H280.828V59.4023H279.463V69ZM282.719 64.0361C282.719 65.0581 283.329 65.6421 284.643 65.9468L285.849 66.2324C286.541 66.3975 286.864 66.6768 286.864 67.1084C286.864 67.6733 286.261 68.0669 285.411 68.0669C284.585 68.0669 284.078 67.7305 283.906 67.1909H282.542C282.662 68.3906 283.735 69.1333 285.379 69.1333C287.029 69.1333 288.242 68.2637 288.242 66.9814C288.242 65.9785 287.626 65.4136 286.312 65.1089L285.163 64.8423C284.414 64.6646 284.065 64.3979 284.065 63.9727C284.065 63.4141 284.643 63.0396 285.404 63.0396C286.179 63.0396 286.674 63.376 286.801 63.8901H288.108C287.975 62.6968 286.959 61.9731 285.404 61.9731C283.843 61.9731 282.719 62.8364 282.719 64.0361ZM293.923 60.3672V62.1255H292.825V63.2173H293.923V67.1846C293.923 68.5112 294.526 69.0444 296.043 69.0444C296.31 69.0444 296.563 69.0127 296.786 68.9746V67.8892C296.595 67.9082 296.475 67.9209 296.265 67.9209C295.586 67.9209 295.288 67.5972 295.288 66.8545V63.2173H296.786V62.1255H295.288V60.3672H293.923ZM301.235 69.1333C303.254 69.1333 304.492 67.7812 304.492 65.5532C304.492 63.3252 303.248 61.9731 301.235 61.9731C299.217 61.9731 297.973 63.3315 297.973 65.5532C297.973 67.7812 299.21 69.1333 301.235 69.1333ZM301.235 67.9717C300.048 67.9717 299.382 67.0894 299.382 65.5532C299.382 64.0171 300.048 63.1284 301.235 63.1284C302.416 63.1284 303.089 64.0171 303.089 65.5532C303.089 67.083 302.416 67.9717 301.235 67.9717ZM311.601 69.1143C312.509 69.1143 313.264 68.7207 313.677 68.0225H313.785V69H315.099V64.2837C315.099 62.8364 314.121 61.9731 312.388 61.9731C310.82 61.9731 309.703 62.7285 309.563 63.8901H310.884C311.036 63.3887 311.563 63.103 312.325 63.103C313.258 63.103 313.74 63.5283 313.74 64.2837V64.8867L311.868 65.001C310.224 65.1025 309.297 65.8198 309.297 67.0576C309.297 68.3145 310.268 69.1143 311.601 69.1143ZM311.95 68.0161C311.208 68.0161 310.668 67.6416 310.668 67.0005C310.668 66.3721 311.1 66.0356 312.052 65.9722L313.74 65.8579V66.4546C313.74 67.3433 312.979 68.0161 311.95 68.0161ZM319.567 69.1143C320.52 69.1143 321.326 68.6636 321.738 67.9082H321.846V69H323.154V59.4023H321.789V63.1982H321.688C321.313 62.4429 320.513 61.9858 319.567 61.9858C317.822 61.9858 316.698 63.376 316.698 65.5469C316.698 67.7305 317.809 69.1143 319.567 69.1143ZM319.955 63.1538C321.097 63.1538 321.814 64.0806 321.814 65.5532C321.814 67.0386 321.104 67.9463 319.955 67.9463C318.799 67.9463 318.107 67.0513 318.107 65.5532C318.107 64.0615 318.806 63.1538 319.955 63.1538ZM331.057 62.1064H329.609L327.896 67.6035H327.788L326.067 62.1064H324.607L327.102 69H328.568L331.057 62.1064ZM334.11 69.1143C335.018 69.1143 335.773 68.7207 336.186 68.0225H336.293V69H337.607V64.2837C337.607 62.8364 336.63 61.9731 334.897 61.9731C333.329 61.9731 332.212 62.7285 332.072 63.8901H333.393C333.545 63.3887 334.072 63.103 334.833 63.103C335.767 63.103 336.249 63.5283 336.249 64.2837V64.8867L334.376 65.001C332.732 65.1025 331.806 65.8198 331.806 67.0576C331.806 68.3145 332.777 69.1143 334.11 69.1143ZM334.459 68.0161C333.716 68.0161 333.177 67.6416 333.177 67.0005C333.177 66.3721 333.608 66.0356 334.561 65.9722L336.249 65.8579V66.4546C336.249 67.3433 335.487 68.0161 334.459 68.0161ZM339.55 69H340.915V64.9565C340.915 63.8457 341.556 63.1602 342.565 63.1602C343.574 63.1602 344.057 63.7188 344.057 64.8613V69H345.421V64.5376C345.421 62.8936 344.571 61.9731 343.028 61.9731C341.987 61.9731 341.302 62.4365 340.965 63.1982H340.864V62.1064H339.55V69ZM353.197 64.3218C353.02 62.9824 351.972 61.9731 350.239 61.9731C348.227 61.9731 347.002 63.3379 347.002 65.5278C347.002 67.7622 348.233 69.1333 350.246 69.1333C351.953 69.1333 353.02 68.1748 353.197 66.8164H351.871C351.693 67.5654 351.103 67.9717 350.239 67.9717C349.103 67.9717 348.398 67.0513 348.398 65.5278C348.398 64.0361 349.097 63.1348 350.239 63.1348C351.153 63.1348 351.712 63.6489 351.871 64.3218H353.197ZM359.291 67.1528C359.037 67.7114 358.472 68.0161 357.647 68.0161C356.555 68.0161 355.851 67.229 355.806 65.9785V65.915H360.688V65.4453C360.688 63.2871 359.526 61.9731 357.603 61.9731C355.654 61.9731 354.416 63.376 354.416 65.5659C354.416 67.7686 355.628 69.1333 357.609 69.1333C359.189 69.1333 360.307 68.3716 360.605 67.1528H359.291ZM357.596 63.084C358.605 63.084 359.266 63.814 359.297 64.9312H355.806C355.882 63.8203 356.587 63.084 357.596 63.084ZM366.565 71.501C367.975 71.501 368.628 70.9741 369.219 69.3174L371.796 62.1064H370.349L368.622 67.6289H368.514L366.781 62.1064H365.296L367.797 69.019L367.695 69.3745C367.46 70.1045 367.092 70.3774 366.445 70.3774C366.318 70.3774 366.108 70.3711 366 70.3521V71.4692C366.127 71.4883 366.451 71.501 366.565 71.501ZM375.846 69.1333C377.864 69.1333 379.102 67.7812 379.102 65.5532C379.102 63.3252 377.858 61.9731 375.846 61.9731C373.827 61.9731 372.583 63.3315 372.583 65.5532C372.583 67.7812 373.821 69.1333 375.846 69.1333ZM375.846 67.9717C374.659 67.9717 373.992 67.0894 373.992 65.5532C373.992 64.0171 374.659 63.1284 375.846 63.1284C377.026 63.1284 377.699 64.0171 377.699 65.5532C377.699 67.083 377.026 67.9717 375.846 67.9717ZM386.573 62.1064H385.208V66.1499C385.208 67.2607 384.605 67.9336 383.501 67.9336C382.498 67.9336 382.047 67.3877 382.047 66.2451V62.1064H380.683V66.5815C380.683 68.2002 381.533 69.1333 383.063 69.1333C384.11 69.1333 384.815 68.689 385.151 67.9082H385.259V69H386.573V62.1064ZM388.554 69H389.918V64.8804C389.918 63.9092 390.648 63.2427 391.683 63.2427C391.924 63.2427 392.331 63.2871 392.445 63.3188V62.0366C392.299 62.0049 392.039 61.9858 391.835 61.9858C390.934 61.9858 390.166 62.4746 389.969 63.1538H389.868V62.1064H388.554V69ZM401.217 69V61.0654H404.093V59.8403H396.914V61.0654H399.795V69H401.217ZM408.968 67.1528C408.714 67.7114 408.149 68.0161 407.324 68.0161C406.232 68.0161 405.527 67.229 405.483 65.9785V65.915H410.364V65.4453C410.364 63.2871 409.203 61.9731 407.279 61.9731C405.331 61.9731 404.093 63.376 404.093 65.5659C404.093 67.7686 405.305 69.1333 407.286 69.1333C408.866 69.1333 409.983 68.3716 410.282 67.1528H408.968ZM407.273 63.084C408.282 63.084 408.942 63.814 408.974 64.9312H405.483C405.559 63.8203 406.264 63.084 407.273 63.084ZM413.913 69.1143C414.82 69.1143 415.576 68.7207 415.988 68.0225H416.096V69H417.41V64.2837C417.41 62.8364 416.433 61.9731 414.7 61.9731C413.132 61.9731 412.015 62.7285 411.875 63.8901H413.195C413.348 63.3887 413.875 63.103 414.636 63.103C415.569 63.103 416.052 63.5283 416.052 64.2837V64.8867L414.179 65.001C412.535 65.1025 411.608 65.8198 411.608 67.0576C411.608 68.3145 412.58 69.1143 413.913 69.1143ZM414.262 68.0161C413.519 68.0161 412.979 67.6416 412.979 67.0005C412.979 66.3721 413.411 66.0356 414.363 65.9722L416.052 65.8579V66.4546C416.052 67.3433 415.29 68.0161 414.262 68.0161ZM419.353 69H420.717V64.7661C420.717 63.8647 421.346 63.1602 422.177 63.1602C422.99 63.1602 423.51 63.6489 423.51 64.436V69H424.85V64.6392C424.85 63.8076 425.427 63.1602 426.31 63.1602C427.205 63.1602 427.649 63.6235 427.649 64.5757V69H429.014V64.2456C429.014 62.811 428.201 61.9731 426.805 61.9731C425.846 61.9731 425.053 62.4619 424.704 63.2046H424.596C424.291 62.4619 423.637 61.9731 422.691 61.9731C421.771 61.9731 421.073 62.4302 420.768 63.2046H420.667V62.1064H419.353V69ZM430.772 64.0361C430.772 65.0581 431.381 65.6421 432.695 65.9468L433.901 66.2324C434.593 66.3975 434.917 66.6768 434.917 67.1084C434.917 67.6733 434.314 68.0669 433.463 68.0669C432.638 68.0669 432.13 67.7305 431.959 67.1909H430.594C430.715 68.3906 431.788 69.1333 433.432 69.1333C435.082 69.1333 436.294 68.2637 436.294 66.9814C436.294 65.9785 435.679 65.4136 434.365 65.1089L433.216 64.8423C432.467 64.6646 432.118 64.3979 432.118 63.9727C432.118 63.4141 432.695 63.0396 433.457 63.0396C434.231 63.0396 434.727 63.376 434.854 63.8901H436.161C436.028 62.6968 435.012 61.9731 433.457 61.9731C431.896 61.9731 430.772 62.8364 430.772 64.0361ZM443.404 69.1143C444.312 69.1143 445.067 68.7207 445.479 68.0225H445.587V69H446.901V64.2837C446.901 62.8364 445.924 61.9731 444.191 61.9731C442.623 61.9731 441.506 62.7285 441.366 63.8901H442.687C442.839 63.3887 443.366 63.103 444.127 63.103C445.061 63.103 445.543 63.5283 445.543 64.2837V64.8867L443.67 65.001C442.026 65.1025 441.1 65.8198 441.1 67.0576C441.1 68.3145 442.071 69.1143 443.404 69.1143ZM443.753 68.0161C443.01 68.0161 442.471 67.6416 442.471 67.0005C442.471 66.3721 442.902 66.0356 443.854 65.9722L445.543 65.8579V66.4546C445.543 67.3433 444.781 68.0161 443.753 68.0161ZM452.43 61.9858C451.491 61.9858 450.678 62.4619 450.259 63.249H450.158V62.1064H448.844V71.2979H450.208V67.959H450.316C450.678 68.689 451.459 69.1143 452.443 69.1143C454.188 69.1143 455.299 67.7305 455.299 65.5532C455.299 63.3633 454.188 61.9858 452.43 61.9858ZM452.043 67.9463C450.9 67.9463 450.183 67.0259 450.183 65.5532C450.183 64.0742 450.9 63.1538 452.049 63.1538C453.205 63.1538 453.896 64.0552 453.896 65.5532C453.896 67.0513 453.205 67.9463 452.043 67.9463ZM460.53 61.9858C459.59 61.9858 458.778 62.4619 458.359 63.249H458.257V62.1064H456.943V71.2979H458.308V67.959H458.416C458.778 68.689 459.559 69.1143 460.542 69.1143C462.288 69.1143 463.399 67.7305 463.399 65.5532C463.399 63.3633 462.288 61.9858 460.53 61.9858ZM460.143 67.9463C459 67.9463 458.283 67.0259 458.283 65.5532C458.283 64.0742 459 63.1538 460.149 63.1538C461.304 63.1538 461.996 64.0552 461.996 65.5532C461.996 67.0513 461.304 67.9463 460.143 67.9463ZM469.086 69H470.451V63.2173H471.975V62.1255H470.432V61.4463C470.432 60.748 470.743 60.3989 471.505 60.3989C471.721 60.3989 471.905 60.4116 472.032 60.4307V59.4023C471.797 59.3643 471.53 59.3389 471.219 59.3389C469.785 59.3389 469.086 60.0117 469.086 61.3828V62.1255H467.95V63.2173H469.086V69ZM479.351 62.1064H477.986V66.1499C477.986 67.2607 477.383 67.9336 476.278 67.9336C475.275 67.9336 474.825 67.3877 474.825 66.2451V62.1064H473.46V66.5815C473.46 68.2002 474.311 69.1333 475.84 69.1333C476.888 69.1333 477.592 68.689 477.929 67.9082H478.037V69H479.351V62.1064ZM481.331 69H482.696V64.9565C482.696 63.8457 483.337 63.1602 484.346 63.1602C485.355 63.1602 485.838 63.7188 485.838 64.8613V69H487.203V64.5376C487.203 62.8936 486.352 61.9731 484.81 61.9731C483.769 61.9731 483.083 62.4365 482.747 63.1982H482.645V62.1064H481.331V69ZM494.979 64.3218C494.801 62.9824 493.753 61.9731 492.021 61.9731C490.008 61.9731 488.783 63.3379 488.783 65.5278C488.783 67.7622 490.015 69.1333 492.027 69.1333C493.734 69.1333 494.801 68.1748 494.979 66.8164H493.652C493.474 67.5654 492.884 67.9717 492.021 67.9717C490.884 67.9717 490.18 67.0513 490.18 65.5278C490.18 64.0361 490.878 63.1348 492.021 63.1348C492.935 63.1348 493.493 63.6489 493.652 64.3218H494.979ZM497.124 60.3672V62.1255H496.026V63.2173H497.124V67.1846C497.124 68.5112 497.727 69.0444 499.244 69.0444C499.511 69.0444 499.765 69.0127 499.987 68.9746V67.8892C499.796 67.9082 499.676 67.9209 499.466 67.9209C498.787 67.9209 498.489 67.5972 498.489 66.8545V63.2173H499.987V62.1255H498.489V60.3672H497.124ZM502.297 60.875C502.773 60.875 503.161 60.4878 503.161 60.0181C503.161 59.542 502.773 59.1548 502.297 59.1548C501.821 59.1548 501.434 59.542 501.434 60.0181C501.434 60.4878 501.821 60.875 502.297 60.875ZM501.618 69H502.977V62.1064H501.618V69ZM507.902 69.1333C509.921 69.1333 511.159 67.7812 511.159 65.5532C511.159 63.3252 509.915 61.9731 507.902 61.9731C505.884 61.9731 504.64 63.3315 504.64 65.5532C504.64 67.7812 505.877 69.1333 507.902 69.1333ZM507.902 67.9717C506.715 67.9717 506.049 67.0894 506.049 65.5532C506.049 64.0171 506.715 63.1284 507.902 63.1284C509.083 63.1284 509.756 64.0171 509.756 65.5532C509.756 67.083 509.083 67.9717 507.902 67.9717ZM512.803 69H514.167V64.9565C514.167 63.8457 514.809 63.1602 515.818 63.1602C516.827 63.1602 517.31 63.7188 517.31 64.8613V69H518.674V64.5376C518.674 62.8936 517.824 61.9731 516.281 61.9731C515.24 61.9731 514.555 62.4365 514.218 63.1982H514.117V62.1064H512.803V69ZM522.508 69.1143C523.416 69.1143 524.171 68.7207 524.584 68.0225H524.692V69H526.006V64.2837C526.006 62.8364 525.028 61.9731 523.295 61.9731C521.728 61.9731 520.61 62.7285 520.471 63.8901H521.791C521.943 63.3887 522.47 63.103 523.232 63.103C524.165 63.103 524.647 63.5283 524.647 64.2837V64.8867L522.775 65.001C521.131 65.1025 520.204 65.8198 520.204 67.0576C520.204 68.3145 521.175 69.1143 522.508 69.1143ZM522.857 68.0161C522.115 68.0161 521.575 67.6416 521.575 67.0005C521.575 66.3721 522.007 66.0356 522.959 65.9722L524.647 65.8579V66.4546C524.647 67.3433 523.886 68.0161 522.857 68.0161ZM528.012 69H529.376V59.4023H528.012V69ZM532.131 60.875C532.607 60.875 532.995 60.4878 532.995 60.0181C532.995 59.542 532.607 59.1548 532.131 59.1548C531.655 59.1548 531.268 59.542 531.268 60.0181C531.268 60.4878 531.655 60.875 532.131 60.875ZM531.452 69H532.811V62.1064H531.452V69ZM535.299 60.3672V62.1255H534.201V63.2173H535.299V67.1846C535.299 68.5112 535.902 69.0444 537.419 69.0444C537.686 69.0444 537.939 69.0127 538.162 68.9746V67.8892C537.971 67.9082 537.851 67.9209 537.641 67.9209C536.962 67.9209 536.664 67.5972 536.664 66.8545V63.2173H538.162V62.1255H536.664V60.3672H535.299ZM540.472 60.875C540.948 60.875 541.335 60.4878 541.335 60.0181C541.335 59.542 540.948 59.1548 540.472 59.1548C539.996 59.1548 539.609 59.542 539.609 60.0181C539.609 60.4878 539.996 60.875 540.472 60.875ZM539.793 69H541.151V62.1064H539.793V69ZM547.689 67.1528C547.436 67.7114 546.871 68.0161 546.045 68.0161C544.954 68.0161 544.249 67.229 544.205 65.9785V65.915H549.086V65.4453C549.086 63.2871 547.924 61.9731 546.001 61.9731C544.052 61.9731 542.814 63.376 542.814 65.5659C542.814 67.7686 544.027 69.1333 546.007 69.1333C547.588 69.1333 548.705 68.3716 549.003 67.1528H547.689ZM545.995 63.084C547.004 63.084 547.664 63.814 547.696 64.9312H544.205C544.281 63.8203 544.985 63.084 545.995 63.084ZM550.565 64.0361C550.565 65.0581 551.174 65.6421 552.488 65.9468L553.694 66.2324C554.386 66.3975 554.71 66.6768 554.71 67.1084C554.71 67.6733 554.107 68.0669 553.256 68.0669C552.431 68.0669 551.923 67.7305 551.752 67.1909H550.387C550.508 68.3906 551.581 69.1333 553.225 69.1333C554.875 69.1333 556.087 68.2637 556.087 66.9814C556.087 65.9785 555.472 65.4136 554.158 65.1089L553.009 64.8423C552.26 64.6646 551.911 64.3979 551.911 63.9727C551.911 63.4141 552.488 63.0396 553.25 63.0396C554.024 63.0396 554.52 63.376 554.646 63.8901H555.954C555.821 62.6968 554.805 61.9731 553.25 61.9731C551.688 61.9731 550.565 62.8364 550.565 64.0361Z" fill="var(--vscode-menu-foreground, #CCCCCC)"/>
<path d="M0.5 4C0.5 2.06701 2.067 0.5 4 0.5H109.5V109.5H4C2.06701 109.5 0.5 107.933 0.5 106V4Z" fill="var(--vscode-editorWidget-background, #252526)" stroke="var(--vscode-contrastBorder)"/>
<path d="M43.9333 51.8L58.2 39.4L56.4667 37.5333L43.1333 49L39.4 44.4667L37.5333 46.0667L42.0667 51.6667L43.9333 51.8ZM72.4667 47.5333H52.0667L57.8 42.4667H72.4667V47.5333ZM50.0667 52.4667H72.4667V57.5333H50.0667V52.4667ZM72.4667 62.4667H50.0667V67.5333H72.4667V62.4667Z" fill="var(--vscode-menu-foreground, #CCCCCC)"/>
</a>
<a href="command:fx-extension.openReadMe?%5B%22WalkThrough%22%5D">
<path d="M109.5 126.5H584C585.933 126.5 587.5 128.067 587.5 130V232C587.5 233.933 585.933 235.5 584 235.5H109.5V126.5Z" fill="var(--vscode-notificationCenterHeader-background, #2c2c2d)" stroke="var(--vscode-contrastBorder)"/>
<path d="M0.5 130C0.5 128.067 2.067 126.5 4 126.5H109.5V235.5H4C2.06701 235.5 0.5 233.933 0.5 232V130Z" fill="var(--vscode-editorWidget-background, #252526)" stroke="var(--vscode-contrastBorder)"/>
<path d="M69.2667 171.667L61.8 164.2L60.0667 163.533H45L42.4667 165.933V195.933L45 198.467H67.5333L70.0667 195.933V173.533L69.2667 171.667ZM67.5333 195.933H45V165.933H57.5333V175.933H67.5333V195.933ZM60.0667 173.533V165.933L67.5333 173.533H60.0667Z" fill="var(--vscode-menu-foreground, #CCCCCC)"/>
<path d="M137.261 162.391H138.949L140.788 166H143.126L141.048 162.083C142.183 161.639 142.839 160.545 142.839 159.28C142.839 157.332 141.506 156.136 139.339 156.136H135.196V166H137.261V162.391ZM137.261 157.749H139.052C140.077 157.749 140.72 158.351 140.72 159.308C140.72 160.285 140.111 160.853 139.072 160.853H137.261V157.749ZM151.452 164.298H146.981V161.803H151.199V160.217H146.981V157.838H151.452V156.136H144.917V166H151.452V164.298ZM159.963 166H162.198L158.773 156.136H156.347L152.922 166H154.993L155.752 163.607H159.218L159.963 166ZM157.434 158.139H157.557L158.78 162.062H156.196L157.434 158.139ZM163.88 156.136V166H167.763C170.716 166 172.391 164.195 172.391 161.003C172.391 157.906 170.695 156.136 167.763 156.136H163.88ZM165.944 157.838H167.435C169.226 157.838 170.285 159 170.285 161.037C170.285 163.149 169.26 164.298 167.435 164.298H165.944V157.838ZM184.798 166V156.136H182.371L179.637 162.938H179.514L176.786 156.136H174.353V166H176.267V159.321H176.376L178.892 165.515H180.266L182.774 159.321H182.884V166H184.798ZM193.726 164.298H189.255V161.803H193.473V160.217H189.255V157.838H193.726V156.136H187.19V166H193.726V164.298ZM197.137 166.171C197.875 166.171 198.347 165.679 198.347 165.009C198.347 164.339 197.875 163.854 197.137 163.854C196.405 163.854 195.927 164.339 195.927 165.009C195.927 165.679 196.405 166.171 197.137 166.171ZM200.568 166H202.558V161.461C202.558 160.6 203.111 159.971 203.891 159.971C204.67 159.971 205.135 160.436 205.135 161.242V166H207.049V161.372C207.049 160.559 207.568 159.971 208.375 159.971C209.216 159.971 209.633 160.422 209.633 161.331V166H211.622V160.832C211.622 159.28 210.686 158.31 209.182 158.31C208.129 158.31 207.261 158.863 206.912 159.697H206.789C206.488 158.836 205.764 158.31 204.704 158.31C203.713 158.31 202.927 158.836 202.619 159.697H202.496V158.474H200.568V166ZM216.257 166.116C217.303 166.116 218.157 165.631 218.561 164.817H218.684V166H220.611V155.596H218.622V159.677H218.506C218.116 158.843 217.275 158.351 216.257 158.351C214.363 158.351 213.188 159.834 213.188 162.227C213.188 164.626 214.356 166.116 216.257 166.116ZM216.934 159.964C217.993 159.964 218.643 160.832 218.643 162.24C218.643 163.648 218 164.51 216.934 164.51C215.867 164.51 215.231 163.655 215.231 162.233C215.231 160.818 215.874 159.964 216.934 159.964Z" fill="var(--vscode-inputOption-activeForeground, white)"/>
<path opacity="0.8" d="M135.149 178.84V188H136.571V184.871H138.691C140.487 184.871 141.757 183.639 141.757 181.875C141.757 180.072 140.525 178.84 138.735 178.84H135.149ZM136.571 180.04H138.361C139.611 180.04 140.303 180.688 140.303 181.875C140.303 183.023 139.586 183.677 138.361 183.677H136.571V180.04ZM143.433 188H144.797V183.88C144.797 182.909 145.527 182.243 146.562 182.243C146.803 182.243 147.209 182.287 147.324 182.319V181.037C147.178 181.005 146.917 180.986 146.714 180.986C145.813 180.986 145.045 181.475 144.848 182.154H144.747V181.106H143.433V188ZM151.38 188.133C153.398 188.133 154.636 186.781 154.636 184.553C154.636 182.325 153.392 180.973 151.38 180.973C149.361 180.973 148.117 182.332 148.117 184.553C148.117 186.781 149.355 188.133 151.38 188.133ZM151.38 186.972C150.193 186.972 149.526 186.089 149.526 184.553C149.526 183.017 150.193 182.128 151.38 182.128C152.561 182.128 153.233 183.017 153.233 184.553C153.233 186.083 152.561 186.972 151.38 186.972ZM156.998 179.875C157.467 179.875 157.861 179.488 157.861 179.018C157.861 178.542 157.467 178.155 156.998 178.155C156.521 178.155 156.134 178.542 156.134 179.018C156.134 179.488 156.521 179.875 156.998 179.875ZM157.664 181.106H156.306V188.292C156.306 188.984 156.052 189.263 155.322 189.263C155.303 189.263 155.15 189.263 155.131 189.263V190.355C155.163 190.355 155.385 190.361 155.436 190.361C156.934 190.361 157.664 189.714 157.664 188.298V181.106ZM164.202 186.153C163.948 186.711 163.383 187.016 162.558 187.016C161.466 187.016 160.762 186.229 160.717 184.979V184.915H165.599V184.445C165.599 182.287 164.437 180.973 162.514 180.973C160.565 180.973 159.327 182.376 159.327 184.566C159.327 186.769 160.54 188.133 162.52 188.133C164.101 188.133 165.218 187.372 165.516 186.153H164.202ZM162.507 182.084C163.517 182.084 164.177 182.814 164.208 183.931H160.717C160.793 182.82 161.498 182.084 162.507 182.084ZM173.089 183.322C172.911 181.982 171.864 180.973 170.131 180.973C168.119 180.973 166.894 182.338 166.894 184.528C166.894 186.762 168.125 188.133 170.137 188.133C171.845 188.133 172.911 187.175 173.089 185.816H171.762C171.584 186.565 170.994 186.972 170.131 186.972C168.995 186.972 168.29 186.051 168.29 184.528C168.29 183.036 168.988 182.135 170.131 182.135C171.045 182.135 171.604 182.649 171.762 183.322H173.089ZM175.234 179.367V181.125H174.136V182.217H175.234V186.185C175.234 187.511 175.837 188.044 177.354 188.044C177.621 188.044 177.875 188.013 178.097 187.975V186.889C177.907 186.908 177.786 186.921 177.577 186.921C176.897 186.921 176.599 186.597 176.599 185.854V182.217H178.097V181.125H176.599V179.367H175.234ZM183.677 184.94V183.677H179.513V184.94H183.677ZM185.524 183.036C185.524 184.058 186.133 184.642 187.447 184.947L188.653 185.232C189.345 185.397 189.669 185.677 189.669 186.108C189.669 186.673 189.066 187.067 188.215 187.067C187.39 187.067 186.882 186.73 186.711 186.191H185.346C185.467 187.391 186.54 188.133 188.184 188.133C189.834 188.133 191.046 187.264 191.046 185.981C191.046 184.979 190.431 184.414 189.117 184.109L187.968 183.842C187.219 183.665 186.87 183.398 186.87 182.973C186.87 182.414 187.447 182.04 188.209 182.04C188.983 182.04 189.479 182.376 189.605 182.89H190.913C190.78 181.697 189.764 180.973 188.209 180.973C186.647 180.973 185.524 181.836 185.524 183.036ZM196.277 180.986C195.337 180.986 194.525 181.462 194.106 182.249H194.004V181.106H192.69V190.298H194.055V186.959H194.163C194.525 187.689 195.306 188.114 196.29 188.114C198.035 188.114 199.146 186.73 199.146 184.553C199.146 182.363 198.035 180.986 196.277 180.986ZM195.89 186.946C194.747 186.946 194.03 186.026 194.03 184.553C194.03 183.074 194.747 182.154 195.896 182.154C197.051 182.154 197.743 183.055 197.743 184.553C197.743 186.051 197.051 186.946 195.89 186.946ZM205.322 186.153C205.068 186.711 204.503 187.016 203.678 187.016C202.586 187.016 201.882 186.229 201.837 184.979V184.915H206.719V184.445C206.719 182.287 205.557 180.973 203.634 180.973C201.685 180.973 200.447 182.376 200.447 184.566C200.447 186.769 201.66 188.133 203.64 188.133C205.221 188.133 206.338 187.372 206.636 186.153H205.322ZM203.627 182.084C204.637 182.084 205.297 182.814 205.329 183.931H201.837C201.914 182.82 202.618 182.084 203.627 182.084ZM214.209 183.322C214.031 181.982 212.984 180.973 211.251 180.973C209.239 180.973 208.014 182.338 208.014 184.528C208.014 186.762 209.245 188.133 211.257 188.133C212.965 188.133 214.031 187.175 214.209 185.816H212.882C212.705 186.565 212.114 186.972 211.251 186.972C210.115 186.972 209.41 186.051 209.41 184.528C209.41 183.036 210.108 182.135 211.251 182.135C212.165 182.135 212.724 182.649 212.882 183.322H214.209ZM216.475 179.875C216.951 179.875 217.338 179.488 217.338 179.018C217.338 178.542 216.951 178.155 216.475 178.155C215.999 178.155 215.612 178.542 215.612 179.018C215.612 179.488 215.999 179.875 216.475 179.875ZM215.796 188H217.154V181.106H215.796V188ZM219.649 188H221.014V182.217H222.537V181.125H220.995V180.446C220.995 179.748 221.306 179.399 222.067 179.399C222.283 179.399 222.467 179.412 222.594 179.431V178.402C222.359 178.364 222.093 178.339 221.782 178.339C220.347 178.339 219.649 179.012 219.649 180.383V181.125H218.513V182.217H219.649V188ZM224.791 179.875C225.267 179.875 225.654 179.488 225.654 179.018C225.654 178.542 225.267 178.155 224.791 178.155C224.314 178.155 223.927 178.542 223.927 179.018C223.927 179.488 224.314 179.875 224.791 179.875ZM224.111 188H225.47V181.106H224.111V188ZM233.328 183.322C233.15 181.982 232.103 180.973 230.37 180.973C228.358 180.973 227.133 182.338 227.133 184.528C227.133 186.762 228.364 188.133 230.376 188.133C232.084 188.133 233.15 187.175 233.328 185.816H232.001C231.824 186.565 231.233 186.972 230.37 186.972C229.234 186.972 228.529 186.051 228.529 184.528C228.529 183.036 229.228 182.135 230.37 182.135C231.284 182.135 231.843 182.649 232.001 183.322H233.328ZM240.971 188.114C241.923 188.114 242.729 187.664 243.142 186.908H243.25V188H244.557V178.402H243.192V182.198H243.091C242.716 181.443 241.917 180.986 240.971 180.986C239.225 180.986 238.102 182.376 238.102 184.547C238.102 186.73 239.212 188.114 240.971 188.114ZM241.358 182.154C242.5 182.154 243.218 183.081 243.218 184.553C243.218 186.039 242.507 186.946 241.358 186.946C240.203 186.946 239.511 186.051 239.511 184.553C239.511 183.062 240.209 182.154 241.358 182.154ZM249.527 188.133C251.546 188.133 252.784 186.781 252.784 184.553C252.784 182.325 251.54 180.973 249.527 180.973C247.509 180.973 246.265 182.332 246.265 184.553C246.265 186.781 247.502 188.133 249.527 188.133ZM249.527 186.972C248.34 186.972 247.674 186.089 247.674 184.553C247.674 183.017 248.34 182.128 249.527 182.128C250.708 182.128 251.381 183.017 251.381 184.553C251.381 186.083 250.708 186.972 249.527 186.972ZM260.28 183.322C260.103 181.982 259.055 180.973 257.322 180.973C255.31 180.973 254.085 182.338 254.085 184.528C254.085 186.762 255.316 188.133 257.329 188.133C259.036 188.133 260.103 187.175 260.28 185.816H258.954C258.776 186.565 258.186 186.972 257.322 186.972C256.186 186.972 255.481 186.051 255.481 184.528C255.481 183.036 256.18 182.135 257.322 182.135C258.236 182.135 258.795 182.649 258.954 183.322H260.28ZM267.669 181.106H266.304V185.15C266.304 186.261 265.701 186.934 264.597 186.934C263.594 186.934 263.143 186.388 263.143 185.245V181.106H261.778V185.582C261.778 187.2 262.629 188.133 264.159 188.133C265.206 188.133 265.911 187.689 266.247 186.908H266.355V188H267.669V181.106ZM269.649 188H271.014V183.766C271.014 182.865 271.643 182.16 272.474 182.16C273.287 182.16 273.807 182.649 273.807 183.436V188H275.146V183.639C275.146 182.808 275.724 182.16 276.606 182.16C277.501 182.16 277.946 182.624 277.946 183.576V188H279.311V183.246C279.311 181.811 278.498 180.973 277.102 180.973C276.143 180.973 275.35 181.462 275 182.205H274.893C274.588 181.462 273.934 180.973 272.988 180.973C272.068 180.973 271.37 181.43 271.065 182.205H270.963V181.106H269.649V188ZM285.76 186.153C285.506 186.711 284.941 187.016 284.116 187.016C283.024 187.016 282.319 186.229 282.275 184.979V184.915H287.156V184.445C287.156 182.287 285.995 180.973 284.071 180.973C282.123 180.973 280.885 182.376 280.885 184.566C280.885 186.769 282.097 188.133 284.078 188.133C285.658 188.133 286.775 187.372 287.074 186.153H285.76ZM284.065 182.084C285.074 182.084 285.734 182.814 285.766 183.931H282.275C282.351 182.82 283.056 182.084 284.065 182.084ZM288.794 188H290.159V183.957C290.159 182.846 290.8 182.16 291.809 182.16C292.818 182.16 293.301 182.719 293.301 183.861V188H294.666V183.538C294.666 181.894 293.815 180.973 292.272 180.973C291.231 180.973 290.546 181.437 290.209 182.198H290.108V181.106H288.794V188ZM298.5 188.114C299.407 188.114 300.163 187.721 300.575 187.022H300.683V188H301.997V183.284C301.997 181.836 301.02 180.973 299.287 180.973C297.719 180.973 296.602 181.729 296.462 182.89H297.782C297.935 182.389 298.461 182.103 299.223 182.103C300.156 182.103 300.639 182.528 300.639 183.284V183.887L298.766 184.001C297.122 184.103 296.195 184.82 296.195 186.058C296.195 187.314 297.167 188.114 298.5 188.114ZM298.849 187.016C298.106 187.016 297.566 186.642 297.566 186C297.566 185.372 297.998 185.036 298.95 184.972L300.639 184.858V185.455C300.639 186.343 299.877 187.016 298.849 187.016ZM304.422 179.367V181.125H303.324V182.217H304.422V186.185C304.422 187.511 305.025 188.044 306.542 188.044C306.809 188.044 307.062 188.013 307.285 187.975V186.889C307.094 186.908 306.974 186.921 306.764 186.921C306.085 186.921 305.787 186.597 305.787 185.854V182.217H307.285V181.125H305.787V179.367H304.422ZM309.595 179.875C310.071 179.875 310.458 179.488 310.458 179.018C310.458 178.542 310.071 178.155 309.595 178.155C309.119 178.155 308.732 178.542 308.732 179.018C308.732 179.488 309.119 179.875 309.595 179.875ZM308.916 188H310.274V181.106H308.916V188ZM315.2 188.133C317.219 188.133 318.457 186.781 318.457 184.553C318.457 182.325 317.212 180.973 315.2 180.973C313.182 180.973 311.938 182.332 311.938 184.553C311.938 186.781 313.175 188.133 315.2 188.133ZM315.2 186.972C314.013 186.972 313.347 186.089 313.347 184.553C313.347 183.017 314.013 182.128 315.2 182.128C316.381 182.128 317.054 183.017 317.054 184.553C317.054 186.083 316.381 186.972 315.2 186.972ZM320.101 188H321.465V183.957C321.465 182.846 322.106 182.16 323.116 182.16C324.125 182.16 324.607 182.719 324.607 183.861V188H325.972V183.538C325.972 181.894 325.122 180.973 323.579 180.973C322.538 180.973 321.853 181.437 321.516 182.198H321.415V181.106H320.101V188ZM331.933 179.367V181.125H330.834V182.217H331.933V186.185C331.933 187.511 332.536 188.044 334.053 188.044C334.319 188.044 334.573 188.013 334.795 187.975V186.889C334.605 186.908 334.484 186.921 334.275 186.921C333.596 186.921 333.297 186.597 333.297 185.854V182.217H334.795V181.125H333.297V179.367H331.933ZM339.245 188.133C341.264 188.133 342.501 186.781 342.501 184.553C342.501 182.325 341.257 180.973 339.245 180.973C337.227 180.973 335.982 182.332 335.982 184.553C335.982 186.781 337.22 188.133 339.245 188.133ZM339.245 186.972C338.058 186.972 337.392 186.089 337.392 184.553C337.392 183.017 338.058 182.128 339.245 182.128C340.426 182.128 341.099 183.017 341.099 184.553C341.099 186.083 340.426 186.972 339.245 186.972ZM350.227 188.114C351.179 188.114 351.985 187.664 352.397 186.908H352.505V188H353.813V178.402H352.448V182.198H352.347C351.972 181.443 351.172 180.986 350.227 180.986C348.481 180.986 347.357 182.376 347.357 184.547C347.357 186.73 348.468 188.114 350.227 188.114ZM350.614 182.154C351.756 182.154 352.474 183.081 352.474 184.553C352.474 186.039 351.763 186.946 350.614 186.946C349.458 186.946 348.767 186.051 348.767 184.553C348.767 183.062 349.465 182.154 350.614 182.154ZM356.568 179.875C357.044 179.875 357.431 179.488 357.431 179.018C357.431 178.542 357.044 178.155 356.568 178.155C356.092 178.155 355.705 178.542 355.705 179.018C355.705 179.488 356.092 179.875 356.568 179.875ZM355.889 188H357.247V181.106H355.889V188ZM365.105 181.106H363.658L361.944 186.604H361.836L360.116 181.106H358.656L361.151 188H362.617L365.105 181.106ZM370.755 186.153C370.501 186.711 369.936 187.016 369.111 187.016C368.019 187.016 367.314 186.229 367.27 184.979V184.915H372.151V184.445C372.151 182.287 370.99 180.973 369.066 180.973C367.118 180.973 365.88 182.376 365.88 184.566C365.88 186.769 367.092 188.133 369.073 188.133C370.653 188.133 371.771 187.372 372.069 186.153H370.755ZM369.06 182.084C370.069 182.084 370.729 182.814 370.761 183.931H367.27C367.346 182.82 368.051 182.084 369.06 182.084ZM378.048 179.875C378.524 179.875 378.912 179.488 378.912 179.018C378.912 178.542 378.524 178.155 378.048 178.155C377.572 178.155 377.185 178.542 377.185 179.018C377.185 179.488 377.572 179.875 378.048 179.875ZM377.369 188H378.728V181.106H377.369V188ZM380.733 188H382.098V183.957C382.098 182.846 382.739 182.16 383.749 182.16C384.758 182.16 385.24 182.719 385.24 183.861V188H386.605V183.538C386.605 181.894 385.754 180.973 384.212 180.973C383.171 180.973 382.485 181.437 382.149 182.198H382.047V181.106H380.733V188ZM389.011 179.367V181.125H387.913V182.217H389.011V186.185C389.011 187.511 389.614 188.044 391.131 188.044C391.397 188.044 391.651 188.013 391.874 187.975V186.889C391.683 186.908 391.562 186.921 391.353 186.921C390.674 186.921 390.375 186.597 390.375 185.854V182.217H391.874V181.125H390.375V179.367H389.011ZM396.323 188.133C398.342 188.133 399.58 186.781 399.58 184.553C399.58 182.325 398.335 180.973 396.323 180.973C394.305 180.973 393.061 182.332 393.061 184.553C393.061 186.781 394.298 188.133 396.323 188.133ZM396.323 186.972C395.136 186.972 394.47 186.089 394.47 184.553C394.47 183.017 395.136 182.128 396.323 182.128C397.504 182.128 398.177 183.017 398.177 184.553C398.177 186.083 397.504 186.972 396.323 186.972ZM405.261 179.367V181.125H404.163V182.217H405.261V186.185C405.261 187.511 405.864 188.044 407.381 188.044C407.647 188.044 407.901 188.013 408.124 187.975V186.889C407.933 186.908 407.812 186.921 407.603 186.921C406.924 186.921 406.625 186.597 406.625 185.854V182.217H408.124V181.125H406.625V179.367H405.261ZM409.793 188H411.158V183.963C411.158 182.884 411.78 182.167 412.897 182.167C413.862 182.167 414.376 182.731 414.376 183.868V188H415.741V183.544C415.741 181.913 414.833 180.979 413.36 180.979C412.319 180.979 411.589 181.437 411.253 182.205H411.145V178.402H409.793V188ZM422.196 186.153C421.942 186.711 421.377 187.016 420.552 187.016C419.46 187.016 418.756 186.229 418.711 184.979V184.915H423.593V184.445C423.593 182.287 422.431 180.973 420.508 180.973C418.559 180.973 417.321 182.376 417.321 184.566C417.321 186.769 418.534 188.133 420.514 188.133C422.095 188.133 423.212 187.372 423.51 186.153H422.196ZM420.501 182.084C421.511 182.084 422.171 182.814 422.203 183.931H418.711C418.788 182.82 419.492 182.084 420.501 182.084ZM432.689 188V180.065H435.564V178.84H428.385V180.065H431.267V188H432.689ZM440.439 186.153C440.186 186.711 439.621 187.016 438.795 187.016C437.704 187.016 436.999 186.229 436.955 184.979V184.915H441.836V184.445C441.836 182.287 440.674 180.973 438.751 180.973C436.802 180.973 435.564 182.376 435.564 184.566C435.564 186.769 436.777 188.133 438.757 188.133C440.338 188.133 441.455 187.372 441.753 186.153H440.439ZM438.745 182.084C439.754 182.084 440.414 182.814 440.446 183.931H436.955C437.031 182.82 437.735 182.084 438.745 182.084ZM445.384 188.114C446.292 188.114 447.047 187.721 447.46 187.022H447.568V188H448.882V183.284C448.882 181.836 447.904 180.973 446.171 180.973C444.604 180.973 443.486 181.729 443.347 182.89H444.667C444.819 182.389 445.346 182.103 446.108 182.103C447.041 182.103 447.523 182.528 447.523 183.284V183.887L445.651 184.001C444.007 184.103 443.08 184.82 443.08 186.058C443.08 187.314 444.051 188.114 445.384 188.114ZM445.733 187.016C444.991 187.016 444.451 186.642 444.451 186C444.451 185.372 444.883 185.036 445.835 184.972L447.523 184.858V185.455C447.523 186.343 446.762 187.016 445.733 187.016ZM450.824 188H452.189V183.766C452.189 182.865 452.817 182.16 453.649 182.16C454.461 182.16 454.982 182.649 454.982 183.436V188H456.321V183.639C456.321 182.808 456.899 182.16 457.781 182.16C458.676 182.16 459.121 182.624 459.121 183.576V188H460.485V183.246C460.485 181.811 459.673 180.973 458.276 180.973C457.318 180.973 456.524 181.462 456.175 182.205H456.067C455.763 181.462 455.109 180.973 454.163 180.973C453.243 180.973 452.544 181.43 452.24 182.205H452.138V181.106H450.824V188ZM462.244 183.036C462.244 184.058 462.853 184.642 464.167 184.947L465.373 185.232C466.065 185.397 466.389 185.677 466.389 186.108C466.389 186.673 465.786 187.067 464.935 187.067C464.11 187.067 463.602 186.73 463.431 186.191H462.066C462.187 187.391 463.259 188.133 464.903 188.133C466.554 188.133 467.766 187.264 467.766 185.981C467.766 184.979 467.15 184.414 465.836 184.109L464.688 183.842C463.938 183.665 463.589 183.398 463.589 182.973C463.589 182.414 464.167 182.04 464.929 182.04C465.703 182.04 466.198 182.376 466.325 182.89H467.633C467.5 181.697 466.484 180.973 464.929 180.973C463.367 180.973 462.244 181.836 462.244 183.036ZM474.875 188.114C475.783 188.114 476.539 187.721 476.951 187.022H477.059V188H478.373V183.284C478.373 181.836 477.396 180.973 475.663 180.973C474.095 180.973 472.978 181.729 472.838 182.89H474.158C474.311 182.389 474.837 182.103 475.599 182.103C476.532 182.103 477.015 182.528 477.015 183.284V183.887L475.142 184.001C473.498 184.103 472.571 184.82 472.571 186.058C472.571 187.314 473.542 188.114 474.875 188.114ZM475.225 187.016C474.482 187.016 473.942 186.642 473.942 186C473.942 185.372 474.374 185.036 475.326 184.972L477.015 184.858V185.455C477.015 186.343 476.253 187.016 475.225 187.016ZM483.902 180.986C482.962 180.986 482.15 181.462 481.731 182.249H481.629V181.106H480.315V190.298H481.68V186.959H481.788C482.15 187.689 482.931 188.114 483.915 188.114C485.66 188.114 486.771 186.73 486.771 184.553C486.771 182.363 485.66 180.986 483.902 180.986ZM483.515 186.946C482.372 186.946 481.655 186.026 481.655 184.553C481.655 183.074 482.372 182.154 483.521 182.154C484.676 182.154 485.368 183.055 485.368 184.553C485.368 186.051 484.676 186.946 483.515 186.946ZM492.001 180.986C491.062 180.986 490.25 181.462 489.831 182.249H489.729V181.106H488.415V190.298H489.78V186.959H489.888C490.25 187.689 491.03 188.114 492.014 188.114C493.76 188.114 494.871 186.73 494.871 184.553C494.871 182.363 493.76 180.986 492.001 180.986ZM491.614 186.946C490.472 186.946 489.754 186.026 489.754 184.553C489.754 183.074 490.472 182.154 491.621 182.154C492.776 182.154 493.468 183.055 493.468 184.553C493.468 186.051 492.776 186.946 491.614 186.946ZM137.517 204.114C138.469 204.114 139.275 203.664 139.688 202.908H139.795V204H141.103V194.402H139.738V198.198H139.637C139.262 197.443 138.462 196.986 137.517 196.986C135.771 196.986 134.647 198.376 134.647 200.547C134.647 202.73 135.758 204.114 137.517 204.114ZM137.904 198.154C139.046 198.154 139.764 199.081 139.764 200.553C139.764 202.039 139.053 202.946 137.904 202.946C136.749 202.946 136.057 202.051 136.057 200.553C136.057 199.062 136.755 198.154 137.904 198.154ZM147.686 202.153C147.432 202.711 146.867 203.016 146.042 203.016C144.95 203.016 144.245 202.229 144.201 200.979V200.915H149.082V200.445C149.082 198.287 147.92 196.973 145.997 196.973C144.048 196.973 142.811 198.376 142.811 200.566C142.811 202.769 144.023 204.133 146.003 204.133C147.584 204.133 148.701 203.372 149 202.153H147.686ZM145.991 198.084C147 198.084 147.66 198.814 147.692 199.931H144.201C144.277 198.82 144.981 198.084 145.991 198.084ZM156.42 197.106H154.973L153.259 202.604H153.151L151.431 197.106H149.971L152.465 204H153.932L156.42 197.106ZM162.069 202.153C161.815 202.711 161.25 203.016 160.425 203.016C159.333 203.016 158.629 202.229 158.584 200.979V200.915H163.466V200.445C163.466 198.287 162.304 196.973 160.381 196.973C158.432 196.973 157.194 198.376 157.194 200.566C157.194 202.769 158.407 204.133 160.387 204.133C161.968 204.133 163.085 203.372 163.383 202.153H162.069ZM160.375 198.084C161.384 198.084 162.044 198.814 162.076 199.931H158.584C158.661 198.82 159.365 198.084 160.375 198.084ZM165.167 204H166.532V194.402H165.167V204ZM171.502 204.133C173.521 204.133 174.758 202.781 174.758 200.553C174.758 198.325 173.514 196.973 171.502 196.973C169.483 196.973 168.239 198.332 168.239 200.553C168.239 202.781 169.477 204.133 171.502 204.133ZM171.502 202.972C170.315 202.972 169.648 202.089 169.648 200.553C169.648 199.017 170.315 198.128 171.502 198.128C172.683 198.128 173.355 199.017 173.355 200.553C173.355 202.083 172.683 202.972 171.502 202.972ZM179.989 196.986C179.049 196.986 178.237 197.462 177.818 198.249H177.716V197.106H176.402V206.298H177.767V202.959H177.875C178.237 203.689 179.018 204.114 180.001 204.114C181.747 204.114 182.858 202.73 182.858 200.553C182.858 198.363 181.747 196.986 179.989 196.986ZM179.602 202.946C178.459 202.946 177.742 202.026 177.742 200.553C177.742 199.074 178.459 198.154 179.608 198.154C180.763 198.154 181.455 199.055 181.455 200.553C181.455 202.051 180.763 202.946 179.602 202.946ZM184.502 204H185.867V199.766C185.867 198.865 186.495 198.16 187.327 198.16C188.139 198.16 188.66 198.649 188.66 199.436V204H189.999V199.639C189.999 198.808 190.577 198.16 191.459 198.16C192.354 198.16 192.798 198.624 192.798 199.576V204H194.163V199.246C194.163 197.811 193.351 196.973 191.954 196.973C190.996 196.973 190.202 197.462 189.853 198.205H189.745C189.44 197.462 188.787 196.973 187.841 196.973C186.92 196.973 186.222 197.43 185.917 198.205H185.816V197.106H184.502V204ZM200.612 202.153C200.358 202.711 199.793 203.016 198.968 203.016C197.876 203.016 197.172 202.229 197.127 200.979V200.915H202.009V200.445C202.009 198.287 200.847 196.973 198.924 196.973C196.975 196.973 195.737 198.376 195.737 200.566C195.737 202.769 196.95 204.133 198.93 204.133C200.511 204.133 201.628 203.372 201.926 202.153H200.612ZM198.917 198.084C199.927 198.084 200.587 198.814 200.619 199.931H197.127C197.204 198.82 197.908 198.084 198.917 198.084ZM203.646 204H205.011V199.957C205.011 198.846 205.652 198.16 206.662 198.16C207.671 198.16 208.153 198.719 208.153 199.861V204H209.518V199.538C209.518 197.894 208.667 196.973 207.125 196.973C206.084 196.973 205.398 197.437 205.062 198.198H204.96V197.106H203.646V204ZM211.924 195.367V197.125H210.826V198.217H211.924V202.185C211.924 203.511 212.527 204.044 214.044 204.044C214.311 204.044 214.564 204.013 214.787 203.975V202.889C214.596 202.908 214.476 202.921 214.266 202.921C213.587 202.921 213.289 202.597 213.289 201.854V198.217H214.787V197.125H213.289V195.367H211.924Z" fill="var(--vscode-menu-foreground, #CCCCCC)"/>
</a>
<a href="command:fx-extension.openDocument?%5B%22WalkThrough%22%5D">
<path d="M109.5 252.5H583C584.933 252.5 586.5 254.067 586.5 256V358C586.5 359.933 584.933 361.5 583 361.5H109.5V252.5Z" fill="var(--vscode-notificationCenterHeader-background, #2c2c2d)" stroke="var(--vscode-contrastBorder)"/>
<path d="M135.196 292.136V302H139.079C142.032 302 143.707 300.195 143.707 297.003C143.707 293.906 142.012 292.136 139.079 292.136H135.196ZM137.261 293.838H138.751C140.542 293.838 141.602 295 141.602 297.037C141.602 299.149 140.576 300.298 138.751 300.298H137.261V293.838ZM148.813 302.157C151.131 302.157 152.525 300.694 152.525 298.233C152.525 295.793 151.11 294.31 148.813 294.31C146.517 294.31 145.102 295.8 145.102 298.233C145.102 300.688 146.496 302.157 148.813 302.157ZM148.813 300.585C147.747 300.585 147.146 299.724 147.146 298.233C147.146 296.757 147.754 295.889 148.813 295.889C149.866 295.889 150.481 296.757 150.481 298.233C150.481 299.724 149.873 300.585 148.813 300.585ZM160.824 297.099C160.66 295.417 159.464 294.31 157.468 294.31C155.109 294.31 153.783 295.738 153.783 298.22C153.783 300.729 155.116 302.157 157.468 302.157C159.43 302.157 160.66 301.077 160.824 299.423H158.965C158.814 300.175 158.281 300.578 157.468 300.578C156.401 300.578 155.793 299.737 155.793 298.22C155.793 296.723 156.395 295.896 157.468 295.896C158.315 295.896 158.828 296.374 158.965 297.099H160.824ZM169.205 294.474H167.216V298.821C167.216 299.854 166.683 300.489 165.691 300.489C164.775 300.489 164.304 299.949 164.304 298.883V294.474H162.314V299.375C162.314 301.125 163.326 302.157 164.953 302.157C166.095 302.157 166.799 301.665 167.154 300.79H167.277V302H169.205V294.474ZM171.201 302H173.19V297.461C173.19 296.6 173.744 295.971 174.523 295.971C175.303 295.971 175.768 296.436 175.768 297.242V302H177.682V297.372C177.682 296.559 178.201 295.971 179.008 295.971C179.849 295.971 180.266 296.422 180.266 297.331V302H182.255V296.832C182.255 295.28 181.318 294.31 179.814 294.31C178.762 294.31 177.894 294.863 177.545 295.697H177.422C177.121 294.836 176.396 294.31 175.337 294.31C174.346 294.31 173.56 294.836 173.252 295.697H173.129V294.474H171.201V302ZM189.063 299.874C188.852 300.387 188.312 300.674 187.525 300.674C186.486 300.674 185.83 299.956 185.803 298.808V298.705H190.978V298.11C190.978 295.731 189.665 294.31 187.443 294.31C185.201 294.31 183.82 295.827 183.82 298.274C183.82 300.708 185.174 302.157 187.471 302.157C189.316 302.157 190.622 301.275 190.916 299.874H189.063ZM187.45 295.793C188.38 295.793 188.981 296.436 189.022 297.468H185.81C185.878 296.456 186.527 295.793 187.45 295.793ZM192.611 302H194.601V297.646C194.601 296.627 195.168 295.971 196.091 295.971C197.034 295.971 197.479 296.524 197.479 297.584V302H199.468V297.133C199.468 295.335 198.565 294.31 196.891 294.31C195.776 294.31 195.011 294.836 194.662 295.684H194.539V294.474H192.611V302ZM201.97 292.676V294.542H200.794V296.053H201.97V299.97C201.97 301.433 202.694 302.027 204.526 302.027C204.909 302.027 205.278 301.986 205.524 301.938V300.469C205.333 300.489 205.196 300.503 204.937 300.503C204.26 300.503 203.959 300.188 203.959 299.512V296.053H205.524V294.542H203.959V292.676H201.97ZM209.25 302.116C210.228 302.116 211.048 301.699 211.438 301.002H211.561V302H213.488V296.859C213.488 295.253 212.36 294.31 210.364 294.31C208.471 294.31 207.192 295.178 207.062 296.559H208.895C209.059 296.087 209.537 295.834 210.255 295.834C211.075 295.834 211.526 296.21 211.526 296.859V297.481L209.701 297.591C207.828 297.7 206.782 298.493 206.782 299.854C206.782 301.228 207.801 302.116 209.25 302.116ZM209.906 300.66C209.216 300.66 208.73 300.312 208.73 299.73C208.73 299.177 209.147 298.855 210.002 298.801L211.526 298.698V299.259C211.526 300.052 210.829 300.66 209.906 300.66ZM216.011 292.676V294.542H214.835V296.053H216.011V299.97C216.011 301.433 216.735 302.027 218.567 302.027C218.95 302.027 219.319 301.986 219.565 301.938V300.469C219.374 300.489 219.237 300.503 218.978 300.503C218.301 300.503 218 300.188 218 299.512V296.053H219.565V294.542H218V292.676H216.011ZM222.238 293.318C222.854 293.318 223.359 292.826 223.359 292.211C223.359 291.589 222.854 291.097 222.238 291.097C221.623 291.097 221.11 291.589 221.11 292.211C221.11 292.826 221.623 293.318 222.238 293.318ZM221.24 302H223.229V294.474H221.24V302ZM228.589 302.157C230.906 302.157 232.301 300.694 232.301 298.233C232.301 295.793 230.886 294.31 228.589 294.31C226.292 294.31 224.877 295.8 224.877 298.233C224.877 300.688 226.271 302.157 228.589 302.157ZM228.589 300.585C227.522 300.585 226.921 299.724 226.921 298.233C226.921 296.757 227.529 295.889 228.589 295.889C229.642 295.889 230.257 296.757 230.257 298.233C230.257 299.724 229.648 300.585 228.589 300.585ZM233.928 302H235.917V297.646C235.917 296.627 236.484 295.971 237.407 295.971C238.351 295.971 238.795 296.524 238.795 297.584V302H240.784V297.133C240.784 295.335 239.882 294.31 238.207 294.31C237.093 294.31 236.327 294.836 235.979 295.684H235.855V294.474H233.928V302Z" fill="var(--vscode-inputOption-activeForeground, white)"/>
<path opacity="0.8" d="M138.894 323V315.065H141.77V313.84H134.59V315.065H137.472V323H138.894ZM143.42 323H144.785V318.963C144.785 317.884 145.407 317.167 146.524 317.167C147.489 317.167 148.003 317.731 148.003 318.868V323H149.368V318.544C149.368 316.913 148.46 315.979 146.987 315.979C145.946 315.979 145.216 316.437 144.88 317.205H144.772V313.402H143.42V323ZM155.823 321.153C155.569 321.711 155.004 322.016 154.179 322.016C153.087 322.016 152.383 321.229 152.338 319.979V319.915H157.22V319.445C157.22 317.287 156.058 315.973 154.135 315.973C152.186 315.973 150.948 317.376 150.948 319.566C150.948 321.769 152.161 323.133 154.141 323.133C155.722 323.133 156.839 322.372 157.137 321.153H155.823ZM154.128 317.084C155.138 317.084 155.798 317.814 155.83 318.931H152.338C152.415 317.82 153.119 317.084 154.128 317.084ZM162.253 318.036C162.253 319.058 162.863 319.642 164.177 319.947L165.383 320.232C166.075 320.397 166.398 320.677 166.398 321.108C166.398 321.673 165.795 322.067 164.945 322.067C164.12 322.067 163.612 321.73 163.44 321.191H162.076C162.196 322.391 163.269 323.133 164.913 323.133C166.563 323.133 167.776 322.264 167.776 320.981C167.776 319.979 167.16 319.414 165.846 319.109L164.697 318.842C163.948 318.665 163.599 318.398 163.599 317.973C163.599 317.414 164.177 317.04 164.938 317.04C165.713 317.04 166.208 317.376 166.335 317.89H167.643C167.509 316.697 166.494 315.973 164.938 315.973C163.377 315.973 162.253 316.836 162.253 318.036ZM170.125 314.875C170.601 314.875 170.988 314.488 170.988 314.018C170.988 313.542 170.601 313.155 170.125 313.155C169.648 313.155 169.261 313.542 169.261 314.018C169.261 314.488 169.648 314.875 170.125 314.875ZM169.445 323H170.804V316.106H169.445V323ZM172.81 323H174.174V318.957C174.174 317.846 174.815 317.16 175.825 317.16C176.834 317.16 177.316 317.719 177.316 318.861V323H178.681V318.538C178.681 316.894 177.831 315.973 176.288 315.973C175.247 315.973 174.562 316.437 174.225 317.198H174.124V316.106H172.81V323ZM183.518 325.634C185.473 325.634 186.711 324.638 186.711 323.07V316.106H185.403V317.205H185.295C184.908 316.456 184.077 315.986 183.125 315.986C181.36 315.986 180.255 317.376 180.255 319.464C180.255 321.534 181.347 322.898 183.112 322.898C184.064 322.898 184.826 322.486 185.245 321.737H185.346V323.063C185.346 323.997 184.673 324.555 183.537 324.555C182.617 324.555 182.039 324.225 181.925 323.705H180.528C180.674 324.866 181.792 325.634 183.518 325.634ZM183.499 321.769C182.325 321.769 181.665 320.874 181.665 319.464C181.665 318.055 182.325 317.154 183.499 317.154C184.661 317.154 185.372 318.055 185.372 319.464C185.372 320.874 184.667 321.769 183.499 321.769ZM188.755 323H190.12V313.402H188.755V323ZM196.702 321.153C196.448 321.711 195.883 322.016 195.058 322.016C193.966 322.016 193.262 321.229 193.217 319.979V319.915H198.099V319.445C198.099 317.287 196.937 315.973 195.014 315.973C193.065 315.973 191.827 317.376 191.827 319.566C191.827 321.769 193.04 323.133 195.02 323.133C196.601 323.133 197.718 322.372 198.016 321.153H196.702ZM195.007 317.084C196.017 317.084 196.677 317.814 196.708 318.931H193.217C193.293 317.82 193.998 317.084 195.007 317.084ZM203.132 318.036C203.132 319.058 203.742 319.642 205.056 319.947L206.262 320.232C206.954 320.397 207.277 320.677 207.277 321.108C207.277 321.673 206.674 322.067 205.824 322.067C204.999 322.067 204.491 321.73 204.319 321.191H202.955C203.075 322.391 204.148 323.133 205.792 323.133C207.442 323.133 208.655 322.264 208.655 320.981C208.655 319.979 208.039 319.414 206.725 319.109L205.576 318.842C204.827 318.665 204.478 318.398 204.478 317.973C204.478 317.414 205.056 317.04 205.817 317.04C206.592 317.04 207.087 317.376 207.214 317.89H208.521C208.388 316.697 207.373 315.973 205.817 315.973C204.256 315.973 203.132 316.836 203.132 318.036ZM213.219 323.133C215.237 323.133 216.475 321.781 216.475 319.553C216.475 317.325 215.231 315.973 213.219 315.973C211.2 315.973 209.956 317.332 209.956 319.553C209.956 321.781 211.194 323.133 213.219 323.133ZM213.219 321.972C212.032 321.972 211.365 321.089 211.365 319.553C211.365 318.017 212.032 317.128 213.219 317.128C214.399 317.128 215.072 318.017 215.072 319.553C215.072 321.083 214.399 321.972 213.219 321.972ZM223.946 316.106H222.582V320.15C222.582 321.261 221.979 321.934 220.874 321.934C219.871 321.934 219.42 321.388 219.42 320.245V316.106H218.056V320.582C218.056 322.2 218.906 323.133 220.436 323.133C221.483 323.133 222.188 322.689 222.524 321.908H222.632V323H223.946V316.106ZM225.927 323H227.292V318.88C227.292 317.909 228.021 317.243 229.056 317.243C229.297 317.243 229.704 317.287 229.818 317.319V316.037C229.672 316.005 229.412 315.986 229.208 315.986C228.307 315.986 227.539 316.475 227.342 317.154H227.241V316.106H225.927V323ZM236.807 318.322C236.629 316.982 235.582 315.973 233.849 315.973C231.836 315.973 230.611 317.338 230.611 319.528C230.611 321.762 231.843 323.133 233.855 323.133C235.562 323.133 236.629 322.175 236.807 320.816H235.48C235.302 321.565 234.712 321.972 233.849 321.972C232.712 321.972 232.008 321.051 232.008 319.528C232.008 318.036 232.706 317.135 233.849 317.135C234.763 317.135 235.321 317.649 235.48 318.322H236.807ZM242.9 321.153C242.646 321.711 242.082 322.016 241.256 322.016C240.165 322.016 239.46 321.229 239.416 319.979V319.915H244.297V319.445C244.297 317.287 243.135 315.973 241.212 315.973C239.263 315.973 238.025 317.376 238.025 319.566C238.025 321.769 239.238 323.133 241.218 323.133C242.799 323.133 243.916 322.372 244.214 321.153H242.9ZM241.206 317.084C242.215 317.084 242.875 317.814 242.907 318.931H239.416C239.492 317.82 240.196 317.084 241.206 317.084ZM252.409 323.133C254.428 323.133 255.666 321.781 255.666 319.553C255.666 317.325 254.421 315.973 252.409 315.973C250.391 315.973 249.146 317.332 249.146 319.553C249.146 321.781 250.384 323.133 252.409 323.133ZM252.409 321.972C251.222 321.972 250.556 321.089 250.556 319.553C250.556 318.017 251.222 317.128 252.409 317.128C253.59 317.128 254.263 318.017 254.263 319.553C254.263 321.083 253.59 321.972 252.409 321.972ZM257.798 323H259.163V317.217H260.687V316.125H259.144V315.446C259.144 314.748 259.455 314.399 260.217 314.399C260.433 314.399 260.617 314.412 260.744 314.431V313.402C260.509 313.364 260.242 313.339 259.931 313.339C258.497 313.339 257.798 314.012 257.798 315.383V316.125H256.662V317.217H257.798V323ZM266.272 314.367V316.125H265.174V317.217H266.272V321.185C266.272 322.511 266.875 323.044 268.393 323.044C268.659 323.044 268.913 323.013 269.135 322.975V321.889C268.945 321.908 268.824 321.921 268.615 321.921C267.936 321.921 267.637 321.597 267.637 320.854V317.217H269.135V316.125H267.637V314.367H266.272ZM270.741 323H272.106V318.88C272.106 317.909 272.836 317.243 273.871 317.243C274.112 317.243 274.518 317.287 274.632 317.319V316.037C274.486 316.005 274.226 315.986 274.023 315.986C273.122 315.986 272.354 316.475 272.157 317.154H272.055V316.106H270.741V323ZM281.773 316.106H280.409V320.15C280.409 321.261 279.806 321.934 278.701 321.934C277.698 321.934 277.248 321.388 277.248 320.245V316.106H275.883V320.582C275.883 322.2 276.733 323.133 278.263 323.133C279.311 323.133 280.015 322.689 280.352 321.908H280.459V323H281.773V316.106ZM284.236 314.367V316.125H283.138V317.217H284.236V321.185C284.236 322.511 284.839 323.044 286.356 323.044C286.623 323.044 286.877 323.013 287.099 322.975V321.889C286.909 321.908 286.788 321.921 286.579 321.921C285.899 321.921 285.601 321.597 285.601 320.854V317.217H287.099V316.125H285.601V314.367H284.236ZM288.769 323H290.133V318.963C290.133 317.884 290.755 317.167 291.873 317.167C292.837 317.167 293.352 317.731 293.352 318.868V323H294.716V318.544C294.716 316.913 293.809 315.979 292.336 315.979C291.295 315.979 290.565 316.437 290.229 317.205H290.121V313.402H288.769V323ZM300.683 323H302.048V317.217H303.571V316.125H302.029V315.446C302.029 314.748 302.34 314.399 303.102 314.399C303.317 314.399 303.501 314.412 303.628 314.431V313.402C303.394 313.364 303.127 313.339 302.816 313.339C301.381 313.339 300.683 314.012 300.683 315.383V316.125H299.547V317.217H300.683V323ZM307.773 323.133C309.792 323.133 311.03 321.781 311.03 319.553C311.03 317.325 309.786 315.973 307.773 315.973C305.755 315.973 304.511 317.332 304.511 319.553C304.511 321.781 305.749 323.133 307.773 323.133ZM307.773 321.972C306.586 321.972 305.92 321.089 305.92 319.553C305.92 318.017 306.586 317.128 307.773 317.128C308.954 317.128 309.627 318.017 309.627 319.553C309.627 321.083 308.954 321.972 307.773 321.972ZM312.674 323H314.039V318.88C314.039 317.909 314.769 317.243 315.803 317.243C316.044 317.243 316.451 317.287 316.565 317.319V316.037C316.419 316.005 316.159 315.986 315.956 315.986C315.054 315.986 314.286 316.475 314.089 317.154H313.988V316.106H312.674V323ZM323.344 323.114C324.252 323.114 325.007 322.721 325.42 322.022H325.528V323H326.842V318.284C326.842 316.836 325.864 315.973 324.131 315.973C322.563 315.973 321.446 316.729 321.307 317.89H322.627C322.779 317.389 323.306 317.103 324.068 317.103C325.001 317.103 325.483 317.528 325.483 318.284V318.887L323.611 319.001C321.967 319.103 321.04 319.82 321.04 321.058C321.04 322.314 322.011 323.114 323.344 323.114ZM323.693 322.016C322.951 322.016 322.411 321.642 322.411 321C322.411 320.372 322.843 320.036 323.795 319.972L325.483 319.858V320.455C325.483 321.343 324.722 322.016 323.693 322.016ZM328.848 323H330.212V313.402H328.848V323ZM332.326 323H333.691V313.402H332.326V323ZM343.2 323V315.065H346.075V313.84H338.896V315.065H341.778V323H343.2ZM350.95 321.153C350.696 321.711 350.131 322.016 349.306 322.016C348.214 322.016 347.51 321.229 347.465 319.979V319.915H352.347V319.445C352.347 317.287 351.185 315.973 349.262 315.973C347.313 315.973 346.075 317.376 346.075 319.566C346.075 321.769 347.288 323.133 349.268 323.133C350.849 323.133 351.966 322.372 352.264 321.153H350.95ZM349.255 317.084C350.265 317.084 350.925 317.814 350.957 318.931H347.465C347.542 317.82 348.246 317.084 349.255 317.084ZM355.895 323.114C356.803 323.114 357.558 322.721 357.971 322.022H358.079V323H359.393V318.284C359.393 316.836 358.415 315.973 356.682 315.973C355.114 315.973 353.997 316.729 353.857 317.89H355.178C355.33 317.389 355.857 317.103 356.619 317.103C357.552 317.103 358.034 317.528 358.034 318.284V318.887L356.162 319.001C354.518 319.103 353.591 319.82 353.591 321.058C353.591 322.314 354.562 323.114 355.895 323.114ZM356.244 322.016C355.501 322.016 354.962 321.642 354.962 321C354.962 320.372 355.394 320.036 356.346 319.972L358.034 319.858V320.455C358.034 321.343 357.272 322.016 356.244 322.016ZM361.335 323H362.7V318.766C362.7 317.865 363.328 317.16 364.16 317.16C364.972 317.16 365.493 317.649 365.493 318.436V323H366.832V318.639C366.832 317.808 367.41 317.16 368.292 317.16C369.187 317.16 369.631 317.624 369.631 318.576V323H370.996V318.246C370.996 316.811 370.184 315.973 368.787 315.973C367.829 315.973 367.035 316.462 366.686 317.205H366.578C366.273 316.462 365.62 315.973 364.674 315.973C363.753 315.973 363.055 316.43 362.75 317.205H362.649V316.106H361.335V323ZM372.754 318.036C372.754 319.058 373.364 319.642 374.678 319.947L375.884 320.232C376.576 320.397 376.899 320.677 376.899 321.108C376.899 321.673 376.296 322.067 375.446 322.067C374.621 322.067 374.113 321.73 373.941 321.191H372.577C372.697 322.391 373.77 323.133 375.414 323.133C377.064 323.133 378.277 322.264 378.277 320.981C378.277 319.979 377.661 319.414 376.347 319.109L375.198 318.842C374.449 318.665 374.1 318.398 374.1 317.973C374.1 317.414 374.678 317.04 375.439 317.04C376.214 317.04 376.709 317.376 376.836 317.89H378.144C378.01 316.697 376.995 315.973 375.439 315.973C373.878 315.973 372.754 316.836 372.754 318.036ZM385.386 323.114C386.294 323.114 387.049 322.721 387.462 322.022H387.57V323H388.884V318.284C388.884 316.836 387.906 315.973 386.173 315.973C384.605 315.973 383.488 316.729 383.349 317.89H384.669C384.821 317.389 385.348 317.103 386.11 317.103C387.043 317.103 387.525 317.528 387.525 318.284V318.887L385.653 319.001C384.009 319.103 383.082 319.82 383.082 321.058C383.082 322.314 384.053 323.114 385.386 323.114ZM385.735 322.016C384.993 322.016 384.453 321.642 384.453 321C384.453 320.372 384.885 320.036 385.837 319.972L387.525 319.858V320.455C387.525 321.343 386.764 322.016 385.735 322.016ZM394.413 315.986C393.473 315.986 392.661 316.462 392.242 317.249H392.14V316.106H390.826V325.298H392.191V321.959H392.299C392.661 322.689 393.441 323.114 394.425 323.114C396.171 323.114 397.282 321.73 397.282 319.553C397.282 317.363 396.171 315.986 394.413 315.986ZM394.025 321.946C392.883 321.946 392.166 321.026 392.166 319.553C392.166 318.074 392.883 317.154 394.032 317.154C395.187 317.154 395.879 318.055 395.879 319.553C395.879 321.051 395.187 321.946 394.025 321.946ZM402.512 315.986C401.573 315.986 400.76 316.462 400.341 317.249H400.24V316.106H398.926V325.298H400.291V321.959H400.398C400.76 322.689 401.541 323.114 402.525 323.114C404.271 323.114 405.381 321.73 405.381 319.553C405.381 317.363 404.271 315.986 402.512 315.986ZM402.125 321.946C400.982 321.946 400.265 321.026 400.265 319.553C400.265 318.074 400.982 317.154 402.131 317.154C403.287 317.154 403.979 318.055 403.979 319.553C403.979 321.051 403.287 321.946 402.125 321.946ZM413.106 323.114C414.059 323.114 414.865 322.664 415.277 321.908H415.385V323H416.693V313.402H415.328V317.198H415.227C414.852 316.443 414.052 315.986 413.106 315.986C411.361 315.986 410.237 317.376 410.237 319.547C410.237 321.73 411.348 323.114 413.106 323.114ZM413.494 317.154C414.636 317.154 415.354 318.081 415.354 319.553C415.354 321.039 414.643 321.946 413.494 321.946C412.338 321.946 411.646 321.051 411.646 319.553C411.646 318.062 412.345 317.154 413.494 317.154ZM423.275 321.153C423.021 321.711 422.457 322.016 421.631 322.016C420.54 322.016 419.835 321.229 419.791 319.979V319.915H424.672V319.445C424.672 317.287 423.51 315.973 421.587 315.973C419.638 315.973 418.4 317.376 418.4 319.566C418.4 321.769 419.613 323.133 421.593 323.133C423.174 323.133 424.291 322.372 424.589 321.153H423.275ZM421.581 317.084C422.59 317.084 423.25 317.814 423.282 318.931H419.791C419.867 317.82 420.571 317.084 421.581 317.084ZM432.01 316.106H430.562L428.849 321.604H428.741L427.021 316.106H425.561L428.055 323H429.521L432.01 316.106ZM437.659 321.153C437.405 321.711 436.84 322.016 436.015 322.016C434.923 322.016 434.219 321.229 434.174 319.979V319.915H439.056V319.445C439.056 317.287 437.894 315.973 435.971 315.973C434.022 315.973 432.784 317.376 432.784 319.566C432.784 321.769 433.997 323.133 435.977 323.133C437.558 323.133 438.675 322.372 438.973 321.153H437.659ZM435.964 317.084C436.974 317.084 437.634 317.814 437.666 318.931H434.174C434.25 317.82 434.955 317.084 435.964 317.084ZM440.757 323H442.122V313.402H440.757V323ZM447.092 323.133C449.11 323.133 450.348 321.781 450.348 319.553C450.348 317.325 449.104 315.973 447.092 315.973C445.073 315.973 443.829 317.332 443.829 319.553C443.829 321.781 445.067 323.133 447.092 323.133ZM447.092 321.972C445.905 321.972 445.238 321.089 445.238 319.553C445.238 318.017 445.905 317.128 447.092 317.128C448.272 317.128 448.945 318.017 448.945 319.553C448.945 321.083 448.272 321.972 447.092 321.972ZM455.579 315.986C454.639 315.986 453.827 316.462 453.408 317.249H453.306V316.106H451.992V325.298H453.357V321.959H453.465C453.827 322.689 454.607 323.114 455.591 323.114C457.337 323.114 458.448 321.73 458.448 319.553C458.448 317.363 457.337 315.986 455.579 315.986ZM455.191 321.946C454.049 321.946 453.332 321.026 453.332 319.553C453.332 318.074 454.049 317.154 455.198 317.154C456.353 317.154 457.045 318.055 457.045 319.553C457.045 321.051 456.353 321.946 455.191 321.946ZM460.092 323H461.457V318.766C461.457 317.865 462.085 317.16 462.917 317.16C463.729 317.16 464.25 317.649 464.25 318.436V323H465.589V318.639C465.589 317.808 466.167 317.16 467.049 317.16C467.944 317.16 468.388 317.624 468.388 318.576V323H469.753V318.246C469.753 316.811 468.94 315.973 467.544 315.973C466.585 315.973 465.792 316.462 465.443 317.205H465.335C465.03 316.462 464.376 315.973 463.431 315.973C462.51 315.973 461.812 316.43 461.507 317.205H461.406V316.106H460.092V323ZM476.202 321.153C475.948 321.711 475.383 322.016 474.558 322.016C473.466 322.016 472.762 321.229 472.717 319.979V319.915H477.599V319.445C477.599 317.287 476.437 315.973 474.514 315.973C472.565 315.973 471.327 317.376 471.327 319.566C471.327 321.769 472.54 323.133 474.52 323.133C476.101 323.133 477.218 322.372 477.516 321.153H476.202ZM474.507 317.084C475.517 317.084 476.177 317.814 476.208 318.931H472.717C472.793 317.82 473.498 317.084 474.507 317.084ZM479.236 323H480.601V318.957C480.601 317.846 481.242 317.16 482.251 317.16C483.261 317.16 483.743 317.719 483.743 318.861V323H485.108V318.538C485.108 316.894 484.257 315.973 482.715 315.973C481.674 315.973 480.988 316.437 480.652 317.198H480.55V316.106H479.236V323ZM487.514 314.367V316.125H486.416V317.217H487.514V321.185C487.514 322.511 488.117 323.044 489.634 323.044C489.9 323.044 490.154 323.013 490.376 322.975V321.889C490.186 321.908 490.065 321.921 489.856 321.921C489.177 321.921 488.878 321.597 488.878 320.854V317.217H490.376V316.125H488.878V314.367H487.514ZM495.378 318.036C495.378 319.058 495.988 319.642 497.302 319.947L498.508 320.232C499.2 320.397 499.523 320.677 499.523 321.108C499.523 321.673 498.92 322.067 498.07 322.067C497.245 322.067 496.737 321.73 496.565 321.191H495.201C495.321 322.391 496.394 323.133 498.038 323.133C499.688 323.133 500.901 322.264 500.901 320.981C500.901 319.979 500.285 319.414 498.971 319.109L497.822 318.842C497.073 318.665 496.724 318.398 496.724 317.973C496.724 317.414 497.302 317.04 498.063 317.04C498.838 317.04 499.333 317.376 499.46 317.89H500.768C500.634 316.697 499.619 315.973 498.063 315.973C496.502 315.973 495.378 316.836 495.378 318.036ZM508.397 318.322C508.22 316.982 507.172 315.973 505.439 315.973C503.427 315.973 502.202 317.338 502.202 319.528C502.202 321.762 503.434 323.133 505.446 323.133C507.153 323.133 508.22 322.175 508.397 320.816H507.071C506.893 321.565 506.303 321.972 505.439 321.972C504.303 321.972 503.599 321.051 503.599 319.528C503.599 318.036 504.297 317.135 505.439 317.135C506.354 317.135 506.912 317.649 507.071 318.322H508.397ZM514.491 321.153C514.237 321.711 513.672 322.016 512.847 322.016C511.755 322.016 511.051 321.229 511.006 319.979V319.915H515.888V319.445C515.888 317.287 514.726 315.973 512.803 315.973C510.854 315.973 509.616 317.376 509.616 319.566C509.616 321.769 510.829 323.133 512.809 323.133C514.39 323.133 515.507 322.372 515.805 321.153H514.491ZM512.796 317.084C513.806 317.084 514.466 317.814 514.498 318.931H511.006C511.083 317.82 511.787 317.084 512.796 317.084ZM517.525 323H518.89V318.957C518.89 317.846 519.531 317.16 520.541 317.16C521.55 317.16 522.032 317.719 522.032 318.861V323H523.397V318.538C523.397 316.894 522.546 315.973 521.004 315.973C519.963 315.973 519.277 316.437 518.941 317.198H518.839V316.106H517.525V323ZM527.231 323.114C528.139 323.114 528.894 322.721 529.307 322.022H529.415V323H530.729V318.284C530.729 316.836 529.751 315.973 528.018 315.973C526.45 315.973 525.333 316.729 525.193 317.89H526.514C526.666 317.389 527.193 317.103 527.955 317.103C528.888 317.103 529.37 317.528 529.37 318.284V318.887L527.498 319.001C525.854 319.103 524.927 319.82 524.927 321.058C524.927 322.314 525.898 323.114 527.231 323.114ZM527.58 322.016C526.837 322.016 526.298 321.642 526.298 321C526.298 320.372 526.729 320.036 527.682 319.972L529.37 319.858V320.455C529.37 321.343 528.608 322.016 527.58 322.016ZM532.671 323H534.036V318.88C534.036 317.909 534.766 317.243 535.8 317.243C536.042 317.243 536.448 317.287 536.562 317.319V316.037C536.416 316.005 536.156 315.986 535.953 315.986C535.051 315.986 534.283 316.475 534.086 317.154H533.985V316.106H532.671V323ZM538.581 314.875C539.057 314.875 539.444 314.488 539.444 314.018C539.444 313.542 539.057 313.155 538.581 313.155C538.104 313.155 537.717 313.542 537.717 314.018C537.717 314.488 538.104 314.875 538.581 314.875ZM537.901 323H539.26V316.106H537.901V323ZM544.186 323.133C546.204 323.133 547.442 321.781 547.442 319.553C547.442 317.325 546.198 315.973 544.186 315.973C542.167 315.973 540.923 317.332 540.923 319.553C540.923 321.781 542.161 323.133 544.186 323.133ZM544.186 321.972C542.999 321.972 542.332 321.089 542.332 319.553C542.332 318.017 542.999 317.128 544.186 317.128C545.366 317.128 546.039 318.017 546.039 319.553C546.039 321.083 545.366 321.972 544.186 321.972ZM548.927 318.036C548.927 319.058 549.537 319.642 550.851 319.947L552.057 320.232C552.749 320.397 553.072 320.677 553.072 321.108C553.072 321.673 552.469 322.067 551.619 322.067C550.793 322.067 550.286 321.73 550.114 321.191H548.75C548.87 322.391 549.943 323.133 551.587 323.133C553.237 323.133 554.45 322.264 554.45 320.981C554.45 319.979 553.834 319.414 552.52 319.109L551.371 318.842C550.622 318.665 550.273 318.398 550.273 317.973C550.273 317.414 550.851 317.04 551.612 317.04C552.387 317.04 552.882 317.376 553.009 317.89H554.316C554.183 316.697 553.167 315.973 551.612 315.973C550.051 315.973 548.927 316.836 548.927 318.036Z" fill="var(--vscode-menu-foreground, #CCCCCC)"/>
<path d="M0.5 256C0.5 254.067 2.067 252.5 4 252.5H109.5V361.5H4C2.06701 361.5 0.5 359.933 0.5 358V256Z" fill="var(--vscode-editorWidget-background, #252526)" stroke="var(--vscode-contrastBorder)"/>
<path d="M71.2667 291.933H57.5333L56.6 292.333L55 293.933L53.4 292.333L52.4667 291.933H38.7333L37.5333 293.267V318.2L38.7333 319.533H51.9333L54.0667 321.667H55.9333L58.0667 319.533H71.2667L72.4667 318.2V293.267L71.2667 291.933ZM53.8 317.8L53.2667 317.4L52.4667 317H40.0667V294.467H51.9333L53.8 296.333V317.8ZM70.0667 317H57.5333L56.6 317.4L56.3333 317.667V296.2L58.0667 294.467H70.0667V317ZM50.0667 299.533H42.4667V301.933H50.0667V299.533ZM50.0667 309.533H42.4667V311.933H50.0667V309.533ZM42.4667 304.467H50.0667V307H42.4667V304.467ZM67.5333 299.533H60.0667V301.933H67.5333V299.533ZM60.0667 304.467H67.5333V307H60.0667V304.467ZM60.0667 309.533H67.5333V311.933H60.0667V309.533Z" fill="var(--vscode-menu-foreground, #CCCCCC)"/>
</a>
</svg>
