<svg width="412" height="362" viewBox="0 0 412 362" fill="none" xmlns="http://www.w3.org/2000/svg">
<a href="command:fx-extension.selectTutorials?%5B%22WalkThrough%22%5D">
<path d="M110 0H408C410.209 0 412 1.79086 412 4V106C412 108.209 410.209 110 408 110H110V0Z" fill="var(--vscode-welcomePage-tileHoverBackground, #2c2c2d)"/>
<path d="M139.653 40V31.8379H142.613V30.1357H134.629V31.8379H137.589V40H139.653ZM150.338 32.4736H148.349V36.8213C148.349 37.8535 147.815 38.4893 146.824 38.4893C145.908 38.4893 145.437 37.9492 145.437 36.8828V32.4736H143.447V37.375C143.447 39.125 144.459 40.1572 146.086 40.1572C147.228 40.1572 147.932 39.665 148.287 38.79H148.41V40H150.338V32.4736ZM152.901 30.6758V32.542H151.726V34.0527H152.901V37.9697C152.901 39.4326 153.626 40.0273 155.458 40.0273C155.841 40.0273 156.21 39.9863 156.456 39.9385V38.4688C156.265 38.4893 156.128 38.5029 155.868 38.5029C155.191 38.5029 154.891 38.1885 154.891 37.5117V34.0527H156.456V32.542H154.891V30.6758H152.901ZM161.405 40.1572C163.723 40.1572 165.117 38.6943 165.117 36.2334C165.117 33.793 163.702 32.3096 161.405 32.3096C159.108 32.3096 157.693 33.7998 157.693 36.2334C157.693 38.6875 159.088 40.1572 161.405 40.1572ZM161.405 38.585C160.339 38.585 159.737 37.7236 159.737 36.2334C159.737 34.7568 160.346 33.8887 161.405 33.8887C162.458 33.8887 163.073 34.7568 163.073 36.2334C163.073 37.7236 162.465 38.585 161.405 38.585ZM166.744 40H168.733V35.7891C168.733 34.7295 169.479 34.0801 170.565 34.0801C170.887 34.0801 171.352 34.1348 171.509 34.1895V32.4395C171.338 32.3848 171.003 32.3506 170.729 32.3506C169.772 32.3506 168.993 32.918 168.795 33.6699H168.672V32.4736H166.744V40ZM173.854 31.3184C174.469 31.3184 174.975 30.8262 174.975 30.2109C174.975 29.5889 174.469 29.0967 173.854 29.0967C173.238 29.0967 172.726 29.5889 172.726 30.2109C172.726 30.8262 173.238 31.3184 173.854 31.3184ZM172.855 40H174.845V32.4736H172.855V40ZM178.926 40.1162C179.903 40.1162 180.724 39.6992 181.113 39.002H181.236V40H183.164V34.8594C183.164 33.2529 182.036 32.3096 180.04 32.3096C178.146 32.3096 176.868 33.1777 176.738 34.5586H178.57C178.734 34.0869 179.213 33.834 179.931 33.834C180.751 33.834 181.202 34.21 181.202 34.8594V35.4814L179.377 35.5908C177.504 35.7002 176.458 36.4932 176.458 37.8535C176.458 39.2275 177.477 40.1162 178.926 40.1162ZM179.582 38.6602C178.892 38.6602 178.406 38.3115 178.406 37.7305C178.406 37.1768 178.823 36.8555 179.678 36.8008L181.202 36.6982V37.2588C181.202 38.0518 180.505 38.6602 179.582 38.6602ZM185.188 40H187.177V29.5957H185.188V40ZM189.077 34.668C189.077 35.8232 189.788 36.5137 191.251 36.835L192.618 37.1426C193.281 37.293 193.568 37.5254 193.568 37.9082C193.568 38.4072 193.035 38.749 192.263 38.749C191.47 38.749 190.984 38.4414 190.834 37.9219H188.893C189.029 39.3438 190.232 40.1572 192.222 40.1572C194.197 40.1572 195.544 39.1865 195.544 37.6963C195.544 36.5752 194.888 35.96 193.425 35.6387L192.01 35.3311C191.312 35.1738 190.991 34.9346 190.991 34.5518C190.991 34.0596 191.518 33.7246 192.229 33.7246C192.967 33.7246 193.425 34.0322 193.527 34.5312H195.366C195.257 33.1094 194.129 32.3096 192.215 32.3096C190.335 32.3096 189.077 33.2598 189.077 34.668Z" fill="var(--vscode-badge-foreground, white)"/>
<path opacity="0.8" d="M134.717 59.5562C134.819 61.1812 136.184 62.2222 138.215 62.2222C140.386 62.2222 141.744 61.1304 141.744 59.3975C141.744 58.0264 140.97 57.271 139.091 56.8203L138.082 56.5728C136.888 56.2808 136.406 55.8999 136.406 55.2334C136.406 54.3765 137.155 53.8242 138.278 53.8242C139.345 53.8242 140.081 54.3574 140.214 55.2271H141.598C141.516 53.6973 140.157 52.6182 138.297 52.6182C136.298 52.6182 134.965 53.6973 134.965 55.3096C134.965 56.6426 135.72 57.4297 137.377 57.8296L138.558 58.1152C139.77 58.4072 140.303 58.8516 140.303 59.5688C140.303 60.4067 139.465 61.0098 138.323 61.0098C137.098 61.0098 136.247 60.4448 136.126 59.5562H134.717ZM149.311 57.3218C149.133 55.9824 148.085 54.9731 146.353 54.9731C144.34 54.9731 143.115 56.3379 143.115 58.5278C143.115 60.7622 144.347 62.1333 146.359 62.1333C148.066 62.1333 149.133 61.1748 149.311 59.8164H147.984C147.806 60.5654 147.216 60.9717 146.353 60.9717C145.216 60.9717 144.512 60.0513 144.512 58.5278C144.512 57.0361 145.21 56.1348 146.353 56.1348C147.267 56.1348 147.825 56.6489 147.984 57.3218H149.311ZM155.404 60.1528C155.15 60.7114 154.585 61.0161 153.76 61.0161C152.668 61.0161 151.964 60.229 151.919 58.9785V58.915H156.801V58.4453C156.801 56.2871 155.639 54.9731 153.716 54.9731C151.767 54.9731 150.529 56.376 150.529 58.5659C150.529 60.7686 151.742 62.1333 153.722 62.1333C155.303 62.1333 156.42 61.3716 156.718 60.1528H155.404ZM153.709 56.084C154.719 56.084 155.379 56.814 155.411 57.9312H151.919C151.996 56.8203 152.7 56.084 153.709 56.084ZM158.438 62H159.803V57.9565C159.803 56.8457 160.444 56.1602 161.454 56.1602C162.463 56.1602 162.945 56.7188 162.945 57.8613V62H164.31V57.5376C164.31 55.8936 163.459 54.9731 161.917 54.9731C160.876 54.9731 160.19 55.4365 159.854 56.1982H159.752V55.1064H158.438V62ZM168.144 62.1143C169.052 62.1143 169.807 61.7207 170.22 61.0225H170.328V62H171.642V57.2837C171.642 55.8364 170.664 54.9731 168.931 54.9731C167.363 54.9731 166.246 55.7285 166.106 56.8901H167.427C167.579 56.3887 168.106 56.103 168.868 56.103C169.801 56.103 170.283 56.5283 170.283 57.2837V57.8867L168.411 58.001C166.767 58.1025 165.84 58.8198 165.84 60.0576C165.84 61.3145 166.811 62.1143 168.144 62.1143ZM168.493 61.0161C167.75 61.0161 167.211 60.6416 167.211 60.0005C167.211 59.3721 167.643 59.0356 168.595 58.9722L170.283 58.8579V59.4546C170.283 60.3433 169.521 61.0161 168.493 61.0161ZM173.584 62H174.949V57.8804C174.949 56.9092 175.679 56.2427 176.713 56.2427C176.955 56.2427 177.361 56.2871 177.475 56.3188V55.0366C177.329 55.0049 177.069 54.9858 176.866 54.9858C175.964 54.9858 175.196 55.4746 175 56.1538H174.898V55.1064H173.584V62ZM179.494 53.875C179.97 53.875 180.357 53.4878 180.357 53.0181C180.357 52.542 179.97 52.1548 179.494 52.1548C179.018 52.1548 178.63 52.542 178.63 53.0181C178.63 53.4878 179.018 53.875 179.494 53.875ZM178.814 62H180.173V55.1064H178.814V62ZM185.099 62.1333C187.117 62.1333 188.355 60.7812 188.355 58.5532C188.355 56.3252 187.111 54.9731 185.099 54.9731C183.08 54.9731 181.836 56.3315 181.836 58.5532C181.836 60.7812 183.074 62.1333 185.099 62.1333ZM185.099 60.9717C183.912 60.9717 183.245 60.0894 183.245 58.5532C183.245 57.0171 183.912 56.1284 185.099 56.1284C186.279 56.1284 186.952 57.0171 186.952 58.5532C186.952 60.083 186.279 60.9717 185.099 60.9717ZM194.188 58.9404V57.6772H190.024V58.9404H194.188ZM199.857 62.1143C201.603 62.1143 202.713 60.7241 202.713 58.5532C202.713 56.3633 201.609 54.9858 199.857 54.9858C198.911 54.9858 198.099 55.4492 197.73 56.1982H197.623V52.4023H196.258V62H197.572V60.9082H197.673C198.086 61.6699 198.892 62.1143 199.857 62.1143ZM199.463 56.1538C200.619 56.1538 201.311 57.0615 201.311 58.5532C201.311 60.0449 200.619 60.9463 199.463 60.9463C198.314 60.9463 197.604 60.0322 197.597 58.5532C197.604 57.0742 198.321 56.1538 199.463 56.1538ZM206.268 62.1143C207.176 62.1143 207.931 61.7207 208.344 61.0225H208.452V62H209.766V57.2837C209.766 55.8364 208.788 54.9731 207.055 54.9731C205.487 54.9731 204.37 55.7285 204.23 56.8901H205.551C205.703 56.3887 206.23 56.103 206.992 56.103C207.925 56.103 208.407 56.5283 208.407 57.2837V57.8867L206.535 58.001C204.891 58.1025 203.964 58.8198 203.964 60.0576C203.964 61.3145 204.935 62.1143 206.268 62.1143ZM206.617 61.0161C205.875 61.0161 205.335 60.6416 205.335 60.0005C205.335 59.3721 205.767 59.0356 206.719 58.9722L208.407 58.8579V59.4546C208.407 60.3433 207.646 61.0161 206.617 61.0161ZM211.549 57.0361C211.549 58.0581 212.159 58.6421 213.473 58.9468L214.679 59.2324C215.371 59.3975 215.694 59.6768 215.694 60.1084C215.694 60.6733 215.091 61.0669 214.241 61.0669C213.416 61.0669 212.908 60.7305 212.736 60.1909H211.372C211.492 61.3906 212.565 62.1333 214.209 62.1333C215.859 62.1333 217.072 61.2637 217.072 59.9814C217.072 58.9785 216.456 58.4136 215.142 58.1089L213.993 57.8423C213.244 57.6646 212.895 57.3979 212.895 56.9727C212.895 56.4141 213.473 56.0396 214.234 56.0396C215.009 56.0396 215.504 56.376 215.631 56.8901H216.938C216.805 55.6968 215.79 54.9731 214.234 54.9731C212.673 54.9731 211.549 55.8364 211.549 57.0361ZM223.248 60.1528C222.994 60.7114 222.429 61.0161 221.604 61.0161C220.512 61.0161 219.808 60.229 219.763 58.9785V58.915H224.645V58.4453C224.645 56.2871 223.483 54.9731 221.56 54.9731C219.611 54.9731 218.373 56.376 218.373 58.5659C218.373 60.7686 219.585 62.1333 221.566 62.1333C223.146 62.1333 224.264 61.3716 224.562 60.1528H223.248ZM221.553 56.084C222.562 56.084 223.223 56.814 223.254 57.9312H219.763C219.839 56.8203 220.544 56.084 221.553 56.084ZM228.809 62.1143C229.761 62.1143 230.567 61.6636 230.979 60.9082H231.087V62H232.395V52.4023H231.03V56.1982H230.929C230.554 55.4429 229.754 54.9858 228.809 54.9858C227.063 54.9858 225.939 56.376 225.939 58.5469C225.939 60.7305 227.05 62.1143 228.809 62.1143ZM229.196 56.1538C230.338 56.1538 231.056 57.0806 231.056 58.5532C231.056 60.0386 230.345 60.9463 229.196 60.9463C228.041 60.9463 227.349 60.0513 227.349 58.5532C227.349 57.0615 228.047 56.1538 229.196 56.1538ZM238.482 53.3672V55.1255H237.384V56.2173H238.482V60.1846C238.482 61.5112 239.085 62.0444 240.603 62.0444C240.869 62.0444 241.123 62.0127 241.345 61.9746V60.8892C241.155 60.9082 241.034 60.9209 240.825 60.9209C240.146 60.9209 239.847 60.5972 239.847 59.8545V56.2173H241.345V55.1255H239.847V53.3672H238.482ZM248.778 55.1064H247.414V59.1499C247.414 60.2607 246.811 60.9336 245.706 60.9336C244.703 60.9336 244.252 60.3877 244.252 59.2451V55.1064H242.888V59.5815C242.888 61.2002 243.738 62.1333 245.268 62.1333C246.315 62.1333 247.02 61.689 247.356 60.9082H247.464V62H248.778V55.1064ZM251.241 53.3672V55.1255H250.143V56.2173H251.241V60.1846C251.241 61.5112 251.844 62.0444 253.361 62.0444C253.628 62.0444 253.882 62.0127 254.104 61.9746V60.8892C253.914 60.9082 253.793 60.9209 253.583 60.9209C252.904 60.9209 252.606 60.5972 252.606 59.8545V56.2173H254.104V55.1255H252.606V53.3672H251.241ZM258.554 62.1333C260.572 62.1333 261.81 60.7812 261.81 58.5532C261.81 56.3252 260.566 54.9731 258.554 54.9731C256.535 54.9731 255.291 56.3315 255.291 58.5532C255.291 60.7812 256.529 62.1333 258.554 62.1333ZM258.554 60.9717C257.367 60.9717 256.7 60.0894 256.7 58.5532C256.7 57.0171 257.367 56.1284 258.554 56.1284C259.734 56.1284 260.407 57.0171 260.407 58.5532C260.407 60.083 259.734 60.9717 258.554 60.9717ZM263.454 62H264.819V57.8804C264.819 56.9092 265.549 56.2427 266.583 56.2427C266.825 56.2427 267.231 56.2871 267.345 56.3188V55.0366C267.199 55.0049 266.939 54.9858 266.736 54.9858C265.834 54.9858 265.066 55.4746 264.87 56.1538H264.768V55.1064H263.454V62ZM269.364 53.875C269.84 53.875 270.227 53.4878 270.227 53.0181C270.227 52.542 269.84 52.1548 269.364 52.1548C268.888 52.1548 268.5 52.542 268.5 53.0181C268.5 53.4878 268.888 53.875 269.364 53.875ZM268.685 62H270.043V55.1064H268.685V62ZM273.959 62.1143C274.867 62.1143 275.623 61.7207 276.035 61.0225H276.143V62H277.457V57.2837C277.457 55.8364 276.479 54.9731 274.747 54.9731C273.179 54.9731 272.062 55.7285 271.922 56.8901H273.242C273.395 56.3887 273.921 56.103 274.683 56.103C275.616 56.103 276.099 56.5283 276.099 57.2837V57.8867L274.226 58.001C272.582 58.1025 271.655 58.8198 271.655 60.0576C271.655 61.3145 272.626 62.1143 273.959 62.1143ZM274.309 61.0161C273.566 61.0161 273.026 60.6416 273.026 60.0005C273.026 59.3721 273.458 59.0356 274.41 58.9722L276.099 58.8579V59.4546C276.099 60.3433 275.337 61.0161 274.309 61.0161ZM279.463 62H280.828V52.4023H279.463V62ZM282.719 57.0361C282.719 58.0581 283.329 58.6421 284.643 58.9468L285.849 59.2324C286.541 59.3975 286.864 59.6768 286.864 60.1084C286.864 60.6733 286.261 61.0669 285.411 61.0669C284.585 61.0669 284.078 60.7305 283.906 60.1909H282.542C282.662 61.3906 283.735 62.1333 285.379 62.1333C287.029 62.1333 288.242 61.2637 288.242 59.9814C288.242 58.9785 287.626 58.4136 286.312 58.1089L285.163 57.8423C284.414 57.6646 284.065 57.3979 284.065 56.9727C284.065 56.4141 284.643 56.0396 285.404 56.0396C286.179 56.0396 286.674 56.376 286.801 56.8901H288.108C287.975 55.6968 286.959 54.9731 285.404 54.9731C283.843 54.9731 282.719 55.8364 282.719 57.0361ZM293.923 53.3672V55.1255H292.825V56.2173H293.923V60.1846C293.923 61.5112 294.526 62.0444 296.043 62.0444C296.31 62.0444 296.563 62.0127 296.786 61.9746V60.8892C296.595 60.9082 296.475 60.9209 296.265 60.9209C295.586 60.9209 295.288 60.5972 295.288 59.8545V56.2173H296.786V55.1255H295.288V53.3672H293.923ZM301.235 62.1333C303.254 62.1333 304.492 60.7812 304.492 58.5532C304.492 56.3252 303.248 54.9731 301.235 54.9731C299.217 54.9731 297.973 56.3315 297.973 58.5532C297.973 60.7812 299.21 62.1333 301.235 62.1333ZM301.235 60.9717C300.048 60.9717 299.382 60.0894 299.382 58.5532C299.382 57.0171 300.048 56.1284 301.235 56.1284C302.416 56.1284 303.089 57.0171 303.089 58.5532C303.089 60.083 302.416 60.9717 301.235 60.9717ZM311.601 62.1143C312.509 62.1143 313.264 61.7207 313.677 61.0225H313.785V62H315.099V57.2837C315.099 55.8364 314.121 54.9731 312.388 54.9731C310.82 54.9731 309.703 55.7285 309.563 56.8901H310.884C311.036 56.3887 311.563 56.103 312.325 56.103C313.258 56.103 313.74 56.5283 313.74 57.2837V57.8867L311.868 58.001C310.224 58.1025 309.297 58.8198 309.297 60.0576C309.297 61.3145 310.268 62.1143 311.601 62.1143ZM311.95 61.0161C311.208 61.0161 310.668 60.6416 310.668 60.0005C310.668 59.3721 311.1 59.0356 312.052 58.9722L313.74 58.8579V59.4546C313.74 60.3433 312.979 61.0161 311.95 61.0161ZM319.567 62.1143C320.52 62.1143 321.326 61.6636 321.738 60.9082H321.846V62H323.154V52.4023H321.789V56.1982H321.688C321.313 55.4429 320.513 54.9858 319.567 54.9858C317.822 54.9858 316.698 56.376 316.698 58.5469C316.698 60.7305 317.809 62.1143 319.567 62.1143ZM319.955 56.1538C321.097 56.1538 321.814 57.0806 321.814 58.5532C321.814 60.0386 321.104 60.9463 319.955 60.9463C318.799 60.9463 318.107 60.0513 318.107 58.5532C318.107 57.0615 318.806 56.1538 319.955 56.1538ZM331.057 55.1064H329.609L327.896 60.6035H327.788L326.067 55.1064H324.607L327.102 62H328.568L331.057 55.1064ZM334.11 62.1143C335.018 62.1143 335.773 61.7207 336.186 61.0225H336.293V62H337.607V57.2837C337.607 55.8364 336.63 54.9731 334.897 54.9731C333.329 54.9731 332.212 55.7285 332.072 56.8901H333.393C333.545 56.3887 334.072 56.103 334.833 56.103C335.767 56.103 336.249 56.5283 336.249 57.2837V57.8867L334.376 58.001C332.732 58.1025 331.806 58.8198 331.806 60.0576C331.806 61.3145 332.777 62.1143 334.11 62.1143ZM334.459 61.0161C333.716 61.0161 333.177 60.6416 333.177 60.0005C333.177 59.3721 333.608 59.0356 334.561 58.9722L336.249 58.8579V59.4546C336.249 60.3433 335.487 61.0161 334.459 61.0161ZM339.55 62H340.915V57.9565C340.915 56.8457 341.556 56.1602 342.565 56.1602C343.574 56.1602 344.057 56.7188 344.057 57.8613V62H345.421V57.5376C345.421 55.8936 344.571 54.9731 343.028 54.9731C341.987 54.9731 341.302 55.4365 340.965 56.1982H340.864V55.1064H339.55V62ZM353.197 57.3218C353.02 55.9824 351.972 54.9731 350.239 54.9731C348.227 54.9731 347.002 56.3379 347.002 58.5278C347.002 60.7622 348.233 62.1333 350.246 62.1333C351.953 62.1333 353.02 61.1748 353.197 59.8164H351.871C351.693 60.5654 351.103 60.9717 350.239 60.9717C349.103 60.9717 348.398 60.0513 348.398 58.5278C348.398 57.0361 349.097 56.1348 350.239 56.1348C351.153 56.1348 351.712 56.6489 351.871 57.3218H353.197ZM359.291 60.1528C359.037 60.7114 358.472 61.0161 357.647 61.0161C356.555 61.0161 355.851 60.229 355.806 58.9785V58.915H360.688V58.4453C360.688 56.2871 359.526 54.9731 357.603 54.9731C355.654 54.9731 354.416 56.376 354.416 58.5659C354.416 60.7686 355.628 62.1333 357.609 62.1333C359.189 62.1333 360.307 61.3716 360.605 60.1528H359.291ZM357.596 56.084C358.605 56.084 359.266 56.814 359.297 57.9312H355.806C355.882 56.8203 356.587 56.084 357.596 56.084ZM135.676 80.501C137.085 80.501 137.739 79.9741 138.329 78.3174L140.906 71.1064H139.459L137.732 76.6289H137.625L135.892 71.1064H134.406L136.907 78.019L136.806 78.3745C136.571 79.1045 136.203 79.3774 135.555 79.3774C135.428 79.3774 135.219 79.3711 135.111 79.3521V80.4692C135.238 80.4883 135.562 80.501 135.676 80.501ZM144.956 78.1333C146.975 78.1333 148.212 76.7812 148.212 74.5532C148.212 72.3252 146.968 70.9731 144.956 70.9731C142.938 70.9731 141.693 72.3315 141.693 74.5532C141.693 76.7812 142.931 78.1333 144.956 78.1333ZM144.956 76.9717C143.769 76.9717 143.103 76.0894 143.103 74.5532C143.103 73.0171 143.769 72.1284 144.956 72.1284C146.137 72.1284 146.81 73.0171 146.81 74.5532C146.81 76.083 146.137 76.9717 144.956 76.9717ZM155.684 71.1064H154.319V75.1499C154.319 76.2607 153.716 76.9336 152.611 76.9336C151.608 76.9336 151.158 76.3877 151.158 75.2451V71.1064H149.793V75.5815C149.793 77.2002 150.644 78.1333 152.173 78.1333C153.221 78.1333 153.925 77.689 154.262 76.9082H154.37V78H155.684V71.1064ZM157.664 78H159.029V73.8804C159.029 72.9092 159.759 72.2427 160.793 72.2427C161.035 72.2427 161.441 72.2871 161.555 72.3188V71.0366C161.409 71.0049 161.149 70.9858 160.946 70.9858C160.044 70.9858 159.276 71.4746 159.08 72.1538H158.978V71.1064H157.664V78ZM170.328 78V70.0654H173.203V68.8403H166.024V70.0654H168.906V78H170.328ZM178.078 76.1528C177.824 76.7114 177.259 77.0161 176.434 77.0161C175.342 77.0161 174.638 76.229 174.593 74.9785V74.915H179.475V74.4453C179.475 72.2871 178.313 70.9731 176.39 70.9731C174.441 70.9731 173.203 72.376 173.203 74.5659C173.203 76.7686 174.416 78.1333 176.396 78.1333C177.977 78.1333 179.094 77.3716 179.392 76.1528H178.078ZM176.383 72.084C177.393 72.084 178.053 72.814 178.084 73.9312H174.593C174.669 72.8203 175.374 72.084 176.383 72.084ZM183.023 78.1143C183.931 78.1143 184.686 77.7207 185.099 77.0225H185.207V78H186.521V73.2837C186.521 71.8364 185.543 70.9731 183.81 70.9731C182.242 70.9731 181.125 71.7285 180.985 72.8901H182.306C182.458 72.3887 182.985 72.103 183.747 72.103C184.68 72.103 185.162 72.5283 185.162 73.2837V73.8867L183.29 74.001C181.646 74.1025 180.719 74.8198 180.719 76.0576C180.719 77.3145 181.69 78.1143 183.023 78.1143ZM183.372 77.0161C182.629 77.0161 182.09 76.6416 182.09 76.0005C182.09 75.3721 182.521 75.0356 183.474 74.9722L185.162 74.8579V75.4546C185.162 76.3433 184.4 77.0161 183.372 77.0161ZM188.463 78H189.828V73.7661C189.828 72.8647 190.456 72.1602 191.288 72.1602C192.1 72.1602 192.621 72.6489 192.621 73.436V78H193.96V73.6392C193.96 72.8076 194.538 72.1602 195.42 72.1602C196.315 72.1602 196.759 72.6235 196.759 73.5757V78H198.124V73.2456C198.124 71.811 197.312 70.9731 195.915 70.9731C194.957 70.9731 194.163 71.4619 193.814 72.2046H193.706C193.401 71.4619 192.748 70.9731 191.802 70.9731C190.881 70.9731 190.183 71.4302 189.878 72.2046H189.777V71.1064H188.463V78ZM199.882 73.0361C199.882 74.0581 200.492 74.6421 201.806 74.9468L203.012 75.2324C203.704 75.3975 204.027 75.6768 204.027 76.1084C204.027 76.6733 203.424 77.0669 202.574 77.0669C201.749 77.0669 201.241 76.7305 201.069 76.1909H199.705C199.825 77.3906 200.898 78.1333 202.542 78.1333C204.192 78.1333 205.405 77.2637 205.405 75.9814C205.405 74.9785 204.789 74.4136 203.475 74.1089L202.326 73.8423C201.577 73.6646 201.228 73.3979 201.228 72.9727C201.228 72.4141 201.806 72.0396 202.567 72.0396C203.342 72.0396 203.837 72.376 203.964 72.8901H205.271C205.138 71.6968 204.123 70.9731 202.567 70.9731C201.006 70.9731 199.882 71.8364 199.882 73.0361ZM212.514 78.1143C213.422 78.1143 214.177 77.7207 214.59 77.0225H214.698V78H216.012V73.2837C216.012 71.8364 215.034 70.9731 213.301 70.9731C211.733 70.9731 210.616 71.7285 210.477 72.8901H211.797C211.949 72.3887 212.476 72.103 213.238 72.103C214.171 72.103 214.653 72.5283 214.653 73.2837V73.8867L212.781 74.001C211.137 74.1025 210.21 74.8198 210.21 76.0576C210.21 77.3145 211.181 78.1143 212.514 78.1143ZM212.863 77.0161C212.121 77.0161 211.581 76.6416 211.581 76.0005C211.581 75.3721 212.013 75.0356 212.965 74.9722L214.653 74.8579V75.4546C214.653 76.3433 213.892 77.0161 212.863 77.0161ZM221.541 70.9858C220.601 70.9858 219.789 71.4619 219.37 72.249H219.268V71.1064H217.954V80.2979H219.319V76.959H219.427C219.789 77.689 220.569 78.1143 221.553 78.1143C223.299 78.1143 224.41 76.7305 224.41 74.5532C224.41 72.3633 223.299 70.9858 221.541 70.9858ZM221.153 76.9463C220.011 76.9463 219.293 76.0259 219.293 74.5532C219.293 73.0742 220.011 72.1538 221.16 72.1538C222.315 72.1538 223.007 73.0552 223.007 74.5532C223.007 76.0513 222.315 76.9463 221.153 76.9463ZM229.64 70.9858C228.701 70.9858 227.888 71.4619 227.469 72.249H227.368V71.1064H226.054V80.2979H227.418V76.959H227.526C227.888 77.689 228.669 78.1143 229.653 78.1143C231.398 78.1143 232.509 76.7305 232.509 74.5532C232.509 72.3633 231.398 70.9858 229.64 70.9858ZM229.253 76.9463C228.11 76.9463 227.393 76.0259 227.393 74.5532C227.393 73.0742 228.11 72.1538 229.259 72.1538C230.415 72.1538 231.106 73.0552 231.106 74.5532C231.106 76.0513 230.415 76.9463 229.253 76.9463ZM238.197 78H239.562V72.2173H241.085V71.1255H239.542V70.4463C239.542 69.748 239.854 69.3989 240.615 69.3989C240.831 69.3989 241.015 69.4116 241.142 69.4307V68.4023C240.907 68.3643 240.641 68.3389 240.33 68.3389C238.895 68.3389 238.197 69.0117 238.197 70.3828V71.1255H237.061V72.2173H238.197V78ZM248.461 71.1064H247.096V75.1499C247.096 76.2607 246.493 76.9336 245.389 76.9336C244.386 76.9336 243.935 76.3877 243.935 75.2451V71.1064H242.57V75.5815C242.57 77.2002 243.421 78.1333 244.951 78.1333C245.998 78.1333 246.703 77.689 247.039 76.9082H247.147V78H248.461V71.1064ZM250.441 78H251.806V73.9565C251.806 72.8457 252.447 72.1602 253.457 72.1602C254.466 72.1602 254.948 72.7188 254.948 73.8613V78H256.313V73.5376C256.313 71.8936 255.462 70.9731 253.92 70.9731C252.879 70.9731 252.193 71.4365 251.857 72.1982H251.755V71.1064H250.441V78ZM264.089 73.3218C263.911 71.9824 262.864 70.9731 261.131 70.9731C259.119 70.9731 257.894 72.3379 257.894 74.5278C257.894 76.7622 259.125 78.1333 261.137 78.1333C262.845 78.1333 263.911 77.1748 264.089 75.8164H262.762C262.584 76.5654 261.994 76.9717 261.131 76.9717C259.995 76.9717 259.29 76.0513 259.29 74.5278C259.29 73.0361 259.988 72.1348 261.131 72.1348C262.045 72.1348 262.604 72.6489 262.762 73.3218H264.089ZM266.234 69.3672V71.1255H265.136V72.2173H266.234V76.1846C266.234 77.5112 266.837 78.0444 268.354 78.0444C268.621 78.0444 268.875 78.0127 269.097 77.9746V76.8892C268.907 76.9082 268.786 76.9209 268.577 76.9209C267.897 76.9209 267.599 76.5972 267.599 75.8545V72.2173H269.097V71.1255H267.599V69.3672H266.234ZM271.408 69.875C271.884 69.875 272.271 69.4878 272.271 69.0181C272.271 68.542 271.884 68.1548 271.408 68.1548C270.932 68.1548 270.544 68.542 270.544 69.0181C270.544 69.4878 270.932 69.875 271.408 69.875ZM270.729 78H272.087V71.1064H270.729V78ZM277.013 78.1333C279.031 78.1333 280.269 76.7812 280.269 74.5532C280.269 72.3252 279.025 70.9731 277.013 70.9731C274.994 70.9731 273.75 72.3315 273.75 74.5532C273.75 76.7812 274.988 78.1333 277.013 78.1333ZM277.013 76.9717C275.826 76.9717 275.159 76.0894 275.159 74.5532C275.159 73.0171 275.826 72.1284 277.013 72.1284C278.193 72.1284 278.866 73.0171 278.866 74.5532C278.866 76.083 278.193 76.9717 277.013 76.9717ZM281.913 78H283.278V73.9565C283.278 72.8457 283.919 72.1602 284.928 72.1602C285.938 72.1602 286.42 72.7188 286.42 73.8613V78H287.785V73.5376C287.785 71.8936 286.934 70.9731 285.392 70.9731C284.351 70.9731 283.665 71.4365 283.329 72.1982H283.227V71.1064H281.913V78ZM291.619 78.1143C292.526 78.1143 293.282 77.7207 293.694 77.0225H293.802V78H295.116V73.2837C295.116 71.8364 294.139 70.9731 292.406 70.9731C290.838 70.9731 289.721 71.7285 289.581 72.8901H290.901C291.054 72.3887 291.581 72.103 292.342 72.103C293.275 72.103 293.758 72.5283 293.758 73.2837V73.8867L291.885 74.001C290.241 74.1025 289.314 74.8198 289.314 76.0576C289.314 77.3145 290.286 78.1143 291.619 78.1143ZM291.968 77.0161C291.225 77.0161 290.686 76.6416 290.686 76.0005C290.686 75.3721 291.117 75.0356 292.069 74.9722L293.758 74.8579V75.4546C293.758 76.3433 292.996 77.0161 291.968 77.0161ZM297.122 78H298.487V68.4023H297.122V78ZM301.242 69.875C301.718 69.875 302.105 69.4878 302.105 69.0181C302.105 68.542 301.718 68.1548 301.242 68.1548C300.766 68.1548 300.378 68.542 300.378 69.0181C300.378 69.4878 300.766 69.875 301.242 69.875ZM300.562 78H301.921V71.1064H300.562V78ZM304.409 69.3672V71.1255H303.311V72.2173H304.409V76.1846C304.409 77.5112 305.012 78.0444 306.529 78.0444C306.796 78.0444 307.05 78.0127 307.272 77.9746V76.8892C307.082 76.9082 306.961 76.9209 306.751 76.9209C306.072 76.9209 305.774 76.5972 305.774 75.8545V72.2173H307.272V71.1255H305.774V69.3672H304.409ZM309.583 69.875C310.059 69.875 310.446 69.4878 310.446 69.0181C310.446 68.542 310.059 68.1548 309.583 68.1548C309.106 68.1548 308.719 68.542 308.719 69.0181C308.719 69.4878 309.106 69.875 309.583 69.875ZM308.903 78H310.262V71.1064H308.903V78ZM316.8 76.1528C316.546 76.7114 315.981 77.0161 315.156 77.0161C314.064 77.0161 313.359 76.229 313.315 74.9785V74.915H318.196V74.4453C318.196 72.2871 317.035 70.9731 315.111 70.9731C313.163 70.9731 311.925 72.376 311.925 74.5659C311.925 76.7686 313.137 78.1333 315.118 78.1333C316.698 78.1333 317.815 77.3716 318.114 76.1528H316.8ZM315.105 72.084C316.114 72.084 316.774 72.814 316.806 73.9312H313.315C313.391 72.8203 314.096 72.084 315.105 72.084ZM319.675 73.0361C319.675 74.0581 320.285 74.6421 321.599 74.9468L322.805 75.2324C323.497 75.3975 323.82 75.6768 323.82 76.1084C323.82 76.6733 323.217 77.0669 322.367 77.0669C321.542 77.0669 321.034 76.7305 320.862 76.1909H319.498C319.618 77.3906 320.691 78.1333 322.335 78.1333C323.985 78.1333 325.198 77.2637 325.198 75.9814C325.198 74.9785 324.582 74.4136 323.268 74.1089L322.119 73.8423C321.37 73.6646 321.021 73.3979 321.021 72.9727C321.021 72.4141 321.599 72.0396 322.36 72.0396C323.135 72.0396 323.63 72.376 323.757 72.8901H325.064C324.931 71.6968 323.916 70.9731 322.36 70.9731C320.799 70.9731 319.675 71.8364 319.675 73.0361Z" fill="var(--vscode-menu-foreground, #CCCCCC)"/>
<path d="M0 4C0 1.79086 1.79086 0 4 0H110V110H4C1.79086 110 0 108.209 0 106V4Z" fill="var(--vscode-editorGroupHeader-tabsBackground, #252526)"/>
<path d="M43.9333 51.8L58.2 39.4L56.4667 37.5333L43.1333 49L39.4 44.4667L37.5333 46.0667L42.0667 51.6667L43.9333 51.8ZM72.4667 47.5333H52.0667L57.8 42.4667H72.4667V47.5333ZM50.0667 52.4667H72.4667V57.5333H50.0667V52.4667ZM72.4667 62.4667H50.0667V67.5333H72.4667V62.4667Z" fill="var(--vscode-menu-foreground, #CCCCCC)"/>
</a>
<a href="command:fx-extension.openReadMe?%5B%22WalkThrough%22%5D">
<path d="M77.2062 126H408C410.209 126 412 127.791 412 130V232C412 234.209 410.209 236 408 236H77.2062V126Z" fill="var(--vscode-welcomePage-tileHoverBackground, #2c2c2d)"/>
<path d="M0 130C0 127.791 1.79086 126 4 126H110V236H4C1.79086 236 0 234.209 0 232V130Z" fill="var(--vscode-editorGroupHeader-tabsBackground, #252526)"/>
<path d="M69.2667 171.667L61.8 164.2L60.0667 163.533H45L42.4667 165.933V195.933L45 198.467H67.5333L70.0667 195.933V173.533L69.2667 171.667ZM67.5333 195.933H45V165.933H57.5333V175.933H67.5333V195.933ZM60.0667 173.533V165.933L67.5333 173.533H60.0667Z" fill="var(--vscode-menu-foreground, #CCCCCC)"/>
<path d="M137.261 162.391H138.949L140.788 166H143.126L141.048 162.083C142.183 161.639 142.839 160.545 142.839 159.28C142.839 157.332 141.506 156.136 139.339 156.136H135.196V166H137.261V162.391ZM137.261 157.749H139.052C140.077 157.749 140.72 158.351 140.72 159.308C140.72 160.285 140.111 160.853 139.072 160.853H137.261V157.749ZM151.452 164.298H146.981V161.803H151.199V160.217H146.981V157.838H151.452V156.136H144.917V166H151.452V164.298ZM159.963 166H162.198L158.773 156.136H156.347L152.922 166H154.993L155.752 163.607H159.218L159.963 166ZM157.434 158.139H157.557L158.78 162.062H156.196L157.434 158.139ZM163.88 156.136V166H167.763C170.716 166 172.391 164.195 172.391 161.003C172.391 157.906 170.695 156.136 167.763 156.136H163.88ZM165.944 157.838H167.435C169.226 157.838 170.285 159 170.285 161.037C170.285 163.149 169.26 164.298 167.435 164.298H165.944V157.838ZM184.798 166V156.136H182.371L179.637 162.938H179.514L176.786 156.136H174.353V166H176.267V159.321H176.376L178.892 165.515H180.266L182.774 159.321H182.884V166H184.798ZM193.726 164.298H189.255V161.803H193.473V160.217H189.255V157.838H193.726V156.136H187.19V166H193.726V164.298ZM197.137 166.171C197.875 166.171 198.347 165.679 198.347 165.009C198.347 164.339 197.875 163.854 197.137 163.854C196.405 163.854 195.927 164.339 195.927 165.009C195.927 165.679 196.405 166.171 197.137 166.171ZM200.568 166H202.558V161.461C202.558 160.6 203.111 159.971 203.891 159.971C204.67 159.971 205.135 160.436 205.135 161.242V166H207.049V161.372C207.049 160.559 207.568 159.971 208.375 159.971C209.216 159.971 209.633 160.422 209.633 161.331V166H211.622V160.832C211.622 159.28 210.686 158.31 209.182 158.31C208.129 158.31 207.261 158.863 206.912 159.697H206.789C206.488 158.836 205.764 158.31 204.704 158.31C203.713 158.31 202.927 158.836 202.619 159.697H202.496V158.474H200.568V166ZM216.257 166.116C217.303 166.116 218.157 165.631 218.561 164.817H218.684V166H220.611V155.596H218.622V159.677H218.506C218.116 158.843 217.275 158.351 216.257 158.351C214.363 158.351 213.188 159.834 213.188 162.227C213.188 164.626 214.356 166.116 216.257 166.116ZM216.934 159.964C217.993 159.964 218.643 160.832 218.643 162.24C218.643 163.648 218 164.51 216.934 164.51C215.867 164.51 215.231 163.655 215.231 162.233C215.231 160.818 215.874 159.964 216.934 159.964Z" fill="var(--vscode-badge-foreground, white)"/>
<path opacity="0.8" d="M135.149 178.84V188H136.571V184.871H138.691C140.487 184.871 141.757 183.639 141.757 181.875C141.757 180.072 140.525 178.84 138.735 178.84H135.149ZM136.571 180.04H138.361C139.611 180.04 140.303 180.688 140.303 181.875C140.303 183.023 139.586 183.677 138.361 183.677H136.571V180.04ZM143.433 188H144.797V183.88C144.797 182.909 145.527 182.243 146.562 182.243C146.803 182.243 147.209 182.287 147.324 182.319V181.037C147.178 181.005 146.917 180.986 146.714 180.986C145.813 180.986 145.045 181.475 144.848 182.154H144.747V181.106H143.433V188ZM151.38 188.133C153.398 188.133 154.636 186.781 154.636 184.553C154.636 182.325 153.392 180.973 151.38 180.973C149.361 180.973 148.117 182.332 148.117 184.553C148.117 186.781 149.355 188.133 151.38 188.133ZM151.38 186.972C150.193 186.972 149.526 186.089 149.526 184.553C149.526 183.017 150.193 182.128 151.38 182.128C152.561 182.128 153.233 183.017 153.233 184.553C153.233 186.083 152.561 186.972 151.38 186.972ZM156.998 179.875C157.467 179.875 157.861 179.488 157.861 179.018C157.861 178.542 157.467 178.155 156.998 178.155C156.521 178.155 156.134 178.542 156.134 179.018C156.134 179.488 156.521 179.875 156.998 179.875ZM157.664 181.106H156.306V188.292C156.306 188.984 156.052 189.263 155.322 189.263C155.303 189.263 155.15 189.263 155.131 189.263V190.355C155.163 190.355 155.385 190.361 155.436 190.361C156.934 190.361 157.664 189.714 157.664 188.298V181.106ZM164.202 186.153C163.948 186.711 163.383 187.016 162.558 187.016C161.466 187.016 160.762 186.229 160.717 184.979V184.915H165.599V184.445C165.599 182.287 164.437 180.973 162.514 180.973C160.565 180.973 159.327 182.376 159.327 184.566C159.327 186.769 160.54 188.133 162.52 188.133C164.101 188.133 165.218 187.372 165.516 186.153H164.202ZM162.507 182.084C163.517 182.084 164.177 182.814 164.208 183.931H160.717C160.793 182.82 161.498 182.084 162.507 182.084ZM173.089 183.322C172.911 181.982 171.864 180.973 170.131 180.973C168.119 180.973 166.894 182.338 166.894 184.528C166.894 186.762 168.125 188.133 170.137 188.133C171.845 188.133 172.911 187.175 173.089 185.816H171.762C171.584 186.565 170.994 186.972 170.131 186.972C168.995 186.972 168.29 186.051 168.29 184.528C168.29 183.036 168.988 182.135 170.131 182.135C171.045 182.135 171.604 182.649 171.762 183.322H173.089ZM175.234 179.367V181.125H174.136V182.217H175.234V186.185C175.234 187.511 175.837 188.044 177.354 188.044C177.621 188.044 177.875 188.013 178.097 187.975V186.889C177.907 186.908 177.786 186.921 177.577 186.921C176.897 186.921 176.599 186.597 176.599 185.854V182.217H178.097V181.125H176.599V179.367H175.234ZM183.677 184.94V183.677H179.513V184.94H183.677ZM185.524 183.036C185.524 184.058 186.133 184.642 187.447 184.947L188.653 185.232C189.345 185.397 189.669 185.677 189.669 186.108C189.669 186.673 189.066 187.067 188.215 187.067C187.39 187.067 186.882 186.73 186.711 186.191H185.346C185.467 187.391 186.54 188.133 188.184 188.133C189.834 188.133 191.046 187.264 191.046 185.981C191.046 184.979 190.431 184.414 189.117 184.109L187.968 183.842C187.219 183.665 186.87 183.398 186.87 182.973C186.87 182.414 187.447 182.04 188.209 182.04C188.983 182.04 189.479 182.376 189.605 182.89H190.913C190.78 181.697 189.764 180.973 188.209 180.973C186.647 180.973 185.524 181.836 185.524 183.036ZM196.277 180.986C195.337 180.986 194.525 181.462 194.106 182.249H194.004V181.106H192.69V190.298H194.055V186.959H194.163C194.525 187.689 195.306 188.114 196.29 188.114C198.035 188.114 199.146 186.73 199.146 184.553C199.146 182.363 198.035 180.986 196.277 180.986ZM195.89 186.946C194.747 186.946 194.03 186.026 194.03 184.553C194.03 183.074 194.747 182.154 195.896 182.154C197.051 182.154 197.743 183.055 197.743 184.553C197.743 186.051 197.051 186.946 195.89 186.946ZM205.322 186.153C205.068 186.711 204.503 187.016 203.678 187.016C202.586 187.016 201.882 186.229 201.837 184.979V184.915H206.719V184.445C206.719 182.287 205.557 180.973 203.634 180.973C201.685 180.973 200.447 182.376 200.447 184.566C200.447 186.769 201.66 188.133 203.64 188.133C205.221 188.133 206.338 187.372 206.636 186.153H205.322ZM203.627 182.084C204.637 182.084 205.297 182.814 205.329 183.931H201.837C201.914 182.82 202.618 182.084 203.627 182.084ZM214.209 183.322C214.031 181.982 212.984 180.973 211.251 180.973C209.239 180.973 208.014 182.338 208.014 184.528C208.014 186.762 209.245 188.133 211.257 188.133C212.965 188.133 214.031 187.175 214.209 185.816H212.882C212.705 186.565 212.114 186.972 211.251 186.972C210.115 186.972 209.41 186.051 209.41 184.528C209.41 183.036 210.108 182.135 211.251 182.135C212.165 182.135 212.724 182.649 212.882 183.322H214.209ZM216.475 179.875C216.951 179.875 217.338 179.488 217.338 179.018C217.338 178.542 216.951 178.155 216.475 178.155C215.999 178.155 215.612 178.542 215.612 179.018C215.612 179.488 215.999 179.875 216.475 179.875ZM215.796 188H217.154V181.106H215.796V188ZM219.649 188H221.014V182.217H222.537V181.125H220.995V180.446C220.995 179.748 221.306 179.399 222.067 179.399C222.283 179.399 222.467 179.412 222.594 179.431V178.402C222.359 178.364 222.093 178.339 221.782 178.339C220.347 178.339 219.649 179.012 219.649 180.383V181.125H218.513V182.217H219.649V188ZM224.791 179.875C225.267 179.875 225.654 179.488 225.654 179.018C225.654 178.542 225.267 178.155 224.791 178.155C224.314 178.155 223.927 178.542 223.927 179.018C223.927 179.488 224.314 179.875 224.791 179.875ZM224.111 188H225.47V181.106H224.111V188ZM233.328 183.322C233.15 181.982 232.103 180.973 230.37 180.973C228.358 180.973 227.133 182.338 227.133 184.528C227.133 186.762 228.364 188.133 230.376 188.133C232.084 188.133 233.15 187.175 233.328 185.816H232.001C231.824 186.565 231.233 186.972 230.37 186.972C229.234 186.972 228.529 186.051 228.529 184.528C228.529 183.036 229.228 182.135 230.37 182.135C231.284 182.135 231.843 182.649 232.001 183.322H233.328ZM240.971 188.114C241.923 188.114 242.729 187.664 243.142 186.908H243.25V188H244.557V178.402H243.192V182.198H243.091C242.716 181.443 241.917 180.986 240.971 180.986C239.225 180.986 238.102 182.376 238.102 184.547C238.102 186.73 239.212 188.114 240.971 188.114ZM241.358 182.154C242.5 182.154 243.218 183.081 243.218 184.553C243.218 186.039 242.507 186.946 241.358 186.946C240.203 186.946 239.511 186.051 239.511 184.553C239.511 183.062 240.209 182.154 241.358 182.154ZM249.527 188.133C251.546 188.133 252.784 186.781 252.784 184.553C252.784 182.325 251.54 180.973 249.527 180.973C247.509 180.973 246.265 182.332 246.265 184.553C246.265 186.781 247.502 188.133 249.527 188.133ZM249.527 186.972C248.34 186.972 247.674 186.089 247.674 184.553C247.674 183.017 248.34 182.128 249.527 182.128C250.708 182.128 251.381 183.017 251.381 184.553C251.381 186.083 250.708 186.972 249.527 186.972ZM260.28 183.322C260.103 181.982 259.055 180.973 257.322 180.973C255.31 180.973 254.085 182.338 254.085 184.528C254.085 186.762 255.316 188.133 257.329 188.133C259.036 188.133 260.103 187.175 260.28 185.816H258.954C258.776 186.565 258.186 186.972 257.322 186.972C256.186 186.972 255.481 186.051 255.481 184.528C255.481 183.036 256.18 182.135 257.322 182.135C258.236 182.135 258.795 182.649 258.954 183.322H260.28ZM267.669 181.106H266.304V185.15C266.304 186.261 265.701 186.934 264.597 186.934C263.594 186.934 263.143 186.388 263.143 185.245V181.106H261.778V185.582C261.778 187.2 262.629 188.133 264.159 188.133C265.206 188.133 265.911 187.689 266.247 186.908H266.355V188H267.669V181.106ZM269.649 188H271.014V183.766C271.014 182.865 271.643 182.16 272.474 182.16C273.287 182.16 273.807 182.649 273.807 183.436V188H275.146V183.639C275.146 182.808 275.724 182.16 276.606 182.16C277.501 182.16 277.946 182.624 277.946 183.576V188H279.311V183.246C279.311 181.811 278.498 180.973 277.102 180.973C276.143 180.973 275.35 181.462 275 182.205H274.893C274.588 181.462 273.934 180.973 272.988 180.973C272.068 180.973 271.37 181.43 271.065 182.205H270.963V181.106H269.649V188ZM285.76 186.153C285.506 186.711 284.941 187.016 284.116 187.016C283.024 187.016 282.319 186.229 282.275 184.979V184.915H287.156V184.445C287.156 182.287 285.995 180.973 284.071 180.973C282.123 180.973 280.885 182.376 280.885 184.566C280.885 186.769 282.097 188.133 284.078 188.133C285.658 188.133 286.775 187.372 287.074 186.153H285.76ZM284.065 182.084C285.074 182.084 285.734 182.814 285.766 183.931H282.275C282.351 182.82 283.056 182.084 284.065 182.084ZM288.794 188H290.159V183.957C290.159 182.846 290.8 182.16 291.809 182.16C292.818 182.16 293.301 182.719 293.301 183.861V188H294.666V183.538C294.666 181.894 293.815 180.973 292.272 180.973C291.231 180.973 290.546 181.437 290.209 182.198H290.108V181.106H288.794V188ZM297.071 179.367V181.125H295.973V182.217H297.071V186.185C297.071 187.511 297.674 188.044 299.191 188.044C299.458 188.044 299.712 188.013 299.934 187.975V186.889C299.744 186.908 299.623 186.921 299.414 186.921C298.734 186.921 298.436 186.597 298.436 185.854V182.217H299.934V181.125H298.436V179.367H297.071ZM303.451 188.114C304.358 188.114 305.114 187.721 305.526 187.022H305.634V188H306.948V183.284C306.948 181.836 305.971 180.973 304.238 180.973C302.67 180.973 301.553 181.729 301.413 182.89H302.733C302.886 182.389 303.413 182.103 304.174 182.103C305.107 182.103 305.59 182.528 305.59 183.284V183.887L303.717 184.001C302.073 184.103 301.146 184.82 301.146 186.058C301.146 187.314 302.118 188.114 303.451 188.114ZM303.8 187.016C303.057 187.016 302.518 186.642 302.518 186C302.518 185.372 302.949 185.036 303.901 184.972L305.59 184.858V185.455C305.59 186.343 304.828 187.016 303.8 187.016ZM309.373 179.367V181.125H308.275V182.217H309.373V186.185C309.373 187.511 309.976 188.044 311.493 188.044C311.76 188.044 312.014 188.013 312.236 187.975V186.889C312.045 186.908 311.925 186.921 311.715 186.921C311.036 186.921 310.738 186.597 310.738 185.854V182.217H312.236V181.125H310.738V179.367H309.373ZM314.546 179.875C315.022 179.875 315.41 179.488 315.41 179.018C315.41 178.542 315.022 178.155 314.546 178.155C314.07 178.155 313.683 178.542 313.683 179.018C313.683 179.488 314.07 179.875 314.546 179.875ZM313.867 188H315.226V181.106H313.867V188ZM320.151 188.133C322.17 188.133 323.408 186.781 323.408 184.553C323.408 182.325 322.164 180.973 320.151 180.973C318.133 180.973 316.889 182.332 316.889 184.553C316.889 186.781 318.126 188.133 320.151 188.133ZM320.151 186.972C318.964 186.972 318.298 186.089 318.298 184.553C318.298 183.017 318.964 182.128 320.151 182.128C321.332 182.128 322.005 183.017 322.005 184.553C322.005 186.083 321.332 186.972 320.151 186.972ZM325.052 188H326.417V183.957C326.417 182.846 327.058 182.16 328.067 182.16C329.076 182.16 329.559 182.719 329.559 183.861V188H330.923V183.538C330.923 181.894 330.073 180.973 328.53 180.973C327.489 180.973 326.804 181.437 326.467 182.198H326.366V181.106H325.052V188ZM336.884 179.367V181.125H335.786V182.217H336.884V186.185C336.884 187.511 337.487 188.044 339.004 188.044C339.271 188.044 339.524 188.013 339.747 187.975V186.889C339.556 186.908 339.436 186.921 339.226 186.921C338.547 186.921 338.249 186.597 338.249 185.854V182.217H339.747V181.125H338.249V179.367H336.884ZM344.196 188.133C346.215 188.133 347.453 186.781 347.453 184.553C347.453 182.325 346.208 180.973 344.196 180.973C342.178 180.973 340.934 182.332 340.934 184.553C340.934 186.781 342.171 188.133 344.196 188.133ZM344.196 186.972C343.009 186.972 342.343 186.089 342.343 184.553C342.343 183.017 343.009 182.128 344.196 182.128C345.377 182.128 346.05 183.017 346.05 184.553C346.05 186.083 345.377 186.972 344.196 186.972ZM355.178 188.114C356.13 188.114 356.936 187.664 357.349 186.908H357.457V188H358.764V178.402H357.399V182.198H357.298C356.923 181.443 356.124 180.986 355.178 180.986C353.432 180.986 352.309 182.376 352.309 184.547C352.309 186.73 353.419 188.114 355.178 188.114ZM355.565 182.154C356.708 182.154 357.425 183.081 357.425 184.553C357.425 186.039 356.714 186.946 355.565 186.946C354.41 186.946 353.718 186.051 353.718 184.553C353.718 183.062 354.416 182.154 355.565 182.154ZM361.519 179.875C361.995 179.875 362.382 179.488 362.382 179.018C362.382 178.542 361.995 178.155 361.519 178.155C361.043 178.155 360.656 178.542 360.656 179.018C360.656 179.488 361.043 179.875 361.519 179.875ZM360.84 188H362.198V181.106H360.84V188ZM370.057 181.106H368.609L366.896 186.604H366.788L365.067 181.106H363.607L366.102 188H367.568L370.057 181.106ZM375.706 186.153C375.452 186.711 374.887 187.016 374.062 187.016C372.97 187.016 372.266 186.229 372.221 184.979V184.915H377.103V184.445C377.103 182.287 375.941 180.973 374.018 180.973C372.069 180.973 370.831 182.376 370.831 184.566C370.831 186.769 372.043 188.133 374.024 188.133C375.604 188.133 376.722 187.372 377.02 186.153H375.706ZM374.011 182.084C375.021 182.084 375.681 182.814 375.712 183.931H372.221C372.297 182.82 373.002 182.084 374.011 182.084ZM135.695 195.875C136.171 195.875 136.558 195.488 136.558 195.018C136.558 194.542 136.171 194.155 135.695 194.155C135.219 194.155 134.832 194.542 134.832 195.018C134.832 195.488 135.219 195.875 135.695 195.875ZM135.016 204H136.374V197.106H135.016V204ZM138.38 204H139.745V199.957C139.745 198.846 140.386 198.16 141.395 198.16C142.404 198.16 142.887 198.719 142.887 199.861V204H144.251V199.538C144.251 197.894 143.401 196.973 141.858 196.973C140.817 196.973 140.132 197.437 139.795 198.198H139.694V197.106H138.38V204ZM146.657 195.367V197.125H145.559V198.217H146.657V202.185C146.657 203.511 147.26 204.044 148.777 204.044C149.044 204.044 149.298 204.013 149.52 203.975V202.889C149.33 202.908 149.209 202.921 149 202.921C148.32 202.921 148.022 202.597 148.022 201.854V198.217H149.52V197.125H148.022V195.367H146.657ZM153.97 204.133C155.988 204.133 157.226 202.781 157.226 200.553C157.226 198.325 155.982 196.973 153.97 196.973C151.951 196.973 150.707 198.332 150.707 200.553C150.707 202.781 151.945 204.133 153.97 204.133ZM153.97 202.972C152.783 202.972 152.116 202.089 152.116 200.553C152.116 199.017 152.783 198.128 153.97 198.128C155.15 198.128 155.823 199.017 155.823 200.553C155.823 202.083 155.15 202.972 153.97 202.972ZM162.907 195.367V197.125H161.809V198.217H162.907V202.185C162.907 203.511 163.51 204.044 165.027 204.044C165.294 204.044 165.548 204.013 165.77 203.975V202.889C165.58 202.908 165.459 202.921 165.25 202.921C164.57 202.921 164.272 202.597 164.272 201.854V198.217H165.77V197.125H164.272V195.367H162.907ZM167.439 204H168.804V199.963C168.804 198.884 169.426 198.167 170.543 198.167C171.508 198.167 172.022 198.731 172.022 199.868V204H173.387V199.544C173.387 197.913 172.479 196.979 171.007 196.979C169.966 196.979 169.236 197.437 168.899 198.205H168.792V194.402H167.439V204ZM179.843 202.153C179.589 202.711 179.024 203.016 178.199 203.016C177.107 203.016 176.402 202.229 176.358 200.979V200.915H181.239V200.445C181.239 198.287 180.078 196.973 178.154 196.973C176.206 196.973 174.968 198.376 174.968 200.566C174.968 202.769 176.18 204.133 178.161 204.133C179.741 204.133 180.858 203.372 181.157 202.153H179.843ZM178.148 198.084C179.157 198.084 179.817 198.814 179.849 199.931H176.358C176.434 198.82 177.139 198.084 178.148 198.084ZM190.335 204V196.065H193.211V194.84H186.032V196.065H188.914V204H190.335ZM198.086 202.153C197.832 202.711 197.267 203.016 196.442 203.016C195.35 203.016 194.646 202.229 194.601 200.979V200.915H199.482V200.445C199.482 198.287 198.321 196.973 196.397 196.973C194.449 196.973 193.211 198.376 193.211 200.566C193.211 202.769 194.423 204.133 196.404 204.133C197.984 204.133 199.102 203.372 199.4 202.153H198.086ZM196.391 198.084C197.4 198.084 198.061 198.814 198.092 199.931H194.601C194.677 198.82 195.382 198.084 196.391 198.084ZM203.031 204.114C203.938 204.114 204.694 203.721 205.106 203.022H205.214V204H206.528V199.284C206.528 197.836 205.551 196.973 203.818 196.973C202.25 196.973 201.133 197.729 200.993 198.89H202.313C202.466 198.389 202.993 198.103 203.754 198.103C204.688 198.103 205.17 198.528 205.17 199.284V199.887L203.297 200.001C201.653 200.103 200.727 200.82 200.727 202.058C200.727 203.314 201.698 204.114 203.031 204.114ZM203.38 203.016C202.637 203.016 202.098 202.642 202.098 202C202.098 201.372 202.529 201.036 203.481 200.972L205.17 200.858V201.455C205.17 202.343 204.408 203.016 203.38 203.016ZM208.471 204H209.835V199.766C209.835 198.865 210.464 198.16 211.295 198.16C212.108 198.16 212.628 198.649 212.628 199.436V204H213.968V199.639C213.968 198.808 214.545 198.16 215.428 198.16C216.323 198.16 216.767 198.624 216.767 199.576V204H218.132V199.246C218.132 197.811 217.319 196.973 215.923 196.973C214.964 196.973 214.171 197.462 213.822 198.205H213.714C213.409 197.462 212.755 196.973 211.81 196.973C210.889 196.973 210.191 197.43 209.886 198.205H209.785V197.106H208.471V204ZM219.89 199.036C219.89 200.058 220.5 200.642 221.813 200.947L223.02 201.232C223.711 201.397 224.035 201.677 224.035 202.108C224.035 202.673 223.432 203.067 222.582 203.067C221.756 203.067 221.249 202.73 221.077 202.191H219.712C219.833 203.391 220.906 204.133 222.55 204.133C224.2 204.133 225.413 203.264 225.413 201.981C225.413 200.979 224.797 200.414 223.483 200.109L222.334 199.842C221.585 199.665 221.236 199.398 221.236 198.973C221.236 198.414 221.813 198.04 222.575 198.04C223.35 198.04 223.845 198.376 223.972 198.89H225.279C225.146 197.697 224.13 196.973 222.575 196.973C221.014 196.973 219.89 197.836 219.89 199.036ZM232.522 204.114C233.43 204.114 234.185 203.721 234.598 203.022H234.706V204H236.02V199.284C236.02 197.836 235.042 196.973 233.309 196.973C231.741 196.973 230.624 197.729 230.484 198.89H231.805C231.957 198.389 232.484 198.103 233.246 198.103C234.179 198.103 234.661 198.528 234.661 199.284V199.887L232.789 200.001C231.145 200.103 230.218 200.82 230.218 202.058C230.218 203.314 231.189 204.114 232.522 204.114ZM232.871 203.016C232.128 203.016 231.589 202.642 231.589 202C231.589 201.372 232.021 201.036 232.973 200.972L234.661 200.858V201.455C234.661 202.343 233.899 203.016 232.871 203.016ZM241.548 196.986C240.609 196.986 239.796 197.462 239.377 198.249H239.276V197.106H237.962V206.298H239.327V202.959H239.435C239.796 203.689 240.577 204.114 241.561 204.114C243.307 204.114 244.417 202.73 244.417 200.553C244.417 198.363 243.307 196.986 241.548 196.986ZM241.161 202.946C240.019 202.946 239.301 202.026 239.301 200.553C239.301 199.074 240.019 198.154 241.167 198.154C242.323 198.154 243.015 199.055 243.015 200.553C243.015 202.051 242.323 202.946 241.161 202.946ZM249.648 196.986C248.708 196.986 247.896 197.462 247.477 198.249H247.375V197.106H246.062V206.298H247.426V202.959H247.534C247.896 203.689 248.677 204.114 249.661 204.114C251.406 204.114 252.517 202.73 252.517 200.553C252.517 198.363 251.406 196.986 249.648 196.986ZM249.261 202.946C248.118 202.946 247.401 202.026 247.401 200.553C247.401 199.074 248.118 198.154 249.267 198.154C250.422 198.154 251.114 199.055 251.114 200.553C251.114 202.051 250.422 202.946 249.261 202.946ZM260.242 204.114C261.194 204.114 262 203.664 262.413 202.908H262.521V204H263.829V194.402H262.464V198.198H262.362C261.988 197.443 261.188 196.986 260.242 196.986C258.497 196.986 257.373 198.376 257.373 200.547C257.373 202.73 258.484 204.114 260.242 204.114ZM260.629 198.154C261.772 198.154 262.489 199.081 262.489 200.553C262.489 202.039 261.778 202.946 260.629 202.946C259.474 202.946 258.782 202.051 258.782 200.553C258.782 199.062 259.48 198.154 260.629 198.154ZM270.411 202.153C270.157 202.711 269.592 203.016 268.767 203.016C267.675 203.016 266.971 202.229 266.926 200.979V200.915H271.808V200.445C271.808 198.287 270.646 196.973 268.723 196.973C266.774 196.973 265.536 198.376 265.536 200.566C265.536 202.769 266.749 204.133 268.729 204.133C270.31 204.133 271.427 203.372 271.725 202.153H270.411ZM268.716 198.084C269.726 198.084 270.386 198.814 270.417 199.931H266.926C267.002 198.82 267.707 198.084 268.716 198.084ZM279.146 197.106H277.698L275.984 202.604H275.876L274.156 197.106H272.696L275.191 204H276.657L279.146 197.106ZM284.795 202.153C284.541 202.711 283.976 203.016 283.151 203.016C282.059 203.016 281.354 202.229 281.31 200.979V200.915H286.191V200.445C286.191 198.287 285.03 196.973 283.106 196.973C281.158 196.973 279.92 198.376 279.92 200.566C279.92 202.769 281.132 204.133 283.113 204.133C284.693 204.133 285.811 203.372 286.109 202.153H284.795ZM283.1 198.084C284.109 198.084 284.77 198.814 284.801 199.931H281.31C281.386 198.82 282.091 198.084 283.1 198.084ZM287.893 204H289.257V194.402H287.893V204ZM294.228 204.133C296.246 204.133 297.484 202.781 297.484 200.553C297.484 198.325 296.24 196.973 294.228 196.973C292.209 196.973 290.965 198.332 290.965 200.553C290.965 202.781 292.203 204.133 294.228 204.133ZM294.228 202.972C293.041 202.972 292.374 202.089 292.374 200.553C292.374 199.017 293.041 198.128 294.228 198.128C295.408 198.128 296.081 199.017 296.081 200.553C296.081 202.083 295.408 202.972 294.228 202.972ZM302.714 196.986C301.775 196.986 300.962 197.462 300.543 198.249H300.442V197.106H299.128V206.298H300.493V202.959H300.601C300.962 203.689 301.743 204.114 302.727 204.114C304.473 204.114 305.583 202.73 305.583 200.553C305.583 198.363 304.473 196.986 302.714 196.986ZM302.327 202.946C301.185 202.946 300.467 202.026 300.467 200.553C300.467 199.074 301.185 198.154 302.333 198.154C303.489 198.154 304.181 199.055 304.181 200.553C304.181 202.051 303.489 202.946 302.327 202.946ZM307.228 204H308.592V199.766C308.592 198.865 309.221 198.16 310.052 198.16C310.865 198.16 311.385 198.649 311.385 199.436V204H312.725V199.639C312.725 198.808 313.302 198.16 314.185 198.16C315.08 198.16 315.524 198.624 315.524 199.576V204H316.889V199.246C316.889 197.811 316.076 196.973 314.68 196.973C313.721 196.973 312.928 197.462 312.579 198.205H312.471C312.166 197.462 311.512 196.973 310.566 196.973C309.646 196.973 308.948 197.43 308.643 198.205H308.542V197.106H307.228V204ZM323.338 202.153C323.084 202.711 322.519 203.016 321.694 203.016C320.602 203.016 319.897 202.229 319.853 200.979V200.915H324.734V200.445C324.734 198.287 323.573 196.973 321.649 196.973C319.701 196.973 318.463 198.376 318.463 200.566C318.463 202.769 319.675 204.133 321.656 204.133C323.236 204.133 324.354 203.372 324.652 202.153H323.338ZM321.643 198.084C322.652 198.084 323.312 198.814 323.344 199.931H319.853C319.929 198.82 320.634 198.084 321.643 198.084ZM326.372 204H327.737V199.957C327.737 198.846 328.378 198.16 329.387 198.16C330.396 198.16 330.879 198.719 330.879 199.861V204H332.244V199.538C332.244 197.894 331.393 196.973 329.851 196.973C328.81 196.973 328.124 197.437 327.788 198.198H327.686V197.106H326.372V204ZM334.649 195.367V197.125H333.551V198.217H334.649V202.185C334.649 203.511 335.252 204.044 336.77 204.044C337.036 204.044 337.29 204.013 337.512 203.975V202.889C337.322 202.908 337.201 202.921 336.992 202.921C336.312 202.921 336.014 202.597 336.014 201.854V198.217H337.512V197.125H336.014V195.367H334.649Z"
 fill="var(--vscode-menu-foreground, #CCCCCC)"/>
</a>
<a href="command:fx-extension.openDocument?%5B%22WalkThrough%22%5D">
<path d="M110 252H408C410.209 252 412 253.791 412 256V358C412 360.209 410.209 362 408 362H110V252Z" fill="var(--vscode-welcomePage-tileHoverBackground, #2c2c2d)"/>
<path d="M135.196 282.136V292H139.079C142.032 292 143.707 290.195 143.707 287.003C143.707 283.906 142.012 282.136 139.079 282.136H135.196ZM137.261 283.838H138.751C140.542 283.838 141.602 285 141.602 287.037C141.602 289.149 140.576 290.298 138.751 290.298H137.261V283.838ZM148.813 292.157C151.131 292.157 152.525 290.694 152.525 288.233C152.525 285.793 151.11 284.31 148.813 284.31C146.517 284.31 145.102 285.8 145.102 288.233C145.102 290.688 146.496 292.157 148.813 292.157ZM148.813 290.585C147.747 290.585 147.146 289.724 147.146 288.233C147.146 286.757 147.754 285.889 148.813 285.889C149.866 285.889 150.481 286.757 150.481 288.233C150.481 289.724 149.873 290.585 148.813 290.585ZM160.824 287.099C160.66 285.417 159.464 284.31 157.468 284.31C155.109 284.31 153.783 285.738 153.783 288.22C153.783 290.729 155.116 292.157 157.468 292.157C159.43 292.157 160.66 291.077 160.824 289.423H158.965C158.814 290.175 158.281 290.578 157.468 290.578C156.401 290.578 155.793 289.737 155.793 288.22C155.793 286.723 156.395 285.896 157.468 285.896C158.315 285.896 158.828 286.374 158.965 287.099H160.824ZM169.205 284.474H167.216V288.821C167.216 289.854 166.683 290.489 165.691 290.489C164.775 290.489 164.304 289.949 164.304 288.883V284.474H162.314V289.375C162.314 291.125 163.326 292.157 164.953 292.157C166.095 292.157 166.799 291.665 167.154 290.79H167.277V292H169.205V284.474ZM171.201 292H173.19V287.461C173.19 286.6 173.744 285.971 174.523 285.971C175.303 285.971 175.768 286.436 175.768 287.242V292H177.682V287.372C177.682 286.559 178.201 285.971 179.008 285.971C179.849 285.971 180.266 286.422 180.266 287.331V292H182.255V286.832C182.255 285.28 181.318 284.31 179.814 284.31C178.762 284.31 177.894 284.863 177.545 285.697H177.422C177.121 284.836 176.396 284.31 175.337 284.31C174.346 284.31 173.56 284.836 173.252 285.697H173.129V284.474H171.201V292ZM189.063 289.874C188.852 290.387 188.312 290.674 187.525 290.674C186.486 290.674 185.83 289.956 185.803 288.808V288.705H190.978V288.11C190.978 285.731 189.665 284.31 187.443 284.31C185.201 284.31 183.82 285.827 183.82 288.274C183.82 290.708 185.174 292.157 187.471 292.157C189.316 292.157 190.622 291.275 190.916 289.874H189.063ZM187.45 285.793C188.38 285.793 188.981 286.436 189.022 287.468H185.81C185.878 286.456 186.527 285.793 187.45 285.793ZM192.611 292H194.601V287.646C194.601 286.627 195.168 285.971 196.091 285.971C197.034 285.971 197.479 286.524 197.479 287.584V292H199.468V287.133C199.468 285.335 198.565 284.31 196.891 284.31C195.776 284.31 195.011 284.836 194.662 285.684H194.539V284.474H192.611V292ZM201.97 282.676V284.542H200.794V286.053H201.97V289.97C201.97 291.433 202.694 292.027 204.526 292.027C204.909 292.027 205.278 291.986 205.524 291.938V290.469C205.333 290.489 205.196 290.503 204.937 290.503C204.26 290.503 203.959 290.188 203.959 289.512V286.053H205.524V284.542H203.959V282.676H201.97ZM209.25 292.116C210.228 292.116 211.048 291.699 211.438 291.002H211.561V292H213.488V286.859C213.488 285.253 212.36 284.31 210.364 284.31C208.471 284.31 207.192 285.178 207.062 286.559H208.895C209.059 286.087 209.537 285.834 210.255 285.834C211.075 285.834 211.526 286.21 211.526 286.859V287.481L209.701 287.591C207.828 287.7 206.782 288.493 206.782 289.854C206.782 291.228 207.801 292.116 209.25 292.116ZM209.906 290.66C209.216 290.66 208.73 290.312 208.73 289.73C208.73 289.177 209.147 288.855 210.002 288.801L211.526 288.698V289.259C211.526 290.052 210.829 290.66 209.906 290.66ZM216.011 282.676V284.542H214.835V286.053H216.011V289.97C216.011 291.433 216.735 292.027 218.567 292.027C218.95 292.027 219.319 291.986 219.565 291.938V290.469C219.374 290.489 219.237 290.503 218.978 290.503C218.301 290.503 218 290.188 218 289.512V286.053H219.565V284.542H218V282.676H216.011ZM222.238 283.318C222.854 283.318 223.359 282.826 223.359 282.211C223.359 281.589 222.854 281.097 222.238 281.097C221.623 281.097 221.11 281.589 221.11 282.211C221.11 282.826 221.623 283.318 222.238 283.318ZM221.24 292H223.229V284.474H221.24V292ZM228.589 292.157C230.906 292.157 232.301 290.694 232.301 288.233C232.301 285.793 230.886 284.31 228.589 284.31C226.292 284.31 224.877 285.8 224.877 288.233C224.877 290.688 226.271 292.157 228.589 292.157ZM228.589 290.585C227.522 290.585 226.921 289.724 226.921 288.233C226.921 286.757 227.529 285.889 228.589 285.889C229.642 285.889 230.257 286.757 230.257 288.233C230.257 289.724 229.648 290.585 228.589 290.585ZM233.928 292H235.917V287.646C235.917 286.627 236.484 285.971 237.407 285.971C238.351 285.971 238.795 286.524 238.795 287.584V292H240.784V287.133C240.784 285.335 239.882 284.31 238.207 284.31C237.093 284.31 236.327 284.836 235.979 285.684H235.855V284.474H233.928V292Z" fill="var(--vscode-badge-foreground, white)"/>
<path opacity="0.8" d="M135.149 304.84V314H138.456C141.186 314 142.766 312.312 142.766 309.398C142.766 306.516 141.173 304.84 138.456 304.84H135.149ZM136.571 306.065H138.297C140.195 306.065 141.319 307.303 141.319 309.417C141.319 311.55 140.214 312.775 138.297 312.775H136.571V306.065ZM145.242 305.875C145.718 305.875 146.105 305.488 146.105 305.018C146.105 304.542 145.718 304.155 145.242 304.155C144.766 304.155 144.378 304.542 144.378 305.018C144.378 305.488 144.766 305.875 145.242 305.875ZM144.562 314H145.921V307.106H144.562V314ZM147.768 309.036C147.768 310.058 148.377 310.642 149.691 310.947L150.897 311.232C151.589 311.397 151.913 311.677 151.913 312.108C151.913 312.673 151.31 313.067 150.459 313.067C149.634 313.067 149.126 312.73 148.955 312.191H147.59C147.711 313.391 148.784 314.133 150.428 314.133C152.078 314.133 153.291 313.264 153.291 311.981C153.291 310.979 152.675 310.414 151.361 310.109L150.212 309.842C149.463 309.665 149.114 309.398 149.114 308.973C149.114 308.414 149.691 308.04 150.453 308.04C151.228 308.04 151.723 308.376 151.85 308.89H153.157C153.024 307.697 152.008 306.973 150.453 306.973C148.892 306.973 147.768 307.836 147.768 309.036ZM160.787 309.322C160.609 307.982 159.562 306.973 157.829 306.973C155.817 306.973 154.592 308.338 154.592 310.528C154.592 312.762 155.823 314.133 157.835 314.133C159.543 314.133 160.609 313.175 160.787 311.816H159.46C159.283 312.565 158.692 312.972 157.829 312.972C156.693 312.972 155.988 312.051 155.988 310.528C155.988 309.036 156.687 308.135 157.829 308.135C158.743 308.135 159.302 308.649 159.46 309.322H160.787ZM165.269 314.133C167.287 314.133 168.525 312.781 168.525 310.553C168.525 308.325 167.281 306.973 165.269 306.973C163.25 306.973 162.006 308.332 162.006 310.553C162.006 312.781 163.244 314.133 165.269 314.133ZM165.269 312.972C164.082 312.972 163.415 312.089 163.415 310.553C163.415 309.017 164.082 308.128 165.269 308.128C166.449 308.128 167.122 309.017 167.122 310.553C167.122 312.083 166.449 312.972 165.269 312.972ZM175.755 307.106H174.308L172.594 312.604H172.486L170.766 307.106H169.306L171.8 314H173.267L175.755 307.106ZM181.404 312.153C181.15 312.711 180.585 313.016 179.76 313.016C178.668 313.016 177.964 312.229 177.919 310.979V310.915H182.801V310.445C182.801 308.287 181.639 306.973 179.716 306.973C177.767 306.973 176.529 308.376 176.529 310.566C176.529 312.769 177.742 314.133 179.722 314.133C181.303 314.133 182.42 313.372 182.718 312.153H181.404ZM179.709 308.084C180.719 308.084 181.379 308.814 181.411 309.931H177.919C177.996 308.82 178.7 308.084 179.709 308.084ZM184.438 314H185.803V309.88C185.803 308.909 186.533 308.243 187.568 308.243C187.809 308.243 188.215 308.287 188.33 308.319V307.037C188.184 307.005 187.923 306.986 187.72 306.986C186.819 306.986 186.051 307.475 185.854 308.154H185.752V307.106H184.438V314ZM199.051 309.322C198.873 307.982 197.826 306.973 196.093 306.973C194.081 306.973 192.855 308.338 192.855 310.528C192.855 312.762 194.087 314.133 196.099 314.133C197.807 314.133 198.873 313.175 199.051 311.816H197.724C197.546 312.565 196.956 312.972 196.093 312.972C194.957 312.972 194.252 312.051 194.252 310.528C194.252 309.036 194.95 308.135 196.093 308.135C197.007 308.135 197.565 308.649 197.724 309.322H199.051ZM203.532 314.133C205.551 314.133 206.789 312.781 206.789 310.553C206.789 308.325 205.544 306.973 203.532 306.973C201.514 306.973 200.27 308.332 200.27 310.553C200.27 312.781 201.507 314.133 203.532 314.133ZM203.532 312.972C202.345 312.972 201.679 312.089 201.679 310.553C201.679 309.017 202.345 308.128 203.532 308.128C204.713 308.128 205.386 309.017 205.386 310.553C205.386 312.083 204.713 312.972 203.532 312.972ZM208.433 314H209.797V309.766C209.797 308.865 210.426 308.16 211.257 308.16C212.07 308.16 212.59 308.649 212.59 309.436V314H213.93V309.639C213.93 308.808 214.507 308.16 215.39 308.16C216.285 308.16 216.729 308.624 216.729 309.576V314H218.094V309.246C218.094 307.811 217.281 306.973 215.885 306.973C214.926 306.973 214.133 307.462 213.784 308.205H213.676C213.371 307.462 212.717 306.973 211.771 306.973C210.851 306.973 210.153 307.43 209.848 308.205H209.747V307.106H208.433V314ZM223.597 306.986C222.658 306.986 221.845 307.462 221.426 308.249H221.325V307.106H220.011V316.298H221.375V312.959H221.483C221.845 313.689 222.626 314.114 223.61 314.114C225.355 314.114 226.466 312.73 226.466 310.553C226.466 308.363 225.355 306.986 223.597 306.986ZM223.21 312.946C222.067 312.946 221.35 312.026 221.35 310.553C221.35 309.074 222.067 308.154 223.216 308.154C224.372 308.154 225.063 309.055 225.063 310.553C225.063 312.051 224.372 312.946 223.21 312.946ZM228.11 314H229.475V309.88C229.475 308.909 230.205 308.243 231.24 308.243C231.481 308.243 231.887 308.287 232.001 308.319V307.037C231.855 307.005 231.595 306.986 231.392 306.986C230.491 306.986 229.723 307.475 229.526 308.154H229.424V307.106H228.11V314ZM237.67 312.153C237.416 312.711 236.851 313.016 236.026 313.016C234.934 313.016 234.229 312.229 234.185 310.979V310.915H239.066V310.445C239.066 308.287 237.905 306.973 235.981 306.973C234.033 306.973 232.795 308.376 232.795 310.566C232.795 312.769 234.007 314.133 235.988 314.133C237.568 314.133 238.686 313.372 238.984 312.153H237.67ZM235.975 308.084C236.984 308.084 237.645 308.814 237.676 309.931H234.185C234.261 308.82 234.966 308.084 235.975 308.084ZM240.768 314H242.132V309.963C242.132 308.884 242.754 308.167 243.872 308.167C244.836 308.167 245.351 308.731 245.351 309.868V314H246.715V309.544C246.715 307.913 245.808 306.979 244.335 306.979C243.294 306.979 242.564 307.437 242.228 308.205H242.12V304.402H240.768V314ZM253.171 312.153C252.917 312.711 252.352 313.016 251.527 313.016C250.435 313.016 249.73 312.229 249.686 310.979V310.915H254.567V310.445C254.567 308.287 253.406 306.973 251.482 306.973C249.534 306.973 248.296 308.376 248.296 310.566C248.296 312.769 249.508 314.133 251.489 314.133C253.069 314.133 254.187 313.372 254.485 312.153H253.171ZM251.476 308.084C252.485 308.084 253.146 308.814 253.177 309.931H249.686C249.762 308.82 250.467 308.084 251.476 308.084ZM256.205 314H257.57V309.957C257.57 308.846 258.211 308.16 259.22 308.16C260.229 308.16 260.712 308.719 260.712 309.861V314H262.077V309.538C262.077 307.894 261.226 306.973 259.684 306.973C258.643 306.973 257.957 307.437 257.621 308.198H257.519V307.106H256.205V314ZM263.841 309.036C263.841 310.058 264.451 310.642 265.765 310.947L266.971 311.232C267.663 311.397 267.986 311.677 267.986 312.108C267.986 312.673 267.383 313.067 266.533 313.067C265.708 313.067 265.2 312.73 265.028 312.191H263.664C263.784 313.391 264.857 314.133 266.501 314.133C268.151 314.133 269.364 313.264 269.364 311.981C269.364 310.979 268.748 310.414 267.434 310.109L266.285 309.842C265.536 309.665 265.187 309.398 265.187 308.973C265.187 308.414 265.765 308.04 266.526 308.04C267.301 308.04 267.796 308.376 267.923 308.89H269.23C269.097 307.697 268.082 306.973 266.526 306.973C264.965 306.973 263.841 307.836 263.841 309.036ZM271.712 305.875C272.188 305.875 272.576 305.488 272.576 305.018C272.576 304.542 272.188 304.155 271.712 304.155C271.236 304.155 270.849 304.542 270.849 305.018C270.849 305.488 271.236 305.875 271.712 305.875ZM271.033 314H272.392V307.106H271.033V314ZM280.25 307.106H278.803L277.089 312.604H276.981L275.261 307.106H273.801L276.295 314H277.762L280.25 307.106ZM285.899 312.153C285.646 312.711 285.081 313.016 284.255 313.016C283.164 313.016 282.459 312.229 282.415 310.979V310.915H287.296V310.445C287.296 308.287 286.134 306.973 284.211 306.973C282.262 306.973 281.024 308.376 281.024 310.566C281.024 312.769 282.237 314.133 284.217 314.133C285.798 314.133 286.915 313.372 287.213 312.153H285.899ZM284.205 308.084C285.214 308.084 285.874 308.814 285.906 309.931H282.415C282.491 308.82 283.195 308.084 284.205 308.084ZM294.024 310.014H293.917V304.402H292.552V314H293.917V311.493L294.52 310.915L296.894 314H298.569L295.535 310.058L298.379 307.106H296.767L294.024 310.014ZM299.826 314H301.191V309.957C301.191 308.846 301.832 308.16 302.841 308.16C303.851 308.16 304.333 308.719 304.333 309.861V314H305.698V309.538C305.698 307.894 304.847 306.973 303.305 306.973C302.264 306.973 301.578 307.437 301.242 308.198H301.14V307.106H299.826V314ZM310.541 314.133C312.56 314.133 313.797 312.781 313.797 310.553C313.797 308.325 312.553 306.973 310.541 306.973C308.522 306.973 307.278 308.332 307.278 310.553C307.278 312.781 308.516 314.133 310.541 314.133ZM310.541 312.972C309.354 312.972 308.688 312.089 308.688 310.553C308.688 309.017 309.354 308.128 310.541 308.128C311.722 308.128 312.395 309.017 312.395 310.553C312.395 312.083 311.722 312.972 310.541 312.972ZM324.176 307.106H322.811L321.58 312.426H321.472L320.05 307.106H318.742L317.32 312.426H317.219L315.981 307.106H314.597L316.501 314H317.904L319.326 308.858H319.434L320.862 314H322.278L324.176 307.106ZM325.648 314H327.013V304.402H325.648V314ZM333.596 312.153C333.342 312.711 332.777 313.016 331.952 313.016C330.86 313.016 330.155 312.229 330.111 310.979V310.915H334.992V310.445C334.992 308.287 333.831 306.973 331.907 306.973C329.958 306.973 328.721 308.376 328.721 310.566C328.721 312.769 329.933 314.133 331.914 314.133C333.494 314.133 334.611 313.372 334.91 312.153H333.596ZM331.901 308.084C332.91 308.084 333.57 308.814 333.602 309.931H330.111C330.187 308.82 330.892 308.084 331.901 308.084ZM339.156 314.114C340.108 314.114 340.915 313.664 341.327 312.908H341.435V314H342.743V304.402H341.378V308.198H341.276C340.902 307.443 340.102 306.986 339.156 306.986C337.411 306.986 336.287 308.376 336.287 310.547C336.287 312.73 337.398 314.114 339.156 314.114ZM339.543 308.154C340.686 308.154 341.403 309.081 341.403 310.553C341.403 312.039 340.692 312.946 339.543 312.946C338.388 312.946 337.696 312.051 337.696 310.553C337.696 309.062 338.395 308.154 339.543 308.154ZM347.707 316.634C349.662 316.634 350.899 315.638 350.899 314.07V307.106H349.592V308.205H349.484C349.097 307.456 348.265 306.986 347.313 306.986C345.548 306.986 344.444 308.376 344.444 310.464C344.444 312.534 345.536 313.898 347.3 313.898C348.252 313.898 349.014 313.486 349.433 312.737H349.535V314.063C349.535 314.997 348.862 315.555 347.726 315.555C346.805 315.555 346.228 315.225 346.113 314.705H344.717C344.863 315.866 345.98 316.634 347.707 316.634ZM347.688 312.769C346.513 312.769 345.853 311.874 345.853 310.464C345.853 309.055 346.513 308.154 347.688 308.154C348.849 308.154 349.56 309.055 349.56 310.464C349.56 311.874 348.855 312.769 347.688 312.769ZM357.412 312.153C357.158 312.711 356.593 313.016 355.768 313.016C354.676 313.016 353.972 312.229 353.927 310.979V310.915H358.809V310.445C358.809 308.287 357.647 306.973 355.724 306.973C353.775 306.973 352.537 308.376 352.537 310.566C352.537 312.769 353.75 314.133 355.73 314.133C357.311 314.133 358.428 313.372 358.726 312.153H357.412ZM355.717 308.084C356.727 308.084 357.387 308.814 357.418 309.931H353.927C354.003 308.82 354.708 308.084 355.717 308.084ZM138.653 330.114C140.398 330.114 141.509 328.724 141.509 326.553C141.509 324.363 140.405 322.986 138.653 322.986C137.707 322.986 136.895 323.449 136.526 324.198H136.418V320.402H135.054V330H136.368V328.908H136.469C136.882 329.67 137.688 330.114 138.653 330.114ZM138.259 324.154C139.415 324.154 140.106 325.062 140.106 326.553C140.106 328.045 139.415 328.946 138.259 328.946C137.11 328.946 136.399 328.032 136.393 326.553C136.399 325.074 137.117 324.154 138.259 324.154ZM145.064 330.114C145.972 330.114 146.727 329.721 147.14 329.022H147.248V330H148.562V325.284C148.562 323.836 147.584 322.973 145.851 322.973C144.283 322.973 143.166 323.729 143.026 324.89H144.347C144.499 324.389 145.026 324.103 145.788 324.103C146.721 324.103 147.203 324.528 147.203 325.284V325.887L145.331 326.001C143.687 326.103 142.76 326.82 142.76 328.058C142.76 329.314 143.731 330.114 145.064 330.114ZM145.413 329.016C144.67 329.016 144.131 328.642 144.131 328C144.131 327.372 144.562 327.036 145.515 326.972L147.203 326.858V327.455C147.203 328.343 146.441 329.016 145.413 329.016ZM150.345 325.036C150.345 326.058 150.955 326.642 152.269 326.947L153.475 327.232C154.167 327.397 154.49 327.677 154.49 328.108C154.49 328.673 153.887 329.067 153.037 329.067C152.211 329.067 151.704 328.73 151.532 328.191H150.167C150.288 329.391 151.361 330.133 153.005 330.133C154.655 330.133 155.868 329.264 155.868 327.981C155.868 326.979 155.252 326.414 153.938 326.109L152.789 325.842C152.04 325.665 151.691 325.398 151.691 324.973C151.691 324.414 152.269 324.04 153.03 324.04C153.805 324.04 154.3 324.376 154.427 324.89H155.734C155.601 323.697 154.585 322.973 153.03 322.973C151.469 322.973 150.345 323.836 150.345 325.036ZM162.044 328.153C161.79 328.711 161.225 329.016 160.4 329.016C159.308 329.016 158.604 328.229 158.559 326.979V326.915H163.44V326.445C163.44 324.287 162.279 322.973 160.355 322.973C158.407 322.973 157.169 324.376 157.169 326.566C157.169 328.769 158.381 330.133 160.362 330.133C161.942 330.133 163.06 329.372 163.358 328.153H162.044ZM160.349 324.084C161.358 324.084 162.019 324.814 162.05 325.931H158.559C158.635 324.82 159.34 324.084 160.349 324.084ZM169.122 330H170.486V324.217H172.01V323.125H170.467V322.446C170.467 321.748 170.778 321.399 171.54 321.399C171.756 321.399 171.94 321.412 172.067 321.431V320.402C171.832 320.364 171.565 320.339 171.254 320.339C169.82 320.339 169.122 321.012 169.122 322.383V323.125H167.985V324.217H169.122V330ZM176.212 330.133C178.23 330.133 179.468 328.781 179.468 326.553C179.468 324.325 178.224 322.973 176.212 322.973C174.193 322.973 172.949 324.332 172.949 326.553C172.949 328.781 174.187 330.133 176.212 330.133ZM176.212 328.972C175.025 328.972 174.358 328.089 174.358 326.553C174.358 325.017 175.025 324.128 176.212 324.128C177.393 324.128 178.065 325.017 178.065 326.553C178.065 328.083 177.393 328.972 176.212 328.972ZM181.112 330H182.477V325.88C182.477 324.909 183.207 324.243 184.242 324.243C184.483 324.243 184.889 324.287 185.003 324.319V323.037C184.857 323.005 184.597 322.986 184.394 322.986C183.493 322.986 182.725 323.475 182.528 324.154H182.426V323.106H181.112V330ZM193.776 330V322.065H196.651V320.84H189.472V322.065H192.354V330H193.776ZM201.526 328.153C201.272 328.711 200.708 329.016 199.882 329.016C198.791 329.016 198.086 328.229 198.042 326.979V326.915H202.923V326.445C202.923 324.287 201.761 322.973 199.838 322.973C197.889 322.973 196.651 324.376 196.651 326.566C196.651 328.769 197.864 330.133 199.844 330.133C201.425 330.133 202.542 329.372 202.84 328.153H201.526ZM199.832 324.084C200.841 324.084 201.501 324.814 201.533 325.931H198.042C198.118 324.82 198.822 324.084 199.832 324.084ZM206.471 330.114C207.379 330.114 208.134 329.721 208.547 329.022H208.655V330H209.969V325.284C209.969 323.836 208.991 322.973 207.258 322.973C205.69 322.973 204.573 323.729 204.434 324.89H205.754C205.906 324.389 206.433 324.103 207.195 324.103C208.128 324.103 208.61 324.528 208.61 325.284V325.887L206.738 326.001C205.094 326.103 204.167 326.82 204.167 328.058C204.167 329.314 205.138 330.114 206.471 330.114ZM206.82 329.016C206.078 329.016 205.538 328.642 205.538 328C205.538 327.372 205.97 327.036 206.922 326.972L208.61 326.858V327.455C208.61 328.343 207.849 329.016 206.82 329.016ZM211.911 330H213.276V325.766C213.276 324.865 213.904 324.16 214.736 324.16C215.548 324.16 216.069 324.649 216.069 325.436V330H217.408V325.639C217.408 324.808 217.986 324.16 218.868 324.16C219.763 324.16 220.208 324.624 220.208 325.576V330H221.572V325.246C221.572 323.811 220.76 322.973 219.363 322.973C218.405 322.973 217.611 323.462 217.262 324.205H217.154C216.85 323.462 216.196 322.973 215.25 322.973C214.33 322.973 213.631 323.43 213.327 324.205H213.225V323.106H211.911V330ZM223.331 325.036C223.331 326.058 223.94 326.642 225.254 326.947L226.46 327.232C227.152 327.397 227.476 327.677 227.476 328.108C227.476 328.673 226.873 329.067 226.022 329.067C225.197 329.067 224.689 328.73 224.518 328.191H223.153C223.273 329.391 224.346 330.133 225.99 330.133C227.641 330.133 228.853 329.264 228.853 327.981C228.853 326.979 228.237 326.414 226.923 326.109L225.774 325.842C225.025 325.665 224.676 325.398 224.676 324.973C224.676 324.414 225.254 324.04 226.016 324.04C226.79 324.04 227.285 324.376 227.412 324.89H228.72C228.586 323.697 227.571 322.973 226.016 322.973C224.454 322.973 223.331 323.836 223.331 325.036ZM235.962 330.114C236.87 330.114 237.625 329.721 238.038 329.022H238.146V330H239.46V325.284C239.46 323.836 238.482 322.973 236.75 322.973C235.182 322.973 234.064 323.729 233.925 324.89H235.245C235.397 324.389 235.924 324.103 236.686 324.103C237.619 324.103 238.102 324.528 238.102 325.284V325.887L236.229 326.001C234.585 326.103 233.658 326.82 233.658 328.058C233.658 329.314 234.629 330.114 235.962 330.114ZM236.312 329.016C235.569 329.016 235.029 328.642 235.029 328C235.029 327.372 235.461 327.036 236.413 326.972L238.102 326.858V327.455C238.102 328.343 237.34 329.016 236.312 329.016ZM244.989 322.986C244.049 322.986 243.237 323.462 242.818 324.249H242.716V323.106H241.402V332.298H242.767V328.959H242.875C243.237 329.689 244.018 330.114 245.001 330.114C246.747 330.114 247.858 328.73 247.858 326.553C247.858 324.363 246.747 322.986 244.989 322.986ZM244.602 328.946C243.459 328.946 242.742 328.026 242.742 326.553C242.742 325.074 243.459 324.154 244.608 324.154C245.763 324.154 246.455 325.055 246.455 326.553C246.455 328.051 245.763 328.946 244.602 328.946ZM253.088 322.986C252.149 322.986 251.336 323.462 250.917 324.249H250.816V323.106H249.502V332.298H250.867V328.959H250.975C251.336 329.689 252.117 330.114 253.101 330.114C254.847 330.114 255.958 328.73 255.958 326.553C255.958 324.363 254.847 322.986 253.088 322.986ZM252.701 328.946C251.559 328.946 250.841 328.026 250.841 326.553C250.841 325.074 251.559 324.154 252.708 324.154C253.863 324.154 254.555 325.055 254.555 326.553C254.555 328.051 253.863 328.946 252.701 328.946ZM263.683 330.114C264.635 330.114 265.441 329.664 265.854 328.908H265.961V330H267.269V320.402H265.904V324.198H265.803C265.428 323.443 264.628 322.986 263.683 322.986C261.937 322.986 260.813 324.376 260.813 326.547C260.813 328.73 261.924 330.114 263.683 330.114ZM264.07 324.154C265.212 324.154 265.93 325.081 265.93 326.553C265.93 328.039 265.219 328.946 264.07 328.946C262.915 328.946 262.223 328.051 262.223 326.553C262.223 325.062 262.921 324.154 264.07 324.154ZM273.852 328.153C273.598 328.711 273.033 329.016 272.208 329.016C271.116 329.016 270.411 328.229 270.367 326.979V326.915H275.248V326.445C275.248 324.287 274.086 322.973 272.163 322.973C270.214 322.973 268.977 324.376 268.977 326.566C268.977 328.769 270.189 330.133 272.169 330.133C273.75 330.133 274.867 329.372 275.166 328.153H273.852ZM272.157 324.084C273.166 324.084 273.826 324.814 273.858 325.931H270.367C270.443 324.82 271.147 324.084 272.157 324.084ZM282.586 323.106H281.139L279.425 328.604H279.317L277.597 323.106H276.137L278.631 330H280.098L282.586 323.106ZM288.235 328.153C287.981 328.711 287.417 329.016 286.591 329.016C285.5 329.016 284.795 328.229 284.75 326.979V326.915H289.632V326.445C289.632 324.287 288.47 322.973 286.547 322.973C284.598 322.973 283.36 324.376 283.36 326.566C283.36 328.769 284.573 330.133 286.553 330.133C288.134 330.133 289.251 329.372 289.549 328.153H288.235ZM286.541 324.084C287.55 324.084 288.21 324.814 288.242 325.931H284.75C284.827 324.82 285.531 324.084 286.541 324.084ZM291.333 330H292.698V320.402H291.333V330ZM297.668 330.133C299.687 330.133 300.924 328.781 300.924 326.553C300.924 324.325 299.68 322.973 297.668 322.973C295.649 322.973 294.405 324.332 294.405 326.553C294.405 328.781 295.643 330.133 297.668 330.133ZM297.668 328.972C296.481 328.972 295.814 328.089 295.814 326.553C295.814 325.017 296.481 324.128 297.668 324.128C298.849 324.128 299.521 325.017 299.521 326.553C299.521 328.083 298.849 328.972 297.668 328.972ZM306.155 322.986C305.215 322.986 304.403 323.462 303.984 324.249H303.882V323.106H302.568V332.298H303.933V328.959H304.041C304.403 329.689 305.184 330.114 306.167 330.114C307.913 330.114 309.024 328.73 309.024 326.553C309.024 324.363 307.913 322.986 306.155 322.986ZM305.768 328.946C304.625 328.946 303.908 328.026 303.908 326.553C303.908 325.074 304.625 324.154 305.774 324.154C306.929 324.154 307.621 325.055 307.621 326.553C307.621 328.051 306.929 328.946 305.768 328.946ZM310.668 330H312.033V325.766C312.033 324.865 312.661 324.16 313.493 324.16C314.305 324.16 314.826 324.649 314.826 325.436V330H316.165V325.639C316.165 324.808 316.743 324.16 317.625 324.16C318.52 324.16 318.964 324.624 318.964 325.576V330H320.329V325.246C320.329 323.811 319.517 322.973 318.12 322.973C317.162 322.973 316.368 323.462 316.019 324.205H315.911C315.606 323.462 314.953 322.973 314.007 322.973C313.086 322.973 312.388 323.43 312.083 324.205H311.982V323.106H310.668V330ZM326.778 328.153C326.524 328.711 325.959 329.016 325.134 329.016C324.042 329.016 323.338 328.229 323.293 326.979V326.915H328.175V326.445C328.175 324.287 327.013 322.973 325.09 322.973C323.141 322.973 321.903 324.376 321.903 326.566C321.903 328.769 323.116 330.133 325.096 330.133C326.677 330.133 327.794 329.372 328.092 328.153H326.778ZM325.083 324.084C326.093 324.084 326.753 324.814 326.785 325.931H323.293C323.37 324.82 324.074 324.084 325.083 324.084ZM329.812 330H331.177V325.957C331.177 324.846 331.818 324.16 332.828 324.16C333.837 324.16 334.319 324.719 334.319 325.861V330H335.684V325.538C335.684 323.894 334.833 322.973 333.291 322.973C332.25 322.973 331.564 323.437 331.228 324.198H331.126V323.106H329.812V330ZM338.09 321.367V323.125H336.992V324.217H338.09V328.185C338.09 329.511 338.693 330.044 340.21 330.044C340.477 330.044 340.73 330.013 340.953 329.975V328.889C340.762 328.908 340.642 328.921 340.432 328.921C339.753 328.921 339.455 328.597 339.455 327.854V324.217H340.953V323.125H339.455V321.367H338.09Z" fill="var(--vscode-menu-foreground, #CCCCCC)"/>
<path d="M0 256C0 253.791 1.79086 252 4 252H110V362H4C1.79086 362 0 360.209 0 358V256Z" fill="var(--vscode-editorGroupHeader-tabsBackground, #252526)"/>
<path d="M71.2667 291.933H57.5333L56.6 292.333L55 293.933L53.4 292.333L52.4667 291.933H38.7333L37.5333 293.267V318.2L38.7333 319.533H51.9333L54.0667 321.667H55.9333L58.0667 319.533H71.2667L72.4667 318.2V293.267L71.2667 291.933ZM53.8 317.8L53.2667 317.4L52.4667 317H40.0667V294.467H51.9333L53.8 296.333V317.8ZM70.0667 317H57.5333L56.6 317.4L56.3333 317.667V296.2L58.0667 294.467H70.0667V317ZM50.0667 299.533H42.4667V301.933H50.0667V299.533ZM50.0667 309.533H42.4667V311.933H50.0667V309.533ZM42.4667 304.467H50.0667V307H42.4667V304.467ZM67.5333 299.533H60.0667V301.933H67.5333V299.533ZM60.0667 304.467H67.5333V307H60.0667V304.467ZM60.0667 309.533H67.5333V311.933H60.0667V309.533Z" fill="var(--vscode-menu-foreground, #CCCCCC)"/>
</a>
</svg>
