<svg width="16" height="16" viewBox="0 0 16 16" fill="none" xmlns="http://www.w3.org/2000/svg">
<path d="M1,1.827 C1,1.37 1.365,1 1.814,1 L9.162,1 C9.286,1.001 9.405,1.032 9.511,1.089 L9.511,1.089 C9.62,1.148 9.715,1.234 9.785,1.342 L13.647,7.267 C13.666,7.294 13.686,7.32 13.705,7.347 C13.923,7.647 14.135,7.939 13.892,8.439 L10.343,14.62 C10.294,14.707 10.229,14.781 10.154,14.84 C10.125,14.862 10.094,14.883 10.062,14.901 L10.062,14.901 C9.951,14.964 9.825,14.999 9.694,14.999 L2.479,15 C2.067,15 1.809,14.549 2.012,14.186 L5.563,8.001 L5.563,8.001 L5.563,8 L5.544,8 L4.247,6.011 L1.543,6.011 C1.243,6.011 1,5.764 1,5.46 Z M3.495,3.37 L4.953,5.613 L5.976,7.183 L12.628,7.183 L9.13,1.817 L2.489,1.817 Z M9.59,14.18 L6.114,8.847 L6.095,8.817 L6.026,8.817 L2.946,14.183 L9.589,14.182 Z M13.18,8.057 C13.184,8.046 13.188,8.037 13.191,8.03 L13.189,8.027 L6.546,8.027 L6.785,8.394 L8.565,11.105 L10.084,13.45 Z M2.076,5.194 L3.715,5.194 L1.805,2.264 L1.805,4.918 C1.805,5.07 1.926,5.194 2.076,5.194 Z" fill="#CCCCCC"/>
</svg>
