<svg width="18" height="18" viewBox="0 0 18 18" fill="none" xmlns="http://www.w3.org/2000/svg">
<path d="M7.18804 2.17382C7.35681 2.06642 7.53274 1.97542 7.71365 1.90081L7.72248 1.89585L7.72309 1.89693C8.72503 1.48727 9.87812 1.57956 10.812 2.17382L14.4475 4.48733C15.2587 5.00358 15.75 5.89853 15.75 6.86012V11.1399C15.75 11.146 15.75 11.152 15.7499 11.1581C15.75 11.1638 15.75 11.1696 15.75 11.1753C15.7381 12.1234 15.2488 13.0028 14.4475 13.5127L10.812 15.8262C9.70642 16.5297 8.29358 16.5297 7.18804 15.8262L4.30835 13.9936C4.24731 13.9601 4.18719 13.9241 4.12812 13.8857L3.66146 13.582L3.55254 13.5127C3.51885 13.4912 3.48571 13.4691 3.45314 13.4464L3.36702 13.3904L3.36985 13.386C2.66811 12.8574 2.25 12.027 2.25 11.1399V6.86012C2.25 5.89853 2.74128 5.00358 3.55254 4.48733L7.18804 2.17382ZM14.625 9.09754V6.86012C14.625 6.28317 14.3302 5.7462 13.8435 5.43645L10.208 3.12294C9.60103 2.73671 8.85517 2.66854 8.19919 2.91843L8.1733 2.93297C7.6416 3.23176 7.3125 3.7942 7.3125 4.4041V6.57884L7.49909 6.46222C8.41776 5.88805 9.58454 5.89256 10.4987 6.47382L14.6001 9.08149C14.6084 9.08679 14.6167 9.09214 14.625 9.09754ZM7.3125 7.90549V8.99987C7.3125 9.53107 7.56262 10.0313 7.98761 10.35L9.00757 11.1148L10.0173 10.3515C10.4393 10.0325 10.6872 9.53421 10.6872 9.00531V7.9268L9.89513 7.42318C9.34661 7.07442 8.64654 7.07172 8.09534 7.41622L7.3125 7.90549ZM11.8122 8.64208V9.00531C11.8122 9.88681 11.3989 10.7173 10.6958 11.2489L7.35818 13.7719C7.14153 13.9357 6.90667 14.0643 6.66138 14.1575L7.79203 14.8771C8.52905 15.3461 9.47094 15.3461 10.208 14.8771L13.8435 12.5635C14.325 12.2571 14.6186 11.7284 14.6249 11.1585C14.6193 10.701 14.3832 10.2767 13.9965 10.0308L11.8122 8.64208ZM6.1875 4.4041C6.1875 4.31399 6.19181 4.22449 6.20029 4.13587L4.15652 5.43645C3.66977 5.7462 3.375 6.28317 3.375 6.86012V11.1399C3.375 11.6876 3.64062 12.1992 4.08394 12.5147L4.2703 12.636L4.87773 13.0225C5.45194 13.3242 6.15488 13.2713 6.67977 12.8745L8.07375 11.8207L7.31269 11.25C6.60437 10.7189 6.1875 9.88521 6.1875 8.99987V4.4041Z" fill="#CCCCCC"/>
</svg>
