<svg width="12" height="14" viewBox="0 0 12 14" fill="none" xmlns="http://www.w3.org/2000/svg">
<path d="M6.45333 2.98667H10.4533L10.9333 3.46667V5.49333H11.4667L12 6.02667V6.98667L11.4667 7.46667H10.9333V10.5067L10.4533 10.9867H7.36L4.85333 13.76L4 13.3867V10.9867H1.49333L0.96 10.3467V7.46667H0.48L0 6.98667V6.02667L0.48 5.49333H0.96V3.36L1.49333 2.98667H5.49333V1.86667C5.35111 1.76 5.22667 1.63555 5.12 1.49333C5.01333 1.35111 4.96 1.17333 4.96 0.96C4.96 0.711111 5.04889 0.497777 5.22667 0.32C5.44 0.106667 5.68889 0 5.97333 0C6.25778 0 6.48889 0.106667 6.66667 0.32C6.88 0.497777 6.98667 0.711111 6.98667 0.96C6.95111 1.35111 6.77333 1.63555 6.45333 1.81333V2.98667ZM9.97333 6.98667V4H1.97333V9.86667L4.48 9.97333H4.96V12.16L6.77333 10.1333L7.14667 9.97333H9.97333V6.98667ZM7.84 7.52C7.44889 7.87556 7.00445 8.10667 6.50667 8.21333C6.04444 8.32 5.6 8.30222 5.17333 8.16C4.74667 8.01778 4.37333 7.78667 4.05333 7.46667L3.36 8.21333C3.71556 8.53333 4.10667 8.8 4.53333 9.01333C4.99556 9.19111 5.47556 9.28 5.97333 9.28C6.47111 9.28 6.93333 9.19111 7.36 9.01333C7.82222 8.8 8.21333 8.53333 8.53333 8.21333L7.84 7.52ZM4.48 5.49333H3.46667V6.50667H4.48V5.49333ZM7.46667 5.49333H8.48V6.50667H7.46667V5.49333Z" fill="#CCCCCC"/>
</svg>
