<svg width="12" height="16" viewBox="0 0 16 16" fill="none" xmlns="http://www.w3.org/2000/svg">
<path d="M12 3.16406V12.8359C12 13.1745 11.901 13.4766 11.7031 13.7422C11.5052 14.0026 11.2422 14.1797 10.9141 14.2734L6.57812 15.5156C6.52083 15.5312 6.45833 15.5443 6.39062 15.5547C6.32812 15.5599 6.26823 15.5625 6.21094 15.5625C6.04427 15.5625 5.89323 15.5417 5.75781 15.5C5.6224 15.4531 5.48438 15.3906 5.34375 15.3125L2.50781 13.7109C2.40365 13.6536 2.32031 13.5781 2.25781 13.4844C2.20052 13.3854 2.17188 13.276 2.17188 13.1562C2.17188 12.974 2.23438 12.8203 2.35938 12.6953C2.48958 12.5651 2.64583 12.5 2.82812 12.5H6.5V3.57812L3.74219 4.5625C3.51823 4.64062 3.33854 4.77865 3.20312 4.97656C3.06771 5.17448 3 5.39062 3 5.625V10.7109C3 10.9193 2.94792 11.112 2.84375 11.2891C2.73958 11.4609 2.59635 11.5964 2.41406 11.6953L1.10938 12.4062C0.989583 12.4688 0.869792 12.5 0.75 12.5C0.541667 12.5 0.364583 12.4271 0.21875 12.2812C0.0729167 12.1354 0 11.9583 0 11.75V4.58594C0 4.32552 0.0677083 4.07552 0.203125 3.83594C0.34375 3.59635 0.528646 3.41146 0.757812 3.28125L5.41406 0.632812C5.51823 0.575521 5.63021 0.53125 5.75 0.5C5.86979 0.46875 5.98958 0.453125 6.10938 0.453125C6.19792 0.453125 6.27604 0.460938 6.34375 0.476562C6.41667 0.486979 6.49479 0.505208 6.57812 0.53125L10.9141 1.72656C11.0755 1.77344 11.2214 1.84375 11.3516 1.9375C11.487 2.02604 11.6016 2.13542 11.6953 2.26562C11.7943 2.39062 11.8698 2.53125 11.9219 2.6875C11.974 2.83854 12 2.9974 12 3.16406ZM11 12.8359V3.16406C11 3.04948 10.9661 2.95052 10.8984 2.86719C10.8307 2.77865 10.7422 2.71875 10.6328 2.6875L8.5 2.10156C8.33333 2.05469 8.16667 2.00781 8 1.96094C7.83333 1.90885 7.66667 1.86198 7.5 1.82031V14.2109L10.6328 13.3125C10.7422 13.2812 10.8307 13.224 10.8984 13.1406C10.9661 13.0521 11 12.9505 11 12.8359Z" fill="#CCCCCC"/>
</svg>
