<svg width="16" height="16" viewBox="0 0 16 16" fill="none" xmlns="http://www.w3.org/2000/svg">
<path d="M14 3.16406V12.8359C14 13.1745 13.901 13.4766 13.7031 13.7422C13.5052 14.0026 13.2422 14.1797 12.9141 14.2734L8.57812 15.5156C8.52083 15.5312 8.45833 15.5443 8.39062 15.5547C8.32812 15.5599 8.26823 15.5625 8.21094 15.5625C8.04427 15.5625 7.89323 15.5417 7.75781 15.5C7.6224 15.4531 7.48438 15.3906 7.34375 15.3125L4.50781 13.7109C4.40365 13.6536 4.32031 13.5781 4.25781 13.4844C4.20052 13.3854 4.17188 13.276 4.17188 13.1562C4.17188 12.974 4.23438 12.8203 4.35938 12.6953C4.48958 12.5651 4.64583 12.5 4.82812 12.5H8.5V3.57812L5.74219 4.5625C5.51823 4.64062 5.33854 4.77865 5.20312 4.97656C5.06771 5.17448 5 5.39062 5 5.625V10.7109C5 10.9193 4.94792 11.112 4.84375 11.2891C4.73958 11.4609 4.59635 11.5964 4.41406 11.6953L3.10938 12.4062C2.98958 12.4688 2.86979 12.5 2.75 12.5C2.54167 12.5 2.36458 12.4271 2.21875 12.2812C2.07292 12.1354 2 11.9583 2 11.75V4.58594C2 4.32552 2.06771 4.07552 2.20312 3.83594C2.34375 3.59635 2.52865 3.41146 2.75781 3.28125L7.41406 0.632812C7.51823 0.575521 7.63021 0.53125 7.75 0.5C7.86979 0.46875 7.98958 0.453125 8.10938 0.453125C8.19792 0.453125 8.27604 0.460938 8.34375 0.476562C8.41667 0.486979 8.49479 0.505208 8.57812 0.53125L12.9141 1.72656C13.0755 1.77344 13.2214 1.84375 13.3516 1.9375C13.487 2.02604 13.6016 2.13542 13.6953 2.26562C13.7943 2.39062 13.8698 2.53125 13.9219 2.6875C13.974 2.83854 14 2.9974 14 3.16406ZM13 12.8359V3.16406C13 3.04948 12.9661 2.95052 12.8984 2.86719C12.8307 2.77865 12.7422 2.71875 12.6328 2.6875L10.5 2.10156C10.3333 2.05469 10.1667 2.00781 10 1.96094C9.83333 1.90885 9.66667 1.86198 9.5 1.82031V14.2109L12.6328 13.3125C12.7422 13.2812 12.8307 13.224 12.8984 13.1406C12.9661 13.0521 13 12.9505 13 12.8359Z" fill="#CCCCCC"/>
</svg>
