<svg width="14" height="14" viewBox="0 0 14 14" fill="none" xmlns="http://www.w3.org/2000/svg">
<path d="M3 10.3067L4.01333 9.29333V10.7333L2.84 11.8533L1.98667 11.48V8.97333H0.493333L0.0133333 8.49333V0.493333L0.493333 0.0133333H12.4933L13.0267 0.493333V4.97333H12.0133V0.973333H1.02667V8.01333H2.52L3 8.49333V10.3067ZM9.29333 12.0133L11.16 13.8267L12.0133 13.5067V12.0133H13.5067L13.9867 11.48V6.52L13.5067 5.98667H5.50667L5.02667 6.52V11.48L5.50667 12.0133H9.29333ZM9.50667 11H5.98667V7H13.0267V11H11.48L11 11.48V12.28L9.82667 11.16L9.50667 11Z" fill="#CCCCCC"/>
</svg>
