<svg width="12" height="15" viewBox="0 0 12 15" fill="none" xmlns="http://www.w3.org/2000/svg">
<path d="M11.3867 10.56C11.1378 9.81333 11.0133 9.03111 11.0133 8.21333V6.18667C11.0133 5.54667 10.9067 4.94222 10.6933 4.37333C10.48 3.76889 10.16 3.23556 9.73333 2.77333C9.30667 2.27556 8.80889 1.88444 8.24 1.6C7.70667 1.28 7.12 1.08444 6.48 1.01333C5.76889 0.942222 5.07556 1.03111 4.4 1.28C3.72444 1.49333 3.12 1.84889 2.58667 2.34667C2.08889 2.80889 1.69778 3.36 1.41333 4C1.12889 4.64 0.986667 5.31556 0.986667 6.02667V8.21333C0.986667 9.03111 0.862222 9.81333 0.613333 10.56L0.0266666 12.32L0.453333 13.0133H3.97333C3.97333 13.5467 4.16889 14.0089 4.56 14.4C4.95111 14.7911 5.41333 14.9867 5.94667 14.9867C6.51556 14.9867 6.99556 14.7911 7.38667 14.4C7.77778 14.0089 7.97333 13.5467 7.97333 13.0133H11.4933L11.9733 12.32L11.3867 10.56ZM6.69333 13.7067C6.48 13.92 6.23111 14.0267 5.94667 14.0267C5.69778 14.0267 5.46667 13.9378 5.25333 13.76C5.07556 13.5467 4.98667 13.2978 4.98667 13.0133H6.96C6.99556 13.2978 6.90667 13.5289 6.69333 13.7067ZM1.14667 12L1.52 10.88C1.84 10.0267 2 9.13778 2 8.21333V6.02667C2 5.45778 2.10667 4.90667 2.32 4.37333C2.56889 3.84 2.88889 3.39556 3.28 3.04C3.70667 2.64889 4.18667 2.36444 4.72 2.18667C5.28889 2.00889 5.84 1.95556 6.37333 2.02667C7.44 2.16889 8.31111 2.63111 8.98667 3.41333C9.30667 3.80444 9.55556 4.24889 9.73333 4.74667C9.91111 5.20889 10 5.68889 10 6.18667V8.21333C10 9.13778 10.1422 10.0444 10.4267 10.9333L10.8 12H1.14667Z" fill="#CCCCCC"/>
</svg>
