<svg width="118" height="118" viewBox="0 0 118 118" fill="none" xmlns="http://www.w3.org/2000/svg">
<g clip-path="url(#clip0_4_1549)">
<path fill-rule="evenodd" clip-rule="evenodd" d="M80.0009 87.2871L33.2265 103.13C32.1579 103.492 30.9996 102.919 30.6373 101.851L6.34596 30.1335C5.98433 29.0649 6.55689 27.9066 7.62481 27.5442L54.3992 11.7013C55.4678 11.3397 56.6268 11.9122 56.9885 12.9802L81.2798 84.6986C81.6414 85.7665 81.0695 86.9247 80.0009 87.2871Z" fill="#E1DFDD"/>
<path fill-rule="evenodd" clip-rule="evenodd" d="M47.8767 50.1194L36.1515 54.091C31.8758 55.539 27.2349 53.2471 25.7861 48.97L22.8381 40.2689C21.3908 35.9932 23.6827 31.3523 27.9591 29.9035L39.6843 25.9326C43.9607 24.4838 48.6016 26.7757 50.0497 31.0528L52.9969 39.754C54.4457 44.0303 52.1524 48.6706 47.8767 50.1194Z" fill="white"/>
<path fill-rule="evenodd" clip-rule="evenodd" d="M44.8669 41.8704C44.2407 42.0826 43.5615 41.7467 43.3493 41.1212L40.0212 31.2953C39.8089 30.6684 40.1448 29.9885 40.7704 29.777C41.3972 29.5648 42.0764 29.9007 42.288 30.5269L45.6169 40.3528C45.8284 40.979 45.4931 41.6582 44.8669 41.8704Z" fill="#C8C6C4"/>
<path fill-rule="evenodd" clip-rule="evenodd" d="M59.3975 84.133L47.6723 88.1039C43.3959 89.5527 38.755 87.2608 37.3069 82.9836L34.359 74.2826C32.9108 70.0062 35.2035 65.3659 39.4792 63.9172L51.2043 59.9456C55.4815 58.4974 60.1223 60.7894 61.5697 65.0658L64.5177 73.7676C65.9665 78.0439 63.6732 82.6842 59.3975 84.133Z" fill="white"/>
<path fill-rule="evenodd" clip-rule="evenodd" d="M33.5288 45.7113C32.9026 45.9228 32.2233 45.5869 32.0112 44.9614L28.683 35.1355C28.4708 34.5087 28.8067 33.8294 29.4329 33.6172C30.0591 33.405 30.7389 33.7409 30.9505 34.3671L34.2787 44.1937C34.4909 44.8192 34.155 45.4991 33.5288 45.7113Z" fill="#C8C6C4"/>
<path fill-rule="evenodd" clip-rule="evenodd" d="M41.2281 46.0523C41.4403 46.6785 41.1044 47.3577 40.4782 47.5699C39.852 47.7821 39.1721 47.4469 38.9598 46.8201C38.7483 46.1945 39.0835 45.5147 39.7104 45.3024C40.3359 45.0902 41.0158 45.4262 41.2281 46.0523Z" fill="#C8C6C4"/>
<path fill-rule="evenodd" clip-rule="evenodd" d="M45.0498 79.7244C44.4236 79.9366 43.7443 79.6007 43.5322 78.9752L40.204 69.1493C39.9918 68.5225 40.3277 67.8425 40.9532 67.631C41.5801 67.4188 42.26 67.7547 42.4709 68.3809L45.7997 78.2068C46.0119 78.833 45.6759 79.5122 45.0498 79.7244Z" fill="#C8C6C4"/>
<path fill-rule="evenodd" clip-rule="evenodd" d="M56.3878 75.8841C55.7616 76.0963 55.0824 75.7604 54.8702 75.1349L51.5413 65.3084C51.3298 64.6822 51.6657 64.0023 52.2912 63.7901C52.9174 63.5779 53.5972 63.9138 53.8089 64.5407L57.137 74.3666C57.3493 74.9927 57.014 75.6719 56.3878 75.8841Z" fill="#C8C6C4"/>
<path fill-rule="evenodd" clip-rule="evenodd" d="M52.7484 80.0662C52.9606 80.6924 52.6247 81.3717 51.9992 81.5838C51.3723 81.7954 50.6931 81.4601 50.4809 80.834C50.2687 80.2085 50.6046 79.5285 51.2308 79.3163C51.8569 79.1041 52.5362 79.44 52.7484 80.0662Z" fill="#C8C6C4"/>
<path fill-rule="evenodd" clip-rule="evenodd" d="M77.9588 39.4745L85.2431 31.0412C85.3783 30.8978 85.619 30.9537 85.6772 31.1421L87.0565 34.6742C87.1073 34.84 87.3042 34.9093 87.4475 34.8117L93.1056 30.9714C93.3558 30.801 93.6435 31.127 93.4439 31.3548L85.7704 40.0755C85.6356 40.2292 85.3838 40.1724 85.3295 39.9753L84.2395 36.1062C84.1909 35.9353 83.9889 35.8639 83.8428 35.9659L78.2948 39.8615C78.04 40.0407 77.7458 39.7004 77.9588 39.4745Z" fill="#E2E2F6"/>
<path fill-rule="evenodd" clip-rule="evenodd" d="M72.0158 33.6309L71.1507 17.998C71.1473 17.7195 71.4448 17.5415 71.6878 17.6769L76.5285 19.901C76.742 20.0185 77.0082 19.8964 77.0576 19.6585L79.0305 10.2542C79.1178 9.83815 79.7272 9.88655 79.7468 10.3122L80.4999 26.6162C80.5131 26.9025 80.2036 27.0894 79.9555 26.9457L75.0785 24.0987C74.8634 23.9725 74.5885 24.0969 74.5406 24.3422L72.7336 33.6958C72.6512 34.1235 72.0216 34.0672 72.0158 33.6309Z" fill="#E2E2F6"/>
<path d="M46.9637 117.188C46.8767 117.188 46.7888 117.185 46.6999 117.176C45.1851 117.032 44.0738 115.687 44.2179 114.173C45.0448 105.465 50.7133 99.6364 58.3368 99.6364C58.3689 99.6364 58.401 99.6364 58.4335 99.6364C62.4359 99.662 65.0414 101.885 67.1356 103.672C69.2559 105.482 70.9285 106.905 73.9319 106.672C79.431 106.233 81.3206 95.6452 81.3381 95.5379C81.5844 94.0381 82.9932 93.0172 84.4992 93.2629C85.9997 93.5068 87.0193 94.9168 86.778 96.4179C86.6795 97.0278 84.2592 111.376 74.3697 112.164C69.0938 112.587 66.0243 109.967 63.5585 107.864C61.5342 106.136 60.297 105.159 58.3983 105.147C58.3789 105.147 58.3599 105.147 58.3409 105.147C53.6426 105.147 50.255 108.887 49.7034 114.694C49.568 116.12 48.3678 117.188 46.9637 117.188Z" fill="#A6A7DC"/>
<path d="M73.6332 62.469L69.7371 73.6747C67.7568 79.3705 68.4824 85.349 71.2291 90.2185L79.8835 87.2871C80.9521 86.9248 81.524 85.7665 81.1624 84.6986L73.6332 62.469Z" fill="#8B8CC7"/>
<path fill-rule="evenodd" clip-rule="evenodd" d="M80.0009 87.2871L33.2265 103.13C32.1579 103.492 30.9996 102.919 30.6373 101.851L6.34596 30.1335C5.98433 29.0649 6.55689 27.9066 7.62481 27.5442L54.3992 11.7013C55.4678 11.3397 56.6268 11.9122 56.9885 12.9802L81.2798 84.6986C81.6414 85.7665 81.0695 86.9247 80.0009 87.2871Z" fill="#E1DFDD"/>
<path fill-rule="evenodd" clip-rule="evenodd" d="M47.8767 50.1194L36.1515 54.091C31.8758 55.539 27.2349 53.2471 25.7861 48.97L22.8381 40.2689C21.3908 35.9932 23.6827 31.3523 27.9591 29.9035L39.6843 25.9326C43.9607 24.4838 48.6016 26.7757 50.0497 31.0528L52.9969 39.754C54.4457 44.0303 52.1524 48.6706 47.8767 50.1194Z" fill="white"/>
<path fill-rule="evenodd" clip-rule="evenodd" d="M44.8669 41.8704C44.2407 42.0826 43.5615 41.7467 43.3493 41.1212L40.0212 31.2953C39.8089 30.6684 40.1448 29.9885 40.7704 29.777C41.3972 29.5648 42.0764 29.9007 42.288 30.5269L45.6169 40.3528C45.8284 40.979 45.4931 41.6582 44.8669 41.8704Z" fill="#C8C6C4"/>
<path fill-rule="evenodd" clip-rule="evenodd" d="M59.3975 84.133L47.6723 88.1039C43.3959 89.5527 38.755 87.2608 37.3069 82.9836L34.359 74.2826C32.9108 70.0062 35.2035 65.3659 39.4792 63.9172L51.2043 59.9456C55.4815 58.4974 60.1223 60.7894 61.5697 65.0658L64.5177 73.7676C65.9665 78.0439 63.6732 82.6842 59.3975 84.133Z" fill="white"/>
<path fill-rule="evenodd" clip-rule="evenodd" d="M33.5288 45.7113C32.9026 45.9228 32.2233 45.5869 32.0112 44.9614L28.683 35.1355C28.4708 34.5087 28.8067 33.8294 29.4329 33.6172C30.0591 33.405 30.7389 33.7409 30.9505 34.3671L34.2787 44.1937C34.4909 44.8192 34.155 45.4991 33.5288 45.7113Z" fill="#C8C6C4"/>
<path fill-rule="evenodd" clip-rule="evenodd" d="M41.2281 46.0523C41.4403 46.6785 41.1044 47.3577 40.4782 47.5699C39.852 47.7821 39.1721 47.4469 38.9598 46.8201C38.7483 46.1945 39.0835 45.5147 39.7104 45.3024C40.3359 45.0902 41.0158 45.4262 41.2281 46.0523Z" fill="#C8C6C4"/>
<path fill-rule="evenodd" clip-rule="evenodd" d="M45.0498 79.7244C44.4236 79.9366 43.7443 79.6007 43.5322 78.9752L40.204 69.1493C39.9918 68.5225 40.3277 67.8425 40.9532 67.631C41.5801 67.4188 42.26 67.7547 42.4709 68.3809L45.7997 78.2068C46.0119 78.833 45.6759 79.5122 45.0498 79.7244Z" fill="#C8C6C4"/>
<path fill-rule="evenodd" clip-rule="evenodd" d="M56.3878 75.8841C55.7616 76.0963 55.0824 75.7604 54.8702 75.1349L51.5413 65.3084C51.3298 64.6822 51.6657 64.0023 52.2912 63.7901C52.9174 63.5779 53.5972 63.9138 53.8089 64.5407L57.137 74.3666C57.3493 74.9927 57.014 75.6719 56.3878 75.8841Z" fill="#C8C6C4"/>
<path fill-rule="evenodd" clip-rule="evenodd" d="M52.7484 80.0662C52.9606 80.6924 52.6247 81.3717 51.9992 81.5838C51.3723 81.7954 50.6931 81.4601 50.4809 80.834C50.2687 80.2085 50.6046 79.5285 51.2308 79.3163C51.8569 79.1041 52.5362 79.44 52.7484 80.0662Z" fill="#C8C6C4"/>
<path fill-rule="evenodd" clip-rule="evenodd" d="M77.9588 39.4745L85.2431 31.0412C85.3783 30.8978 85.619 30.9537 85.6772 31.1421L87.0565 34.6742C87.1073 34.84 87.3042 34.9093 87.4475 34.8117L93.1056 30.9714C93.3558 30.801 93.6435 31.127 93.4439 31.3548L85.7704 40.0755C85.6356 40.2292 85.3838 40.1724 85.3295 39.9753L84.2395 36.1062C84.1909 35.9353 83.9889 35.8639 83.8428 35.9659L78.2948 39.8615C78.04 40.0407 77.7458 39.7004 77.9588 39.4745Z" fill="#E2E2F6"/>
<path fill-rule="evenodd" clip-rule="evenodd" d="M72.0158 33.6309L71.1507 17.998C71.1473 17.7195 71.4448 17.5415 71.6878 17.6769L76.5285 19.901C76.742 20.0185 77.0082 19.8964 77.0576 19.6585L79.0305 10.2542C79.1178 9.83815 79.7272 9.88655 79.7468 10.3122L80.4999 26.6162C80.5131 26.9025 80.2036 27.0894 79.9555 26.9457L75.0785 24.0987C74.8634 23.9725 74.5885 24.0969 74.5406 24.3422L72.7336 33.6958C72.6512 34.1235 72.0216 34.0672 72.0158 33.6309Z" fill="#E2E2F6"/>
<path d="M46.846 117.25C46.7591 117.25 46.6711 117.246 46.5822 117.238C45.0674 117.094 43.9561 115.749 44.1002 114.234C44.9271 105.527 50.5956 99.6981 58.2191 99.6981C58.2512 99.6981 58.2834 99.6981 58.3158 99.6981C62.3182 99.7236 64.9238 101.947 67.0179 103.734C69.1382 105.543 70.8108 106.967 73.8142 106.733C79.3133 106.295 81.2029 95.7069 81.2204 95.5996C81.4667 94.0998 82.8755 93.0789 84.3816 93.3246C85.882 93.5684 86.9016 94.9784 86.6603 96.4795C86.5618 97.0894 84.1415 111.438 74.252 112.226C68.9761 112.648 65.9066 110.029 63.4408 107.926C61.4165 106.198 60.1793 105.22 58.2806 105.208C58.2613 105.208 58.2422 105.208 58.2233 105.208C53.5249 105.208 50.1373 108.949 49.5857 114.755C49.4503 116.182 48.2501 117.25 46.846 117.25Z" fill="#A6A7DC"/>
<path fill-rule="evenodd" clip-rule="evenodd" d="M108.86 51.5888C107.452 51.0963 105.91 51.8388 105.417 53.2475L100.063 68.5528L105.165 70.3379L110.519 55.0326C111.012 53.6238 110.27 52.0814 108.86 51.5888Z" fill="#E1DFDD"/>
<path fill-rule="evenodd" clip-rule="evenodd" d="M91.0041 45.3416C89.5953 44.8491 88.0535 45.5916 87.5603 47.0003L82.2065 62.3056L87.3076 64.0907L92.6627 48.7854C93.156 47.3767 92.4128 45.8342 91.0041 45.3416Z" fill="#E1DFDD"/>
<path d="M82.2308 99.483L82.0519 99.4208C71.5264 95.7612 65.9604 84.262 69.6199 73.7364L73.8321 61.6215C74.2111 60.5311 75.4024 59.9545 76.4927 60.3337L110.84 72.2755C111.93 72.6546 112.506 73.8458 112.127 74.9361L107.915 87.051C104.256 97.5766 92.7564 103.143 82.2308 99.483Z" fill="#A6A7DC"/>
<path fill-rule="evenodd" clip-rule="evenodd" d="M108.86 51.5888C107.452 51.0963 105.91 51.8388 105.417 53.2475L100.063 68.5528L105.165 70.3379L110.519 55.0326C111.012 53.6238 110.27 52.0814 108.86 51.5888Z" fill="#E1DFDD"/>
<path fill-rule="evenodd" clip-rule="evenodd" d="M91.0041 45.3416C89.5953 44.8491 88.0535 45.5916 87.5603 47.0003L82.2065 62.3056L87.3076 64.0907L92.6627 48.7854C93.156 47.3767 92.4128 45.8342 91.0041 45.3416Z" fill="#E1DFDD"/>
<path d="M82.2308 99.483L82.0519 99.4208C71.5264 95.7612 65.9604 84.262 69.6199 73.7364L73.8321 61.6215C74.2111 60.5311 75.4024 59.9545 76.4927 60.3337L110.84 72.2755C111.93 72.6546 112.506 73.8458 112.127 74.9361L107.915 87.051C104.256 97.5766 92.7564 103.143 82.2308 99.483Z" fill="#A6A7DC"/>
<path d="M73.516 62.5306L69.6199 73.7364C67.6396 79.4322 68.3652 85.4106 71.1119 90.2801L79.7664 87.3488C80.8349 86.9865 81.4068 85.8282 81.0452 84.7603L73.516 62.5306Z" fill="#8B8CC7"/>
</g>
<defs>
<clipPath id="clip0_4_1549">
<rect width="117.25" height="117.25" fill="white" transform="translate(0.375)"/>
</clipPath>
</defs>
</svg>
