<svg width="82" height="44" viewBox="0 0 82 44" fill="none" xmlns="http://www.w3.org/2000/svg">
<g id="Group" opacity="0.5">
<path id="Vector" d="M37.2113 43.822C57.7625 43.822 74.4225 42.1123 74.4225 40.0033C74.4225 37.8943 57.7625 36.1846 37.2113 36.1846C16.66 36.1846 0 37.8943 0 40.0033C0 42.1123 16.66 43.822 37.2113 43.822Z" fill="#E1DFDD"/>
<g id="Group_2">
<path id="Vector_2" d="M71.2859 5.53277L64.9385 3.14094C62.9716 2.39979 60.7964 3.44843 60.0799 5.48311L57.1063 13.9283L61.2131 15.4758C64.4174 16.6832 67.9613 14.9748 69.1285 11.66L71.2859 5.53277Z" fill="url(#paint0_linear_230_2105)"/>
<path id="Vector_3" d="M72.6427 6.04399L64.9385 3.14094C62.9716 2.39979 60.7964 3.44843 60.0799 5.48311L59.6289 6.76402L67.1553 9.60008C69.5132 10.4886 72.1209 9.23146 72.9797 6.79227C73.0864 6.48932 72.9355 6.15432 72.6427 6.04399Z" fill="url(#paint1_linear_230_2105)"/>
<path id="Vector_4" d="M38.5651 1.07321L30.3414 0.966865C28.2483 0.93981 26.5303 2.67317 26.5041 4.83849L26.3955 13.8257L38.4091 13.9811L38.5651 1.07321Z" fill="#AEB0D6"/>
<path id="Vector_5" d="M46.6597 6.65405H22.1443C18.2608 6.65405 15.1125 9.91084 15.1125 13.9283H60.3637C60.3638 9.91084 53.3745 6.65405 46.6597 6.65405Z" fill="#FFD590"/>
<path id="Vector_6" d="M16.58 0.368537C16.4188 0.0687936 16.0879 -0.0712925 15.7935 0.0356802L6.24025 3.50757C4.23673 4.23571 5.2077 9.48358 7.74975 8.55973C10.2918 7.63588 14.4724 6.11655 14.4724 6.11655C16.8742 5.2437 17.8178 2.6702 16.58 0.368537Z" fill="#C3C3E1"/>
<path id="Vector_7" d="M40.5357 1.60325C40.4797 1.26516 40.2123 1.01953 39.9004 1.01953H29.7747C27.6511 1.01953 26.8858 6.30369 29.5801 6.30369C32.2745 6.30369 36.7055 6.30369 36.7055 6.30369C39.2513 6.30369 40.9661 4.19922 40.5357 1.60325Z" fill="#AEB0D6"/>
<path id="Vector_8" d="M13.9559 0.703613L6.19653 3.52357C3.37908 4.5475 3.81444 7.35528 5.62535 8.93852C10.1676 12.9098 9.38007 16.1205 9.38007 16.1205L15.0036 14.0768C18.1581 12.9303 19.6505 9.62488 15.3919 5.74547L13.9559 0.703613Z" fill="#C3C3E1"/>
<path id="Vector_9" d="M59.4088 13.9285H31.263C30.5436 13.9285 29.9604 14.5318 29.9604 15.276V25.6259C29.9604 26.3701 30.5436 26.9734 31.263 26.9734H52.6673C57.1099 26.9734 60.7114 23.2477 60.7114 18.6519V15.276C60.7114 14.5318 60.1281 13.9285 59.4088 13.9285Z" fill="url(#paint2_linear_230_2105)"/>
<g id="Group_3">
<mask id="mask0_230_2105" style="mask-type:alpha" maskUnits="userSpaceOnUse" x="8" y="13" width="52" height="26">
<path id="Vector_10" d="M37.1851 13.9285C25.0766 13.9285 8.22089 13.9285 8.22089 13.9285V17.2014C8.22089 29.0702 17.5217 38.6917 28.9949 38.6917H39.5898C49.1034 38.6917 55.7694 32.0638 59.5867 25.7929C50.0855 23.7218 49.2937 13.9285 37.1851 13.9285Z" fill="#C3C3E1"/>
</mask>
<g mask="url(#mask0_230_2105)">
<g id="Group_4">
<path id="Vector_11" d="M37.0232 50.6792H26.1764L20.7531 40.9617L26.1764 31.2441H37.0232L42.4466 40.9617L37.0232 50.6792Z" fill="#6E6FAC" stroke="#8B8CC4" stroke-width="2.02884" stroke-miterlimit="10"/>
<path id="Vector_12" d="M20.7228 40.9619H9.87602L4.45264 31.2444L9.87602 21.5269H20.7228L26.1462 31.2444L20.7228 40.9619Z" fill="#6E6FAC" stroke="#8B8CC4" stroke-width="2.02884" stroke-miterlimit="10"/>
<path id="Vector_13" d="M53.3033 40.9619H42.4565L37.0331 31.2444L42.4565 21.5269H53.3033L58.7267 31.2444L53.3033 40.9619Z" fill="#6E6FAC" stroke="#8B8CC4" stroke-width="2.02884" stroke-miterlimit="10"/>
<path id="Vector_14" d="M69.5314 31.2307H58.6846L53.2612 21.5132L58.6846 11.7957H69.5314L74.9548 21.5132L69.5314 31.2307Z" fill="#6E6FAC" stroke="#8B8CC4" stroke-width="2.02884" stroke-miterlimit="10"/>
<path id="Vector_15" d="M37.0277 31.2443H26.181L20.7576 21.5268L26.181 11.8093H37.0277L42.4511 21.5268L37.0277 31.2443Z" fill="#6E6FAC" stroke="#8B8CC4" stroke-width="2.02884" stroke-miterlimit="10"/>
<path id="Vector_16" d="M4.36545 31.2443H-6.48134L-11.9047 21.5268L-6.48134 11.8093H4.36545L9.78883 21.5268L4.36545 31.2443Z" fill="#6E6FAC" stroke="#8B8CC4" stroke-width="2.02884" stroke-miterlimit="10"/>
<path id="Vector_17" d="M53.3033 21.5268H42.4565L37.0331 11.8093L42.4565 2.0918H53.3033L58.7267 11.8093L53.3033 21.5268Z" fill="#6E6FAC" stroke="#8B8CC4" stroke-width="2.02884" stroke-miterlimit="10"/>
<path id="Vector_18" d="M20.7273 21.5268H9.88054L4.45715 11.8093L9.88054 2.0918H20.7273L26.1507 11.8093L20.7273 21.5268Z" fill="#6E6FAC" stroke="#8B8CC4" stroke-width="2.02884" stroke-miterlimit="10"/>
</g>
</g>
</g>
<path id="Vector_19" d="M59.5867 25.7929C50.0855 23.7218 49.2937 13.9285 37.1851 13.9285" stroke="#8B8CC4" stroke-width="3.22146" stroke-miterlimit="10" stroke-linecap="round"/>
<path id="Vector_20" d="M37.1851 13.9285C25.0766 13.9285 8.22089 13.9285 8.22089 13.9285" stroke="#8B8CC4" stroke-width="3.22146" stroke-miterlimit="10" stroke-linecap="round"/>
<path id="Vector_21" d="M62.545 25.6972C62.545 22.4798 61.523 22.007 60.6455 22.2423C59.7545 22.4812 58.9119 23.8969 58.9119 23.8969L52.3658 14.1006C52.3658 14.1006 60.3097 10.7595 64.7723 12.9431C69.5456 15.2788 70.7733 19.6909 70.7733 24.89L62.545 25.6972Z" fill="#C3C3E1"/>
<path id="Vector_22" d="M54.258 8.39546C55.4024 6.06716 46.0135 5.84751 45.5888 6.55777C44.5087 8.36407 45.1072 10.2912 42.2632 10.2517C39.5948 10.2145 38.9648 12.3238 38.9648 12.3238C38.9648 12.3238 40.7634 13.1929 42.0525 16.2563C44.2385 21.4509 52.0183 20.7545 52.3658 14.1006C52.4652 12.1982 53.3394 10.2643 54.258 8.39546Z" fill="#C3C3E1"/>
<path id="Vector_23" d="M54.6114 4.94461L48.8918 4.76048C46.7995 4.69312 45.0506 6.39314 44.9855 8.55757L44.9445 9.92015L52.1594 10.1524C54.2025 10.2182 55.9103 8.5581 55.9739 6.44457C55.998 5.64118 55.388 4.96961 54.6114 4.94461Z" fill="#C3C3E1"/>
<path id="Vector_24" d="M71.1042 16.2957H70.7162C66.2034 16.2957 62.545 20.0802 62.545 24.7486V24.7486C62.545 29.4171 66.2034 33.2016 70.7162 33.2016H76.6441C79.6021 33.2016 82 30.721 82 27.6611V27.5671C82 21.3421 77.1218 16.2957 71.1042 16.2957Z" fill="#C3C3E1"/>
<path id="Vector_25" opacity="0.5" d="M74.8778 20.8783C75.6502 21.345 79.4372 20.2756 79.4372 20.2756L78.4202 19.2018C78.4202 19.2018 76.1772 20.0621 74.9754 20.4286C74.8468 20.4402 74.7516 20.5574 74.7628 20.6905C74.7696 20.7712 74.8152 20.8399 74.8778 20.8783Z" fill="#8B8CC4"/>
<path id="Vector_26" d="M76.0514 27.6978C76.3806 26.763 76.2234 25.8454 75.7003 25.6483C75.1772 25.4511 74.4862 26.0491 74.157 26.9839C73.8278 27.9187 73.985 28.8363 74.5081 29.0335C75.0313 29.2306 75.7222 28.6326 76.0514 27.6978Z" fill="#605D5A"/>
</g>
</g>
<defs>
<linearGradient id="paint0_linear_230_2105" x1="68.7057" y1="5.11432" x2="52.1523" y2="18.7312" gradientUnits="userSpaceOnUse">
<stop stop-color="#C3C3E1"/>
<stop offset="1" stop-color="#8B8CC4"/>
</linearGradient>
<linearGradient id="paint1_linear_230_2105" x1="68.2797" y1="4.60603" x2="52.3006" y2="17.7505" gradientUnits="userSpaceOnUse">
<stop stop-color="#C3C3E1"/>
<stop offset="1" stop-color="#8B8CC4"/>
</linearGradient>
<linearGradient id="paint2_linear_230_2105" x1="55.5939" y1="15.1265" x2="42.9979" y2="19.9538" gradientUnits="userSpaceOnUse">
<stop stop-color="#C3C3E1"/>
<stop offset="1" stop-color="#8B8CC4"/>
</linearGradient>
</defs>
</svg>
