<svg width="16" height="16" viewBox="0 0 16 16" fill="none" xmlns="http://www.w3.org/2000/svg">
<path fill-rule="evenodd" clip-rule="evenodd" d="M8 15C11.866 15 15 11.866 15 8C15 4.13401 11.866 1 8 1C4.13401 1 1 4.13401 1 8C1 11.866 4.13401 15 8 15ZM10.3818 8.94336C10.3818 10.231 9.42822 11.1494 8.0835 11.1494C6.65527 11.1494 5.61377 10.0728 5.61377 7.91504C5.61377 5.76172 6.58057 4.50488 8.12305 4.50488C9.31396 4.50488 10.1313 5.17285 10.2896 6.1792H9.30078C9.17773 5.64307 8.74268 5.33545 8.14502 5.33545C7.15625 5.33545 6.57617 6.18359 6.55859 7.79199H6.6333C6.93652 7.18115 7.54736 6.82959 8.29883 6.82959C9.50293 6.82959 10.3818 7.72168 10.3818 8.94336ZM6.74316 8.94775C6.74316 9.72998 7.31885 10.3276 8.07471 10.3276C8.83057 10.3276 9.40625 9.73877 9.40625 8.96973C9.40625 8.17432 8.86572 7.61621 8.0835 7.61621C7.30127 7.61621 6.74316 8.17432 6.74316 8.94775Z" fill="#3794FF"/>
</svg>
