<svg width="16" height="16" viewBox="0 0 16 16" fill="none" xmlns="http://www.w3.org/2000/svg">
<path fill-rule="evenodd" clip-rule="evenodd" d="M8 15C11.866 15 15 11.866 15 8C15 4.13401 11.866 1 8 1C4.13401 1 1 4.13401 1 8C1 11.866 4.13401 15 8 15ZM10.2983 8.93457C10.2983 10.2529 9.38867 11.1538 8.04395 11.1538C6.78271 11.1538 5.89502 10.3848 5.8335 9.28174H6.77393C6.84424 9.91455 7.3584 10.332 8.04834 10.332C8.81738 10.332 9.33594 9.77832 9.33594 8.95215C9.33594 8.15234 8.82178 7.61621 8.07471 7.61621C7.51221 7.61621 7.06836 7.87988 6.83545 8.31934H5.93457L6.29053 4.65869H9.96875V5.49365H7.05518L6.87061 7.44043H6.94531C7.23535 7.04932 7.70557 6.84277 8.34717 6.84277C9.41943 6.84277 10.2983 7.66895 10.2983 8.93457Z" fill="#3794FF"/>
</svg>
