<svg width="587" height="400" viewBox="0 0 587 400" fill="none" xmlns="http://www.w3.org/2000/svg">
<rect x="0.5" y="0.5" width="586" height="399" rx="3.5" fill="#1E1E1E"/>
<path d="M0 4C0 1.79086 1.79086 0 4 0H583C585.209 0 587 1.79086 587 4V36H0V4Z" fill="#3C3C3C"/>
<rect width="587" height="364" transform="translate(0 36)" fill="#1E1E1E"/>
<rect width="586" height="39" transform="translate(1 36)" fill="#252526"/>
<rect width="103" height="39" transform="translate(1 36)" fill="#1E1E1E"/>
<rect x="14.4746" y="51.5701" width="76.0516" height="7.85995" rx="3.92998" fill="white" fill-opacity="0.12"/>
<path d="M1 369.42H586V396.014C586 397.671 584.657 399.014 583 399.014H4C2.34315 399.014 1 397.671 1 396.014V369.42Z" fill="#007ACC"/>
<rect x="12.373" y="380.271" width="42.7312" height="7.88943" rx="3.94472" fill="white" fill-opacity="0.75"/>
<rect x="64.1016" y="380.271" width="15.7431" height="7.8895" rx="3.94475" fill="white" fill-opacity="0.75"/>
<g filter="url(#filter0_d_132_96176)">
<rect width="352" height="204" transform="translate(117 52)" fill="#252526"/>
<rect x="124.5" y="59.5" width="337" height="25" fill="#3C3C3C"/>
<path d="M130.168 75.3242V76.708L136.465 73.9595V72.7598L130.168 70.0239V71.4204L134.878 73.3691V73.4326L130.168 75.3242ZM141.537 77V69.0654H144.412V67.8403H137.233V69.0654H140.115V77H141.537ZM149.287 75.1528C149.033 75.7114 148.468 76.0161 147.643 76.0161C146.551 76.0161 145.847 75.229 145.802 73.9785V73.915H150.684V73.4453C150.684 71.2871 149.522 69.9731 147.599 69.9731C145.65 69.9731 144.412 71.376 144.412 73.5659C144.412 75.7686 145.625 77.1333 147.605 77.1333C149.186 77.1333 150.303 76.3716 150.601 75.1528H149.287ZM147.592 71.084C148.602 71.084 149.262 71.814 149.293 72.9312H145.802C145.878 71.8203 146.583 71.084 147.592 71.084ZM154.232 77.1143C155.14 77.1143 155.895 76.7207 156.308 76.0225H156.416V77H157.729V72.2837C157.729 70.8364 156.752 69.9731 155.019 69.9731C153.451 69.9731 152.334 70.7285 152.194 71.8901H153.515C153.667 71.3887 154.194 71.103 154.956 71.103C155.889 71.103 156.371 71.5283 156.371 72.2837V72.8867L154.499 73.001C152.854 73.1025 151.928 73.8198 151.928 75.0576C151.928 76.3145 152.899 77.1143 154.232 77.1143ZM154.581 76.0161C153.838 76.0161 153.299 75.6416 153.299 75.0005C153.299 74.3721 153.73 74.0356 154.683 73.9722L156.371 73.8579V74.4546C156.371 75.3433 155.609 76.0161 154.581 76.0161ZM159.672 77H161.037V72.7661C161.037 71.8647 161.665 71.1602 162.497 71.1602C163.309 71.1602 163.83 71.6489 163.83 72.436V77H165.169V72.6392C165.169 71.8076 165.747 71.1602 166.629 71.1602C167.524 71.1602 167.968 71.6235 167.968 72.5757V77H169.333V72.2456C169.333 70.811 168.521 69.9731 167.124 69.9731C166.166 69.9731 165.372 70.4619 165.023 71.2046H164.915C164.61 70.4619 163.957 69.9731 163.011 69.9731C162.09 69.9731 161.392 70.4302 161.087 71.2046H160.986V70.1064H159.672V77ZM171.091 72.0361C171.091 73.0581 171.701 73.6421 173.015 73.9468L174.221 74.2324C174.913 74.3975 175.236 74.6768 175.236 75.1084C175.236 75.6733 174.633 76.0669 173.783 76.0669C172.958 76.0669 172.45 75.7305 172.278 75.1909H170.914C171.034 76.3906 172.107 77.1333 173.751 77.1333C175.401 77.1333 176.614 76.2637 176.614 74.9814C176.614 73.9785 175.998 73.4136 174.684 73.1089L173.535 72.8423C172.786 72.6646 172.437 72.3979 172.437 71.9727C172.437 71.4141 173.015 71.0396 173.776 71.0396C174.551 71.0396 175.046 71.376 175.173 71.8901H176.48C176.347 70.6968 175.332 69.9731 173.776 69.9731C172.215 69.9731 171.091 70.8364 171.091 72.0361Z" fill="#E3E3E3"/>
<rect x="124.5" y="59.5" width="337" height="25" stroke="#007FD4"/>
<rect width="352" height="24" transform="translate(117 92)" fill="#062F4A"/>
<path d="M133.894 109V101.065H136.77V99.8403H129.59V101.065H132.472V109H133.894ZM141.645 107.153C141.391 107.711 140.826 108.016 140 108.016C138.909 108.016 138.204 107.229 138.16 105.979V105.915H143.041V105.445C143.041 103.287 141.879 101.973 139.956 101.973C138.007 101.973 136.77 103.376 136.77 105.566C136.77 107.769 137.982 109.133 139.962 109.133C141.543 109.133 142.66 108.372 142.958 107.153H141.645ZM139.95 103.084C140.959 103.084 141.619 103.814 141.651 104.931H138.16C138.236 103.82 138.94 103.084 139.95 103.084ZM146.589 109.114C147.497 109.114 148.252 108.721 148.665 108.022H148.773V109H150.087V104.284C150.087 102.836 149.109 101.973 147.376 101.973C145.809 101.973 144.691 102.729 144.552 103.89H145.872C146.024 103.389 146.551 103.103 147.313 103.103C148.246 103.103 148.729 103.528 148.729 104.284V104.887L146.856 105.001C145.212 105.103 144.285 105.82 144.285 107.058C144.285 108.314 145.256 109.114 146.589 109.114ZM146.938 108.016C146.196 108.016 145.656 107.642 145.656 107C145.656 106.372 146.088 106.036 147.04 105.972L148.729 105.858V106.455C148.729 107.343 147.967 108.016 146.938 108.016ZM152.029 109H153.394V104.766C153.394 103.865 154.022 103.16 154.854 103.16C155.667 103.16 156.187 103.649 156.187 104.436V109H157.526V104.639C157.526 103.808 158.104 103.16 158.986 103.16C159.881 103.16 160.326 103.624 160.326 104.576V109H161.69V104.246C161.69 102.811 160.878 101.973 159.481 101.973C158.523 101.973 157.729 102.462 157.38 103.205H157.272C156.968 102.462 156.314 101.973 155.368 101.973C154.448 101.973 153.75 102.43 153.445 103.205H153.343V102.106H152.029V109ZM163.449 104.036C163.449 105.058 164.058 105.642 165.372 105.947L166.578 106.232C167.27 106.397 167.594 106.677 167.594 107.108C167.594 107.673 166.991 108.067 166.14 108.067C165.315 108.067 164.807 107.73 164.636 107.191H163.271C163.392 108.391 164.464 109.133 166.108 109.133C167.759 109.133 168.971 108.264 168.971 106.981C168.971 105.979 168.355 105.414 167.042 105.109L165.893 104.842C165.144 104.665 164.794 104.398 164.794 103.973C164.794 103.414 165.372 103.04 166.134 103.04C166.908 103.04 167.403 103.376 167.53 103.89H168.838C168.705 102.697 167.689 101.973 166.134 101.973C164.572 101.973 163.449 102.836 163.449 104.036Z" fill="#3794FF"/>
<path d="M171.675 104.328C172.215 104.328 172.608 103.928 172.608 103.414C172.608 102.9 172.215 102.5 171.675 102.5C171.142 102.5 170.742 102.9 170.742 103.414C170.742 103.928 171.142 104.328 171.675 104.328ZM171.675 109.095C172.215 109.095 172.608 108.695 172.608 108.181C172.608 107.667 172.215 107.267 171.675 107.267C171.142 107.267 170.742 107.667 170.742 108.181C170.742 108.695 171.142 109.095 171.675 109.095ZM182.187 109.222C184.231 109.222 185.735 108.048 185.989 106.264H184.574C184.32 107.305 183.399 107.959 182.187 107.959C180.537 107.959 179.508 106.601 179.508 104.423C179.508 102.246 180.537 100.881 182.181 100.881C183.387 100.881 184.307 101.605 184.574 102.741H185.989C185.761 100.907 184.199 99.6182 182.181 99.6182C179.635 99.6182 178.055 101.459 178.055 104.423C178.055 107.381 179.642 109.222 182.187 109.222ZM187.703 109H189.068V104.88C189.068 103.909 189.798 103.243 190.833 103.243C191.074 103.243 191.48 103.287 191.594 103.319V102.037C191.448 102.005 191.188 101.986 190.985 101.986C190.083 101.986 189.315 102.475 189.119 103.154H189.017V102.106H187.703V109ZM197.263 107.153C197.009 107.711 196.444 108.016 195.619 108.016C194.527 108.016 193.822 107.229 193.778 105.979V105.915H198.659V105.445C198.659 103.287 197.498 101.973 195.574 101.973C193.625 101.973 192.388 103.376 192.388 105.566C192.388 107.769 193.6 109.133 195.581 109.133C197.161 109.133 198.278 108.372 198.577 107.153H197.263ZM195.568 103.084C196.577 103.084 197.237 103.814 197.269 104.931H193.778C193.854 103.82 194.559 103.084 195.568 103.084ZM202.208 109.114C203.115 109.114 203.871 108.721 204.283 108.022H204.391V109H205.705V104.284C205.705 102.836 204.728 101.973 202.995 101.973C201.427 101.973 200.31 102.729 200.17 103.89H201.49C201.643 103.389 202.169 103.103 202.931 103.103C203.864 103.103 204.347 103.528 204.347 104.284V104.887L202.474 105.001C200.83 105.103 199.903 105.82 199.903 107.058C199.903 108.314 200.875 109.114 202.208 109.114ZM202.557 108.016C201.814 108.016 201.274 107.642 201.274 107C201.274 106.372 201.706 106.036 202.658 105.972L204.347 105.858V106.455C204.347 107.343 203.585 108.016 202.557 108.016ZM208.13 100.367V102.125H207.032V103.217H208.13V107.185C208.13 108.511 208.733 109.044 210.25 109.044C210.517 109.044 210.771 109.013 210.993 108.975V107.889C210.802 107.908 210.682 107.921 210.472 107.921C209.793 107.921 209.495 107.597 209.495 106.854V103.217H210.993V102.125H209.495V100.367H208.13ZM217.055 107.153C216.801 107.711 216.236 108.016 215.411 108.016C214.319 108.016 213.614 107.229 213.57 105.979V105.915H218.451V105.445C218.451 103.287 217.29 101.973 215.366 101.973C213.417 101.973 212.18 103.376 212.18 105.566C212.18 107.769 213.392 109.133 215.373 109.133C216.953 109.133 218.07 108.372 218.369 107.153H217.055ZM215.36 103.084C216.369 103.084 217.029 103.814 217.061 104.931H213.57C213.646 103.82 214.351 103.084 215.36 103.084ZM225.554 109.114C226.462 109.114 227.217 108.721 227.63 108.022H227.738V109H229.052V104.284C229.052 102.836 228.074 101.973 226.341 101.973C224.773 101.973 223.656 102.729 223.517 103.89H224.837C224.989 103.389 225.516 103.103 226.278 103.103C227.211 103.103 227.693 103.528 227.693 104.284V104.887L225.821 105.001C224.177 105.103 223.25 105.82 223.25 107.058C223.25 108.314 224.221 109.114 225.554 109.114ZM225.903 108.016C225.161 108.016 224.621 107.642 224.621 107C224.621 106.372 225.053 106.036 226.005 105.972L227.693 105.858V106.455C227.693 107.343 226.932 108.016 225.903 108.016ZM234.549 109H235.914V104.957C235.914 103.846 236.555 103.16 237.564 103.16C238.573 103.16 239.056 103.719 239.056 104.861V109H240.42V104.538C240.42 102.894 239.57 101.973 238.027 101.973C236.986 101.973 236.301 102.437 235.964 103.198H235.863V102.106H234.549V109ZM246.876 107.153C246.622 107.711 246.057 108.016 245.232 108.016C244.14 108.016 243.436 107.229 243.391 105.979V105.915H248.272V105.445C248.272 103.287 247.111 101.973 245.188 101.973C243.239 101.973 242.001 103.376 242.001 105.566C242.001 107.769 243.213 109.133 245.194 109.133C246.774 109.133 247.892 108.372 248.19 107.153H246.876ZM245.181 103.084C246.19 103.084 246.851 103.814 246.882 104.931H243.391C243.467 103.82 244.172 103.084 245.181 103.084ZM258.86 102.106H257.496L256.264 107.426H256.156L254.734 102.106H253.427L252.005 107.426H251.903L250.666 102.106H249.282L251.186 109H252.589L254.011 103.858H254.119L255.547 109H256.962L258.86 102.106ZM267.728 109V101.065H270.604V99.8403H263.424V101.065H266.306V109H267.728ZM275.479 107.153C275.225 107.711 274.66 108.016 273.834 108.016C272.743 108.016 272.038 107.229 271.994 105.979V105.915H276.875V105.445C276.875 103.287 275.713 101.973 273.79 101.973C271.841 101.973 270.604 103.376 270.604 105.566C270.604 107.769 271.816 109.133 273.796 109.133C275.377 109.133 276.494 108.372 276.792 107.153H275.479ZM273.784 103.084C274.793 103.084 275.453 103.814 275.485 104.931H271.994C272.07 103.82 272.774 103.084 273.784 103.084ZM280.423 109.114C281.331 109.114 282.086 108.721 282.499 108.022H282.607V109H283.921V104.284C283.921 102.836 282.943 101.973 281.21 101.973C279.643 101.973 278.525 102.729 278.386 103.89H279.706C279.858 103.389 280.385 103.103 281.147 103.103C282.08 103.103 282.562 103.528 282.562 104.284V104.887L280.69 105.001C279.046 105.103 278.119 105.82 278.119 107.058C278.119 108.314 279.09 109.114 280.423 109.114ZM280.772 108.016C280.03 108.016 279.49 107.642 279.49 107C279.49 106.372 279.922 106.036 280.874 105.972L282.562 105.858V106.455C282.562 107.343 281.801 108.016 280.772 108.016ZM285.863 109H287.228V104.766C287.228 103.865 287.856 103.16 288.688 103.16C289.5 103.16 290.021 103.649 290.021 104.436V109H291.36V104.639C291.36 103.808 291.938 103.16 292.82 103.16C293.715 103.16 294.16 103.624 294.16 104.576V109H295.524V104.246C295.524 102.811 294.712 101.973 293.315 101.973C292.357 101.973 291.563 102.462 291.214 103.205H291.106C290.802 102.462 290.148 101.973 289.202 101.973C288.282 101.973 287.583 102.43 287.279 103.205H287.177V102.106H285.863V109ZM297.283 104.036C297.283 105.058 297.892 105.642 299.206 105.947L300.412 106.232C301.104 106.397 301.428 106.677 301.428 107.108C301.428 107.673 300.825 108.067 299.974 108.067C299.149 108.067 298.641 107.73 298.47 107.191H297.105C297.226 108.391 298.298 109.133 299.942 109.133C301.593 109.133 302.805 108.264 302.805 106.981C302.805 105.979 302.189 105.414 300.875 105.109L299.727 104.842C298.978 104.665 298.628 104.398 298.628 103.973C298.628 103.414 299.206 103.04 299.968 103.04C300.742 103.04 301.237 103.376 301.364 103.89H302.672C302.539 102.697 301.523 101.973 299.968 101.973C298.406 101.973 297.283 102.836 297.283 104.036ZM309.915 109.114C310.822 109.114 311.578 108.721 311.99 108.022H312.098V109H313.412V104.284C313.412 102.836 312.435 101.973 310.702 101.973C309.134 101.973 308.017 102.729 307.877 103.89H309.197C309.35 103.389 309.876 103.103 310.638 103.103C311.571 103.103 312.054 103.528 312.054 104.284V104.887L310.181 105.001C308.537 105.103 307.61 105.82 307.61 107.058C307.61 108.314 308.582 109.114 309.915 109.114ZM310.264 108.016C309.521 108.016 308.981 107.642 308.981 107C308.981 106.372 309.413 106.036 310.365 105.972L312.054 105.858V106.455C312.054 107.343 311.292 108.016 310.264 108.016ZM318.941 101.986C318.001 101.986 317.189 102.462 316.77 103.249H316.668V102.106H315.354V111.298H316.719V107.959H316.827C317.189 108.689 317.97 109.114 318.954 109.114C320.699 109.114 321.81 107.73 321.81 105.553C321.81 103.363 320.699 101.986 318.941 101.986ZM318.554 107.946C317.411 107.946 316.694 107.026 316.694 105.553C316.694 104.074 317.411 103.154 318.56 103.154C319.715 103.154 320.407 104.055 320.407 105.553C320.407 107.051 319.715 107.946 318.554 107.946ZM327.041 101.986C326.101 101.986 325.289 102.462 324.87 103.249H324.768V102.106H323.454V111.298H324.819V107.959H324.927C325.289 108.689 326.069 109.114 327.053 109.114C328.799 109.114 329.91 107.73 329.91 105.553C329.91 103.363 328.799 101.986 327.041 101.986ZM326.653 107.946C325.511 107.946 324.793 107.026 324.793 105.553C324.793 104.074 325.511 103.154 326.66 103.154C327.815 103.154 328.507 104.055 328.507 105.553C328.507 107.051 327.815 107.946 326.653 107.946Z" fill="#E3E3E3"/>
<rect x="162" y="126" width="38" height="6" rx="3" fill="white" fill-opacity="0.16"/>
<rect x="204" y="126" width="105" height="6" rx="3" fill="white" fill-opacity="0.16"/>
<rect x="129" y="125.901" width="30" height="6" rx="3" fill="#3794FF" fill-opacity="0.6"/>
<rect x="129" y="148" width="30" height="6" rx="3" fill="#3794FF" fill-opacity="0.6"/>
<rect x="163" y="148" width="62" height="6" rx="3" fill="white" fill-opacity="0.16"/>
<rect x="229" y="148" width="62" height="6" rx="3" fill="white" fill-opacity="0.16"/>
<rect x="129" y="170" width="30" height="6" rx="3" fill="#3794FF" fill-opacity="0.6"/>
<rect x="163" y="170" width="41" height="6" rx="3" fill="white" fill-opacity="0.16"/>
<rect x="208" y="170" width="65" height="6" rx="3" fill="white" fill-opacity="0.16"/>
<rect x="129" y="192" width="30" height="6" rx="3" fill="#3794FF" fill-opacity="0.6"/>
<rect x="163" y="192" width="160" height="6" rx="3" fill="white" fill-opacity="0.16"/>
<rect x="129" y="214" width="30" height="6" rx="3" fill="#3794FF" fill-opacity="0.6"/>
<rect x="163" y="214" width="45.5" height="6" rx="3" fill="white" fill-opacity="0.16"/>
<rect x="212.5" y="214" width="45.5" height="6" rx="3" fill="white" fill-opacity="0.16"/>
<rect x="129" y="236" width="30" height="6" rx="3" fill="#3794FF" fill-opacity="0.6"/>
<rect x="163" y="236" width="83" height="6" rx="3" fill="white" fill-opacity="0.16"/>
<rect x="250" y="236" width="98" height="6" rx="3" fill="white" fill-opacity="0.16"/>
</g>
<g filter="url(#filter1_d_132_96176)">
<path d="M249.269 119.28C248.989 118.92 248.639 118.19 248.029 117.28C247.679 116.78 246.819 115.83 246.559 115.34C246.371 115.042 246.317 114.68 246.409 114.34C246.566 113.694 247.178 113.266 247.839 113.34C248.35 113.443 248.819 113.693 249.189 114.06C249.447 114.303 249.685 114.568 249.899 114.85C250.059 115.05 250.099 115.13 250.279 115.36C250.459 115.59 250.579 115.82 250.489 115.48C250.419 114.98 250.299 114.14 250.129 113.39C249.999 112.82 249.969 112.73 249.849 112.3C249.729 111.87 249.659 111.51 249.529 111.02C249.41 110.539 249.317 110.051 249.249 109.56C249.123 108.932 249.215 108.279 249.509 107.71C249.858 107.382 250.371 107.295 250.809 107.49C251.249 107.816 251.578 108.27 251.749 108.79C252.011 109.431 252.186 110.103 252.269 110.79C252.429 111.79 252.739 113.25 252.749 113.55C252.749 113.18 252.679 112.4 252.749 112.05C252.818 111.685 253.072 111.382 253.419 111.25C253.717 111.159 254.032 111.138 254.339 111.19C254.649 111.255 254.924 111.433 255.109 111.69C255.341 112.274 255.469 112.893 255.489 113.52C255.516 112.971 255.61 112.427 255.769 111.9C255.936 111.665 256.18 111.495 256.459 111.42C256.789 111.36 257.128 111.36 257.459 111.42C257.73 111.511 257.967 111.682 258.139 111.91C258.351 112.441 258.479 113.001 258.519 113.57C258.519 113.71 258.589 113.18 258.809 112.83C258.923 112.491 259.21 112.238 259.561 112.167C259.912 112.097 260.274 112.219 260.511 112.487C260.748 112.756 260.823 113.131 260.709 113.47C260.709 114.12 260.709 114.09 260.709 114.53C260.709 114.97 260.709 115.36 260.709 115.73C260.672 116.315 260.592 116.897 260.469 117.47C260.295 117.977 260.053 118.458 259.749 118.9C259.263 119.44 258.862 120.05 258.559 120.71C258.484 121.038 258.45 121.374 258.459 121.71C258.458 122.021 258.498 122.33 258.579 122.63C258.17 122.673 257.758 122.673 257.349 122.63C256.959 122.57 256.479 121.79 256.349 121.55C256.285 121.421 256.153 121.34 256.009 121.34C255.865 121.34 255.733 121.421 255.669 121.55C255.449 121.93 254.959 122.62 254.619 122.66C253.949 122.74 252.569 122.66 251.479 122.66C251.479 122.66 251.659 121.66 251.249 121.3C250.839 120.94 250.419 120.52 250.109 120.24L249.269 119.28Z" fill="white"/>
<path fill-rule="evenodd" clip-rule="evenodd" d="M261.084 115.753C261.085 115.165 261.085 115.165 261.085 114.53V113.527C261.212 113.077 261.104 112.592 260.793 112.239C260.468 111.87 259.97 111.703 259.488 111.8C259.159 111.866 258.871 112.048 258.672 112.305C258.619 112.124 258.558 111.946 258.488 111.771C258.222 111.395 257.922 111.179 257.579 111.064C257.152 110.983 256.767 110.983 256.392 111.051C256.017 111.151 255.71 111.357 255.493 111.643C255.482 111.612 255.47 111.582 255.458 111.552C255.174 111.138 254.818 110.907 254.416 110.823C254.037 110.759 253.663 110.783 253.31 110.892C253.082 110.978 252.887 111.111 252.733 111.279C252.696 111.072 252.666 110.893 252.64 110.731C252.555 110.025 252.371 109.319 252.097 108.648C251.911 108.079 251.536 107.56 251.032 107.188C250.386 106.891 249.712 107.005 249.253 107.437L249.177 107.538C248.843 108.183 248.739 108.922 248.882 109.634C248.948 110.116 249.044 110.616 249.166 111.11C249.222 111.323 249.222 111.324 249.342 111.825L249.373 111.954C249.414 112.122 249.449 112.26 249.488 112.401C249.556 112.64 249.582 112.733 249.604 112.816L249.617 112.865C249.659 113.021 249.699 113.188 249.764 113.473C249.824 113.736 249.876 114.001 249.927 114.288C249.776 114.114 249.616 113.946 249.447 113.787C249.032 113.375 248.496 113.089 247.914 112.972C247.033 112.872 246.247 113.422 246.045 114.252C245.929 114.683 245.999 115.153 246.242 115.54C246.358 115.759 246.581 116.061 246.979 116.554L247.04 116.63C247.502 117.2 247.585 117.302 247.662 117.409C247.68 117.435 247.699 117.461 247.722 117.495C247.867 117.711 248.121 118.13 248.366 118.533C248.639 118.985 248.902 119.417 248.987 119.527L249.827 120.487C249.937 120.589 250.229 120.865 250.429 121.054C250.528 121.147 250.604 121.22 250.625 121.239C250.722 121.33 250.811 121.411 250.897 121.488C250.923 121.512 250.936 121.523 250.949 121.535C250.963 121.547 250.976 121.559 251.002 121.582C251.062 121.634 251.112 121.766 251.133 121.957C251.151 122.12 251.146 122.301 251.127 122.476C251.12 122.533 251.114 122.574 251.111 122.594C251.069 122.824 251.246 123.035 251.48 123.035C251.749 123.035 252.027 123.039 252.468 123.049L252.621 123.053C253.817 123.08 254.266 123.08 254.664 123.032C255.119 122.979 255.603 122.413 256.014 121.718C256.363 122.363 256.812 122.927 257.293 123.001C257.745 123.049 258.184 123.049 258.619 123.003C258.848 122.979 259.002 122.755 258.942 122.533C258.87 122.265 258.834 121.989 258.835 121.711C258.827 121.396 258.857 121.091 258.925 120.794C259.188 120.241 259.568 119.663 260.028 119.151C260.382 118.643 260.639 118.131 260.824 117.592C260.964 116.957 261.046 116.357 261.084 115.753ZM251.001 120.563C250.806 120.378 250.465 120.056 250.361 119.962L249.561 119.043C249.502 118.964 249.312 118.649 249.09 118.282C248.828 117.847 248.521 117.34 248.341 117.071C248.258 116.952 248.155 116.817 248.014 116.641C247.96 116.573 247.921 116.525 247.823 116.404L247.623 116.158L247.562 116.083C247.198 115.631 246.989 115.349 246.891 115.164C246.745 114.931 246.707 114.676 246.772 114.438C246.886 113.966 247.325 113.66 247.798 113.713C248.205 113.796 248.608 114.011 248.925 114.326C249.176 114.562 249.399 114.811 249.601 115.077C249.663 115.155 249.703 115.208 249.765 115.295C249.871 115.444 249.902 115.485 249.984 115.591C249.99 115.599 250.006 115.62 250.027 115.649C250.085 115.727 250.181 115.857 250.213 115.891C250.252 115.941 250.252 115.941 250.452 116.023C250.88 115.865 250.882 115.861 250.894 115.66C250.899 115.581 250.886 115.511 250.852 115.384C250.738 114.549 250.637 113.93 250.495 113.307C250.428 113.014 250.386 112.838 250.342 112.673L250.328 112.62C250.305 112.533 250.277 112.436 250.211 112.199C250.174 112.068 250.141 111.937 250.102 111.777L250.071 111.651C249.95 111.142 249.949 111.14 249.892 110.924C249.778 110.462 249.687 109.987 249.621 109.509C249.513 108.965 249.581 108.422 249.812 107.943C250.049 107.752 250.375 107.707 250.657 107.833C250.965 108.071 251.247 108.461 251.393 108.907C251.652 109.541 251.818 110.181 251.897 110.835C251.941 111.108 251.993 111.405 252.063 111.784L252.094 111.952C252.369 113.424 252.371 113.435 252.375 113.563C252.391 114.054 253.125 114.042 253.125 113.55C253.125 113.442 253.123 113.384 253.109 113.059C253.103 112.93 253.101 112.876 253.099 112.801C253.088 112.469 253.093 112.243 253.117 112.124C253.163 111.883 253.328 111.686 253.553 111.6C253.772 111.534 254.028 111.518 254.277 111.56C254.481 111.603 254.675 111.728 254.806 111.909C254.977 112.372 255.096 112.948 255.115 113.532C255.13 114.012 255.841 114.018 255.864 113.538C255.888 113.042 255.971 112.549 256.11 112.072C256.224 111.931 256.381 111.83 256.557 111.782C256.813 111.737 257.106 111.737 257.392 111.789C257.54 111.842 257.714 111.968 257.84 112.135C257.989 112.543 258.108 113.065 258.146 113.596C258.143 113.596 258.141 113.595 258.14 113.596C258.134 113.599 258.15 113.635 258.243 113.843C258.624 113.909 258.74 113.93 258.795 113.881C258.819 113.86 258.832 113.825 258.851 113.776L258.851 113.776C258.876 113.723 258.876 113.723 258.884 113.701C258.893 113.674 258.903 113.637 258.92 113.571C258.957 113.43 258.991 113.32 259.036 113.212C259.065 113.141 259.096 113.08 259.127 113.03C259.237 112.737 259.416 112.579 259.636 112.535C259.856 112.491 260.082 112.567 260.23 112.735C260.379 112.903 260.426 113.138 260.354 113.35L260.335 113.47V115.73C260.3 116.273 260.222 116.836 260.103 117.391C259.952 117.823 259.725 118.274 259.441 118.688C258.96 119.217 258.538 119.859 258.219 120.553C258.112 120.985 258.075 121.352 258.085 121.72C258.084 121.906 258.098 122.096 258.126 122.285C257.88 122.292 257.634 122.283 257.389 122.257C257.267 122.238 256.896 121.771 256.679 121.371C256.557 121.127 256.296 120.965 256.01 120.965C255.723 120.965 255.462 121.127 255.334 121.383C255.086 121.81 254.689 122.274 254.576 122.288C254.229 122.329 253.786 122.329 252.638 122.303L252.485 122.299C252.249 122.294 252.06 122.291 251.892 122.288C251.897 122.15 251.894 122.011 251.879 121.876C251.839 121.515 251.726 121.219 251.497 121.018C251.472 120.997 251.46 120.986 251.448 120.975C251.435 120.963 251.423 120.952 251.397 120.93C251.316 120.857 251.231 120.778 251.137 120.691C251.122 120.677 251.071 120.629 251.001 120.563Z" fill="black"/>
<path d="M257.75 119.826V116.374C257.75 116.167 257.582 116 257.375 116C257.168 116 257 116.167 257 116.374V119.826C257 120.033 257.168 120.2 257.375 120.2C257.582 120.2 257.75 120.033 257.75 119.826Z" fill="black"/>
<path d="M255.77 119.825L255.75 116.371C255.749 116.165 255.58 115.999 255.373 116C255.166 116.001 254.999 116.169 255 116.375L255.02 119.829C255.021 120.035 255.19 120.201 255.397 120.2C255.604 120.199 255.771 120.031 255.77 119.825Z" fill="black"/>
<path d="M253 116.379L253.02 119.825C253.021 120.033 253.19 120.201 253.397 120.2C253.604 120.199 253.771 120.029 253.77 119.821L253.75 116.375C253.749 116.167 253.58 115.999 253.373 116C253.166 116.001 252.999 116.171 253 116.379Z" fill="black"/>
</g>
<rect x="0.5" y="0.5" width="586" height="399" rx="3.5" stroke="#3C3C3C"/>
<defs>
<filter id="filter0_d_132_96176" x="101" y="38" width="384" height="236" filterUnits="userSpaceOnUse" color-interpolation-filters="sRGB">
<feFlood flood-opacity="0" result="BackgroundImageFix"/>
<feColorMatrix in="SourceAlpha" type="matrix" values="0 0 0 0 0 0 0 0 0 0 0 0 0 0 0 0 0 0 127 0" result="hardAlpha"/>
<feOffset dy="2"/>
<feGaussianBlur stdDeviation="8"/>
<feColorMatrix type="matrix" values="0 0 0 0 0 0 0 0 0 0 0 0 0 0 0 0 0 0 0.36 0"/>
<feBlend mode="normal" in2="BackgroundImageFix" result="effect1_dropShadow_132_96176"/>
<feBlend mode="normal" in="SourceGraphic" in2="effect1_dropShadow_132_96176" result="shape"/>
</filter>
<filter id="filter1_d_132_96176" x="245.19" y="107.022" width="16.7465" height="17.8488" filterUnits="userSpaceOnUse" color-interpolation-filters="sRGB">
<feFlood flood-opacity="0" result="BackgroundImageFix"/>
<feColorMatrix in="SourceAlpha" type="matrix" values="0 0 0 0 0 0 0 0 0 0 0 0 0 0 0 0 0 0 127 0" result="hardAlpha"/>
<feOffset dy="1"/>
<feGaussianBlur stdDeviation="0.4"/>
<feColorMatrix type="matrix" values="0 0 0 0 0 0 0 0 0 0 0 0 0 0 0 0 0 0 0.5 0"/>
<feBlend mode="normal" in2="BackgroundImageFix" result="effect1_dropShadow_132_96176"/>
<feBlend mode="normal" in="SourceGraphic" in2="effect1_dropShadow_132_96176" result="shape"/>
</filter>
</defs>
</svg>
