<svg width="587" height="400" viewBox="0 0 587 400" fill="none" xmlns="http://www.w3.org/2000/svg">
<path d="M1 4C1 2.34315 2.34315 1 4 1H583C584.657 1 586 2.34315 586 4V37H1V4Z" fill="#3C3C3C"/>
<rect width="48" height="332" transform="translate(1 37)" fill="#333333"/>
<g opacity="0.5">
<rect x="18" y="54" width="14" height="14" stroke="white" stroke-opacity="0.6" stroke-width="2"/>
</g>
<g opacity="0.5">
<rect x="18" y="104" width="14" height="14" stroke="white" stroke-opacity="0.6" stroke-width="2"/>
</g>
<g opacity="0.5">
<rect x="18" y="154" width="14" height="14" stroke="white" stroke-opacity="0.6" stroke-width="2"/>
</g>
<path fill-rule="evenodd" clip-rule="evenodd" d="M26.1872 208V209H33.248C33.766 209 34.187 209.386 34.187 209.861V214.75C34.187 216.335 32.785 217.62 31.056 217.62C30.695 217.62 30.2261 217.553 29.8311 217.327C29.1571 218.899 27.5961 220 25.7772 220H25.5972C23.6542 220 22.0053 218.744 21.4173 217H15.1875C14.6375 217 14.1875 216.55 14.1875 216V206C14.1875 205.45 14.6375 205 15.1875 205H23.1873C23.1873 203.343 24.5302 202 26.1872 202C27.8441 202 29.1871 203.343 29.1871 205C29.1871 206.657 27.8441 208 26.1872 208ZM28.1871 205C28.1871 206.103 27.2901 207 26.1871 207V206C26.1871 205.45 25.7371 205 25.1871 205H24.1872C24.1872 203.897 25.0841 203 26.1871 203C27.2901 203 28.1871 203.897 28.1871 205ZM20.6553 214.875V209.055H22.8192V207.125H16.5554V209.055H18.7323V214.875H20.6553ZM29.187 215.59V215.631C29.185 215.657 29.184 215.685 29.185 215.713C29.12 217.536 27.6161 219 25.7771 219H25.5971C24.2192 219 23.0302 218.179 22.4922 217H25.1871C25.7371 217 26.1871 216.55 26.1871 216V210H29.187V215.59ZM33.187 214.75C33.187 215.781 32.231 216.62 31.056 216.62C30.948 216.62 30.472 216.606 30.221 216.381C30.2238 216.231 30.2122 216.087 30.2017 215.958L30.199 215.924L30.195 215.882L30.195 215.882C30.1902 215.832 30.1856 215.784 30.184 215.74C30.186 215.69 30.187 215.64 30.187 215.59V210H33.187V214.75ZM33.387 206C33.387 206.662 32.849 207.2 32.187 207.2C31.525 207.2 30.987 206.662 30.987 206C30.987 205.338 31.525 204.8 32.187 204.8C32.849 204.8 33.387 205.338 33.387 206ZM32.187 204C33.2919 204 34.1869 204.896 34.1869 206C34.1869 207.104 33.2919 208 32.187 208C31.083 208 30.187 207.104 30.187 206C30.187 204.896 31.083 204 32.187 204Z" fill="white"/>
<rect x="1.00391" y="187" width="3.5999" height="48" fill="white"/>
<rect width="328" height="332" transform="translate(49 37)" fill="#252526"/>
<g opacity="0.5">
<rect x="61" y="48" width="53" height="6" rx="3" fill="#616161"/>
</g>
<g opacity="0.5">
<path d="M71.08 79L66.7067 74.68L67.3467 74.04L71.9867 78.7333V79.32L67.3467 84.0133L66.7067 83.3733L71.08 79Z" fill="#D4D4D4"/>
<rect x="81" y="76" width="53" height="6" rx="3" fill="#616161"/>
</g>
<line x1="49" y1="92.5" x2="377" y2="92.5" stroke="#3C3C3C"/>
<path d="M69 109.08L73.32 104.707L73.96 105.347L69.2667 109.987H68.68L63.9867 105.347L64.6267 104.707L69 109.08Z" fill="#D4D4D4"/>
<path d="M82.0254 102.545V111H85.3535C87.8848 111 89.3203 109.453 89.3203 106.717C89.3203 104.062 87.8672 102.545 85.3535 102.545H82.0254ZM83.7949 104.004H85.0723C86.6074 104.004 87.5156 105 87.5156 106.746C87.5156 108.557 86.6367 109.541 85.0723 109.541H83.7949V104.004ZM96.6035 109.541H92.7715V107.402H96.3867V106.043H92.7715V104.004H96.6035V102.545H91.002V111H96.6035V109.541ZM98.4668 102.545V111H100.236V108.334H101.906C103.688 108.334 104.924 107.174 104.924 105.451C104.924 103.705 103.734 102.545 101.994 102.545H98.4668ZM100.236 103.951H101.525C102.545 103.951 103.125 104.473 103.125 105.457C103.125 106.418 102.533 106.945 101.52 106.945H100.236V103.951ZM112.084 109.512H108.322V102.545H106.553V111H112.084V109.512ZM117.152 102.328C114.662 102.328 113.08 104.027 113.08 106.77C113.08 109.506 114.639 111.217 117.152 111.217C119.648 111.217 121.219 109.506 121.219 106.77C121.219 104.033 119.643 102.328 117.152 102.328ZM117.152 103.828C118.523 103.828 119.408 104.971 119.408 106.77C119.408 108.562 118.529 109.717 117.152 109.717C115.758 109.717 114.891 108.562 114.891 106.77C114.891 104.971 115.775 103.828 117.152 103.828ZM126.51 111V107.842L129.451 102.545H127.535L125.678 106.102H125.572L123.709 102.545H121.793L124.74 107.842V111H126.51ZM139.857 111V102.545H137.777L135.434 108.375H135.328L132.99 102.545H130.904V111H132.545V105.275H132.639L134.795 110.584H135.973L138.123 105.275H138.217V111H139.857ZM147.51 109.541H143.678V107.402H147.293V106.043H143.678V104.004H147.51V102.545H141.908V111H147.51V109.541ZM151.066 111V105.592H151.172L155.074 111H156.539V102.545H154.846V107.93H154.74L150.85 102.545H149.373V111H151.066ZM162.416 111V104.004H164.953V102.545H158.109V104.004H160.646V111H162.416Z" fill="#E3E3E3"/>
<rect width="326" height="28" transform="translate(50 121)" fill="white" fill-opacity="0.05"/>
<path d="M87.4933 139H85.7333L84.0267 137.293V133.507L83.4933 132.973H82V131H82.48L83.0133 130.52V128.493L82.48 128.013H80.5067L80.0267 128.493V130.52L80.5067 131H80.9867V132.973H79.4933L79.0133 133.507V137.293L77.3067 139H75.4933L75.0133 139.48V141.507L75.4933 141.987H77.52L78 141.507V139.693L79.7067 137.987H83.28L84.9867 139.693V141.507L85.52 141.987H87.4933L88.0267 141.507V139.48L87.4933 139ZM80.9867 128.973H82V129.987H80.9867V128.973ZM80.0267 133.987H83.0133V136.973H80.0267V133.987ZM76.9867 140.973H76.0267V140.013H76.9867V140.973ZM87.0133 140.973H86V140.013H87.0133V140.973Z" fill="#CCCCCC"/>
<path d="M95.0605 130.545V139H96.373V136.111H98.3301C99.9883 136.111 101.16 134.975 101.16 133.346C101.16 131.682 100.023 130.545 98.3711 130.545H95.0605ZM96.373 131.652H98.0254C99.1797 131.652 99.8184 132.25 99.8184 133.346C99.8184 134.406 99.1562 135.01 98.0254 135.01H96.373V131.652ZM102.707 139H103.967V135.197C103.967 134.301 104.641 133.686 105.596 133.686C105.818 133.686 106.193 133.727 106.299 133.756V132.572C106.164 132.543 105.924 132.525 105.736 132.525C104.904 132.525 104.195 132.977 104.014 133.604H103.92V132.637H102.707V139ZM110.043 139.123C111.906 139.123 113.049 137.875 113.049 135.818C113.049 133.762 111.9 132.514 110.043 132.514C108.18 132.514 107.031 133.768 107.031 135.818C107.031 137.875 108.174 139.123 110.043 139.123ZM110.043 138.051C108.947 138.051 108.332 137.236 108.332 135.818C108.332 134.4 108.947 133.58 110.043 133.58C111.133 133.58 111.754 134.4 111.754 135.818C111.754 137.23 111.133 138.051 110.043 138.051ZM119.723 132.637H118.387L116.805 137.711H116.705L115.117 132.637H113.77L116.072 139H117.426L119.723 132.637ZM121.65 131.5C122.09 131.5 122.447 131.143 122.447 130.709C122.447 130.27 122.09 129.912 121.65 129.912C121.211 129.912 120.854 130.27 120.854 130.709C120.854 131.143 121.211 131.5 121.65 131.5ZM121.023 139H122.277V132.637H121.023V139ZM123.982 134.418C123.982 135.361 124.545 135.9 125.758 136.182L126.871 136.445C127.51 136.598 127.809 136.855 127.809 137.254C127.809 137.775 127.252 138.139 126.467 138.139C125.705 138.139 125.236 137.828 125.078 137.33H123.818C123.93 138.438 124.92 139.123 126.438 139.123C127.961 139.123 129.08 138.32 129.08 137.137C129.08 136.211 128.512 135.689 127.299 135.408L126.238 135.162C125.547 134.998 125.225 134.752 125.225 134.359C125.225 133.844 125.758 133.498 126.461 133.498C127.176 133.498 127.633 133.809 127.75 134.283H128.957C128.834 133.182 127.896 132.514 126.461 132.514C125.02 132.514 123.982 133.311 123.982 134.418ZM131.248 131.5C131.688 131.5 132.045 131.143 132.045 130.709C132.045 130.27 131.688 129.912 131.248 129.912C130.809 129.912 130.451 130.27 130.451 130.709C130.451 131.143 130.809 131.5 131.248 131.5ZM130.621 139H131.875V132.637H130.621V139ZM136.422 139.123C138.285 139.123 139.428 137.875 139.428 135.818C139.428 133.762 138.279 132.514 136.422 132.514C134.559 132.514 133.41 133.768 133.41 135.818C133.41 137.875 134.553 139.123 136.422 139.123ZM136.422 138.051C135.326 138.051 134.711 137.236 134.711 135.818C134.711 134.4 135.326 133.58 136.422 133.58C137.512 133.58 138.133 134.4 138.133 135.818C138.133 137.23 137.512 138.051 136.422 138.051ZM140.945 139H142.205V135.268C142.205 134.242 142.797 133.609 143.729 133.609C144.66 133.609 145.105 134.125 145.105 135.18V139H146.365V134.881C146.365 133.363 145.58 132.514 144.156 132.514C143.195 132.514 142.562 132.941 142.252 133.645H142.158V132.637H140.945V139ZM152.072 131.5C152.512 131.5 152.869 131.143 152.869 130.709C152.869 130.27 152.512 129.912 152.072 129.912C151.633 129.912 151.275 130.27 151.275 130.709C151.275 131.143 151.633 131.5 152.072 131.5ZM151.445 139H152.699V132.637H151.445V139ZM154.551 139H155.811V135.268C155.811 134.242 156.402 133.609 157.334 133.609C158.266 133.609 158.711 134.125 158.711 135.18V139H159.971V134.881C159.971 133.363 159.186 132.514 157.762 132.514C156.801 132.514 156.168 132.941 155.857 133.645H155.764V132.637H154.551V139ZM165.473 131.031V132.654H164.459V133.662H165.473V137.324C165.473 138.549 166.029 139.041 167.43 139.041C167.676 139.041 167.91 139.012 168.115 138.977V137.975C167.939 137.992 167.828 138.004 167.635 138.004C167.008 138.004 166.732 137.705 166.732 137.02V133.662H168.115V132.654H166.732V131.031H165.473ZM169.656 139H170.916V135.273C170.916 134.277 171.49 133.615 172.521 133.615C173.412 133.615 173.887 134.137 173.887 135.186V139H175.146V134.887C175.146 133.381 174.309 132.52 172.949 132.52C171.988 132.52 171.314 132.941 171.004 133.65H170.904V130.141H169.656V139ZM181.105 137.295C180.871 137.811 180.35 138.092 179.588 138.092C178.58 138.092 177.93 137.365 177.889 136.211V136.152H182.395V135.719C182.395 133.727 181.322 132.514 179.547 132.514C177.748 132.514 176.605 133.809 176.605 135.83C176.605 137.863 177.725 139.123 179.553 139.123C181.012 139.123 182.043 138.42 182.318 137.295H181.105ZM179.541 133.539C180.473 133.539 181.082 134.213 181.111 135.244H177.889C177.959 134.219 178.609 133.539 179.541 133.539ZM192.59 134.682C192.426 133.445 191.459 132.514 189.859 132.514C188.002 132.514 186.871 133.773 186.871 135.795C186.871 137.857 188.008 139.123 189.865 139.123C191.441 139.123 192.426 138.238 192.59 136.984H191.365C191.201 137.676 190.656 138.051 189.859 138.051C188.811 138.051 188.16 137.201 188.16 135.795C188.16 134.418 188.805 133.586 189.859 133.586C190.703 133.586 191.219 134.061 191.365 134.682H192.59ZM194.09 139H195.35V130.141H194.09V139ZM199.938 139.123C201.801 139.123 202.943 137.875 202.943 135.818C202.943 133.762 201.795 132.514 199.938 132.514C198.074 132.514 196.926 133.768 196.926 135.818C196.926 137.875 198.068 139.123 199.938 139.123ZM199.938 138.051C198.842 138.051 198.227 137.236 198.227 135.818C198.227 134.4 198.842 133.58 199.938 133.58C201.027 133.58 201.648 134.4 201.648 135.818C201.648 137.23 201.027 138.051 199.938 138.051ZM209.84 132.637H208.58V136.369C208.58 137.395 208.023 138.016 207.004 138.016C206.078 138.016 205.662 137.512 205.662 136.457V132.637H204.402V136.768C204.402 138.262 205.188 139.123 206.6 139.123C207.566 139.123 208.217 138.713 208.527 137.992H208.627V139H209.84V132.637ZM214 139.105C214.879 139.105 215.623 138.689 216.004 137.992H216.104V139H217.311V130.141H216.051V133.645H215.957C215.611 132.947 214.873 132.525 214 132.525C212.389 132.525 211.352 133.809 211.352 135.812C211.352 137.828 212.377 139.105 214 139.105ZM214.357 133.604C215.412 133.604 216.074 134.459 216.074 135.818C216.074 137.189 215.418 138.027 214.357 138.027C213.291 138.027 212.652 137.201 212.652 135.818C212.652 134.441 213.297 133.604 214.357 133.604Z" fill="#E3E3E3"/>
<path d="M85.9467 160.973H86C86.8178 161.009 87.5111 161.311 88.08 161.88C88.6844 162.449 88.9867 163.16 88.9867 164.013C88.9867 164.831 88.6844 165.542 88.08 166.147C87.5111 166.716 86.8178 167 86 167H84.0267V165.987H86C86.5333 165.987 86.9778 165.791 87.3333 165.4C87.7244 165.009 87.92 164.547 87.92 164.013C87.92 163.48 87.7244 163.018 87.3333 162.627C86.9778 162.236 86.5333 162.022 86 161.987H85.0933L84.9867 161.133C84.9156 160.6 84.6667 160.138 84.24 159.747C83.8489 159.356 83.3689 159.124 82.8 159.053C82.2667 158.947 81.7511 159.036 81.2533 159.32C80.7911 159.604 80.4533 159.996 80.24 160.493L79.92 161.24L79.0667 161.08C78.8889 161.044 78.7111 161.009 78.5333 160.973C77.8222 161.009 77.2356 161.258 76.7733 161.72C76.4178 162.076 76.1867 162.502 76.08 163C75.9733 163.498 76.0089 163.978 76.1867 164.44C76.4 164.902 76.72 165.276 77.1467 165.56C77.5733 165.844 78.0356 165.987 78.5333 165.987H81.04V167H78.5333C78.0356 167 77.5556 166.911 77.0933 166.733C76.6311 166.52 76.24 166.218 75.92 165.827C75.3867 165.258 75.0844 164.6 75.0133 163.853C74.9422 163.071 75.1022 162.36 75.4933 161.72C75.7422 161.293 76.0622 160.938 76.4533 160.653C76.88 160.333 77.3422 160.138 77.84 160.067C78.3378 159.96 78.8356 159.978 79.3333 160.12C79.6533 159.409 80.1511 158.858 80.8267 158.467C81.5022 158.076 82.2133 157.933 82.96 158.04C83.7422 158.147 84.4 158.484 84.9333 159.053C85.5022 159.587 85.84 160.244 85.9467 161.027V160.973ZM84.2933 164.867L82.96 163.533V168.973H82V163.587L80.72 164.867L80.0267 164.12L82.16 161.987H82.8533L84.9867 164.12L84.2933 164.867Z" fill="#CCCCCC"/>
<path d="M95.0605 158.545V167H98.1133C100.633 167 102.092 165.441 102.092 162.752C102.092 160.092 100.621 158.545 98.1133 158.545H95.0605ZM96.373 159.676H97.9668C99.7188 159.676 100.756 160.818 100.756 162.77C100.756 164.738 99.7363 165.869 97.9668 165.869H96.373V159.676ZM107.91 165.295C107.676 165.811 107.154 166.092 106.393 166.092C105.385 166.092 104.734 165.365 104.693 164.211V164.152H109.199V163.719C109.199 161.727 108.127 160.514 106.352 160.514C104.553 160.514 103.41 161.809 103.41 163.83C103.41 165.863 104.529 167.123 106.357 167.123C107.816 167.123 108.848 166.42 109.123 165.295H107.91ZM106.346 161.539C107.277 161.539 107.887 162.213 107.916 163.244H104.693C104.764 162.219 105.414 161.539 106.346 161.539ZM114.021 160.525C113.154 160.525 112.404 160.965 112.018 161.691H111.924V160.637H110.711V169.121H111.971V166.039H112.07C112.404 166.713 113.125 167.105 114.033 167.105C115.645 167.105 116.67 165.828 116.67 163.818C116.67 161.797 115.645 160.525 114.021 160.525ZM113.664 166.027C112.609 166.027 111.947 165.178 111.947 163.818C111.947 162.453 112.609 161.604 113.67 161.604C114.736 161.604 115.375 162.436 115.375 163.818C115.375 165.201 114.736 166.027 113.664 166.027ZM118.246 167H119.506V158.141H118.246V167ZM124.094 167.123C125.957 167.123 127.1 165.875 127.1 163.818C127.1 161.762 125.951 160.514 124.094 160.514C122.23 160.514 121.082 161.768 121.082 163.818C121.082 165.875 122.225 167.123 124.094 167.123ZM124.094 166.051C122.998 166.051 122.383 165.236 122.383 163.818C122.383 162.4 122.998 161.58 124.094 161.58C125.184 161.58 125.805 162.4 125.805 163.818C125.805 165.23 125.184 166.051 124.094 166.051ZM129.004 169.309C130.305 169.309 130.908 168.822 131.453 167.293L133.832 160.637H132.496L130.902 165.734H130.803L129.203 160.637H127.832L130.141 167.018L130.047 167.346C129.83 168.02 129.49 168.271 128.893 168.271C128.775 168.271 128.582 168.266 128.482 168.248V169.279C128.6 169.297 128.898 169.309 129.004 169.309ZM138.848 159.031V160.654H137.834V161.662H138.848V165.324C138.848 166.549 139.404 167.041 140.805 167.041C141.051 167.041 141.285 167.012 141.49 166.977V165.975C141.314 165.992 141.203 166.004 141.01 166.004C140.383 166.004 140.107 165.705 140.107 165.02V161.662H141.49V160.654H140.107V159.031H138.848ZM145.598 167.123C147.461 167.123 148.604 165.875 148.604 163.818C148.604 161.762 147.455 160.514 145.598 160.514C143.734 160.514 142.586 161.768 142.586 163.818C142.586 165.875 143.729 167.123 145.598 167.123ZM145.598 166.051C144.502 166.051 143.887 165.236 143.887 163.818C143.887 162.4 144.502 161.58 145.598 161.58C146.688 161.58 147.309 162.4 147.309 163.818C147.309 165.23 146.688 166.051 145.598 166.051ZM153.848 159.031V160.654H152.834V161.662H153.848V165.324C153.848 166.549 154.404 167.041 155.805 167.041C156.051 167.041 156.285 167.012 156.49 166.977V165.975C156.314 165.992 156.203 166.004 156.01 166.004C155.383 166.004 155.107 165.705 155.107 165.02V161.662H156.49V160.654H155.107V159.031H153.848ZM158.031 167H159.291V163.273C159.291 162.277 159.865 161.615 160.896 161.615C161.787 161.615 162.262 162.137 162.262 163.186V167H163.521V162.887C163.521 161.381 162.684 160.52 161.324 160.52C160.363 160.52 159.689 160.941 159.379 161.65H159.279V158.141H158.031V167ZM169.48 165.295C169.246 165.811 168.725 166.092 167.963 166.092C166.955 166.092 166.305 165.365 166.264 164.211V164.152H170.77V163.719C170.77 161.727 169.697 160.514 167.922 160.514C166.123 160.514 164.98 161.809 164.98 163.83C164.98 165.863 166.1 167.123 167.928 167.123C169.387 167.123 170.418 166.42 170.693 165.295H169.48ZM167.916 161.539C168.848 161.539 169.457 162.213 169.486 163.244H166.264C166.334 162.219 166.984 161.539 167.916 161.539ZM179.178 167.205C181.064 167.205 182.453 166.121 182.688 164.475H181.381C181.146 165.436 180.297 166.039 179.178 166.039C177.654 166.039 176.705 164.785 176.705 162.775C176.705 160.766 177.654 159.506 179.172 159.506C180.285 159.506 181.135 160.174 181.381 161.223H182.688C182.477 159.529 181.035 158.34 179.172 158.34C176.822 158.34 175.363 160.039 175.363 162.775C175.363 165.506 176.828 167.205 179.178 167.205ZM184.328 167H185.588V158.141H184.328V167ZM190.176 167.123C192.039 167.123 193.182 165.875 193.182 163.818C193.182 161.762 192.033 160.514 190.176 160.514C188.312 160.514 187.164 161.768 187.164 163.818C187.164 165.875 188.307 167.123 190.176 167.123ZM190.176 166.051C189.08 166.051 188.465 165.236 188.465 163.818C188.465 162.4 189.08 161.58 190.176 161.58C191.266 161.58 191.887 162.4 191.887 163.818C191.887 165.23 191.266 166.051 190.176 166.051ZM200.078 160.637H198.818V164.369C198.818 165.395 198.262 166.016 197.242 166.016C196.316 166.016 195.9 165.512 195.9 164.457V160.637H194.641V164.768C194.641 166.262 195.426 167.123 196.838 167.123C197.805 167.123 198.455 166.713 198.766 165.992H198.865V167H200.078V160.637ZM204.238 167.105C205.117 167.105 205.861 166.689 206.242 165.992H206.342V167H207.549V158.141H206.289V161.645H206.195C205.85 160.947 205.111 160.525 204.238 160.525C202.627 160.525 201.59 161.809 201.59 163.812C201.59 165.828 202.615 167.105 204.238 167.105ZM204.596 161.604C205.65 161.604 206.312 162.459 206.312 163.818C206.312 165.189 205.656 166.027 204.596 166.027C203.529 166.027 202.891 165.201 202.891 163.818C202.891 162.441 203.535 161.604 204.596 161.604Z" fill="#E3E3E3"/>
<path d="M87.0667 189.987L84.72 187.587L85.4133 186.893L88.9867 190.52L85.4133 194.093L84.72 193.4L87.0667 191H76.9867V189.987H87.0667ZM75.0133 187H76.0267V193.987H75.0133V187Z" fill="#CCCCCC"/>
<path d="M95.0605 186.545V195H96.373V192.111H98.3301C99.9883 192.111 101.16 190.975 101.16 189.346C101.16 187.682 100.023 186.545 98.3711 186.545H95.0605ZM96.373 187.652H98.0254C99.1797 187.652 99.8184 188.25 99.8184 189.346C99.8184 190.406 99.1562 191.01 98.0254 191.01H96.373V187.652ZM108.086 188.637H106.826V192.369C106.826 193.395 106.27 194.016 105.25 194.016C104.324 194.016 103.908 193.512 103.908 192.457V188.637H102.648V192.768C102.648 194.262 103.434 195.123 104.846 195.123C105.812 195.123 106.463 194.713 106.773 193.992H106.873V195H108.086V188.637ZM113.295 195.105C114.906 195.105 115.932 193.822 115.932 191.818C115.932 189.797 114.912 188.525 113.295 188.525C112.422 188.525 111.672 188.953 111.332 189.645H111.232V186.141H109.973V195H111.186V193.992H111.279C111.66 194.695 112.404 195.105 113.295 195.105ZM112.932 189.604C113.998 189.604 114.637 190.441 114.637 191.818C114.637 193.195 113.998 194.027 112.932 194.027C111.871 194.027 111.215 193.184 111.209 191.818C111.215 190.453 111.877 189.604 112.932 189.604ZM117.508 195H118.768V186.141H117.508V195ZM121.311 187.5C121.75 187.5 122.107 187.143 122.107 186.709C122.107 186.27 121.75 185.912 121.311 185.912C120.871 185.912 120.514 186.27 120.514 186.709C120.514 187.143 120.871 187.5 121.311 187.5ZM120.684 195H121.938V188.637H120.684V195ZM123.643 190.418C123.643 191.361 124.205 191.9 125.418 192.182L126.531 192.445C127.17 192.598 127.469 192.855 127.469 193.254C127.469 193.775 126.912 194.139 126.127 194.139C125.365 194.139 124.896 193.828 124.738 193.33H123.479C123.59 194.438 124.58 195.123 126.098 195.123C127.621 195.123 128.74 194.32 128.74 193.137C128.74 192.211 128.172 191.689 126.959 191.408L125.898 191.162C125.207 190.998 124.885 190.752 124.885 190.359C124.885 189.844 125.418 189.498 126.121 189.498C126.836 189.498 127.293 189.809 127.41 190.283H128.617C128.494 189.182 127.557 188.514 126.121 188.514C124.68 188.514 123.643 189.311 123.643 190.418ZM130.316 195H131.576V191.273C131.576 190.277 132.15 189.615 133.182 189.615C134.072 189.615 134.547 190.137 134.547 191.186V195H135.807V190.887C135.807 189.381 134.969 188.52 133.609 188.52C132.648 188.52 131.975 188.941 131.664 189.65H131.564V186.141H130.316V195ZM141.309 187.031V188.654H140.295V189.662H141.309V193.324C141.309 194.549 141.865 195.041 143.266 195.041C143.512 195.041 143.746 195.012 143.951 194.977V193.975C143.775 193.992 143.664 194.004 143.471 194.004C142.844 194.004 142.568 193.705 142.568 193.02V189.662H143.951V188.654H142.568V187.031H141.309ZM148.059 195.123C149.922 195.123 151.064 193.875 151.064 191.818C151.064 189.762 149.916 188.514 148.059 188.514C146.195 188.514 145.047 189.768 145.047 191.818C145.047 193.875 146.189 195.123 148.059 195.123ZM148.059 194.051C146.963 194.051 146.348 193.236 146.348 191.818C146.348 190.4 146.963 189.58 148.059 189.58C149.148 189.58 149.77 190.4 149.77 191.818C149.77 193.23 149.148 194.051 148.059 194.051ZM159.467 195V187.676H162.121V186.545H155.494V187.676H158.154V195H159.467ZM166.621 193.295C166.387 193.811 165.865 194.092 165.104 194.092C164.096 194.092 163.445 193.365 163.404 192.211V192.152H167.91V191.719C167.91 189.727 166.838 188.514 165.062 188.514C163.264 188.514 162.121 189.809 162.121 191.83C162.121 193.863 163.24 195.123 165.068 195.123C166.527 195.123 167.559 194.42 167.834 193.295H166.621ZM165.057 189.539C165.988 189.539 166.598 190.213 166.627 191.244H163.404C163.475 190.219 164.125 189.539 165.057 189.539ZM171.186 195.105C172.023 195.105 172.721 194.742 173.102 194.098H173.201V195H174.414V190.646C174.414 189.311 173.512 188.514 171.912 188.514C170.465 188.514 169.434 189.211 169.305 190.283H170.523C170.664 189.82 171.15 189.557 171.854 189.557C172.715 189.557 173.16 189.949 173.16 190.646V191.203L171.432 191.309C169.914 191.402 169.059 192.064 169.059 193.207C169.059 194.367 169.955 195.105 171.186 195.105ZM171.508 194.092C170.822 194.092 170.324 193.746 170.324 193.154C170.324 192.574 170.723 192.264 171.602 192.205L173.16 192.1V192.65C173.16 193.471 172.457 194.092 171.508 194.092ZM176.207 195H177.467V191.092C177.467 190.26 178.047 189.609 178.814 189.609C179.564 189.609 180.045 190.061 180.045 190.787V195H181.281V190.975C181.281 190.207 181.814 189.609 182.629 189.609C183.455 189.609 183.865 190.037 183.865 190.916V195H185.125V190.611C185.125 189.287 184.375 188.514 183.086 188.514C182.201 188.514 181.469 188.965 181.146 189.65H181.047C180.766 188.965 180.162 188.514 179.289 188.514C178.439 188.514 177.795 188.936 177.514 189.65H177.42V188.637H176.207V195ZM186.748 190.418C186.748 191.361 187.311 191.9 188.523 192.182L189.637 192.445C190.275 192.598 190.574 192.855 190.574 193.254C190.574 193.775 190.018 194.139 189.232 194.139C188.471 194.139 188.002 193.828 187.844 193.33H186.584C186.695 194.438 187.686 195.123 189.203 195.123C190.727 195.123 191.846 194.32 191.846 193.137C191.846 192.211 191.277 191.689 190.064 191.408L189.004 191.162C188.312 190.998 187.99 190.752 187.99 190.359C187.99 189.844 188.523 189.498 189.227 189.498C189.941 189.498 190.398 189.809 190.516 190.283H191.723C191.6 189.182 190.662 188.514 189.227 188.514C187.785 188.514 186.748 189.311 186.748 190.418Z" fill="#E3E3E3"/>
<path d="M76.9867 213.987V224.013H87.0133V213.987H76.9867ZM86 223H78V215H86V223Z" fill="#707070"/>
<rect x="94" y="216" width="120" height="6" rx="3" fill="#434344"/>
<path d="M76.9867 241.987V252.013H87.0133V241.987H76.9867ZM86 251H78V243H86V251Z" fill="#707070"/>
<rect x="94" y="244" width="72" height="6" rx="3" fill="#434344"/>
<rect x="49.5" y="120.5" width="327" height="141" stroke="#007ACC"/>
<g opacity="0.5">
<path d="M71.08 275L66.7067 270.68L67.3467 270.04L71.9867 274.733V275.32L67.3467 280.013L66.7067 279.373L71.08 275Z" fill="#D4D4D4"/>
<rect x="81" y="272" width="53" height="6" rx="3" fill="#616161"/>
</g>
<rect width="209" height="39" transform="translate(377 37)" fill="#252526"/>
<rect width="103" height="39" transform="translate(377 37)" fill="#1E1E1E"/>
<rect x="390.475" y="52.5701" width="76.0516" height="7.85995" rx="3.92998" fill="white" fill-opacity="0.12"/>
<rect x="377" y="76" width="209" height="293" fill="#1E1E1E"/>
<rect x="409" y="100" width="50" height="7" rx="3.5" fill="white" fill-opacity="0.16"/>
<rect x="409" y="119" width="50" height="7" rx="3.5" fill="white" fill-opacity="0.16"/>
<rect x="409" y="176" width="65.4545" height="7" rx="3.5" fill="white" fill-opacity="0.16"/>
<rect x="479.909" y="176" width="23.6364" height="7" rx="3.5" fill="white" fill-opacity="0.16"/>
<rect x="409" y="296" width="65.4545" height="7" rx="3.5" fill="white" fill-opacity="0.16"/>
<rect x="479.909" y="296" width="23.6364" height="7" rx="3.5" fill="white" fill-opacity="0.16"/>
<rect x="424.455" y="195" width="27.2727" height="7" rx="3.5" fill="white" fill-opacity="0.16"/>
<rect x="433.546" y="214" width="27.2727" height="7" rx="3.5" fill="white" fill-opacity="0.16"/>
<rect x="466.272" y="214" width="37.2727" height="7" rx="3.5" fill="white" fill-opacity="0.16"/>
<rect x="424.455" y="233" width="27.2727" height="7" rx="3.5" fill="white" fill-opacity="0.16"/>
<rect x="416.272" y="252" width="28.1818" height="7" rx="3.5" fill="white" fill-opacity="0.16"/>
<rect x="464.455" y="100" width="47.2727" height="7" rx="3.5" fill="white" fill-opacity="0.16"/>
<rect x="464.455" y="119" width="67.2727" height="7" rx="3.5" fill="white" fill-opacity="0.16"/>
<rect x="458.091" y="195" width="53.6364" height="7" rx="3.5" fill="white" fill-opacity="0.16"/>
<path d="M1 369H586V396C586 397.657 584.657 399 583 399H4C2.34315 399 1 397.657 1 396V369Z" fill="#007ACC"/>
<rect opacity="0.75" x="9.12793" y="381" width="42.9827" height="6.32892" rx="3.16446" fill="white"/>
<rect opacity="0.75" x="61.1621" y="381" width="15.8357" height="6.32892" rx="3.16446" fill="white"/>
<g filter="url(#filter0_d_132_96175)">
<path d="M232.27 147.28C231.99 146.92 231.64 146.19 231.03 145.28C230.68 144.78 229.82 143.83 229.56 143.34C229.372 143.042 229.318 142.68 229.41 142.34C229.567 141.694 230.179 141.266 230.84 141.34C231.351 141.443 231.82 141.693 232.19 142.06C232.448 142.303 232.686 142.568 232.9 142.85C233.06 143.05 233.1 143.13 233.28 143.36C233.46 143.59 233.58 143.82 233.49 143.48C233.42 142.98 233.3 142.14 233.13 141.39C233 140.82 232.97 140.73 232.85 140.3C232.73 139.87 232.66 139.51 232.53 139.02C232.411 138.539 232.318 138.051 232.25 137.56C232.124 136.932 232.216 136.279 232.51 135.71C232.859 135.382 233.372 135.295 233.81 135.49C234.25 135.816 234.579 136.27 234.75 136.79C235.012 137.431 235.187 138.103 235.27 138.79C235.43 139.79 235.74 141.25 235.75 141.55C235.75 141.18 235.68 140.4 235.75 140.05C235.819 139.685 236.073 139.382 236.42 139.25C236.718 139.159 237.033 139.138 237.34 139.19C237.65 139.255 237.925 139.433 238.11 139.69C238.342 140.274 238.47 140.893 238.49 141.52C238.517 140.971 238.611 140.427 238.77 139.9C238.937 139.665 239.181 139.495 239.46 139.42C239.79 139.36 240.129 139.36 240.46 139.42C240.731 139.511 240.968 139.682 241.14 139.91C241.352 140.441 241.48 141.001 241.52 141.57C241.52 141.71 241.59 141.18 241.81 140.83C241.924 140.491 242.211 140.238 242.562 140.167C242.913 140.097 243.275 140.219 243.512 140.487C243.749 140.756 243.824 141.131 243.71 141.47C243.71 142.12 243.71 142.09 243.71 142.53C243.71 142.97 243.71 143.36 243.71 143.73C243.673 144.315 243.593 144.897 243.47 145.47C243.296 145.977 243.054 146.458 242.75 146.9C242.264 147.44 241.863 148.05 241.56 148.71C241.485 149.038 241.451 149.374 241.46 149.71C241.459 150.021 241.499 150.33 241.58 150.63C241.171 150.673 240.759 150.673 240.35 150.63C239.96 150.57 239.48 149.79 239.35 149.55C239.286 149.421 239.154 149.34 239.01 149.34C238.866 149.34 238.734 149.421 238.67 149.55C238.45 149.93 237.96 150.62 237.62 150.66C236.95 150.74 235.57 150.66 234.48 150.66C234.48 150.66 234.66 149.66 234.25 149.3C233.84 148.94 233.42 148.52 233.11 148.24L232.27 147.28Z" fill="white"/>
<path fill-rule="evenodd" clip-rule="evenodd" d="M244.084 143.753C244.085 143.165 244.085 143.165 244.085 142.53V141.527C244.212 141.077 244.104 140.592 243.793 140.239C243.468 139.87 242.97 139.703 242.488 139.8C242.159 139.866 241.871 140.048 241.672 140.305C241.619 140.124 241.558 139.946 241.488 139.771C241.222 139.395 240.922 139.179 240.579 139.064C240.152 138.983 239.767 138.983 239.392 139.051C239.017 139.151 238.71 139.357 238.493 139.643C238.482 139.612 238.47 139.582 238.458 139.552C238.174 139.138 237.818 138.907 237.416 138.823C237.037 138.759 236.663 138.783 236.31 138.892C236.082 138.978 235.887 139.111 235.733 139.279C235.696 139.072 235.666 138.893 235.64 138.731C235.555 138.025 235.371 137.319 235.097 136.648C234.911 136.079 234.536 135.56 234.032 135.188C233.386 134.891 232.712 135.005 232.253 135.437L232.177 135.538C231.843 136.183 231.739 136.922 231.882 137.634C231.948 138.116 232.044 138.616 232.166 139.11C232.222 139.323 232.222 139.324 232.342 139.825L232.373 139.954C232.414 140.122 232.449 140.26 232.488 140.401C232.556 140.64 232.582 140.733 232.604 140.816L232.617 140.865C232.659 141.021 232.699 141.188 232.764 141.473C232.824 141.736 232.876 142.001 232.927 142.288C232.776 142.114 232.616 141.946 232.447 141.787C232.032 141.375 231.496 141.089 230.914 140.972C230.033 140.872 229.247 141.422 229.045 142.252C228.929 142.683 228.999 143.153 229.242 143.54C229.358 143.759 229.581 144.061 229.979 144.554L230.04 144.63C230.502 145.2 230.585 145.302 230.662 145.409C230.68 145.435 230.699 145.461 230.722 145.495C230.867 145.711 231.121 146.13 231.366 146.533C231.639 146.985 231.902 147.417 231.987 147.527L232.827 148.487C232.937 148.589 233.229 148.865 233.429 149.054C233.528 149.147 233.604 149.22 233.625 149.239C233.722 149.33 233.811 149.411 233.897 149.488C233.923 149.512 233.936 149.523 233.949 149.535C233.963 149.547 233.976 149.559 234.002 149.582C234.062 149.634 234.112 149.766 234.133 149.957C234.151 150.12 234.146 150.301 234.127 150.476C234.12 150.533 234.114 150.574 234.111 150.594C234.069 150.824 234.246 151.035 234.48 151.035C234.749 151.035 235.027 151.039 235.468 151.049L235.621 151.053C236.817 151.08 237.266 151.08 237.664 151.032C238.119 150.979 238.603 150.413 239.014 149.718C239.363 150.363 239.812 150.927 240.293 151.001C240.745 151.049 241.184 151.049 241.619 151.003C241.848 150.979 242.002 150.755 241.942 150.533C241.87 150.265 241.834 149.989 241.835 149.711C241.827 149.396 241.857 149.091 241.925 148.794C242.188 148.241 242.568 147.663 243.028 147.151C243.382 146.643 243.639 146.131 243.824 145.592C243.964 144.957 244.046 144.357 244.084 143.753ZM234.001 148.563C233.806 148.378 233.465 148.056 233.361 147.962L232.561 147.043C232.502 146.964 232.312 146.649 232.09 146.282C231.828 145.847 231.521 145.34 231.341 145.071C231.258 144.952 231.155 144.817 231.014 144.641C230.96 144.573 230.921 144.525 230.823 144.404L230.623 144.158L230.562 144.083C230.198 143.631 229.989 143.349 229.891 143.164C229.745 142.931 229.707 142.676 229.772 142.438C229.886 141.966 230.325 141.66 230.798 141.713C231.205 141.796 231.608 142.011 231.925 142.326C232.176 142.562 232.399 142.811 232.601 143.077C232.663 143.155 232.703 143.208 232.765 143.295C232.871 143.444 232.902 143.485 232.984 143.591C232.99 143.599 233.006 143.62 233.027 143.649C233.085 143.727 233.181 143.857 233.213 143.891C233.252 143.941 233.252 143.941 233.452 144.023C233.88 143.865 233.882 143.861 233.894 143.66C233.899 143.581 233.886 143.511 233.852 143.384C233.738 142.549 233.637 141.93 233.495 141.307C233.428 141.014 233.386 140.838 233.342 140.673L233.328 140.62C233.305 140.533 233.277 140.436 233.211 140.199C233.174 140.068 233.141 139.937 233.102 139.777L233.071 139.651C232.95 139.142 232.949 139.14 232.892 138.924C232.778 138.462 232.687 137.987 232.621 137.509C232.513 136.965 232.581 136.422 232.812 135.943C233.049 135.752 233.375 135.707 233.657 135.833C233.965 136.071 234.247 136.461 234.393 136.907C234.652 137.541 234.818 138.181 234.897 138.835C234.941 139.108 234.993 139.405 235.063 139.784L235.094 139.952C235.369 141.424 235.371 141.435 235.375 141.563C235.391 142.054 236.125 142.042 236.125 141.55C236.125 141.442 236.123 141.384 236.109 141.059C236.103 140.93 236.101 140.876 236.099 140.801C236.088 140.469 236.093 140.243 236.117 140.124C236.163 139.883 236.328 139.686 236.553 139.6C236.772 139.534 237.028 139.518 237.277 139.56C237.481 139.603 237.675 139.728 237.806 139.909C237.977 140.372 238.096 140.948 238.115 141.532C238.13 142.012 238.841 142.018 238.864 141.538C238.888 141.042 238.971 140.549 239.11 140.072C239.224 139.931 239.381 139.83 239.557 139.782C239.813 139.737 240.106 139.737 240.392 139.789C240.54 139.842 240.714 139.968 240.84 140.135C240.989 140.543 241.108 141.065 241.146 141.596C241.143 141.596 241.141 141.595 241.14 141.596C241.134 141.599 241.15 141.635 241.243 141.843C241.624 141.909 241.74 141.93 241.795 141.881C241.819 141.86 241.832 141.825 241.851 141.776L241.851 141.776C241.876 141.723 241.876 141.723 241.884 141.701C241.893 141.674 241.903 141.637 241.92 141.571C241.957 141.43 241.991 141.32 242.036 141.212C242.065 141.141 242.096 141.08 242.127 141.03C242.237 140.737 242.416 140.579 242.636 140.535C242.856 140.491 243.082 140.567 243.23 140.735C243.379 140.903 243.426 141.138 243.354 141.35L243.335 141.47V143.73C243.3 144.273 243.222 144.836 243.103 145.391C242.952 145.823 242.725 146.274 242.441 146.688C241.96 147.217 241.538 147.859 241.219 148.553C241.112 148.985 241.075 149.352 241.085 149.72C241.084 149.906 241.098 150.096 241.126 150.285C240.88 150.292 240.634 150.283 240.389 150.257C240.267 150.238 239.896 149.771 239.679 149.371C239.557 149.127 239.296 148.965 239.01 148.965C238.723 148.965 238.462 149.127 238.334 149.383C238.086 149.81 237.689 150.274 237.576 150.288C237.229 150.329 236.786 150.329 235.638 150.303L235.485 150.299C235.249 150.294 235.06 150.291 234.892 150.288C234.897 150.15 234.894 150.011 234.879 149.876C234.839 149.515 234.726 149.219 234.497 149.018C234.472 148.997 234.46 148.986 234.448 148.975C234.435 148.963 234.423 148.952 234.397 148.93C234.316 148.857 234.231 148.778 234.137 148.691C234.122 148.677 234.071 148.629 234.001 148.563Z" fill="black"/>
<path d="M240.75 147.826V144.374C240.75 144.167 240.582 144 240.375 144C240.168 144 240 144.167 240 144.374V147.826C240 148.033 240.168 148.2 240.375 148.2C240.582 148.2 240.75 148.033 240.75 147.826Z" fill="black"/>
<path d="M238.77 147.825L238.75 144.371C238.749 144.165 238.58 143.999 238.373 144C238.166 144.001 237.999 144.169 238 144.375L238.02 147.829C238.021 148.035 238.19 148.201 238.397 148.2C238.604 148.199 238.771 148.031 238.77 147.825Z" fill="black"/>
<path d="M236 144.379L236.02 147.825C236.021 148.033 236.19 148.201 236.397 148.2C236.604 148.199 236.771 148.029 236.77 147.821L236.75 144.375C236.749 144.167 236.58 143.999 236.373 144C236.166 144.001 235.999 144.171 236 144.379Z" fill="black"/>
</g>
<rect x="0.5" y="0.5" width="586" height="399" rx="3.5" stroke="#3C3C3C"/>
<defs>
<filter id="filter0_d_132_96175" x="228.19" y="135.022" width="16.7465" height="17.8488" filterUnits="userSpaceOnUse" color-interpolation-filters="sRGB">
<feFlood flood-opacity="0" result="BackgroundImageFix"/>
<feColorMatrix in="SourceAlpha" type="matrix" values="0 0 0 0 0 0 0 0 0 0 0 0 0 0 0 0 0 0 127 0" result="hardAlpha"/>
<feOffset dy="1"/>
<feGaussianBlur stdDeviation="0.4"/>
<feColorMatrix type="matrix" values="0 0 0 0 0 0 0 0 0 0 0 0 0 0 0 0 0 0 0.5 0"/>
<feBlend mode="normal" in2="BackgroundImageFix" result="effect1_dropShadow_132_96175"/>
<feBlend mode="normal" in="SourceGraphic" in2="effect1_dropShadow_132_96175" result="shape"/>
</filter>
</defs>
</svg>
