<svg width="16" height="16" viewBox="0 0 16 16" fill="none" xmlns="http://www.w3.org/2000/svg">
<path d="M8 14.992C9.26933 14.992 10.448 14.6773 11.536 14.048C12.592 13.4293 13.4293 12.592 14.048 11.536C14.688 10.448 15.008 9.26933 15.008 8C15.008 6.73067 14.688 5.552 14.048 4.464C13.4293 3.408 12.592 2.57067 11.536 1.952C10.448 1.32267 9.26933 1.008 8 1.008C6.73067 0.997333 5.552 1.312 4.464 1.952C3.408 2.57067 2.57067 3.408 1.952 4.464C1.32267 5.552 1.008 6.73067 1.008 8C1.008 9.26933 1.32267 10.448 1.952 11.536C2.57067 12.592 3.408 13.4293 4.464 14.048C5.552 14.6773 6.73067 14.992 8 14.992ZM6.976 10.864H6.272L4 8.592L4.704 7.888L6.624 9.808L10.832 5.6L11.536 6.304L6.976 10.864Z" fill="#3794FF"/>
</svg>
