<svg width="587" height="400" viewBox="0 0 587 400" fill="none" xmlns="http://www.w3.org/2000/svg">
<path d="M1 4C1 2.34315 2.34315 1 4 1H583C584.657 1 586 2.34315 586 4V37H1V4Z" fill="#3C3C3C"/>
<g filter="url(#filter0_d_252_98015)">
<path d="M187.436 74.5026C187.106 74.08 186.694 73.223 185.977 72.1548C185.565 71.5678 184.553 70.4526 184.247 69.8774C184.027 69.5278 183.963 69.1022 184.071 68.7035C184.256 67.9454 184.976 67.4425 185.753 67.5296C186.354 67.65 186.906 67.9439 187.341 68.3748C187.645 68.6602 187.925 68.9704 188.177 69.3022C188.365 69.537 188.412 69.6309 188.624 69.9009C188.836 70.1709 188.977 70.4409 188.871 70.0417C188.789 69.4548 188.647 68.4687 188.447 67.5883C188.294 66.9191 188.259 66.8135 188.118 66.3087C187.977 65.8039 187.894 65.3813 187.741 64.8061C187.602 64.2409 187.492 63.6688 187.412 63.0922C187.264 62.3546 187.372 61.5886 187.718 60.9204C188.129 60.5347 188.732 60.4328 189.247 60.6622C189.766 61.0441 190.152 61.5774 190.353 62.1883C190.662 62.94 190.867 63.7297 190.965 64.5361C191.153 65.71 191.518 67.4239 191.53 67.7761C191.53 67.3417 191.447 66.4261 191.53 66.0152C191.611 65.5869 191.91 65.2314 192.318 65.0761C192.668 64.9688 193.039 64.9447 193.4 65.0057C193.765 65.0817 194.088 65.2911 194.306 65.5926C194.579 66.2775 194.73 67.0044 194.753 67.7409C194.785 67.0959 194.895 66.4572 195.083 65.8391C195.279 65.5627 195.566 65.3634 195.894 65.2757C196.283 65.2047 196.682 65.2047 197.071 65.2757C197.39 65.382 197.669 65.5826 197.871 65.8509C198.12 66.4734 198.271 67.1308 198.318 67.7996C198.318 67.9639 198.4 67.3417 198.659 66.9309C198.794 66.5324 199.131 66.2359 199.544 66.1529C199.957 66.0699 200.383 66.2131 200.662 66.5285C200.94 66.844 201.029 67.2837 200.894 67.6822C200.894 68.4452 200.894 68.41 200.894 68.9265C200.894 69.443 200.894 69.9009 200.894 70.3352C200.852 71.0222 200.757 71.7049 200.612 72.3778C200.407 72.9731 200.122 73.5379 199.765 74.0565C199.194 74.6904 198.722 75.4067 198.365 76.1813C198.276 76.5661 198.237 76.9605 198.247 77.3552C198.246 77.7199 198.294 78.0831 198.389 78.4352C197.908 78.486 197.422 78.486 196.941 78.4352C196.483 78.3648 195.918 77.4491 195.765 77.1674C195.689 77.0161 195.534 76.9205 195.365 76.9205C195.196 76.9205 195.041 77.0161 194.965 77.1674C194.706 77.6135 194.13 78.4235 193.73 78.4704C192.941 78.5643 191.318 78.4704 190.036 78.4704C190.036 78.4704 190.247 77.2965 189.765 76.8739C189.283 76.4513 188.789 75.9583 188.424 75.6296L187.436 74.5026Z" fill="white"/>
<path fill-rule="evenodd" clip-rule="evenodd" d="M201.335 69.6857C201.335 69.4996 201.335 69.3135 201.335 68.9266V67.7486C201.486 67.2213 201.358 66.6515 200.992 66.2376C200.61 65.8041 200.024 65.6074 199.457 65.7214C199.07 65.7991 198.732 66.013 198.497 66.3146C198.435 66.102 198.362 65.8931 198.28 65.6877C197.967 65.2469 197.614 64.9929 197.21 64.8582C196.709 64.7622 196.256 64.7622 195.815 64.8427C195.373 64.9595 195.012 65.2017 194.757 65.5371C194.744 65.5013 194.73 65.4657 194.716 65.4302C194.381 64.9445 193.963 64.6734 193.49 64.5748C193.044 64.4993 192.604 64.5279 192.188 64.6553C191.921 64.7565 191.691 64.9133 191.51 65.1097C191.467 64.8669 191.431 64.6569 191.4 64.4666C191.3 63.6378 191.085 62.8098 190.761 62.0216C190.542 61.3534 190.101 60.7443 189.509 60.3081C188.749 59.9586 187.956 60.0925 187.415 60.5999L187.326 60.7183C186.933 61.4754 186.811 62.3432 186.979 63.1788C187.056 63.7443 187.169 64.3315 187.313 64.9117C187.379 65.162 187.38 65.1632 187.52 65.7515L187.52 65.7516C187.538 65.827 187.538 65.8271 187.557 65.9028C187.605 66.0995 187.647 66.2619 187.693 66.4271C187.772 66.7079 187.802 66.8167 187.829 66.9142L187.844 66.9725C187.893 67.155 187.94 67.3516 188.017 67.6862C188.087 67.9949 188.149 68.3052 188.208 68.6421C188.031 68.4381 187.842 68.2413 187.644 68.0544C187.156 67.5708 186.525 67.2355 185.84 67.098C184.804 66.9804 183.879 67.6261 183.642 68.5996C183.505 69.1061 183.588 69.6584 183.874 70.112C184.009 70.3698 184.272 70.724 184.74 71.3022L184.813 71.392C185.355 72.0605 185.453 72.1806 185.543 72.306C185.566 72.3367 185.587 72.3678 185.615 72.4073C185.785 72.6608 186.084 73.1522 186.372 73.626C186.694 74.1558 187.002 74.6636 187.103 74.7926L188.092 75.9195C188.221 76.0387 188.564 76.3627 188.799 76.585C188.915 76.6946 189.005 76.7794 189.03 76.8029C189.144 76.909 189.249 77.0048 189.349 77.0947C189.38 77.1224 189.396 77.1363 189.412 77.1501C189.427 77.1638 189.443 77.1775 189.474 77.2048C189.544 77.2664 189.603 77.4204 189.628 77.6455C189.649 77.8365 189.643 78.0495 189.62 78.2539C189.612 78.3213 189.605 78.3697 189.601 78.3925C189.552 78.6625 189.76 78.9107 190.035 78.9107C190.352 78.9107 190.679 78.9159 191.198 78.9274L191.378 78.9315C192.785 78.9634 193.313 78.9634 193.782 78.9076C194.317 78.8448 194.887 78.1805 195.37 77.3641C195.781 78.1217 196.309 78.7836 196.874 78.8704C197.407 78.9271 197.923 78.9271 198.435 78.8731C198.704 78.8446 198.885 78.5824 198.814 78.321C198.73 78.0066 198.687 77.6823 198.688 77.3567C198.679 76.986 198.714 76.6286 198.795 76.2799C199.104 75.6309 199.551 74.9519 200.093 74.351C200.508 73.7545 200.811 73.1539 201.029 72.5208C201.193 71.7761 201.29 71.0715 201.334 70.3627C201.335 70.0305 201.335 69.8581 201.335 69.6857ZM189.473 76.0088C189.243 75.7921 188.842 75.4136 188.719 75.303L187.778 74.2246C187.709 74.1314 187.485 73.7613 187.225 73.3315C186.915 72.8205 186.555 72.225 186.343 71.9097C186.245 71.7696 186.124 71.6117 185.958 71.405C185.894 71.3247 185.848 71.268 185.733 71.1262L185.498 70.8378L185.427 70.7493C184.998 70.2188 184.752 69.8882 184.637 69.6711C184.466 69.3974 184.421 69.0985 184.496 68.8184C184.631 68.2648 185.147 67.9048 185.704 67.9671C186.182 68.0647 186.657 68.3172 187.03 68.6873C187.325 68.964 187.588 69.256 187.825 69.5683C187.899 69.6604 187.945 69.7222 188.018 69.824C188.143 69.9994 188.179 70.0481 188.276 70.1723C188.283 70.1811 188.302 70.2064 188.326 70.2398C188.394 70.3317 188.508 70.4847 188.545 70.5243C188.591 70.5827 188.591 70.5827 188.826 70.6786C189.329 70.4935 189.332 70.4894 189.347 70.2534C189.353 70.1607 189.336 70.0777 189.297 69.9292C189.163 68.9483 189.043 68.2225 188.877 67.491C188.799 67.1466 188.749 66.9407 188.697 66.7469L188.681 66.6847C188.653 66.5825 188.621 66.4689 188.543 66.1904C188.499 66.036 188.46 65.8828 188.414 65.695C188.405 65.6584 188.401 65.64 188.396 65.6216C188.392 65.603 188.388 65.5845 188.379 65.5472C188.236 64.9493 188.235 64.9467 188.168 64.6933C188.033 64.1505 187.926 63.5935 187.849 63.0321C187.721 62.3935 187.802 61.7565 188.074 61.1943C188.352 60.9692 188.736 60.917 189.067 61.0643C189.43 61.3441 189.761 61.8016 189.934 62.3257C190.238 63.0704 190.434 63.8217 190.527 64.589C190.578 64.9092 190.639 65.2583 190.722 65.7032L190.758 65.9003C191.081 67.6284 191.083 67.6407 191.088 67.7908C191.108 68.3678 191.971 68.3534 191.971 67.7762C191.971 67.649 191.968 67.5808 191.952 67.1992C191.946 67.0487 191.943 66.9846 191.94 66.8967C191.928 66.5069 191.934 66.2418 191.962 66.1016C192.016 65.8193 192.21 65.5884 192.475 65.4875C192.732 65.4099 193.033 65.3903 193.326 65.4398C193.567 65.4903 193.794 65.6378 193.948 65.8503C194.15 66.3926 194.29 67.0692 194.312 67.7548C194.33 68.3184 195.166 68.3256 195.194 67.7624C195.222 67.1792 195.319 66.6014 195.483 66.0409C195.617 65.8757 195.801 65.7564 196.008 65.7009C196.31 65.6474 196.655 65.6474 196.991 65.7088C197.165 65.7713 197.37 65.9186 197.518 66.1155C197.693 66.5945 197.834 67.2072 197.878 67.8305C197.861 67.8256 197.861 67.8256 197.992 68.1204C198.636 68.2319 198.636 68.2319 198.707 68.0417L198.707 68.0417C198.737 67.9798 198.737 67.9798 198.746 67.9534C198.757 67.9214 198.768 67.8785 198.788 67.8009C198.832 67.6349 198.873 67.5056 198.925 67.3788C198.959 67.2958 198.995 67.2238 199.032 67.1652C199.161 66.8221 199.372 66.6365 199.631 66.5845C199.889 66.5326 200.156 66.6222 200.33 66.8197C200.505 67.0171 200.56 67.2923 200.476 67.5417L200.453 67.6823V70.3353C200.412 70.9729 200.321 71.6339 200.18 72.2853C200.003 72.7926 199.736 73.3215 199.401 73.8072C198.836 74.4291 198.339 75.1827 197.964 75.9975C197.838 76.5038 197.795 76.9352 197.806 77.3669C197.805 77.5858 197.821 77.8084 197.854 78.0303C197.565 78.0388 197.276 78.0279 196.988 77.9975C196.844 77.975 196.407 77.4267 196.153 76.9578C196.009 76.6703 195.701 76.4804 195.365 76.4804C195.028 76.4804 194.72 76.6703 194.57 76.9709C194.278 77.4724 193.81 78.0178 193.678 78.0333C193.27 78.0819 192.748 78.0819 191.398 78.0513L191.218 78.0472C190.941 78.0411 190.718 78.0367 190.521 78.0339C190.526 77.872 190.522 77.709 190.505 77.5497C190.458 77.1267 190.325 76.7793 190.056 76.5432C190.027 76.5176 190.012 76.5048 189.998 76.4919C189.983 76.4788 189.968 76.4657 189.939 76.4393C189.843 76.3536 189.742 76.2615 189.632 76.1591C189.614 76.1422 189.554 76.0857 189.473 76.0088Z" fill="#1E1E1E"/>
<path d="M197.412 75.1436V71.0915C197.412 70.849 197.214 70.6523 196.97 70.6523C196.727 70.6523 196.529 70.849 196.529 71.0915V75.1436C196.529 75.3862 196.727 75.5828 196.97 75.5828C197.214 75.5828 197.412 75.3862 197.412 75.1436Z" fill="#1E1E1E"/>
<path d="M195.083 75.1421L195.059 71.0879C195.058 70.846 194.859 70.651 194.615 70.6524C194.372 70.6537 194.175 70.851 194.177 71.093L194.2 75.1472C194.202 75.3891 194.4 75.5842 194.644 75.5828C194.888 75.5814 195.084 75.3841 195.083 75.1421Z" fill="#1E1E1E"/>
<path d="M191.823 71.0972L191.847 75.143C191.848 75.3873 192.047 75.5842 192.291 75.5828C192.534 75.5813 192.731 75.3822 192.729 75.1379L192.706 71.0921C192.704 70.8478 192.505 70.6509 192.262 70.6524C192.018 70.6538 191.822 70.853 191.823 71.0972Z" fill="#1E1E1E"/>
</g>
<rect width="48" height="332" transform="translate(1 37)" fill="#333333"/>
<g opacity="0.5">
<rect x="18" y="54" width="14" height="14" stroke="white" stroke-opacity="0.6" stroke-width="2"/>
</g>
<g opacity="0.5">
<rect x="18" y="104" width="14" height="14" stroke="white" stroke-opacity="0.6" stroke-width="2"/>
</g>
<path d="M26.1333 160.267L25 161.333C24.8222 160.667 24.4444 160.111 23.8667 159.667C23.3333 159.222 22.7111 159 22 159C21.2889 159 20.6444 159.222 20.0667 159.667C19.5333 160.111 19.1778 160.667 19 161.333L17.8667 160.267L17 161.133L18.4667 162.533L18.2667 162.733V164H17V165.267H18.2667V165.333C18.3111 165.733 18.4222 166.133 18.6 166.533L17 168.133L17.8667 169L19.2667 167.6C19.5778 168.044 19.9778 168.4 20.4667 168.667C20.9556 168.889 21.4667 169 22 169C22.5333 169 23.0444 168.889 23.5333 168.667C24.0222 168.4 24.4222 168.044 24.7333 167.6L26.1333 169L27 168.133L25.4 166.467C25.5778 166.111 25.6889 165.711 25.7333 165.267V165.2H27V164H25.7333V162.733L25.6 162.533L27 161.133L26.1333 160.267ZM22 160.267C22.5333 160.267 22.9778 160.444 23.3333 160.8C23.6889 161.156 23.8667 161.6 23.8667 162.133H20.1333C20.1333 161.6 20.3111 161.156 20.6667 160.8C21.0222 160.444 21.4667 160.267 22 160.267ZM24.5333 165.267C24.4444 165.933 24.1556 166.511 23.6667 167C23.2222 167.444 22.6667 167.689 22 167.733C21.3333 167.689 20.7556 167.444 20.2667 167C19.8222 166.511 19.5778 165.933 19.5333 165.267V163.4H24.5333V165.267ZM36.8 157V158.067L28.2667 163.467V162L35.3333 157.533L24.5333 150.667V158.533C24.1333 158.267 23.7111 158.067 23.2667 157.933V149.533L24.2 149L36.8 157Z" fill="white"/>
<rect x="1" y="137" width="4.8" height="48" fill="white"/>
<g opacity="0.5">
<rect x="18" y="204" width="14" height="14" stroke="white" stroke-opacity="0.6" stroke-width="2"/>
</g>
<rect width="328" height="332" transform="translate(49 37)" fill="#252526"/>
<path d="M63.5708 58.4771H65.5767L67.4429 62H69.0869L67.0303 58.2549C68.1475 57.8804 68.8076 56.8774 68.8076 55.6396C68.8076 53.9321 67.6206 52.8403 65.7734 52.8403H62.1489V62H63.5708V58.4771ZM63.5708 54.0337H65.5767C66.6748 54.0337 67.3477 54.6494 67.3477 55.6714C67.3477 56.7188 66.7129 57.3091 65.6147 57.3091H63.5708V54.0337ZM72.2417 52.8403H70.8198V58.8452C70.8198 60.8257 72.2354 62.2222 74.5269 62.2222C76.8311 62.2222 78.2402 60.8257 78.2402 58.8452V52.8403H76.8184V58.731C76.8184 60.0386 75.9868 60.959 74.5269 60.959C73.0732 60.959 72.2417 60.0386 72.2417 58.731V52.8403ZM81.9155 62V55.3477H82.0171L86.7207 62H88.0029V52.8403H86.6191V59.5054H86.5176L81.814 52.8403H80.5317V62H81.9155ZM99.7905 62H101.301L97.9941 52.8403H96.4644L93.1572 62H94.6172L95.4614 59.5244H98.9526L99.7905 62ZM97.1562 54.459H97.2642L98.5908 58.3818H95.8232L97.1562 54.459ZM104.285 62V55.3477H104.386L109.09 62H110.372V52.8403H108.988V59.5054H108.887L104.183 52.8403H102.901V62H104.285ZM112.676 52.8403V62H115.983C118.713 62 120.293 60.3115 120.293 57.3979C120.293 54.5161 118.7 52.8403 115.983 52.8403H112.676ZM114.098 54.0654H115.825C117.723 54.0654 118.846 55.3032 118.846 57.417C118.846 59.5498 117.742 60.7749 115.825 60.7749H114.098V54.0654ZM125.778 52.8403V62H129.085C131.814 62 133.395 60.3115 133.395 57.3979C133.395 54.5161 131.802 52.8403 129.085 52.8403H125.778ZM127.2 54.0654H128.926C130.824 54.0654 131.948 55.3032 131.948 57.417C131.948 59.5498 130.843 60.7749 128.926 60.7749H127.2V54.0654ZM141.139 60.7749H136.747V57.9248H140.904V56.7441H136.747V54.0654H141.139V52.8403H135.325V62H141.139V60.7749ZM146.96 62C148.915 62 150.089 61.0225 150.089 59.4102C150.089 58.2104 149.264 57.3345 148.026 57.2012V57.0933C148.928 56.9409 149.632 56.084 149.632 55.1255C149.632 53.7163 148.598 52.8403 146.877 52.8403H143.196V62H146.96ZM144.618 54.002H146.547C147.601 54.002 148.217 54.5034 148.217 55.373C148.217 56.2681 147.563 56.7378 146.306 56.7378H144.618V54.002ZM144.618 60.8384V57.8232H146.592C147.931 57.8232 148.636 58.3311 148.636 59.3213C148.636 60.3115 147.957 60.8384 146.674 60.8384H144.618ZM153.327 52.8403H151.905V58.8452C151.905 60.8257 153.32 62.2222 155.612 62.2222C157.916 62.2222 159.325 60.8257 159.325 58.8452V52.8403H157.903V58.731C157.903 60.0386 157.072 60.959 155.612 60.959C154.158 60.959 153.327 60.0386 153.327 58.731V52.8403ZM169.431 58.3945V57.2583H165.673V58.4072H168.034V58.6104C168.021 60.0132 166.993 60.959 165.495 60.959C163.775 60.959 162.696 59.6069 162.696 57.4106C162.696 55.2461 163.769 53.8813 165.463 53.8813C166.714 53.8813 167.583 54.4971 167.939 55.6333H169.367C169.056 53.7861 167.545 52.6182 165.463 52.6182C162.899 52.6182 161.242 54.5034 161.242 57.417C161.242 60.3687 162.88 62.2222 165.476 62.2222C167.875 62.2222 169.431 60.7178 169.431 58.3945Z" fill="#E3E3E3"/>
<rect x="179" y="45" width="186" height="24" rx="3" fill="#3C3C3C"/>
<path d="M186.787 50.9733L185.987 51.4V63.4L186.787 63.8267L195.8 57.8533V57L186.787 50.9733ZM187 62.4933V52.36L194.627 57.4267L187 62.4933Z" fill="#8DC149"/>
<rect x="182.5" y="48.5" width="17" height="17" stroke="#007FD4"/>
<g opacity="0.5">
<path d="M71.08 89L66.7067 84.68L67.3467 84.04L71.9867 88.7333V89.32L67.3467 94.0133L66.7067 93.3733L71.08 89Z" fill="#D4D4D4"/>
<rect x="81" y="86" width="80" height="6" rx="3" fill="#616161"/>
</g>
<g filter="url(#filter1_d_252_98015)">
<rect x="159" y="123" width="98" height="88" rx="8" fill="#252526"/>
<path d="M191.516 181V169.496H203.332V165.395H191.516V157.055H204.445V152.816H186.477V181H191.516ZM219.738 181.703C225.891 181.703 230.012 177.66 230.012 171.762C230.012 166.098 226.105 162.484 221.281 162.484C218.41 162.484 216.34 163.461 215.09 165.199H214.758L215.539 156.957H228.508V152.816H211.613L210.07 169.203H214.641C215.598 167.348 217.453 166.234 219.855 166.234C222.961 166.234 225.148 168.48 225.148 171.84C225.148 175.297 222.961 177.602 219.719 177.602C216.848 177.602 214.68 175.863 214.367 173.227H209.66C209.875 178.168 213.918 181.703 219.738 181.703Z" fill="#CCCCCC"/>
</g>
<rect width="209" height="332" transform="translate(377 37)" fill="#252526"/>
<rect width="103" height="39" transform="translate(377 37)" fill="#1E1E1E"/>
<rect x="390.475" y="52.5701" width="76.0516" height="7.85995" rx="3.92998" fill="white" fill-opacity="0.12"/>
<rect x="377" y="76" width="209" height="293" fill="#1E1E1E"/>
<rect x="409" y="100" width="50" height="7" rx="3.5" fill="white" fill-opacity="0.16"/>
<rect x="409" y="119" width="50" height="7" rx="3.5" fill="white" fill-opacity="0.16"/>
<rect x="409" y="176" width="65.4545" height="7" rx="3.5" fill="white" fill-opacity="0.16"/>
<rect x="479.909" y="176" width="23.6364" height="7" rx="3.5" fill="white" fill-opacity="0.16"/>
<rect x="409" y="296" width="65.4545" height="7" rx="3.5" fill="white" fill-opacity="0.16"/>
<rect x="479.909" y="296" width="23.6364" height="7" rx="3.5" fill="white" fill-opacity="0.16"/>
<rect x="424.455" y="195" width="27.2727" height="7" rx="3.5" fill="white" fill-opacity="0.16"/>
<rect x="433.546" y="214" width="27.2727" height="7" rx="3.5" fill="white" fill-opacity="0.16"/>
<rect x="466.272" y="214" width="37.2727" height="7" rx="3.5" fill="white" fill-opacity="0.16"/>
<rect x="424.455" y="233" width="27.2727" height="7" rx="3.5" fill="white" fill-opacity="0.16"/>
<rect x="416.272" y="252" width="28.1818" height="7" rx="3.5" fill="white" fill-opacity="0.16"/>
<rect x="464.455" y="100" width="47.2727" height="7" rx="3.5" fill="white" fill-opacity="0.16"/>
<rect x="464.455" y="119" width="67.2727" height="7" rx="3.5" fill="white" fill-opacity="0.16"/>
<rect x="458.091" y="195" width="53.6364" height="7" rx="3.5" fill="white" fill-opacity="0.16"/>
<path d="M1 369H586V396C586 397.657 584.657 399 583 399H4C2.34315 399 1 397.657 1 396V369Z" fill="#007ACC"/>
<rect opacity="0.75" x="9.12695" y="381" width="42.9827" height="6.32892" rx="3.16446" fill="white"/>
<rect opacity="0.75" x="61.1621" y="381" width="15.8357" height="6.32892" rx="3.16446" fill="white"/>
<g filter="url(#filter2_d_252_98015)">
<path d="M189.27 69.2802C188.99 68.9202 188.64 68.1902 188.03 67.2802C187.68 66.7802 186.82 65.8302 186.56 65.3402C186.372 65.0424 186.318 64.6798 186.41 64.3402C186.567 63.6944 187.179 63.266 187.84 63.3402C188.351 63.4428 188.82 63.6931 189.19 64.0602C189.448 64.3033 189.686 64.5676 189.9 64.8502C190.06 65.0502 190.1 65.1302 190.28 65.3602C190.46 65.5902 190.58 65.8202 190.49 65.4802C190.42 64.9802 190.3 64.1402 190.13 63.3902C190 62.8202 189.97 62.7302 189.85 62.3002C189.73 61.8702 189.66 61.5102 189.53 61.0202C189.411 60.5387 189.318 60.0514 189.25 59.5602C189.124 58.9319 189.216 58.2794 189.51 57.7102C189.859 57.3815 190.372 57.2948 190.81 57.4902C191.25 57.8155 191.579 58.2698 191.75 58.7902C192.012 59.4306 192.187 60.1032 192.27 60.7902C192.43 61.7902 192.74 63.2502 192.75 63.5502C192.75 63.1802 192.68 62.4002 192.75 62.0502C192.819 61.6853 193.073 61.3825 193.42 61.2502C193.718 61.1588 194.033 61.1383 194.34 61.1902C194.65 61.255 194.925 61.4333 195.11 61.6902C195.342 62.2736 195.47 62.8928 195.49 63.5202C195.517 62.9708 195.611 62.4267 195.77 61.9002C195.937 61.6647 196.181 61.495 196.46 61.4202C196.79 61.3597 197.129 61.3597 197.46 61.4202C197.731 61.5108 197.968 61.6817 198.14 61.9102C198.352 62.4405 198.48 63.0005 198.52 63.5702C198.52 63.7102 198.59 63.1802 198.81 62.8302C198.924 62.4908 199.211 62.2381 199.562 62.1674C199.913 62.0968 200.275 62.2187 200.512 62.4874C200.749 62.7562 200.824 63.1308 200.71 63.4702C200.71 64.1202 200.71 64.0902 200.71 64.5302C200.71 64.9702 200.71 65.3602 200.71 65.7302C200.673 66.3154 200.593 66.897 200.47 67.4702C200.296 67.9773 200.054 68.4584 199.75 68.9002C199.264 69.4401 198.863 70.0504 198.56 70.7102C198.485 71.038 198.451 71.374 198.46 71.7102C198.459 72.0208 198.499 72.3302 198.58 72.6302C198.171 72.6734 197.759 72.6734 197.35 72.6302C196.96 72.5702 196.48 71.7902 196.35 71.5502C196.286 71.4213 196.154 71.3399 196.01 71.3399C195.866 71.3399 195.734 71.4213 195.67 71.5502C195.45 71.9302 194.96 72.6202 194.62 72.6602C193.95 72.7402 192.57 72.6602 191.48 72.6602C191.48 72.6602 191.66 71.6602 191.25 71.3002C190.84 70.9402 190.42 70.5202 190.11 70.2402L189.27 69.2802Z" fill="white"/>
<path fill-rule="evenodd" clip-rule="evenodd" d="M201.084 65.7534C201.085 65.1651 201.085 65.1651 201.085 64.5301V63.5266C201.212 63.0774 201.104 62.592 200.793 62.2394C200.468 61.8702 199.97 61.7026 199.488 61.7997C199.159 61.8659 198.871 62.0481 198.672 62.3051C198.619 62.1239 198.558 61.946 198.488 61.771C198.222 61.3955 197.922 61.1792 197.579 61.0644C197.152 60.9826 196.767 60.9826 196.392 61.0512C196.017 61.1507 195.71 61.357 195.493 61.6427C195.482 61.6122 195.47 61.5819 195.458 61.5517C195.174 61.1379 194.818 60.907 194.416 60.823C194.037 60.7587 193.663 60.7831 193.31 60.8916C193.082 60.9778 192.887 61.1113 192.733 61.2786C192.696 61.0718 192.666 60.8929 192.64 60.7308C192.555 60.0248 192.371 59.3195 192.097 58.648C191.911 58.0788 191.536 57.5599 191.032 57.1884C190.386 56.8906 189.712 57.0047 189.253 57.4369L189.177 57.5378C188.843 58.1827 188.739 58.922 188.882 59.6338C188.948 60.1155 189.044 60.6158 189.166 61.1099C189.222 61.3232 189.222 61.3242 189.342 61.8253L189.373 61.9542C189.414 62.1218 189.449 62.2601 189.488 62.4009C189.556 62.6401 189.582 62.7327 189.604 62.8158L189.617 62.8655C189.659 63.0209 189.699 63.1884 189.764 63.4735C189.824 63.7364 189.876 64.0007 189.927 64.2877C189.776 64.114 189.616 63.9463 189.447 63.7871C189.032 63.3751 188.496 63.0895 187.914 62.9724C187.033 62.8722 186.247 63.4222 186.045 64.2515C185.929 64.683 185.999 65.1534 186.242 65.5398C186.358 65.7595 186.581 66.0612 186.979 66.5537L187.04 66.6302C187.502 67.1997 187.585 67.302 187.662 67.4088C187.68 67.435 187.699 67.4614 187.722 67.4951C187.867 67.7111 188.121 68.1297 188.366 68.5333C188.639 68.9845 188.902 69.4171 188.987 69.527L189.827 70.487C189.937 70.5886 190.229 70.8645 190.429 71.0539C190.528 71.1472 190.604 71.2195 190.625 71.2395C190.722 71.3299 190.811 71.4115 190.897 71.4881C190.923 71.5117 190.936 71.5235 190.949 71.5352C190.963 71.5469 190.976 71.5586 191.002 71.5819C191.062 71.6343 191.112 71.7655 191.133 71.9573C191.151 72.12 191.146 72.3015 191.127 72.4756C191.12 72.533 191.114 72.5742 191.111 72.5936C191.069 72.8236 191.246 73.0351 191.48 73.0351C191.749 73.0351 192.027 73.0394 192.468 73.0493L192.621 73.0527C193.817 73.08 194.266 73.08 194.664 73.0324C195.119 72.9789 195.603 72.413 196.014 71.7175C196.363 72.3629 196.812 72.9268 197.293 73.0007C197.745 73.049 198.184 73.049 198.619 73.003C198.848 72.9788 199.002 72.7553 198.942 72.5327C198.87 72.2649 198.834 71.9886 198.835 71.7113C198.827 71.3955 198.857 71.091 198.925 70.794C199.188 70.2412 199.568 69.6627 200.028 69.1508C200.382 68.6427 200.639 68.1311 200.824 67.5918C200.964 66.9574 201.046 66.3572 201.084 65.7534ZM191.001 70.563C190.806 70.3785 190.465 70.056 190.361 69.9618L189.561 69.0432C189.502 68.9638 189.312 68.6485 189.09 68.2824C188.828 67.8471 188.521 67.3398 188.341 67.0713C188.258 66.9519 188.155 66.8174 188.014 66.6413C187.96 66.5729 187.921 66.5246 187.823 66.4038L187.623 66.1581L187.562 66.0828C187.198 65.6308 186.989 65.3492 186.891 65.1643C186.745 64.9312 186.707 64.6765 186.772 64.4379C186.886 63.9663 187.325 63.6596 187.798 63.7127C188.205 63.7959 188.608 64.0109 188.925 64.3262C189.176 64.5619 189.399 64.8107 189.601 65.0767C189.663 65.1551 189.703 65.2078 189.765 65.2945C189.871 65.4439 189.902 65.4854 189.984 65.5912C189.99 65.5987 190.006 65.6203 190.027 65.6487C190.085 65.727 190.181 65.8573 190.213 65.8911C190.252 65.9408 190.252 65.9408 190.452 66.0225C190.88 65.8649 190.882 65.8613 190.894 65.6603C190.899 65.5813 190.886 65.5106 190.852 65.3841C190.738 64.5485 190.637 63.9302 190.495 63.3072C190.428 63.0138 190.386 62.8384 190.342 62.6733L190.328 62.6203C190.305 62.5332 190.277 62.4365 190.211 62.1993C190.174 62.0677 190.141 61.9372 190.102 61.7772L190.071 61.6513C189.95 61.142 189.949 61.1398 189.892 60.9239C189.778 60.4615 189.687 59.9871 189.621 59.5089C189.513 58.9648 189.581 58.4222 189.812 57.9433C190.049 57.7515 190.375 57.707 190.657 57.8326C190.965 58.0709 191.247 58.4606 191.393 58.9071C191.652 59.5414 191.818 60.1815 191.897 60.8351C191.941 61.1079 191.993 61.4052 192.063 61.7842L192.094 61.9521C192.369 63.4242 192.371 63.4347 192.375 63.5626C192.391 64.054 193.125 64.0418 193.125 63.5501C193.125 63.4417 193.123 63.3836 193.109 63.0586C193.103 62.9304 193.101 62.8758 193.099 62.8009C193.088 62.4689 193.093 62.243 193.117 62.1236C193.163 61.8831 193.328 61.6864 193.553 61.6005C193.772 61.5343 194.028 61.5176 194.277 61.5598C194.481 61.6028 194.675 61.7285 194.806 61.9095C194.977 62.3715 195.096 62.9479 195.115 63.5319C195.13 64.012 195.841 64.0181 195.864 63.5383C195.888 63.0415 195.971 62.5493 196.11 62.0719C196.224 61.9311 196.381 61.8295 196.557 61.7823C196.813 61.7367 197.106 61.7367 197.392 61.789C197.54 61.8422 197.714 61.9677 197.84 62.1354C197.989 62.5434 198.108 63.0654 198.146 63.5964C198.143 63.5956 198.141 63.595 198.14 63.5958C198.134 63.5995 198.15 63.6351 198.243 63.8433C198.624 63.9095 198.74 63.9295 198.795 63.8809C198.819 63.8597 198.832 63.8255 198.851 63.7763L198.851 63.7762C198.876 63.7235 198.876 63.7235 198.884 63.7011C198.893 63.6737 198.903 63.6372 198.92 63.5711C198.957 63.4297 198.991 63.3196 199.036 63.2115C199.065 63.1409 199.096 63.0796 199.127 63.0296C199.237 62.7373 199.416 62.5792 199.636 62.535C199.856 62.4907 200.082 62.5671 200.23 62.7353C200.379 62.9034 200.426 63.1379 200.354 63.3504L200.335 63.4701V65.7301C200.3 66.2732 200.222 66.8363 200.103 67.3912C199.952 67.8233 199.725 68.2738 199.441 68.6876C198.96 69.2174 198.538 69.8593 198.219 70.5535C198.112 70.9847 198.075 71.3522 198.085 71.7199C198.084 71.9065 198.098 72.096 198.126 72.2851C197.88 72.2923 197.634 72.283 197.389 72.2571C197.267 72.238 196.896 71.7709 196.679 71.3715C196.557 71.1266 196.296 70.9648 196.01 70.9648C195.723 70.9648 195.462 71.1266 195.334 71.3826C195.086 71.8098 194.689 72.2744 194.576 72.2876C194.229 72.3291 193.786 72.3291 192.638 72.3029L192.485 72.2995C192.249 72.2942 192.06 72.2905 191.892 72.2882C191.897 72.1502 191.894 72.0114 191.879 71.8756C191.839 71.5153 191.726 71.2194 191.497 71.0183C191.472 70.9965 191.46 70.9856 191.448 70.9746C191.435 70.9634 191.423 70.9523 191.397 70.9298C191.316 70.8568 191.231 70.7783 191.137 70.6911C191.122 70.6767 191.071 70.6285 191.001 70.563Z" fill="black"/>
<path d="M197.75 69.8259V66.3741C197.75 66.1675 197.582 66 197.375 66C197.168 66 197 66.1675 197 66.3741V69.8259C197 70.0325 197.168 70.2 197.375 70.2C197.582 70.2 197.75 70.0325 197.75 69.8259Z" fill="black"/>
<path d="M195.77 69.8246L195.75 66.3711C195.749 66.1649 195.58 65.9988 195.373 66C195.166 66.0012 194.999 66.1693 195 66.3754L195.02 69.8289C195.021 70.035 195.19 70.2012 195.397 70.2C195.604 70.1988 195.771 70.0307 195.77 69.8246Z" fill="black"/>
<path d="M193 66.379L193.02 69.8254C193.021 70.0335 193.19 70.2012 193.397 70.2C193.604 70.1988 193.771 70.0291 193.77 69.821L193.75 66.3746C193.749 66.1665 193.58 65.9988 193.373 66C193.166 66.0012 192.999 66.1709 193 66.379Z" fill="black"/>
</g>
<rect x="0.5" y="0.5" width="586" height="399" rx="3.5" stroke="#3C3C3C"/>
<defs>
<filter id="filter0_d_252_98015" x="182.777" y="60.113" width="19.4203" height="20.6401" filterUnits="userSpaceOnUse" color-interpolation-filters="sRGB">
<feFlood flood-opacity="0" result="BackgroundImageFix"/>
<feColorMatrix in="SourceAlpha" type="matrix" values="0 0 0 0 0 0 0 0 0 0 0 0 0 0 0 0 0 0 127 0" result="hardAlpha"/>
<feOffset dy="1"/>
<feGaussianBlur stdDeviation="0.4"/>
<feColorMatrix type="matrix" values="0 0 0 0 0 0 0 0 0 0 0 0 0 0 0 0 0 0 0.5 0"/>
<feBlend mode="normal" in2="BackgroundImageFix" result="effect1_dropShadow_252_98015"/>
<feBlend mode="normal" in="SourceGraphic" in2="effect1_dropShadow_252_98015" result="shape"/>
</filter>
<filter id="filter1_d_252_98015" x="143" y="109" width="130" height="120" filterUnits="userSpaceOnUse" color-interpolation-filters="sRGB">
<feFlood flood-opacity="0" result="BackgroundImageFix"/>
<feColorMatrix in="SourceAlpha" type="matrix" values="0 0 0 0 0 0 0 0 0 0 0 0 0 0 0 0 0 0 127 0" result="hardAlpha"/>
<feOffset dy="2"/>
<feGaussianBlur stdDeviation="8"/>
<feColorMatrix type="matrix" values="0 0 0 0 0 0 0 0 0 0 0 0 0 0 0 0 0 0 0.36 0"/>
<feBlend mode="normal" in2="BackgroundImageFix" result="effect1_dropShadow_252_98015"/>
<feBlend mode="normal" in="SourceGraphic" in2="effect1_dropShadow_252_98015" result="shape"/>
</filter>
<filter id="filter2_d_252_98015" x="185.19" y="57.0222" width="16.7465" height="17.8488" filterUnits="userSpaceOnUse" color-interpolation-filters="sRGB">
<feFlood flood-opacity="0" result="BackgroundImageFix"/>
<feColorMatrix in="SourceAlpha" type="matrix" values="0 0 0 0 0 0 0 0 0 0 0 0 0 0 0 0 0 0 127 0" result="hardAlpha"/>
<feOffset dy="1"/>
<feGaussianBlur stdDeviation="0.4"/>
<feColorMatrix type="matrix" values="0 0 0 0 0 0 0 0 0 0 0 0 0 0 0 0 0 0 0.5 0"/>
<feBlend mode="normal" in2="BackgroundImageFix" result="effect1_dropShadow_252_98015"/>
<feBlend mode="normal" in="SourceGraphic" in2="effect1_dropShadow_252_98015" result="shape"/>
</filter>
</defs>
</svg>
