<svg width="412" height="140" viewBox="0 0 412 140" fill="none" xmlns="http://www.w3.org/2000/svg">
<path d="M91.5802 133V125.221L98.4982 113.271H94.629L89.9396 121.734H89.7072L85.004 113.271H81.1349L88.0529 125.221V133H91.5802ZM105.457 133.301C109.928 133.301 112.649 130.375 112.649 125.521C112.649 120.695 109.914 117.77 105.457 117.77C101.014 117.77 98.2657 120.709 98.2657 125.521C98.2657 130.375 100.973 133.301 105.457 133.301ZM105.457 130.525C103.092 130.525 101.738 128.693 101.738 125.535C101.738 122.377 103.092 120.545 105.457 120.545C107.809 120.545 109.162 122.377 109.162 125.535C109.162 128.693 107.822 130.525 105.457 130.525ZM129.082 118.057H125.692V126.766C125.692 129.021 124.488 130.389 122.287 130.389C120.264 130.389 119.32 129.268 119.32 126.943V118.057H115.93V127.764C115.93 131.264 117.844 133.301 121.111 133.301C123.395 133.301 124.858 132.33 125.582 130.621H125.815V133H129.082V118.057ZM135.317 121.215L137.901 113.271H134.428L132.924 121.215H135.317ZM141.77 133H145.16V124.318C145.16 122.213 146.692 120.846 148.893 120.846C149.467 120.846 150.369 120.941 150.629 121.037V117.947C150.315 117.865 149.713 117.811 149.221 117.811C147.293 117.811 145.68 118.904 145.27 120.381H145.037V118.057H141.77V133ZM162.783 128.912C162.291 130.033 161.129 130.662 159.447 130.662C157.219 130.662 155.783 129.076 155.701 126.547V126.369H166.147V125.289C166.147 120.6 163.59 117.77 159.324 117.77C154.99 117.77 152.297 120.791 152.297 125.59C152.297 130.375 154.949 133.301 159.352 133.301C162.879 133.301 165.381 131.605 165.996 128.912H162.783ZM159.311 120.408C161.348 120.408 162.688 121.844 162.756 124.113H155.715C155.865 121.871 157.287 120.408 159.311 120.408ZM183.442 138.688C187.803 138.688 190.565 136.514 190.565 133.082V118.057H187.297V120.449H187.065C186.244 118.822 184.467 117.811 182.43 117.811C178.615 117.811 176.25 120.791 176.25 125.371C176.25 129.855 178.602 132.781 182.375 132.781C184.453 132.781 186.08 131.906 186.942 130.293H187.174V133.137C187.174 135.037 185.82 136.158 183.496 136.158C181.637 136.158 180.434 135.488 180.215 134.436H176.811C177.084 137.006 179.6 138.688 183.442 138.688ZM183.442 130.088C181.076 130.088 179.736 128.256 179.736 125.357C179.736 122.473 181.076 120.641 183.442 120.641C185.793 120.641 187.229 122.473 187.229 125.371C187.229 128.256 185.807 130.088 183.442 130.088ZM201.188 133.301C205.658 133.301 208.379 130.375 208.379 125.521C208.379 120.695 205.645 117.77 201.188 117.77C196.744 117.77 193.996 120.709 193.996 125.521C193.996 130.375 196.703 133.301 201.188 133.301ZM201.188 130.525C198.822 130.525 197.469 128.693 197.469 125.535C197.469 122.377 198.822 120.545 201.188 120.545C203.539 120.545 204.893 122.377 204.893 125.535C204.893 128.693 203.553 130.525 201.188 130.525ZM218.25 133.301C222.721 133.301 225.442 130.375 225.442 125.521C225.442 120.695 222.707 117.77 218.25 117.77C213.807 117.77 211.059 120.709 211.059 125.521C211.059 130.375 213.766 133.301 218.25 133.301ZM218.25 130.525C215.885 130.525 214.531 128.693 214.531 125.535C214.531 122.377 215.885 120.545 218.25 120.545C220.602 120.545 221.955 122.377 221.955 125.535C221.955 128.693 220.615 130.525 218.25 130.525ZM234.274 133.246C236.352 133.246 238.074 132.275 238.922 130.635H239.154V133H242.436V112.273H239.045V120.436H238.813C238.02 118.795 236.324 117.811 234.274 117.811C230.5 117.811 228.121 120.791 228.121 125.521C228.121 130.266 230.486 133.246 234.274 133.246ZM235.326 120.641C237.651 120.641 239.086 122.514 239.086 125.535C239.086 128.57 237.664 130.43 235.326 130.43C233.002 130.43 231.594 128.598 231.594 125.535C231.594 122.486 233.016 120.641 235.326 120.641ZM255.26 114.393V118.152H252.895V120.791H255.26V129.035C255.26 131.92 256.627 133.068 260.059 133.068C260.715 133.068 261.344 133.014 261.836 132.918V130.32C261.426 130.361 261.166 130.389 260.688 130.389C259.266 130.389 258.637 129.719 258.637 128.229V120.791H261.836V118.152H258.637V114.393H255.26ZM271.543 133.301C276.014 133.301 278.734 130.375 278.734 125.521C278.734 120.695 276 117.77 271.543 117.77C267.1 117.77 264.352 120.709 264.352 125.521C264.352 130.375 267.059 133.301 271.543 133.301ZM271.543 130.525C269.178 130.525 267.824 128.693 267.824 125.535C267.824 122.377 269.178 120.545 271.543 120.545C273.895 120.545 275.248 122.377 275.248 125.535C275.248 128.693 273.908 130.525 271.543 130.525ZM296.043 138.688C300.404 138.688 303.166 136.514 303.166 133.082V118.057H299.899V120.449H299.666C298.846 118.822 297.068 117.811 295.031 117.811C291.217 117.811 288.852 120.791 288.852 125.371C288.852 129.855 291.203 132.781 294.977 132.781C297.055 132.781 298.682 131.906 299.543 130.293H299.776V133.137C299.776 135.037 298.422 136.158 296.098 136.158C294.238 136.158 293.035 135.488 292.817 134.436H289.412C289.686 137.006 292.201 138.688 296.043 138.688ZM296.043 130.088C293.678 130.088 292.338 128.256 292.338 125.357C292.338 122.473 293.678 120.641 296.043 120.641C298.395 120.641 299.83 122.473 299.83 125.371C299.83 128.256 298.408 130.088 296.043 130.088ZM313.789 133.301C318.26 133.301 320.981 130.375 320.981 125.521C320.981 120.695 318.246 117.77 313.789 117.77C309.346 117.77 306.598 120.709 306.598 125.521C306.598 130.375 309.305 133.301 313.789 133.301ZM313.789 130.525C311.424 130.525 310.07 128.693 310.07 125.535C310.07 122.377 311.424 120.545 313.789 120.545C316.141 120.545 317.494 122.377 317.494 125.535C317.494 128.693 316.154 130.525 313.789 130.525ZM325.178 113.258L325.492 126.479H328.651L328.965 113.258H325.178ZM327.078 133.342C328.459 133.342 329.348 132.494 329.348 131.195C329.348 129.883 328.459 129.035 327.078 129.035C325.697 129.035 324.809 129.883 324.809 131.195C324.809 132.494 325.697 133.342 327.078 133.342Z" fill="#CCCCCC"/>
<path d="M193.5 51H196.75L218 29.5L214.75 26.25L195 46L186 37L182.75 40.25L193.5 51ZM204.25 4.75C207.917 4.91667 211.417 5.83333 214.75 7.5C218.25 9.16667 221.333 11.3333 224 14C230.333 20.8333 233.5 28.8333 233.5 38C233.5 45.1667 231 52 226 58.5C223.5 61.5 220.667 64 217.5 66C214.333 67.8333 210.917 69.0833 207.25 69.75C199.25 71.25 192 70.1667 185.5 66.5C182.167 64.6667 179.25 62.3333 176.75 59.5C174.25 56.6667 172.333 53.5 171 50C169.667 46.5 168.833 42.8333 168.5 39C168.333 35.1667 168.833 31.5 170 28C172.5 20.3333 176.917 14.4167 183.25 10.25C186.25 8.25 189.5 6.75 193 5.75C196.667 4.75 200.417 4.41667 204.25 4.75ZM206.75 65.25C213.083 63.75 218.333 60.4167 222.5 55.25C226.667 49.5833 228.583 43.6667 228.25 37.5C228.25 33.6667 227.5 30 226 26.5C224.667 23 222.75 19.9167 220.25 17.25C215.417 12.4167 209.833 9.75 203.5 9.25C200.333 9.08333 197.167 9.41667 194 10.25C190.833 10.9167 188 12.1667 185.5 14C180.167 18 176.5 23.25 174.5 29.75C172.667 36.25 173.083 42.5 175.75 48.5C178.583 54.5 182.833 59.0833 188.5 62.25C191.167 63.9167 194.083 65 197.25 65.5C200.417 66 203.583 65.9167 206.75 65.25Z" fill="#007ACC"/>
</svg>