<svg width="412" height="491" viewBox="0 0 412 491" fill="none" xmlns="http://www.w3.org/2000/svg">
<path d="M198.5 230H201.75L223 208.5L219.75 205.25L200 225L191 216L187.75 219.25L198.5 230ZM209.25 183.75C212.917 183.917 216.417 184.833 219.75 186.5C223.25 188.167 226.333 190.333 229 193C235.333 199.833 238.5 207.833 238.5 217C238.5 224.167 236 231 231 237.5C228.5 240.5 225.667 243 222.5 245C219.333 246.833 215.917 248.083 212.25 248.75C204.25 250.25 197 249.167 190.5 245.5C187.167 243.667 184.25 241.333 181.75 238.5C179.25 235.667 177.333 232.5 176 229C174.667 225.5 173.833 221.833 173.5 218C173.333 214.167 173.833 210.5 175 207C177.5 199.333 181.917 193.417 188.25 189.25C191.25 187.25 194.5 185.75 198 184.75C201.667 183.75 205.417 183.417 209.25 183.75ZM211.75 244.25C218.083 242.75 223.333 239.417 227.5 234.25C231.667 228.583 233.583 222.667 233.25 216.5C233.25 212.667 232.5 209 231 205.5C229.667 202 227.75 198.917 225.25 196.25C220.417 191.417 214.833 188.75 208.5 188.25C205.333 188.083 202.167 188.417 199 189.25C195.833 189.917 193 191.167 190.5 193C185.167 197 181.5 202.25 179.5 208.75C177.667 215.25 178.083 221.5 180.75 227.5C183.583 233.5 187.833 238.083 193.5 241.25C196.167 242.917 199.083 244 202.25 244.5C205.417 245 208.583 244.917 211.75 244.25Z" fill="#007ACC"/>
<path d="M92.0801 284V276.221L98.998 264.271H95.1289L90.4395 272.734H90.207L85.5039 264.271H81.6348L88.5527 276.221V284H92.0801ZM105.957 284.301C110.428 284.301 113.148 281.375 113.148 276.521C113.148 271.695 110.414 268.77 105.957 268.77C101.514 268.77 98.7656 271.709 98.7656 276.521C98.7656 281.375 101.473 284.301 105.957 284.301ZM105.957 281.525C103.592 281.525 102.238 279.693 102.238 276.535C102.238 273.377 103.592 271.545 105.957 271.545C108.309 271.545 109.662 273.377 109.662 276.535C109.662 279.693 108.322 281.525 105.957 281.525ZM129.582 269.057H126.191V277.766C126.191 280.021 124.988 281.389 122.787 281.389C120.764 281.389 119.82 280.268 119.82 277.943V269.057H116.43V278.764C116.43 282.264 118.344 284.301 121.611 284.301C123.895 284.301 125.357 283.33 126.082 281.621H126.314V284H129.582V269.057ZM135.816 272.215L138.4 264.271H134.928L133.424 272.215H135.816ZM142.27 284H145.66V275.318C145.66 273.213 147.191 271.846 149.393 271.846C149.967 271.846 150.869 271.941 151.129 272.037V268.947C150.814 268.865 150.213 268.811 149.721 268.811C147.793 268.811 146.18 269.904 145.77 271.381H145.537V269.057H142.27V284ZM163.283 279.912C162.791 281.033 161.629 281.662 159.947 281.662C157.719 281.662 156.283 280.076 156.201 277.547V277.369H166.646V276.289C166.646 271.6 164.09 268.77 159.824 268.77C155.49 268.77 152.797 271.791 152.797 276.59C152.797 281.375 155.449 284.301 159.852 284.301C163.379 284.301 165.881 282.605 166.496 279.912H163.283ZM159.811 271.408C161.848 271.408 163.188 272.844 163.256 275.113H156.215C156.365 272.871 157.787 271.408 159.811 271.408ZM183.941 289.688C188.303 289.688 191.064 287.514 191.064 284.082V269.057H187.797V271.449H187.564C186.744 269.822 184.967 268.811 182.93 268.811C179.115 268.811 176.75 271.791 176.75 276.371C176.75 280.855 179.102 283.781 182.875 283.781C184.953 283.781 186.58 282.906 187.441 281.293H187.674V284.137C187.674 286.037 186.32 287.158 183.996 287.158C182.137 287.158 180.934 286.488 180.715 285.436H177.311C177.584 288.006 180.1 289.688 183.941 289.688ZM183.941 281.088C181.576 281.088 180.236 279.256 180.236 276.357C180.236 273.473 181.576 271.641 183.941 271.641C186.293 271.641 187.729 273.473 187.729 276.371C187.729 279.256 186.307 281.088 183.941 281.088ZM201.688 284.301C206.158 284.301 208.879 281.375 208.879 276.521C208.879 271.695 206.145 268.77 201.688 268.77C197.244 268.77 194.496 271.709 194.496 276.521C194.496 281.375 197.203 284.301 201.688 284.301ZM201.688 281.525C199.322 281.525 197.969 279.693 197.969 276.535C197.969 273.377 199.322 271.545 201.688 271.545C204.039 271.545 205.393 273.377 205.393 276.535C205.393 279.693 204.053 281.525 201.688 281.525ZM218.75 284.301C223.221 284.301 225.941 281.375 225.941 276.521C225.941 271.695 223.207 268.77 218.75 268.77C214.307 268.77 211.559 271.709 211.559 276.521C211.559 281.375 214.266 284.301 218.75 284.301ZM218.75 281.525C216.385 281.525 215.031 279.693 215.031 276.535C215.031 273.377 216.385 271.545 218.75 271.545C221.102 271.545 222.455 273.377 222.455 276.535C222.455 279.693 221.115 281.525 218.75 281.525ZM234.773 284.246C236.852 284.246 238.574 283.275 239.422 281.635H239.654V284H242.936V263.273H239.545V271.436H239.312C238.52 269.795 236.824 268.811 234.773 268.811C231 268.811 228.621 271.791 228.621 276.521C228.621 281.266 230.986 284.246 234.773 284.246ZM235.826 271.641C238.15 271.641 239.586 273.514 239.586 276.535C239.586 279.57 238.164 281.43 235.826 281.43C233.502 281.43 232.094 279.598 232.094 276.535C232.094 273.486 233.516 271.641 235.826 271.641ZM255.76 265.393V269.152H253.395V271.791H255.76V280.035C255.76 282.92 257.127 284.068 260.559 284.068C261.215 284.068 261.844 284.014 262.336 283.918V281.32C261.926 281.361 261.666 281.389 261.188 281.389C259.766 281.389 259.137 280.719 259.137 279.229V271.791H262.336V269.152H259.137V265.393H255.76ZM272.043 284.301C276.514 284.301 279.234 281.375 279.234 276.521C279.234 271.695 276.5 268.77 272.043 268.77C267.6 268.77 264.852 271.709 264.852 276.521C264.852 281.375 267.559 284.301 272.043 284.301ZM272.043 281.525C269.678 281.525 268.324 279.693 268.324 276.535C268.324 273.377 269.678 271.545 272.043 271.545C274.395 271.545 275.748 273.377 275.748 276.535C275.748 279.693 274.408 281.525 272.043 281.525ZM296.543 289.688C300.904 289.688 303.666 287.514 303.666 284.082V269.057H300.398V271.449H300.166C299.346 269.822 297.568 268.811 295.531 268.811C291.717 268.811 289.352 271.791 289.352 276.371C289.352 280.855 291.703 283.781 295.477 283.781C297.555 283.781 299.182 282.906 300.043 281.293H300.275V284.137C300.275 286.037 298.922 287.158 296.598 287.158C294.738 287.158 293.535 286.488 293.316 285.436H289.912C290.186 288.006 292.701 289.688 296.543 289.688ZM296.543 281.088C294.178 281.088 292.838 279.256 292.838 276.357C292.838 273.473 294.178 271.641 296.543 271.641C298.895 271.641 300.33 273.473 300.33 276.371C300.33 279.256 298.908 281.088 296.543 281.088ZM314.289 284.301C318.76 284.301 321.48 281.375 321.48 276.521C321.48 271.695 318.746 268.77 314.289 268.77C309.846 268.77 307.098 271.709 307.098 276.521C307.098 281.375 309.805 284.301 314.289 284.301ZM314.289 281.525C311.924 281.525 310.57 279.693 310.57 276.535C310.57 273.377 311.924 271.545 314.289 271.545C316.641 271.545 317.994 273.377 317.994 276.535C317.994 279.693 316.654 281.525 314.289 281.525ZM325.678 264.258L325.992 277.479H329.15L329.465 264.258H325.678ZM327.578 284.342C328.959 284.342 329.848 283.494 329.848 282.195C329.848 280.883 328.959 280.035 327.578 280.035C326.197 280.035 325.309 280.883 325.309 282.195C325.309 283.494 326.197 284.342 327.578 284.342Z" fill="white"/>
<path d="M86.1992 308.222C88.2432 308.222 89.7476 307.048 90.0015 305.264H88.5859C88.332 306.305 87.4116 306.959 86.1992 306.959C84.5488 306.959 83.5205 305.601 83.5205 303.423C83.5205 301.246 84.5488 299.881 86.1929 299.881C87.3989 299.881 88.3193 300.605 88.5859 301.741H90.0015C89.7729 299.907 88.2114 298.618 86.1929 298.618C83.6475 298.618 82.0669 300.459 82.0669 303.423C82.0669 306.381 83.6538 308.222 86.1992 308.222ZM91.7153 308H93.0801V303.88C93.0801 302.909 93.8101 302.243 94.8447 302.243C95.0859 302.243 95.4922 302.287 95.6064 302.319V301.037C95.4604 301.005 95.2002 300.986 94.9971 300.986C94.0957 300.986 93.3276 301.475 93.1309 302.154H93.0293V301.106H91.7153V308ZM101.275 306.153C101.021 306.711 100.456 307.016 99.6309 307.016C98.5391 307.016 97.8345 306.229 97.79 304.979V304.915H102.671V304.445C102.671 302.287 101.51 300.973 99.5864 300.973C97.6377 300.973 96.3999 302.376 96.3999 304.566C96.3999 306.769 97.6123 308.133 99.5928 308.133C101.173 308.133 102.291 307.372 102.589 306.153H101.275ZM99.5801 302.084C100.589 302.084 101.25 302.814 101.281 303.931H97.79C97.8662 302.82 98.5708 302.084 99.5801 302.084ZM106.22 308.114C107.127 308.114 107.883 307.721 108.295 307.022H108.403V308H109.717V303.284C109.717 301.836 108.74 300.973 107.007 300.973C105.439 300.973 104.322 301.729 104.182 302.89H105.502C105.655 302.389 106.182 302.103 106.943 302.103C107.876 302.103 108.359 302.528 108.359 303.284V303.887L106.486 304.001C104.842 304.103 103.916 304.82 103.916 306.058C103.916 307.314 104.887 308.114 106.22 308.114ZM106.569 307.016C105.826 307.016 105.287 306.642 105.287 306C105.287 305.372 105.718 305.036 106.67 304.972L108.359 304.858V305.455C108.359 306.343 107.597 307.016 106.569 307.016ZM112.142 299.367V301.125H111.044V302.217H112.142V306.185C112.142 307.511 112.745 308.044 114.262 308.044C114.529 308.044 114.783 308.013 115.005 307.975V306.889C114.814 306.908 114.694 306.921 114.484 306.921C113.805 306.921 113.507 306.597 113.507 305.854V302.217H115.005V301.125H113.507V299.367H112.142ZM121.067 306.153C120.813 306.711 120.248 307.016 119.423 307.016C118.331 307.016 117.626 306.229 117.582 304.979V304.915H122.463V304.445C122.463 302.287 121.302 300.973 119.378 300.973C117.43 300.973 116.192 302.376 116.192 304.566C116.192 306.769 117.404 308.133 119.385 308.133C120.965 308.133 122.083 307.372 122.381 306.153H121.067ZM119.372 302.084C120.381 302.084 121.042 302.814 121.073 303.931H117.582C117.658 302.82 118.363 302.084 119.372 302.084ZM129.566 308.114C130.474 308.114 131.229 307.721 131.642 307.022H131.75V308H133.064V303.284C133.064 301.836 132.086 300.973 130.354 300.973C128.786 300.973 127.668 301.729 127.529 302.89H128.849C129.001 302.389 129.528 302.103 130.29 302.103C131.223 302.103 131.706 302.528 131.706 303.284V303.887L129.833 304.001C128.189 304.103 127.262 304.82 127.262 306.058C127.262 307.314 128.233 308.114 129.566 308.114ZM129.916 307.016C129.173 307.016 128.633 306.642 128.633 306C128.633 305.372 129.065 305.036 130.017 304.972L131.706 304.858V305.455C131.706 306.343 130.944 307.016 129.916 307.016ZM138.561 308H139.926V303.957C139.926 302.846 140.567 302.16 141.576 302.16C142.585 302.16 143.068 302.719 143.068 303.861V308H144.433V303.538C144.433 301.894 143.582 300.973 142.04 300.973C140.999 300.973 140.313 301.437 139.977 302.198H139.875V301.106H138.561V308ZM150.888 306.153C150.634 306.711 150.069 307.016 149.244 307.016C148.152 307.016 147.448 306.229 147.403 304.979V304.915H152.285V304.445C152.285 302.287 151.123 300.973 149.2 300.973C147.251 300.973 146.013 302.376 146.013 304.566C146.013 306.769 147.226 308.133 149.206 308.133C150.787 308.133 151.904 307.372 152.202 306.153H150.888ZM149.193 302.084C150.203 302.084 150.863 302.814 150.895 303.931H147.403C147.479 302.82 148.184 302.084 149.193 302.084ZM162.873 301.106H161.508L160.276 306.426H160.168L158.747 301.106H157.439L156.017 306.426H155.916L154.678 301.106H153.294L155.198 308H156.601L158.023 302.858H158.131L159.559 308H160.975L162.873 301.106ZM171.74 308V300.065H174.616V298.84H167.437V300.065H170.318V308H171.74ZM179.491 306.153C179.237 306.711 178.672 307.016 177.847 307.016C176.755 307.016 176.05 306.229 176.006 304.979V304.915H180.887V304.445C180.887 302.287 179.726 300.973 177.802 300.973C175.854 300.973 174.616 302.376 174.616 304.566C174.616 306.769 175.828 308.133 177.809 308.133C179.389 308.133 180.506 307.372 180.805 306.153H179.491ZM177.796 302.084C178.805 302.084 179.465 302.814 179.497 303.931H176.006C176.082 302.82 176.787 302.084 177.796 302.084ZM184.436 308.114C185.343 308.114 186.099 307.721 186.511 307.022H186.619V308H187.933V303.284C187.933 301.836 186.956 300.973 185.223 300.973C183.655 300.973 182.538 301.729 182.398 302.89H183.718C183.871 302.389 184.397 302.103 185.159 302.103C186.092 302.103 186.575 302.528 186.575 303.284V303.887L184.702 304.001C183.058 304.103 182.131 304.82 182.131 306.058C182.131 307.314 183.103 308.114 184.436 308.114ZM184.785 307.016C184.042 307.016 183.502 306.642 183.502 306C183.502 305.372 183.934 305.036 184.886 304.972L186.575 304.858V305.455C186.575 306.343 185.813 307.016 184.785 307.016ZM189.875 308H191.24V303.766C191.24 302.865 191.869 302.16 192.7 302.16C193.513 302.16 194.033 302.649 194.033 303.436V308H195.373V303.639C195.373 302.808 195.95 302.16 196.833 302.16C197.728 302.16 198.172 302.624 198.172 303.576V308H199.537V303.246C199.537 301.811 198.724 300.973 197.328 300.973C196.369 300.973 195.576 301.462 195.227 302.205H195.119C194.814 301.462 194.16 300.973 193.214 300.973C192.294 300.973 191.596 301.43 191.291 302.205H191.189V301.106H189.875V308ZM201.295 303.036C201.295 304.058 201.904 304.642 203.218 304.947L204.424 305.232C205.116 305.397 205.44 305.677 205.44 306.108C205.44 306.673 204.837 307.067 203.986 307.067C203.161 307.067 202.653 306.73 202.482 306.191H201.117C201.238 307.391 202.311 308.133 203.955 308.133C205.605 308.133 206.817 307.264 206.817 305.981C206.817 304.979 206.202 304.414 204.888 304.109L203.739 303.842C202.99 303.665 202.641 303.398 202.641 302.973C202.641 302.414 203.218 302.04 203.98 302.04C204.754 302.04 205.25 302.376 205.376 302.89H206.684C206.551 301.697 205.535 300.973 203.98 300.973C202.418 300.973 201.295 301.836 201.295 303.036ZM213.927 308.114C214.834 308.114 215.59 307.721 216.002 307.022H216.11V308H217.424V303.284C217.424 301.836 216.447 300.973 214.714 300.973C213.146 300.973 212.029 301.729 211.889 302.89H213.209C213.362 302.389 213.889 302.103 214.65 302.103C215.583 302.103 216.066 302.528 216.066 303.284V303.887L214.193 304.001C212.549 304.103 211.623 304.82 211.623 306.058C211.623 307.314 212.594 308.114 213.927 308.114ZM214.276 307.016C213.533 307.016 212.994 306.642 212.994 306C212.994 305.372 213.425 305.036 214.377 304.972L216.066 304.858V305.455C216.066 306.343 215.304 307.016 214.276 307.016ZM222.953 300.986C222.014 300.986 221.201 301.462 220.782 302.249H220.681V301.106H219.367V310.298H220.731V306.959H220.839C221.201 307.689 221.982 308.114 222.966 308.114C224.711 308.114 225.822 306.73 225.822 304.553C225.822 302.363 224.711 300.986 222.953 300.986ZM222.566 306.946C221.423 306.946 220.706 306.026 220.706 304.553C220.706 303.074 221.423 302.154 222.572 302.154C223.728 302.154 224.419 303.055 224.419 304.553C224.419 306.051 223.728 306.946 222.566 306.946ZM231.053 300.986C230.113 300.986 229.301 301.462 228.882 302.249H228.78V301.106H227.466V310.298H228.831V306.959H228.939C229.301 307.689 230.082 308.114 231.065 308.114C232.811 308.114 233.922 306.73 233.922 304.553C233.922 302.363 232.811 300.986 231.053 300.986ZM230.666 306.946C229.523 306.946 228.806 306.026 228.806 304.553C228.806 303.074 229.523 302.154 230.672 302.154C231.827 302.154 232.519 303.055 232.519 304.553C232.519 306.051 231.827 306.946 230.666 306.946ZM239.603 299.367V301.125H238.505V302.217H239.603V306.185C239.603 307.511 240.206 308.044 241.723 308.044C241.99 308.044 242.244 308.013 242.466 307.975V306.889C242.275 306.908 242.155 306.921 241.945 306.921C241.266 306.921 240.968 306.597 240.968 305.854V302.217H242.466V301.125H240.968V299.367H239.603ZM246.916 308.133C248.934 308.133 250.172 306.781 250.172 304.553C250.172 302.325 248.928 300.973 246.916 300.973C244.897 300.973 243.653 302.332 243.653 304.553C243.653 306.781 244.891 308.133 246.916 308.133ZM246.916 306.972C245.729 306.972 245.062 306.089 245.062 304.553C245.062 303.017 245.729 302.128 246.916 302.128C248.096 302.128 248.769 303.017 248.769 304.553C248.769 306.083 248.096 306.972 246.916 306.972ZM256.907 304.014H256.799V298.402H255.434V308H256.799V305.493L257.402 304.915L259.776 308H261.452L258.417 304.058L261.261 301.106H259.649L256.907 304.014ZM263.413 299.875C263.889 299.875 264.276 299.488 264.276 299.018C264.276 298.542 263.889 298.155 263.413 298.155C262.937 298.155 262.55 298.542 262.55 299.018C262.55 299.488 262.937 299.875 263.413 299.875ZM262.734 308H264.092V301.106H262.734V308ZM271.951 303.322C271.773 301.982 270.726 300.973 268.993 300.973C266.98 300.973 265.755 302.338 265.755 304.528C265.755 306.762 266.987 308.133 268.999 308.133C270.707 308.133 271.773 307.175 271.951 305.816H270.624C270.446 306.565 269.856 306.972 268.993 306.972C267.856 306.972 267.152 306.051 267.152 304.528C267.152 303.036 267.85 302.135 268.993 302.135C269.907 302.135 270.465 302.649 270.624 303.322H271.951ZM275.048 304.014H274.94V298.402H273.576V308H274.94V305.493L275.543 304.915L277.917 308H279.593L276.559 304.058L279.403 301.106H277.791L275.048 304.014ZM284.887 299.367V301.125H283.789V302.217H284.887V306.185C284.887 307.511 285.49 308.044 287.007 308.044C287.274 308.044 287.528 308.013 287.75 307.975V306.889C287.56 306.908 287.439 306.921 287.229 306.921C286.55 306.921 286.252 306.597 286.252 305.854V302.217H287.75V301.125H286.252V299.367H284.887ZM289.419 308H290.784V303.963C290.784 302.884 291.406 302.167 292.523 302.167C293.488 302.167 294.002 302.731 294.002 303.868V308H295.367V303.544C295.367 301.913 294.459 300.979 292.987 300.979C291.946 300.979 291.216 301.437 290.879 302.205H290.771V298.402H289.419V308ZM301.823 306.153C301.569 306.711 301.004 307.016 300.179 307.016C299.087 307.016 298.382 306.229 298.338 304.979V304.915H303.219V304.445C303.219 302.287 302.058 300.973 300.134 300.973C298.186 300.973 296.948 302.376 296.948 304.566C296.948 306.769 298.16 308.133 300.141 308.133C301.721 308.133 302.838 307.372 303.137 306.153H301.823ZM300.128 302.084C301.137 302.084 301.797 302.814 301.829 303.931H298.338C298.414 302.82 299.119 302.084 300.128 302.084ZM308.894 299.367V301.125H307.796V302.217H308.894V306.185C308.894 307.511 309.497 308.044 311.014 308.044C311.281 308.044 311.535 308.013 311.757 307.975V306.889C311.566 306.908 311.446 306.921 311.236 306.921C310.557 306.921 310.259 306.597 310.259 305.854V302.217H311.757V301.125H310.259V299.367H308.894ZM314.067 299.875C314.543 299.875 314.931 299.488 314.931 299.018C314.931 298.542 314.543 298.155 314.067 298.155C313.591 298.155 313.204 298.542 313.204 299.018C313.204 299.488 313.591 299.875 314.067 299.875ZM313.388 308H314.747V301.106H313.388V308ZM321.285 306.153C321.031 306.711 320.466 307.016 319.641 307.016C318.549 307.016 317.844 306.229 317.8 304.979V304.915H322.681V304.445C322.681 302.287 321.52 300.973 319.596 300.973C317.647 300.973 316.41 302.376 316.41 304.566C316.41 306.769 317.622 308.133 319.603 308.133C321.183 308.133 322.3 307.372 322.599 306.153H321.285ZM319.59 302.084C320.599 302.084 321.259 302.814 321.291 303.931H317.8C317.876 302.82 318.581 302.084 319.59 302.084ZM324.319 308H325.684V303.88C325.684 302.909 326.414 302.243 327.448 302.243C327.689 302.243 328.096 302.287 328.21 302.319V301.037C328.064 301.005 327.804 300.986 327.601 300.986C326.699 300.986 325.931 301.475 325.734 302.154H325.633V301.106H324.319V308ZM329.657 308.095C330.197 308.095 330.59 307.695 330.59 307.181C330.59 306.667 330.197 306.267 329.657 306.267C329.124 306.267 328.724 306.667 328.724 307.181C328.724 307.695 329.124 308.095 329.657 308.095Z" fill="#CCCCCC"/>
</svg>
