<svg width="16" height="16" viewBox="0 0 16 16" fill="none" xmlns="http://www.w3.org/2000/svg">
<path fill-rule="evenodd" clip-rule="evenodd" d="M8 15C11.866 15 15 11.866 15 8C15 4.13401 11.866 1 8 1C4.13401 1 1 4.13401 1 8C1 11.866 4.13401 15 8 15ZM7.98682 8.13037H7.1958V7.35693H7.96045C8.646 7.35693 9.12061 6.92627 9.12061 6.31543C9.12061 5.75732 8.69873 5.31348 7.98682 5.31348C7.26611 5.31348 6.80469 5.68701 6.74756 6.35059H5.81592C5.88184 5.27393 6.70801 4.50488 8.04395 4.50488C9.35352 4.50488 10.0962 5.2915 10.0918 6.19238C10.0874 6.95703 9.6084 7.4624 8.94482 7.64697V7.72168C9.78857 7.84912 10.3335 8.41162 10.3335 9.28174C10.3335 10.3628 9.33594 11.1538 8.01318 11.1538C6.67285 11.1538 5.75 10.4199 5.69727 9.30371H6.64209C6.69922 9.92773 7.23096 10.3276 8 10.3276C8.77783 10.3276 9.32275 9.88818 9.32275 9.229C9.32275 8.55225 8.81299 8.13037 7.98682 8.13037Z" fill="#CCCCCC"/>
</svg>
