<svg width="16" height="16" viewBox="0 0 16 16" fill="none" xmlns="http://www.w3.org/2000/svg">
<path fill-rule="evenodd" clip-rule="evenodd" d="M8 15C11.866 15 15 11.866 15 8C15 4.13401 11.866 1 8 1C4.13401 1 1 4.13401 1 8C1 11.866 4.13401 15 8 15ZM6.78271 6.49561H5.85107C5.85107 5.33105 6.75195 4.50488 8.03076 4.50488C9.22168 4.50488 10.0786 5.26514 10.0786 6.30664C10.0786 7.04053 9.75781 7.56348 8.646 8.67969L7.24854 10.0859V10.1606H10.1753V11H5.90381V10.332L8.07471 8.07324C8.87891 7.23389 9.08984 6.91748 9.08984 6.40332C9.08984 5.78809 8.67236 5.31787 7.96924 5.31787C7.25293 5.31787 6.78271 5.79248 6.78271 6.49561Z" fill="#CCCCCC"/>
</svg>
