
<svg viewBox="0 0 561 360" fill="none" xmlns="http://www.w3.org/2000/svg" xmlns:xlink="http://www.w3.org/1999/xlink">
<a xlink:href="https://aka.ms/teamsfx-video" target="_blank">

<g clip-path="url(#clip0)">
<rect width="561" height="360" fill="#1E1E1E"/>
<rect width="561" height="360" fill="url(#paint0_radial)"/>
<rect x="-34.9863" y="-57.9934" width="772.986" height="434.993" fill="url(#pattern0)"/>
<g filter="url(#filter0_d)">
<rect x="46.1919" y="155.245" width="468.808" height="293.005" fill="#1E1E1E"/>
<rect x="46.1919" y="190.406" width="70.3212" height="257.845" fill="#333333"/>
<rect x="116.514" y="155.245" width="140.642" height="293.005" fill="#252526"/>
<rect x="46.1919" y="155.245" width="468.808" height="35.1606" fill="#3C3C3C"/>
<rect x="69.6323" y="213.846" width="23.4404" height="23.4404" rx="3.09248" fill="#F8F8F1"/>
<rect x="69.6323" y="284.167" width="23.4404" height="23.4404" rx="3.09248" fill="#7A7B74"/>
<rect x="69.6323" y="354.489" width="23.4404" height="23.4404" rx="3.09248" fill="#7A7B74"/>
<rect x="46.1919" y="190.406" width="2.93005" height="70.3212" fill="#F8F8F1"/>
<rect x="280.596" y="213.846" width="210.964" height="7.73121" rx="3.8656" fill="#CC7EC0"/>
<rect x="280.596" y="240.217" width="102.552" height="7.73121" rx="3.8656" fill="#8ADDFF"/>
<rect x="280.596" y="266.587" width="161.153" height="7.73121" rx="3.8656" fill="#D88E73"/>
<rect x="280.596" y="292.958" width="128.922" height="7.73121" rx="3.8656" fill="#DCDDA4"/>
<rect x="280.596" y="319.328" width="199.243" height="7.73121" rx="3.8656" fill="#3C9AD7"/>
<rect x="280.596" y="345.698" width="149.433" height="7.73121" rx="3.8656" fill="#D4D4D4"/>
</g>
<path d="M64.3051 110.473C59.7985 110.473 56.3318 109.322 53.9051 107.022C51.51 104.721 50.3124 101.428 50.3124 97.1418V85.2291C50.3124 80.88 51.4942 77.5394 53.8579 75.2073C56.253 72.8752 59.6567 71.7091 64.0688 71.7091C68.2918 71.7091 71.4906 72.7176 73.6651 74.7345C75.8397 76.72 77.0373 79.6667 77.2579 83.5745L70.167 84.0473C69.9464 81.5891 69.3791 79.8715 68.4651 78.8945C67.5512 77.8861 66.1015 77.3818 64.116 77.3818C61.6579 77.3818 59.9245 78.0121 58.916 79.2727C57.9076 80.5018 57.4033 82.6448 57.4033 85.7018V96.6691C57.4033 99.663 57.9233 101.775 58.9633 103.004C60.0033 104.201 61.7682 104.8 64.2579 104.8C66.6215 104.8 68.276 104.154 69.2215 102.862C70.1985 101.57 70.6712 99.3321 70.6397 96.1491H63.7851V90.4764H77.7306V96.9055C77.7306 101.255 76.5645 104.611 74.2324 106.975C71.9318 109.307 68.6227 110.473 64.3051 110.473ZM107.956 103.524C106.916 106.076 105.451 107.873 103.56 108.913C101.701 109.953 98.8327 110.473 94.9563 110.473C91.1115 110.473 87.9915 109.575 85.5963 107.778C83.2327 105.95 82.0509 103.24 82.0509 99.6473V92.0836C82.0509 88.5539 83.2012 85.8594 85.5018 84C87.8339 82.1091 90.9539 81.1636 94.8618 81.1636C98.8012 81.1636 101.905 82.1091 104.175 84C106.444 85.8909 107.578 88.6485 107.578 92.2727V97.2364H89.1418V99.9782C89.1418 101.838 89.6145 103.224 90.56 104.138C91.5054 105.052 93.0024 105.509 95.0509 105.509C96.8472 105.509 98.2497 105.241 99.2582 104.705C100.298 104.17 101.149 103.208 101.811 101.822L107.956 103.524ZM89.1418 91.6109V93.0764H100.487V92.0364C100.487 89.8618 100.046 88.3176 99.1636 87.4036C98.2812 86.4582 96.8315 85.9855 94.8145 85.9855C92.7975 85.9855 91.3478 86.4267 90.4654 87.3091C89.583 88.1915 89.1418 89.6255 89.1418 91.6109ZM130.808 110.473C127.278 110.473 124.536 109.638 122.582 107.967C120.66 106.297 119.698 103.839 119.698 100.593V87.0727H112.371V81.6364H119.698V72.1818H126.789V81.6364H138.135V87.0727H126.789V99.6945C126.789 101.491 127.215 102.815 128.066 103.665C128.917 104.485 130.114 104.895 131.658 104.895C132.635 104.895 133.628 104.832 134.637 104.705C135.645 104.548 136.638 104.296 137.615 103.949L138.56 109.338C137.709 109.653 136.606 109.921 135.251 110.142C133.928 110.362 132.446 110.473 130.808 110.473ZM161.837 110.473C158.307 110.473 155.565 109.638 153.611 107.967C151.689 106.297 150.728 103.839 150.728 100.593V87.0727H143.401V81.6364H150.728V72.1818H157.819V81.6364H169.164V87.0727H157.819V99.6945C157.819 101.491 158.244 102.815 159.095 103.665C159.946 104.485 161.144 104.895 162.688 104.895C163.665 104.895 164.658 104.832 165.666 104.705C166.674 104.548 167.667 104.296 168.644 103.949L169.59 109.338C168.739 109.653 167.636 109.921 166.281 110.142C164.957 110.362 163.476 110.473 161.837 110.473ZM175.375 110V104.564H184.357V87.0727H175.375V81.6364H191.448V104.564H200.43V110H175.375ZM188.186 76.9091C186.674 76.9091 185.444 76.6727 184.499 76.2C183.585 75.7273 183.128 74.9079 183.128 73.7418V73.2218C183.128 72.0242 183.585 71.1891 184.499 70.7164C185.444 70.2121 186.674 69.96 188.186 69.96C189.699 69.96 190.912 70.2121 191.826 70.7164C192.772 71.1891 193.244 72.0242 193.244 73.2218V73.7418C193.244 74.9079 192.772 75.7273 191.826 76.2C190.881 76.6727 189.667 76.9091 188.186 76.9091ZM206.168 110V81.6364H213.259V86.6H214.677C215.402 84.8982 216.537 83.5745 218.081 82.6291C219.657 81.6521 221.437 81.1636 223.423 81.1636C226.007 81.1636 228.024 81.983 229.474 83.6218C230.955 85.2291 231.696 87.4509 231.696 90.2873V110H224.605V91.5636C224.605 90.0509 224.242 88.9006 223.517 88.1127C222.824 87.3248 221.8 86.9309 220.445 86.9309C219.247 86.9309 218.018 87.2776 216.757 87.9709C215.497 88.6327 214.331 89.6412 213.259 90.9964V110H206.168ZM264.616 111.749C264.616 114.333 263.655 116.335 261.732 117.753C259.81 119.202 257.336 119.927 254.31 119.927H245.801C242.492 119.927 239.908 119.313 238.049 118.084C236.221 116.886 235.307 115.247 235.307 113.167C235.307 111.623 235.764 110.378 236.678 109.433C237.592 108.487 238.789 107.936 240.27 107.778V106.833C239.136 106.549 238.19 106.045 237.434 105.32C236.678 104.595 236.3 103.476 236.3 101.964C236.3 100.388 236.82 99.0642 237.86 97.9927C238.931 96.8897 240.428 96.2436 242.35 96.0545V95.1564C240.743 94.7152 239.577 94.0061 238.852 93.0291C238.159 92.0206 237.812 90.9333 237.812 89.7673V89.1055C237.812 86.8048 238.805 84.9927 240.79 83.6691C242.776 82.3139 245.376 81.6364 248.59 81.6364H264.049V86.3636L256.485 85.3709V86.2691C257.683 86.5842 258.628 87.2145 259.321 88.16C260.046 89.0739 260.409 90.0509 260.409 91.0909V91.8C260.409 94.0691 259.447 95.8497 257.525 97.1418C255.634 98.4339 252.971 99.08 249.536 99.08H244.62C243.674 99.08 242.934 99.2691 242.398 99.6473C241.894 100.025 241.641 100.672 241.641 101.585C241.641 102.468 241.941 103.114 242.54 103.524C243.138 103.933 244.005 104.138 245.14 104.138H254.689C257.62 104.138 259.999 104.753 261.827 105.982C263.686 107.211 264.616 109.133 264.616 111.749ZM249.158 95.1564C250.765 95.1564 251.947 94.8412 252.703 94.2109C253.491 93.5806 253.885 92.6824 253.885 91.5164V89.5782C253.885 88.4436 253.491 87.577 252.703 86.9782C251.915 86.3794 250.734 86.08 249.158 86.08C247.55 86.08 246.353 86.3794 245.565 86.9782C244.809 87.577 244.43 88.4436 244.43 89.5782V91.5164C244.43 92.6824 244.809 93.5806 245.565 94.2109C246.353 94.8412 247.55 95.1564 249.158 95.1564ZM245.801 115.436H254.547C255.776 115.436 256.769 115.232 257.525 114.822C258.313 114.412 258.707 113.624 258.707 112.458C258.707 111.292 258.344 110.504 257.62 110.095C256.895 109.685 255.949 109.48 254.783 109.48H242.114V112.222C242.114 113.293 242.414 114.097 243.012 114.633C243.643 115.168 244.572 115.436 245.801 115.436ZM312.115 110.378C309.184 110.378 306.521 109.968 304.126 109.149C301.762 108.298 299.635 107.006 297.744 105.273L300.486 100.12C302.093 101.57 303.842 102.704 305.733 103.524C307.624 104.312 309.798 104.705 312.257 104.705C314.337 104.705 315.944 104.264 317.078 103.382C318.213 102.468 318.78 101.255 318.78 99.7418C318.78 98.1345 318.213 96.9527 317.078 96.1964C315.944 95.44 313.832 94.6521 310.744 93.8327C306.3 92.6982 303.212 91.3273 301.478 89.72C299.777 88.0812 298.926 85.7491 298.926 82.7236C298.926 79.4461 300.029 76.8145 302.235 74.8291C304.472 72.8436 307.561 71.8509 311.5 71.8509C313.958 71.8509 316.353 72.2921 318.686 73.1745C321.049 74.0255 323.019 75.2388 324.595 76.8145L322.137 81.7782C320.561 80.423 318.875 79.383 317.078 78.6582C315.282 77.9333 313.438 77.5709 311.547 77.5709C309.814 77.5709 308.459 77.9176 307.482 78.6109C306.505 79.3042 306.017 80.423 306.017 81.9673C306.017 83.3855 306.568 84.5042 307.671 85.3236C308.774 86.143 311.012 86.9782 314.384 87.8291C318.701 88.9006 321.695 90.2715 323.366 91.9418C325.036 93.5806 325.871 95.96 325.871 99.08C325.871 102.704 324.563 105.493 321.947 107.447C319.363 109.401 316.086 110.378 312.115 110.378ZM348.013 110.473C344.483 110.473 341.742 109.638 339.788 107.967C337.865 106.297 336.904 103.839 336.904 100.593V87.0727H329.577V81.6364H336.904V72.1818H343.995V81.6364H355.34V87.0727H343.995V99.6945C343.995 101.491 344.42 102.815 345.271 103.665C346.122 104.485 347.32 104.895 348.864 104.895C349.841 104.895 350.834 104.832 351.842 104.705C352.851 104.548 353.843 104.296 354.82 103.949L355.766 109.338C354.915 109.653 353.812 109.921 352.457 110.142C351.133 110.362 349.652 110.473 348.013 110.473ZM370.817 105.604C372.141 105.604 373.37 105.399 374.504 104.989C375.639 104.548 376.679 103.87 377.624 102.956V98.3709H370.533C369.367 98.3709 368.438 98.623 367.744 99.1273C367.083 99.6315 366.752 100.608 366.752 102.058C366.752 103.193 367.067 104.075 367.697 104.705C368.327 105.304 369.367 105.604 370.817 105.604ZM369.257 110.473C366.673 110.473 364.498 109.779 362.733 108.393C361 107.006 360.133 104.973 360.133 102.295C360.133 99.7103 361.016 97.7248 362.781 96.3382C364.546 94.92 366.799 94.2109 369.541 94.2109H377.624V90.5709C377.624 89.1527 377.199 88.1127 376.348 87.4509C375.497 86.7891 374.221 86.4582 372.519 86.4582C370.786 86.4582 369.493 86.7576 368.643 87.3564C367.792 87.9236 367.146 89.1055 366.704 90.9018L360.795 89.72C361.426 86.6945 362.67 84.52 364.53 83.1964C366.389 81.8412 369.1 81.1636 372.661 81.1636C376.348 81.1636 379.232 81.9042 381.312 83.3855C383.423 84.8667 384.479 87.1673 384.479 90.2873V101.727C384.479 103.177 384.904 104.075 385.755 104.422C386.606 104.768 387.835 104.832 389.443 104.611V109.953C387.142 110.425 385.156 110.362 383.486 109.764C381.847 109.133 380.823 107.715 380.413 105.509H379.232C378.286 106.864 376.931 108.03 375.166 109.007C373.401 109.984 371.432 110.473 369.257 110.473ZM393.999 110V81.6364H401.09V86.6H402.508C403.202 84.7091 404.257 83.3382 405.676 82.4873C407.125 81.6048 408.843 81.1636 410.828 81.1636C413.097 81.1636 414.894 81.8727 416.217 83.2909C417.573 84.6776 418.25 86.6473 418.25 89.2V93.9745H411.726V91.3745C411.726 89.9248 411.396 88.8218 410.734 88.0655C410.103 87.3091 409.063 86.9309 407.614 86.9309C406.353 86.9309 405.156 87.2461 404.021 87.8764C402.918 88.4752 401.941 89.4679 401.09 90.8545V110H393.999ZM441.101 110.473C437.572 110.473 434.83 109.638 432.876 107.967C430.953 106.297 429.992 103.839 429.992 100.593V87.0727H422.665V81.6364H429.992V72.1818H437.083V81.6364H448.429V87.0727H437.083V99.6945C437.083 101.491 437.509 102.815 438.359 103.665C439.21 104.485 440.408 104.895 441.952 104.895C442.929 104.895 443.922 104.832 444.93 104.705C445.939 104.548 446.932 104.296 447.909 103.949L448.854 109.338C448.003 109.653 446.9 109.921 445.545 110.142C444.221 110.362 442.74 110.473 441.101 110.473ZM480.309 103.524C479.269 106.076 477.803 107.873 475.912 108.913C474.053 109.953 471.185 110.473 467.309 110.473C463.464 110.473 460.344 109.575 457.949 107.778C455.585 105.95 454.403 103.24 454.403 99.6473V92.0836C454.403 88.5539 455.554 85.8594 457.854 84C460.186 82.1091 463.306 81.1636 467.214 81.1636C471.154 81.1636 474.258 82.1091 476.527 84C478.796 85.8909 479.931 88.6485 479.931 92.2727V97.2364H461.494V99.9782C461.494 101.838 461.967 103.224 462.912 104.138C463.858 105.052 465.355 105.509 467.403 105.509C469.2 105.509 470.602 105.241 471.611 104.705C472.651 104.17 473.502 103.208 474.163 101.822L480.309 103.524ZM461.494 91.6109V93.0764H472.84V92.0364C472.84 89.8618 472.399 88.3176 471.516 87.4036C470.634 86.4582 469.184 85.9855 467.167 85.9855C465.15 85.9855 463.7 86.4267 462.818 87.3091C461.935 88.1915 461.494 89.6255 461.494 91.6109ZM497.015 104.658C498.244 104.658 499.41 104.359 500.513 103.76C501.616 103.161 502.735 102.247 503.869 101.018V88.1127C503.081 87.6085 502.215 87.2303 501.269 86.9782C500.324 86.7261 499.347 86.6 498.338 86.6C496.384 86.6 494.919 87.057 493.942 87.9709C492.996 88.8533 492.524 90.2085 492.524 92.0364V99.4109C492.524 101.207 492.902 102.531 493.658 103.382C494.446 104.233 495.565 104.658 497.015 104.658ZM502.451 105.036C501.663 106.738 500.529 108.078 499.047 109.055C497.598 110 495.927 110.473 494.036 110.473C491.295 110.473 489.167 109.527 487.655 107.636C486.173 105.745 485.433 103.319 485.433 100.356V91.9891C485.433 88.617 486.489 85.9855 488.6 84.0945C490.712 82.2036 493.642 81.2582 497.393 81.2582C498.527 81.2582 499.646 81.3685 500.749 81.5891C501.852 81.7782 502.892 82.0618 503.869 82.44V72.1818H510.96V110H503.869V105.036H502.451Z" fill="white"/>
</g>
<rect width="561" height="100" fill="url(#paint1_linear)"/>
<rect x="247" y="156" width="68" height="48" rx="12" fill="black" fill-opacity="0.7"/>
<path d="M274 189V169L291.5 179L274 189Z" fill="white"/>
<path d="M32 52C43.0457 52 52 43.0457 52 32C52 20.9543 43.0457 12 32 12C20.9543 12 12 20.9543 12 32C12 43.0457 20.9543 52 32 52Z" fill="white"/>
<mask id="mask0" mask-type="alpha" maskUnits="userSpaceOnUse" x="22" y="22" width="20" height="20">
<path fill-rule="evenodd" clip-rule="evenodd" d="M36.1824 41.8634C36.4974 41.9861 36.8566 41.9782 37.1745 41.8252L41.2922 39.8439C41.7248 39.6357 42 39.1978 42 38.7174V25.2826C42 24.8022 41.7249 24.3643 41.2922 24.1561L37.1745 22.1747C36.7572 21.9739 36.2689 22.0231 35.9027 22.2893C35.8504 22.3274 35.8006 22.3698 35.7538 22.4166L27.871 29.6082L24.4374 27.0019C24.1178 26.7592 23.6707 26.7791 23.3739 27.0492L22.2726 28.0509C21.9095 28.3812 21.9091 28.9525 22.2717 29.2833L25.2494 32L22.2717 34.7166C21.9091 35.0474 21.9095 35.6187 22.2726 35.949L23.3739 36.9508C23.6707 37.2208 24.1178 37.2407 24.4374 36.998L27.871 34.3917L35.7538 41.5833C35.8785 41.7081 36.0249 41.802 36.1824 41.8634ZM37.003 27.4597L31.0218 32L37.003 36.5402V27.4597Z" fill="white"/>
</mask>
<g mask="url(#mask0)">
<path d="M41.2922 24.1593L37.1713 22.1751C36.6943 21.9455 36.1243 22.0423 35.7499 22.4167L22.2597 34.7167C21.8968 35.0475 21.8972 35.6188 22.2606 35.9491L23.3625 36.9508C23.6595 37.2209 24.1069 37.2407 24.4267 36.9981L40.6721 24.674C41.2171 24.2605 41.9999 24.6493 41.9999 25.3334V25.2855C41.9999 24.8053 41.7249 24.3676 41.2922 24.1593Z" fill="#0065A9"/>
<g filter="url(#filter1_d)">
<path d="M41.2922 39.8408L37.1713 41.8249C36.6943 42.0546 36.1243 41.9577 35.7499 41.5834L22.2597 29.2834C21.8968 28.9526 21.8972 28.3813 22.2606 28.051L23.3625 27.0492C23.6595 26.7792 24.1069 26.7593 24.4267 27.0019L40.6721 39.3261C41.2171 39.7395 41.9999 39.3508 41.9999 38.6667V38.7146C41.9999 39.1947 41.7249 39.6325 41.2922 39.8408Z" fill="#007ACC"/>
</g>
<g filter="url(#filter2_d)">
<path d="M37.1716 41.8252C36.6944 42.0547 36.1244 41.9577 35.75 41.5833C36.2113 42.0446 37 41.7179 37 41.0655V22.9344C37 22.282 36.2113 21.9553 35.75 22.4166C36.1244 22.0422 36.6944 21.9452 37.1716 22.1747L41.2917 24.1561C41.7247 24.3643 42 24.8022 42 25.2826V38.7174C42 39.1978 41.7247 39.6357 41.2917 39.8439L37.1716 41.8252Z" fill="#1F9CF0"/>
</g>
<g style="mix-blend-mode:overlay" opacity="0.25">
<path style="mix-blend-mode:overlay" opacity="0.25" fill-rule="evenodd" clip-rule="evenodd" d="M36.1702 41.8634C36.4852 41.9861 36.8444 41.9782 37.1623 41.8252L41.28 39.8439C41.7126 39.6357 41.9878 39.1978 41.9878 38.7174V25.2826C41.9878 24.8022 41.7126 24.3643 41.28 24.1561L37.1623 22.1747C36.745 21.9739 36.2567 22.0231 35.8905 22.2893C35.8382 22.3274 35.7884 22.3698 35.7416 22.4166L27.8588 29.6082L24.4252 27.0019C24.1056 26.7592 23.6585 26.7791 23.3617 27.0492L22.2604 28.0509C21.8973 28.3812 21.8969 28.9525 22.2595 29.2833L25.2372 32L22.2595 34.7166C21.8969 35.0474 21.8973 35.6187 22.2604 35.949L23.3617 36.9508C23.6585 37.2208 24.1056 37.2407 24.4252 36.998L27.8588 34.3917L35.7416 41.5833C35.8663 41.7081 36.0127 41.802 36.1702 41.8634ZM36.9908 27.4597L31.0096 32L36.9908 36.5402V27.4597Z" fill="url(#paint2_linear)"/>
</g>
</g>
<path d="M72.9336 37.3213C72.5 37.9424 71.8936 38.4082 71.1143 38.7188C70.3408 39.0234 69.4385 39.1758 68.4072 39.1758C67.3643 39.1758 66.4385 38.9326 65.6299 38.4463C64.8213 37.9541 64.1943 37.2568 63.749 36.3545C63.3096 35.4521 63.084 34.4062 63.0723 33.2168V32.1006C63.0723 30.1729 63.5205 28.6787 64.417 27.6182C65.3193 26.5576 66.585 26.0273 68.2139 26.0273C69.5498 26.0273 70.625 26.3701 71.4395 27.0557C72.2539 27.7354 72.752 28.7021 72.9336 29.9561H71.2461C70.9297 28.2627 69.9219 27.416 68.2227 27.416C67.0918 27.416 66.2334 27.8145 65.6475 28.6113C65.0674 29.4023 64.7744 30.5508 64.7686 32.0566V33.1025C64.7686 34.5381 65.0967 35.6807 65.7529 36.5303C66.4092 37.374 67.2969 37.7959 68.416 37.7959C69.0488 37.7959 69.6025 37.7256 70.0771 37.585C70.5518 37.4443 70.9443 37.207 71.2549 36.873V33.999H68.293V32.6279H72.9336V37.3213ZM79.4463 39.1758C78.1572 39.1758 77.1084 38.7539 76.2998 37.9102C75.4912 37.0605 75.0869 35.9268 75.0869 34.5088V34.21C75.0869 33.2666 75.2656 32.4258 75.623 31.6875C75.9863 30.9434 76.4902 30.3633 77.1348 29.9473C77.7852 29.5254 78.4883 29.3145 79.2441 29.3145C80.4805 29.3145 81.4414 29.7217 82.127 30.5361C82.8125 31.3506 83.1553 32.5166 83.1553 34.0342V34.7109H76.7129C76.7363 35.6484 77.0088 36.4072 77.5303 36.9873C78.0576 37.5615 78.7256 37.8486 79.5342 37.8486C80.1084 37.8486 80.5947 37.7314 80.9932 37.4971C81.3916 37.2627 81.7402 36.9521 82.0391 36.5654L83.0322 37.3389C82.2354 38.5635 81.04 39.1758 79.4463 39.1758ZM79.2441 30.6504C78.5879 30.6504 78.0371 30.8906 77.5918 31.3711C77.1465 31.8457 76.8711 32.5137 76.7656 33.375H81.5293V33.252C81.4824 32.4258 81.2598 31.7871 80.8613 31.3359C80.4629 30.8789 79.9238 30.6504 79.2441 30.6504ZM87.251 27.1875V29.4902H89.0264V30.7471H87.251V36.6445C87.251 37.0254 87.3301 37.3125 87.4883 37.5059C87.6465 37.6934 87.916 37.7871 88.2969 37.7871C88.4844 37.7871 88.7422 37.752 89.0703 37.6816V39C88.6426 39.1172 88.2266 39.1758 87.8223 39.1758C87.0957 39.1758 86.5479 38.9561 86.1787 38.5166C85.8096 38.0771 85.625 37.4531 85.625 36.6445V30.7471H83.8936V29.4902H85.625V27.1875H87.251ZM93.1396 27.1875V29.4902H94.915V30.7471H93.1396V36.6445C93.1396 37.0254 93.2188 37.3125 93.377 37.5059C93.5352 37.6934 93.8047 37.7871 94.1855 37.7871C94.373 37.7871 94.6309 37.752 94.959 37.6816V39C94.5312 39.1172 94.1152 39.1758 93.7109 39.1758C92.9844 39.1758 92.4365 38.9561 92.0674 38.5166C91.6982 38.0771 91.5137 37.4531 91.5137 36.6445V30.7471H89.7822V29.4902H91.5137V27.1875H93.1396ZM98.5889 39H96.9629V29.4902H98.5889V39ZM96.8311 26.9678C96.8311 26.7041 96.9102 26.4814 97.0684 26.2998C97.2324 26.1182 97.4727 26.0273 97.7891 26.0273C98.1055 26.0273 98.3457 26.1182 98.5098 26.2998C98.6738 26.4814 98.7559 26.7041 98.7559 26.9678C98.7559 27.2314 98.6738 27.4512 98.5098 27.627C98.3457 27.8027 98.1055 27.8906 97.7891 27.8906C97.4727 27.8906 97.2324 27.8027 97.0684 27.627C96.9102 27.4512 96.8311 27.2314 96.8311 26.9678ZM102.737 29.4902L102.79 30.6855C103.517 29.7715 104.466 29.3145 105.638 29.3145C107.647 29.3145 108.661 30.4482 108.679 32.7158V39H107.053V32.707C107.047 32.0215 106.889 31.5146 106.578 31.1865C106.273 30.8584 105.796 30.6943 105.146 30.6943C104.618 30.6943 104.155 30.835 103.757 31.1162C103.358 31.3975 103.048 31.7666 102.825 32.2236V39H101.199V29.4902H102.737ZM110.744 34.166C110.744 32.6836 111.087 31.5059 111.772 30.6328C112.458 29.7539 113.366 29.3145 114.497 29.3145C115.657 29.3145 116.562 29.7246 117.213 30.5449L117.292 29.4902H118.777V38.7715C118.777 40.002 118.411 40.9717 117.679 41.6807C116.952 42.3896 115.974 42.7441 114.743 42.7441C114.058 42.7441 113.387 42.5977 112.73 42.3047C112.074 42.0117 111.573 41.6104 111.228 41.1006L112.071 40.125C112.769 40.9863 113.621 41.417 114.629 41.417C115.42 41.417 116.035 41.1943 116.475 40.749C116.92 40.3037 117.143 39.6768 117.143 38.8682V38.0508C116.492 38.8008 115.604 39.1758 114.479 39.1758C113.366 39.1758 112.464 38.7275 111.772 37.8311C111.087 36.9346 110.744 35.7129 110.744 34.166ZM112.379 34.3506C112.379 35.4229 112.599 36.2666 113.038 36.8818C113.478 37.4912 114.093 37.7959 114.884 37.7959C115.909 37.7959 116.662 37.3301 117.143 36.3984V32.0566C116.645 31.1484 115.897 30.6943 114.901 30.6943C114.11 30.6943 113.492 31.002 113.047 31.6172C112.602 32.2324 112.379 33.1436 112.379 34.3506ZM131.24 36.4775C131.24 36.0381 131.073 35.6982 130.739 35.458C130.411 35.2119 129.834 35.001 129.008 34.8252C128.188 34.6494 127.534 34.4385 127.048 34.1924C126.567 33.9463 126.21 33.6533 125.976 33.3135C125.747 32.9736 125.633 32.5693 125.633 32.1006C125.633 31.3213 125.961 30.6621 126.617 30.123C127.279 29.584 128.123 29.3145 129.148 29.3145C130.227 29.3145 131.1 29.5928 131.768 30.1494C132.441 30.7061 132.778 31.418 132.778 32.2852H131.144C131.144 31.8398 130.953 31.4561 130.572 31.1338C130.197 30.8115 129.723 30.6504 129.148 30.6504C128.557 30.6504 128.094 30.7793 127.76 31.0371C127.426 31.2949 127.259 31.6318 127.259 32.0479C127.259 32.4404 127.414 32.7363 127.725 32.9355C128.035 33.1348 128.595 33.3252 129.403 33.5068C130.218 33.6885 130.877 33.9053 131.381 34.1572C131.885 34.4092 132.257 34.7139 132.497 35.0713C132.743 35.4229 132.866 35.8535 132.866 36.3633C132.866 37.2129 132.526 37.8955 131.847 38.4111C131.167 38.9209 130.285 39.1758 129.201 39.1758C128.439 39.1758 127.766 39.041 127.18 38.7715C126.594 38.502 126.134 38.127 125.8 37.6465C125.472 37.1602 125.308 36.6357 125.308 36.0732H126.934C126.963 36.6182 127.18 37.0518 127.584 37.374C127.994 37.6904 128.533 37.8486 129.201 37.8486C129.816 37.8486 130.309 37.7256 130.678 37.4795C131.053 37.2275 131.24 36.8936 131.24 36.4775ZM137.19 27.1875V29.4902H138.966V30.7471H137.19V36.6445C137.19 37.0254 137.27 37.3125 137.428 37.5059C137.586 37.6934 137.855 37.7871 138.236 37.7871C138.424 37.7871 138.682 37.752 139.01 37.6816V39C138.582 39.1172 138.166 39.1758 137.762 39.1758C137.035 39.1758 136.487 38.9561 136.118 38.5166C135.749 38.0771 135.564 37.4531 135.564 36.6445V30.7471H133.833V29.4902H135.564V27.1875H137.19ZM146.744 39C146.65 38.8125 146.574 38.4785 146.516 37.998C145.76 38.7832 144.857 39.1758 143.809 39.1758C142.871 39.1758 142.101 38.9121 141.497 38.3848C140.899 37.8516 140.601 37.1777 140.601 36.3633C140.601 35.373 140.976 34.6055 141.726 34.0605C142.481 33.5098 143.542 33.2344 144.907 33.2344H146.489V32.4873C146.489 31.9189 146.319 31.4678 145.979 31.1338C145.64 30.7939 145.139 30.624 144.477 30.624C143.896 30.624 143.41 30.7705 143.018 31.0635C142.625 31.3564 142.429 31.7109 142.429 32.127H140.794C140.794 31.6523 140.961 31.1953 141.295 30.7559C141.635 30.3105 142.092 29.959 142.666 29.7012C143.246 29.4434 143.882 29.3145 144.573 29.3145C145.669 29.3145 146.527 29.5898 147.148 30.1406C147.77 30.6855 148.092 31.4385 148.115 32.3994V36.7764C148.115 37.6494 148.227 38.3438 148.449 38.8594V39H146.744ZM144.046 37.7607C144.556 37.7607 145.039 37.6289 145.496 37.3652C145.953 37.1016 146.284 36.7588 146.489 36.3369V34.3857H145.215C143.223 34.3857 142.227 34.9688 142.227 36.1348C142.227 36.6445 142.396 37.043 142.736 37.3301C143.076 37.6172 143.513 37.7607 144.046 37.7607ZM155.261 30.9492C155.015 30.9082 154.748 30.8877 154.461 30.8877C153.395 30.8877 152.671 31.3418 152.29 32.25V39H150.664V29.4902H152.246L152.272 30.5889C152.806 29.7393 153.562 29.3145 154.54 29.3145C154.856 29.3145 155.097 29.3555 155.261 29.4375V30.9492ZM159.409 27.1875V29.4902H161.185V30.7471H159.409V36.6445C159.409 37.0254 159.488 37.3125 159.646 37.5059C159.805 37.6934 160.074 37.7871 160.455 37.7871C160.643 37.7871 160.9 37.752 161.229 37.6816V39C160.801 39.1172 160.385 39.1758 159.98 39.1758C159.254 39.1758 158.706 38.9561 158.337 38.5166C157.968 38.0771 157.783 37.4531 157.783 36.6445V30.7471H156.052V29.4902H157.783V27.1875H159.409ZM167.038 39.1758C165.749 39.1758 164.7 38.7539 163.892 37.9102C163.083 37.0605 162.679 35.9268 162.679 34.5088V34.21C162.679 33.2666 162.857 32.4258 163.215 31.6875C163.578 30.9434 164.082 30.3633 164.727 29.9473C165.377 29.5254 166.08 29.3145 166.836 29.3145C168.072 29.3145 169.033 29.7217 169.719 30.5361C170.404 31.3506 170.747 32.5166 170.747 34.0342V34.7109H164.305C164.328 35.6484 164.601 36.4072 165.122 36.9873C165.649 37.5615 166.317 37.8486 167.126 37.8486C167.7 37.8486 168.187 37.7314 168.585 37.4971C168.983 37.2627 169.332 36.9521 169.631 36.5654L170.624 37.3389C169.827 38.5635 168.632 39.1758 167.038 39.1758ZM166.836 30.6504C166.18 30.6504 165.629 30.8906 165.184 31.3711C164.738 31.8457 164.463 32.5137 164.357 33.375H169.121V33.252C169.074 32.4258 168.852 31.7871 168.453 31.3359C168.055 30.8789 167.516 30.6504 166.836 30.6504ZM172.241 34.166C172.241 32.707 172.587 31.5352 173.278 30.6504C173.97 29.7598 174.875 29.3145 175.994 29.3145C177.107 29.3145 177.989 29.6953 178.64 30.457V25.5H180.266V39H178.771L178.692 37.9805C178.042 38.7773 177.137 39.1758 175.977 39.1758C174.875 39.1758 173.976 38.7246 173.278 37.8223C172.587 36.9199 172.241 35.7422 172.241 34.2891V34.166ZM173.867 34.3506C173.867 35.4287 174.09 36.2725 174.535 36.8818C174.98 37.4912 175.596 37.7959 176.381 37.7959C177.412 37.7959 178.165 37.333 178.64 36.4072V32.0391C178.153 31.1426 177.406 30.6943 176.398 30.6943C175.602 30.6943 174.98 31.002 174.535 31.6172C174.09 32.2324 173.867 33.1436 173.867 34.3506ZM195.682 36.7588L197.51 29.4902H199.136L196.367 39H195.049L192.737 31.793L190.487 39H189.169L186.409 29.4902H188.026L189.898 36.6094L192.113 29.4902H193.423L195.682 36.7588ZM202.563 39H200.938V29.4902H202.563V39ZM200.806 26.9678C200.806 26.7041 200.885 26.4814 201.043 26.2998C201.207 26.1182 201.447 26.0273 201.764 26.0273C202.08 26.0273 202.32 26.1182 202.484 26.2998C202.648 26.4814 202.73 26.7041 202.73 26.9678C202.73 27.2314 202.648 27.4512 202.484 27.627C202.32 27.8027 202.08 27.8906 201.764 27.8906C201.447 27.8906 201.207 27.8027 201.043 27.627C200.885 27.4512 200.806 27.2314 200.806 26.9678ZM207.38 27.1875V29.4902H209.155V30.7471H207.38V36.6445C207.38 37.0254 207.459 37.3125 207.617 37.5059C207.775 37.6934 208.045 37.7871 208.426 37.7871C208.613 37.7871 208.871 37.752 209.199 37.6816V39C208.771 39.1172 208.355 39.1758 207.951 39.1758C207.225 39.1758 206.677 38.9561 206.308 38.5166C205.938 38.0771 205.754 37.4531 205.754 36.6445V30.7471H204.022V29.4902H205.754V27.1875H207.38ZM212.688 30.6416C213.409 29.7568 214.347 29.3145 215.501 29.3145C217.511 29.3145 218.524 30.4482 218.542 32.7158V39H216.916V32.707C216.91 32.0215 216.752 31.5146 216.441 31.1865C216.137 30.8584 215.659 30.6943 215.009 30.6943C214.481 30.6943 214.019 30.835 213.62 31.1162C213.222 31.3975 212.911 31.7666 212.688 32.2236V39H211.062V25.5H212.688V30.6416ZM229.933 36.7588L233.589 26.2031H235.435L230.688 39H229.194L224.457 26.2031H226.294L229.933 36.7588ZM238.669 39H237.043V29.4902H238.669V39ZM236.911 26.9678C236.911 26.7041 236.99 26.4814 237.148 26.2998C237.312 26.1182 237.553 26.0273 237.869 26.0273C238.186 26.0273 238.426 26.1182 238.59 26.2998C238.754 26.4814 238.836 26.7041 238.836 26.9678C238.836 27.2314 238.754 27.4512 238.59 27.627C238.426 27.8027 238.186 27.8906 237.869 27.8906C237.553 27.8906 237.312 27.8027 237.148 27.627C236.99 27.4512 236.911 27.2314 236.911 26.9678ZM246.816 36.4775C246.816 36.0381 246.649 35.6982 246.315 35.458C245.987 35.2119 245.41 35.001 244.584 34.8252C243.764 34.6494 243.11 34.4385 242.624 34.1924C242.144 33.9463 241.786 33.6533 241.552 33.3135C241.323 32.9736 241.209 32.5693 241.209 32.1006C241.209 31.3213 241.537 30.6621 242.193 30.123C242.855 29.584 243.699 29.3145 244.725 29.3145C245.803 29.3145 246.676 29.5928 247.344 30.1494C248.018 30.7061 248.354 31.418 248.354 32.2852H246.72C246.72 31.8398 246.529 31.4561 246.148 31.1338C245.773 30.8115 245.299 30.6504 244.725 30.6504C244.133 30.6504 243.67 30.7793 243.336 31.0371C243.002 31.2949 242.835 31.6318 242.835 32.0479C242.835 32.4404 242.99 32.7363 243.301 32.9355C243.611 33.1348 244.171 33.3252 244.979 33.5068C245.794 33.6885 246.453 33.9053 246.957 34.1572C247.461 34.4092 247.833 34.7139 248.073 35.0713C248.319 35.4229 248.442 35.8535 248.442 36.3633C248.442 37.2129 248.103 37.8955 247.423 38.4111C246.743 38.9209 245.861 39.1758 244.777 39.1758C244.016 39.1758 243.342 39.041 242.756 38.7715C242.17 38.502 241.71 38.127 241.376 37.6465C241.048 37.1602 240.884 36.6357 240.884 36.0732H242.51C242.539 36.6182 242.756 37.0518 243.16 37.374C243.57 37.6904 244.109 37.8486 244.777 37.8486C245.393 37.8486 245.885 37.7256 246.254 37.4795C246.629 37.2275 246.816 36.8936 246.816 36.4775ZM256.432 38.0596C255.799 38.8037 254.87 39.1758 253.646 39.1758C252.632 39.1758 251.858 38.8828 251.325 38.2969C250.798 37.7051 250.531 36.832 250.525 35.6777V29.4902H252.151V35.6338C252.151 37.0752 252.737 37.7959 253.909 37.7959C255.151 37.7959 255.978 37.333 256.388 36.4072V29.4902H258.014V39H256.467L256.432 38.0596ZM266.363 39C266.27 38.8125 266.193 38.4785 266.135 37.998C265.379 38.7832 264.477 39.1758 263.428 39.1758C262.49 39.1758 261.72 38.9121 261.116 38.3848C260.519 37.8516 260.22 37.1777 260.22 36.3633C260.22 35.373 260.595 34.6055 261.345 34.0605C262.101 33.5098 263.161 33.2344 264.526 33.2344H266.108V32.4873C266.108 31.9189 265.938 31.4678 265.599 31.1338C265.259 30.7939 264.758 30.624 264.096 30.624C263.516 30.624 263.029 30.7705 262.637 31.0635C262.244 31.3564 262.048 31.7109 262.048 32.127H260.413C260.413 31.6523 260.58 31.1953 260.914 30.7559C261.254 30.3105 261.711 29.959 262.285 29.7012C262.865 29.4434 263.501 29.3145 264.192 29.3145C265.288 29.3145 266.146 29.5898 266.768 30.1406C267.389 30.6855 267.711 31.4385 267.734 32.3994V36.7764C267.734 37.6494 267.846 38.3438 268.068 38.8594V39H266.363ZM263.665 37.7607C264.175 37.7607 264.658 37.6289 265.115 37.3652C265.572 37.1016 265.903 36.7588 266.108 36.3369V34.3857H264.834C262.842 34.3857 261.846 34.9688 261.846 36.1348C261.846 36.6445 262.016 37.043 262.355 37.3301C262.695 37.6172 263.132 37.7607 263.665 37.7607ZM272.05 39H270.424V25.5H272.05V39ZM283.15 33.2959C281.703 32.8799 280.648 32.3701 279.986 31.7666C279.33 31.1572 279.002 30.4072 279.002 29.5166C279.002 28.5088 279.403 27.6768 280.206 27.0205C281.015 26.3584 282.063 26.0273 283.353 26.0273C284.231 26.0273 285.014 26.1973 285.699 26.5371C286.391 26.877 286.924 27.3457 287.299 27.9434C287.68 28.541 287.87 29.1943 287.87 29.9033H286.174C286.174 29.1299 285.928 28.5234 285.436 28.084C284.943 27.6387 284.249 27.416 283.353 27.416C282.521 27.416 281.87 27.6006 281.401 27.9697C280.938 28.333 280.707 28.8398 280.707 29.4902C280.707 30.0117 280.927 30.4541 281.366 30.8174C281.812 31.1748 282.564 31.5029 283.625 31.8018C284.691 32.1006 285.523 32.4316 286.121 32.7949C286.725 33.1523 287.17 33.5713 287.457 34.0518C287.75 34.5322 287.896 35.0977 287.896 35.748C287.896 36.7852 287.492 37.6172 286.684 38.2441C285.875 38.8652 284.794 39.1758 283.44 39.1758C282.562 39.1758 281.741 39.0088 280.979 38.6748C280.218 38.335 279.629 37.8721 279.213 37.2861C278.803 36.7002 278.598 36.0352 278.598 35.291H280.294C280.294 36.0645 280.578 36.6768 281.146 37.1279C281.721 37.5732 282.485 37.7959 283.44 37.7959C284.331 37.7959 285.014 37.6143 285.488 37.251C285.963 36.8877 286.2 36.3926 286.2 35.7656C286.2 35.1387 285.98 34.6553 285.541 34.3154C285.102 33.9697 284.305 33.6299 283.15 33.2959ZM292.019 27.1875V29.4902H293.794V30.7471H292.019V36.6445C292.019 37.0254 292.098 37.3125 292.256 37.5059C292.414 37.6934 292.684 37.7871 293.064 37.7871C293.252 37.7871 293.51 37.752 293.838 37.6816V39C293.41 39.1172 292.994 39.1758 292.59 39.1758C291.863 39.1758 291.315 38.9561 290.946 38.5166C290.577 38.0771 290.393 37.4531 290.393 36.6445V30.7471H288.661V29.4902H290.393V27.1875H292.019ZM301.572 38.0596C300.939 38.8037 300.011 39.1758 298.786 39.1758C297.772 39.1758 296.999 38.8828 296.466 38.2969C295.938 37.7051 295.672 36.832 295.666 35.6777V29.4902H297.292V35.6338C297.292 37.0752 297.878 37.7959 299.05 37.7959C300.292 37.7959 301.118 37.333 301.528 36.4072V29.4902H303.154V39H301.607L301.572 38.0596ZM305.237 34.166C305.237 32.707 305.583 31.5352 306.274 30.6504C306.966 29.7598 307.871 29.3145 308.99 29.3145C310.104 29.3145 310.985 29.6953 311.636 30.457V25.5H313.262V39H311.768L311.688 37.9805C311.038 38.7773 310.133 39.1758 308.973 39.1758C307.871 39.1758 306.972 38.7246 306.274 37.8223C305.583 36.9199 305.237 35.7422 305.237 34.2891V34.166ZM306.863 34.3506C306.863 35.4287 307.086 36.2725 307.531 36.8818C307.977 37.4912 308.592 37.7959 309.377 37.7959C310.408 37.7959 311.161 37.333 311.636 36.4072V32.0391C311.149 31.1426 310.402 30.6943 309.395 30.6943C308.598 30.6943 307.977 31.002 307.531 31.6172C307.086 32.2324 306.863 33.1436 306.863 34.3506ZM317.56 39H315.934V29.4902H317.56V39ZM315.802 26.9678C315.802 26.7041 315.881 26.4814 316.039 26.2998C316.203 26.1182 316.443 26.0273 316.76 26.0273C317.076 26.0273 317.316 26.1182 317.48 26.2998C317.645 26.4814 317.727 26.7041 317.727 26.9678C317.727 27.2314 317.645 27.4512 317.48 27.627C317.316 27.8027 317.076 27.8906 316.76 27.8906C316.443 27.8906 316.203 27.8027 316.039 27.627C315.881 27.4512 315.802 27.2314 315.802 26.9678ZM319.739 34.1572C319.739 33.2256 319.921 32.3877 320.284 31.6436C320.653 30.8994 321.163 30.3252 321.813 29.9209C322.47 29.5166 323.217 29.3145 324.055 29.3145C325.35 29.3145 326.396 29.7627 327.192 30.6592C327.995 31.5557 328.396 32.748 328.396 34.2363V34.3506C328.396 35.2764 328.218 36.1084 327.86 36.8467C327.509 37.5791 327.002 38.1504 326.34 38.5605C325.684 38.9707 324.928 39.1758 324.072 39.1758C322.783 39.1758 321.737 38.7275 320.935 37.8311C320.138 36.9346 319.739 35.748 319.739 34.2715V34.1572ZM321.374 34.3506C321.374 35.4053 321.617 36.252 322.104 36.8906C322.596 37.5293 323.252 37.8486 324.072 37.8486C324.898 37.8486 325.555 37.5264 326.041 36.8818C326.527 36.2314 326.771 35.3232 326.771 34.1572C326.771 33.1143 326.521 32.2705 326.023 31.626C325.531 30.9756 324.875 30.6504 324.055 30.6504C323.252 30.6504 322.604 30.9697 322.112 31.6084C321.62 32.2471 321.374 33.1611 321.374 34.3506ZM344.568 34.9395C344.41 36.293 343.909 37.3389 343.065 38.0771C342.228 38.8096 341.111 39.1758 339.717 39.1758C338.205 39.1758 336.992 38.6338 336.078 37.5498C335.17 36.4658 334.716 35.0156 334.716 33.1992V31.9688C334.716 30.7793 334.927 29.7334 335.349 28.8311C335.776 27.9287 336.38 27.2373 337.159 26.7568C337.938 26.2705 338.841 26.0273 339.866 26.0273C341.226 26.0273 342.315 26.4082 343.136 27.1699C343.956 27.9258 344.434 28.9746 344.568 30.3164H342.872C342.726 29.2969 342.406 28.5586 341.914 28.1016C341.428 27.6445 340.745 27.416 339.866 27.416C338.788 27.416 337.941 27.8145 337.326 28.6113C336.717 29.4082 336.412 30.542 336.412 32.0127V33.252C336.412 34.6406 336.702 35.7451 337.282 36.5654C337.862 37.3857 338.674 37.7959 339.717 37.7959C340.654 37.7959 341.372 37.585 341.87 37.1631C342.374 36.7354 342.708 35.9941 342.872 34.9395H344.568ZM346.194 34.1572C346.194 33.2256 346.376 32.3877 346.739 31.6436C347.108 30.8994 347.618 30.3252 348.269 29.9209C348.925 29.5166 349.672 29.3145 350.51 29.3145C351.805 29.3145 352.851 29.7627 353.647 30.6592C354.45 31.5557 354.852 32.748 354.852 34.2363V34.3506C354.852 35.2764 354.673 36.1084 354.315 36.8467C353.964 37.5791 353.457 38.1504 352.795 38.5605C352.139 38.9707 351.383 39.1758 350.527 39.1758C349.238 39.1758 348.192 38.7275 347.39 37.8311C346.593 36.9346 346.194 35.748 346.194 34.2715V34.1572ZM347.829 34.3506C347.829 35.4053 348.072 36.252 348.559 36.8906C349.051 37.5293 349.707 37.8486 350.527 37.8486C351.354 37.8486 352.01 37.5264 352.496 36.8818C352.982 36.2314 353.226 35.3232 353.226 34.1572C353.226 33.1143 352.977 32.2705 352.479 31.626C351.986 30.9756 351.33 30.6504 350.51 30.6504C349.707 30.6504 349.06 30.9697 348.567 31.6084C348.075 32.2471 347.829 33.1611 347.829 34.3506ZM356.495 34.166C356.495 32.707 356.841 31.5352 357.532 30.6504C358.224 29.7598 359.129 29.3145 360.248 29.3145C361.361 29.3145 362.243 29.6953 362.894 30.457V25.5H364.52V39H363.025L362.946 37.9805C362.296 38.7773 361.391 39.1758 360.23 39.1758C359.129 39.1758 358.229 38.7246 357.532 37.8223C356.841 36.9199 356.495 35.7422 356.495 34.2891V34.166ZM358.121 34.3506C358.121 35.4287 358.344 36.2725 358.789 36.8818C359.234 37.4912 359.85 37.7959 360.635 37.7959C361.666 37.7959 362.419 37.333 362.894 36.4072V32.0391C362.407 31.1426 361.66 30.6943 360.652 30.6943C359.855 30.6943 359.234 31.002 358.789 31.6172C358.344 32.2324 358.121 33.1436 358.121 34.3506ZM370.997 39.1758C369.708 39.1758 368.659 38.7539 367.851 37.9102C367.042 37.0605 366.638 35.9268 366.638 34.5088V34.21C366.638 33.2666 366.816 32.4258 367.174 31.6875C367.537 30.9434 368.041 30.3633 368.686 29.9473C369.336 29.5254 370.039 29.3145 370.795 29.3145C372.031 29.3145 372.992 29.7217 373.678 30.5361C374.363 31.3506 374.706 32.5166 374.706 34.0342V34.7109H368.264C368.287 35.6484 368.56 36.4072 369.081 36.9873C369.608 37.5615 370.276 37.8486 371.085 37.8486C371.659 37.8486 372.146 37.7314 372.544 37.4971C372.942 37.2627 373.291 36.9521 373.59 36.5654L374.583 37.3389C373.786 38.5635 372.591 39.1758 370.997 39.1758ZM370.795 30.6504C370.139 30.6504 369.588 30.8906 369.143 31.3711C368.697 31.8457 368.422 32.5137 368.316 33.375H373.08V33.252C373.033 32.4258 372.811 31.7871 372.412 31.3359C372.014 30.8789 371.475 30.6504 370.795 30.6504Z" fill="#F1F1F1"/>
<defs>
<pattern id="pattern0" patternContentUnits="objectBoundingBox" width="1" height="1">
<use xlink:href="#image0" transform="scale(0.000244141 0.000433839)"/>
</pattern>
<filter id="filter0_d" x="27.637" y="139.782" width="505.918" height="330.115" filterUnits="userSpaceOnUse" color-interpolation-filters="sRGB">
<feFlood flood-opacity="0" result="BackgroundImageFix"/>
<feColorMatrix in="SourceAlpha" type="matrix" values="0 0 0 0 0 0 0 0 0 0 0 0 0 0 0 0 0 0 127 0"/>
<feOffset dy="3.09248"/>
<feGaussianBlur stdDeviation="9.27745"/>
<feColorMatrix type="matrix" values="0 0 0 0 0 0 0 0 0 0 0 0 0 0 0 0 0 0 0.6 0"/>
<feBlend mode="normal" in2="BackgroundImageFix" result="effect1_dropShadow"/>
<feBlend mode="normal" in="SourceGraphic" in2="effect1_dropShadow" result="shape"/>
</filter>
<filter id="filter1_d" x="16.2735" y="21.1182" width="31.4407" height="26.5444" filterUnits="userSpaceOnUse" color-interpolation-filters="sRGB">
<feFlood flood-opacity="0" result="BackgroundImageFix"/>
<feColorMatrix in="SourceAlpha" type="matrix" values="0 0 0 0 0 0 0 0 0 0 0 0 0 0 0 0 0 0 127 0"/>
<feOffset/>
<feGaussianBlur stdDeviation="2.85714"/>
<feColorMatrix type="matrix" values="0 0 0 0 0 0 0 0 0 0 0 0 0 0 0 0 0 0 0.25 0"/>
<feBlend mode="overlay" in2="BackgroundImageFix" result="effect1_dropShadow"/>
<feBlend mode="normal" in="SourceGraphic" in2="effect1_dropShadow" result="shape"/>
</filter>
<filter id="filter2_d" x="30.0357" y="16.3372" width="17.6786" height="31.3255" filterUnits="userSpaceOnUse" color-interpolation-filters="sRGB">
<feFlood flood-opacity="0" result="BackgroundImageFix"/>
<feColorMatrix in="SourceAlpha" type="matrix" values="0 0 0 0 0 0 0 0 0 0 0 0 0 0 0 0 0 0 127 0"/>
<feOffset/>
<feGaussianBlur stdDeviation="2.85714"/>
<feColorMatrix type="matrix" values="0 0 0 0 0 0 0 0 0 0 0 0 0 0 0 0 0 0 0.25 0"/>
<feBlend mode="overlay" in2="BackgroundImageFix" result="effect1_dropShadow"/>
<feBlend mode="normal" in="SourceGraphic" in2="effect1_dropShadow" result="shape"/>
</filter>
<radialGradient id="paint0_radial" cx="0" cy="0" r="1" gradientUnits="userSpaceOnUse" gradientTransform="translate(281 83.5) rotate(90) scale(362.5 564.896)">
<stop stop-color="#025EA9"/>
<stop offset="1" stop-color="#00345F"/>
</radialGradient>
<linearGradient id="paint1_linear" x1="280.5" y1="0" x2="280.5" y2="100" gradientUnits="userSpaceOnUse">
<stop stop-opacity="0.5"/>
<stop offset="1" stop-opacity="0"/>
</linearGradient>
<linearGradient id="paint2_linear" x1="31.9878" y1="22.0515" x2="31.9878" y2="41.9484" gradientUnits="userSpaceOnUse">
<stop stop-color="white"/>
<stop offset="1" stop-color="white" stop-opacity="0"/>
</linearGradient>
<clipPath id="clip0">
<rect width="561" height="360" fill="white"/>
</clipPath>
</defs>

</a>
</svg>
