<svg width="412" height="333" viewBox="0 0 412 333" fill="none" xmlns="http://www.w3.org/2000/svg">
<path d="M0 4C0 1.79086 1.79086 0 4 0H407C409.209 0 411 1.79086 411 4V36H0V4Z" fill="#3C3C3C"/>
<rect width="411" height="272" transform="translate(0 36)" fill="#1E1E1E"/>
<g filter="url(#filter0_d_0_1)">
<path d="M186.436 73.5026C186.106 73.08 185.694 72.223 184.977 71.1548C184.565 70.5678 183.553 69.4526 183.247 68.8774C183.027 68.5278 182.963 68.1022 183.071 67.7035C183.256 66.9454 183.976 66.4425 184.753 66.5296C185.354 66.65 185.906 66.9439 186.341 67.3748C186.645 67.6602 186.925 67.9704 187.177 68.3022C187.365 68.537 187.412 68.6309 187.624 68.9009C187.836 69.1709 187.977 69.4409 187.871 69.0417C187.789 68.4548 187.647 67.4687 187.447 66.5883C187.294 65.9191 187.259 65.8135 187.118 65.3087C186.977 64.8039 186.894 64.3813 186.741 63.8061C186.602 63.2409 186.492 62.6688 186.412 62.0922C186.264 61.3546 186.372 60.5886 186.718 59.9204C187.129 59.5347 187.732 59.4328 188.247 59.6622C188.766 60.0441 189.152 60.5774 189.353 61.1883C189.662 61.94 189.867 62.7297 189.965 63.5361C190.153 64.71 190.518 66.4239 190.53 66.7761C190.53 66.3417 190.447 65.4261 190.53 65.0152C190.611 64.5869 190.91 64.2314 191.318 64.0761C191.668 63.9688 192.039 63.9447 192.4 64.0057C192.765 64.0817 193.088 64.2911 193.306 64.5926C193.579 65.2775 193.73 66.0044 193.753 66.7409C193.785 66.0959 193.895 65.4572 194.083 64.8391C194.279 64.5627 194.566 64.3634 194.894 64.2757C195.283 64.2047 195.682 64.2047 196.071 64.2757C196.39 64.382 196.669 64.5826 196.871 64.8509C197.12 65.4734 197.271 66.1308 197.318 66.7996C197.318 66.9639 197.4 66.3417 197.659 65.9309C197.794 65.5324 198.131 65.2359 198.544 65.1529C198.957 65.0699 199.383 65.2131 199.662 65.5285C199.94 65.844 200.029 66.2837 199.894 66.6822C199.894 67.4452 199.894 67.41 199.894 67.9265C199.894 68.443 199.894 68.9009 199.894 69.3352C199.852 70.0222 199.757 70.7049 199.612 71.3778C199.407 71.9731 199.122 72.5379 198.765 73.0565C198.194 73.6904 197.722 74.4067 197.365 75.1813C197.276 75.5661 197.237 75.9605 197.247 76.3552C197.246 76.7199 197.294 77.0831 197.389 77.4352C196.908 77.486 196.422 77.486 195.941 77.4352C195.483 77.3648 194.918 76.4491 194.765 76.1674C194.689 76.0161 194.534 75.9205 194.365 75.9205C194.196 75.9205 194.041 76.0161 193.965 76.1674C193.706 76.6135 193.13 77.4235 192.73 77.4704C191.941 77.5643 190.318 77.4704 189.036 77.4704C189.036 77.4704 189.247 76.2965 188.765 75.8739C188.283 75.4513 187.789 74.9583 187.424 74.6296L186.436 73.5026Z" fill="white"/>
<path fill-rule="evenodd" clip-rule="evenodd" d="M200.336 68.6857C200.336 68.4996 200.336 68.3135 200.336 67.9265V66.7485C200.487 66.2212 200.359 65.6515 199.993 65.2375C199.611 64.8041 199.025 64.6073 198.458 64.7214C198.071 64.799 197.732 65.013 197.498 65.3146C197.436 65.1019 197.363 64.893 197.281 64.6876C196.968 64.2468 196.615 63.9929 196.211 63.8582C195.71 63.7621 195.257 63.7621 194.816 63.8426C194.374 63.9594 194.013 64.2016 193.758 64.537C193.745 64.5013 193.731 64.4657 193.717 64.4301C193.382 63.9445 192.964 63.6733 192.491 63.5748C192.045 63.4992 191.605 63.5279 191.189 63.6553C190.922 63.7565 190.692 63.9133 190.511 64.1096C190.468 63.8669 190.432 63.6568 190.401 63.4666C190.301 62.6378 190.085 61.8098 189.762 61.0215C189.543 60.3533 189.102 59.7442 188.51 59.3081C187.75 58.9585 186.957 59.0924 186.416 59.5998L186.327 59.7182C185.934 60.4753 185.812 61.3431 185.98 62.1788C186.057 62.7442 186.17 63.3315 186.314 63.9116C186.38 64.162 186.381 64.1632 186.521 64.7514L186.521 64.7515C186.539 64.827 186.539 64.827 186.558 64.9027C186.606 65.0995 186.647 65.2619 186.694 65.427C186.773 65.7079 186.803 65.8166 186.83 65.9141L186.845 65.9725C186.894 66.1549 186.941 66.3515 187.018 66.6862C187.088 66.9949 187.15 67.3051 187.209 67.642C187.032 67.4381 186.843 67.2412 186.645 67.0543C186.157 66.5708 185.526 66.2354 184.841 66.098C183.805 65.9803 182.88 66.6261 182.643 67.5995C182.506 68.106 182.589 68.6583 182.875 69.1119C183.01 69.3697 183.273 69.7239 183.741 70.3021L183.814 70.3919C184.356 71.0604 184.454 71.1806 184.544 71.3059C184.567 71.3367 184.588 71.3677 184.616 71.4072C184.786 71.6608 185.085 72.1522 185.373 72.626C185.695 73.1557 186.003 73.6635 186.104 73.7925L187.092 74.9195C187.222 75.0387 187.565 75.3627 187.8 75.5849C187.916 75.6945 188.006 75.7794 188.031 75.8028C188.145 75.9089 188.25 76.0047 188.35 76.0946C188.381 76.1224 188.397 76.1362 188.412 76.15C188.428 76.1637 188.444 76.1774 188.475 76.2047C188.545 76.2663 188.604 76.4204 188.629 76.6454C188.65 76.8364 188.644 77.0495 188.621 77.2539C188.613 77.3213 188.606 77.3696 188.602 77.3925C188.553 77.6625 188.761 77.9107 189.036 77.9107C189.353 77.9107 189.68 77.9158 190.199 77.9274L190.379 77.9314C191.786 77.9634 192.314 77.9634 192.783 77.9076C193.318 77.8447 193.888 77.1804 194.371 76.364C194.782 77.1216 195.31 77.7836 195.875 77.8703C196.408 77.927 196.924 77.927 197.436 77.873C197.705 77.8446 197.886 77.5823 197.815 77.3209C197.731 77.0065 197.688 76.6822 197.689 76.3567C197.68 75.986 197.715 75.6285 197.796 75.2798C198.105 74.6309 198.552 73.9518 199.094 73.3509C199.509 72.7544 199.812 72.1538 200.03 71.5207C200.194 70.7761 200.291 70.0715 200.335 69.3626C200.336 69.0305 200.336 68.8581 200.336 68.6857ZM188.474 75.0087C188.244 74.7921 187.843 74.4135 187.72 74.3029L186.779 73.2246C186.71 73.1313 186.486 72.7613 186.225 72.3314C185.916 71.8204 185.556 71.2249 185.344 70.9097C185.246 70.7696 185.125 70.6116 184.959 70.405C184.895 70.3247 184.849 70.2679 184.734 70.1262L184.499 69.8377L184.428 69.7493C183.999 69.2187 183.753 68.8882 183.638 68.6711C183.467 68.3974 183.422 68.0984 183.497 67.8184C183.632 67.2647 184.148 66.9047 184.705 66.967C185.183 67.0647 185.658 67.3171 186.031 67.6872C186.326 67.964 186.589 68.256 186.826 68.5682C186.9 68.6603 186.946 68.7222 187.019 68.824C187.144 68.9993 187.18 69.0481 187.277 69.1722C187.284 69.181 187.303 69.2063 187.327 69.2397C187.395 69.3316 187.509 69.4847 187.546 69.5242C187.592 69.5826 187.592 69.5826 187.827 69.6786C188.33 69.4935 188.333 69.4893 188.348 69.2534C188.354 69.1606 188.337 69.0776 188.298 68.9291C188.164 67.9482 188.044 67.2224 187.878 66.491C187.8 66.1466 187.75 65.9407 187.698 65.7469L187.681 65.6846C187.654 65.5824 187.622 65.4689 187.544 65.1904C187.5 65.0359 187.461 64.8828 187.415 64.6949C187.406 64.6583 187.402 64.6399 187.397 64.6215C187.393 64.603 187.388 64.5844 187.38 64.5471C187.237 63.9492 187.236 63.9467 187.169 63.6932C187.034 63.1504 186.927 62.5935 186.85 62.0321C186.722 61.3934 186.803 60.7564 187.075 60.1943C187.353 59.9691 187.737 59.9169 188.068 60.0642C188.431 60.344 188.762 60.8016 188.935 61.3256C189.239 62.0703 189.435 62.8217 189.528 63.5889C189.579 63.9092 189.64 64.2582 189.723 64.7032L189.759 64.9002C190.082 66.6283 190.084 66.6407 190.089 66.7908C190.109 67.3677 190.972 67.3534 190.972 66.7761C190.972 66.6489 190.969 66.5807 190.953 66.1992C190.947 66.0487 190.944 65.9845 190.941 65.8966C190.929 65.5069 190.935 65.2417 190.963 65.1016C191.017 64.8192 191.211 64.5883 191.476 64.4874C191.733 64.4098 192.034 64.3902 192.327 64.4397C192.568 64.4902 192.795 64.6377 192.949 64.8502C193.151 65.3926 193.291 66.0692 193.313 66.7547C193.331 67.3183 194.167 67.3255 194.195 66.7623C194.223 66.1791 194.32 65.6013 194.484 65.0409C194.618 64.8756 194.802 64.7563 195.009 64.7009C195.311 64.6473 195.656 64.6473 195.992 64.7087C196.166 64.7713 196.371 64.9185 196.519 65.1154C196.694 65.5944 196.835 66.2071 196.879 66.8304C196.862 66.8255 196.862 66.8255 196.993 67.1204C197.637 67.2318 197.637 67.2318 197.708 67.0417L197.708 67.0416C197.738 66.9797 197.738 66.9797 197.747 66.9534C197.758 66.9213 197.769 66.8784 197.789 66.8008C197.833 66.6349 197.874 66.5056 197.926 66.3787C197.96 66.2958 197.996 66.2238 198.033 66.1652C198.162 65.822 198.373 65.6364 198.632 65.5845C198.89 65.5325 199.157 65.6221 199.331 65.8196C199.506 66.017 199.561 66.2923 199.477 66.5417L199.454 66.6822V69.3352C199.413 69.9729 199.322 70.6339 199.181 71.2852C199.004 71.7925 198.737 72.3214 198.402 72.8071C197.837 73.429 197.34 74.1826 196.965 74.9975C196.839 75.5037 196.796 75.9351 196.807 76.3668C196.806 76.5858 196.822 76.8083 196.855 77.0303C196.566 77.0388 196.277 77.0278 195.989 76.9975C195.845 76.975 195.408 76.4266 195.154 75.9577C195.01 75.6702 194.702 75.4803 194.366 75.4803C194.029 75.4803 193.721 75.6702 193.571 75.9708C193.279 76.4724 192.811 77.0177 192.679 77.0333C192.271 77.0819 191.749 77.0819 190.399 77.0512L190.219 77.0472C189.942 77.041 189.718 77.0366 189.522 77.0339C189.527 76.8719 189.523 76.709 189.506 76.5496C189.459 76.1266 189.326 75.7792 189.057 75.5431C189.028 75.5176 189.013 75.5047 188.999 75.4918C188.984 75.4788 188.969 75.4657 188.94 75.4393C188.844 75.3535 188.743 75.2615 188.633 75.159C188.615 75.1421 188.555 75.0856 188.474 75.0087Z" fill="#1E1E1E"/>
<path d="M196.414 74.1435V70.0914C196.414 69.8488 196.216 69.6522 195.972 69.6522C195.729 69.6522 195.531 69.8488 195.531 70.0914V74.1435C195.531 74.386 195.729 74.5827 195.972 74.5827C196.216 74.5827 196.414 74.386 196.414 74.1435Z" fill="#1E1E1E"/>
<path d="M194.084 74.142L194.06 70.0878C194.059 69.8459 193.86 69.6508 193.616 69.6522C193.373 69.6536 193.176 69.8509 193.178 70.0929L193.201 74.147C193.203 74.389 193.401 74.584 193.645 74.5826C193.889 74.5813 194.085 74.384 194.084 74.142Z" fill="#1E1E1E"/>
<path d="M190.824 70.0971L190.848 74.1429C190.849 74.3872 191.048 74.5841 191.291 74.5826C191.535 74.5812 191.732 74.382 191.73 74.1378L191.707 70.092C191.705 69.8477 191.506 69.6508 191.263 69.6522C191.019 69.6537 190.823 69.8528 190.824 70.0971Z" fill="#1E1E1E"/>
</g>
<rect width="48" height="272" transform="translate(1 36)" fill="#333333"/>
<g opacity="0.5">
<rect x="18" y="53" width="14" height="14" stroke="white" stroke-opacity="0.6" stroke-width="2"/>
</g>
<g opacity="0.5">
<rect x="18" y="103" width="14" height="14" stroke="white" stroke-opacity="0.6" stroke-width="2"/>
</g>
<g opacity="0.5">
<rect x="18" y="153" width="14" height="14" stroke="white" stroke-opacity="0.6" stroke-width="2"/>
</g>
<path fill-rule="evenodd" clip-rule="evenodd" d="M26.1872 207V208H33.248C33.766 208 34.187 208.386 34.187 208.861V213.75C34.187 215.335 32.785 216.62 31.056 216.62C30.695 216.62 30.2261 216.553 29.8311 216.327C29.1571 217.899 27.5961 219 25.7772 219H25.5972C23.6542 219 22.0053 217.744 21.4173 216H15.1875C14.6375 216 14.1875 215.55 14.1875 215V205C14.1875 204.45 14.6375 204 15.1875 204H23.1873C23.1873 202.343 24.5302 201 26.1872 201C27.8441 201 29.1871 202.343 29.1871 204C29.1871 205.657 27.8441 207 26.1872 207ZM28.1871 204C28.1871 205.103 27.2901 206 26.1871 206V205C26.1871 204.45 25.7371 204 25.1871 204H24.1872C24.1872 202.897 25.0841 202 26.1871 202C27.2901 202 28.1871 202.897 28.1871 204ZM20.6553 213.875V208.055H22.8192V206.125H16.5554V208.055H18.7323V213.875H20.6553ZM29.187 214.59V214.631C29.185 214.657 29.184 214.685 29.185 214.713C29.12 216.536 27.6161 218 25.7771 218H25.5971C24.2192 218 23.0302 217.179 22.4922 216H25.1871C25.7371 216 26.1871 215.55 26.1871 215V209H29.187V214.59ZM33.187 213.75C33.187 214.781 32.231 215.62 31.056 215.62C30.948 215.62 30.472 215.606 30.221 215.381C30.2238 215.231 30.2122 215.087 30.2017 214.958L30.199 214.924L30.195 214.882L30.195 214.882C30.1902 214.832 30.1856 214.784 30.184 214.74C30.186 214.69 30.187 214.64 30.187 214.59V209H33.187V213.75ZM33.387 205C33.387 205.662 32.849 206.2 32.187 206.2C31.525 206.2 30.987 205.662 30.987 205C30.987 204.338 31.525 203.8 32.187 203.8C32.849 203.8 33.387 204.338 33.387 205ZM32.187 203C33.2919 203 34.1869 203.896 34.1869 205C34.1869 206.104 33.2919 207 32.187 207C31.083 207 30.187 206.104 30.187 205C30.187 203.896 31.083 203 32.187 203Z" fill="white"/>
<rect x="1.00391" y="186" width="3.5999" height="48" fill="white"/>
<rect width="283" height="272" transform="translate(49 36)" fill="#252526"/>
<g opacity="0.5">
<rect x="61" y="47" width="53" height="6" rx="3" fill="#616161"/>
</g>
<g opacity="0.5">
<path d="M71.08 76L66.7067 71.68L67.3467 71.04L71.9867 75.7333V76.32L67.3467 81.0133L66.7067 80.3733L71.08 76Z" fill="#D4D4D4"/>
<rect x="81" y="73" width="53" height="6" rx="3" fill="#616161"/>
</g>
<line x1="49" y1="91.5" x2="332" y2="91.5" stroke="#3C3C3C"/>
<path d="M69 106.08L73.32 101.707L73.96 102.347L69.2667 106.987H68.68L63.9867 102.347L64.6267 101.707L69 106.08Z" fill="#D4D4D4"/>
<path d="M82.0254 99.5449V108H85.3535C87.8848 108 89.3203 106.453 89.3203 103.717C89.3203 101.062 87.8672 99.5449 85.3535 99.5449H82.0254ZM83.7949 101.004H85.0723C86.6074 101.004 87.5156 102 87.5156 103.746C87.5156 105.557 86.6367 106.541 85.0723 106.541H83.7949V101.004ZM96.6035 106.541H92.7715V104.402H96.3867V103.043H92.7715V101.004H96.6035V99.5449H91.002V108H96.6035V106.541ZM98.4668 99.5449V108H100.236V105.334H101.906C103.688 105.334 104.924 104.174 104.924 102.451C104.924 100.705 103.734 99.5449 101.994 99.5449H98.4668ZM100.236 100.951H101.525C102.545 100.951 103.125 101.473 103.125 102.457C103.125 103.418 102.533 103.945 101.52 103.945H100.236V100.951ZM112.084 106.512H108.322V99.5449H106.553V108H112.084V106.512ZM117.152 99.3281C114.662 99.3281 113.08 101.027 113.08 103.77C113.08 106.506 114.639 108.217 117.152 108.217C119.648 108.217 121.219 106.506 121.219 103.77C121.219 101.033 119.643 99.3281 117.152 99.3281ZM117.152 100.828C118.523 100.828 119.408 101.971 119.408 103.77C119.408 105.562 118.529 106.717 117.152 106.717C115.758 106.717 114.891 105.562 114.891 103.77C114.891 101.971 115.775 100.828 117.152 100.828ZM126.51 108V104.842L129.451 99.5449H127.535L125.678 103.102H125.572L123.709 99.5449H121.793L124.74 104.842V108H126.51ZM139.857 108V99.5449H137.777L135.434 105.375H135.328L132.99 99.5449H130.904V108H132.545V102.275H132.639L134.795 107.584H135.973L138.123 102.275H138.217V108H139.857ZM147.51 106.541H143.678V104.402H147.293V103.043H143.678V101.004H147.51V99.5449H141.908V108H147.51V106.541ZM151.066 108V102.592H151.172L155.074 108H156.539V99.5449H154.846V104.93H154.74L150.85 99.5449H149.373V108H151.066ZM162.416 108V101.004H164.953V99.5449H158.109V101.004H160.646V108H162.416Z" fill="white"/>
<rect width="283" height="28" transform="translate(49 120)" fill="white" fill-opacity="0.05"/>
<path d="M86.4933 138H84.7333L83.0267 136.293V132.507L82.4933 131.973H81V130H81.48L82.0133 129.52V127.493L81.48 127.013H79.5067L79.0267 127.493V129.52L79.5067 130H79.9867V131.973H78.4933L78.0133 132.507V136.293L76.3067 138H74.4933L74.0133 138.48V140.507L74.4933 140.987H76.52L77 140.507V138.693L78.7067 136.987H82.28L83.9867 138.693V140.507L84.52 140.987H86.4933L87.0267 140.507V138.48L86.4933 138ZM79.9867 127.973H81V128.987H79.9867V127.973ZM79.0267 132.987H82.0133V135.973H79.0267V132.987ZM75.9867 139.973H75.0267V139.013H75.9867V139.973ZM86.0133 139.973H85V139.013H86.0133V139.973Z" fill="#CCCCCC"/>
<path d="M94.0605 129.545V138H95.373V135.111H97.3301C98.9883 135.111 100.16 133.975 100.16 132.346C100.16 130.682 99.0234 129.545 97.3711 129.545H94.0605ZM95.373 130.652H97.0254C98.1797 130.652 98.8184 131.25 98.8184 132.346C98.8184 133.406 98.1562 134.01 97.0254 134.01H95.373V130.652ZM101.707 138H102.967V134.197C102.967 133.301 103.641 132.686 104.596 132.686C104.818 132.686 105.193 132.727 105.299 132.756V131.572C105.164 131.543 104.924 131.525 104.736 131.525C103.904 131.525 103.195 131.977 103.014 132.604H102.92V131.637H101.707V138ZM109.043 138.123C110.906 138.123 112.049 136.875 112.049 134.818C112.049 132.762 110.9 131.514 109.043 131.514C107.18 131.514 106.031 132.768 106.031 134.818C106.031 136.875 107.174 138.123 109.043 138.123ZM109.043 137.051C107.947 137.051 107.332 136.236 107.332 134.818C107.332 133.4 107.947 132.58 109.043 132.58C110.133 132.58 110.754 133.4 110.754 134.818C110.754 136.23 110.133 137.051 109.043 137.051ZM118.723 131.637H117.387L115.805 136.711H115.705L114.117 131.637H112.77L115.072 138H116.426L118.723 131.637ZM120.65 130.5C121.09 130.5 121.447 130.143 121.447 129.709C121.447 129.27 121.09 128.912 120.65 128.912C120.211 128.912 119.854 129.27 119.854 129.709C119.854 130.143 120.211 130.5 120.65 130.5ZM120.023 138H121.277V131.637H120.023V138ZM122.982 133.418C122.982 134.361 123.545 134.9 124.758 135.182L125.871 135.445C126.51 135.598 126.809 135.855 126.809 136.254C126.809 136.775 126.252 137.139 125.467 137.139C124.705 137.139 124.236 136.828 124.078 136.33H122.818C122.93 137.438 123.92 138.123 125.438 138.123C126.961 138.123 128.08 137.32 128.08 136.137C128.08 135.211 127.512 134.689 126.299 134.408L125.238 134.162C124.547 133.998 124.225 133.752 124.225 133.359C124.225 132.844 124.758 132.498 125.461 132.498C126.176 132.498 126.633 132.809 126.75 133.283H127.957C127.834 132.182 126.896 131.514 125.461 131.514C124.02 131.514 122.982 132.311 122.982 133.418ZM130.248 130.5C130.688 130.5 131.045 130.143 131.045 129.709C131.045 129.27 130.688 128.912 130.248 128.912C129.809 128.912 129.451 129.27 129.451 129.709C129.451 130.143 129.809 130.5 130.248 130.5ZM129.621 138H130.875V131.637H129.621V138ZM135.422 138.123C137.285 138.123 138.428 136.875 138.428 134.818C138.428 132.762 137.279 131.514 135.422 131.514C133.559 131.514 132.41 132.768 132.41 134.818C132.41 136.875 133.553 138.123 135.422 138.123ZM135.422 137.051C134.326 137.051 133.711 136.236 133.711 134.818C133.711 133.4 134.326 132.58 135.422 132.58C136.512 132.58 137.133 133.4 137.133 134.818C137.133 136.23 136.512 137.051 135.422 137.051ZM139.945 138H141.205V134.268C141.205 133.242 141.797 132.609 142.729 132.609C143.66 132.609 144.105 133.125 144.105 134.18V138H145.365V133.881C145.365 132.363 144.58 131.514 143.156 131.514C142.195 131.514 141.562 131.941 141.252 132.645H141.158V131.637H139.945V138ZM151.072 130.5C151.512 130.5 151.869 130.143 151.869 129.709C151.869 129.27 151.512 128.912 151.072 128.912C150.633 128.912 150.275 129.27 150.275 129.709C150.275 130.143 150.633 130.5 151.072 130.5ZM150.445 138H151.699V131.637H150.445V138ZM153.551 138H154.811V134.268C154.811 133.242 155.402 132.609 156.334 132.609C157.266 132.609 157.711 133.125 157.711 134.18V138H158.971V133.881C158.971 132.363 158.186 131.514 156.762 131.514C155.801 131.514 155.168 131.941 154.857 132.645H154.764V131.637H153.551V138ZM164.473 130.031V131.654H163.459V132.662H164.473V136.324C164.473 137.549 165.029 138.041 166.43 138.041C166.676 138.041 166.91 138.012 167.115 137.977V136.975C166.939 136.992 166.828 137.004 166.635 137.004C166.008 137.004 165.732 136.705 165.732 136.02V132.662H167.115V131.654H165.732V130.031H164.473ZM168.656 138H169.916V134.273C169.916 133.277 170.49 132.615 171.521 132.615C172.412 132.615 172.887 133.137 172.887 134.186V138H174.146V133.887C174.146 132.381 173.309 131.52 171.949 131.52C170.988 131.52 170.314 131.941 170.004 132.65H169.904V129.141H168.656V138ZM180.105 136.295C179.871 136.811 179.35 137.092 178.588 137.092C177.58 137.092 176.93 136.365 176.889 135.211V135.152H181.395V134.719C181.395 132.727 180.322 131.514 178.547 131.514C176.748 131.514 175.605 132.809 175.605 134.83C175.605 136.863 176.725 138.123 178.553 138.123C180.012 138.123 181.043 137.42 181.318 136.295H180.105ZM178.541 132.539C179.473 132.539 180.082 133.213 180.111 134.244H176.889C176.959 133.219 177.609 132.539 178.541 132.539ZM191.59 133.682C191.426 132.445 190.459 131.514 188.859 131.514C187.002 131.514 185.871 132.773 185.871 134.795C185.871 136.857 187.008 138.123 188.865 138.123C190.441 138.123 191.426 137.238 191.59 135.984H190.365C190.201 136.676 189.656 137.051 188.859 137.051C187.811 137.051 187.16 136.201 187.16 134.795C187.16 133.418 187.805 132.586 188.859 132.586C189.703 132.586 190.219 133.061 190.365 133.682H191.59ZM193.09 138H194.35V129.141H193.09V138ZM198.938 138.123C200.801 138.123 201.943 136.875 201.943 134.818C201.943 132.762 200.795 131.514 198.938 131.514C197.074 131.514 195.926 132.768 195.926 134.818C195.926 136.875 197.068 138.123 198.938 138.123ZM198.938 137.051C197.842 137.051 197.227 136.236 197.227 134.818C197.227 133.4 197.842 132.58 198.938 132.58C200.027 132.58 200.648 133.4 200.648 134.818C200.648 136.23 200.027 137.051 198.938 137.051ZM208.84 131.637H207.58V135.369C207.58 136.395 207.023 137.016 206.004 137.016C205.078 137.016 204.662 136.512 204.662 135.457V131.637H203.402V135.768C203.402 137.262 204.188 138.123 205.6 138.123C206.566 138.123 207.217 137.713 207.527 136.992H207.627V138H208.84V131.637ZM213 138.105C213.879 138.105 214.623 137.689 215.004 136.992H215.104V138H216.311V129.141H215.051V132.645H214.957C214.611 131.947 213.873 131.525 213 131.525C211.389 131.525 210.352 132.809 210.352 134.812C210.352 136.828 211.377 138.105 213 138.105ZM213.357 132.604C214.412 132.604 215.074 133.459 215.074 134.818C215.074 136.189 214.418 137.027 213.357 137.027C212.291 137.027 211.652 136.201 211.652 134.818C211.652 133.441 212.297 132.604 213.357 132.604Z" fill="white"/>
<path d="M84.9467 159.973H85C85.8178 160.009 86.5111 160.311 87.08 160.88C87.6844 161.449 87.9867 162.16 87.9867 163.013C87.9867 163.831 87.6844 164.542 87.08 165.147C86.5111 165.716 85.8178 166 85 166H83.0267V164.987H85C85.5333 164.987 85.9778 164.791 86.3333 164.4C86.7244 164.009 86.92 163.547 86.92 163.013C86.92 162.48 86.7244 162.018 86.3333 161.627C85.9778 161.236 85.5333 161.022 85 160.987H84.0933L83.9867 160.133C83.9156 159.6 83.6667 159.138 83.24 158.747C82.8489 158.356 82.3689 158.124 81.8 158.053C81.2667 157.947 80.7511 158.036 80.2533 158.32C79.7911 158.604 79.4533 158.996 79.24 159.493L78.92 160.24L78.0667 160.08C77.8889 160.044 77.7111 160.009 77.5333 159.973C76.8222 160.009 76.2356 160.258 75.7733 160.72C75.4178 161.076 75.1867 161.502 75.08 162C74.9733 162.498 75.0089 162.978 75.1867 163.44C75.4 163.902 75.72 164.276 76.1467 164.56C76.5733 164.844 77.0356 164.987 77.5333 164.987H80.04V166H77.5333C77.0356 166 76.5556 165.911 76.0933 165.733C75.6311 165.52 75.24 165.218 74.92 164.827C74.3867 164.258 74.0844 163.6 74.0133 162.853C73.9422 162.071 74.1022 161.36 74.4933 160.72C74.7422 160.293 75.0622 159.938 75.4533 159.653C75.88 159.333 76.3422 159.138 76.84 159.067C77.3378 158.96 77.8356 158.978 78.3333 159.12C78.6533 158.409 79.1511 157.858 79.8267 157.467C80.5022 157.076 81.2133 156.933 81.96 157.04C82.7422 157.147 83.4 157.484 83.9333 158.053C84.5022 158.587 84.84 159.244 84.9467 160.027V159.973ZM83.2933 163.867L81.96 162.533V167.973H81V162.587L79.72 163.867L79.0267 163.12L81.16 160.987H81.8533L83.9867 163.12L83.2933 163.867Z" fill="#CCCCCC"/>
<path d="M94.0605 157.545V166H97.1133C99.6328 166 101.092 164.441 101.092 161.752C101.092 159.092 99.6211 157.545 97.1133 157.545H94.0605ZM95.373 158.676H96.9668C98.7188 158.676 99.7559 159.818 99.7559 161.77C99.7559 163.738 98.7363 164.869 96.9668 164.869H95.373V158.676ZM106.91 164.295C106.676 164.811 106.154 165.092 105.393 165.092C104.385 165.092 103.734 164.365 103.693 163.211V163.152H108.199V162.719C108.199 160.727 107.127 159.514 105.352 159.514C103.553 159.514 102.41 160.809 102.41 162.83C102.41 164.863 103.529 166.123 105.357 166.123C106.816 166.123 107.848 165.42 108.123 164.295H106.91ZM105.346 160.539C106.277 160.539 106.887 161.213 106.916 162.244H103.693C103.764 161.219 104.414 160.539 105.346 160.539ZM113.021 159.525C112.154 159.525 111.404 159.965 111.018 160.691H110.924V159.637H109.711V168.121H110.971V165.039H111.07C111.404 165.713 112.125 166.105 113.033 166.105C114.645 166.105 115.67 164.828 115.67 162.818C115.67 160.797 114.645 159.525 113.021 159.525ZM112.664 165.027C111.609 165.027 110.947 164.178 110.947 162.818C110.947 161.453 111.609 160.604 112.67 160.604C113.736 160.604 114.375 161.436 114.375 162.818C114.375 164.201 113.736 165.027 112.664 165.027ZM117.246 166H118.506V157.141H117.246V166ZM123.094 166.123C124.957 166.123 126.1 164.875 126.1 162.818C126.1 160.762 124.951 159.514 123.094 159.514C121.23 159.514 120.082 160.768 120.082 162.818C120.082 164.875 121.225 166.123 123.094 166.123ZM123.094 165.051C121.998 165.051 121.383 164.236 121.383 162.818C121.383 161.4 121.998 160.58 123.094 160.58C124.184 160.58 124.805 161.4 124.805 162.818C124.805 164.23 124.184 165.051 123.094 165.051ZM128.004 168.309C129.305 168.309 129.908 167.822 130.453 166.293L132.832 159.637H131.496L129.902 164.734H129.803L128.203 159.637H126.832L129.141 166.018L129.047 166.346C128.83 167.02 128.49 167.271 127.893 167.271C127.775 167.271 127.582 167.266 127.482 167.248V168.279C127.6 168.297 127.898 168.309 128.004 168.309ZM137.848 158.031V159.654H136.834V160.662H137.848V164.324C137.848 165.549 138.404 166.041 139.805 166.041C140.051 166.041 140.285 166.012 140.49 165.977V164.975C140.314 164.992 140.203 165.004 140.01 165.004C139.383 165.004 139.107 164.705 139.107 164.02V160.662H140.49V159.654H139.107V158.031H137.848ZM144.598 166.123C146.461 166.123 147.604 164.875 147.604 162.818C147.604 160.762 146.455 159.514 144.598 159.514C142.734 159.514 141.586 160.768 141.586 162.818C141.586 164.875 142.729 166.123 144.598 166.123ZM144.598 165.051C143.502 165.051 142.887 164.236 142.887 162.818C142.887 161.4 143.502 160.58 144.598 160.58C145.688 160.58 146.309 161.4 146.309 162.818C146.309 164.23 145.688 165.051 144.598 165.051ZM152.848 158.031V159.654H151.834V160.662H152.848V164.324C152.848 165.549 153.404 166.041 154.805 166.041C155.051 166.041 155.285 166.012 155.49 165.977V164.975C155.314 164.992 155.203 165.004 155.01 165.004C154.383 165.004 154.107 164.705 154.107 164.02V160.662H155.49V159.654H154.107V158.031H152.848ZM157.031 166H158.291V162.273C158.291 161.277 158.865 160.615 159.896 160.615C160.787 160.615 161.262 161.137 161.262 162.186V166H162.521V161.887C162.521 160.381 161.684 159.52 160.324 159.52C159.363 159.52 158.689 159.941 158.379 160.65H158.279V157.141H157.031V166ZM168.48 164.295C168.246 164.811 167.725 165.092 166.963 165.092C165.955 165.092 165.305 164.365 165.264 163.211V163.152H169.77V162.719C169.77 160.727 168.697 159.514 166.922 159.514C165.123 159.514 163.98 160.809 163.98 162.83C163.98 164.863 165.1 166.123 166.928 166.123C168.387 166.123 169.418 165.42 169.693 164.295H168.48ZM166.916 160.539C167.848 160.539 168.457 161.213 168.486 162.244H165.264C165.334 161.219 165.984 160.539 166.916 160.539ZM178.178 166.205C180.064 166.205 181.453 165.121 181.688 163.475H180.381C180.146 164.436 179.297 165.039 178.178 165.039C176.654 165.039 175.705 163.785 175.705 161.775C175.705 159.766 176.654 158.506 178.172 158.506C179.285 158.506 180.135 159.174 180.381 160.223H181.688C181.477 158.529 180.035 157.34 178.172 157.34C175.822 157.34 174.363 159.039 174.363 161.775C174.363 164.506 175.828 166.205 178.178 166.205ZM183.328 166H184.588V157.141H183.328V166ZM189.176 166.123C191.039 166.123 192.182 164.875 192.182 162.818C192.182 160.762 191.033 159.514 189.176 159.514C187.312 159.514 186.164 160.768 186.164 162.818C186.164 164.875 187.307 166.123 189.176 166.123ZM189.176 165.051C188.08 165.051 187.465 164.236 187.465 162.818C187.465 161.4 188.08 160.58 189.176 160.58C190.266 160.58 190.887 161.4 190.887 162.818C190.887 164.23 190.266 165.051 189.176 165.051ZM199.078 159.637H197.818V163.369C197.818 164.395 197.262 165.016 196.242 165.016C195.316 165.016 194.9 164.512 194.9 163.457V159.637H193.641V163.768C193.641 165.262 194.426 166.123 195.838 166.123C196.805 166.123 197.455 165.713 197.766 164.992H197.865V166H199.078V159.637ZM203.238 166.105C204.117 166.105 204.861 165.689 205.242 164.992H205.342V166H206.549V157.141H205.289V160.645H205.195C204.85 159.947 204.111 159.525 203.238 159.525C201.627 159.525 200.59 160.809 200.59 162.812C200.59 164.828 201.615 166.105 203.238 166.105ZM203.596 160.604C204.65 160.604 205.312 161.459 205.312 162.818C205.312 164.189 204.656 165.027 203.596 165.027C202.529 165.027 201.891 164.201 201.891 162.818C201.891 161.441 202.535 160.604 203.596 160.604Z" fill="white"/>
<path d="M86.0667 188.987L83.72 186.587L84.4133 185.893L87.9867 189.52L84.4133 193.093L83.72 192.4L86.0667 190H75.9867V188.987H86.0667ZM74.0133 186H75.0267V192.987H74.0133V186Z" fill="#CCCCCC"/>
<path d="M94.0605 185.545V194H95.373V191.111H97.3301C98.9883 191.111 100.16 189.975 100.16 188.346C100.16 186.682 99.0234 185.545 97.3711 185.545H94.0605ZM95.373 186.652H97.0254C98.1797 186.652 98.8184 187.25 98.8184 188.346C98.8184 189.406 98.1562 190.01 97.0254 190.01H95.373V186.652ZM107.086 187.637H105.826V191.369C105.826 192.395 105.27 193.016 104.25 193.016C103.324 193.016 102.908 192.512 102.908 191.457V187.637H101.648V191.768C101.648 193.262 102.434 194.123 103.846 194.123C104.812 194.123 105.463 193.713 105.773 192.992H105.873V194H107.086V187.637ZM112.295 194.105C113.906 194.105 114.932 192.822 114.932 190.818C114.932 188.797 113.912 187.525 112.295 187.525C111.422 187.525 110.672 187.953 110.332 188.645H110.232V185.141H108.973V194H110.186V192.992H110.279C110.66 193.695 111.404 194.105 112.295 194.105ZM111.932 188.604C112.998 188.604 113.637 189.441 113.637 190.818C113.637 192.195 112.998 193.027 111.932 193.027C110.871 193.027 110.215 192.184 110.209 190.818C110.215 189.453 110.877 188.604 111.932 188.604ZM116.508 194H117.768V185.141H116.508V194ZM120.311 186.5C120.75 186.5 121.107 186.143 121.107 185.709C121.107 185.27 120.75 184.912 120.311 184.912C119.871 184.912 119.514 185.27 119.514 185.709C119.514 186.143 119.871 186.5 120.311 186.5ZM119.684 194H120.938V187.637H119.684V194ZM122.643 189.418C122.643 190.361 123.205 190.9 124.418 191.182L125.531 191.445C126.17 191.598 126.469 191.855 126.469 192.254C126.469 192.775 125.912 193.139 125.127 193.139C124.365 193.139 123.896 192.828 123.738 192.33H122.479C122.59 193.438 123.58 194.123 125.098 194.123C126.621 194.123 127.74 193.32 127.74 192.137C127.74 191.211 127.172 190.689 125.959 190.408L124.898 190.162C124.207 189.998 123.885 189.752 123.885 189.359C123.885 188.844 124.418 188.498 125.121 188.498C125.836 188.498 126.293 188.809 126.41 189.283H127.617C127.494 188.182 126.557 187.514 125.121 187.514C123.68 187.514 122.643 188.311 122.643 189.418ZM129.316 194H130.576V190.273C130.576 189.277 131.15 188.615 132.182 188.615C133.072 188.615 133.547 189.137 133.547 190.186V194H134.807V189.887C134.807 188.381 133.969 187.52 132.609 187.52C131.648 187.52 130.975 187.941 130.664 188.65H130.564V185.141H129.316V194ZM140.309 186.031V187.654H139.295V188.662H140.309V192.324C140.309 193.549 140.865 194.041 142.266 194.041C142.512 194.041 142.746 194.012 142.951 193.977V192.975C142.775 192.992 142.664 193.004 142.471 193.004C141.844 193.004 141.568 192.705 141.568 192.02V188.662H142.951V187.654H141.568V186.031H140.309ZM147.059 194.123C148.922 194.123 150.064 192.875 150.064 190.818C150.064 188.762 148.916 187.514 147.059 187.514C145.195 187.514 144.047 188.768 144.047 190.818C144.047 192.875 145.189 194.123 147.059 194.123ZM147.059 193.051C145.963 193.051 145.348 192.236 145.348 190.818C145.348 189.4 145.963 188.58 147.059 188.58C148.148 188.58 148.77 189.4 148.77 190.818C148.77 192.23 148.148 193.051 147.059 193.051ZM158.467 194V186.676H161.121V185.545H154.494V186.676H157.154V194H158.467ZM165.621 192.295C165.387 192.811 164.865 193.092 164.104 193.092C163.096 193.092 162.445 192.365 162.404 191.211V191.152H166.91V190.719C166.91 188.727 165.838 187.514 164.062 187.514C162.264 187.514 161.121 188.809 161.121 190.83C161.121 192.863 162.24 194.123 164.068 194.123C165.527 194.123 166.559 193.42 166.834 192.295H165.621ZM164.057 188.539C164.988 188.539 165.598 189.213 165.627 190.244H162.404C162.475 189.219 163.125 188.539 164.057 188.539ZM170.186 194.105C171.023 194.105 171.721 193.742 172.102 193.098H172.201V194H173.414V189.646C173.414 188.311 172.512 187.514 170.912 187.514C169.465 187.514 168.434 188.211 168.305 189.283H169.523C169.664 188.82 170.15 188.557 170.854 188.557C171.715 188.557 172.16 188.949 172.16 189.646V190.203L170.432 190.309C168.914 190.402 168.059 191.064 168.059 192.207C168.059 193.367 168.955 194.105 170.186 194.105ZM170.508 193.092C169.822 193.092 169.324 192.746 169.324 192.154C169.324 191.574 169.723 191.264 170.602 191.205L172.16 191.1V191.65C172.16 192.471 171.457 193.092 170.508 193.092ZM175.207 194H176.467V190.092C176.467 189.26 177.047 188.609 177.814 188.609C178.564 188.609 179.045 189.061 179.045 189.787V194H180.281V189.975C180.281 189.207 180.814 188.609 181.629 188.609C182.455 188.609 182.865 189.037 182.865 189.916V194H184.125V189.611C184.125 188.287 183.375 187.514 182.086 187.514C181.201 187.514 180.469 187.965 180.146 188.65H180.047C179.766 187.965 179.162 187.514 178.289 187.514C177.439 187.514 176.795 187.936 176.514 188.65H176.42V187.637H175.207V194ZM185.748 189.418C185.748 190.361 186.311 190.9 187.523 191.182L188.637 191.445C189.275 191.598 189.574 191.855 189.574 192.254C189.574 192.775 189.018 193.139 188.232 193.139C187.471 193.139 187.002 192.828 186.844 192.33H185.584C185.695 193.438 186.686 194.123 188.203 194.123C189.727 194.123 190.846 193.32 190.846 192.137C190.846 191.211 190.277 190.689 189.064 190.408L188.004 190.162C187.312 189.998 186.99 189.752 186.99 189.359C186.99 188.844 187.523 188.498 188.227 188.498C188.941 188.498 189.398 188.809 189.516 189.283H190.723C190.6 188.182 189.662 187.514 188.227 187.514C186.785 187.514 185.748 188.311 185.748 189.418Z" fill="white"/>
<path d="M75.9867 212.987V223.013H86.0133V212.987H75.9867ZM85 222H77V214H85V222Z" fill="#CCCCCC"/>
<rect x="93" y="215" width="120" height="6" rx="3" fill="#616161"/>
<path d="M75.9867 240.987V251.013H86.0133V240.987H75.9867ZM85 250H77V242H85V250Z" fill="#CCCCCC"/>
<rect x="93" y="243" width="72" height="6" rx="3" fill="#616161"/>
<line x1="49" y1="259.5" x2="332" y2="259.5" stroke="#3C3C3C"/>
<g opacity="0.5">
<path d="M71.08 272L66.7067 267.68L67.3467 267.04L71.9867 271.733V272.32L67.3467 277.013L66.7067 276.373L71.08 272Z" fill="#D4D4D4"/>
<rect x="81" y="269" width="53" height="6" rx="3" fill="#616161"/>
</g>
<path d="M0 308H412V328.412C412 330.621 410.209 332.412 408 332.412H4.00001C1.79087 332.412 0 330.621 0 328.412V308Z" fill="#007ACC"/>
<defs>
<filter id="filter0_d_0_1" x="181.778" y="59.113" width="19.4203" height="20.64" filterUnits="userSpaceOnUse" color-interpolation-filters="sRGB">
<feFlood flood-opacity="0" result="BackgroundImageFix"/>
<feColorMatrix in="SourceAlpha" type="matrix" values="0 0 0 0 0 0 0 0 0 0 0 0 0 0 0 0 0 0 127 0" result="hardAlpha"/>
<feOffset dy="1"/>
<feGaussianBlur stdDeviation="0.4"/>
<feColorMatrix type="matrix" values="0 0 0 0 0 0 0 0 0 0 0 0 0 0 0 0 0 0 0.5 0"/>
<feBlend mode="normal" in2="BackgroundImageFix" result="effect1_dropShadow_0_1"/>
<feBlend mode="normal" in="SourceGraphic" in2="effect1_dropShadow_0_1" result="shape"/>
</filter>
</defs>
</svg>