<svg width="425" height="362" viewBox="0 0 425 362" fill="none" xmlns="http://www.w3.org/2000/svg">
<path d="M0 4C0 1.79086 1.79086 0 4 0H377.334C379.544 0 381.334 1.79086 381.334 4V36H0V4Z" fill="#3C3C3C"/>
<g filter="url(#filter0_d_85_95371)">
<path d="M186.435 73.5026C186.106 73.08 185.694 72.223 184.977 71.1548C184.565 70.5678 183.553 69.4526 183.247 68.8774C183.027 68.5278 182.963 68.1022 183.071 67.7035C183.255 66.9454 183.976 66.4425 184.753 66.5296C185.354 66.65 185.906 66.9439 186.341 67.3748C186.645 67.6602 186.924 67.9704 187.177 68.3022C187.365 68.537 187.412 68.6309 187.624 68.9009C187.835 69.1709 187.977 69.4409 187.871 69.0417C187.788 68.4548 187.647 67.4687 187.447 66.5883C187.294 65.9191 187.259 65.8135 187.118 65.3087C186.977 64.8039 186.894 64.3813 186.741 63.8061C186.601 63.2409 186.491 62.6688 186.412 62.0922C186.264 61.3546 186.371 60.5886 186.718 59.9204C187.129 59.5347 187.732 59.4328 188.247 59.6622C188.765 60.0441 189.152 60.5774 189.353 61.1883C189.661 61.94 189.867 62.7297 189.965 63.5361C190.153 64.71 190.518 66.4239 190.529 66.7761C190.529 66.3417 190.447 65.4261 190.529 65.0152C190.611 64.5869 190.909 64.2314 191.318 64.0761C191.668 63.9688 192.039 63.9447 192.4 64.0057C192.765 64.0817 193.088 64.2911 193.306 64.5926C193.579 65.2775 193.73 66.0044 193.753 66.7409C193.785 66.0959 193.895 65.4572 194.082 64.8391C194.279 64.5627 194.566 64.3634 194.894 64.2757C195.283 64.2047 195.682 64.2047 196.071 64.2757C196.39 64.382 196.669 64.5826 196.871 64.8509C197.12 65.4734 197.271 66.1308 197.318 66.7996C197.318 66.9639 197.4 66.3417 197.659 65.9309C197.793 65.5324 198.131 65.2359 198.544 65.1529C198.957 65.0699 199.383 65.2131 199.661 65.5285C199.94 65.844 200.029 66.2837 199.894 66.6822C199.894 67.4452 199.894 67.41 199.894 67.9265C199.894 68.443 199.894 68.9009 199.894 69.3352C199.851 70.0222 199.757 70.7049 199.612 71.3778C199.407 71.9731 199.122 72.5379 198.765 73.0565C198.194 73.6904 197.722 74.4067 197.365 75.1813C197.276 75.5661 197.237 75.9605 197.247 76.3552C197.246 76.7199 197.293 77.0831 197.388 77.4352C196.907 77.486 196.422 77.486 195.941 77.4352C195.482 77.3648 194.918 76.4491 194.765 76.1674C194.689 76.0161 194.534 75.9205 194.365 75.9205C194.195 75.9205 194.04 76.0161 193.965 76.1674C193.706 76.6135 193.129 77.4235 192.729 77.4704C191.941 77.5643 190.318 77.4704 189.035 77.4704C189.035 77.4704 189.247 76.2965 188.765 75.8739C188.282 75.4513 187.788 74.9583 187.424 74.6296L186.435 73.5026Z" fill="white"/>
<path fill-rule="evenodd" clip-rule="evenodd" d="M200.335 68.6857C200.335 68.4996 200.335 68.3135 200.335 67.9265V66.7485C200.486 66.2212 200.358 65.6515 199.992 65.2375C199.61 64.8041 199.024 64.6073 198.457 64.7214C198.07 64.799 197.732 65.013 197.497 65.3146C197.435 65.1019 197.362 64.893 197.28 64.6876C196.967 64.2468 196.614 63.9929 196.21 63.8582C195.709 63.7621 195.256 63.7621 194.815 63.8426C194.373 63.9594 194.012 64.2016 193.757 64.537C193.744 64.5013 193.73 64.4657 193.716 64.4301C193.381 63.9445 192.963 63.6733 192.49 63.5748C192.044 63.4992 191.604 63.5279 191.188 63.6553C190.921 63.7565 190.691 63.9133 190.51 64.1096C190.467 63.8669 190.431 63.6568 190.4 63.4666C190.3 62.6378 190.085 61.8098 189.761 61.0215C189.542 60.3533 189.101 59.7442 188.509 59.3081C187.749 58.9585 186.956 59.0924 186.415 59.5998L186.326 59.7182C185.933 60.4753 185.811 61.3431 185.979 62.1788C186.056 62.7442 186.169 63.3315 186.313 63.9116C186.379 64.162 186.38 64.1632 186.52 64.7514L186.52 64.7515C186.538 64.827 186.538 64.827 186.557 64.9027C186.605 65.0995 186.647 65.2619 186.693 65.427C186.772 65.7079 186.802 65.8166 186.829 65.9141L186.844 65.9725C186.893 66.1549 186.94 66.3515 187.017 66.6862C187.087 66.9949 187.149 67.3051 187.208 67.642C187.031 67.4381 186.842 67.2412 186.644 67.0543C186.156 66.5708 185.525 66.2354 184.84 66.098C183.804 65.9803 182.879 66.6261 182.642 67.5995C182.505 68.106 182.588 68.6583 182.874 69.1119C183.009 69.3697 183.272 69.7239 183.74 70.3021L183.813 70.3919C184.355 71.0604 184.453 71.1806 184.543 71.3059C184.566 71.3367 184.587 71.3677 184.615 71.4072C184.785 71.6608 185.084 72.1522 185.372 72.626C185.694 73.1557 186.002 73.6635 186.103 73.7925L187.092 74.9195C187.221 75.0387 187.564 75.3627 187.799 75.5849C187.915 75.6945 188.005 75.7794 188.03 75.8028C188.144 75.9089 188.249 76.0047 188.349 76.0946C188.38 76.1224 188.396 76.1362 188.412 76.15C188.427 76.1637 188.443 76.1774 188.474 76.2047C188.544 76.2663 188.603 76.4204 188.628 76.6454C188.649 76.8364 188.643 77.0495 188.62 77.2539C188.612 77.3213 188.605 77.3696 188.601 77.3925C188.552 77.6625 188.76 77.9107 189.035 77.9107C189.352 77.9107 189.679 77.9158 190.198 77.9274L190.378 77.9314C191.785 77.9634 192.313 77.9634 192.782 77.9076C193.317 77.8447 193.887 77.1804 194.37 76.364C194.781 77.1216 195.309 77.7836 195.874 77.8703C196.407 77.927 196.923 77.927 197.435 77.873C197.704 77.8446 197.885 77.5823 197.814 77.3209C197.73 77.0065 197.687 76.6822 197.688 76.3567C197.679 75.986 197.714 75.6285 197.795 75.2798C198.104 74.6309 198.551 73.9518 199.093 73.3509C199.508 72.7544 199.811 72.1538 200.029 71.5207C200.193 70.7761 200.29 70.0715 200.334 69.3626C200.335 69.0305 200.335 68.8581 200.335 68.6857ZM188.473 75.0087C188.243 74.7921 187.842 74.4135 187.719 74.3029L186.778 73.2246C186.709 73.1313 186.485 72.7613 186.225 72.3314C185.915 71.8204 185.555 71.2249 185.343 70.9097C185.245 70.7696 185.124 70.6116 184.958 70.405C184.894 70.3247 184.848 70.2679 184.733 70.1262L184.498 69.8377L184.427 69.7493C183.998 69.2187 183.752 68.8882 183.637 68.6711C183.466 68.3974 183.421 68.0984 183.496 67.8184C183.631 67.2647 184.147 66.9047 184.704 66.967C185.182 67.0647 185.657 67.3171 186.03 67.6872C186.325 67.964 186.588 68.256 186.825 68.5682C186.899 68.6603 186.945 68.7222 187.018 68.824C187.143 68.9993 187.179 69.0481 187.276 69.1722C187.283 69.181 187.302 69.2063 187.326 69.2397C187.394 69.3316 187.508 69.4847 187.545 69.5242C187.591 69.5826 187.591 69.5826 187.826 69.6786C188.329 69.4935 188.332 69.4893 188.347 69.2534C188.353 69.1606 188.336 69.0776 188.297 68.9291C188.163 67.9482 188.043 67.2224 187.877 66.491C187.799 66.1466 187.749 65.9407 187.697 65.7469L187.681 65.6846C187.653 65.5824 187.621 65.4689 187.543 65.1904C187.499 65.0359 187.46 64.8828 187.414 64.6949C187.405 64.6583 187.401 64.6399 187.396 64.6215C187.392 64.603 187.388 64.5844 187.379 64.5471C187.236 63.9492 187.235 63.9467 187.168 63.6932C187.033 63.1504 186.926 62.5935 186.849 62.0321C186.721 61.3934 186.802 60.7564 187.074 60.1943C187.352 59.9691 187.736 59.9169 188.067 60.0642C188.43 60.344 188.761 60.8016 188.934 61.3256C189.238 62.0703 189.434 62.8217 189.527 63.5889C189.578 63.9092 189.639 64.2582 189.722 64.7032L189.758 64.9002C190.081 66.6283 190.083 66.6407 190.088 66.7908C190.108 67.3677 190.971 67.3534 190.971 66.7761C190.971 66.6489 190.968 66.5807 190.952 66.1992C190.946 66.0487 190.943 65.9845 190.94 65.8966C190.928 65.5069 190.934 65.2417 190.962 65.1016C191.016 64.8192 191.21 64.5883 191.475 64.4874C191.732 64.4098 192.033 64.3902 192.326 64.4397C192.567 64.4902 192.794 64.6377 192.948 64.8502C193.15 65.3926 193.29 66.0692 193.312 66.7547C193.33 67.3183 194.166 67.3255 194.194 66.7623C194.222 66.1791 194.319 65.6013 194.483 65.0409C194.617 64.8756 194.801 64.7563 195.008 64.7009C195.31 64.6473 195.655 64.6473 195.991 64.7087C196.165 64.7713 196.37 64.9185 196.518 65.1154C196.693 65.5944 196.834 66.2071 196.878 66.8304C196.861 66.8255 196.861 66.8255 196.992 67.1204C197.636 67.2318 197.636 67.2318 197.707 67.0417L197.707 67.0416C197.737 66.9797 197.737 66.9797 197.746 66.9534C197.757 66.9213 197.768 66.8784 197.788 66.8008C197.832 66.6349 197.873 66.5056 197.925 66.3787C197.959 66.2958 197.995 66.2238 198.032 66.1652C198.161 65.822 198.372 65.6364 198.631 65.5845C198.889 65.5325 199.156 65.6221 199.33 65.8196C199.505 66.017 199.56 66.2923 199.476 66.5417L199.453 66.6822V69.3352C199.412 69.9729 199.321 70.6339 199.18 71.2852C199.003 71.7925 198.736 72.3214 198.401 72.8071C197.836 73.429 197.339 74.1826 196.964 74.9975C196.838 75.5037 196.795 75.9351 196.806 76.3668C196.805 76.5858 196.821 76.8083 196.854 77.0303C196.565 77.0388 196.276 77.0278 195.988 76.9975C195.844 76.975 195.407 76.4266 195.153 75.9577C195.009 75.6702 194.701 75.4803 194.365 75.4803C194.028 75.4803 193.72 75.6702 193.57 75.9708C193.278 76.4724 192.81 77.0177 192.678 77.0333C192.27 77.0819 191.748 77.0819 190.398 77.0512L190.218 77.0472C189.941 77.041 189.718 77.0366 189.521 77.0339C189.526 76.8719 189.522 76.709 189.505 76.5496C189.458 76.1266 189.325 75.7792 189.056 75.5431C189.027 75.5176 189.012 75.5047 188.998 75.4918C188.983 75.4788 188.968 75.4657 188.939 75.4393C188.843 75.3535 188.742 75.2615 188.632 75.159C188.614 75.1421 188.554 75.0856 188.473 75.0087Z" fill="#1E1E1E"/>
<path d="M196.412 74.1435V70.0914C196.412 69.8488 196.214 69.6522 195.97 69.6522C195.727 69.6522 195.529 69.8488 195.529 70.0914V74.1435C195.529 74.386 195.727 74.5827 195.97 74.5827C196.214 74.5827 196.412 74.386 196.412 74.1435Z" fill="#1E1E1E"/>
<path d="M194.082 74.142L194.059 70.0878C194.057 69.8459 193.859 69.6508 193.615 69.6522C193.371 69.6536 193.175 69.8509 193.177 70.0929L193.2 74.147C193.201 74.389 193.4 74.584 193.644 74.5826C193.887 74.5813 194.084 74.384 194.082 74.142Z" fill="#1E1E1E"/>
<path d="M190.823 70.0971L190.847 74.1429C190.848 74.3872 191.047 74.5841 191.291 74.5826C191.534 74.5812 191.731 74.382 191.729 74.1378L191.706 70.092C191.704 69.8477 191.506 69.6508 191.262 69.6522C191.018 69.6537 190.822 69.8528 190.823 70.0971Z" fill="#1E1E1E"/>
</g>
<rect width="48" height="281" transform="translate(1 36)" fill="#333333"/>
<g opacity="0.5">
<rect x="18" y="53" width="14" height="14" stroke="white" stroke-opacity="0.6" stroke-width="2"/>
</g>
<g opacity="0.5">
<rect x="18" y="103" width="14" height="14" stroke="white" stroke-opacity="0.6" stroke-width="2"/>
</g>
<path d="M22.1333 159.267L21 160.333C20.8222 159.667 20.4444 159.111 19.8667 158.667C19.3333 158.222 18.7111 158 18 158C17.2889 158 16.6444 158.222 16.0667 158.667C15.5333 159.111 15.1778 159.667 15 160.333L13.8667 159.267L13 160.133L14.4667 161.533L14.2667 161.733V163H13V164.267H14.2667V164.333C14.3111 164.733 14.4222 165.133 14.6 165.533L13 167.133L13.8667 168L15.2667 166.6C15.5778 167.044 15.9778 167.4 16.4667 167.667C16.9556 167.889 17.4667 168 18 168C18.5333 168 19.0444 167.889 19.5333 167.667C20.0222 167.4 20.4222 167.044 20.7333 166.6L22.1333 168L23 167.133L21.4 165.467C21.5778 165.111 21.6889 164.711 21.7333 164.267V164.2H23V163H21.7333V161.733L21.6 161.533L23 160.133L22.1333 159.267ZM18 159.267C18.5333 159.267 18.9778 159.444 19.3333 159.8C19.6889 160.156 19.8667 160.6 19.8667 161.133H16.1333C16.1333 160.6 16.3111 160.156 16.6667 159.8C17.0222 159.444 17.4667 159.267 18 159.267ZM20.5333 164.267C20.4444 164.933 20.1556 165.511 19.6667 166C19.2222 166.444 18.6667 166.689 18 166.733C17.3333 166.689 16.7556 166.444 16.2667 166C15.8222 165.511 15.5778 164.933 15.5333 164.267V162.4H20.5333V164.267ZM32.8 156V157.067L24.2667 162.467V161L31.3333 156.533L20.5333 149.667V157.533C20.1333 157.267 19.7111 157.067 19.2667 156.933V148.533L20.2 148L32.8 156Z" fill="white"/>
<rect x="1" y="136" width="3.6" height="48" fill="white"/>
<g opacity="0.5">
<rect x="18" y="203" width="14" height="14" stroke="white" stroke-opacity="0.6" stroke-width="2"/>
</g>
<rect width="283" height="281" transform="translate(49 36)" fill="#252526"/>
<path d="M63.5708 57.4771H65.5767L67.4429 61H69.0869L67.0303 57.2549C68.1475 56.8804 68.8076 55.8774 68.8076 54.6396C68.8076 52.9321 67.6206 51.8403 65.7734 51.8403H62.1489V61H63.5708V57.4771ZM63.5708 53.0337H65.5767C66.6748 53.0337 67.3477 53.6494 67.3477 54.6714C67.3477 55.7188 66.7129 56.3091 65.6147 56.3091H63.5708V53.0337ZM72.2417 51.8403H70.8198V57.8452C70.8198 59.8257 72.2354 61.2222 74.5269 61.2222C76.8311 61.2222 78.2402 59.8257 78.2402 57.8452V51.8403H76.8184V57.731C76.8184 59.0386 75.9868 59.959 74.5269 59.959C73.0732 59.959 72.2417 59.0386 72.2417 57.731V51.8403ZM81.9155 61V54.3477H82.0171L86.7207 61H88.0029V51.8403H86.6191V58.5054H86.5176L81.814 51.8403H80.5317V61H81.9155ZM99.7905 61H101.301L97.9941 51.8403H96.4644L93.1572 61H94.6172L95.4614 58.5244H98.9526L99.7905 61ZM97.1562 53.459H97.2642L98.5908 57.3818H95.8232L97.1562 53.459ZM104.285 61V54.3477H104.386L109.09 61H110.372V51.8403H108.988V58.5054H108.887L104.183 51.8403H102.901V61H104.285ZM112.676 51.8403V61H115.983C118.713 61 120.293 59.3115 120.293 56.3979C120.293 53.5161 118.7 51.8403 115.983 51.8403H112.676ZM114.098 53.0654H115.825C117.723 53.0654 118.846 54.3032 118.846 56.417C118.846 58.5498 117.742 59.7749 115.825 59.7749H114.098V53.0654ZM125.778 51.8403V61H129.085C131.814 61 133.395 59.3115 133.395 56.3979C133.395 53.5161 131.802 51.8403 129.085 51.8403H125.778ZM127.2 53.0654H128.926C130.824 53.0654 131.948 54.3032 131.948 56.417C131.948 58.5498 130.843 59.7749 128.926 59.7749H127.2V53.0654ZM141.139 59.7749H136.747V56.9248H140.904V55.7441H136.747V53.0654H141.139V51.8403H135.325V61H141.139V59.7749ZM146.96 61C148.915 61 150.089 60.0225 150.089 58.4102C150.089 57.2104 149.264 56.3345 148.026 56.2012V56.0933C148.928 55.9409 149.632 55.084 149.632 54.1255C149.632 52.7163 148.598 51.8403 146.877 51.8403H143.196V61H146.96ZM144.618 53.002H146.547C147.601 53.002 148.217 53.5034 148.217 54.373C148.217 55.2681 147.563 55.7378 146.306 55.7378H144.618V53.002ZM144.618 59.8384V56.8232H146.592C147.931 56.8232 148.636 57.3311 148.636 58.3213C148.636 59.3115 147.957 59.8384 146.674 59.8384H144.618ZM153.327 51.8403H151.905V57.8452C151.905 59.8257 153.32 61.2222 155.612 61.2222C157.916 61.2222 159.325 59.8257 159.325 57.8452V51.8403H157.903V57.731C157.903 59.0386 157.072 59.959 155.612 59.959C154.158 59.959 153.327 59.0386 153.327 57.731V51.8403ZM169.431 57.3945V56.2583H165.673V57.4072H168.034V57.6104C168.021 59.0132 166.993 59.959 165.495 59.959C163.775 59.959 162.696 58.6069 162.696 56.4106C162.696 54.2461 163.769 52.8813 165.463 52.8813C166.714 52.8813 167.583 53.4971 167.939 54.6333H169.367C169.056 52.7861 167.545 51.6182 165.463 51.6182C162.899 51.6182 161.242 53.5034 161.242 56.417C161.242 59.3687 162.88 61.2222 165.476 61.2222C167.875 61.2222 169.431 59.7178 169.431 57.3945Z" fill="#D4D4D4"/>
<rect x="179" y="44" width="141" height="24" rx="3" fill="#3C3C3C"/>
<path d="M186.787 49.9733L185.987 50.4V62.4L186.787 62.8267L195.8 56.8533V56L186.787 49.9733ZM187 61.4933V51.36L194.627 56.4267L187 61.4933Z" fill="#8DC149"/>
<g opacity="0.5">
<path d="M69 90.08L73.32 85.7067L73.96 86.3467L69.2667 90.9867H68.68L63.9867 86.3467L64.6267 85.7067L69 90.08Z" fill="#D4D4D4"/>
<rect x="81" y="85" width="53" height="6" rx="3" fill="#616161"/>
</g>
<path d="M0 292H381.334V312.412C381.334 314.621 379.544 316.412 377.334 316.412H3.99999C1.79086 316.412 0 314.621 0 312.412V292Z" fill="#007ACC"/>
<rect opacity="0.75" x="7.33374" y="301.945" width="27.8668" height="6.32892" rx="3.16446" fill="white"/>
<rect opacity="0.75" x="41.0679" y="301.945" width="10.2667" height="6.32892" rx="3.16446" fill="white"/>
<rect x="0.5" y="0.5" width="380.334" height="315" rx="3.5" stroke="#3C3C3C"/>
<g filter="url(#filter1_d_85_95371)">
<path d="M189.27 69.28C188.99 68.92 188.64 68.19 188.03 67.28C187.68 66.78 186.82 65.83 186.56 65.34C186.372 65.0422 186.318 64.6796 186.41 64.34C186.567 63.6942 187.179 63.2658 187.84 63.34C188.351 63.4426 188.82 63.693 189.19 64.06C189.448 64.3032 189.686 64.5674 189.9 64.85C190.06 65.05 190.1 65.13 190.28 65.36C190.46 65.59 190.58 65.82 190.49 65.48C190.42 64.98 190.3 64.14 190.13 63.39C190 62.82 189.97 62.73 189.85 62.3C189.73 61.87 189.66 61.51 189.53 61.02C189.411 60.5386 189.318 60.0512 189.25 59.56C189.124 58.9317 189.216 58.2792 189.51 57.71C189.859 57.3814 190.372 57.2946 190.81 57.49C191.25 57.8153 191.579 58.2696 191.75 58.79C192.012 59.4304 192.187 60.1031 192.27 60.79C192.43 61.79 192.74 63.25 192.75 63.55C192.75 63.18 192.68 62.4 192.75 62.05C192.819 61.6851 193.073 61.3823 193.42 61.25C193.718 61.1586 194.033 61.1381 194.34 61.19C194.65 61.2548 194.925 61.4331 195.11 61.69C195.342 62.2734 195.47 62.8926 195.49 63.52C195.517 62.9706 195.611 62.4265 195.77 61.9C195.937 61.6645 196.181 61.4948 196.46 61.42C196.79 61.3595 197.129 61.3595 197.46 61.42C197.731 61.5106 197.968 61.6815 198.14 61.91C198.352 62.4403 198.48 63.0003 198.52 63.57C198.52 63.71 198.59 63.18 198.81 62.83C198.924 62.4906 199.211 62.238 199.562 62.1673C199.913 62.0966 200.275 62.2186 200.512 62.4873C200.749 62.756 200.824 63.1306 200.71 63.47C200.71 64.12 200.71 64.09 200.71 64.53C200.71 64.97 200.71 65.36 200.71 65.73C200.673 66.3152 200.593 66.8968 200.47 67.47C200.296 67.9771 200.054 68.4582 199.75 68.9C199.264 69.44 198.863 70.0502 198.56 70.71C198.485 71.0378 198.451 71.3738 198.46 71.71C198.459 72.0206 198.499 72.33 198.58 72.63C198.171 72.6732 197.759 72.6732 197.35 72.63C196.96 72.57 196.48 71.79 196.35 71.55C196.286 71.4211 196.154 71.3397 196.01 71.3397C195.866 71.3397 195.734 71.4211 195.67 71.55C195.45 71.93 194.96 72.62 194.62 72.66C193.95 72.74 192.57 72.66 191.48 72.66C191.48 72.66 191.66 71.66 191.25 71.3C190.84 70.94 190.42 70.52 190.11 70.24L189.27 69.28Z" fill="white"/>
<path fill-rule="evenodd" clip-rule="evenodd" d="M201.084 65.7533C201.085 65.165 201.085 65.165 201.085 64.53V63.5265C201.213 63.0773 201.104 62.592 200.793 62.2394C200.468 61.8701 199.97 61.7025 199.488 61.7997C199.159 61.8658 198.872 62.0481 198.672 62.305C198.619 62.1239 198.558 61.9459 198.488 61.7709C198.222 61.3954 197.922 61.1791 197.579 61.0644C197.152 60.9825 196.768 60.9825 196.392 61.0511C196.017 61.1506 195.71 61.3569 195.494 61.6426C195.482 61.6122 195.47 61.5818 195.458 61.5516C195.174 61.1379 194.818 60.9069 194.417 60.8229C194.038 60.7586 193.664 60.783 193.31 60.8915C193.083 60.9777 192.887 61.1113 192.734 61.2786C192.697 61.0718 192.666 60.8928 192.64 60.7308C192.555 60.0247 192.372 59.3194 192.097 58.648C191.911 58.0787 191.536 57.5599 191.033 57.1883C190.387 56.8906 189.712 57.0047 189.253 57.4368L189.177 57.5378C188.843 58.1827 188.739 58.9219 188.882 59.6338C188.948 60.1154 189.044 60.6157 189.166 61.1099C189.222 61.3231 189.223 61.3242 189.342 61.8253L189.373 61.9542C189.414 62.1218 189.449 62.2601 189.489 62.4008C189.556 62.64 189.582 62.7326 189.604 62.8157L189.618 62.8654C189.659 63.0208 189.699 63.1883 189.764 63.4734C189.824 63.7364 189.876 64.0006 189.927 64.2876C189.777 64.1139 189.616 63.9462 189.447 63.787C189.032 63.3751 188.497 63.0894 187.914 62.9724C187.034 62.8721 186.247 63.4222 186.046 64.2514C185.929 64.6829 185.999 65.1534 186.243 65.5398C186.358 65.7594 186.582 66.0611 186.979 66.5536L187.041 66.6301C187.502 67.1996 187.585 67.3019 187.662 67.4087C187.681 67.4349 187.699 67.4614 187.723 67.4951C187.867 67.711 188.121 68.1296 188.366 68.5332C188.64 68.9845 188.902 69.4171 188.988 69.5269L189.828 70.4869C189.938 70.5885 190.229 70.8644 190.429 71.0538C190.528 71.1472 190.604 71.2195 190.626 71.2394C190.723 71.3298 190.811 71.4114 190.897 71.488C190.923 71.5116 190.936 71.5234 190.95 71.5352C190.963 71.5469 190.976 71.5585 191.002 71.5818C191.062 71.6342 191.112 71.7655 191.133 71.9572C191.151 72.1199 191.146 72.3014 191.127 72.4755C191.12 72.5329 191.114 72.5741 191.111 72.5936C191.069 72.8236 191.246 73.035 191.48 73.035C191.749 73.035 192.027 73.0394 192.469 73.0492L192.621 73.0527C193.818 73.0799 194.266 73.0799 194.664 73.0324C195.119 72.9788 195.604 72.413 196.014 71.7175C196.364 72.3628 196.812 72.9267 197.293 73.0006C197.746 73.0489 198.184 73.0489 198.619 73.0029C198.849 72.9787 199.002 72.7553 198.942 72.5326C198.87 72.2648 198.834 71.9886 198.835 71.7112C198.827 71.3955 198.857 71.091 198.925 70.7939C199.188 70.2411 199.568 69.6626 200.029 69.1507C200.382 68.6426 200.64 68.131 200.825 67.5917C200.964 66.9574 201.047 66.3572 201.084 65.7533ZM191.002 70.5629C190.807 70.3784 190.466 70.056 190.361 69.9617L189.561 69.0431C189.502 68.9637 189.312 68.6485 189.091 68.2823C188.828 67.847 188.521 67.3397 188.341 67.0712C188.258 66.9519 188.155 66.8173 188.014 66.6413C187.96 66.5729 187.921 66.5245 187.823 66.4038L187.624 66.1581L187.563 66.0827C187.198 65.6307 186.989 65.3492 186.891 65.1642C186.746 64.9311 186.707 64.6764 186.772 64.4379C186.887 63.9662 187.325 63.6596 187.798 63.7127C188.205 63.7958 188.608 64.0109 188.926 64.3262C189.176 64.5619 189.399 64.8106 189.601 65.0766C189.664 65.1551 189.703 65.2078 189.765 65.2945C189.871 65.4438 189.902 65.4854 189.985 65.5911C189.99 65.5986 190.006 65.6202 190.027 65.6487C190.085 65.7269 190.182 65.8573 190.213 65.891C190.252 65.9408 190.252 65.9408 190.452 66.0225C190.88 65.8648 190.882 65.8613 190.895 65.6603C190.9 65.5813 190.886 65.5106 190.852 65.384C190.738 64.5485 190.637 63.9302 190.496 63.3071C190.429 63.0138 190.386 62.8383 190.343 62.6733L190.328 62.6202C190.305 62.5332 190.278 62.4364 190.211 62.1992C190.174 62.0676 190.141 61.9372 190.102 61.7772L190.072 61.6512C189.95 61.1419 189.95 61.1397 189.892 60.9238C189.778 60.4615 189.687 59.987 189.621 59.5088C189.513 58.9647 189.582 58.4221 189.813 57.9433C190.049 57.7515 190.376 57.707 190.657 57.8325C190.965 58.0708 191.247 58.4606 191.394 58.907C191.652 59.5414 191.819 60.1814 191.898 60.835C191.941 61.1078 191.993 61.4051 192.063 61.7842L192.095 61.9521C192.369 63.4241 192.371 63.4346 192.375 63.5625C192.391 64.054 193.125 64.0417 193.125 63.55C193.125 63.4417 193.123 63.3836 193.109 63.0586C193.104 62.9304 193.102 62.8757 193.099 62.8008C193.088 62.4688 193.094 62.2429 193.118 62.1235C193.163 61.883 193.328 61.6863 193.553 61.6004C193.772 61.5343 194.028 61.5176 194.277 61.5598C194.482 61.6027 194.675 61.7284 194.806 61.9094C194.977 62.3714 195.097 62.9478 195.115 63.5318C195.13 64.0119 195.841 64.018 195.864 63.5383C195.889 63.0415 195.971 62.5493 196.11 62.0718C196.225 61.9311 196.381 61.8295 196.557 61.7822C196.813 61.7366 197.106 61.7366 197.392 61.7889C197.54 61.8422 197.714 61.9676 197.84 62.1353C197.989 62.5434 198.109 63.0653 198.146 63.5963C198.143 63.5956 198.141 63.595 198.14 63.5957C198.135 63.5994 198.15 63.635 198.243 63.8433C198.624 63.9094 198.74 63.9295 198.795 63.8809C198.82 63.8597 198.832 63.8254 198.851 63.7762L198.851 63.7762C198.877 63.7234 198.877 63.7234 198.884 63.701C198.893 63.6737 198.903 63.6372 198.92 63.5711C198.957 63.4297 198.992 63.3196 199.036 63.2115C199.065 63.1408 199.096 63.0795 199.127 63.0296C199.237 62.7373 199.416 62.5792 199.636 62.5349C199.856 62.4907 200.082 62.567 200.231 62.7352C200.379 62.9034 200.426 63.1379 200.355 63.3503L200.335 63.47V65.73C200.3 66.2732 200.223 66.8362 200.103 67.3911C199.952 67.8232 199.725 68.2738 199.441 68.6876C198.96 69.2173 198.538 69.8593 198.219 70.5534C198.112 70.9846 198.075 71.3521 198.085 71.7199C198.084 71.9064 198.098 72.096 198.126 72.2851C197.88 72.2923 197.634 72.283 197.389 72.2571C197.268 72.2379 196.896 71.7708 196.68 71.3714C196.558 71.1265 196.296 70.9647 196.01 70.9647C195.724 70.9647 195.462 71.1265 195.334 71.3825C195.086 71.8098 194.689 72.2743 194.576 72.2876C194.229 72.329 193.786 72.329 192.638 72.3029L192.485 72.2994C192.25 72.2942 192.06 72.2904 191.892 72.2881C191.897 72.1501 191.894 72.0113 191.879 71.8756C191.839 71.5153 191.726 71.2193 191.497 71.0182C191.473 70.9964 191.46 70.9855 191.448 70.9745C191.435 70.9634 191.423 70.9522 191.398 70.9298C191.316 70.8567 191.231 70.7783 191.137 70.691C191.122 70.6766 191.071 70.6285 191.002 70.5629Z" fill="black"/>
<path d="M197.75 69.8259V66.3741C197.75 66.1675 197.582 66 197.375 66C197.168 66 197 66.1675 197 66.3741V69.8259C197 70.0325 197.168 70.2 197.375 70.2C197.582 70.2 197.75 70.0325 197.75 69.8259Z" fill="black"/>
<path d="M195.77 69.8246L195.75 66.3711C195.749 66.1649 195.58 65.9988 195.373 66C195.166 66.0012 194.999 66.1693 195 66.3754L195.02 69.8289C195.021 70.035 195.19 70.2012 195.397 70.2C195.604 70.1988 195.771 70.0307 195.77 69.8246Z" fill="black"/>
<path d="M193 66.379L193.02 69.8254C193.021 70.0335 193.19 70.2012 193.397 70.2C193.604 70.1988 193.771 70.0291 193.77 69.821L193.75 66.3746C193.749 66.1665 193.58 65.9988 193.373 66C193.166 66.0012 192.999 66.1709 193 66.379Z" fill="black"/>
</g>
<g filter="url(#filter2_d_85_95371)">
<rect x="311" y="256" width="98" height="88" rx="8" fill="#252526"/>
<path d="M343.516 314V302.496H355.332V298.395H343.516V290.055H356.445V285.816H338.477V314H343.516ZM371.738 314.703C377.891 314.703 382.012 310.66 382.012 304.762C382.012 299.098 378.105 295.484 373.281 295.484C370.41 295.484 368.34 296.461 367.09 298.199H366.758L367.539 289.957H380.508V285.816H363.613L362.07 302.203H366.641C367.598 300.348 369.453 299.234 371.855 299.234C374.961 299.234 377.148 301.48 377.148 304.84C377.148 308.297 374.961 310.602 371.719 310.602C368.848 310.602 366.68 308.863 366.367 306.227H361.66C361.875 311.168 365.918 314.703 371.738 314.703Z" fill="#CCCCCC"/>
</g>
<defs>
<filter id="filter0_d_85_95371" x="181.777" y="59.113" width="19.4198" height="20.64" filterUnits="userSpaceOnUse" color-interpolation-filters="sRGB">
<feFlood flood-opacity="0" result="BackgroundImageFix"/>
<feColorMatrix in="SourceAlpha" type="matrix" values="0 0 0 0 0 0 0 0 0 0 0 0 0 0 0 0 0 0 127 0" result="hardAlpha"/>
<feOffset dy="1"/>
<feGaussianBlur stdDeviation="0.4"/>
<feColorMatrix type="matrix" values="0 0 0 0 0 0 0 0 0 0 0 0 0 0 0 0 0 0 0.5 0"/>
<feBlend mode="normal" in2="BackgroundImageFix" result="effect1_dropShadow_85_95371"/>
<feBlend mode="normal" in="SourceGraphic" in2="effect1_dropShadow_85_95371" result="shape"/>
</filter>
<filter id="filter1_d_85_95371" x="185.19" y="57.0222" width="16.747" height="17.849" filterUnits="userSpaceOnUse" color-interpolation-filters="sRGB">
<feFlood flood-opacity="0" result="BackgroundImageFix"/>
<feColorMatrix in="SourceAlpha" type="matrix" values="0 0 0 0 0 0 0 0 0 0 0 0 0 0 0 0 0 0 127 0" result="hardAlpha"/>
<feOffset dy="1"/>
<feGaussianBlur stdDeviation="0.4"/>
<feColorMatrix type="matrix" values="0 0 0 0 0 0 0 0 0 0 0 0 0 0 0 0 0 0 0.5 0"/>
<feBlend mode="normal" in2="BackgroundImageFix" result="effect1_dropShadow_85_95371"/>
<feBlend mode="normal" in="SourceGraphic" in2="effect1_dropShadow_85_95371" result="shape"/>
</filter>
<filter id="filter2_d_85_95371" x="295" y="242" width="130" height="120" filterUnits="userSpaceOnUse" color-interpolation-filters="sRGB">
<feFlood flood-opacity="0" result="BackgroundImageFix"/>
<feColorMatrix in="SourceAlpha" type="matrix" values="0 0 0 0 0 0 0 0 0 0 0 0 0 0 0 0 0 0 127 0" result="hardAlpha"/>
<feOffset dy="2"/>
<feGaussianBlur stdDeviation="8"/>
<feColorMatrix type="matrix" values="0 0 0 0 0 0 0 0 0 0 0 0 0 0 0 0 0 0 0.36 0"/>
<feBlend mode="normal" in2="BackgroundImageFix" result="effect1_dropShadow_85_95371"/>
<feBlend mode="normal" in="SourceGraphic" in2="effect1_dropShadow_85_95371" result="shape"/>
</filter>
</defs>
</svg>
