<svg width="13" height="15" viewBox="0 0 13 15" fill="none" xmlns="http://www.w3.org/2000/svg">
<path d="M12.504 12H10.712L9 10.288V6.496L8.504 6H7V4H7.496L8.008 3.504V1.504L7.496 0.992H5.496L5 1.504V3.504L5.496 4H6.008V6H4.504L4.008 6.496V10.288L2.296 12H0.504L0.00800002 12.496V14.496L0.504 14.992H2.504L3 14.496V12.704L4.712 10.992H8.296L10.008 12.704V14.496L10.504 14.992H12.504L13 14.496V12.496L12.504 12ZM6.008 2H7V2.992H6.008V2ZM5 6.992H8.008V10H5V6.992ZM2.008 14H1V12.992H2.008V14ZM12.008 14H11V12.992H12.008V14Z" fill="#CCCCCC"/>
</svg>