<svg width="603" height="432" viewBox="0 0 603 432" fill="none" xmlns="http://www.w3.org/2000/svg">
<rect width="209" height="39" transform="translate(394 48)" fill="#252526"/>
<rect width="103" height="39" transform="translate(394 48)" fill="#1E1E1E"/>
<rect x="407.475" y="63.5701" width="76.0516" height="7.85995" rx="3.92998" fill="white" fill-opacity="0.12"/>
<rect x="394" y="87" width="209" height="293" fill="#1E1E1E"/>
<rect x="426" y="111" width="50" height="7" rx="3.5" fill="white" fill-opacity="0.16"/>
<rect x="426" y="130" width="50" height="7" rx="3.5" fill="white" fill-opacity="0.16"/>
<rect x="426" y="187" width="65.4545" height="7" rx="3.5" fill="white" fill-opacity="0.16"/>
<rect x="496.909" y="187" width="23.6364" height="7" rx="3.5" fill="white" fill-opacity="0.16"/>
<rect x="426" y="307" width="65.4545" height="7" rx="3.5" fill="white" fill-opacity="0.16"/>
<rect x="496.909" y="307" width="23.6364" height="7" rx="3.5" fill="white" fill-opacity="0.16"/>
<rect x="441.455" y="206" width="27.2727" height="7" rx="3.5" fill="white" fill-opacity="0.16"/>
<rect x="450.546" y="225" width="27.2727" height="7" rx="3.5" fill="white" fill-opacity="0.16"/>
<rect x="483.272" y="225" width="37.2727" height="7" rx="3.5" fill="white" fill-opacity="0.16"/>
<rect x="441.455" y="244" width="27.2727" height="7" rx="3.5" fill="white" fill-opacity="0.16"/>
<rect x="433.272" y="263" width="28.1818" height="7" rx="3.5" fill="white" fill-opacity="0.16"/>
<rect x="481.455" y="111" width="47.2727" height="7" rx="3.5" fill="white" fill-opacity="0.16"/>
<rect x="481.455" y="130" width="67.2727" height="7" rx="3.5" fill="white" fill-opacity="0.16"/>
<rect x="475.091" y="206" width="53.6364" height="7" rx="3.5" fill="white" fill-opacity="0.16"/>
<g filter="url(#filter0_d_280_98280)">
<rect x="16" y="14" width="378" height="400" rx="4" fill="#252526"/>
<path d="M36.8806 41.7485H33.8019V39.7509H36.716V38.9234H33.8019V37.0459H36.8806V36.1872H32.8053V42.6072H36.8806V41.7485ZM37.9128 42.6072H39.0161L40.6133 40.1914H40.689L42.2639 42.6072H43.4296L41.2896 39.4083L43.4696 36.1872H42.3485L40.7602 38.6386H40.6845L39.1229 36.1872H37.935L40.0572 39.3772L37.9128 42.6072ZM44.6753 36.1872V42.6072H45.6719V40.4138H47.1579C48.4169 40.4138 49.3067 39.5507 49.3067 38.3139C49.3067 37.0503 48.4436 36.1872 47.189 36.1872H44.6753ZM45.6719 37.0281H46.9265C47.803 37.0281 48.2879 37.4819 48.2879 38.3139C48.2879 39.1191 47.7852 39.5774 46.9265 39.5774H45.6719V37.0281ZM54.5967 41.7396H51.5891V36.1872H50.5925V42.6072H54.5967V41.7396ZM58.3561 36.0315C56.5142 36.0315 55.3574 37.3262 55.3574 39.395C55.3574 41.4593 56.4875 42.7629 58.3561 42.7629C60.2113 42.7629 61.3503 41.4549 61.3503 39.395C61.3503 37.3306 60.2024 36.0315 58.3561 36.0315ZM58.3561 36.9124C59.5707 36.9124 60.3315 37.8734 60.3315 39.395C60.3315 40.9032 59.5751 41.882 58.3561 41.882C57.1193 41.882 56.3763 40.9032 56.3763 39.395C56.3763 37.8734 57.1415 36.9124 58.3561 36.9124ZM63.6994 40.138H65.1053L66.4133 42.6072H67.5656L66.1241 39.9822C66.9071 39.7198 67.3698 39.0168 67.3698 38.1492C67.3698 36.9525 66.5379 36.1872 65.2432 36.1872H62.7028V42.6072H63.6994V40.138ZM63.6994 37.0236H65.1053C65.875 37.0236 66.3466 37.4552 66.3466 38.1715C66.3466 38.9056 65.9017 39.3193 65.132 39.3193H63.6994V37.0236ZM72.8644 41.7485H69.7857V39.7509H72.6998V38.9234H69.7857V37.0459H72.8644V36.1872H68.7891V42.6072H72.8644V41.7485ZM75.3025 40.138H76.7084L78.0164 42.6072H79.1687L77.7272 39.9822C78.5102 39.7198 78.9729 39.0168 78.9729 38.1492C78.9729 36.9525 78.141 36.1872 76.8463 36.1872H74.3059V42.6072H75.3025V40.138ZM75.3025 37.0236H76.7084C77.478 37.0236 77.9496 37.4552 77.9496 38.1715C77.9496 38.9056 77.5047 39.3193 76.7351 39.3193H75.3025V37.0236Z" fill="#CCCCCC"/>
<path d="M374.683 38.8928C374.683 39.0922 374.608 39.2667 374.458 39.4162C374.334 39.5408 374.172 39.6031 373.973 39.6031C373.773 39.6031 373.611 39.5408 373.487 39.4162C373.362 39.2667 373.3 39.0922 373.3 38.8928C373.3 38.6935 373.362 38.5315 373.487 38.4069C373.611 38.2574 373.773 38.1826 373.973 38.1826C374.172 38.1826 374.334 38.2574 374.458 38.4069C374.608 38.5315 374.683 38.6935 374.683 38.8928ZM378.197 38.8928C378.197 39.0922 378.122 39.2667 377.972 39.4162C377.848 39.5408 377.686 39.6031 377.486 39.6031C377.287 39.6031 377.113 39.5408 376.963 39.4162C376.838 39.2667 376.776 39.0922 376.776 38.8928C376.776 38.6935 376.838 38.5315 376.963 38.4069C377.113 38.2574 377.287 38.1826 377.486 38.1826C377.686 38.1826 377.848 38.2574 377.972 38.4069C378.122 38.5315 378.197 38.6935 378.197 38.8928ZM381.71 38.8928C381.71 39.0922 381.636 39.2667 381.486 39.4162C381.361 39.5408 381.2 39.6031 381 39.6031C380.801 39.6031 380.626 39.5408 380.477 39.4162C380.352 39.2667 380.29 39.0922 380.29 38.8928C380.29 38.6935 380.352 38.5315 380.477 38.4069C380.626 38.2574 380.801 38.1826 381 38.1826C381.2 38.1826 381.361 38.2574 381.486 38.4069C381.636 38.5315 381.71 38.6935 381.71 38.8928Z" fill="#CCCCCC"/>
<path d="M38 67.08L42.32 62.7067L42.96 63.3467L38.2667 67.9867H37.68L32.9867 63.3467L33.6267 62.7067L38 67.08Z" fill="#E3E3E3"/>
<path d="M60.373 69V60.5449H58.6035V63.9785H54.7949V60.5449H53.0254V69H54.7949V65.4375H58.6035V69H60.373ZM68.0254 67.541H64.1934V65.4023H67.8086V64.043H64.1934V62.0039H68.0254V60.5449H62.4238V69H68.0254V67.541ZM75.4199 67.5117H71.6582V60.5449H69.8887V69H75.4199V67.5117ZM82.5566 67.5117H78.7949V60.5449H77.0254V69H82.5566V67.5117ZM87.625 60.3281C85.1348 60.3281 83.5527 62.0273 83.5527 64.7695C83.5527 67.5059 85.1113 69.2168 87.625 69.2168C90.1211 69.2168 91.6914 67.5059 91.6914 64.7695C91.6914 62.0332 90.1152 60.3281 87.625 60.3281ZM87.625 61.8281C88.9961 61.8281 89.8809 62.9707 89.8809 64.7695C89.8809 66.5625 89.002 67.7168 87.625 67.7168C86.2305 67.7168 85.3633 66.5625 85.3633 64.7695C85.3633 62.9707 86.248 61.8281 87.625 61.8281ZM98.0605 63.3047H98.1543L99.7539 69H101.412L103.656 60.5449H101.828L100.521 66.5859H100.428L98.8574 60.5449H97.3633L95.8223 66.5859H95.7285L94.4102 60.5449H92.5703L94.8086 69H96.4785L98.0605 63.3047ZM108.602 60.3281C106.111 60.3281 104.529 62.0273 104.529 64.7695C104.529 67.5059 106.088 69.2168 108.602 69.2168C111.098 69.2168 112.668 67.5059 112.668 64.7695C112.668 62.0332 111.092 60.3281 108.602 60.3281ZM108.602 61.8281C109.973 61.8281 110.857 62.9707 110.857 64.7695C110.857 66.5625 109.979 67.7168 108.602 67.7168C107.207 67.7168 106.34 66.5625 106.34 64.7695C106.34 62.9707 107.225 61.8281 108.602 61.8281ZM116.119 65.9062H117.566L119.143 69H121.146L119.365 65.6426C120.338 65.2617 120.9 64.3242 120.9 63.2402C120.9 61.5703 119.758 60.5449 117.9 60.5449H114.35V69H116.119V65.9062ZM116.119 61.9277H117.654C118.533 61.9277 119.084 62.4434 119.084 63.2637C119.084 64.1016 118.562 64.5879 117.672 64.5879H116.119V61.9277ZM128.213 67.5117H124.451V60.5449H122.682V69H128.213V67.5117ZM129.818 60.5449V69H133.146C135.678 69 137.113 67.4531 137.113 64.7168C137.113 62.0625 135.66 60.5449 133.146 60.5449H129.818ZM131.588 62.0039H132.865C134.4 62.0039 135.309 63 135.309 64.7461C135.309 66.5566 134.43 67.541 132.865 67.541H131.588V62.0039Z" fill="#E3E3E3"/>
<path d="M53.08 89L48.7067 84.68L49.3467 84.04L53.9867 88.7333V89.32L49.3467 94.0133L48.7067 93.3733L53.08 89Z" fill="#808080"/>
<rect x="67" y="85.5" width="93" height="7" rx="3.5" fill="white" fill-opacity="0.16"/>
<path d="M53.08 113L48.7067 108.68L49.3467 108.04L53.9867 112.733V113.32L49.3467 118.013L48.7067 117.373L53.08 113Z" fill="#808080"/>
<rect x="67" y="109.5" width="93" height="7" rx="3.5" fill="white" fill-opacity="0.16"/>
<path d="M51 139.08L55.32 134.707L55.96 135.347L51.2667 139.987H50.68L45.9867 135.347L46.6267 134.707L51 139.08Z" fill="#E3E3E3"/>
<path d="M68.6631 131.402V142.955H71.6909V141.914H69.9897V132.45H71.6909V131.402H68.6631ZM79.27 141H80.7808L77.4736 131.84H75.9438L72.6367 141H74.0967L74.9409 138.524H78.4321L79.27 141ZM76.6357 133.459H76.7437L78.0703 137.382H75.3027L76.6357 133.459ZM85.8081 133.986C84.8687 133.986 84.0562 134.462 83.6372 135.249H83.5356V134.106H82.2217V143.298H83.5864V139.959H83.6943C84.0562 140.689 84.8369 141.114 85.8208 141.114C87.5664 141.114 88.6772 139.73 88.6772 137.553C88.6772 135.363 87.5664 133.986 85.8081 133.986ZM85.4209 139.946C84.2783 139.946 83.561 139.026 83.561 137.553C83.561 136.074 84.2783 135.154 85.4272 135.154C86.5825 135.154 87.2744 136.055 87.2744 137.553C87.2744 139.051 86.5825 139.946 85.4209 139.946ZM93.9077 133.986C92.9683 133.986 92.1558 134.462 91.7368 135.249H91.6353V134.106H90.3213V143.298H91.686V139.959H91.7939C92.1558 140.689 92.9365 141.114 93.9204 141.114C95.666 141.114 96.7769 139.73 96.7769 137.553C96.7769 135.363 95.666 133.986 93.9077 133.986ZM93.5205 139.946C92.3779 139.946 91.6606 139.026 91.6606 137.553C91.6606 136.074 92.3779 135.154 93.5269 135.154C94.6821 135.154 95.374 136.055 95.374 137.553C95.374 139.051 94.6821 139.946 93.5205 139.946ZM107.828 136.322C107.65 134.982 106.603 133.973 104.87 133.973C102.858 133.973 101.633 135.338 101.633 137.528C101.633 139.762 102.864 141.133 104.876 141.133C106.584 141.133 107.65 140.175 107.828 138.816H106.501C106.324 139.565 105.733 139.972 104.87 139.972C103.734 139.972 103.029 139.051 103.029 137.528C103.029 136.036 103.728 135.135 104.87 135.135C105.784 135.135 106.343 135.649 106.501 136.322H107.828ZM111.3 141.114C112.208 141.114 112.963 140.721 113.376 140.022H113.484V141H114.798V136.284C114.798 134.836 113.82 133.973 112.087 133.973C110.52 133.973 109.402 134.729 109.263 135.89H110.583C110.735 135.389 111.262 135.103 112.024 135.103C112.957 135.103 113.439 135.528 113.439 136.284V136.887L111.567 137.001C109.923 137.103 108.996 137.82 108.996 139.058C108.996 140.314 109.967 141.114 111.3 141.114ZM111.649 140.016C110.907 140.016 110.367 139.642 110.367 139C110.367 138.372 110.799 138.036 111.751 137.972L113.439 137.858V138.455C113.439 139.343 112.678 140.016 111.649 140.016ZM120.327 133.986C119.387 133.986 118.575 134.462 118.156 135.249H118.054V134.106H116.74V143.298H118.105V139.959H118.213C118.575 140.689 119.355 141.114 120.339 141.114C122.085 141.114 123.196 139.73 123.196 137.553C123.196 135.363 122.085 133.986 120.327 133.986ZM119.939 139.946C118.797 139.946 118.08 139.026 118.08 137.553C118.08 136.074 118.797 135.154 119.946 135.154C121.101 135.154 121.793 136.055 121.793 137.553C121.793 139.051 121.101 139.946 119.939 139.946ZM126.75 141.114C127.658 141.114 128.414 140.721 128.826 140.022H128.934V141H130.248V136.284C130.248 134.836 129.271 133.973 127.538 133.973C125.97 133.973 124.853 134.729 124.713 135.89H126.033C126.186 135.389 126.712 135.103 127.474 135.103C128.407 135.103 128.89 135.528 128.89 136.284V136.887L127.017 137.001C125.373 137.103 124.446 137.82 124.446 139.058C124.446 140.314 125.417 141.114 126.75 141.114ZM127.1 140.016C126.357 140.016 125.817 139.642 125.817 139C125.817 138.372 126.249 138.036 127.201 137.972L128.89 137.858V138.455C128.89 139.343 128.128 140.016 127.1 140.016ZM135.853 141.114C137.599 141.114 138.709 139.724 138.709 137.553C138.709 135.363 137.605 133.986 135.853 133.986C134.907 133.986 134.095 134.449 133.727 135.198H133.619V131.402H132.254V141H133.568V139.908H133.669C134.082 140.67 134.888 141.114 135.853 141.114ZM135.459 135.154C136.615 135.154 137.307 136.062 137.307 137.553C137.307 139.045 136.615 139.946 135.459 139.946C134.311 139.946 133.6 139.032 133.593 137.553C133.6 136.074 134.317 135.154 135.459 135.154ZM141.058 132.875C141.534 132.875 141.921 132.488 141.921 132.018C141.921 131.542 141.534 131.155 141.058 131.155C140.582 131.155 140.195 131.542 140.195 132.018C140.195 132.488 140.582 132.875 141.058 132.875ZM140.379 141H141.737V134.106H140.379V141ZM143.807 141H145.171V131.402H143.807V141ZM147.926 132.875C148.402 132.875 148.79 132.488 148.79 132.018C148.79 131.542 148.402 131.155 147.926 131.155C147.45 131.155 147.063 131.542 147.063 132.018C147.063 132.488 147.45 132.875 147.926 132.875ZM147.247 141H148.605V134.106H147.247V141ZM151.094 132.367V134.125H149.996V135.217H151.094V139.185C151.094 140.511 151.697 141.044 153.214 141.044C153.48 141.044 153.734 141.013 153.957 140.975V139.889C153.766 139.908 153.646 139.921 153.436 139.921C152.757 139.921 152.458 139.597 152.458 138.854V135.217H153.957V134.125H152.458V132.367H151.094ZM156.248 143.501C157.657 143.501 158.311 142.974 158.901 141.317L161.479 134.106H160.031L158.305 139.629H158.197L156.464 134.106H154.979L157.479 141.019L157.378 141.375C157.143 142.104 156.775 142.377 156.127 142.377C156 142.377 155.791 142.371 155.683 142.352V143.469C155.81 143.488 156.134 143.501 156.248 143.501ZM165.408 142.955V131.402H162.374V132.45H164.081V141.914H162.374V142.955H165.408Z" fill="#E3E3E3"/>
<rect width="376" height="24" transform="translate(17 149)" fill="#062F4A"/>
<path d="M85.26 160.44C85.1933 159.467 84.86 158.507 84.26 157.56C83.82 156.907 83.2933 156.367 82.68 155.94C82.0667 155.5 81.38 155.187 80.62 155C80.18 154.88 79.7667 154.82 79.38 154.82H78.38C77.18 154.94 76.0733 155.373 75.06 156.12C73.9 157.093 73.1733 158.26 72.88 159.62C72.8 160.033 72.76 160.367 72.76 160.62V161.62C72.8933 162.78 73.2467 163.76 73.82 164.56C74.5533 165.64 75.4667 166.393 76.56 166.82C77.32 167.087 78.0067 167.253 78.62 167.32H79.62C81.14 167.187 82.4333 166.56 83.5 165.44C84.3667 164.573 84.9267 163.533 85.18 162.32C85.2067 162.213 85.2267 162.067 85.24 161.88C85.2667 161.693 85.2933 161.547 85.32 161.44V160.76C85.2667 160.667 85.24 160.56 85.24 160.44H85.26ZM79 166.32C78.04 166.32 77.1533 166.073 76.34 165.58C75.54 165.113 74.9067 164.473 74.44 163.66C73.9867 162.847 73.76 161.96 73.76 161C73.76 160.04 73.9933 159.153 74.46 158.34C74.94 157.527 75.5867 156.887 76.4 156.42C77.24 155.927 78.1467 155.68 79.12 155.68C80.0667 155.707 80.94 155.96 81.74 156.44C82.5533 156.907 83.1933 157.54 83.66 158.34C84.14 159.153 84.3733 160.04 84.36 161C84.3467 161.96 84.0933 162.847 83.6 163.66C83.12 164.473 82.48 165.113 81.68 165.58C80.8533 166.073 79.96 166.32 79 166.32ZM80.5 164.38C80.38 164.38 80.2733 164.36 80.18 164.32C80.1267 164.32 80.08 164.28 80.04 164.2C80.0267 164.16 80.0133 164.133 80 164.12V160.06C79.6667 160.087 79.1733 160.113 78.52 160.14C77.88 160.153 77.3933 160.167 77.06 160.18V160.68H77.68C77.8 160.68 77.8933 160.72 77.96 160.8C78.0267 160.88 78.06 160.987 78.06 161.12V164C78.06 164.253 77.9333 164.38 77.68 164.38H77.12V164.88H80.88V164.38H80.5ZM78.88 159.32C79.1867 159.32 79.44 159.213 79.64 159C79.84 158.787 79.94 158.54 79.94 158.26C79.94 157.967 79.8333 157.713 79.62 157.5C79.4067 157.287 79.1533 157.18 78.86 157.18C78.5667 157.18 78.32 157.287 78.12 157.5C77.92 157.713 77.82 157.967 77.82 158.26C77.82 158.54 77.9267 158.787 78.14 159C78.3533 159.213 78.6 159.32 78.88 159.32Z" fill="#519ABA"/>
<path d="M97.5708 161.477H99.5767L101.443 165H103.087L101.03 161.255C102.147 160.88 102.808 159.877 102.808 158.64C102.808 156.932 101.621 155.84 99.7734 155.84H96.1489V165H97.5708V161.477ZM97.5708 157.034H99.5767C100.675 157.034 101.348 157.649 101.348 158.671C101.348 159.719 100.713 160.309 99.6147 160.309H97.5708V157.034ZM110.647 163.775H106.254V160.925H110.412V159.744H106.254V157.065H110.647V155.84H104.833V165H110.647V163.775ZM118.632 165H120.143L116.836 155.84H115.306L111.999 165H113.459L114.303 162.524H117.794L118.632 165ZM115.998 157.459H116.106L117.433 161.382H114.665L115.998 157.459ZM121.743 155.84V165H125.05C127.779 165 129.36 163.312 129.36 160.398C129.36 157.516 127.767 155.84 125.05 155.84H121.743ZM123.165 157.065H124.891C126.789 157.065 127.913 158.303 127.913 160.417C127.913 162.55 126.808 163.775 124.891 163.775H123.165V157.065ZM140.557 165V155.84H138.894L135.974 163.007H135.866L132.953 155.84H131.29V165H132.61V158.291H132.699L135.384 164.835H136.463L139.148 158.291H139.237V165H140.557ZM148.669 163.775H144.277V160.925H148.435V159.744H144.277V157.065H148.669V155.84H142.855V165H148.669V163.775ZM151.627 165.095C152.167 165.095 152.561 164.695 152.561 164.181C152.561 163.667 152.167 163.267 151.627 163.267C151.094 163.267 150.694 163.667 150.694 164.181C150.694 164.695 151.094 165.095 151.627 165.095ZM154.668 165H156.033V160.766C156.033 159.865 156.661 159.16 157.493 159.16C158.305 159.16 158.826 159.649 158.826 160.436V165H160.165V160.639C160.165 159.808 160.743 159.16 161.625 159.16C162.52 159.16 162.964 159.624 162.964 160.576V165H164.329V160.246C164.329 158.811 163.517 157.973 162.12 157.973C161.162 157.973 160.368 158.462 160.019 159.205H159.911C159.606 158.462 158.953 157.973 158.007 157.973C157.086 157.973 156.388 158.43 156.083 159.205H155.982V158.106H154.668V165ZM168.772 165.114C169.725 165.114 170.531 164.664 170.943 163.908H171.051V165H172.359V155.402H170.994V159.198H170.893C170.518 158.443 169.718 157.986 168.772 157.986C167.027 157.986 165.903 159.376 165.903 161.547C165.903 163.73 167.014 165.114 168.772 165.114ZM169.16 159.154C170.302 159.154 171.02 160.081 171.02 161.553C171.02 163.039 170.309 163.946 169.16 163.946C168.004 163.946 167.312 163.051 167.312 161.553C167.312 160.062 168.011 159.154 169.16 159.154Z" fill="#E3E3E3"/>
<path d="M53.08 185L48.7067 180.68L49.3467 180.04L53.9867 184.733V185.32L49.3467 190.013L48.7067 189.373L53.08 185Z" fill="#808080"/>
<rect x="67" y="181.5" width="93" height="7" rx="3.5" fill="white" fill-opacity="0.16"/>
<path d="M53.08 209L48.7067 204.68L49.3467 204.04L53.9867 208.733V209.32L49.3467 214.013L48.7067 213.373L53.08 209Z" fill="#808080"/>
<rect x="67" y="205.5" width="93" height="7" rx="3.5" fill="white" fill-opacity="0.16"/>
<path d="M53.08 233L48.7067 228.68L49.3467 228.04L53.9867 232.733V233.32L49.3467 238.013L48.7067 237.373L53.08 233Z" fill="#808080"/>
<rect x="67" y="229.5" width="93" height="7" rx="3.5" fill="white" fill-opacity="0.16"/>
<path d="M53.08 257L48.7067 252.68L49.3467 252.04L53.9867 256.733V257.32L49.3467 262.013L48.7067 261.373L53.08 257Z" fill="#808080"/>
<rect x="67" y="253.5" width="63" height="7" rx="3.5" fill="white" fill-opacity="0.16"/>
<rect x="16.5" y="77.5" width="377" height="191" stroke="#007ACC"/>
</g>
<defs>
<filter id="filter0_d_280_98280" x="0" y="0" width="410" height="432" filterUnits="userSpaceOnUse" color-interpolation-filters="sRGB">
<feFlood flood-opacity="0" result="BackgroundImageFix"/>
<feColorMatrix in="SourceAlpha" type="matrix" values="0 0 0 0 0 0 0 0 0 0 0 0 0 0 0 0 0 0 127 0" result="hardAlpha"/>
<feOffset dy="2"/>
<feGaussianBlur stdDeviation="8"/>
<feColorMatrix type="matrix" values="0 0 0 0 0 0 0 0 0 0 0 0 0 0 0 0 0 0 0.36 0"/>
<feBlend mode="normal" in2="BackgroundImageFix" result="effect1_dropShadow_280_98280"/>
<feBlend mode="normal" in="SourceGraphic" in2="effect1_dropShadow_280_98280" result="shape"/>
</filter>
</defs>
</svg>
