<svg width="412" height="415" viewBox="0 0 412 415" fill="none" xmlns="http://www.w3.org/2000/svg">
<rect y="274.441" width="27.9322" height="27.9322" rx="2" fill="var(--vscode-quickinput-background, #252526)"/>
<rect x="38.4068" y="82.4062" width="27.9322" height="27.9322" rx="2" fill="var(--vscode-quickinput-background, #252526)"/>
<rect x="38.4068" y="120.812" width="27.9322" height="27.9322" rx="2" fill="var(--vscode-quickinput-background, #252526)"/>
<rect x="38.4068" y="159.221" width="27.9322" height="27.9322" rx="2" fill="var(--vscode-quickinput-background, #252526)"/>
<rect x="38.4068" y="274.441" width="27.9322" height="27.9322" rx="2" fill="var(--vscode-quickinput-background, #252526)"/>
<rect x="38.4068" y="312.848" width="27.9322" height="27.9322" rx="2" fill="var(--vscode-quickinput-background, #252526)"/>
<rect x="76.8135" y="44" width="27.9322" height="27.9322" rx="2" fill="var(--vscode-quickinput-background, #252526)"/>
<rect x="76.8135" y="82.4062" width="27.9322" height="27.9322" rx="2" fill="var(--vscode-quickinput-background, #252526)"/>
<rect x="76.8135" y="159.221" width="27.9322" height="27.9322" rx="2" fill="var(--vscode-quickinput-background, #252526)"/>
<rect x="76.8135" y="197.627" width="27.9322" height="27.9322" rx="2" fill="var(--vscode-quickinput-background, #252526)"/>
<rect x="76.8135" y="236.033" width="27.9322" height="27.9322" rx="2" fill="var(--vscode-quickinput-background, #252526)"/>
<rect x="76.8135" y="274.441" width="27.9322" height="27.9322" rx="2" fill="var(--vscode-quickinput-background, #252526)"/>
<rect x="115.22" y="159.221" width="27.9322" height="27.9322" rx="2" fill="var(--vscode-quickinput-background, #252526)"/>
<rect x="115.22" y="236.033" width="27.9322" height="27.9322" rx="2" fill="var(--vscode-quickinput-background, #252526)"/>
<rect x="153.627" y="44" width="27.9322" height="27.9322" rx="2" fill="var(--vscode-quickinput-background, #252526)"/>
<rect x="153.627" y="120.812" width="27.9322" height="27.9322" rx="2" fill="var(--vscode-quickinput-background, #252526)"/>
<rect x="153.627" y="159.221" width="27.9322" height="27.9322" rx="2" fill="var(--vscode-quickinput-background, #252526)"/>
<rect x="153.627" y="197.627" width="27.9322" height="27.9322" rx="2" fill="var(--vscode-quickinput-background, #252526)"/>
<rect x="153.627" y="274.441" width="27.9322" height="27.9322" rx="2" fill="var(--vscode-quickinput-background, #252526)"/>
<rect x="192.034" y="82.4062" width="27.9322" height="27.9322" rx="2" fill="var(--vscode-quickinput-background, #252526)"/>
<rect x="192.034" y="351.254" width="27.9322" height="27.9322" rx="2" fill="var(--vscode-quickinput-background, #252526)"/>
<rect x="230.441" y="120.812" width="27.9322" height="27.9322" rx="2" fill="var(--vscode-quickinput-background, #252526)"/>
<rect x="230.441" y="159.221" width="27.9322" height="27.9322" rx="2" fill="var(--vscode-quickinput-background, #252526)"/>
<rect x="230.441" y="274.441" width="27.9322" height="27.9322" rx="2" fill="var(--vscode-quickinput-background, #252526)"/>
<rect x="230.441" y="236.033" width="27.9322" height="27.9322" rx="2" fill="var(--vscode-quickinput-background, #252526)"/>
<rect x="192.034" y="236.033" width="27.9322" height="27.9322" rx="2" fill="var(--vscode-quickinput-background, #252526)"/>
<rect x="230.441" y="312.848" width="27.9322" height="27.9322" rx="2" fill="var(--vscode-quickinput-background, #252526)"/>
<rect x="230.441" y="351.254" width="27.9322" height="27.9322" rx="2" fill="var(--vscode-quickinput-background, #252526)"/>
<rect x="268.847" y="82.4062" width="27.9322" height="27.9322" rx="2" fill="var(--vscode-quickinput-background, #252526)"/>
<rect x="268.847" y="159.221" width="27.9322" height="27.9322" rx="2" fill="var(--vscode-quickinput-background, #252526)"/>
<rect x="268.847" y="236.033" width="27.9322" height="27.9322" rx="2" fill="var(--vscode-quickinput-background, #252526)"/>
<rect x="307.254" y="44" width="27.9322" height="27.9322" rx="2" fill="var(--vscode-quickinput-background, #252526)"/>
<rect x="307.254" y="82.4062" width="27.9322" height="27.9322" rx="2" fill="var(--vscode-quickinput-background, #252526)"/>
<rect x="307.254" y="159.221" width="27.9322" height="27.9322" rx="2" fill="var(--vscode-quickinput-background, #252526)"/>
<rect x="307.254" y="197.627" width="27.9322" height="27.9322" rx="2" fill="var(--vscode-quickinput-background, #252526)"/>
<rect x="307.254" y="312.848" width="27.9322" height="27.9322" rx="2" fill="var(--vscode-quickinput-background, #252526)"/>
<rect x="307.254" y="351.254" width="27.9322" height="27.9322" rx="2" fill="var(--vscode-quickinput-background, #252526)"/>
<rect x="345.661" y="44" width="27.9322" height="27.9322" rx="2" fill="var(--vscode-quickinput-background, #252526)"/>
<rect x="345.661" y="236.033" width="27.9322" height="27.9322" rx="2" fill="var(--vscode-quickinput-background, #252526)"/>
<rect x="345.661" y="274.441" width="27.9322" height="27.9322" rx="2" fill="var(--vscode-quickinput-background, #252526)"/>
<rect x="345.661" y="312.848" width="27.9322" height="27.9322" rx="2" fill="var(--vscode-quickinput-background, #252526)"/>
<rect x="384.068" y="162.711" width="27.9322" height="27.9322" rx="2" fill="var(--vscode-quickinput-background, #252526)"/>
<g filter="url(#filter0_d_1209_106740)">
<rect x="78" y="79" width="256" height="256" rx="4" fill="white"/>
</g>
<g clip-path="url(#clip0_1209_106740)">
<path d="M204.797 271C204.103 271 203.415 270.82 202.807 270.471L196.475 266.743C195.53 266.219 195.991 266.03 196.304 265.921C197.567 265.486 197.818 265.387 199.166 264.627C199.309 264.546 199.494 264.579 199.636 264.664L204.502 267.537C204.678 267.636 204.929 267.636 205.091 267.537L224.056 256.642C224.231 256.543 224.345 256.34 224.345 256.132V234.352C224.345 234.14 224.231 233.941 224.051 233.832L205.096 222.947C204.92 222.843 204.687 222.843 204.512 222.947L185.561 233.837C185.376 233.941 185.262 234.149 185.262 234.352V256.132C185.262 256.34 185.381 256.538 185.561 256.637L190.754 259.623C193.574 261.027 195.297 259.373 195.297 257.715V236.209C195.297 235.906 195.544 235.666 195.848 235.666H198.255C198.554 235.666 198.806 235.906 198.806 236.209V257.715C198.806 261.456 196.755 263.606 193.19 263.606C192.093 263.606 191.229 263.606 188.822 262.425L183.847 259.576C182.618 258.867 181.858 257.549 181.858 256.132V234.352C181.858 232.935 182.618 231.617 183.847 230.913L202.812 220.009C204.013 219.333 205.608 219.333 206.8 220.009L225.765 230.913C226.994 231.621 227.759 232.94 227.759 234.352V256.132C227.759 257.549 226.994 258.863 225.765 259.576L206.8 270.471C206.187 270.82 205.499 271 204.797 271Z" fill="#679E63"/>
<path d="M210.655 255.989C202.356 255.989 200.619 252.2 200.619 249.016C200.619 248.714 200.861 248.473 201.165 248.473H203.614C203.89 248.473 204.118 248.667 204.16 248.936C204.531 251.421 205.632 252.673 210.655 252.673C214.652 252.673 216.351 251.775 216.351 249.663C216.351 248.449 215.867 247.547 209.658 246.937C204.469 246.427 201.26 245.284 201.26 241.155C201.26 237.347 204.483 235.074 209.895 235.074C215.971 235.074 218.976 237.172 219.356 241.674C219.37 241.83 219.313 241.977 219.209 242.095C219.104 242.203 218.962 242.27 218.805 242.27H216.346C216.09 242.27 215.867 242.09 215.815 241.844C215.226 239.232 213.788 238.396 209.89 238.396C205.528 238.396 205.02 239.907 205.02 241.041C205.02 242.416 205.618 242.813 211.509 243.588C217.339 244.353 220.106 245.44 220.106 249.517C220.106 253.637 216.664 255.989 210.655 255.989Z" fill="#679E63"/>
<path d="M237.998 233.148C237.998 235.151 236.356 236.785 234.343 236.785C232.349 236.785 230.688 235.17 230.688 233.148C230.688 231.088 232.392 229.51 234.343 229.51C236.318 229.51 237.998 231.088 237.998 233.148ZM231.281 233.138C231.281 234.834 232.653 236.2 234.338 236.2C236.042 236.2 237.414 234.806 237.414 233.138C237.414 231.447 236.023 230.096 234.338 230.096C232.672 230.1 231.281 231.428 231.281 233.138ZM232.971 231.107H234.386C234.87 231.107 235.819 231.107 235.819 232.184C235.819 232.935 235.335 233.086 235.046 233.185C235.606 233.223 235.644 233.592 235.724 234.111C235.762 234.437 235.824 234.995 235.938 235.189H235.069C235.05 234.995 234.913 233.955 234.913 233.899C234.856 233.667 234.775 233.554 234.485 233.554H233.769V235.189H232.971V231.107ZM233.745 232.897H234.381C234.903 232.897 234.998 232.533 234.998 232.321C234.998 231.763 234.609 231.763 234.4 231.763H233.745V232.897Z" fill="#679E63"/>
<path fill-rule="evenodd" clip-rule="evenodd" d="M146.07 185.78C146.07 184.911 145.609 184.112 144.854 183.678L124.745 172.164C124.403 171.966 124.024 171.862 123.639 171.848C123.606 171.848 123.459 171.848 123.43 171.848C123.046 171.862 122.666 171.966 122.319 172.164L102.215 183.678C101.465 184.112 101 184.911 101 185.78L101.043 216.792C101.043 217.221 101.266 217.623 101.65 217.836C102.025 218.058 102.486 218.058 102.856 217.836L114.805 211.028C115.56 210.579 116.02 209.795 116.02 208.93V194.445C116.02 193.58 116.48 192.782 117.231 192.352L122.319 189.437C122.699 189.22 123.112 189.111 123.535 189.111C123.948 189.111 124.375 189.22 124.741 189.437L129.825 192.352C130.58 192.782 131.04 193.58 131.04 194.445V208.93C131.04 209.79 131.505 210.584 132.255 211.028L144.199 217.836C144.574 218.058 145.039 218.058 145.414 217.836C145.785 217.623 146.017 217.221 146.017 216.792L146.07 185.78Z" fill="#333333"/>
<path fill-rule="evenodd" clip-rule="evenodd" d="M242.812 143.15C242.437 142.943 241.976 142.947 241.606 143.165C241.236 143.382 241.008 143.779 241.008 144.209V174.918C241.008 175.22 240.847 175.499 240.585 175.65C240.324 175.801 239.997 175.801 239.736 175.65L234.699 172.763C233.949 172.334 233.023 172.334 232.273 172.763L212.159 184.315C211.409 184.745 210.944 185.543 210.944 186.408V209.52C210.944 210.384 211.409 211.183 212.159 211.613L232.273 223.174C233.023 223.603 233.949 223.603 234.704 223.174L254.822 211.613C255.572 211.178 256.037 210.384 256.037 209.52V151.91C256.037 151.036 255.563 150.228 254.794 149.798L242.812 143.15ZM240.946 201.928C240.946 202.145 240.832 202.343 240.642 202.452L233.735 206.416C233.55 206.524 233.318 206.524 233.128 206.416L226.221 202.452C226.031 202.343 225.917 202.145 225.917 201.928V193.99C225.917 193.773 226.031 193.575 226.221 193.466L233.128 189.498C233.318 189.389 233.545 189.389 233.735 189.498L240.642 193.466C240.828 193.575 240.946 193.773 240.946 193.99V201.928Z" fill="#333333"/>
<path fill-rule="evenodd" clip-rule="evenodd" d="M309.794 193.783C310.544 193.348 311.005 192.554 311.005 191.694V186.091C311.005 185.231 310.544 184.433 309.794 183.998L289.809 172.452C289.059 172.017 288.128 172.017 287.373 172.447L267.264 183.998C266.514 184.428 266.049 185.227 266.049 186.091V209.194C266.049 210.063 266.519 210.866 267.274 211.296L287.255 222.63C287.991 223.051 288.893 223.055 289.638 222.644L301.724 215.959C302.109 215.747 302.346 215.345 302.351 214.91C302.355 214.476 302.123 214.069 301.743 213.852L281.506 202.296C281.126 202.079 280.894 201.682 280.894 201.247V194.005C280.894 193.575 281.126 193.173 281.501 192.956L287.801 189.342C288.176 189.124 288.636 189.124 289.011 189.342L295.311 192.956C295.686 193.173 295.918 193.57 295.918 194.005V199.702C295.918 200.137 296.151 200.534 296.526 200.751C296.901 200.968 297.366 200.964 297.741 200.746L309.794 193.783Z" fill="#333333"/>
<path fill-rule="evenodd" clip-rule="evenodd" d="M288.294 192.7C288.437 192.615 288.617 192.615 288.76 192.7L292.619 194.916C292.761 195.001 292.852 195.152 292.852 195.318V199.754C292.852 199.919 292.761 200.071 292.619 200.156L288.76 202.371C288.617 202.457 288.437 202.457 288.294 202.371L284.44 200.156C284.297 200.071 284.207 199.919 284.207 199.754V195.318C284.207 195.152 284.297 195.001 284.44 194.916L288.294 192.7Z" fill="#679E63"/>
<path d="M179.713 172.57C178.967 172.141 178.046 172.141 177.296 172.57L157.297 184.056C156.547 184.486 156.086 185.279 156.086 186.139V209.133C156.086 209.993 156.547 210.787 157.292 211.217L177.292 222.711C178.042 223.141 178.963 223.141 179.708 222.711L199.703 211.217C200.448 210.787 200.909 209.993 200.909 209.133V186.139C200.909 185.279 200.448 184.486 199.698 184.056L179.713 172.57Z" fill="url(#paint0_linear_1209_106740)"/>
<path fill-rule="evenodd" clip-rule="evenodd" d="M184.163 175.128L179.694 172.569C179.494 172.455 179.286 172.375 179.067 172.318L156.583 210.595C156.773 210.843 157.012 211.055 157.292 211.217L170.56 218.843L177.311 222.705C177.88 223.031 178.554 223.106 179.176 222.936L200.263 184.503C200.101 184.329 199.911 184.178 199.698 184.056L184.163 175.128Z" fill="url(#paint1_linear_1209_106740)"/>
<path fill-rule="evenodd" clip-rule="evenodd" d="M200.871 209.558L178.958 172.302C178.699 172.251 178.434 172.24 178.174 172.271C177.87 172.313 177.571 172.413 177.296 172.57L157.353 184.023L178.857 223.008C179.152 222.964 179.441 222.865 179.708 222.711L199.703 211.217C200.323 210.859 200.747 210.248 200.871 209.558Z" fill="url(#paint2_linear_1209_106740)"/>
</g>
<defs>
<filter id="filter0_d_1209_106740" x="62" y="65" width="288" height="288" filterUnits="userSpaceOnUse" color-interpolation-filters="sRGB">
<feFlood flood-opacity="0" result="BackgroundImageFix"/>
<feColorMatrix in="SourceAlpha" type="matrix" values="0 0 0 0 0 0 0 0 0 0 0 0 0 0 0 0 0 0 127 0" result="hardAlpha"/>
<feOffset dy="2"/>
<feGaussianBlur stdDeviation="8"/>
<feColorMatrix type="matrix" values="0 0 0 0 0 0 0 0 0 0 0 0 0 0 0 0 0 0 0.36 0"/>
<feBlend mode="normal" in2="BackgroundImageFix" result="effect1_dropShadow_1209_106740"/>
<feBlend mode="normal" in="SourceGraphic" in2="effect1_dropShadow_1209_106740" result="shape"/>
</filter>
<linearGradient id="paint0_linear_1209_106740" x1="186.637" y1="181.125" x2="168.706" y2="217.88" gradientUnits="userSpaceOnUse">
<stop stop-color="#3F873F"/>
<stop offset="0.3296" stop-color="#3F8B3D"/>
<stop offset="0.6367" stop-color="#3E9638"/>
<stop offset="0.9341" stop-color="#3DA92E"/>
<stop offset="1" stop-color="#3DAE2B"/>
</linearGradient>
<linearGradient id="paint1_linear_1209_106740" x1="175.46" y1="200.325" x2="225.991" y2="162.811" gradientUnits="userSpaceOnUse">
<stop offset="0.1376" stop-color="#3F873F"/>
<stop offset="0.4016" stop-color="#52A044"/>
<stop offset="0.7129" stop-color="#64B749"/>
<stop offset="0.9081" stop-color="#6ABF4B"/>
</linearGradient>
<linearGradient id="paint2_linear_1209_106740" x1="155.382" y1="197.632" x2="201.627" y2="197.632" gradientUnits="userSpaceOnUse">
<stop offset="0.0919" stop-color="#6ABF4B"/>
<stop offset="0.2871" stop-color="#64B749"/>
<stop offset="0.5984" stop-color="#52A044"/>
<stop offset="0.8624" stop-color="#3F873F"/>
</linearGradient>
<clipPath id="clip0_1209_106740">
<rect width="210" height="128" fill="white" transform="translate(101 143)"/>
</clipPath>
</defs>
</svg>