<svg width="412" height="342" viewBox="0 0 412 342" fill="none" xmlns="http://www.w3.org/2000/svg">
<path d="M0 4C0 1.79086 1.79086 0 4 0H408C410.209 0 412 1.79086 412 4V31H0V4Z" fill="#3C3C3C"/>
<rect width="412" height="311" transform="translate(0 31)" fill="#1E1E1E"/>
<rect width="411" height="39" transform="translate(1 31)" fill="#252526"/>
<rect width="103" height="39" transform="translate(1 31)" fill="#1E1E1E"/>
<rect x="14.4746" y="46.57" width="76.0516" height="7.85995" rx="3.92998" fill="white" fill-opacity="0.12"/>
<path d="M0.791992 316.098H411.207V338.098C411.207 340.308 409.417 342.098 407.207 342.098H4.792C2.58287 342.098 0.791992 340.308 0.791992 338.098V316.098Z" fill="#3794FF"/>
<rect x="8.68457" y="326.691" width="29.9919" height="6.74072" rx="3.37036" fill="white" fill-opacity="0.75"/>
<rect x="44.9912" y="326.691" width="11.0496" height="6.74075" rx="3.37038" fill="white" fill-opacity="0.75"/>
<g filter="url(#filter0_d_0_1)">
<rect width="352" height="204" transform="translate(30 47)" fill="#252526"/>
<rect x="37.5" y="54.5" width="337" height="25" fill="#3C3C3C"/>
<path d="M43.168 70.3242V71.708L49.4648 68.9595V67.7598L43.168 65.0239V66.4204L47.8779 68.3691V68.4326L43.168 70.3242ZM54.5366 72V64.0654H57.4121V62.8403H50.2329V64.0654H53.1147V72H54.5366ZM62.2871 70.1528C62.0332 70.7114 61.4683 71.0161 60.6431 71.0161C59.5513 71.0161 58.8467 70.229 58.8022 68.9785V68.915H63.6836V68.4453C63.6836 66.2871 62.522 64.9731 60.5986 64.9731C58.6499 64.9731 57.4121 66.376 57.4121 68.5659C57.4121 70.7686 58.6245 72.1333 60.605 72.1333C62.1855 72.1333 63.3027 71.3716 63.6011 70.1528H62.2871ZM60.5923 66.084C61.6016 66.084 62.2617 66.814 62.2935 67.9312H58.8022C58.8784 66.8203 59.583 66.084 60.5923 66.084ZM67.2319 72.1143C68.1396 72.1143 68.895 71.7207 69.3076 71.0225H69.4155V72H70.7295V67.2837C70.7295 65.8364 69.752 64.9731 68.019 64.9731C66.4512 64.9731 65.334 65.7285 65.1943 66.8901H66.5146C66.667 66.3887 67.1938 66.103 67.9556 66.103C68.8887 66.103 69.3711 66.5283 69.3711 67.2837V67.8867L67.4985 68.001C65.8545 68.1025 64.9277 68.8198 64.9277 70.0576C64.9277 71.3145 65.8989 72.1143 67.2319 72.1143ZM67.5811 71.0161C66.8384 71.0161 66.2988 70.6416 66.2988 70.0005C66.2988 69.3721 66.7305 69.0356 67.6826 68.9722L69.3711 68.8579V69.4546C69.3711 70.3433 68.6094 71.0161 67.5811 71.0161ZM72.6719 72H74.0366V67.7661C74.0366 66.8647 74.665 66.1602 75.4966 66.1602C76.3091 66.1602 76.8296 66.6489 76.8296 67.436V72H78.1689V67.6392C78.1689 66.8076 78.7466 66.1602 79.6289 66.1602C80.5239 66.1602 80.9683 66.6235 80.9683 67.5757V72H82.333V67.2456C82.333 65.811 81.5205 64.9731 80.124 64.9731C79.1655 64.9731 78.3721 65.4619 78.0229 66.2046H77.915C77.6104 65.4619 76.9565 64.9731 76.0107 64.9731C75.0903 64.9731 74.3921 65.4302 74.0874 66.2046H73.9858V65.1064H72.6719V72ZM84.0913 67.0361C84.0913 68.0581 84.7007 68.6421 86.0146 68.9468L87.2207 69.2324C87.9126 69.3975 88.2363 69.6768 88.2363 70.1084C88.2363 70.6733 87.6333 71.0669 86.7827 71.0669C85.9575 71.0669 85.4497 70.7305 85.2783 70.1909H83.9136C84.0342 71.3906 85.1069 72.1333 86.751 72.1333C88.4014 72.1333 89.6138 71.2637 89.6138 69.9814C89.6138 68.9785 88.998 68.4136 87.6841 68.1089L86.5352 67.8423C85.7861 67.6646 85.437 67.3979 85.437 66.9727C85.437 66.4141 86.0146 66.0396 86.7764 66.0396C87.5508 66.0396 88.0459 66.376 88.1729 66.8901H89.4805C89.3472 65.6968 88.3315 64.9731 86.7764 64.9731C85.2148 64.9731 84.0913 65.8364 84.0913 67.0361Z" fill="#E3E3E3"/>
<rect x="37.5" y="54.5" width="337" height="25" stroke="#007FD4"/>
<rect width="352" height="24" transform="translate(30 87)" fill="#062F4A"/>
<path d="M46.894 104V96.0654H49.7695V94.8403H42.5903V96.0654H45.4722V104H46.894ZM54.6445 102.153C54.3906 102.711 53.8257 103.016 53.0005 103.016C51.9087 103.016 51.2041 102.229 51.1597 100.979V100.915H56.041V100.445C56.041 98.2871 54.8794 96.9731 52.9561 96.9731C51.0073 96.9731 49.7695 98.376 49.7695 100.566C49.7695 102.769 50.9819 104.133 52.9624 104.133C54.543 104.133 55.6602 103.372 55.9585 102.153H54.6445ZM52.9497 98.084C53.959 98.084 54.6191 98.814 54.6509 99.9312H51.1597C51.2358 98.8203 51.9404 98.084 52.9497 98.084ZM59.5894 104.114C60.4971 104.114 61.2524 103.721 61.665 103.022H61.7729V104H63.0869V99.2837C63.0869 97.8364 62.1094 96.9731 60.3765 96.9731C58.8086 96.9731 57.6914 97.7285 57.5518 98.8901H58.8721C59.0244 98.3887 59.5513 98.103 60.313 98.103C61.2461 98.103 61.7285 98.5283 61.7285 99.2837V99.8867L59.856 100.001C58.2119 100.103 57.2852 100.82 57.2852 102.058C57.2852 103.314 58.2563 104.114 59.5894 104.114ZM59.9385 103.016C59.1958 103.016 58.6562 102.642 58.6562 102C58.6562 101.372 59.0879 101.036 60.04 100.972L61.7285 100.858V101.455C61.7285 102.343 60.9668 103.016 59.9385 103.016ZM65.0293 104H66.394V99.7661C66.394 98.8647 67.0225 98.1602 67.854 98.1602C68.6665 98.1602 69.187 98.6489 69.187 99.436V104H70.5264V99.6392C70.5264 98.8076 71.104 98.1602 71.9863 98.1602C72.8813 98.1602 73.3257 98.6235 73.3257 99.5757V104H74.6904V99.2456C74.6904 97.811 73.8779 96.9731 72.4814 96.9731C71.5229 96.9731 70.7295 97.4619 70.3804 98.2046H70.2725C69.9678 97.4619 69.314 96.9731 68.3682 96.9731C67.4478 96.9731 66.7495 97.4302 66.4448 98.2046H66.3433V97.1064H65.0293V104ZM76.4487 99.0361C76.4487 100.058 77.0581 100.642 78.3721 100.947L79.5781 101.232C80.27 101.397 80.5938 101.677 80.5938 102.108C80.5938 102.673 79.9907 103.067 79.1401 103.067C78.3149 103.067 77.8071 102.73 77.6357 102.191H76.271C76.3916 103.391 77.4644 104.133 79.1084 104.133C80.7588 104.133 81.9712 103.264 81.9712 101.981C81.9712 100.979 81.3555 100.414 80.0415 100.109L78.8926 99.8423C78.1436 99.6646 77.7944 99.3979 77.7944 98.9727C77.7944 98.4141 78.3721 98.0396 79.1338 98.0396C79.9082 98.0396 80.4033 98.376 80.5303 98.8901H81.8379C81.7046 97.6968 80.689 96.9731 79.1338 96.9731C77.5723 96.9731 76.4487 97.8364 76.4487 99.0361Z" fill="#3794FF"/>
<path d="M84.6753 99.3281C85.2148 99.3281 85.6084 98.9282 85.6084 98.4141C85.6084 97.8999 85.2148 97.5 84.6753 97.5C84.1421 97.5 83.7422 97.8999 83.7422 98.4141C83.7422 98.9282 84.1421 99.3281 84.6753 99.3281ZM84.6753 104.095C85.2148 104.095 85.6084 103.695 85.6084 103.181C85.6084 102.667 85.2148 102.267 84.6753 102.267C84.1421 102.267 83.7422 102.667 83.7422 103.181C83.7422 103.695 84.1421 104.095 84.6753 104.095ZM95.187 104.222C97.231 104.222 98.7354 103.048 98.9893 101.264H97.5737C97.3198 102.305 96.3994 102.959 95.187 102.959C93.5366 102.959 92.5083 101.601 92.5083 99.4233C92.5083 97.2461 93.5366 95.8813 95.1807 95.8813C96.3867 95.8813 97.3071 96.605 97.5737 97.7412H98.9893C98.7607 95.9067 97.1992 94.6182 95.1807 94.6182C92.6353 94.6182 91.0547 96.459 91.0547 99.4233C91.0547 102.381 92.6416 104.222 95.187 104.222ZM100.703 104H102.068V99.8804C102.068 98.9092 102.798 98.2427 103.833 98.2427C104.074 98.2427 104.48 98.2871 104.594 98.3188V97.0366C104.448 97.0049 104.188 96.9858 103.985 96.9858C103.083 96.9858 102.315 97.4746 102.119 98.1538H102.017V97.1064H100.703V104ZM110.263 102.153C110.009 102.711 109.444 103.016 108.619 103.016C107.527 103.016 106.822 102.229 106.778 100.979V100.915H111.659V100.445C111.659 98.2871 110.498 96.9731 108.574 96.9731C106.625 96.9731 105.388 98.376 105.388 100.566C105.388 102.769 106.6 104.133 108.581 104.133C110.161 104.133 111.278 103.372 111.577 102.153H110.263ZM108.568 98.084C109.577 98.084 110.237 98.814 110.269 99.9312H106.778C106.854 98.8203 107.559 98.084 108.568 98.084ZM115.208 104.114C116.115 104.114 116.871 103.721 117.283 103.022H117.391V104H118.705V99.2837C118.705 97.8364 117.728 96.9731 115.995 96.9731C114.427 96.9731 113.31 97.7285 113.17 98.8901H114.49C114.643 98.3887 115.169 98.103 115.931 98.103C116.864 98.103 117.347 98.5283 117.347 99.2837V99.8867L115.474 100.001C113.83 100.103 112.903 100.82 112.903 102.058C112.903 103.314 113.875 104.114 115.208 104.114ZM115.557 103.016C114.814 103.016 114.274 102.642 114.274 102C114.274 101.372 114.706 101.036 115.658 100.972L117.347 100.858V101.455C117.347 102.343 116.585 103.016 115.557 103.016ZM121.13 95.3672V97.1255H120.032V98.2173H121.13V102.185C121.13 103.511 121.733 104.044 123.25 104.044C123.517 104.044 123.771 104.013 123.993 103.975V102.889C123.802 102.908 123.682 102.921 123.472 102.921C122.793 102.921 122.495 102.597 122.495 101.854V98.2173H123.993V97.1255H122.495V95.3672H121.13ZM130.055 102.153C129.801 102.711 129.236 103.016 128.411 103.016C127.319 103.016 126.614 102.229 126.57 100.979V100.915H131.451V100.445C131.451 98.2871 130.29 96.9731 128.366 96.9731C126.417 96.9731 125.18 98.376 125.18 100.566C125.18 102.769 126.392 104.133 128.373 104.133C129.953 104.133 131.07 103.372 131.369 102.153H130.055ZM128.36 98.084C129.369 98.084 130.029 98.814 130.061 99.9312H126.57C126.646 98.8203 127.351 98.084 128.36 98.084ZM138.554 104.114C139.462 104.114 140.217 103.721 140.63 103.022H140.738V104H142.052V99.2837C142.052 97.8364 141.074 96.9731 139.341 96.9731C137.773 96.9731 136.656 97.7285 136.517 98.8901H137.837C137.989 98.3887 138.516 98.103 139.278 98.103C140.211 98.103 140.693 98.5283 140.693 99.2837V99.8867L138.821 100.001C137.177 100.103 136.25 100.82 136.25 102.058C136.25 103.314 137.221 104.114 138.554 104.114ZM138.903 103.016C138.161 103.016 137.621 102.642 137.621 102C137.621 101.372 138.053 101.036 139.005 100.972L140.693 100.858V101.455C140.693 102.343 139.932 103.016 138.903 103.016ZM147.549 104H148.914V99.9565C148.914 98.8457 149.555 98.1602 150.564 98.1602C151.573 98.1602 152.056 98.7188 152.056 99.8613V104H153.42V99.5376C153.42 97.8936 152.57 96.9731 151.027 96.9731C149.986 96.9731 149.301 97.4365 148.964 98.1982H148.863V97.1064H147.549V104ZM159.876 102.153C159.622 102.711 159.057 103.016 158.232 103.016C157.14 103.016 156.436 102.229 156.391 100.979V100.915H161.272V100.445C161.272 98.2871 160.111 96.9731 158.188 96.9731C156.239 96.9731 155.001 98.376 155.001 100.566C155.001 102.769 156.213 104.133 158.194 104.133C159.774 104.133 160.892 103.372 161.19 102.153H159.876ZM158.181 98.084C159.19 98.084 159.851 98.814 159.882 99.9312H156.391C156.467 98.8203 157.172 98.084 158.181 98.084ZM171.86 97.1064H170.496L169.264 102.426H169.156L167.734 97.1064H166.427L165.005 102.426H164.903L163.666 97.1064H162.282L164.186 104H165.589L167.011 98.8584H167.119L168.547 104H169.962L171.86 97.1064ZM180.728 104V96.0654H183.604V94.8403H176.424V96.0654H179.306V104H180.728ZM188.479 102.153C188.225 102.711 187.66 103.016 186.834 103.016C185.743 103.016 185.038 102.229 184.994 100.979V100.915H189.875V100.445C189.875 98.2871 188.713 96.9731 186.79 96.9731C184.841 96.9731 183.604 98.376 183.604 100.566C183.604 102.769 184.816 104.133 186.796 104.133C188.377 104.133 189.494 103.372 189.792 102.153H188.479ZM186.784 98.084C187.793 98.084 188.453 98.814 188.485 99.9312H184.994C185.07 98.8203 185.774 98.084 186.784 98.084ZM193.423 104.114C194.331 104.114 195.086 103.721 195.499 103.022H195.607V104H196.921V99.2837C196.921 97.8364 195.943 96.9731 194.21 96.9731C192.643 96.9731 191.525 97.7285 191.386 98.8901H192.706C192.858 98.3887 193.385 98.103 194.147 98.103C195.08 98.103 195.562 98.5283 195.562 99.2837V99.8867L193.69 100.001C192.046 100.103 191.119 100.82 191.119 102.058C191.119 103.314 192.09 104.114 193.423 104.114ZM193.772 103.016C193.03 103.016 192.49 102.642 192.49 102C192.49 101.372 192.922 101.036 193.874 100.972L195.562 100.858V101.455C195.562 102.343 194.801 103.016 193.772 103.016ZM198.863 104H200.228V99.7661C200.228 98.8647 200.856 98.1602 201.688 98.1602C202.5 98.1602 203.021 98.6489 203.021 99.436V104H204.36V99.6392C204.36 98.8076 204.938 98.1602 205.82 98.1602C206.715 98.1602 207.16 98.6235 207.16 99.5757V104H208.524V99.2456C208.524 97.811 207.712 96.9731 206.315 96.9731C205.357 96.9731 204.563 97.4619 204.214 98.2046H204.106C203.802 97.4619 203.148 96.9731 202.202 96.9731C201.282 96.9731 200.583 97.4302 200.279 98.2046H200.177V97.1064H198.863V104ZM210.283 99.0361C210.283 100.058 210.892 100.642 212.206 100.947L213.412 101.232C214.104 101.397 214.428 101.677 214.428 102.108C214.428 102.673 213.825 103.067 212.974 103.067C212.149 103.067 211.641 102.73 211.47 102.191H210.105C210.226 103.391 211.298 104.133 212.942 104.133C214.593 104.133 215.805 103.264 215.805 101.981C215.805 100.979 215.189 100.414 213.875 100.109L212.727 99.8423C211.978 99.6646 211.628 99.3979 211.628 98.9727C211.628 98.4141 212.206 98.0396 212.968 98.0396C213.742 98.0396 214.237 98.376 214.364 98.8901H215.672C215.539 97.6968 214.523 96.9731 212.968 96.9731C211.406 96.9731 210.283 97.8364 210.283 99.0361ZM222.915 104.114C223.822 104.114 224.578 103.721 224.99 103.022H225.098V104H226.412V99.2837C226.412 97.8364 225.435 96.9731 223.702 96.9731C222.134 96.9731 221.017 97.7285 220.877 98.8901H222.197C222.35 98.3887 222.876 98.103 223.638 98.103C224.571 98.103 225.054 98.5283 225.054 99.2837V99.8867L223.181 100.001C221.537 100.103 220.61 100.82 220.61 102.058C220.61 103.314 221.582 104.114 222.915 104.114ZM223.264 103.016C222.521 103.016 221.981 102.642 221.981 102C221.981 101.372 222.413 101.036 223.365 100.972L225.054 100.858V101.455C225.054 102.343 224.292 103.016 223.264 103.016ZM231.941 96.9858C231.001 96.9858 230.189 97.4619 229.77 98.249H229.668V97.1064H228.354V106.298H229.719V102.959H229.827C230.189 103.689 230.97 104.114 231.954 104.114C233.699 104.114 234.81 102.73 234.81 100.553C234.81 98.3633 233.699 96.9858 231.941 96.9858ZM231.554 102.946C230.411 102.946 229.694 102.026 229.694 100.553C229.694 99.0742 230.411 98.1538 231.56 98.1538C232.715 98.1538 233.407 99.0552 233.407 100.553C233.407 102.051 232.715 102.946 231.554 102.946ZM240.041 96.9858C239.101 96.9858 238.289 97.4619 237.87 98.249H237.768V97.1064H236.454V106.298H237.819V102.959H237.927C238.289 103.689 239.069 104.114 240.053 104.114C241.799 104.114 242.91 102.73 242.91 100.553C242.91 98.3633 241.799 96.9858 240.041 96.9858ZM239.653 102.946C238.511 102.946 237.793 102.026 237.793 100.553C237.793 99.0742 238.511 98.1538 239.66 98.1538C240.815 98.1538 241.507 99.0552 241.507 100.553C241.507 102.051 240.815 102.946 239.653 102.946Z" fill="#E3E3E3"/>
<rect x="75" y="121" width="38" height="6" rx="3" fill="white" fill-opacity="0.16"/>
<rect x="117" y="121" width="105" height="6" rx="3" fill="white" fill-opacity="0.16"/>
<rect x="42" y="120.901" width="30" height="6" rx="3" fill="#3794FF" fill-opacity="0.6"/>
<rect x="42" y="143" width="30" height="6" rx="3" fill="#3794FF" fill-opacity="0.6"/>
<rect x="76" y="143" width="62" height="6" rx="3" fill="white" fill-opacity="0.16"/>
<rect x="142" y="143" width="62" height="6" rx="3" fill="white" fill-opacity="0.16"/>
<rect x="42" y="165" width="30" height="6" rx="3" fill="#3794FF" fill-opacity="0.6"/>
<rect x="76" y="165" width="41" height="6" rx="3" fill="white" fill-opacity="0.16"/>
<rect x="121" y="165" width="65" height="6" rx="3" fill="white" fill-opacity="0.16"/>
<rect x="42" y="187" width="30" height="6" rx="3" fill="#3794FF" fill-opacity="0.6"/>
<rect x="76" y="187" width="160" height="6" rx="3" fill="white" fill-opacity="0.16"/>
<rect x="42" y="209" width="30" height="6" rx="3" fill="#3794FF" fill-opacity="0.6"/>
<rect x="76" y="209" width="45.5" height="6" rx="3" fill="white" fill-opacity="0.16"/>
<rect x="125.5" y="209" width="45.5" height="6" rx="3" fill="white" fill-opacity="0.16"/>
<rect x="42" y="231" width="30" height="6" rx="3" fill="#3794FF" fill-opacity="0.6"/>
<rect x="76" y="231" width="83" height="6" rx="3" fill="white" fill-opacity="0.16"/>
<rect x="163" y="231" width="98" height="6" rx="3" fill="white" fill-opacity="0.16"/>
</g>
<g filter="url(#filter1_d_0_1)">
<path d="M249.27 114.28C248.99 113.92 248.64 113.19 248.03 112.28C247.68 111.78 246.82 110.83 246.56 110.34C246.372 110.042 246.318 109.68 246.41 109.34C246.567 108.694 247.179 108.266 247.84 108.34C248.351 108.443 248.82 108.693 249.19 109.06C249.448 109.303 249.686 109.567 249.9 109.85C250.06 110.05 250.1 110.13 250.28 110.36C250.46 110.59 250.58 110.82 250.49 110.48C250.42 109.98 250.3 109.14 250.13 108.39C250 107.82 249.97 107.73 249.85 107.3C249.73 106.87 249.66 106.51 249.53 106.02C249.411 105.539 249.318 105.051 249.25 104.56C249.124 103.932 249.216 103.279 249.51 102.71C249.859 102.381 250.372 102.295 250.81 102.49C251.25 102.815 251.579 103.27 251.75 103.79C252.012 104.43 252.187 105.103 252.27 105.79C252.43 106.79 252.74 108.25 252.75 108.55C252.75 108.18 252.68 107.4 252.75 107.05C252.819 106.685 253.073 106.382 253.42 106.25C253.718 106.159 254.033 106.138 254.34 106.19C254.65 106.255 254.925 106.433 255.11 106.69C255.342 107.273 255.47 107.893 255.49 108.52C255.517 107.971 255.611 107.427 255.77 106.9C255.937 106.665 256.181 106.495 256.46 106.42C256.79 106.36 257.129 106.36 257.46 106.42C257.731 106.511 257.968 106.682 258.14 106.91C258.352 107.44 258.48 108 258.52 108.57C258.52 108.71 258.59 108.18 258.81 107.83C258.924 107.491 259.211 107.238 259.562 107.167C259.913 107.097 260.275 107.219 260.512 107.487C260.749 107.756 260.824 108.131 260.71 108.47C260.71 109.12 260.71 109.09 260.71 109.53C260.71 109.97 260.71 110.36 260.71 110.73C260.673 111.315 260.593 111.897 260.47 112.47C260.296 112.977 260.054 113.458 259.75 113.9C259.264 114.44 258.863 115.05 258.56 115.71C258.485 116.038 258.451 116.374 258.46 116.71C258.459 117.021 258.499 117.33 258.58 117.63C258.171 117.673 257.759 117.673 257.35 117.63C256.96 117.57 256.48 116.79 256.35 116.55C256.286 116.421 256.154 116.34 256.01 116.34C255.866 116.34 255.734 116.421 255.67 116.55C255.45 116.93 254.96 117.62 254.62 117.66C253.95 117.74 252.57 117.66 251.48 117.66C251.48 117.66 251.66 116.66 251.25 116.3C250.84 115.94 250.42 115.52 250.11 115.24L249.27 114.28Z" fill="white"/>
<path fill-rule="evenodd" clip-rule="evenodd" d="M261.084 110.753C261.085 110.165 261.085 110.165 261.085 109.53V108.527C261.212 108.077 261.104 107.592 260.793 107.239C260.468 106.87 259.97 106.703 259.488 106.8C259.159 106.866 258.871 107.048 258.672 107.305C258.619 107.124 258.558 106.946 258.488 106.771C258.222 106.395 257.922 106.179 257.579 106.064C257.152 105.983 256.767 105.983 256.392 106.051C256.017 106.151 255.71 106.357 255.493 106.643C255.482 106.612 255.47 106.582 255.458 106.552C255.174 106.138 254.818 105.907 254.416 105.823C254.037 105.759 253.663 105.783 253.31 105.892C253.082 105.978 252.887 106.111 252.733 106.279C252.696 106.072 252.666 105.893 252.64 105.731C252.555 105.025 252.371 104.319 252.097 103.648C251.911 103.079 251.536 102.56 251.032 102.188C250.386 101.891 249.712 102.005 249.253 102.437L249.177 102.538C248.843 103.183 248.739 103.922 248.882 104.634C248.948 105.115 249.044 105.616 249.166 106.11C249.222 106.323 249.222 106.324 249.342 106.825L249.373 106.954C249.414 107.122 249.449 107.26 249.488 107.401C249.556 107.64 249.582 107.733 249.604 107.816L249.617 107.865C249.659 108.021 249.699 108.188 249.764 108.473C249.824 108.736 249.876 109.001 249.927 109.288C249.776 109.114 249.616 108.946 249.447 108.787C249.032 108.375 248.496 108.089 247.914 107.972C247.033 107.872 246.247 108.422 246.045 109.251C245.929 109.683 245.999 110.153 246.242 110.54C246.358 110.759 246.581 111.061 246.979 111.554L247.04 111.63C247.502 112.2 247.585 112.302 247.662 112.409C247.68 112.435 247.699 112.461 247.722 112.495C247.867 112.711 248.121 113.13 248.366 113.533C248.639 113.984 248.902 114.417 248.987 114.527L249.827 115.487C249.937 115.588 250.229 115.864 250.429 116.054C250.528 116.147 250.604 116.219 250.625 116.239C250.722 116.33 250.811 116.411 250.897 116.488C250.923 116.512 250.936 116.523 250.949 116.535C250.963 116.547 250.976 116.559 251.002 116.582C251.062 116.634 251.112 116.765 251.133 116.957C251.151 117.12 251.146 117.301 251.127 117.476C251.12 117.533 251.114 117.574 251.111 117.594C251.069 117.824 251.246 118.035 251.48 118.035C251.749 118.035 252.027 118.039 252.468 118.049L252.621 118.053C253.817 118.08 254.266 118.08 254.664 118.032C255.119 117.979 255.603 117.413 256.014 116.717C256.363 117.363 256.812 117.927 257.293 118.001C257.745 118.049 258.184 118.049 258.619 118.003C258.848 117.979 259.002 117.755 258.942 117.533C258.87 117.265 258.834 116.989 258.835 116.711C258.827 116.395 258.857 116.091 258.925 115.794C259.188 115.241 259.568 114.663 260.028 114.151C260.382 113.643 260.639 113.131 260.824 112.592C260.964 111.957 261.046 111.357 261.084 110.753ZM251.001 115.563C250.806 115.378 250.465 115.056 250.361 114.962L249.561 114.043C249.502 113.964 249.312 113.648 249.09 113.282C248.828 112.847 248.521 112.34 248.341 112.071C248.258 111.952 248.155 111.817 248.014 111.641C247.96 111.573 247.921 111.525 247.823 111.404L247.623 111.158L247.562 111.083C247.198 110.631 246.989 110.349 246.891 110.164C246.745 109.931 246.707 109.676 246.772 109.438C246.886 108.966 247.325 108.66 247.798 108.713C248.205 108.796 248.608 109.011 248.925 109.326C249.176 109.562 249.399 109.811 249.601 110.077C249.663 110.155 249.703 110.208 249.765 110.294C249.871 110.444 249.902 110.485 249.984 110.591C249.99 110.599 250.006 110.62 250.027 110.649C250.085 110.727 250.181 110.857 250.213 110.891C250.252 110.941 250.252 110.941 250.452 111.022C250.88 110.865 250.882 110.861 250.894 110.66C250.899 110.581 250.886 110.511 250.852 110.384C250.738 109.548 250.637 108.93 250.495 108.307C250.428 108.014 250.386 107.838 250.342 107.673L250.328 107.62C250.305 107.533 250.277 107.436 250.211 107.199C250.174 107.068 250.141 106.937 250.102 106.777L250.071 106.651C249.95 106.142 249.949 106.14 249.892 105.924C249.778 105.461 249.687 104.987 249.621 104.509C249.513 103.965 249.581 103.422 249.812 102.943C250.049 102.751 250.375 102.707 250.657 102.832C250.965 103.071 251.247 103.461 251.393 103.907C251.652 104.541 251.818 105.181 251.897 105.835C251.941 106.108 251.993 106.405 252.063 106.784L252.094 106.952C252.369 108.424 252.371 108.435 252.375 108.562C252.391 109.054 253.125 109.042 253.125 108.55C253.125 108.442 253.123 108.384 253.109 108.059C253.103 107.93 253.101 107.876 253.099 107.801C253.088 107.469 253.093 107.243 253.117 107.124C253.163 106.883 253.328 106.686 253.553 106.6C253.772 106.534 254.028 106.518 254.277 106.56C254.481 106.603 254.675 106.728 254.806 106.909C254.977 107.371 255.096 107.948 255.115 108.532C255.13 109.012 255.841 109.018 255.864 108.538C255.888 108.041 255.971 107.549 256.11 107.072C256.224 106.931 256.381 106.829 256.557 106.782C256.813 106.737 257.106 106.737 257.392 106.789C257.54 106.842 257.714 106.968 257.84 107.135C257.989 107.543 258.108 108.065 258.146 108.596C258.143 108.596 258.141 108.595 258.14 108.596C258.134 108.599 258.15 108.635 258.243 108.843C258.624 108.909 258.74 108.929 258.795 108.881C258.819 108.86 258.832 108.825 258.851 108.776L258.851 108.776C258.876 108.723 258.876 108.723 258.884 108.701C258.893 108.674 258.903 108.637 258.92 108.571C258.957 108.43 258.991 108.32 259.036 108.211C259.065 108.141 259.096 108.079 259.127 108.03C259.237 107.737 259.416 107.579 259.636 107.535C259.856 107.491 260.082 107.567 260.23 107.735C260.379 107.903 260.426 108.138 260.354 108.35L260.335 108.47V110.73C260.3 111.273 260.222 111.836 260.103 112.391C259.952 112.823 259.725 113.274 259.441 113.688C258.96 114.217 258.538 114.859 258.219 115.553C258.112 115.985 258.075 116.352 258.085 116.72C258.084 116.906 258.098 117.096 258.126 117.285C257.88 117.292 257.634 117.283 257.389 117.257C257.267 117.238 256.896 116.771 256.679 116.371C256.557 116.126 256.296 115.965 256.01 115.965C255.723 115.965 255.462 116.126 255.334 116.383C255.086 116.81 254.689 117.274 254.576 117.288C254.229 117.329 253.786 117.329 252.638 117.303L252.485 117.299C252.249 117.294 252.06 117.29 251.892 117.288C251.897 117.15 251.894 117.011 251.879 116.876C251.839 116.515 251.726 116.219 251.497 116.018C251.472 115.996 251.46 115.985 251.448 115.975C251.435 115.963 251.423 115.952 251.397 115.93C251.316 115.857 251.231 115.778 251.137 115.691C251.122 115.677 251.071 115.628 251.001 115.563Z" fill="black"/>
<path d="M257.75 114.826V111.374C257.75 111.167 257.582 111 257.375 111C257.168 111 257 111.167 257 111.374V114.826C257 115.033 257.168 115.2 257.375 115.2C257.582 115.2 257.75 115.033 257.75 114.826Z" fill="black"/>
<path d="M255.77 114.825L255.75 111.371C255.749 111.165 255.58 110.999 255.373 111C255.166 111.001 254.999 111.169 255 111.375L255.02 114.829C255.021 115.035 255.19 115.201 255.397 115.2C255.604 115.199 255.771 115.031 255.77 114.825Z" fill="black"/>
<path d="M253 111.379L253.02 114.825C253.021 115.033 253.19 115.201 253.397 115.2C253.604 115.199 253.771 115.029 253.77 114.821L253.75 111.375C253.749 111.167 253.58 110.999 253.373 111C253.166 111.001 252.999 111.171 253 111.379Z" fill="black"/>
</g>
<defs>
<filter id="filter0_d_0_1" x="14" y="33" width="384" height="236" filterUnits="userSpaceOnUse" color-interpolation-filters="sRGB">
<feFlood flood-opacity="0" result="BackgroundImageFix"/>
<feColorMatrix in="SourceAlpha" type="matrix" values="0 0 0 0 0 0 0 0 0 0 0 0 0 0 0 0 0 0 127 0" result="hardAlpha"/>
<feOffset dy="2"/>
<feGaussianBlur stdDeviation="8"/>
<feColorMatrix type="matrix" values="0 0 0 0 0 0 0 0 0 0 0 0 0 0 0 0 0 0 0.36 0"/>
<feBlend mode="normal" in2="BackgroundImageFix" result="effect1_dropShadow_0_1"/>
<feBlend mode="normal" in="SourceGraphic" in2="effect1_dropShadow_0_1" result="shape"/>
</filter>
<filter id="filter1_d_0_1" x="245.19" y="102.022" width="16.7465" height="17.849" filterUnits="userSpaceOnUse" color-interpolation-filters="sRGB">
<feFlood flood-opacity="0" result="BackgroundImageFix"/>
<feColorMatrix in="SourceAlpha" type="matrix" values="0 0 0 0 0 0 0 0 0 0 0 0 0 0 0 0 0 0 127 0" result="hardAlpha"/>
<feOffset dy="1"/>
<feGaussianBlur stdDeviation="0.4"/>
<feColorMatrix type="matrix" values="0 0 0 0 0 0 0 0 0 0 0 0 0 0 0 0 0 0 0.5 0"/>
<feBlend mode="normal" in2="BackgroundImageFix" result="effect1_dropShadow_0_1"/>
<feBlend mode="normal" in="SourceGraphic" in2="effect1_dropShadow_0_1" result="shape"/>
</filter>
</defs>
</svg>
