<svg width="412" height="415" viewBox="0 0 412 415" fill="none" xmlns="http://www.w3.org/2000/svg">
<rect y="274.44" width="27.9322" height="27.9322" rx="2" fill="#292929"/>
<rect x="38.4067" y="82.4072" width="27.9322" height="27.9322" rx="2" fill="#292929"/>
<rect x="38.4067" y="120.813" width="27.9322" height="27.9322" rx="2" fill="#292929"/>
<rect x="38.4067" y="159.221" width="27.9322" height="27.9322" rx="2" fill="#292929"/>
<rect x="38.4067" y="274.44" width="27.9322" height="27.9322" rx="2" fill="#292929"/>
<rect x="38.4067" y="312.848" width="27.9322" height="27.9322" rx="2" fill="#292929"/>
<rect x="76.8135" y="44" width="27.9322" height="27.9322" rx="2" fill="#292929"/>
<rect x="76.8135" y="82.4072" width="27.9322" height="27.9322" rx="2" fill="#292929"/>
<rect x="76.8135" y="159.221" width="27.9322" height="27.9322" rx="2" fill="#292929"/>
<rect x="76.8135" y="197.628" width="27.9322" height="27.9322" rx="2" fill="#292929"/>
<rect x="76.8135" y="236.033" width="27.9322" height="27.9322" rx="2" fill="#292929"/>
<rect x="76.8135" y="274.44" width="27.9322" height="27.9322" rx="2" fill="#292929"/>
<rect x="115.22" y="159.221" width="27.9322" height="27.9322" rx="2" fill="#292929"/>
<rect x="115.22" y="236.033" width="27.9322" height="27.9322" rx="2" fill="#292929"/>
<rect x="153.627" y="44" width="27.9322" height="27.9322" rx="2" fill="#292929"/>
<rect x="153.627" y="120.813" width="27.9322" height="27.9322" rx="2" fill="#292929"/>
<rect x="153.627" y="159.221" width="27.9322" height="27.9322" rx="2" fill="#292929"/>
<rect x="153.627" y="197.628" width="27.9322" height="27.9322" rx="2" fill="#292929"/>
<rect x="153.627" y="274.44" width="27.9322" height="27.9322" rx="2" fill="#292929"/>
<rect x="192.034" y="82.4072" width="27.9322" height="27.9322" rx="2" fill="#292929"/>
<rect x="192.034" y="351.254" width="27.9322" height="27.9322" rx="2" fill="#292929"/>
<rect x="230.441" y="120.813" width="27.9322" height="27.9322" rx="2" fill="#292929"/>
<rect x="230.441" y="159.221" width="27.9322" height="27.9322" rx="2" fill="#292929"/>
<rect x="230.441" y="274.44" width="27.9322" height="27.9322" rx="2" fill="#292929"/>
<rect x="230.441" y="236.033" width="27.9322" height="27.9322" rx="2" fill="#292929"/>
<rect x="192.034" y="236.033" width="27.9322" height="27.9322" rx="2" fill="#292929"/>
<rect x="230.441" y="312.848" width="27.9322" height="27.9322" rx="2" fill="#292929"/>
<rect x="230.441" y="351.254" width="27.9322" height="27.9322" rx="2" fill="#292929"/>
<rect x="268.848" y="82.4072" width="27.9322" height="27.9322" rx="2" fill="#292929"/>
<rect x="268.848" y="159.221" width="27.9322" height="27.9322" rx="2" fill="#292929"/>
<rect x="268.848" y="236.033" width="27.9322" height="27.9322" rx="2" fill="#292929"/>
<rect x="307.254" y="44" width="27.9322" height="27.9322" rx="2" fill="#292929"/>
<rect x="307.254" y="82.4072" width="27.9322" height="27.9322" rx="2" fill="#292929"/>
<rect x="307.254" y="159.221" width="27.9322" height="27.9322" rx="2" fill="#292929"/>
<rect x="307.254" y="197.628" width="27.9322" height="27.9322" rx="2" fill="#292929"/>
<rect x="307.254" y="312.848" width="27.9322" height="27.9322" rx="2" fill="#292929"/>
<rect x="307.254" y="351.254" width="27.9322" height="27.9322" rx="2" fill="#292929"/>
<rect x="345.661" y="44" width="27.9322" height="27.9322" rx="2" fill="#292929"/>
<rect x="345.661" y="236.033" width="27.9322" height="27.9322" rx="2" fill="#292929"/>
<rect x="345.661" y="274.44" width="27.9322" height="27.9322" rx="2" fill="#292929"/>
<rect x="345.661" y="312.848" width="27.9322" height="27.9322" rx="2" fill="#292929"/>
<rect x="384.068" y="162.712" width="27.9322" height="27.9322" rx="2" fill="#292929"/>
<g filter="url(#filter0_d_1209_106740)">
<rect x="78" y="79" width="256" height="256" rx="4" fill="white"/>
</g>
<g clip-path="url(#clip0_1209_106740)">
<path d="M204.797 271C204.104 271 203.415 270.82 202.808 270.471L196.475 266.743C195.53 266.219 195.991 266.03 196.304 265.921C197.567 265.486 197.818 265.387 199.167 264.627C199.309 264.546 199.494 264.579 199.637 264.664L204.502 267.537C204.678 267.636 204.93 267.636 205.091 267.537L224.056 256.642C224.232 256.543 224.345 256.34 224.345 256.132V234.352C224.345 234.14 224.232 233.941 224.051 233.832L205.096 222.947C204.92 222.843 204.687 222.843 204.512 222.947L185.561 233.837C185.376 233.941 185.262 234.149 185.262 234.352V256.132C185.262 256.34 185.381 256.538 185.561 256.637L190.755 259.623C193.574 261.027 195.298 259.373 195.298 257.715V236.209C195.298 235.906 195.544 235.666 195.848 235.666H198.255C198.554 235.666 198.806 235.906 198.806 236.209V257.715C198.806 261.456 196.755 263.606 193.19 263.606C192.093 263.606 191.229 263.606 188.822 262.425L183.847 259.576C182.618 258.867 181.858 257.549 181.858 256.132V234.352C181.858 232.935 182.618 231.617 183.847 230.913L202.812 220.009C204.013 219.333 205.608 219.333 206.8 220.009L225.765 230.913C226.994 231.621 227.759 232.94 227.759 234.352V256.132C227.759 257.549 226.994 258.863 225.765 259.576L206.8 270.471C206.188 270.82 205.499 271 204.797 271Z" fill="#679E63"/>
<path d="M210.655 255.99C202.357 255.99 200.619 252.201 200.619 249.017C200.619 248.715 200.861 248.474 201.165 248.474H203.615C203.89 248.474 204.118 248.667 204.161 248.937C204.531 251.422 205.632 252.674 210.655 252.674C214.652 252.674 216.351 251.776 216.351 249.664C216.351 248.45 215.867 247.548 209.658 246.938C204.469 246.428 201.26 245.285 201.26 241.156C201.26 237.348 204.483 235.075 209.895 235.075C215.971 235.075 218.976 237.173 219.356 241.675C219.37 241.831 219.313 241.978 219.209 242.096C219.105 242.204 218.962 242.271 218.806 242.271H216.346C216.09 242.271 215.867 242.091 215.815 241.845C215.226 239.233 213.788 238.396 209.89 238.396C205.528 238.396 205.02 239.908 205.02 241.042C205.02 242.417 205.618 242.814 211.509 243.589C217.339 244.354 220.106 245.441 220.106 249.518C220.106 253.638 216.665 255.99 210.655 255.99Z" fill="#679E63"/>
<path d="M237.998 233.148C237.998 235.151 236.356 236.785 234.343 236.785C232.349 236.785 230.688 235.17 230.688 233.148C230.688 231.088 232.392 229.51 234.343 229.51C236.318 229.51 237.998 231.088 237.998 233.148ZM231.281 233.138C231.281 234.834 232.653 236.2 234.338 236.2C236.042 236.2 237.414 234.806 237.414 233.138C237.414 231.447 236.023 230.096 234.338 230.096C232.672 230.1 231.281 231.428 231.281 233.138ZM232.971 231.107H234.386C234.87 231.107 235.819 231.107 235.819 232.184C235.819 232.935 235.335 233.086 235.045 233.185C235.606 233.223 235.644 233.592 235.724 234.111C235.762 234.437 235.824 234.995 235.938 235.189H235.069C235.05 234.995 234.912 233.955 234.912 233.899C234.856 233.667 234.775 233.554 234.485 233.554H233.768V235.189H232.971V231.107ZM233.745 232.897H234.381C234.903 232.897 234.998 232.533 234.998 232.321C234.998 231.763 234.609 231.763 234.4 231.763H233.745V232.897Z" fill="#679E63"/>
<path fill-rule="evenodd" clip-rule="evenodd" d="M146.07 185.78C146.07 184.911 145.609 184.112 144.854 183.678L124.745 172.164C124.403 171.966 124.024 171.862 123.639 171.848C123.606 171.848 123.459 171.848 123.43 171.848C123.046 171.862 122.666 171.966 122.319 172.164L102.215 183.678C101.465 184.112 101 184.911 101 185.78L101.043 216.792C101.043 217.221 101.266 217.623 101.65 217.836C102.025 218.058 102.486 218.058 102.856 217.836L114.805 211.028C115.56 210.579 116.02 209.795 116.02 208.93V194.445C116.02 193.58 116.48 192.782 117.231 192.352L122.319 189.437C122.699 189.22 123.112 189.111 123.535 189.111C123.948 189.111 124.375 189.22 124.741 189.437L129.825 192.352C130.58 192.782 131.04 193.58 131.04 194.445V208.93C131.04 209.79 131.505 210.584 132.255 211.028L144.199 217.836C144.574 218.058 145.039 218.058 145.414 217.836C145.785 217.623 146.017 217.221 146.017 216.792L146.07 185.78Z" fill="#333333"/>
<path fill-rule="evenodd" clip-rule="evenodd" d="M242.812 143.151C242.437 142.944 241.977 142.948 241.606 143.166C241.236 143.383 241.008 143.78 241.008 144.21V174.919C241.008 175.221 240.847 175.5 240.586 175.651C240.324 175.802 239.997 175.802 239.736 175.651L234.699 172.764C233.949 172.335 233.023 172.335 232.273 172.764L212.16 184.316C211.41 184.746 210.944 185.544 210.944 186.409V209.521C210.944 210.385 211.41 211.184 212.16 211.614L232.273 223.174C233.023 223.604 233.949 223.604 234.704 223.174L254.822 211.614C255.572 211.179 256.038 210.385 256.038 209.521V151.911C256.038 151.037 255.563 150.229 254.794 149.799L242.812 143.151ZM240.946 201.929C240.946 202.146 240.832 202.344 240.643 202.453L233.735 206.417C233.55 206.525 233.318 206.525 233.128 206.417L226.221 202.453C226.031 202.344 225.917 202.146 225.917 201.929V193.991C225.917 193.774 226.031 193.576 226.221 193.467L233.128 189.498C233.318 189.39 233.546 189.39 233.735 189.498L240.643 193.467C240.828 193.576 240.946 193.774 240.946 193.991V201.929Z" fill="#333333"/>
<path fill-rule="evenodd" clip-rule="evenodd" d="M309.794 193.784C310.544 193.349 311.005 192.555 311.005 191.695V186.092C311.005 185.232 310.544 184.434 309.794 183.999L289.809 172.453C289.059 172.018 288.128 172.018 287.374 172.448L267.265 183.999C266.515 184.429 266.049 185.228 266.049 186.092V209.195C266.049 210.064 266.519 210.867 267.274 211.297L287.255 222.631C287.991 223.052 288.893 223.056 289.638 222.645L301.724 215.96C302.109 215.748 302.346 215.346 302.351 214.911C302.356 214.477 302.123 214.07 301.743 213.853L281.506 202.297C281.126 202.08 280.894 201.683 280.894 201.248V194.006C280.894 193.576 281.126 193.174 281.501 192.957L287.801 189.343C288.176 189.125 288.636 189.125 289.011 189.343L295.311 192.957C295.686 193.174 295.918 193.571 295.918 194.006V199.703C295.918 200.138 296.151 200.535 296.526 200.752C296.901 200.969 297.366 200.965 297.741 200.747L309.794 193.784Z" fill="#333333"/>
<path fill-rule="evenodd" clip-rule="evenodd" d="M288.294 192.701C288.437 192.616 288.617 192.616 288.76 192.701L292.619 194.917C292.761 195.002 292.852 195.153 292.852 195.319V199.755C292.852 199.92 292.761 200.072 292.619 200.157L288.76 202.372C288.617 202.458 288.437 202.458 288.294 202.372L284.44 200.157C284.297 200.072 284.207 199.92 284.207 199.755V195.319C284.207 195.153 284.297 195.002 284.44 194.917L288.294 192.701Z" fill="#679E63"/>
<path d="M179.713 172.571C178.968 172.142 178.047 172.142 177.297 172.571L157.297 184.057C156.547 184.487 156.086 185.28 156.086 186.14V209.134C156.086 209.994 156.547 210.788 157.292 211.218L177.292 222.712C178.042 223.142 178.963 223.142 179.708 222.712L199.703 211.218C200.449 210.788 200.909 209.994 200.909 209.134V186.14C200.909 185.28 200.449 184.487 199.699 184.057L179.713 172.571Z" fill="url(#paint0_linear_1209_106740)"/>
<path d="M199.751 184.057L179.694 172.572C179.495 172.458 179.286 172.378 179.067 172.321L156.547 210.66C156.742 210.878 156.969 211.067 157.221 211.213L177.311 222.708C177.881 223.034 178.555 223.109 179.177 222.939L200.287 184.463C200.131 184.312 199.95 184.17 199.751 184.057Z" fill="url(#paint1_linear_1209_106740)"/>
<path d="M176.632 168.348L176.356 168.504H176.722L176.632 168.348Z" fill="url(#paint2_linear_1209_106740)"/>
<path d="M199.765 211.218C200.348 210.882 200.78 210.325 200.947 209.687L178.958 172.302C178.383 172.189 177.776 172.274 177.258 172.571L157.334 183.991L178.858 223.01C179.167 222.967 179.466 222.868 179.741 222.712L199.765 211.218Z" fill="url(#paint3_linear_1209_106740)"/>
<path d="M201.626 210.844L201.493 210.622V210.92L201.626 210.844Z" fill="url(#paint4_linear_1209_106740)"/>
<path d="M199.765 211.217L179.741 222.712C179.466 222.868 179.167 222.967 178.858 223.009L179.257 223.732L201.498 210.919V210.617L200.947 209.682C200.781 210.319 200.344 210.882 199.765 211.217Z" fill="url(#paint5_linear_1209_106740)"/>
<path d="M199.765 211.217L179.741 222.712C179.466 222.868 179.167 222.967 178.858 223.009L179.257 223.732L201.498 210.919V210.617L200.947 209.682C200.781 210.319 200.344 210.882 199.765 211.217Z" fill="url(#paint6_linear_1209_106740)"/>
</g>
<defs>
<filter id="filter0_d_1209_106740" x="66" y="69" width="280" height="280" filterUnits="userSpaceOnUse" color-interpolation-filters="sRGB">
<feFlood flood-opacity="0" result="BackgroundImageFix"/>
<feColorMatrix in="SourceAlpha" type="matrix" values="0 0 0 0 0 0 0 0 0 0 0 0 0 0 0 0 0 0 127 0" result="hardAlpha"/>
<feOffset dy="2"/>
<feGaussianBlur stdDeviation="6"/>
<feColorMatrix type="matrix" values="0 0 0 0 0 0 0 0 0 0 0 0 0 0 0 0 0 0 0.6 0"/>
<feBlend mode="normal" in2="BackgroundImageFix" result="effect1_dropShadow_1209_106740"/>
<feBlend mode="normal" in="SourceGraphic" in2="effect1_dropShadow_1209_106740" result="shape"/>
</filter>
<linearGradient id="paint0_linear_1209_106740" x1="186.637" y1="181.126" x2="168.706" y2="217.881" gradientUnits="userSpaceOnUse">
<stop stop-color="#3F873F"/>
<stop offset="0.3296" stop-color="#3F8B3D"/>
<stop offset="0.6367" stop-color="#3E9638"/>
<stop offset="0.9341" stop-color="#3DA92E"/>
<stop offset="1" stop-color="#3DAE2B"/>
</linearGradient>
<linearGradient id="paint1_linear_1209_106740" x1="175.46" y1="200.326" x2="225.992" y2="162.812" gradientUnits="userSpaceOnUse">
<stop offset="0.1376" stop-color="#3F873F"/>
<stop offset="0.4016" stop-color="#52A044"/>
<stop offset="0.7129" stop-color="#64B749"/>
<stop offset="0.9081" stop-color="#6ABF4B"/>
</linearGradient>
<linearGradient id="paint2_linear_1209_106740" x1="155.382" y1="168.427" x2="201.627" y2="168.427" gradientUnits="userSpaceOnUse">
<stop offset="0.0919" stop-color="#6ABF4B"/>
<stop offset="0.2871" stop-color="#64B749"/>
<stop offset="0.5984" stop-color="#52A044"/>
<stop offset="0.8624" stop-color="#3F873F"/>
</linearGradient>
<linearGradient id="paint3_linear_1209_106740" x1="155.382" y1="197.632" x2="201.627" y2="197.632" gradientUnits="userSpaceOnUse">
<stop offset="0.0919" stop-color="#6ABF4B"/>
<stop offset="0.2871" stop-color="#64B749"/>
<stop offset="0.5984" stop-color="#52A044"/>
<stop offset="0.8624" stop-color="#3F873F"/>
</linearGradient>
<linearGradient id="paint4_linear_1209_106740" x1="155.38" y1="210.771" x2="201.627" y2="210.771" gradientUnits="userSpaceOnUse">
<stop offset="0.0919" stop-color="#6ABF4B"/>
<stop offset="0.2871" stop-color="#64B749"/>
<stop offset="0.5984" stop-color="#52A044"/>
<stop offset="0.8624" stop-color="#3F873F"/>
</linearGradient>
<linearGradient id="paint5_linear_1209_106740" x1="155.382" y1="216.709" x2="201.627" y2="216.709" gradientUnits="userSpaceOnUse">
<stop offset="0.0919" stop-color="#6ABF4B"/>
<stop offset="0.2871" stop-color="#64B749"/>
<stop offset="0.5984" stop-color="#52A044"/>
<stop offset="0.8624" stop-color="#3F873F"/>
</linearGradient>
<linearGradient id="paint6_linear_1209_106740" x1="208.365" y1="180.038" x2="180.063" y2="238.051" gradientUnits="userSpaceOnUse">
<stop stop-color="#3F873F"/>
<stop offset="0.3296" stop-color="#3F8B3D"/>
<stop offset="0.6367" stop-color="#3E9638"/>
<stop offset="0.9341" stop-color="#3DA92E"/>
<stop offset="1" stop-color="#3DAE2B"/>
</linearGradient>
<clipPath id="clip0_1209_106740">
<rect width="210" height="128" fill="white" transform="translate(101 143)"/>
</clipPath>
</defs>
</svg>
