<svg width="412" height="342" viewBox="0 0 412 342" fill="none" xmlns="http://www.w3.org/2000/svg">
<g clip-path="url(#clip0_1209_105830)">
<rect width="412" height="342" rx="4" fill="#1E1E1E"/>
<path d="M0 4C0 1.79086 1.79086 0 4 0H408C410.209 0 412 1.79086 412 4V31H0V4Z" fill="#292929"/>
<rect width="264" height="39" transform="translate(147 31)" fill="#252526"/>
<g clip-path="url(#clip1_1209_105830)">
<rect width="115.654" height="39.2998" transform="translate(147 31)" fill="#1E1E1E"/>
</g>
<path d="M0.792297 316.099H411.208V338.099C411.208 340.308 409.417 342.099 407.208 342.099H4.79231C2.58317 342.099 0.792297 340.308 0.792297 338.099V316.099Z" fill="#3794FF"/>
<rect x="8.68469" y="326.691" width="29.9919" height="6.74072" rx="3.37036" fill="white" fill-opacity="0.75"/>
<rect x="44.9913" y="326.691" width="11.0496" height="6.74075" rx="3.37038" fill="white" fill-opacity="0.75"/>
<g filter="url(#filter0_d_1209_105830)">
<rect width="233" height="176" transform="translate(163 47)" fill="#252526"/>
<rect x="170.5" y="54.5" width="218" height="25" fill="#3C3C3C"/>
<path d="M176.168 70.3242V71.708L182.465 68.9595V67.7598L176.168 65.0239V66.4204L180.878 68.3691V68.4326L176.168 70.3242ZM187.537 72V64.0654H190.412V62.8403H183.233V64.0654H186.115V72H187.537ZM195.287 70.1528C195.033 70.7114 194.468 71.0161 193.643 71.0161C192.551 71.0161 191.847 70.229 191.802 68.9785V68.915H196.684V68.4453C196.684 66.2871 195.522 64.9731 193.599 64.9731C191.65 64.9731 190.412 66.376 190.412 68.5659C190.412 70.7686 191.625 72.1333 193.605 72.1333C195.186 72.1333 196.303 71.3716 196.601 70.1528H195.287ZM193.592 66.084C194.602 66.084 195.262 66.814 195.293 67.9312H191.802C191.878 66.8203 192.583 66.084 193.592 66.084ZM200.232 72.1143C201.14 72.1143 201.895 71.7207 202.308 71.0225H202.416V72H203.729V67.2837C203.729 65.8364 202.752 64.9731 201.019 64.9731C199.451 64.9731 198.334 65.7285 198.194 66.8901H199.515C199.667 66.3887 200.194 66.103 200.956 66.103C201.889 66.103 202.371 66.5283 202.371 67.2837V67.8867L200.499 68.001C198.854 68.1025 197.928 68.8198 197.928 70.0576C197.928 71.3145 198.899 72.1143 200.232 72.1143ZM200.581 71.0161C199.838 71.0161 199.299 70.6416 199.299 70.0005C199.299 69.3721 199.73 69.0356 200.683 68.9722L202.371 68.8579V69.4546C202.371 70.3433 201.609 71.0161 200.581 71.0161ZM205.672 72H207.037V67.7661C207.037 66.8647 207.665 66.1602 208.497 66.1602C209.309 66.1602 209.83 66.6489 209.83 67.436V72H211.169V67.6392C211.169 66.8076 211.747 66.1602 212.629 66.1602C213.524 66.1602 213.968 66.6235 213.968 67.5757V72H215.333V67.2456C215.333 65.811 214.521 64.9731 213.124 64.9731C212.166 64.9731 211.372 65.4619 211.023 66.2046H210.915C210.61 65.4619 209.957 64.9731 209.011 64.9731C208.09 64.9731 207.392 65.4302 207.087 66.2046H206.986V65.1064H205.672V72ZM217.091 67.0361C217.091 68.0581 217.701 68.6421 219.015 68.9468L220.221 69.2324C220.913 69.3975 221.236 69.6768 221.236 70.1084C221.236 70.6733 220.633 71.0669 219.783 71.0669C218.958 71.0669 218.45 70.7305 218.278 70.1909H216.914C217.034 71.3906 218.107 72.1333 219.751 72.1333C221.401 72.1333 222.614 71.2637 222.614 69.9814C222.614 68.9785 221.998 68.4136 220.684 68.1089L219.535 67.8423C218.786 67.6646 218.437 67.3979 218.437 66.9727C218.437 66.4141 219.015 66.0396 219.776 66.0396C220.551 66.0396 221.046 66.376 221.173 66.8901H222.48C222.347 65.6968 221.332 64.9731 219.776 64.9731C218.215 64.9731 217.091 65.8364 217.091 67.0361Z" fill="#E3E3E3"/>
<rect x="170.5" y="54.5" width="218" height="25" stroke="#007FD4"/>
<rect x="208" y="93" width="38" height="6" rx="3" fill="white" fill-opacity="0.16"/>
<rect x="250" y="93" width="105" height="6" rx="3" fill="white" fill-opacity="0.16"/>
<rect x="175" y="92.9014" width="30" height="6" rx="3" fill="#3794FF" fill-opacity="0.6"/>
<rect x="175" y="115" width="30" height="6" rx="3" fill="#3794FF" fill-opacity="0.6"/>
<rect x="209" y="115" width="62" height="6" rx="3" fill="white" fill-opacity="0.16"/>
<rect x="275" y="115" width="62" height="6" rx="3" fill="white" fill-opacity="0.16"/>
<rect x="175" y="137" width="30" height="6" rx="3" fill="#3794FF" fill-opacity="0.6"/>
<rect x="209" y="137" width="41" height="6" rx="3" fill="white" fill-opacity="0.16"/>
<rect x="254" y="137" width="65" height="6" rx="3" fill="white" fill-opacity="0.16"/>
<rect x="175" y="159" width="30" height="6" rx="3" fill="#3794FF" fill-opacity="0.6"/>
<rect x="209" y="159" width="160" height="6" rx="3" fill="white" fill-opacity="0.16"/>
<rect x="175" y="181" width="30" height="6" rx="3" fill="#3794FF" fill-opacity="0.6"/>
<rect x="209" y="181" width="45.5" height="6" rx="3" fill="white" fill-opacity="0.16"/>
<rect x="258.5" y="181" width="45.5" height="6" rx="3" fill="white" fill-opacity="0.16"/>
<rect x="175" y="203" width="30" height="6" rx="3" fill="#3794FF" fill-opacity="0.6"/>
<rect x="209" y="203" width="83" height="6" rx="3" fill="white" fill-opacity="0.16"/>
<rect x="296" y="203" width="98" height="6" rx="3" fill="white" fill-opacity="0.16"/>
</g>
<rect x="1" y="31" width="48" height="285" fill="#333333"/>
<rect x="49" y="31" width="98" height="285" fill="#252526"/>
<path fill-rule="evenodd" clip-rule="evenodd" d="M27.6 168.8V170.1H36.7793C37.4527 170.1 38 170.602 38 171.219V177.575C38 179.635 36.1774 181.306 33.9297 181.306C33.4604 181.306 32.8507 181.219 32.3372 180.925C31.461 182.969 29.4317 184.4 27.067 184.4H26.833C24.3071 184.4 22.1634 182.767 21.399 180.5H13.3C12.585 180.5 12 179.915 12 179.2V166.2C12 165.485 12.585 164.9 13.3 164.9H23.7C23.7 162.746 25.4459 161 27.6 161C29.7541 161 31.5 162.746 31.5 164.9C31.5 167.054 29.7541 168.8 27.6 168.8ZM30.2 164.9C30.2 166.334 29.0339 167.5 27.6 167.5V166.2C27.6 165.485 27.015 164.9 26.3 164.9H25C25 163.466 26.1661 162.3 27.6 162.3C29.0339 162.3 30.2 163.466 30.2 164.9ZM20.4084 177.737V170.171H23.2216V167.662H15.0784V170.171H17.9085V177.737H20.4084ZM31.5 178.667V178.72C31.4974 178.754 31.4961 178.79 31.4974 178.827C31.4129 181.197 29.4577 183.1 27.067 183.1H26.833C25.0416 183.1 23.4959 182.033 22.7965 180.5H26.3C27.015 180.5 27.6 179.915 27.6 179.2V171.4H31.5V178.667ZM36.7 177.575C36.7 178.915 35.4572 180.006 33.9297 180.006C33.7893 180.006 33.1705 179.988 32.8442 179.695C32.8478 179.501 32.8327 179.314 32.8192 179.145L32.8192 179.145L32.8156 179.101L32.8105 179.047V179.047L32.8105 179.047C32.8042 178.982 32.7982 178.919 32.7961 178.862C32.7987 178.797 32.8 178.732 32.8 178.667V171.4H36.7V177.575ZM36.96 166.2C36.96 167.06 36.2606 167.76 35.4 167.76C34.5394 167.76 33.84 167.06 33.84 166.2C33.84 165.339 34.5394 164.64 35.4 164.64C36.2606 164.64 36.96 165.339 36.96 166.2ZM35.4 163.6C36.8365 163.6 38 164.765 38 166.2C38 167.635 36.8365 168.8 35.4 168.8C33.9648 168.8 32.8 167.635 32.8 166.2C32.8 164.765 33.9648 163.6 35.4 163.6Z" fill="white"/>
<rect x="1" y="153" width="3" height="40" fill="white"/>
</g>
<rect x="0.5" y="0.5" width="411" height="341" rx="3.5" stroke="#292929"/>
<defs>
<filter id="filter0_d_1209_105830" x="151" y="37" width="257" height="200" filterUnits="userSpaceOnUse" color-interpolation-filters="sRGB">
<feFlood flood-opacity="0" result="BackgroundImageFix"/>
<feColorMatrix in="SourceAlpha" type="matrix" values="0 0 0 0 0 0 0 0 0 0 0 0 0 0 0 0 0 0 127 0" result="hardAlpha"/>
<feOffset dy="2"/>
<feGaussianBlur stdDeviation="6"/>
<feColorMatrix type="matrix" values="0 0 0 0 0 0 0 0 0 0 0 0 0 0 0 0 0 0 0.6 0"/>
<feBlend mode="normal" in2="BackgroundImageFix" result="effect1_dropShadow_1209_105830"/>
<feBlend mode="normal" in="SourceGraphic" in2="effect1_dropShadow_1209_105830" result="shape"/>
</filter>
<clipPath id="clip0_1209_105830">
<rect width="412" height="342" rx="4" fill="white"/>
</clipPath>
<clipPath id="clip1_1209_105830">
<rect width="115.654" height="39.2998" fill="white" transform="translate(147 31)"/>
</clipPath>
</defs>
</svg>
