<svg xmlns="http://www.w3.org/2000/svg" viewBox="0 0 24 24"><title>Teams_24x</title><rect width="24" height="24" fill="none"/><path d="M20.5,8A2.5,2.5,0,1,0,18,5.5,2.5,2.5,0,0,0,20.5,8Zm0-4A1.5,1.5,0,1,1,19,5.5,1.5,1.5,0,0,1,20.5,4Zm2.373,5H14V8.313A3.314,3.314,0,1,0,10.687,5H1.167A1.17,1.17,0,0,0,0,6.167V17.833A1.17,1.17,0,0,0,1.167,19h7.04a5.5,5.5,0,0,0,10.54.153,3.678,3.678,0,0,0,1.5.32A3.758,3.758,0,0,0,24,15.716V10.127A1.128,1.128,0,0,0,22.873,9ZM14,2.686a2.314,2.314,0,0,1,0,4.627V6.167A1.17,1.17,0,0,0,12.833,5H11.687A2.316,2.316,0,0,1,14,2.686ZM18,17.5A4.5,4.5,0,0,1,9.257,19h3.576A1.17,1.17,0,0,0,14,17.833V10h3.88a.12.12,0,0,1,.12.12Zm5-1.784a2.76,2.76,0,0,1-2.757,2.757,2.687,2.687,0,0,1-1.281-.327A5.52,5.52,0,0,0,19,17.5V10.12a1.176,1.176,0,0,0-.006-.12h3.879a.127.127,0,0,1,.127.127ZM5.972,16.25V9.828h-2.4V7.75h6.862V9.828H8.042V16.25Z" fill="#fff"/></svg>