<svg xmlns="http://www.w3.org/2000/svg" width="13" height="12" viewBox="0 0 13 12" fill="none">
	<path d="M1.744 2.48H1.04L0 1.424L0.704 0.735999L1.408 1.408L2.816 -9.53674e-07L3.52 0.704L1.744 2.48ZM4.992 0.992H12.992V2H4.992V0.992ZM4.992 4H12.992V4.992H4.992V4ZM12.992 6.992H4.992V8H12.992V6.992ZM4.992 10H12.992V10.992H4.992V10ZM1.04 5.472H1.744L3.52 3.712L2.816 3.008L1.408 4.416L0.704 3.728L0 4.432L1.04 5.472ZM1.744 8.496H1.04L0 7.456L0.704 6.736L1.408 7.424L2.816 6.016L3.52 6.72L1.744 8.496ZM1.04 11.504H1.744L3.52 9.728L2.816 9.024L1.408 10.432L0.704 9.744L0 10.448L1.04 11.504Z" fill="#CCCCCC" />
</svg>
