<svg xmlns="http://www.w3.org/2000/svg" viewBox="0 0 2048 2048">
  <path d="M1600 1024q-26 0-45-19t-19-45V320q0-40-15-75t-41-61-61-41-75-15q-40 0-75 15t-61 41-41 61-15 75v192q27 0 50 10t40 27 28 41 10 50v768q0 27-10 50t-27 40-41 28-50 10v192q0 40 15 75t41 61 61 41 75 15q40 0 75-15t61-41 41-61 15-75v-128q0-26 19-45t45-19q26 0 45 19t19 45v128q0 66-25 124t-69 102-102 69-124 25h-115q-43 0-89 1t-87 0-68-1-31-2q-6 2-8 2-85 0-163-30t-139-84-96-128-36-163v-107q-27 0-50-10t-40-27-28-41-10-50V640q0-27 10-50t27-40 41-28 50-10V405q0-88 36-162t96-129 138-84T946 0q2 0 8 2 3-1 30-2t68-1 88 0 89 0 73 1 42 0q66 0 124 25t101 69 69 102 26 124v640q0 26-19 45t-45 19zM640 512h384V320q0-52 17-101t49-91h-28q-20 0-42 1t-42 0-24-3q-6 2-8 2-59 0-114 20t-97 57-69 88-26 112v107zm512 896V640H512v768h640zm-198 514q5-2 24-2t41-1 43 0 28 1q-32-42-49-91t-17-101v-192H640v107q0 62 26 112t68 88 98 57 114 20q2 0 8 2z"  fill="#cccccc"/>
</svg>