<svg width="12" height="14" viewBox="0 0 12 14" fill="none" xmlns="http://www.w3.org/2000/svg">
<path d="M5.52 8.01333H7.49333V7H6V4.49333H4.98667V7.48L5.52 8.01333ZM3.49333 2.68C2.71111 3.10667 2.08889 3.71111 1.62667 4.49333C1.2 5.27555 0.986667 6.11111 0.986667 7C0.986667 7.88889 1.2 8.72444 1.62667 9.50667C2.08889 10.2889 2.71111 10.8933 3.49333 11.32V13.5067L4.02667 13.9867H8.02667L8.50667 13.5067V11.32C9.28889 10.8933 9.89333 10.2889 10.32 9.50667C10.7822 8.72444 11.0133 7.88889 11.0133 7C11.0133 6.11111 10.7822 5.27555 10.32 4.49333C9.89333 3.71111 9.28889 3.10667 8.50667 2.68V0.493333L8.02667 0.0133333H4.02667L3.49333 0.493333V2.68ZM10 7C10 7.71111 9.82222 8.38667 9.46667 9.02667C9.11111 9.63111 8.61333 10.1111 7.97333 10.4667C7.36889 10.8222 6.71111 11 6 11C5.28889 11 4.61333 10.8222 3.97333 10.4667C3.36889 10.1111 2.88889 9.63111 2.53333 9.02667C2.17778 8.38667 2 7.71111 2 7C2 6.28889 2.17778 5.63111 2.53333 5.02667C2.88889 4.38667 3.36889 3.88889 3.97333 3.53333C4.61333 3.17778 5.28889 3 6 3C6.71111 3 7.36889 3.17778 7.97333 3.53333C8.61333 3.88889 9.11111 4.38667 9.46667 5.02667C9.82222 5.63111 10 6.28889 10 7Z" fill="#CCCCCC"/>
</svg>
