<svg width="16" height="16" viewBox="0 0 16 16" fill="none" xmlns="http://www.w3.org/2000/svg">
<path fill-rule="evenodd" clip-rule="evenodd" d="M1 1.82678C1 1.37016 1.36455 1 1.81425 1H9.16212C9.28584 1.00053 9.40528 1.03195 9.51143 1.08915V1.08921C9.62046 1.14802 9.71519 1.23405 9.78531 1.34173L13.6473 7.26704C13.6663 7.29371 13.6856 7.32018 13.7047 7.34659C13.9228 7.64703 14.1346 7.93884 13.892 8.43889L10.3429 14.6205C10.2936 14.7066 10.2289 14.7806 10.1538 14.8396C10.1248 14.8624 10.0941 14.883 10.0621 14.9013V14.9014C9.95143 14.9644 9.82534 14.9991 9.69418 14.9991L2.47875 15C2.06669 15.0002 1.80914 14.5485 2.01226 14.1861L5.56339 8.00094L5.56335 8.00088L5.56288 8.00013H5.54392L4.24718 6.01072H1.54284C1.24304 6.01072 1 5.76396 1 5.45954V1.82678ZM3.49471 3.36967L2.48933 1.81713H9.13011L12.6276 7.183H5.97633L4.95322 5.61341L3.49471 3.36967ZM2.07616 5.19359C1.92627 5.19359 1.80475 5.07022 1.80475 4.91801V2.26367L3.71455 5.19359H2.07616ZM9.59046 14.1797L6.11446 8.8465L6.09523 8.81719H6.02628L2.94564 14.1829L9.58875 14.182L9.59046 14.1797ZM13.1796 8.05744L10.0836 13.4496L8.56462 11.1052L6.78483 8.39435L6.54559 8.02732H13.1892L13.1905 8.02975C13.188 8.03693 13.1845 8.04611 13.1796 8.05744Z" fill="#CCCCCC"/>
</svg>
