<svg width="434" height="264" viewBox="0 0 434 264" fill="none" xmlns="http://www.w3.org/2000/svg">
<g filter="url(#filter0_d_144_5061)">
<rect x="4" width="404" height="256" rx="4" fill="white" shape-rendering="crispEdges"/>
<path d="M4 4C4 1.79086 5.79086 0 8 0H404C406.209 0 408 1.79086 408 4V30H4V4Z" fill="#F8F8F8"/>
<path d="M4 29H42V256H8C5.79086 256 4 254.209 4 252V29Z" fill="#F8F8F8"/>
<circle cx="15.5" cy="195.5" r="2.5" fill="#616161"/>
<circle cx="23.5" cy="195.5" r="2.5" fill="#616161"/>
<circle cx="31.5" cy="195.5" r="2.5" fill="#616161"/>
<rect x="11" y="42" width="24" height="24" rx="4" fill="#616161"/>
<rect x="11" y="116" width="24" height="24" rx="4" fill="#616161"/>
<rect x="11" y="153" width="24" height="24" rx="4" fill="#616161"/>
<rect x="5" y="78" width="1.84897" height="27.7744" rx="0.924486" fill="#005FB8"/>
<rect x="11" y="79" width="24" height="24" rx="4" fill="#005FB8"/>
<path d="M41 55.6863H122V252C122 254.209 120.209 256 118 256H41V55.6863Z" fill="#E5E5E5"/>
<path d="M41 30H122V79.417C122 81.6261 120.209 83.417 118 83.417H41V30Z" fill="#E5E5E5"/>
<path d="M26.0908 22H24.0166V13.8438C24.0166 13.1758 24.0576 12.3584 24.1396 11.3916H24.1045C23.9756 11.9424 23.8613 12.3379 23.7617 12.5781L20 22H18.5586L14.7881 12.6484C14.6826 12.373 14.5713 11.9541 14.4541 11.3916H14.4189C14.4658 11.8955 14.4893 12.7188 14.4893 13.8613V22H12.5557V9.39648H15.5L18.8135 17.79C19.0654 18.4346 19.2295 18.915 19.3057 19.2314H19.3496C19.5664 18.5693 19.7422 18.0771 19.877 17.7549L23.252 9.39648H26.0908V22ZM30.002 11.1104C29.668 11.1104 29.3809 11.002 29.1406 10.7852C28.9062 10.5684 28.7891 10.293 28.7891 9.95898C28.7891 9.625 28.9062 9.34668 29.1406 9.12402C29.3809 8.90137 29.668 8.79004 30.002 8.79004C30.3477 8.79004 30.6406 8.90137 30.8809 9.12402C31.1211 9.34668 31.2412 9.625 31.2412 9.95898C31.2412 10.2754 31.1211 10.5479 30.8809 10.7764C30.6406 10.999 30.3477 11.1104 30.002 11.1104ZM31.0127 22H28.9736V13H31.0127V22ZM40.127 21.5869C39.4062 22.0029 38.5537 22.2109 37.5693 22.2109C36.2334 22.2109 35.1553 21.7949 34.335 20.9629C33.5146 20.125 33.1045 19.041 33.1045 17.7109C33.1045 16.2285 33.5439 15.0391 34.4229 14.1426C35.3076 13.2402 36.4883 12.7891 37.9648 12.7891C38.7852 12.7891 39.5088 12.9326 40.1357 13.2197V15.1182C39.5088 14.6494 38.8408 14.415 38.1318 14.415C37.2705 14.415 36.5645 14.708 36.0137 15.2939C35.4629 15.874 35.1875 16.6357 35.1875 17.5791C35.1875 18.5107 35.4453 19.2461 35.9609 19.7852C36.4824 20.3242 37.1797 20.5938 38.0527 20.5938C38.7852 20.5938 39.4766 20.333 40.127 19.8115V21.5869ZM47.3779 14.9424C47.1318 14.749 46.7773 14.6523 46.3145 14.6523C45.7109 14.6523 45.207 14.9248 44.8027 15.4697C44.3984 16.0146 44.1963 16.7559 44.1963 17.6934V22H42.1572V13H44.1963V14.8545H44.2314C44.4307 14.2217 44.7354 13.7295 45.1455 13.3779C45.5615 13.0205 46.0244 12.8418 46.5342 12.8418C46.9033 12.8418 47.1846 12.8975 47.3779 13.0088V14.9424ZM52.6514 22.2109C51.2627 22.2109 50.1523 21.792 49.3203 20.9541C48.4941 20.1104 48.0811 18.9941 48.0811 17.6055C48.0811 16.0938 48.5117 14.9131 49.373 14.0635C50.2402 13.2139 51.4062 12.7891 52.8711 12.7891C54.2773 12.7891 55.373 13.2021 56.1582 14.0283C56.9434 14.8545 57.3359 16 57.3359 17.4648C57.3359 18.9004 56.9111 20.0518 56.0615 20.9189C55.2178 21.7803 54.0811 22.2109 52.6514 22.2109ZM52.748 14.415C51.9512 14.415 51.3213 14.6934 50.8584 15.25C50.3955 15.8066 50.1641 16.5742 50.1641 17.5527C50.1641 18.4961 50.3984 19.2402 50.8672 19.7852C51.3359 20.3242 51.9629 20.5938 52.748 20.5938C53.5508 20.5938 54.166 20.3271 54.5938 19.7939C55.0273 19.2607 55.2441 18.502 55.2441 17.5176C55.2441 16.5273 55.0273 15.7627 54.5938 15.2236C54.166 14.6846 53.5508 14.415 52.748 14.415ZM58.8564 21.7188V19.8291C59.6182 20.4092 60.459 20.6992 61.3789 20.6992C62.6094 20.6992 63.2246 20.3359 63.2246 19.6094C63.2246 19.4043 63.1719 19.2314 63.0664 19.0908C62.9609 18.9443 62.8174 18.8154 62.6357 18.7041C62.46 18.5928 62.249 18.4932 62.0029 18.4053C61.7627 18.3174 61.4932 18.2178 61.1943 18.1064C60.8252 17.96 60.4912 17.8047 60.1924 17.6406C59.8994 17.4766 59.6533 17.292 59.4541 17.0869C59.2607 16.876 59.1143 16.6387 59.0146 16.375C58.915 16.1113 58.8652 15.8037 58.8652 15.4521C58.8652 15.0186 58.9678 14.6377 59.1729 14.3096C59.3779 13.9756 59.6533 13.6973 59.999 13.4746C60.3447 13.2461 60.7373 13.0762 61.1768 12.9648C61.6162 12.8477 62.0703 12.7891 62.5391 12.7891C63.3711 12.7891 64.1152 12.915 64.7715 13.167V14.9512C64.1387 14.5176 63.4121 14.3008 62.5918 14.3008C62.334 14.3008 62.0996 14.3271 61.8887 14.3799C61.6836 14.4326 61.5078 14.5059 61.3613 14.5996C61.2148 14.6934 61.1006 14.8076 61.0186 14.9424C60.9365 15.0713 60.8955 15.2148 60.8955 15.373C60.8955 15.5664 60.9365 15.7305 61.0186 15.8652C61.1006 16 61.2207 16.1201 61.3789 16.2256C61.543 16.3252 61.7363 16.4189 61.959 16.5068C62.1875 16.5889 62.4482 16.6797 62.7412 16.7793C63.1279 16.9375 63.4736 17.0986 63.7783 17.2627C64.0889 17.4268 64.3525 17.6143 64.5693 17.8252C64.7861 18.0303 64.9531 18.2705 65.0703 18.5459C65.1875 18.8154 65.2461 19.1377 65.2461 19.5127C65.2461 19.9697 65.1406 20.3682 64.9297 20.708C64.7188 21.0479 64.4375 21.3291 64.0859 21.5518C63.7344 21.7744 63.3271 21.9385 62.8643 22.0439C62.4072 22.1553 61.9238 22.2109 61.4141 22.2109C60.4297 22.2109 59.5771 22.0469 58.8564 21.7188ZM71.1787 22.2109C69.79 22.2109 68.6797 21.792 67.8477 20.9541C67.0215 20.1104 66.6084 18.9941 66.6084 17.6055C66.6084 16.0938 67.0391 14.9131 67.9004 14.0635C68.7676 13.2139 69.9336 12.7891 71.3984 12.7891C72.8047 12.7891 73.9004 13.2021 74.6855 14.0283C75.4707 14.8545 75.8633 16 75.8633 17.4648C75.8633 18.9004 75.4385 20.0518 74.5889 20.9189C73.7451 21.7803 72.6084 22.2109 71.1787 22.2109ZM71.2754 14.415C70.4785 14.415 69.8486 14.6934 69.3857 15.25C68.9229 15.8066 68.6914 16.5742 68.6914 17.5527C68.6914 18.4961 68.9258 19.2402 69.3945 19.7852C69.8633 20.3242 70.4902 20.5938 71.2754 20.5938C72.0781 20.5938 72.6934 20.3271 73.1211 19.7939C73.5547 19.2607 73.7715 18.502 73.7715 17.5176C73.7715 16.5273 73.5547 15.7627 73.1211 15.2236C72.6934 14.6846 72.0781 14.415 71.2754 14.415ZM82.7363 10.3369C82.4609 10.1787 82.1475 10.0996 81.7959 10.0996C80.8057 10.0996 80.3105 10.6592 80.3105 11.7783V13H82.4023V14.5996H80.3193V22H78.2803V14.5996H76.7422V13H78.2803V11.541C78.2803 10.5918 78.5908 9.84473 79.2119 9.2998C79.833 8.74902 80.6094 8.47363 81.541 8.47363C82.0449 8.47363 82.4434 8.5293 82.7363 8.64062V10.3369ZM88.9326 21.9033C88.5342 22.1025 88.0098 22.2021 87.3594 22.2021C85.6133 22.2021 84.7402 21.3643 84.7402 19.6885V14.5996H83.2373V13H84.7402V10.917L86.7793 10.3369V13H88.9326V14.5996H86.7793V19.0996C86.7793 19.6328 86.876 20.0137 87.0693 20.2422C87.2627 20.4707 87.585 20.585 88.0361 20.585C88.3818 20.585 88.6807 20.4854 88.9326 20.2861V21.9033ZM103.962 11.1719H100.341V22H98.249V11.1719H94.6367V9.39648H103.962V11.1719ZM111.441 18.0537H105.307C105.33 18.8857 105.585 19.5273 106.071 19.9785C106.563 20.4297 107.237 20.6553 108.093 20.6553C109.054 20.6553 109.936 20.3682 110.738 19.7939V21.4375C109.918 21.9531 108.834 22.2109 107.486 22.2109C106.162 22.2109 105.122 21.8037 104.366 20.9893C103.616 20.1689 103.241 19.0176 103.241 17.5352C103.241 16.1348 103.654 14.9951 104.48 14.1162C105.312 13.2314 106.344 12.7891 107.574 12.7891C108.805 12.7891 109.757 13.1846 110.431 13.9756C111.104 14.7666 111.441 15.8652 111.441 17.2715V18.0537ZM109.473 16.6123C109.467 15.8799 109.294 15.3115 108.954 14.9072C108.614 14.4971 108.146 14.292 107.548 14.292C106.962 14.292 106.464 14.5059 106.054 14.9336C105.649 15.3613 105.4 15.9209 105.307 16.6123H109.473ZM120.292 22H118.314V20.5938H118.279C117.658 21.6719 116.747 22.2109 115.546 22.2109C114.661 22.2109 113.967 21.9707 113.463 21.4902C112.965 21.0098 112.716 20.374 112.716 19.583C112.716 17.8838 113.694 16.8936 115.651 16.6123L118.323 16.2344C118.323 14.9512 117.714 14.3096 116.495 14.3096C115.423 14.3096 114.456 14.6787 113.595 15.417V13.6328C114.544 13.0703 115.64 12.7891 116.882 12.7891C119.155 12.7891 120.292 13.9082 120.292 16.1465V22ZM118.323 17.5791L116.434 17.8428C115.848 17.9189 115.405 18.0625 115.106 18.2734C114.813 18.4785 114.667 18.8418 114.667 19.3633C114.667 19.7441 114.802 20.0576 115.071 20.3037C115.347 20.5439 115.713 20.6641 116.17 20.6641C116.791 20.6641 117.304 20.4473 117.708 20.0137C118.118 19.5742 118.323 19.0234 118.323 18.3613V17.5791ZM136.244 22H134.205V17.0957C134.205 16.1523 134.07 15.4697 133.801 15.0479C133.537 14.626 133.089 14.415 132.456 14.415C131.923 14.415 131.469 14.6816 131.094 15.2148C130.725 15.748 130.54 16.3867 130.54 17.1309V22H128.492V16.9287C128.492 15.2529 127.9 14.415 126.717 14.415C126.166 14.415 125.712 14.667 125.354 15.1709C125.003 15.6748 124.827 16.3281 124.827 17.1309V22H122.788V13H124.827V14.4238H124.862C125.513 13.334 126.459 12.7891 127.701 12.7891C128.322 12.7891 128.864 12.9619 129.327 13.3076C129.796 13.6475 130.115 14.0957 130.285 14.6523C130.953 13.4102 131.949 12.7891 133.273 12.7891C135.254 12.7891 136.244 14.0107 136.244 16.4541V22ZM138.169 21.7188V19.8291C138.931 20.4092 139.771 20.6992 140.691 20.6992C141.922 20.6992 142.537 20.3359 142.537 19.6094C142.537 19.4043 142.484 19.2314 142.379 19.0908C142.273 18.9443 142.13 18.8154 141.948 18.7041C141.772 18.5928 141.562 18.4932 141.315 18.4053C141.075 18.3174 140.806 18.2178 140.507 18.1064C140.138 17.96 139.804 17.8047 139.505 17.6406C139.212 17.4766 138.966 17.292 138.767 17.0869C138.573 16.876 138.427 16.6387 138.327 16.375C138.228 16.1113 138.178 15.8037 138.178 15.4521C138.178 15.0186 138.28 14.6377 138.485 14.3096C138.69 13.9756 138.966 13.6973 139.312 13.4746C139.657 13.2461 140.05 13.0762 140.489 12.9648C140.929 12.8477 141.383 12.7891 141.852 12.7891C142.684 12.7891 143.428 12.915 144.084 13.167V14.9512C143.451 14.5176 142.725 14.3008 141.904 14.3008C141.646 14.3008 141.412 14.3271 141.201 14.3799C140.996 14.4326 140.82 14.5059 140.674 14.5996C140.527 14.6934 140.413 14.8076 140.331 14.9424C140.249 15.0713 140.208 15.2148 140.208 15.373C140.208 15.5664 140.249 15.7305 140.331 15.8652C140.413 16 140.533 16.1201 140.691 16.2256C140.855 16.3252 141.049 16.4189 141.271 16.5068C141.5 16.5889 141.761 16.6797 142.054 16.7793C142.44 16.9375 142.786 17.0986 143.091 17.2627C143.401 17.4268 143.665 17.6143 143.882 17.8252C144.099 18.0303 144.266 18.2705 144.383 18.5459C144.5 18.8154 144.559 19.1377 144.559 19.5127C144.559 19.9697 144.453 20.3682 144.242 20.708C144.031 21.0479 143.75 21.3291 143.398 21.5518C143.047 21.7744 142.64 21.9385 142.177 22.0439C141.72 22.1553 141.236 22.2109 140.727 22.2109C139.742 22.2109 138.89 22.0469 138.169 21.7188Z" fill="#868686"/>
<line x1="4" y1="29.5" x2="408" y2="29.5" stroke="#E7E7E7"/>
<rect x="51" y="95" width="55" height="8" rx="4" fill="#CCCCCC"/>
<rect x="51" y="75" width="44.5238" height="8" rx="4" fill="#CCCCCC"/>
<rect x="51" y="55" width="55" height="8" rx="4" fill="#CCCCCC"/>
<rect x="132.948" y="37.1394" width="25.8606" height="25.8606" rx="2.40564" fill="#979797"/>
<path d="M138.36 45.6071C138.36 44.2785 139.437 43.2014 140.766 43.2014H143.364C144.692 43.2014 145.769 44.2785 145.769 45.6071V58.0197H140.766C139.437 58.0197 138.36 56.9427 138.36 55.6141V45.6071Z" stroke="white" stroke-width="1.20282"/>
<path d="M150.773 50.6106C152.102 50.6106 153.179 51.6876 153.179 53.0162L153.179 55.6141C153.179 56.9427 152.102 58.0197 150.773 58.0197L140.766 58.0197C139.437 58.0197 138.36 56.9427 138.36 55.6141L138.36 50.6106L150.773 50.6106Z" stroke="white" stroke-width="1.20282"/>
<rect x="150.485" y="41.3491" width="6.66823" height="6.66823" rx="2.40564" transform="rotate(45 150.485 41.3491)" stroke="white" stroke-width="1.20282"/>
<path d="M253.896 56.6487C253.264 56.9768 252.477 57.1409 251.535 57.1409C250.316 57.1409 249.34 56.7561 248.605 55.9866C247.871 55.217 247.504 54.2073 247.504 52.9573C247.504 51.6135 247.916 50.5276 248.74 49.6995C249.568 48.8713 250.613 48.4573 251.875 48.4573C252.688 48.4573 253.361 48.5725 253.896 48.803V50.1858C253.33 49.8499 252.705 49.6819 252.021 49.6819C251.111 49.6819 250.373 49.9729 249.807 50.5549C249.244 51.137 248.963 51.9143 248.963 52.887C248.963 53.8127 249.227 54.551 249.754 55.1018C250.281 55.6487 250.975 55.9221 251.834 55.9221C252.627 55.9221 253.314 55.7346 253.896 55.3596V56.6487ZM260.67 57.0002H259.311V53.719C259.311 52.5315 258.914 51.9377 258.121 51.9377C257.723 51.9377 257.387 52.1096 257.113 52.4534C256.84 52.7971 256.703 53.2366 256.703 53.7717V57.0002H255.338V48.1174H256.703V51.9963H256.727C257.18 51.2385 257.828 50.8596 258.672 50.8596C260.004 50.8596 260.67 51.6741 260.67 53.303V57.0002ZM266.928 57.0002H265.609V56.0627H265.586C265.172 56.7815 264.564 57.1409 263.764 57.1409C263.174 57.1409 262.711 56.9807 262.375 56.6604C262.043 56.3401 261.877 55.9163 261.877 55.3889C261.877 54.2561 262.529 53.5959 263.834 53.4084L265.615 53.1565C265.615 52.301 265.209 51.8733 264.396 51.8733C263.682 51.8733 263.037 52.1194 262.463 52.6116V51.4221C263.096 51.0471 263.826 50.8596 264.654 50.8596C266.17 50.8596 266.928 51.6057 266.928 53.0979V57.0002ZM265.615 54.053L264.355 54.2288C263.965 54.2795 263.67 54.3752 263.471 54.5159C263.275 54.6526 263.178 54.8948 263.178 55.2424C263.178 55.4963 263.268 55.7053 263.447 55.8694C263.631 56.0295 263.875 56.1096 264.18 56.1096C264.594 56.1096 264.936 55.9651 265.205 55.676C265.479 55.3831 265.615 55.0159 265.615 54.5745V54.053ZM271.756 56.9358C271.49 57.0686 271.141 57.135 270.707 57.135C269.543 57.135 268.961 56.5764 268.961 55.4592V52.0667H267.959V51.0002H268.961V49.6116L270.32 49.2249V51.0002H271.756V52.0667H270.32V55.0667C270.32 55.4221 270.385 55.676 270.514 55.8284C270.643 55.9807 270.857 56.0569 271.158 56.0569C271.389 56.0569 271.588 55.9905 271.756 55.8577V56.9358Z" fill="black"/>
<path d="M173.787 54H172.387V50.3555H168.432V54H167.037V45.5977H168.432V49.1309H172.387V45.5977H173.787V54ZM180.789 51.3691H176.699C176.715 51.9238 176.885 52.3516 177.209 52.6523C177.537 52.9531 177.986 53.1035 178.557 53.1035C179.197 53.1035 179.785 52.9121 180.32 52.5293V53.625C179.773 53.9688 179.051 54.1406 178.152 54.1406C177.27 54.1406 176.576 53.8691 176.072 53.3262C175.572 52.7793 175.322 52.0117 175.322 51.0234C175.322 50.0898 175.598 49.3301 176.148 48.7441C176.703 48.1543 177.391 47.8594 178.211 47.8594C179.031 47.8594 179.666 48.123 180.115 48.6504C180.564 49.1777 180.789 49.9102 180.789 50.8477V51.3691ZM179.477 50.4082C179.473 49.9199 179.357 49.541 179.131 49.2715C178.904 48.998 178.592 48.8613 178.193 48.8613C177.803 48.8613 177.471 49.0039 177.197 49.2891C176.928 49.5742 176.762 49.9473 176.699 50.4082H179.477ZM183.449 54H182.084V45.1172H183.449V54ZM186.59 54H185.225V45.1172H186.59V54ZM191.025 54.1406C190.1 54.1406 189.359 53.8613 188.805 53.3027C188.254 52.7402 187.979 51.9961 187.979 51.0703C187.979 50.0625 188.266 49.2754 188.84 48.709C189.418 48.1426 190.195 47.8594 191.172 47.8594C192.109 47.8594 192.84 48.1348 193.363 48.6855C193.887 49.2363 194.148 50 194.148 50.9766C194.148 51.9336 193.865 52.7012 193.299 53.2793C192.736 53.8535 191.979 54.1406 191.025 54.1406ZM191.09 48.9434C190.559 48.9434 190.139 49.1289 189.83 49.5C189.521 49.8711 189.367 50.3828 189.367 51.0352C189.367 51.6641 189.523 52.1602 189.836 52.5234C190.148 52.8828 190.566 53.0625 191.09 53.0625C191.625 53.0625 192.035 52.8848 192.32 52.5293C192.609 52.1738 192.754 51.668 192.754 51.0117C192.754 50.3516 192.609 49.8418 192.32 49.4824C192.035 49.123 191.625 48.9434 191.09 48.9434ZM206.113 45.5977L203.811 54H202.234L200.635 48.123C200.568 47.873 200.527 47.5996 200.512 47.3027H200.488C200.469 47.5801 200.422 47.8496 200.348 48.1113L198.742 54H197.131L194.781 45.5977H196.311L197.834 51.75C197.896 52.0078 197.936 52.2773 197.951 52.5586H197.98C197.996 52.3594 198.051 52.0898 198.145 51.75L199.867 45.5977H201.303L202.896 51.7969C202.951 52.0078 202.992 52.2578 203.02 52.5469H203.043C203.055 52.3516 203.1 52.0938 203.178 51.7734L204.672 45.5977H206.113ZM209.482 54.1406C208.557 54.1406 207.816 53.8613 207.262 53.3027C206.711 52.7402 206.436 51.9961 206.436 51.0703C206.436 50.0625 206.723 49.2754 207.297 48.709C207.875 48.1426 208.652 47.8594 209.629 47.8594C210.566 47.8594 211.297 48.1348 211.82 48.6855C212.344 49.2363 212.605 50 212.605 50.9766C212.605 51.9336 212.322 52.7012 211.756 53.2793C211.193 53.8535 210.436 54.1406 209.482 54.1406ZM209.547 48.9434C209.016 48.9434 208.596 49.1289 208.287 49.5C207.979 49.8711 207.824 50.3828 207.824 51.0352C207.824 51.6641 207.98 52.1602 208.293 52.5234C208.605 52.8828 209.023 53.0625 209.547 53.0625C210.082 53.0625 210.492 52.8848 210.777 52.5293C211.066 52.1738 211.211 51.668 211.211 51.0117C211.211 50.3516 211.066 49.8418 210.777 49.4824C210.492 49.123 210.082 48.9434 209.547 48.9434ZM217.475 49.2949C217.311 49.166 217.074 49.1016 216.766 49.1016C216.363 49.1016 216.027 49.2832 215.758 49.6465C215.488 50.0098 215.354 50.5039 215.354 51.1289V54H213.994V48H215.354V49.2363H215.377C215.51 48.8145 215.713 48.4863 215.986 48.252C216.264 48.0137 216.572 47.8945 216.912 47.8945C217.158 47.8945 217.346 47.9316 217.475 48.0059V49.2949ZM219.801 54H218.436V45.1172H219.801V54ZM227.031 54H225.672V52.9805H225.648C225.211 53.7539 224.537 54.1406 223.627 54.1406C222.889 54.1406 222.297 53.873 221.852 53.3379C221.41 52.7988 221.189 52.0664 221.189 51.1406C221.189 50.1484 221.434 49.3535 221.922 48.7559C222.414 48.1582 223.068 47.8594 223.885 47.8594C224.693 47.8594 225.281 48.1836 225.648 48.832H225.672V45.1172H227.031V54ZM225.689 51.2578V50.4727C225.689 50.0469 225.551 49.6855 225.273 49.3887C224.996 49.0918 224.643 48.9434 224.213 48.9434C223.705 48.9434 223.305 49.1328 223.012 49.5117C222.723 49.8906 222.578 50.416 222.578 51.0879C222.578 51.6973 222.717 52.1797 222.994 52.5352C223.275 52.8867 223.652 53.0625 224.125 53.0625C224.59 53.0625 224.967 52.8926 225.256 52.5527C225.545 52.209 225.689 51.7773 225.689 51.2578Z" fill="black"/>
<line x1="248" y1="66.0002" x2="272" y2="66.0002" stroke="#0078D4" stroke-width="6"/>
<line x1="121.999" y1="68.5" x2="406.999" y2="68.1107" stroke="#C4C4C4"/>
<path d="M155 149.806C155 148.619 155.963 147.656 157.15 147.656H159.473C160.66 147.656 161.623 148.619 161.623 149.806V160.902H157.15C155.963 160.902 155 159.939 155 158.751V149.806Z" stroke="white" stroke-width="1.07517"/>
<path d="M166.095 154.279C167.283 154.279 168.246 155.242 168.246 156.429L168.246 158.751C168.246 159.939 167.283 160.902 166.095 160.902L157.15 160.902C155.963 160.902 155 159.939 155 158.751L155 154.279L166.095 154.279Z" stroke="white" stroke-width="1.07517"/>
<rect x="165.838" y="146" width="5.96057" height="5.96057" rx="2.15034" transform="rotate(45 165.838 146)" stroke="white" stroke-width="1.07517"/>
<rect x="133" y="89" width="24.8608" height="24.8608" rx="2.31264" fill="#979797"/>
<path d="M138 97.8061C138 96.6185 138.963 95.6558 140.15 95.6558H142.473C143.66 95.6558 144.623 96.6185 144.623 97.8061V108.901H140.15C138.963 108.901 138 107.939 138 106.751V97.8061Z" stroke="white" stroke-width="1.07517"/>
<path d="M149.095 102.279C150.283 102.279 151.246 103.241 151.246 104.429L151.246 106.751C151.246 107.939 150.283 108.901 149.095 108.901L140.15 108.901C138.963 108.901 138 107.939 138 106.751L138 102.279L149.095 102.279Z" stroke="white" stroke-width="1.07517"/>
<rect x="148.838" y="94" width="5.96057" height="5.96057" rx="2.15034" transform="rotate(45 148.838 94)" stroke="white" stroke-width="1.07517"/>
<rect x="169" y="89" width="113" height="78" rx="2" fill="#E5E5E5"/>
<rect x="176" y="101" width="50" height="8" rx="4" fill="#DDDDDD"/>
<rect x="176" y="119" width="100" height="8" rx="4" fill="#DDDDDD"/>
<rect x="176" y="137" width="100" height="8" rx="4" fill="#DDDDDD"/>
<rect x="262" y="203" width="168" height="40" fill="#0078D4"/>
<rect x="298" y="211" width="120" height="10" rx="5" fill="#ADD6FF" fill-opacity="0.501961"/>
<rect x="298" y="225" width="60" height="10" rx="5" fill="#ADD6FF" fill-opacity="0.501961"/>
<path d="M274.445 216.537C274.445 215.262 275.479 214.229 276.754 214.229H279.176C280.451 214.229 281.485 215.262 281.485 216.537V228.451H276.754C275.479 228.451 274.445 227.417 274.445 226.142V216.537Z" stroke="white" stroke-width="1.15443"/>
<path d="M286.216 221.34C287.491 221.34 288.525 222.373 288.525 223.648L288.525 226.142C288.525 227.417 287.491 228.451 286.216 228.451L276.754 228.451C275.479 228.451 274.445 227.417 274.445 226.142L274.445 221.34L286.216 221.34Z" stroke="white" stroke-width="1.15443"/>
<rect width="6.36799" height="6.36799" rx="2.30887" transform="matrix(0.703534 0.710661 -0.703534 0.710661 285.965 212.451)" stroke="white" stroke-width="1.15443"/>
</g>
<defs>
<filter id="filter0_d_144_5061" x="0" y="0" width="434" height="264" filterUnits="userSpaceOnUse" color-interpolation-filters="sRGB">
<feFlood flood-opacity="0" result="BackgroundImageFix"/>
<feColorMatrix in="SourceAlpha" type="matrix" values="0 0 0 0 0 0 0 0 0 0 0 0 0 0 0 0 0 0 127 0" result="hardAlpha"/>
<feOffset dy="4"/>
<feGaussianBlur stdDeviation="2"/>
<feComposite in2="hardAlpha" operator="out"/>
<feColorMatrix type="matrix" values="0 0 0 0 0 0 0 0 0 0 0 0 0 0 0 0 0 0 0.5 0"/>
<feBlend mode="normal" in2="BackgroundImageFix" result="effect1_dropShadow_144_5061"/>
<feBlend mode="normal" in="SourceGraphic" in2="effect1_dropShadow_144_5061" result="shape"/>
</filter>
</defs>
</svg>
