<svg width="587" height="414" viewBox="0 0 587 414" fill="none" xmlns="http://www.w3.org/2000/svg">
<rect x="0.5" y="14.5" width="586" height="399" rx="3.5" stroke="var(--vscode-titleBar-activeBackground, #3C3C3C)"/>
<path d="M1 18C1 16.3431 2.34315 15 4 15H583C584.657 15 586 16.3431 586 18V51H1V18Z" fill="var(--vscode-titleBar-activeBackground, #3C3C3C)"/>
<rect width="48" height="332" transform="translate(1 51)" fill="var(--vscode-titleBar-activeBackground, #333333)"/>
<g opacity="0.16">
<rect x="18" y="68" width="14" height="14" stroke="var(--vscode-editor-foreground, white)" stroke-width="2"/>
</g>
<g opacity="0.16">
<rect x="18" y="118" width="14" height="14" stroke="var(--vscode-editor-foreground, white)" stroke-width="2"/>
</g>
<g opacity="0.16">
<rect x="18" y="168" width="14" height="14" stroke="var(--vscode-editor-foreground, white)" stroke-width="2"/>
</g>
<path fill-rule="evenodd" clip-rule="evenodd" d="M26.1872 222V223H33.248C33.766 223 34.187 223.386 34.187 223.861V228.75C34.187 230.335 32.785 231.62 31.056 231.62C30.695 231.62 30.2261 231.553 29.8311 231.327C29.1571 232.899 27.5961 234 25.7772 234H25.5972C23.6542 234 22.0053 232.744 21.4173 231H15.1875C14.6375 231 14.1875 230.55 14.1875 230V220C14.1875 219.45 14.6375 219 15.1875 219H23.1873C23.1873 217.343 24.5302 216 26.1872 216C27.8441 216 29.1871 217.343 29.1871 219C29.1871 220.657 27.8441 222 26.1872 222ZM28.1872 219C28.1872 220.103 27.2902 221 26.1872 221V220C26.1872 219.45 25.7372 219 25.1872 219H24.1872C24.1872 217.897 25.0842 217 26.1872 217C27.2902 217 28.1872 217.897 28.1872 219ZM20.6555 228.875V223.055H22.8195V221.125H16.5555V223.055H18.7325V228.875H20.6555ZM29.1872 229.59V229.631C29.1852 229.657 29.1842 229.685 29.1852 229.713C29.1202 231.536 27.6162 233 25.7772 233H25.5972C24.2192 233 23.0302 232.179 22.4922 231H25.1872C25.7372 231 26.1872 230.55 26.1872 230V224H29.1872V229.59ZM33.187 228.75C33.187 229.781 32.231 230.62 31.056 230.62C30.948 230.62 30.472 230.606 30.221 230.381C30.2238 230.231 30.2122 230.087 30.2017 229.958L30.199 229.924L30.195 229.882L30.195 229.882C30.1902 229.832 30.1856 229.784 30.184 229.74C30.186 229.69 30.187 229.64 30.187 229.59V224H33.187V228.75ZM33.387 220C33.387 220.662 32.849 221.2 32.187 221.2C31.525 221.2 30.987 220.662 30.987 220C30.987 219.338 31.525 218.8 32.187 218.8C32.849 218.8 33.387 219.338 33.387 220ZM32.187 218C33.292 218 34.187 218.896 34.187 220C34.187 221.104 33.292 222 32.187 222C31.083 222 30.187 221.104 30.187 220C30.187 218.896 31.083 218 32.187 218Z" fill="var(--vscode-editor-foreground, white)"/>
<rect x="1.00391" y="201" width="3.5999" height="48" fill="var(--vscode-editor-foreground, white)"/>
<rect width="328" height="332" transform="translate(49 51)" fill="var(--vscode-editor-background, #292929)"/>
<rect opacity="0.16" x="61" y="62" width="53" height="6" rx="3" fill="var(--vscode-editor-foreground, white)"/>
<path opacity="0.16" d="M71.08 93L66.7067 88.68L67.3467 88.04L71.9867 92.7333V93.32L67.3467 98.0133L66.7067 97.3733L71.08 93Z" fill="var(--vscode-editor-foreground, white)"/>
<rect opacity="0.16" x="81" y="90" width="53" height="6" rx="3" fill="var(--vscode-editor-foreground, white)"/>
<line x1="49" y1="106.5" x2="377" y2="106.5" stroke="var(--vscode-titleBar-activeBackground, #3C3C3C)"/>
<path d="M69 123.08L73.32 118.707L73.96 119.347L69.2667 123.987H68.68L63.9867 119.347L64.6267 118.707L69 123.08Z" fill="var(--vscode-menu-foreground, #CCCCCC)"/>
<path d="M82.0254 116.545H85.3535C87.8672 116.545 89.3203 118.062 89.3203 120.717C89.3203 123.453 87.8848 125 85.3535 125H82.0254V116.545ZM83.7949 118.004V123.541H85.0723C86.6367 123.541 87.5156 122.557 87.5156 120.746C87.5156 119 86.6074 118.004 85.0723 118.004H83.7949ZM96.6035 123.541V125H91.002V116.545H96.6035V118.004H92.7715V120.043H96.3867V121.402H92.7715V123.541H96.6035ZM102.861 125H100.723L97.8633 116.545H99.8613L101.783 123.066H101.889L103.775 116.545H105.68L102.861 125ZM112.729 123.541V125H107.127V116.545H112.729V118.004H108.896V120.043H112.512V121.402H108.896V123.541H112.729ZM120.123 123.512V125H114.592V116.545H116.361V123.512H120.123ZM125.191 116.328C127.682 116.328 129.258 118.033 129.258 120.77C129.258 123.506 127.688 125.217 125.191 125.217C122.678 125.217 121.119 123.506 121.119 120.77C121.119 118.027 122.701 116.328 125.191 116.328ZM125.191 117.828C123.814 117.828 122.93 118.971 122.93 120.77C122.93 122.562 123.797 123.717 125.191 123.717C126.568 123.717 127.447 122.562 127.447 120.77C127.447 118.971 126.562 117.828 125.191 117.828ZM130.939 116.545H134.467C136.207 116.545 137.396 117.705 137.396 119.451C137.396 121.174 136.16 122.334 134.379 122.334H132.709V125H130.939V116.545ZM132.709 117.951V120.945H133.992C135.006 120.945 135.598 120.418 135.598 119.457C135.598 118.473 135.018 117.951 133.998 117.951H132.709ZM147.979 125H146.338V119.275H146.244L144.094 124.584H142.916L140.76 119.275H140.666V125H139.025V116.545H141.111L143.449 122.375H143.555L145.898 116.545H147.979V125ZM155.631 123.541V125H150.029V116.545H155.631V118.004H151.799V120.043H155.414V121.402H151.799V123.541H155.631ZM159.188 125H157.494V116.545H158.971L162.861 121.93H162.967V116.545H164.66V125H163.195L159.293 119.592H159.188V125ZM170.537 125H168.768V118.004H166.23V116.545H173.074V118.004H170.537V125Z" fill="var(--vscode-menu-foreground, #CCCCCC)"/>
<rect x="49.5" y="134.5" width="327" height="113" stroke="var(--vscode-button-background, #007ACC)"/>
<path opacity="0.16" d="M76.9867 143.987V154.013H87.0133V143.987H76.9867ZM86 153H78V145H86V153Z" fill="var(--vscode-editor-foreground, white)"/>
<rect opacity="0.16" x="94" y="146" width="72" height="6" rx="3" fill="var(--vscode-editor-foreground, white)"/>
<path opacity="0.16" d="M76.9867 171.987V182.013H87.0133V171.987H76.9867ZM86 181H78V173H86V181Z" fill="var(--vscode-editor-foreground, white)"/>
<rect opacity="0.16" x="94" y="174" width="120" height="6" rx="3" fill="var(--vscode-editor-foreground, white)"/>
<path d="M83.1333 206.267L84 207.133L82.6 208.533L82.7333 208.733V210H84V211.2H82.7333V211.267C82.6889 211.711 82.5778 212.111 82.4 212.467L84 214.133L83.1333 215L81.7333 213.6C81.4222 214.044 81.0222 214.4 80.5333 214.667C80.0444 214.889 79.5333 215 79 215C78.4667 215 77.9556 214.889 77.4667 214.667C76.9778 214.4 76.5778 214.044 76.2667 213.6L74.8667 215L74 214.133L75.6 212.533C75.4222 212.133 75.3111 211.733 75.2667 211.333V211.267H74V210H75.2667V208.733L75.4667 208.533L74 207.133L74.8667 206.267L76 207.333C76.1778 206.667 76.5333 206.111 77.0667 205.667C77.6444 205.222 78.2889 205 79 205C79.7111 205 80.3333 205.222 80.8667 205.667C81.4444 206.111 81.8222 206.667 82 207.333L83.1333 206.267ZM79 206.267C78.4667 206.267 78.0222 206.444 77.6667 206.8C77.3111 207.156 77.1333 207.6 77.1333 208.133H80.8667C80.8667 207.6 80.6889 207.156 80.3333 206.8C79.9778 206.444 79.5333 206.267 79 206.267ZM81.5333 211.267V209.4H76.5333V211.267C76.5778 211.933 76.8222 212.511 77.2667 213C77.7556 213.444 78.3333 213.689 79 213.733C79.6667 213.689 80.2222 213.444 80.6667 213C81.1556 212.511 81.4444 211.933 81.5333 211.267ZM93.8 203L81.2 195L80.2667 195.533V203.933C80.7111 204.067 81.1333 204.267 81.5333 204.533V196.667L92.3333 203.533L85.2667 208V209.467L93.8 204.067V203Z" fill="var(--vscode-editor-foreground, white)"/>
<path d="M99.0605 200.545H102.371C104.023 200.545 105.16 201.682 105.16 203.346C105.16 204.975 103.988 206.111 102.33 206.111H100.373V209H99.0605V200.545ZM100.373 201.652V205.01H102.025C103.156 205.01 103.818 204.406 103.818 203.346C103.818 202.25 103.18 201.652 102.025 201.652H100.373ZM106.707 209V202.637H107.92V203.604H108.014C108.195 202.977 108.904 202.525 109.736 202.525C109.924 202.525 110.164 202.543 110.299 202.572V203.756C110.193 203.727 109.818 203.686 109.596 203.686C108.641 203.686 107.967 204.301 107.967 205.197V209H106.707ZM115.531 207.295H116.744C116.469 208.42 115.438 209.123 113.979 209.123C112.15 209.123 111.031 207.863 111.031 205.83C111.031 203.809 112.174 202.514 113.973 202.514C115.748 202.514 116.82 203.727 116.82 205.719V206.152H112.314V206.211C112.355 207.365 113.006 208.092 114.014 208.092C114.775 208.092 115.297 207.811 115.531 207.295ZM113.967 203.539C113.035 203.539 112.385 204.219 112.314 205.244H115.537C115.508 204.213 114.898 203.539 113.967 203.539ZM123.594 202.637L121.297 209H119.943L117.641 202.637H118.988L120.576 207.711H120.676L122.258 202.637H123.594ZM125.521 201.5C125.082 201.5 124.725 201.143 124.725 200.709C124.725 200.27 125.082 199.912 125.521 199.912C125.961 199.912 126.318 200.27 126.318 200.709C126.318 201.143 125.961 201.5 125.521 201.5ZM124.895 209V202.637H126.148V209H124.895ZM132.184 207.295H133.396C133.121 208.42 132.09 209.123 130.631 209.123C128.803 209.123 127.684 207.863 127.684 205.83C127.684 203.809 128.826 202.514 130.625 202.514C132.4 202.514 133.473 203.727 133.473 205.719V206.152H128.967V206.211C129.008 207.365 129.658 208.092 130.666 208.092C131.428 208.092 131.949 207.811 132.184 207.295ZM130.619 203.539C129.688 203.539 129.037 204.219 128.967 205.244H132.189C132.16 204.213 131.551 203.539 130.619 203.539ZM143.246 202.637L141.494 209H140.188L138.869 204.254H138.77L137.457 209H136.162L134.404 202.637H135.682L136.824 207.547H136.918L138.23 202.637H139.438L140.75 207.547H140.85L141.986 202.637H143.246ZM151.619 209H150.307V205.537L147.33 200.545H148.789L150.916 204.23H151.016L153.143 200.545H154.602L151.619 205.537V209ZM157.578 209.123C155.709 209.123 154.566 207.875 154.566 205.818C154.566 203.768 155.715 202.514 157.578 202.514C159.436 202.514 160.584 203.762 160.584 205.818C160.584 207.875 159.441 209.123 157.578 209.123ZM157.578 208.051C158.668 208.051 159.289 207.23 159.289 205.818C159.289 204.4 158.668 203.58 157.578 203.58C156.482 203.58 155.867 204.4 155.867 205.818C155.867 207.236 156.482 208.051 157.578 208.051ZM167.48 202.637V209H166.268V207.992H166.168C165.857 208.713 165.207 209.123 164.24 209.123C162.828 209.123 162.043 208.262 162.043 206.768V202.637H163.303V206.457C163.303 207.512 163.719 208.016 164.645 208.016C165.664 208.016 166.221 207.395 166.221 206.369V202.637H167.48ZM169.309 209V202.637H170.521V203.604H170.615C170.797 202.977 171.506 202.525 172.338 202.525C172.525 202.525 172.766 202.543 172.9 202.572V203.756C172.795 203.727 172.42 203.686 172.197 203.686C171.242 203.686 170.568 204.301 170.568 205.197V209H169.309ZM180.998 209H179.686V201.676H177.025V200.545H183.652V201.676H180.998V209ZM188.152 207.295H189.365C189.09 208.42 188.059 209.123 186.6 209.123C184.771 209.123 183.652 207.863 183.652 205.83C183.652 203.809 184.795 202.514 186.594 202.514C188.369 202.514 189.441 203.727 189.441 205.719V206.152H184.936V206.211C184.977 207.365 185.627 208.092 186.635 208.092C187.396 208.092 187.918 207.811 188.152 207.295ZM186.588 203.539C185.656 203.539 185.006 204.219 184.936 205.244H188.158C188.129 204.213 187.52 203.539 186.588 203.539ZM192.717 209.105C191.486 209.105 190.59 208.367 190.59 207.207C190.59 206.064 191.445 205.402 192.963 205.309L194.691 205.203V204.646C194.691 203.949 194.246 203.557 193.385 203.557C192.682 203.557 192.195 203.82 192.055 204.283H190.836C190.965 203.211 191.996 202.514 193.443 202.514C195.043 202.514 195.945 203.311 195.945 204.646V209H194.732V208.098H194.633C194.252 208.742 193.555 209.105 192.717 209.105ZM193.039 208.092C193.988 208.092 194.691 207.471 194.691 206.65V206.1L193.133 206.205C192.254 206.264 191.855 206.574 191.855 207.154C191.855 207.746 192.354 208.092 193.039 208.092ZM197.738 209V202.637H198.951V203.65H199.045C199.326 202.936 199.971 202.514 200.82 202.514C201.693 202.514 202.297 202.965 202.578 203.65H202.678C203 202.965 203.732 202.514 204.617 202.514C205.906 202.514 206.656 203.287 206.656 204.611V209H205.396V204.916C205.396 204.037 204.986 203.609 204.16 203.609C203.346 203.609 202.812 204.207 202.812 204.975V209H201.576V204.787C201.576 204.061 201.096 203.609 200.346 203.609C199.578 203.609 198.998 204.26 198.998 205.092V209H197.738ZM208.279 204.418C208.279 203.311 209.316 202.514 210.758 202.514C212.193 202.514 213.131 203.182 213.254 204.283H212.047C211.93 203.809 211.473 203.498 210.758 203.498C210.055 203.498 209.521 203.844 209.521 204.359C209.521 204.752 209.844 204.998 210.535 205.162L211.596 205.408C212.809 205.689 213.377 206.211 213.377 207.137C213.377 208.32 212.258 209.123 210.734 209.123C209.217 209.123 208.227 208.438 208.115 207.33H209.375C209.533 207.828 210.002 208.139 210.764 208.139C211.549 208.139 212.105 207.775 212.105 207.254C212.105 206.855 211.807 206.598 211.168 206.445L210.055 206.182C208.842 205.9 208.279 205.361 208.279 204.418ZM223.795 209L223.021 206.715H219.799L219.02 209H217.672L220.725 200.545H222.137L225.189 209H223.795ZM221.363 202.039L220.133 205.66H222.688L221.463 202.039H221.363ZM229.83 202.525C231.453 202.525 232.479 203.797 232.479 205.818C232.479 207.828 231.453 209.105 229.842 209.105C228.934 209.105 228.213 208.713 227.879 208.039H227.779V211.121H226.52V202.637H227.732V203.691H227.826C228.213 202.965 228.963 202.525 229.83 202.525ZM229.473 208.027C230.545 208.027 231.184 207.201 231.184 205.818C231.184 204.436 230.545 203.604 229.479 203.604C228.418 203.604 227.756 204.453 227.756 205.818C227.756 207.178 228.418 208.027 229.473 208.027ZM237.307 202.525C238.93 202.525 239.955 203.797 239.955 205.818C239.955 207.828 238.93 209.105 237.318 209.105C236.41 209.105 235.689 208.713 235.355 208.039H235.256V211.121H233.996V202.637H235.209V203.691H235.303C235.689 202.965 236.439 202.525 237.307 202.525ZM236.949 208.027C238.021 208.027 238.66 207.201 238.66 205.818C238.66 204.436 238.021 203.604 236.955 203.604C235.895 203.604 235.232 204.453 235.232 205.818C235.232 207.178 235.895 208.027 236.949 208.027Z" fill="var(--vscode-menu-foreground, #CCCCCC)"/>
<path opacity="0.16" d="M76.9867 227.987V238.013H87.0133V227.987H76.9867ZM86 237H78V229H86V237Z" fill="var(--vscode-editor-foreground, white)"/>
<rect opacity="0.16" x="94" y="230" width="72" height="6" rx="3" fill="var(--vscode-editor-foreground, white)"/>
<path opacity="0.16" d="M71.08 261L66.7067 256.68L67.3467 256.04L71.9867 260.733V261.32L67.3467 266.013L66.7067 265.373L71.08 261Z" fill="var(--vscode-editor-foreground, white)"/>
<rect opacity="0.16" x="81" y="258" width="53" height="6" rx="3" fill="var(--vscode-editor-foreground, white)"/>
<rect width="209" height="39" transform="translate(377 51)" fill="var(--vscode-editorWidget-background, #252526)"/>
<g clip-path="url(#clip0_82_5897)">
<rect width="103" height="39" transform="translate(377 51)" fill="var(--vscode-editor-background, #1E1E1E)"/>
<rect opacity="0.16" x="390.474" y="66.5701" width="76.0516" height="7.85995" rx="3.92998" fill="var(--vscode-editor-foreground, white)"/>
</g>
<rect x="377" y="90" width="209" height="293" fill="var(--vscode-editor-background, #1E1E1E)"/>
<rect opacity="0.16" x="409" y="114" width="50" height="7" rx="3.5" fill="var(--vscode-editor-foreground, white)"/>
<rect opacity="0.16" x="409" y="133" width="50" height="7" rx="3.5" fill="var(--vscode-editor-foreground, white)"/>
<rect opacity="0.16" x="409" y="190" width="65.4545" height="7" rx="3.5" fill="var(--vscode-editor-foreground, white)"/>
<rect opacity="0.16" x="479.909" y="190" width="23.6364" height="7" rx="3.5" fill="var(--vscode-editor-foreground, white)"/>
<rect opacity="0.16" x="409" y="310" width="65.4545" height="7" rx="3.5" fill="var(--vscode-editor-foreground, white)"/>
<rect opacity="0.16" x="479.909" y="310" width="23.6364" height="7" rx="3.5" fill="var(--vscode-editor-foreground, white)"/>
<rect opacity="0.16" x="424.455" y="209" width="27.2727" height="7" rx="3.5" fill="var(--vscode-editor-foreground, white)"/>
<rect opacity="0.16" x="433.546" y="228" width="27.2727" height="7" rx="3.5" fill="var(--vscode-editor-foreground, white)"/>
<rect opacity="0.16" x="466.272" y="228" width="37.2727" height="7" rx="3.5" fill="var(--vscode-editor-foreground, white)"/>
<rect opacity="0.16" x="424.455" y="247" width="27.2727" height="7" rx="3.5" fill="var(--vscode-editor-foreground, white)"/>
<rect opacity="0.16" x="416.272" y="266" width="28.1818" height="7" rx="3.5" fill="var(--vscode-editor-foreground, white)"/>
<rect opacity="0.16" x="464.455" y="114" width="47.2727" height="7" rx="3.5" fill="var(--vscode-editor-foreground, white)"/>
<rect opacity="0.16" x="464.455" y="133" width="67.2727" height="7" rx="3.5" fill="var(--vscode-editor-foreground, white)"/>
<rect opacity="0.16" x="458.091" y="209" width="53.6364" height="7" rx="3.5" fill="var(--vscode-editor-foreground, white)"/>
<path d="M1 383H586V410C586 411.657 584.657 413 583 413H4C2.34315 413 1 411.657 1 410V383Z" fill="var(--vscode-button-background, #007ACC)"/>
<rect opacity="0.75" x="9.12793" y="395" width="42.9827" height="6.32892" rx="3.16446" fill="var(--vscode-editor-foreground, white)"/>
<rect opacity="0.75" x="61.1621" y="395" width="15.8357" height="6.32892" rx="3.16446" fill="var(--vscode-editor-foreground, white)"/>
<g filter="url(#filter0_d_82_5897)">
<path d="M93.2704 223.28C92.9904 222.92 92.6404 222.19 92.0304 221.28C91.6804 220.78 90.8204 219.83 90.5604 219.34C90.3729 219.042 90.3185 218.68 90.4104 218.34C90.5673 217.694 91.1799 217.266 91.8404 217.34C92.3512 217.443 92.8206 217.693 93.1904 218.06C93.4485 218.303 93.686 218.568 93.9004 218.85C94.0604 219.05 94.1004 219.13 94.2804 219.36C94.4604 219.59 94.5804 219.82 94.4904 219.48C94.4204 218.98 94.3004 218.14 94.1304 217.39C94.0004 216.82 93.9704 216.73 93.8504 216.3C93.7304 215.87 93.6604 215.51 93.5304 215.02C93.4115 214.539 93.3181 214.051 93.2504 213.56C93.1243 212.932 93.216 212.279 93.5104 211.71C93.8598 211.382 94.3723 211.295 94.8104 211.49C95.251 211.816 95.5795 212.27 95.7504 212.79C96.0124 213.431 96.1873 214.103 96.2704 214.79C96.4304 215.79 96.7404 217.25 96.7504 217.55C96.7504 217.18 96.6804 216.4 96.7504 216.05C96.8197 215.685 97.0733 215.382 97.4204 215.25C97.7182 215.159 98.0332 215.138 98.3404 215.19C98.6504 215.255 98.925 215.433 99.1104 215.69C99.342 216.274 99.4706 216.893 99.4904 217.52C99.5171 216.971 99.6112 216.427 99.7704 215.9C99.9375 215.665 100.181 215.495 100.46 215.42C100.791 215.36 101.13 215.36 101.46 215.42C101.731 215.511 101.969 215.682 102.14 215.91C102.352 216.441 102.48 217.001 102.52 217.57C102.52 217.71 102.59 217.18 102.81 216.83C102.925 216.491 103.211 216.238 103.562 216.167C103.914 216.097 104.276 216.219 104.512 216.487C104.749 216.756 104.825 217.131 104.71 217.47C104.71 218.12 104.71 218.09 104.71 218.53C104.71 218.97 104.71 219.36 104.71 219.73C104.674 220.315 104.594 220.897 104.47 221.47C104.296 221.977 104.054 222.458 103.75 222.9C103.265 223.44 102.864 224.05 102.56 224.71C102.485 225.038 102.452 225.374 102.46 225.71C102.459 226.021 102.5 226.33 102.58 226.63C102.171 226.673 101.759 226.673 101.35 226.63C100.96 226.57 100.48 225.79 100.35 225.55C100.286 225.421 100.154 225.34 100.01 225.34C99.8663 225.34 99.7347 225.421 99.6704 225.55C99.4504 225.93 98.9604 226.62 98.6204 226.66C97.9504 226.74 96.5704 226.66 95.4804 226.66C95.4804 226.66 95.6604 225.66 95.2504 225.3C94.8404 224.94 94.4204 224.52 94.1104 224.24L93.2704 223.28Z" fill="var(--vscode-editor-foreground, white)"/>
<path fill-rule="evenodd" clip-rule="evenodd" d="M105.084 219.753C105.085 219.165 105.085 219.165 105.085 218.53V217.527C105.213 217.077 105.104 216.592 104.794 216.239C104.468 215.87 103.971 215.703 103.488 215.8C103.16 215.866 102.872 216.048 102.672 216.305C102.62 216.124 102.558 215.946 102.488 215.771C102.222 215.395 101.922 215.179 101.579 215.064C101.152 214.983 100.768 214.983 100.393 215.051C100.017 215.151 99.7104 215.357 99.4939 215.643C99.4824 215.612 99.4707 215.582 99.4587 215.552C99.1742 215.138 98.8185 214.907 98.4169 214.823C98.0379 214.759 97.6638 214.783 97.3101 214.892C97.0829 214.978 96.8876 215.111 96.7339 215.279C96.697 215.072 96.6664 214.893 96.6404 214.731C96.5554 214.025 96.372 213.319 96.0972 212.648C95.9112 212.079 95.5361 211.56 95.0329 211.188C94.3868 210.891 93.7127 211.005 93.2532 211.437L93.177 211.538C92.8436 212.183 92.7397 212.922 92.8825 213.634C92.9482 214.116 93.0441 214.616 93.1661 215.11C93.2226 215.323 93.2228 215.324 93.3424 215.825L93.3734 215.954C93.4141 216.122 93.4497 216.26 93.4889 216.401C93.5561 216.64 93.5821 216.733 93.6045 216.816L93.6178 216.865C93.659 217.021 93.6995 217.188 93.7645 217.473C93.8241 217.736 93.8767 218.001 93.9271 218.288C93.7769 218.114 93.6163 217.946 93.4473 217.787C93.0324 217.375 92.4968 217.089 91.914 216.972C91.0339 216.872 90.2473 217.422 90.0458 218.252C89.929 218.683 89.9996 219.153 90.2428 219.54C90.3582 219.759 90.5818 220.061 90.9792 220.554L91.041 220.63C91.5023 221.2 91.5853 221.302 91.6621 221.409C91.6809 221.435 91.6994 221.461 91.7229 221.495C91.8677 221.711 92.1214 222.13 92.3662 222.533C92.6398 222.985 92.902 223.417 92.9879 223.527L93.8279 224.487C93.9378 224.589 94.2294 224.865 94.4294 225.054C94.5281 225.147 94.6045 225.22 94.6259 225.239C94.7228 225.33 94.8117 225.411 94.8971 225.488C94.9235 225.512 94.9367 225.523 94.9499 225.535C94.9631 225.547 94.9763 225.559 95.0027 225.582C95.0624 225.634 95.1126 225.766 95.1336 225.957C95.1514 226.12 95.1465 226.301 95.1271 226.476C95.1207 226.533 95.1146 226.574 95.1111 226.594C95.0697 226.824 95.2464 227.035 95.4801 227.035C95.7493 227.035 96.0272 227.039 96.4689 227.049L96.6212 227.053C97.8178 227.08 98.2664 227.08 98.6646 227.032C99.1197 226.979 99.6039 226.413 100.015 225.718C100.364 226.363 100.813 226.927 101.293 227.001C101.746 227.049 102.184 227.049 102.62 227.003C102.849 226.979 103.002 226.755 102.942 226.533C102.87 226.265 102.834 225.989 102.835 225.711C102.827 225.396 102.857 225.091 102.926 224.794C103.188 224.241 103.569 223.663 104.029 223.151C104.382 222.643 104.64 222.131 104.825 221.592C104.964 220.957 105.047 220.357 105.084 219.753ZM95.0019 224.563C94.8068 224.378 94.4658 224.056 94.3615 223.962L93.5611 223.043C93.5026 222.964 93.3121 222.649 93.091 222.282C92.828 221.847 92.5216 221.34 92.3416 221.071C92.2582 220.952 92.1552 220.817 92.0147 220.641C91.9601 220.573 91.9211 220.525 91.8233 220.404L91.6238 220.158L91.5629 220.083C91.1982 219.631 90.9895 219.349 90.8914 219.164C90.7459 218.931 90.7077 218.676 90.7722 218.438C90.8869 217.966 91.3255 217.66 91.7983 217.713C92.2051 217.796 92.6083 218.011 92.926 218.326C93.1761 218.562 93.3996 218.811 93.6014 219.077C93.664 219.155 93.7033 219.208 93.7652 219.295C93.8717 219.444 93.9021 219.485 93.9848 219.591C93.9907 219.599 94.0066 219.62 94.0277 219.649C94.0855 219.727 94.1818 219.857 94.2135 219.891C94.2527 219.941 94.2527 219.941 94.4521 220.023C94.88 219.865 94.8824 219.861 94.8949 219.66C94.8998 219.581 94.8861 219.511 94.8527 219.384C94.7384 218.549 94.6371 217.93 94.4959 217.307C94.429 217.014 94.3865 216.838 94.3428 216.673L94.3286 216.62C94.3051 216.533 94.278 216.436 94.2113 216.199C94.1746 216.068 94.1411 215.937 94.1022 215.777L94.0719 215.651C93.9504 215.142 93.9499 215.14 93.8926 214.924C93.7785 214.462 93.6875 213.987 93.6216 213.509C93.5132 212.965 93.5818 212.422 93.8128 211.943C94.0496 211.752 94.376 211.707 94.6574 211.833C94.9654 212.071 95.2472 212.461 95.3939 212.907C95.6524 213.541 95.8188 214.181 95.8979 214.835C95.9412 215.108 95.9936 215.405 96.0637 215.784L96.0948 215.952C96.3692 217.424 96.3711 217.435 96.3754 217.563C96.3917 218.054 97.1251 218.042 97.1251 217.55C97.1251 217.442 97.123 217.384 97.1093 217.059C97.1039 216.93 97.1017 216.876 97.0993 216.801C97.0887 216.469 97.094 216.243 97.1179 216.124C97.1636 215.883 97.3283 215.686 97.5537 215.6C97.7721 215.534 98.0281 215.518 98.2776 215.56C98.4819 215.603 98.6754 215.728 98.806 215.909C98.9773 216.372 99.097 216.948 99.1153 217.532C99.1304 218.012 99.8413 218.018 99.8647 217.538C99.8889 217.042 99.9714 216.549 100.11 216.072C100.225 215.931 100.381 215.83 100.557 215.782C100.814 215.737 101.107 215.737 101.393 215.789C101.54 215.842 101.714 215.968 101.84 216.135C101.989 216.543 102.109 217.065 102.146 217.596C102.144 217.596 102.142 217.595 102.14 217.596C102.135 217.599 102.151 217.635 102.243 217.843C102.624 217.909 102.74 217.93 102.796 217.881C102.82 217.86 102.833 217.825 102.851 217.776L102.851 217.776C102.877 217.723 102.877 217.723 102.884 217.701C102.893 217.674 102.903 217.637 102.92 217.571C102.958 217.43 102.992 217.32 103.036 217.212C103.066 217.141 103.096 217.08 103.128 217.03C103.237 216.737 103.417 216.579 103.636 216.535C103.856 216.491 104.083 216.567 104.231 216.735C104.379 216.903 104.426 217.138 104.355 217.35L104.335 217.47V219.73C104.301 220.273 104.223 220.836 104.104 221.391C103.952 221.823 103.726 222.274 103.441 222.688C102.96 223.217 102.538 223.859 102.219 224.553C102.112 224.985 102.076 225.352 102.085 225.72C102.085 225.906 102.098 226.096 102.126 226.285C101.88 226.292 101.634 226.283 101.39 226.257C101.268 226.238 100.896 225.771 100.68 225.371C100.558 225.127 100.296 224.965 100.01 224.965C99.724 224.965 99.4624 225.127 99.3346 225.383C99.0864 225.81 98.689 226.274 98.5763 226.288C98.2294 226.329 97.7862 226.329 96.6383 226.303L96.4856 226.299C96.2499 226.294 96.06 226.291 95.8927 226.288C95.8976 226.15 95.894 226.011 95.8791 225.876C95.8397 225.515 95.7266 225.219 95.4976 225.018C95.4729 224.997 95.4605 224.986 95.4481 224.975C95.4355 224.963 95.4231 224.952 95.3979 224.93C95.3165 224.857 95.2311 224.778 95.1375 224.691C95.1221 224.677 95.0712 224.629 95.0019 224.563Z" fill="black"/>
<path d="M101.75 223.826V220.374C101.75 220.167 101.582 220 101.375 220C101.168 220 101 220.167 101 220.374V223.826C101 224.033 101.168 224.2 101.375 224.2C101.582 224.2 101.75 224.033 101.75 223.826Z" fill="black"/>
<path d="M99.77 223.825L99.75 220.371C99.7488 220.165 99.5799 219.999 99.3728 220C99.1657 220.001 98.9988 220.169 99 220.375L99.02 223.829C99.0212 224.035 99.1901 224.201 99.3972 224.2C99.6043 224.199 99.7712 224.031 99.77 223.825Z" fill="black"/>
<path d="M97 220.379L97.02 223.825C97.0212 224.033 97.1901 224.201 97.3972 224.2C97.6043 224.199 97.7712 224.029 97.77 223.821L97.75 220.375C97.7488 220.167 97.5799 219.999 97.3728 220C97.1657 220.001 96.9988 220.171 97 220.379Z" fill="black"/>
</g>
<g filter="url(#filter1_d_82_5897)">
<rect width="352" height="204" transform="translate(142 14)" fill="var(--vscode-editorWidget-background, #252526)"/>
<rect x="149.5" y="21.5" width="337" height="25" fill="var(--vscode-titleBar-activeBackground, #3C3C3C)"/>
<rect x="149.5" y="21.5" width="337" height="25" stroke="var(--vscode-button-background, #007FD4)"/>
<path d="M157.517 39.1143C155.758 39.1143 154.647 37.7305 154.647 35.5469C154.647 33.376 155.771 31.9858 157.517 31.9858C158.462 31.9858 159.262 32.4429 159.637 33.1982H159.738V29.4023H161.103V39H159.795V37.9082H159.688C159.275 38.6636 158.469 39.1143 157.517 39.1143ZM157.904 33.1538C156.755 33.1538 156.057 34.0615 156.057 35.5532C156.057 37.0513 156.749 37.9463 157.904 37.9463C159.053 37.9463 159.764 37.0386 159.764 35.5532C159.764 34.0806 159.046 33.1538 157.904 33.1538ZM167.686 37.1528H169C168.701 38.3716 167.584 39.1333 166.003 39.1333C164.023 39.1333 162.811 37.7686 162.811 35.5659C162.811 33.376 164.048 31.9731 165.997 31.9731C167.92 31.9731 169.082 33.2871 169.082 35.4453V35.915H164.201V35.9785C164.245 37.229 164.95 38.0161 166.042 38.0161C166.867 38.0161 167.432 37.7114 167.686 37.1528ZM165.991 33.084C164.981 33.084 164.277 33.8203 164.201 34.9312H167.692C167.66 33.814 167 33.084 165.991 33.084ZM174.382 39.1143C173.417 39.1143 172.611 38.6699 172.199 37.9082H172.097V39H170.783V29.4023H172.148V33.1982H172.256C172.624 32.4492 173.437 31.9858 174.382 31.9858C176.134 31.9858 177.239 33.3633 177.239 35.5532C177.239 37.7241 176.128 39.1143 174.382 39.1143ZM173.989 33.1538C172.846 33.1538 172.129 34.0742 172.123 35.5532C172.129 37.0322 172.84 37.9463 173.989 37.9463C175.144 37.9463 175.836 37.0449 175.836 35.5532C175.836 34.0615 175.144 33.1538 173.989 33.1538ZM184.71 32.1064V39H183.396V37.9082H183.288C182.952 38.689 182.247 39.1333 181.2 39.1333C179.67 39.1333 178.819 38.2002 178.819 36.5815V32.1064H180.184V36.2451C180.184 37.3877 180.635 37.9336 181.638 37.9336C182.742 37.9336 183.345 37.2607 183.345 36.1499V32.1064H184.71ZM189.604 41.6343C187.877 41.6343 186.76 40.8662 186.614 39.7046H188.011C188.125 40.2251 188.703 40.5552 189.623 40.5552C190.759 40.5552 191.432 39.9966 191.432 39.0635V37.7368H191.331C190.912 38.4858 190.15 38.8984 189.198 38.8984C187.433 38.8984 186.341 37.5337 186.341 35.4644C186.341 33.376 187.446 31.9858 189.21 31.9858C190.163 31.9858 190.994 32.4556 191.381 33.2046H191.489V32.1064H192.797V39.0698C192.797 40.6377 191.559 41.6343 189.604 41.6343ZM189.585 37.7686C190.753 37.7686 191.458 36.8735 191.458 35.4644C191.458 34.0552 190.747 33.1538 189.585 33.1538C188.411 33.1538 187.75 34.0552 187.75 35.4644C187.75 36.8735 188.411 37.7686 189.585 37.7686Z" fill="var(--vscode-input-placeholderForeground, #9D9D9D)"/>
<rect width="352" height="24" transform="translate(142 54)" fill="var(--vscode-list-activeSelectionBackground, #062F4A)"/>
<path d="M155.149 61.8403H158.456C161.173 61.8403 162.766 63.5161 162.766 66.3979C162.766 69.3115 161.186 71 158.456 71H155.149V61.8403ZM156.571 63.0654V69.7749H158.297C160.214 69.7749 161.319 68.5498 161.319 66.417C161.319 64.3032 160.195 63.0654 158.297 63.0654H156.571ZM169.069 69.1528H170.383C170.085 70.3716 168.968 71.1333 167.387 71.1333C165.407 71.1333 164.194 69.7686 164.194 67.5659C164.194 65.376 165.432 63.9731 167.381 63.9731C169.304 63.9731 170.466 65.2871 170.466 67.4453V67.915H165.584V67.9785C165.629 69.229 166.333 70.0161 167.425 70.0161C168.25 70.0161 168.815 69.7114 169.069 69.1528ZM167.375 65.084C166.365 65.084 165.661 65.8203 165.584 66.9312H169.076C169.044 65.814 168.384 65.084 167.375 65.084ZM175.766 71.1143C174.801 71.1143 173.995 70.6699 173.583 69.9082H173.481V71H172.167V61.4023H173.532V65.1982H173.64C174.008 64.4492 174.82 63.9858 175.766 63.9858C177.518 63.9858 178.623 65.3633 178.623 67.5532C178.623 69.7241 177.512 71.1143 175.766 71.1143ZM175.373 65.1538C174.23 65.1538 173.513 66.0742 173.506 67.5532C173.513 69.0322 174.224 69.9463 175.373 69.9463C176.528 69.9463 177.22 69.0449 177.22 67.5532C177.22 66.0615 176.528 65.1538 175.373 65.1538ZM186.094 64.1064V71H184.78V69.9082H184.672C184.335 70.689 183.631 71.1333 182.583 71.1333C181.054 71.1333 180.203 70.2002 180.203 68.5815V64.1064H181.568V68.2451C181.568 69.3877 182.019 69.9336 183.021 69.9336C184.126 69.9336 184.729 69.2607 184.729 68.1499V64.1064H186.094ZM190.988 73.6343C189.261 73.6343 188.144 72.8662 187.998 71.7046H189.395C189.509 72.2251 190.086 72.5552 191.007 72.5552C192.143 72.5552 192.816 71.9966 192.816 71.0635V69.7368H192.714C192.295 70.4858 191.534 70.8984 190.582 70.8984C188.817 70.8984 187.725 69.5337 187.725 67.4644C187.725 65.376 188.83 63.9858 190.594 63.9858C191.546 63.9858 192.378 64.4556 192.765 65.2046H192.873V64.1064H194.181V71.0698C194.181 72.6377 192.943 73.6343 190.988 73.6343ZM190.969 69.7686C192.137 69.7686 192.841 68.8735 192.841 67.4644C192.841 66.0552 192.13 65.1538 190.969 65.1538C189.794 65.1538 189.134 66.0552 189.134 67.4644C189.134 68.8735 189.794 69.7686 190.969 69.7686ZM200.42 62.875C199.944 62.875 199.557 62.4878 199.557 62.0181C199.557 61.542 199.944 61.1548 200.42 61.1548C200.896 61.1548 201.284 61.542 201.284 62.0181C201.284 62.4878 200.896 62.875 200.42 62.875ZM199.741 71V64.1064H201.1V71H199.741ZM203.105 71V64.1064H204.419V65.1982H204.521C204.857 64.4365 205.543 63.9731 206.584 63.9731C208.126 63.9731 208.977 64.8936 208.977 66.5376V71H207.612V66.8613C207.612 65.7188 207.13 65.1602 206.121 65.1602C205.111 65.1602 204.47 65.8457 204.47 66.9565V71H203.105ZM218.359 71H216.937V63.0654H214.055V61.8403H221.234V63.0654H218.359V71ZM226.109 69.1528H227.423C227.125 70.3716 226.008 71.1333 224.427 71.1333C222.447 71.1333 221.234 69.7686 221.234 67.5659C221.234 65.376 222.472 63.9731 224.421 63.9731C226.344 63.9731 227.506 65.2871 227.506 67.4453V67.915H222.625V67.9785C222.669 69.229 223.374 70.0161 224.465 70.0161C225.291 70.0161 225.855 69.7114 226.109 69.1528ZM224.415 65.084C223.405 65.084 222.701 65.8203 222.625 66.9312H226.116C226.084 65.814 225.424 65.084 224.415 65.084ZM228.985 66.0361C228.985 64.8364 230.108 63.9731 231.67 63.9731C233.225 63.9731 234.241 64.6968 234.374 65.8901H233.066C232.939 65.376 232.444 65.0396 231.67 65.0396C230.908 65.0396 230.331 65.4141 230.331 65.9727C230.331 66.3979 230.68 66.6646 231.429 66.8423L232.578 67.1089C233.892 67.4136 234.507 67.9785 234.507 68.9814C234.507 70.2637 233.295 71.1333 231.645 71.1333C230 71.1333 228.928 70.3906 228.807 69.1909H230.172C230.343 69.7305 230.851 70.0669 231.676 70.0669C232.527 70.0669 233.13 69.6733 233.13 69.1084C233.13 68.6768 232.806 68.3975 232.114 68.2324L230.908 67.9468C229.594 67.6421 228.985 67.0581 228.985 66.0361ZM236.583 62.3672H237.948V64.1255H239.446V65.2173H237.948V68.8545C237.948 69.5972 238.246 69.9209 238.925 69.9209C239.135 69.9209 239.255 69.9082 239.446 69.8892V70.9746C239.224 71.0127 238.97 71.0444 238.703 71.0444C237.186 71.0444 236.583 70.5112 236.583 69.1846V65.2173H235.485V64.1255H236.583V62.3672ZM248.51 71H247.088V63.0654H244.207V61.8403H251.386V63.0654H248.51V71ZM254.648 71.1333C252.624 71.1333 251.386 69.7812 251.386 67.5532C251.386 65.3315 252.63 63.9731 254.648 63.9731C256.661 63.9731 257.905 65.3252 257.905 67.5532C257.905 69.7812 256.667 71.1333 254.648 71.1333ZM254.648 69.9717C255.829 69.9717 256.502 69.083 256.502 67.5532C256.502 66.0171 255.829 65.1284 254.648 65.1284C253.461 65.1284 252.795 66.0171 252.795 67.5532C252.795 69.0894 253.461 69.9717 254.648 69.9717ZM262.469 71.1333C260.444 71.1333 259.206 69.7812 259.206 67.5532C259.206 65.3315 260.45 63.9731 262.469 63.9731C264.481 63.9731 265.725 65.3252 265.725 67.5532C265.725 69.7812 264.487 71.1333 262.469 71.1333ZM262.469 69.9717C263.649 69.9717 264.322 69.083 264.322 67.5532C264.322 66.0171 263.649 65.1284 262.469 65.1284C261.282 65.1284 260.615 66.0171 260.615 67.5532C260.615 69.0894 261.282 69.9717 262.469 69.9717ZM267.433 71V61.4023H268.797V71H267.433Z" fill="var(--vscode-checkbox-foreground, #E3E3E3)"/>
<path d="M483.12 62.3733L482.587 59.9733H481.413L480.88 62.3733L480.187 62.6933L478.213 61.4133L477.307 62.2133L478.587 64.1867L478.427 64.88L476.027 65.4133V66.5867L478.427 67.12L478.693 67.92L477.413 69.8933L478.213 70.6933L480.187 69.4133L480.987 69.68L481.413 71.9733H482.587L483.12 69.5733L483.92 69.3067L485.893 70.5867L486.693 69.7867L485.413 67.8133L485.68 67.0133L488.027 66.5867V65.4133L485.627 64.88L485.307 64.08L486.587 62.1067L485.787 61.3067L483.813 62.5867L483.12 62.3733ZM483.387 59.0133L483.92 61.4133L486 60.08L488.027 62.1067L486.587 64.1867L488.987 64.6133V67.3867L486.587 67.92L488.027 70L486 71.9733L483.92 70.5867L483.387 72.9867H480.613L480.08 70.5867L478 71.92L476.027 69.8933L477.413 67.8133L475.013 67.3867V64.6133L477.413 64.08L476.08 62L478.107 59.9733L480.187 61.4133L480.613 59.0133H483.387ZM484.027 66C484.027 66.5333 483.813 66.9956 483.387 67.3867C482.996 67.7778 482.533 67.9733 482 67.9733C481.467 67.9733 481.004 67.7778 480.613 67.3867C480.222 66.9956 480.027 66.5333 480.027 66C480.027 65.4667 480.222 65.0044 480.613 64.6133C481.004 64.1867 481.467 63.9733 482 63.9733C482.533 63.9733 482.996 64.1867 483.387 64.6133C483.813 65.0044 484.027 65.4667 484.027 66ZM482 67.0133C482.284 67.0133 482.516 66.9244 482.693 66.7467C482.907 66.5333 483.013 66.2844 483.013 66C483.013 65.7156 482.907 65.4844 482.693 65.3067C482.516 65.0933 482.284 64.9867 482 64.9867C481.716 64.9867 481.467 65.0933 481.253 65.3067C481.076 65.4844 480.987 65.7156 480.987 66C480.987 66.2844 481.076 66.5333 481.253 66.7467C481.467 66.9244 481.716 67.0133 482 67.0133Z" fill="var(--vscode-menu-foreground, #CCCCCC)"/>
<rect x="187" y="88" width="38" height="6" rx="3" fill="var(--vscode-editor-foreground, white)" fill-opacity="0.16"/>
<rect x="229" y="88" width="105" height="6" rx="3" fill="var(--vscode-editor-foreground, white)" fill-opacity="0.16"/>
<rect x="154" y="87.9014" width="30" height="6" rx="3" fill="var(--vscode-editor-foreground, white)" fill-opacity="0.16"/>
<rect x="154" y="110" width="30" height="6" rx="3" fill="var(--vscode-editor-foreground, white)" fill-opacity="0.16"/>
<rect x="188" y="110" width="62" height="6" rx="3" fill="var(--vscode-editor-foreground, white)" fill-opacity="0.16"/>
<rect x="254" y="110" width="62" height="6" rx="3" fill="var(--vscode-editor-foreground, white)" fill-opacity="0.16"/>
<rect x="154" y="132" width="30" height="6" rx="3" fill="var(--vscode-editor-foreground, white)" fill-opacity="0.16"/>
<rect x="188" y="132" width="41" height="6" rx="3" fill="var(--vscode-editor-foreground, white)" fill-opacity="0.16"/>
<rect x="233" y="132" width="65" height="6" rx="3" fill="var(--vscode-editor-foreground, white)" fill-opacity="0.16"/>
<rect x="154" y="154" width="30" height="6" rx="3" fill="var(--vscode-editor-foreground, white)" fill-opacity="0.16"/>
<rect x="188" y="154" width="160" height="6" rx="3" fill="var(--vscode-editor-foreground, white)" fill-opacity="0.16"/>
<rect x="154" y="176" width="30" height="6" rx="3" fill="var(--vscode-editor-foreground, white)" fill-opacity="0.16"/>
<rect x="188" y="176" width="45.5" height="6" rx="3" fill="var(--vscode-editor-foreground, white)" fill-opacity="0.16"/>
<rect x="237.5" y="176" width="45.5" height="6" rx="3" fill="var(--vscode-editor-foreground, white)" fill-opacity="0.16"/>
<rect x="154" y="198" width="30" height="6" rx="3" fill="var(--vscode-editor-foreground, white)" fill-opacity="0.16"/>
<rect x="188" y="198" width="83" height="6" rx="3" fill="var(--vscode-editor-foreground, white)" fill-opacity="0.16"/>
<rect x="275" y="198" width="98" height="6" rx="3" fill="var(--vscode-editor-foreground, white)" fill-opacity="0.16"/>
</g>
<defs>
<filter id="filter0_d_82_5897" x="89.1907" y="211.022" width="16.747" height="17.8488" filterUnits="userSpaceOnUse" color-interpolation-filters="sRGB">
<feFlood flood-opacity="0" result="BackgroundImageFix"/>
<feColorMatrix in="SourceAlpha" type="matrix" values="0 0 0 0 0 0 0 0 0 0 0 0 0 0 0 0 0 0 127 0" result="hardAlpha"/>
<feOffset dy="1"/>
<feGaussianBlur stdDeviation="0.4"/>
<feColorMatrix type="matrix" values="0 0 0 0 0 0 0 0 0 0 0 0 0 0 0 0 0 0 0.5 0"/>
<feBlend mode="normal" in2="BackgroundImageFix" result="effect1_dropShadow_82_5897"/>
<feBlend mode="normal" in="SourceGraphic" in2="effect1_dropShadow_82_5897" result="shape"/>
</filter>
<filter id="filter1_d_82_5897" x="126" y="0" width="384" height="236" filterUnits="userSpaceOnUse" color-interpolation-filters="sRGB">
<feFlood flood-opacity="0" result="BackgroundImageFix"/>
<feColorMatrix in="SourceAlpha" type="matrix" values="0 0 0 0 0 0 0 0 0 0 0 0 0 0 0 0 0 0 127 0" result="hardAlpha"/>
<feOffset dy="2"/>
<feGaussianBlur stdDeviation="8"/>
<feColorMatrix type="matrix" values="0 0 0 0 0 0 0 0 0 0 0 0 0 0 0 0 0 0 0.36 0"/>
<feBlend mode="normal" in2="BackgroundImageFix" result="effect1_dropShadow_82_5897"/>
<feBlend mode="normal" in="SourceGraphic" in2="effect1_dropShadow_82_5897" result="shape"/>
</filter>
<clipPath id="clip0_82_5897">
<rect width="103" height="39" fill="var(--vscode-editor-foreground, white)" transform="translate(377 51)"/>
</clipPath>
</defs>
</svg>
