<svg width="588" height="362" viewBox="0 0 588 362" fill="none" xmlns="http://www.w3.org/2000/svg">
<path d="M109.5 8C109.5 3.85786 112.858 0.5 117 0.5H580C584.142 0.5 587.5 3.85786 587.5 8V102C587.5 106.142 584.142 109.5 580 109.5H117C112.858 109.5 109.5 106.142 109.5 102V8Z" fill="var(--vscode-editorWidget-background, #252526)" stroke="var(--vscode-panelTitle-activeBorder, #005FB8)"/>
<path d="M141.499 22.5781H138.683V31H137.056V22.5781H134.246V21.1973H141.499V22.5781ZM145.669 25.5107C145.478 25.3604 145.202 25.2852 144.842 25.2852C144.372 25.2852 143.98 25.4971 143.666 25.9209C143.352 26.3447 143.194 26.9212 143.194 27.6504V31H141.608V24H143.194V25.4424H143.222C143.377 24.9502 143.614 24.5674 143.933 24.2939C144.256 24.016 144.616 23.877 145.013 23.877C145.3 23.877 145.519 23.9202 145.669 24.0068V25.5107ZM147.59 22.5303C147.33 22.5303 147.107 22.446 146.92 22.2773C146.738 22.1087 146.646 21.8945 146.646 21.6348C146.646 21.375 146.738 21.1585 146.92 20.9854C147.107 20.8122 147.33 20.7256 147.59 20.7256C147.859 20.7256 148.087 20.8122 148.273 20.9854C148.46 21.1585 148.554 21.375 148.554 21.6348C148.554 21.8809 148.46 22.0928 148.273 22.2705C148.087 22.4437 147.859 22.5303 147.59 22.5303ZM148.376 31H146.79V24H148.376V31ZM156.825 30.4395C156.825 33.0098 155.533 34.2949 152.949 34.2949C152.038 34.2949 151.243 34.1423 150.563 33.8369V32.3877C151.329 32.8252 152.056 33.0439 152.744 33.0439C154.408 33.0439 155.239 32.2259 155.239 30.5898V29.8242H155.212C154.688 30.7174 153.899 31.1641 152.847 31.1641C151.994 31.1641 151.306 30.8542 150.782 30.2344C150.263 29.61 150.003 28.7738 150.003 27.7256C150.003 26.5361 150.283 25.5905 150.844 24.8887C151.404 24.1868 152.174 23.8359 153.154 23.8359C154.079 23.8359 154.765 24.2142 155.212 24.9707H155.239V24H156.825V30.4395ZM155.253 27.7939V26.8848C155.253 26.3926 155.089 25.9733 154.761 25.627C154.437 25.276 154.032 25.1006 153.544 25.1006C152.942 25.1006 152.471 25.3239 152.129 25.7705C151.792 26.2126 151.623 26.8324 151.623 27.6299C151.623 28.318 151.785 28.8695 152.108 29.2842C152.437 29.6943 152.869 29.8994 153.407 29.8994C153.954 29.8994 154.398 29.7035 154.74 29.3115C155.082 28.915 155.253 28.4092 155.253 27.7939ZM165.261 30.4395C165.261 33.0098 163.969 34.2949 161.385 34.2949C160.473 34.2949 159.678 34.1423 158.999 33.8369V32.3877C159.765 32.8252 160.492 33.0439 161.18 33.0439C162.843 33.0439 163.675 32.2259 163.675 30.5898V29.8242H163.647C163.123 30.7174 162.335 31.1641 161.282 31.1641C160.43 31.1641 159.742 30.8542 159.218 30.2344C158.698 29.61 158.438 28.7738 158.438 27.7256C158.438 26.5361 158.719 25.5905 159.279 24.8887C159.84 24.1868 160.61 23.8359 161.59 23.8359C162.515 23.8359 163.201 24.2142 163.647 24.9707H163.675V24H165.261V30.4395ZM163.688 27.7939V26.8848C163.688 26.3926 163.524 25.9733 163.196 25.627C162.873 25.276 162.467 25.1006 161.979 25.1006C161.378 25.1006 160.906 25.3239 160.564 25.7705C160.227 26.2126 160.059 26.8324 160.059 27.6299C160.059 28.318 160.22 28.8695 160.544 29.2842C160.872 29.6943 161.305 29.8994 161.843 29.8994C162.39 29.8994 162.834 29.7035 163.176 29.3115C163.518 28.915 163.688 28.4092 163.688 27.7939ZM173.252 27.9307H168.48C168.499 28.5778 168.697 29.0768 169.075 29.4277C169.458 29.7786 169.982 29.9541 170.647 29.9541C171.395 29.9541 172.081 29.7308 172.705 29.2842V30.5625C172.067 30.9635 171.224 31.1641 170.176 31.1641C169.146 31.1641 168.337 30.8473 167.749 30.2139C167.166 29.5758 166.874 28.6803 166.874 27.5273C166.874 26.4382 167.195 25.5518 167.838 24.8682C168.485 24.18 169.287 23.8359 170.244 23.8359C171.201 23.8359 171.942 24.1436 172.466 24.7588C172.99 25.374 173.252 26.2285 173.252 27.3223V27.9307ZM171.721 26.8096C171.716 26.2399 171.582 25.7979 171.317 25.4834C171.053 25.1644 170.688 25.0049 170.224 25.0049C169.768 25.0049 169.381 25.1712 169.062 25.5039C168.747 25.8366 168.553 26.2718 168.48 26.8096H171.721ZM178.823 25.5107C178.632 25.3604 178.356 25.2852 177.996 25.2852C177.527 25.2852 177.135 25.4971 176.82 25.9209C176.506 26.3447 176.349 26.9212 176.349 27.6504V31H174.763V24H176.349V25.4424H176.376C176.531 24.9502 176.768 24.5674 177.087 24.2939C177.41 24.016 177.771 23.877 178.167 23.877C178.454 23.877 178.673 23.9202 178.823 24.0068V25.5107ZM185.413 29.9678H185.386V34.2197H183.8V24H185.386V25.2305H185.413C185.955 24.3008 186.748 23.8359 187.792 23.8359C188.681 23.8359 189.373 24.1481 189.87 24.7725C190.367 25.3968 190.615 26.2354 190.615 27.2881C190.615 28.4548 190.335 29.389 189.774 30.0908C189.214 30.7926 188.448 31.1436 187.478 31.1436C186.584 31.1436 185.896 30.7516 185.413 29.9678ZM185.372 27.2061V28.0742C185.372 28.5846 185.534 29.0176 185.857 29.373C186.186 29.7285 186.6 29.9062 187.102 29.9062C187.689 29.9062 188.15 29.6784 188.482 29.2227C188.82 28.7624 188.988 28.1221 188.988 27.3018C188.988 26.6136 188.831 26.0758 188.517 25.6885C188.207 25.2965 187.785 25.1006 187.252 25.1006C186.687 25.1006 186.231 25.3011 185.885 25.7021C185.543 26.1032 185.372 26.6045 185.372 27.2061ZM195.339 31.1641C194.259 31.1641 193.395 30.8382 192.748 30.1865C192.105 29.5303 191.784 28.6621 191.784 27.582C191.784 26.4062 192.119 25.488 192.789 24.8271C193.464 24.1663 194.37 23.8359 195.51 23.8359C196.604 23.8359 197.456 24.1572 198.066 24.7998C198.677 25.4424 198.982 26.3333 198.982 27.4727C198.982 28.5892 198.652 29.4847 197.991 30.1592C197.335 30.8291 196.451 31.1641 195.339 31.1641ZM195.414 25.1006C194.794 25.1006 194.304 25.3171 193.944 25.75C193.584 26.1829 193.404 26.7799 193.404 27.541C193.404 28.2747 193.587 28.8535 193.951 29.2773C194.316 29.6966 194.803 29.9062 195.414 29.9062C196.038 29.9062 196.517 29.6989 196.85 29.2842C197.187 28.8695 197.355 28.2793 197.355 27.5137C197.355 26.7435 197.187 26.1488 196.85 25.7295C196.517 25.3102 196.038 25.1006 195.414 25.1006ZM201.402 22.5303C201.143 22.5303 200.919 22.446 200.732 22.2773C200.55 22.1087 200.459 21.8945 200.459 21.6348C200.459 21.375 200.55 21.1585 200.732 20.9854C200.919 20.8122 201.143 20.7256 201.402 20.7256C201.671 20.7256 201.899 20.8122 202.086 20.9854C202.273 21.1585 202.366 21.375 202.366 21.6348C202.366 21.8809 202.273 22.0928 202.086 22.2705C201.899 22.4437 201.671 22.5303 201.402 22.5303ZM202.188 31H200.603V24H202.188V31ZM210.501 31H208.915V27.0557C208.915 25.7477 208.452 25.0938 207.527 25.0938C207.044 25.0938 206.646 25.276 206.331 25.6406C206.017 26.0007 205.859 26.4564 205.859 27.0078V31H204.267V24H205.859V25.1621H205.887C206.411 24.278 207.167 23.8359 208.156 23.8359C208.917 23.8359 209.498 24.0843 209.899 24.5811C210.3 25.0732 210.501 25.7865 210.501 26.7207V31ZM216.134 30.9248C215.824 31.0798 215.416 31.1572 214.91 31.1572C213.552 31.1572 212.873 30.5055 212.873 29.2021V25.2441H211.704V24H212.873V22.3799L214.459 21.9287V24H216.134V25.2441H214.459V28.7441C214.459 29.1589 214.534 29.4551 214.685 29.6328C214.835 29.8105 215.086 29.8994 215.437 29.8994C215.705 29.8994 215.938 29.8219 216.134 29.667V30.9248Z" fill="var(--vscode-editor-background, white)"/>
<path opacity="0.8" d="M139.284 56.2393C136.543 56.2393 134.834 54.2568 134.834 51.0713C134.834 47.8789 136.536 45.8965 139.277 45.8965C141.451 45.8965 143.133 47.2842 143.379 49.2598H141.854C141.567 48.0361 140.576 47.2568 139.277 47.2568C137.507 47.2568 136.399 48.7266 136.399 51.0713C136.399 53.416 137.507 54.8789 139.284 54.8789C140.59 54.8789 141.581 54.1748 141.854 53.0537H143.379C143.105 54.9746 141.485 56.2393 139.284 56.2393ZM151.5 48.5762V56H150.085V54.8242H149.969C149.606 55.665 148.848 56.1436 147.72 56.1436C146.072 56.1436 145.156 55.1387 145.156 53.3955V48.5762H146.626V53.0332C146.626 54.2637 147.111 54.8516 148.191 54.8516C149.381 54.8516 150.03 54.127 150.03 52.9307V48.5762H151.5ZM153.462 50.6543C153.462 49.3623 154.672 48.4326 156.354 48.4326C158.028 48.4326 159.122 49.2119 159.266 50.4971H157.857C157.721 49.9434 157.188 49.5811 156.354 49.5811C155.533 49.5811 154.911 49.9844 154.911 50.5859C154.911 51.0439 155.287 51.3311 156.094 51.5225L157.331 51.8096C158.746 52.1377 159.409 52.7461 159.409 53.8262C159.409 55.207 158.104 56.1436 156.326 56.1436C154.556 56.1436 153.4 55.3438 153.271 54.0518H154.74C154.925 54.6328 155.472 54.9951 156.36 54.9951C157.276 54.9951 157.926 54.5713 157.926 53.9629C157.926 53.498 157.577 53.1973 156.832 53.0195L155.533 52.7119C154.118 52.3838 153.462 51.7549 153.462 50.6543ZM161.645 46.7031H163.114V48.5967H164.728V49.7725H163.114V53.6895C163.114 54.4893 163.436 54.8379 164.167 54.8379C164.393 54.8379 164.522 54.8242 164.728 54.8037V55.9727C164.488 56.0137 164.215 56.0479 163.928 56.0479C162.294 56.0479 161.645 55.4736 161.645 54.0449V49.7725H160.462V48.5967H161.645V46.7031ZM169.52 56.1436C167.339 56.1436 166.006 54.6875 166.006 52.2881C166.006 49.8955 167.346 48.4326 169.52 48.4326C171.687 48.4326 173.026 49.8887 173.026 52.2881C173.026 54.6875 171.693 56.1436 169.52 56.1436ZM169.52 54.8926C170.791 54.8926 171.516 53.9355 171.516 52.2881C171.516 50.6338 170.791 49.6768 169.52 49.6768C168.241 49.6768 167.523 50.6338 167.523 52.2881C167.523 53.9424 168.241 54.8926 169.52 54.8926ZM174.797 56V48.5762H176.212V49.7588H176.321C176.649 48.9248 177.401 48.4326 178.393 48.4326C179.411 48.4326 180.115 48.959 180.443 49.7588H180.56C180.936 48.959 181.79 48.4326 182.822 48.4326C184.326 48.4326 185.201 49.335 185.201 50.8799V56H183.731V51.2354C183.731 50.21 183.253 49.7109 182.289 49.7109C181.339 49.7109 180.717 50.4082 180.717 51.3037V56H179.274V51.085C179.274 50.2373 178.714 49.7109 177.839 49.7109C176.943 49.7109 176.267 50.4697 176.267 51.4404V56H174.797ZM188.024 47.25C187.512 47.25 187.095 46.833 187.095 46.3271C187.095 45.8145 187.512 45.3975 188.024 45.3975C188.537 45.3975 188.954 45.8145 188.954 46.3271C188.954 46.833 188.537 47.25 188.024 47.25ZM187.293 56V48.5762H188.756V56H187.293ZM190.745 56V55.0361L194.84 49.8682V49.7588H190.772V48.5762H196.597V49.5947L192.591 54.7012V54.8174H196.638V56H190.745ZM203.289 54.0107H204.704C204.383 55.3232 203.18 56.1436 201.478 56.1436C199.345 56.1436 198.039 54.6738 198.039 52.3018C198.039 49.9434 199.372 48.4326 201.471 48.4326C203.542 48.4326 204.793 49.8477 204.793 52.1719V52.6777H199.536V52.7461C199.584 54.0928 200.343 54.9404 201.519 54.9404C202.407 54.9404 203.016 54.6123 203.289 54.0107ZM201.464 49.6289C200.377 49.6289 199.618 50.4219 199.536 51.6182H203.296C203.262 50.415 202.551 49.6289 201.464 49.6289ZM210.904 46.7031H212.374V48.5967H213.987V49.7725H212.374V53.6895C212.374 54.4893 212.695 54.8379 213.427 54.8379C213.652 54.8379 213.782 54.8242 213.987 54.8037V55.9727C213.748 56.0137 213.475 56.0479 213.188 56.0479C211.554 56.0479 210.904 55.4736 210.904 54.0449V49.7725H209.722V48.5967H210.904V46.7031ZM215.785 56V45.6641H217.241V49.7588H217.357C217.72 48.9316 218.506 48.4395 219.627 48.4395C221.213 48.4395 222.19 49.4443 222.19 51.2012V56H220.721V51.5498C220.721 50.3262 220.167 49.7178 219.128 49.7178C217.925 49.7178 217.255 50.4902 217.255 51.6523V56H215.785ZM229.143 54.0107H230.558C230.236 55.3232 229.033 56.1436 227.331 56.1436C225.198 56.1436 223.893 54.6738 223.893 52.3018C223.893 49.9434 225.226 48.4326 227.324 48.4326C229.396 48.4326 230.646 49.8477 230.646 52.1719V52.6777H225.39V52.7461C225.438 54.0928 226.196 54.9404 227.372 54.9404C228.261 54.9404 228.869 54.6123 229.143 54.0107ZM227.317 49.6289C226.23 49.6289 225.472 50.4219 225.39 51.6182H229.149C229.115 50.415 228.404 49.6289 227.317 49.6289ZM236.758 46.7031H238.228V48.5967H239.841V49.7725H238.228V53.6895C238.228 54.4893 238.549 54.8379 239.28 54.8379C239.506 54.8379 239.636 54.8242 239.841 54.8037V55.9727C239.602 56.0137 239.328 56.0479 239.041 56.0479C237.407 56.0479 236.758 55.4736 236.758 54.0449V49.7725H235.575V48.5967H236.758V46.7031ZM241.57 56V48.5762H242.985V49.7041H243.095C243.307 48.9727 244.134 48.4463 245.104 48.4463C245.323 48.4463 245.604 48.4668 245.761 48.501V49.8818C245.638 49.8477 245.2 49.7998 244.94 49.7998C243.826 49.7998 243.04 50.5176 243.04 51.5635V56H241.57ZM247.935 47.25C247.422 47.25 247.005 46.833 247.005 46.3271C247.005 45.8145 247.422 45.3975 247.935 45.3975C248.447 45.3975 248.864 45.8145 248.864 46.3271C248.864 46.833 248.447 47.25 247.935 47.25ZM247.203 56V48.5762H248.666V56H247.203ZM253.964 58.8369C252.104 58.8369 250.901 58.0098 250.744 56.7588H252.248C252.371 57.3193 252.993 57.6748 253.984 57.6748C255.208 57.6748 255.933 57.0732 255.933 56.0684V54.6396H255.823C255.372 55.4463 254.552 55.8906 253.526 55.8906C251.626 55.8906 250.45 54.4209 250.45 52.1924C250.45 49.9434 251.64 48.4463 253.54 48.4463C254.565 48.4463 255.461 48.9521 255.878 49.7588H255.994V48.5762H257.402V56.0752C257.402 57.7637 256.069 58.8369 253.964 58.8369ZM253.943 54.6738C255.201 54.6738 255.96 53.71 255.96 52.1924C255.96 50.6748 255.194 49.7041 253.943 49.7041C252.679 49.7041 251.968 50.6748 251.968 52.1924C251.968 53.71 252.679 54.6738 253.943 54.6738ZM262.673 58.8369C260.813 58.8369 259.61 58.0098 259.453 56.7588H260.957C261.08 57.3193 261.702 57.6748 262.693 57.6748C263.917 57.6748 264.642 57.0732 264.642 56.0684V54.6396H264.532C264.081 55.4463 263.261 55.8906 262.235 55.8906C260.335 55.8906 259.159 54.4209 259.159 52.1924C259.159 49.9434 260.349 48.4463 262.249 48.4463C263.274 48.4463 264.17 48.9521 264.587 49.7588H264.703V48.5762H266.111V56.0752C266.111 57.7637 264.778 58.8369 262.673 58.8369ZM262.652 54.6738C263.91 54.6738 264.669 53.71 264.669 52.1924C264.669 50.6748 263.903 49.7041 262.652 49.7041C261.388 49.7041 260.677 50.6748 260.677 52.1924C260.677 53.71 261.388 54.6738 262.652 54.6738ZM273.125 54.0107H274.54C274.219 55.3232 273.016 56.1436 271.313 56.1436C269.181 56.1436 267.875 54.6738 267.875 52.3018C267.875 49.9434 269.208 48.4326 271.307 48.4326C273.378 48.4326 274.629 49.8477 274.629 52.1719V52.6777H269.372V52.7461C269.42 54.0928 270.179 54.9404 271.354 54.9404C272.243 54.9404 272.852 54.6123 273.125 54.0107ZM271.3 49.6289C270.213 49.6289 269.454 50.4219 269.372 51.6182H273.132C273.098 50.415 272.387 49.6289 271.3 49.6289ZM276.393 56V48.5762H277.808V49.7041H277.917C278.129 48.9727 278.956 48.4463 279.927 48.4463C280.146 48.4463 280.426 48.4668 280.583 48.501V49.8818C280.46 49.8477 280.022 49.7998 279.763 49.7998C278.648 49.7998 277.862 50.5176 277.862 51.5635V56H276.393ZM289.688 48.4463C291.582 48.4463 292.778 49.9297 292.778 52.2881C292.778 54.6328 291.582 56.123 289.702 56.123C288.643 56.123 287.802 55.665 287.412 54.8789H287.296V58.4746H285.826V48.5762H287.241V49.8066H287.351C287.802 48.959 288.677 48.4463 289.688 48.4463ZM289.271 54.8652C290.522 54.8652 291.268 53.9014 291.268 52.2881C291.268 50.6748 290.522 49.7041 289.278 49.7041C288.041 49.7041 287.269 50.6953 287.269 52.2881C287.269 53.874 288.041 54.8652 289.271 54.8652ZM297.693 56.1436C295.513 56.1436 294.18 54.6875 294.18 52.2881C294.18 49.8955 295.52 48.4326 297.693 48.4326C299.86 48.4326 301.2 49.8887 301.2 52.2881C301.2 54.6875 299.867 56.1436 297.693 56.1436ZM297.693 54.8926C298.965 54.8926 299.689 53.9355 299.689 52.2881C299.689 50.6338 298.965 49.6768 297.693 49.6768C296.415 49.6768 295.697 50.6338 295.697 52.2881C295.697 53.9424 296.415 54.8926 297.693 54.8926ZM303.729 47.25C303.217 47.25 302.8 46.833 302.8 46.3271C302.8 45.8145 303.217 45.3975 303.729 45.3975C304.242 45.3975 304.659 45.8145 304.659 46.3271C304.659 46.833 304.242 47.25 303.729 47.25ZM302.998 56V48.5762H304.461V56H302.998ZM306.621 56V48.5762H308.036V49.752H308.146C308.508 48.9316 309.246 48.4326 310.367 48.4326C312.028 48.4326 312.944 49.4238 312.944 51.1943V56H311.475V51.543C311.475 50.3125 310.955 49.7109 309.868 49.7109C308.781 49.7109 308.091 50.4492 308.091 51.6455V56H306.621ZM315.535 46.7031H317.005V48.5967H318.618V49.7725H317.005V53.6895C317.005 54.4893 317.326 54.8379 318.058 54.8379C318.283 54.8379 318.413 54.8242 318.618 54.8037V55.9727C318.379 56.0137 318.105 56.0479 317.818 56.0479C316.185 56.0479 315.535 55.4736 315.535 54.0449V49.7725H314.353V48.5967H315.535V46.7031ZM324.702 56V49.7725H323.479V48.5967H324.702V47.7969C324.702 46.3203 325.454 45.5957 326.999 45.5957C327.334 45.5957 327.621 45.623 327.874 45.6641V46.7715C327.737 46.751 327.539 46.7373 327.307 46.7373C326.486 46.7373 326.151 47.1133 326.151 47.8652V48.5967H327.812V49.7725H326.172V56H324.702ZM329.48 56V48.5762H330.896V49.7041H331.005C331.217 48.9727 332.044 48.4463 333.015 48.4463C333.233 48.4463 333.514 48.4668 333.671 48.501V49.8818C333.548 49.8477 333.11 49.7998 332.851 49.7998C331.736 49.7998 330.95 50.5176 330.95 51.5635V56H329.48ZM338.039 56.1436C335.858 56.1436 334.525 54.6875 334.525 52.2881C334.525 49.8955 335.865 48.4326 338.039 48.4326C340.206 48.4326 341.546 49.8887 341.546 52.2881C341.546 54.6875 340.213 56.1436 338.039 56.1436ZM338.039 54.8926C339.311 54.8926 340.035 53.9355 340.035 52.2881C340.035 50.6338 339.311 49.6768 338.039 49.6768C336.761 49.6768 336.043 50.6338 336.043 52.2881C336.043 53.9424 336.761 54.8926 338.039 54.8926ZM343.316 56V48.5762H344.731V49.7588H344.841C345.169 48.9248 345.921 48.4326 346.912 48.4326C347.931 48.4326 348.635 48.959 348.963 49.7588H349.079C349.455 48.959 350.31 48.4326 351.342 48.4326C352.846 48.4326 353.721 49.335 353.721 50.8799V56H352.251V51.2354C352.251 50.21 351.772 49.7109 350.809 49.7109C349.858 49.7109 349.236 50.4082 349.236 51.3037V56H347.794V51.085C347.794 50.2373 347.233 49.7109 346.358 49.7109C345.463 49.7109 344.786 50.4697 344.786 51.4404V56H343.316ZM364.494 54.0107H365.909C365.588 55.3232 364.385 56.1436 362.683 56.1436C360.55 56.1436 359.244 54.6738 359.244 52.3018C359.244 49.9434 360.577 48.4326 362.676 48.4326C364.747 48.4326 365.998 49.8477 365.998 52.1719V52.6777H360.741V52.7461C360.789 54.0928 361.548 54.9404 362.724 54.9404C363.612 54.9404 364.221 54.6123 364.494 54.0107ZM362.669 49.6289C361.582 49.6289 360.823 50.4219 360.741 51.6182H364.501C364.467 50.415 363.756 49.6289 362.669 49.6289ZM373.9 48.5762L371.221 56H369.642L366.955 48.5762H368.527L370.38 54.4961H370.496L372.342 48.5762H373.9ZM379.984 54.0107H381.399C381.078 55.3232 379.875 56.1436 378.173 56.1436C376.04 56.1436 374.734 54.6738 374.734 52.3018C374.734 49.9434 376.067 48.4326 378.166 48.4326C380.237 48.4326 381.488 49.8477 381.488 52.1719V52.6777H376.231V52.7461C376.279 54.0928 377.038 54.9404 378.214 54.9404C379.103 54.9404 379.711 54.6123 379.984 54.0107ZM378.159 49.6289C377.072 49.6289 376.313 50.4219 376.231 51.6182H379.991C379.957 50.415 379.246 49.6289 378.159 49.6289ZM383.252 56V48.5762H384.667V49.752H384.776C385.139 48.9316 385.877 48.4326 386.998 48.4326C388.659 48.4326 389.575 49.4238 389.575 51.1943V56H388.105V51.543C388.105 50.3125 387.586 49.7109 386.499 49.7109C385.412 49.7109 384.722 50.4492 384.722 51.6455V56H383.252ZM392.166 46.7031H393.636V48.5967H395.249V49.7725H393.636V53.6895C393.636 54.4893 393.957 54.8379 394.688 54.8379C394.914 54.8379 395.044 54.8242 395.249 54.8037V55.9727C395.01 56.0137 394.736 56.0479 394.449 56.0479C392.815 56.0479 392.166 55.4736 392.166 54.0449V49.7725H390.983V48.5967H392.166V46.7031ZM400.636 50.6543C400.636 49.3623 401.846 48.4326 403.527 48.4326C405.202 48.4326 406.296 49.2119 406.439 50.4971H405.031C404.895 49.9434 404.361 49.5811 403.527 49.5811C402.707 49.5811 402.085 49.9844 402.085 50.5859C402.085 51.0439 402.461 51.3311 403.268 51.5225L404.505 51.8096C405.92 52.1377 406.583 52.7461 406.583 53.8262C406.583 55.207 405.277 56.1436 403.5 56.1436C401.729 56.1436 400.574 55.3438 400.444 54.0518H401.914C402.099 54.6328 402.646 54.9951 403.534 54.9951C404.45 54.9951 405.1 54.5713 405.1 53.9629C405.1 53.498 404.751 53.1973 404.006 53.0195L402.707 52.7119C401.292 52.3838 400.636 51.7549 400.636 50.6543ZM411.498 56.1436C409.317 56.1436 407.984 54.6875 407.984 52.2881C407.984 49.8955 409.324 48.4326 411.498 48.4326C413.665 48.4326 415.005 49.8887 415.005 52.2881C415.005 54.6875 413.672 56.1436 411.498 56.1436ZM411.498 54.8926C412.77 54.8926 413.494 53.9355 413.494 52.2881C413.494 50.6338 412.77 49.6768 411.498 49.6768C410.22 49.6768 409.502 50.6338 409.502 52.2881C409.502 53.9424 410.22 54.8926 411.498 54.8926ZM423.051 48.5762V56H421.636V54.8242H421.52C421.157 55.665 420.398 56.1436 419.271 56.1436C417.623 56.1436 416.707 55.1387 416.707 53.3955V48.5762H418.177V53.0332C418.177 54.2637 418.662 54.8516 419.742 54.8516C420.932 54.8516 421.581 54.127 421.581 52.9307V48.5762H423.051ZM425.184 56V48.5762H426.599V49.7041H426.708C426.92 48.9727 427.747 48.4463 428.718 48.4463C428.937 48.4463 429.217 48.4668 429.374 48.501V49.8818C429.251 49.8477 428.813 49.7998 428.554 49.7998C427.439 49.7998 426.653 50.5176 426.653 51.5635V56H425.184ZM436.9 50.9619H435.472C435.301 50.2373 434.699 49.6836 433.715 49.6836C432.484 49.6836 431.732 50.6543 431.732 52.2607C431.732 53.9014 432.491 54.8926 433.715 54.8926C434.645 54.8926 435.28 54.4551 435.472 53.6484H436.9C436.709 55.1113 435.561 56.1436 433.722 56.1436C431.555 56.1436 430.229 54.667 430.229 52.2607C430.229 49.9023 431.548 48.4326 433.715 48.4326C435.581 48.4326 436.709 49.5195 436.9 50.9619ZM443.463 54.0107H444.878C444.557 55.3232 443.354 56.1436 441.651 56.1436C439.519 56.1436 438.213 54.6738 438.213 52.3018C438.213 49.9434 439.546 48.4326 441.645 48.4326C443.716 48.4326 444.967 49.8477 444.967 52.1719V52.6777H439.71V52.7461C439.758 54.0928 440.517 54.9404 441.692 54.9404C442.581 54.9404 443.189 54.6123 443.463 54.0107ZM441.638 49.6289C440.551 49.6289 439.792 50.4219 439.71 51.6182H443.47C443.436 50.415 442.725 49.6289 441.638 49.6289ZM447.872 56.1025C447.298 56.1025 446.867 55.6719 446.867 55.1182C446.867 54.5645 447.298 54.1338 447.872 54.1338C448.453 54.1338 448.877 54.5645 448.877 55.1182C448.877 55.6719 448.453 56.1025 447.872 56.1025Z" fill="var(--vscode-menu-foreground, #CCCCCC)"/>
<path d="M0.5 8C0.5 3.85786 3.85786 0.5 8 0.5H102C106.142 0.5 109.5 3.85786 109.5 8V102C109.5 106.142 106.142 109.5 102 109.5H8C3.85786 109.5 0.5 106.142 0.5 102V8Z" fill="var(--vscode-editorWidget-background, #252526)" stroke="var(--vscode-panelTitle-activeBorder, #005FB8)"/>
<path d="M70.6177 70.9557H77V74.1468H70.6177V80.5291H67.4266V74.1468H61.0443V70.9557H67.4266V64.5734H70.6177V70.9557ZM56.2576 48.6178H72.8366L40.9252 80.5291H33.5956L43.169 61.3823H32L47.9557 29.4709H65.831L56.2576 48.6178ZM39.3546 77.338L65.2078 51.8089H51.1468L60.7202 32.6621H49.8753L37.1108 58.1912H48.2798L38.7064 77.338H39.3546Z" fill="var(--vscode-editor-background, white)"/>
<path d="M109.5 134C109.5 129.858 112.858 126.5 117 126.5H580C584.142 126.5 587.5 129.858 587.5 134V228C587.5 232.142 584.142 235.5 580 235.5H117C112.858 235.5 109.5 232.142 109.5 228V134Z" fill="var(--vscode-editorWidget-background, #252526)" stroke="var(--vscode-panelTitle-activeBorder, #005FB8)"/>
<path d="M142.046 158.59C141.308 158.973 140.389 159.164 139.291 159.164C137.869 159.164 136.73 158.715 135.873 157.817C135.016 156.92 134.588 155.742 134.588 154.283C134.588 152.715 135.069 151.449 136.03 150.482C136.996 149.516 138.215 149.033 139.688 149.033C140.635 149.033 141.422 149.168 142.046 149.437V151.05C141.385 150.658 140.656 150.462 139.858 150.462C138.797 150.462 137.935 150.801 137.274 151.48C136.618 152.16 136.29 153.066 136.29 154.201C136.29 155.281 136.598 156.143 137.213 156.785C137.828 157.423 138.637 157.742 139.64 157.742C140.565 157.742 141.367 157.523 142.046 157.086V158.59ZM146.831 159.164C145.751 159.164 144.887 158.838 144.24 158.187C143.598 157.53 143.276 156.662 143.276 155.582C143.276 154.406 143.611 153.488 144.281 152.827C144.956 152.166 145.863 151.836 147.002 151.836C148.096 151.836 148.948 152.157 149.559 152.8C150.169 153.442 150.475 154.333 150.475 155.473C150.475 156.589 150.144 157.485 149.483 158.159C148.827 158.829 147.943 159.164 146.831 159.164ZM146.906 153.101C146.286 153.101 145.797 153.317 145.437 153.75C145.076 154.183 144.896 154.78 144.896 155.541C144.896 156.275 145.079 156.854 145.443 157.277C145.808 157.697 146.296 157.906 146.906 157.906C147.531 157.906 148.009 157.699 148.342 157.284C148.679 156.869 148.848 156.279 148.848 155.514C148.848 154.743 148.679 154.149 148.342 153.729C148.009 153.31 147.531 153.101 146.906 153.101ZM158.329 159H156.743V155.056C156.743 153.748 156.281 153.094 155.355 153.094C154.872 153.094 154.474 153.276 154.159 153.641C153.845 154.001 153.688 154.456 153.688 155.008V159H152.095V152H153.688V153.162H153.715C154.239 152.278 154.995 151.836 155.984 151.836C156.745 151.836 157.326 152.084 157.728 152.581C158.129 153.073 158.329 153.786 158.329 154.721V159ZM163.962 158.925C163.652 159.08 163.244 159.157 162.738 159.157C161.38 159.157 160.701 158.506 160.701 157.202V153.244H159.532V152H160.701V150.38L162.287 149.929V152H163.962V153.244H162.287V156.744C162.287 157.159 162.362 157.455 162.513 157.633C162.663 157.811 162.914 157.899 163.265 157.899C163.534 157.899 163.766 157.822 163.962 157.667V158.925ZM171.174 155.931H166.402C166.421 156.578 166.619 157.077 166.997 157.428C167.38 157.779 167.904 157.954 168.569 157.954C169.317 157.954 170.003 157.731 170.627 157.284V158.562C169.989 158.964 169.146 159.164 168.098 159.164C167.068 159.164 166.259 158.847 165.671 158.214C165.088 157.576 164.796 156.68 164.796 155.527C164.796 154.438 165.117 153.552 165.76 152.868C166.407 152.18 167.209 151.836 168.166 151.836C169.123 151.836 169.864 152.144 170.388 152.759C170.912 153.374 171.174 154.229 171.174 155.322V155.931ZM169.643 154.81C169.638 154.24 169.504 153.798 169.239 153.483C168.975 153.164 168.61 153.005 168.146 153.005C167.69 153.005 167.302 153.171 166.983 153.504C166.669 153.837 166.475 154.272 166.402 154.81H169.643ZM178.919 159H177.333V155.056C177.333 153.748 176.87 153.094 175.945 153.094C175.462 153.094 175.063 153.276 174.749 153.641C174.435 154.001 174.277 154.456 174.277 155.008V159H172.685V152H174.277V153.162H174.305C174.829 152.278 175.585 151.836 176.574 151.836C177.335 151.836 177.916 152.084 178.317 152.581C178.718 153.073 178.919 153.786 178.919 154.721V159ZM184.552 158.925C184.242 159.08 183.834 159.157 183.328 159.157C181.97 159.157 181.291 158.506 181.291 157.202V153.244H180.122V152H181.291V150.38L182.877 149.929V152H184.552V153.244H182.877V156.744C182.877 157.159 182.952 157.455 183.103 157.633C183.253 157.811 183.504 157.899 183.854 157.899C184.123 157.899 184.356 157.822 184.552 157.667V158.925Z" fill="var(--vscode-editor-background, white)"/>
<path opacity="0.8" d="M141.957 185.59C141.232 185.973 140.33 186.164 139.25 186.164C137.855 186.164 136.739 185.715 135.9 184.817C135.062 183.92 134.643 182.742 134.643 181.283C134.643 179.715 135.114 178.449 136.058 177.482C137.001 176.516 138.197 176.033 139.646 176.033C140.576 176.033 141.346 176.168 141.957 176.437V177.66C141.255 177.268 140.48 177.072 139.633 177.072C138.507 177.072 137.593 177.448 136.892 178.2C136.194 178.952 135.846 179.957 135.846 181.215C135.846 182.409 136.172 183.361 136.823 184.072C137.479 184.779 138.339 185.132 139.4 185.132C140.385 185.132 141.237 184.913 141.957 184.476V185.59ZM149.463 186H148.342V184.893H148.314C147.85 185.74 147.13 186.164 146.154 186.164C144.486 186.164 143.652 185.171 143.652 183.184V179H144.767V183.006C144.767 184.482 145.332 185.221 146.462 185.221C147.009 185.221 147.458 185.02 147.809 184.619C148.164 184.214 148.342 183.685 148.342 183.033V179H149.463V186ZM151.309 185.747V184.544C151.919 184.995 152.591 185.221 153.325 185.221C154.31 185.221 154.802 184.893 154.802 184.236C154.802 184.049 154.758 183.892 154.672 183.765C154.59 183.632 154.476 183.516 154.33 183.416C154.189 183.316 154.02 183.227 153.824 183.149C153.633 183.067 153.425 182.983 153.202 182.896C152.892 182.773 152.619 182.65 152.382 182.527C152.149 182.4 151.953 182.258 151.794 182.104C151.639 181.944 151.521 181.764 151.438 181.563C151.361 181.363 151.322 181.128 151.322 180.859C151.322 180.531 151.397 180.242 151.548 179.991C151.698 179.736 151.899 179.524 152.149 179.355C152.4 179.182 152.685 179.052 153.004 178.966C153.327 178.879 153.66 178.836 154.002 178.836C154.608 178.836 155.15 178.941 155.629 179.15V180.285C155.114 179.948 154.521 179.779 153.852 179.779C153.642 179.779 153.453 179.804 153.284 179.854C153.116 179.9 152.97 179.966 152.847 180.053C152.728 180.139 152.635 180.244 152.566 180.367C152.503 180.486 152.471 180.618 152.471 180.764C152.471 180.946 152.503 181.099 152.566 181.222C152.635 181.345 152.733 181.454 152.86 181.55C152.988 181.646 153.143 181.732 153.325 181.81C153.507 181.887 153.715 181.971 153.947 182.062C154.257 182.181 154.535 182.304 154.781 182.432C155.027 182.555 155.237 182.696 155.41 182.855C155.583 183.01 155.715 183.19 155.807 183.396C155.902 183.601 155.95 183.844 155.95 184.127C155.95 184.473 155.873 184.774 155.718 185.029C155.567 185.285 155.365 185.496 155.109 185.665C154.854 185.834 154.56 185.959 154.228 186.041C153.895 186.123 153.546 186.164 153.182 186.164C152.462 186.164 151.837 186.025 151.309 185.747ZM160.927 185.932C160.662 186.077 160.314 186.15 159.881 186.15C158.655 186.15 158.042 185.467 158.042 184.1V179.957H156.839V179H158.042V177.291L159.163 176.929V179H160.927V179.957H159.163V183.901C159.163 184.371 159.243 184.706 159.402 184.906C159.562 185.107 159.826 185.207 160.195 185.207C160.478 185.207 160.722 185.13 160.927 184.975V185.932ZM165.35 186.164C164.315 186.164 163.488 185.838 162.868 185.187C162.253 184.53 161.945 183.662 161.945 182.582C161.945 181.406 162.267 180.488 162.909 179.827C163.552 179.166 164.42 178.836 165.514 178.836C166.557 178.836 167.371 179.157 167.954 179.8C168.542 180.442 168.836 181.333 168.836 182.473C168.836 183.589 168.519 184.485 167.886 185.159C167.257 185.829 166.411 186.164 165.35 186.164ZM165.432 179.779C164.712 179.779 164.142 180.025 163.723 180.518C163.303 181.005 163.094 181.68 163.094 182.541C163.094 183.37 163.306 184.024 163.729 184.503C164.153 184.981 164.721 185.221 165.432 185.221C166.156 185.221 166.712 184.986 167.1 184.517C167.492 184.047 167.688 183.38 167.688 182.514C167.688 181.639 167.492 180.964 167.1 180.49C166.712 180.016 166.156 179.779 165.432 179.779ZM180.566 186H179.445V181.98C179.445 181.206 179.325 180.645 179.083 180.299C178.846 179.952 178.445 179.779 177.88 179.779C177.401 179.779 176.993 179.998 176.656 180.436C176.324 180.873 176.157 181.397 176.157 182.008V186H175.036V181.844C175.036 180.467 174.505 179.779 173.443 179.779C172.951 179.779 172.546 179.987 172.227 180.401C171.908 180.812 171.748 181.347 171.748 182.008V186H170.627V179H171.748V180.107H171.775C172.272 179.26 172.997 178.836 173.949 178.836C174.428 178.836 174.845 178.97 175.2 179.239C175.556 179.504 175.799 179.852 175.932 180.285C176.451 179.319 177.226 178.836 178.256 178.836C179.796 178.836 180.566 179.786 180.566 181.687V186ZM183.26 177.223C183.059 177.223 182.888 177.154 182.747 177.018C182.606 176.881 182.535 176.708 182.535 176.498C182.535 176.288 182.606 176.115 182.747 175.979C182.888 175.837 183.059 175.767 183.26 175.767C183.465 175.767 183.638 175.837 183.779 175.979C183.925 176.115 183.998 176.288 183.998 176.498C183.998 176.699 183.925 176.869 183.779 177.011C183.638 177.152 183.465 177.223 183.26 177.223ZM183.807 186H182.686V179H183.807V186ZM190.957 179.321L186.814 185.043H190.916V186H185.167V185.651L189.31 179.957H185.557V179H190.957V179.321ZM198.032 182.78H193.09C193.108 183.56 193.318 184.161 193.719 184.585C194.12 185.009 194.671 185.221 195.373 185.221C196.161 185.221 196.886 184.961 197.547 184.441V185.494C196.932 185.941 196.118 186.164 195.106 186.164C194.118 186.164 193.34 185.847 192.775 185.214C192.21 184.576 191.928 183.68 191.928 182.527C191.928 181.438 192.235 180.552 192.851 179.868C193.47 179.18 194.238 178.836 195.154 178.836C196.07 178.836 196.779 179.132 197.28 179.725C197.782 180.317 198.032 181.14 198.032 182.192V182.78ZM196.884 181.83C196.879 181.183 196.722 180.679 196.412 180.319C196.107 179.959 195.681 179.779 195.134 179.779C194.605 179.779 194.156 179.968 193.787 180.347C193.418 180.725 193.19 181.219 193.104 181.83H196.884ZM206.823 185.932C206.559 186.077 206.21 186.15 205.777 186.15C204.551 186.15 203.938 185.467 203.938 184.1V179.957H202.735V179H203.938V177.291L205.06 176.929V179H206.823V179.957H205.06V183.901C205.06 184.371 205.139 184.706 205.299 184.906C205.458 185.107 205.723 185.207 206.092 185.207C206.374 185.207 206.618 185.13 206.823 184.975V185.932ZM214.131 186H213.01V181.967C213.01 180.508 212.467 179.779 211.383 179.779C210.836 179.779 210.376 179.991 210.002 180.415C209.628 180.834 209.441 181.374 209.441 182.035V186H208.32V175.637H209.441V180.162H209.469C210.007 179.278 210.772 178.836 211.766 178.836C213.342 178.836 214.131 179.786 214.131 181.687V186ZM221.876 182.78H216.934C216.952 183.56 217.161 184.161 217.562 184.585C217.964 185.009 218.515 185.221 219.217 185.221C220.005 185.221 220.73 184.961 221.391 184.441V185.494C220.775 185.941 219.962 186.164 218.95 186.164C217.961 186.164 217.184 185.847 216.619 185.214C216.054 184.576 215.771 183.68 215.771 182.527C215.771 181.438 216.079 180.552 216.694 179.868C217.314 179.18 218.082 178.836 218.998 178.836C219.914 178.836 220.623 179.132 221.124 179.725C221.625 180.317 221.876 181.14 221.876 182.192V182.78ZM220.728 181.83C220.723 181.183 220.566 180.679 220.256 180.319C219.951 179.959 219.524 179.779 218.978 179.779C218.449 179.779 218 179.968 217.631 180.347C217.262 180.725 217.034 181.219 216.947 181.83H220.728ZM233.23 186H232.109V182.008C232.109 180.522 231.567 179.779 230.482 179.779C229.922 179.779 229.457 179.991 229.088 180.415C228.723 180.834 228.541 181.365 228.541 182.008V186H227.42V179H228.541V180.162H228.568C229.097 179.278 229.863 178.836 230.865 178.836C231.631 178.836 232.216 179.084 232.622 179.581C233.028 180.073 233.23 180.786 233.23 181.721V186ZM238.275 186.164C237.241 186.164 236.414 185.838 235.794 185.187C235.179 184.53 234.871 183.662 234.871 182.582C234.871 181.406 235.192 180.488 235.835 179.827C236.478 179.166 237.346 178.836 238.439 178.836C239.483 178.836 240.297 179.157 240.88 179.8C241.468 180.442 241.762 181.333 241.762 182.473C241.762 183.589 241.445 184.485 240.812 185.159C240.183 185.829 239.337 186.164 238.275 186.164ZM238.357 179.779C237.637 179.779 237.068 180.025 236.648 180.518C236.229 181.005 236.02 181.68 236.02 182.541C236.02 183.37 236.231 184.024 236.655 184.503C237.079 184.981 237.646 185.221 238.357 185.221C239.082 185.221 239.638 184.986 240.025 184.517C240.417 184.047 240.613 183.38 240.613 182.514C240.613 181.639 240.417 180.964 240.025 180.49C239.638 180.016 239.082 179.779 238.357 179.779ZM246.8 185.932C246.535 186.077 246.187 186.15 245.754 186.15C244.528 186.15 243.915 185.467 243.915 184.1V179.957H242.712V179H243.915V177.291L245.036 176.929V179H246.8V179.957H245.036V183.901C245.036 184.371 245.116 184.706 245.275 184.906C245.435 185.107 245.699 185.207 246.068 185.207C246.351 185.207 246.595 185.13 246.8 184.975V185.932ZM248.871 177.223C248.671 177.223 248.5 177.154 248.358 177.018C248.217 176.881 248.146 176.708 248.146 176.498C248.146 176.288 248.217 176.115 248.358 175.979C248.5 175.837 248.671 175.767 248.871 175.767C249.076 175.767 249.249 175.837 249.391 175.979C249.536 176.115 249.609 176.288 249.609 176.498C249.609 176.699 249.536 176.869 249.391 177.011C249.249 177.152 249.076 177.223 248.871 177.223ZM249.418 186H248.297V179H249.418V186ZM255.146 176.621C254.928 176.498 254.679 176.437 254.401 176.437C253.618 176.437 253.226 176.931 253.226 177.92V179H254.866V179.957H253.226V186H252.111V179.957H250.915V179H252.111V177.865C252.111 177.132 252.323 176.553 252.747 176.129C253.171 175.701 253.7 175.486 254.333 175.486C254.675 175.486 254.946 175.527 255.146 175.609V176.621ZM256.65 177.223C256.45 177.223 256.279 177.154 256.138 177.018C255.996 176.881 255.926 176.708 255.926 176.498C255.926 176.288 255.996 176.115 256.138 175.979C256.279 175.837 256.45 175.767 256.65 175.767C256.855 175.767 257.029 175.837 257.17 175.979C257.316 176.115 257.389 176.288 257.389 176.498C257.389 176.699 257.316 176.869 257.17 177.011C257.029 177.152 256.855 177.223 256.65 177.223ZM257.197 186H256.076V179H257.197V186ZM264.238 185.679C263.701 186.002 263.062 186.164 262.324 186.164C261.326 186.164 260.52 185.84 259.904 185.193C259.294 184.542 258.988 183.699 258.988 182.664C258.988 181.511 259.319 180.586 259.979 179.889C260.64 179.187 261.522 178.836 262.625 178.836C263.24 178.836 263.783 178.95 264.252 179.178V180.326C263.732 179.962 263.176 179.779 262.584 179.779C261.868 179.779 261.281 180.037 260.82 180.552C260.365 181.062 260.137 181.734 260.137 182.568C260.137 183.389 260.351 184.036 260.779 184.51C261.212 184.984 261.791 185.221 262.516 185.221C263.126 185.221 263.701 185.018 264.238 184.612V185.679ZM270.944 186H269.823V184.906H269.796C269.308 185.745 268.59 186.164 267.643 186.164C266.945 186.164 266.398 185.979 266.002 185.61C265.61 185.241 265.414 184.751 265.414 184.141C265.414 182.833 266.184 182.072 267.725 181.857L269.823 181.563C269.823 180.374 269.342 179.779 268.381 179.779C267.538 179.779 266.777 180.066 266.098 180.641V179.492C266.786 179.055 267.579 178.836 268.477 178.836C270.122 178.836 270.944 179.706 270.944 181.447V186ZM269.823 182.459L268.135 182.691C267.615 182.764 267.223 182.894 266.959 183.081C266.695 183.263 266.562 183.589 266.562 184.059C266.562 184.4 266.683 184.681 266.925 184.899C267.171 185.114 267.497 185.221 267.902 185.221C268.458 185.221 268.916 185.027 269.276 184.64C269.641 184.248 269.823 183.753 269.823 183.156V182.459ZM276.304 185.932C276.039 186.077 275.691 186.15 275.258 186.15C274.032 186.15 273.419 185.467 273.419 184.1V179.957H272.216V179H273.419V177.291L274.54 176.929V179H276.304V179.957H274.54V183.901C274.54 184.371 274.62 184.706 274.779 184.906C274.939 185.107 275.203 185.207 275.572 185.207C275.855 185.207 276.099 185.13 276.304 184.975V185.932ZM278.375 177.223C278.174 177.223 278.004 177.154 277.862 177.018C277.721 176.881 277.65 176.708 277.65 176.498C277.65 176.288 277.721 176.115 277.862 175.979C278.004 175.837 278.174 175.767 278.375 175.767C278.58 175.767 278.753 175.837 278.895 175.979C279.04 176.115 279.113 176.288 279.113 176.498C279.113 176.699 279.04 176.869 278.895 177.011C278.753 177.152 278.58 177.223 278.375 177.223ZM278.922 186H277.801V179H278.922V186ZM284.117 186.164C283.083 186.164 282.256 185.838 281.636 185.187C281.021 184.53 280.713 183.662 280.713 182.582C280.713 181.406 281.034 180.488 281.677 179.827C282.319 179.166 283.188 178.836 284.281 178.836C285.325 178.836 286.138 179.157 286.722 179.8C287.31 180.442 287.604 181.333 287.604 182.473C287.604 183.589 287.287 184.485 286.653 185.159C286.024 185.829 285.179 186.164 284.117 186.164ZM284.199 179.779C283.479 179.779 282.91 180.025 282.49 180.518C282.071 181.005 281.861 181.68 281.861 182.541C281.861 183.37 282.073 184.024 282.497 184.503C282.921 184.981 283.488 185.221 284.199 185.221C284.924 185.221 285.48 184.986 285.867 184.517C286.259 184.047 286.455 183.38 286.455 182.514C286.455 181.639 286.259 180.964 285.867 180.49C285.48 180.016 284.924 179.779 284.199 179.779ZM295.205 186H294.084V182.008C294.084 180.522 293.542 179.779 292.457 179.779C291.896 179.779 291.432 179.991 291.062 180.415C290.698 180.834 290.516 181.365 290.516 182.008V186H289.395V179H290.516V180.162H290.543C291.072 179.278 291.837 178.836 292.84 178.836C293.605 178.836 294.191 179.084 294.597 179.581C295.002 180.073 295.205 180.786 295.205 181.721V186ZM305.938 185.679C305.4 186.002 304.762 186.164 304.023 186.164C303.025 186.164 302.219 185.84 301.604 185.193C300.993 184.542 300.688 183.699 300.688 182.664C300.688 181.511 301.018 180.586 301.679 179.889C302.34 179.187 303.221 178.836 304.324 178.836C304.939 178.836 305.482 178.95 305.951 179.178V180.326C305.432 179.962 304.876 179.779 304.283 179.779C303.568 179.779 302.98 180.037 302.52 180.552C302.064 181.062 301.836 181.734 301.836 182.568C301.836 183.389 302.05 184.036 302.479 184.51C302.911 184.984 303.49 185.221 304.215 185.221C304.826 185.221 305.4 185.018 305.938 184.612V185.679ZM310.559 186.164C309.524 186.164 308.697 185.838 308.077 185.187C307.462 184.53 307.154 183.662 307.154 182.582C307.154 181.406 307.476 180.488 308.118 179.827C308.761 179.166 309.629 178.836 310.723 178.836C311.766 178.836 312.58 179.157 313.163 179.8C313.751 180.442 314.045 181.333 314.045 182.473C314.045 183.589 313.728 184.485 313.095 185.159C312.466 185.829 311.62 186.164 310.559 186.164ZM310.641 179.779C309.921 179.779 309.351 180.025 308.932 180.518C308.512 181.005 308.303 181.68 308.303 182.541C308.303 183.37 308.515 184.024 308.938 184.503C309.362 184.981 309.93 185.221 310.641 185.221C311.365 185.221 311.921 184.986 312.309 184.517C312.701 184.047 312.896 183.38 312.896 182.514C312.896 181.639 312.701 180.964 312.309 180.49C311.921 180.016 311.365 179.779 310.641 179.779ZM321.646 186H320.525V182.008C320.525 180.522 319.983 179.779 318.898 179.779C318.338 179.779 317.873 179.991 317.504 180.415C317.139 180.834 316.957 181.365 316.957 182.008V186H315.836V179H316.957V180.162H316.984C317.513 179.278 318.279 178.836 319.281 178.836C320.047 178.836 320.632 179.084 321.038 179.581C321.444 180.073 321.646 180.786 321.646 181.721V186ZM327.013 185.932C326.748 186.077 326.4 186.15 325.967 186.15C324.741 186.15 324.128 185.467 324.128 184.1V179.957H322.925V179H324.128V177.291L325.249 176.929V179H327.013V179.957H325.249V183.901C325.249 184.371 325.329 184.706 325.488 184.906C325.648 185.107 325.912 185.207 326.281 185.207C326.564 185.207 326.808 185.13 327.013 184.975V185.932ZM334.136 182.78H329.193C329.212 183.56 329.421 184.161 329.822 184.585C330.223 185.009 330.775 185.221 331.477 185.221C332.265 185.221 332.99 184.961 333.65 184.441V185.494C333.035 185.941 332.222 186.164 331.21 186.164C330.221 186.164 329.444 185.847 328.879 185.214C328.314 184.576 328.031 183.68 328.031 182.527C328.031 181.438 328.339 180.552 328.954 179.868C329.574 179.18 330.342 178.836 331.258 178.836C332.174 178.836 332.882 179.132 333.384 179.725C333.885 180.317 334.136 181.14 334.136 182.192V182.78ZM332.987 181.83C332.983 181.183 332.826 180.679 332.516 180.319C332.21 179.959 331.784 179.779 331.237 179.779C330.709 179.779 330.26 179.968 329.891 180.347C329.521 180.725 329.294 181.219 329.207 181.83H332.987ZM341.648 186H340.527V182.008C340.527 180.522 339.985 179.779 338.9 179.779C338.34 179.779 337.875 179.991 337.506 180.415C337.141 180.834 336.959 181.365 336.959 182.008V186H335.838V179H336.959V180.162H336.986C337.515 179.278 338.281 178.836 339.283 178.836C340.049 178.836 340.634 179.084 341.04 179.581C341.446 180.073 341.648 180.786 341.648 181.721V186ZM347.015 185.932C346.75 186.077 346.402 186.15 345.969 186.15C344.743 186.15 344.13 185.467 344.13 184.1V179.957H342.927V179H344.13V177.291L345.251 176.929V179H347.015V179.957H345.251V183.901C345.251 184.371 345.331 184.706 345.49 184.906C345.65 185.107 345.914 185.207 346.283 185.207C346.566 185.207 346.81 185.13 347.015 184.975V185.932ZM348.901 186.15C348.692 186.15 348.512 186.075 348.361 185.925C348.215 185.774 348.143 185.594 348.143 185.385C348.143 185.175 348.215 184.995 348.361 184.845C348.512 184.69 348.692 184.612 348.901 184.612C349.116 184.612 349.298 184.69 349.448 184.845C349.599 184.995 349.674 185.175 349.674 185.385C349.674 185.594 349.599 185.774 349.448 185.925C349.298 186.075 349.116 186.15 348.901 186.15Z" fill="var(--vscode-editor-background, white)"/>
<path d="M0.5 134C0.5 129.858 3.85786 126.5 8 126.5H102C106.142 126.5 109.5 129.858 109.5 134V228C109.5 232.142 106.142 235.5 102 235.5H8C3.85786 235.5 0.5 232.142 0.5 228V134Z" fill="var(--vscode-editorWidget-background, #252526)" stroke="var(--vscode-panelTitle-activeBorder, #005FB8)"/>
<path d="M77.5 160.016V183.395C77.0898 182.941 76.6504 182.523 76.1816 182.143C75.7129 181.762 75.2148 181.396 74.6875 181.044V171.266H35.3125V193.766H54.3848C54.4287 194.25 54.502 194.726 54.6045 195.194C54.707 195.663 54.8389 196.125 55 196.579H32.5V160.016H77.5ZM74.6875 162.829H35.3125V168.454H74.6875V162.829ZM38.125 190.954V174.079H52.1875V190.954H38.125ZM40.9375 188.141H49.375V176.891H40.9375V188.141ZM63.4375 176.891H55V174.079H63.4375V176.891ZM55 179.748H63.4375C61.6504 180.348 60.0684 181.271 58.6914 182.516H55V179.748ZM77.2803 189.899L74.5557 191.02C74.6436 191.459 74.6875 191.891 74.6875 192.316C74.6875 192.785 74.6436 193.246 74.5557 193.7L77.2803 194.821L76.2036 197.436L73.479 196.293C73.23 196.659 72.9517 197.003 72.644 197.326C72.3364 197.648 71.9849 197.934 71.5894 198.183L72.7319 200.907L70.1172 201.984L68.9966 199.259C68.5571 199.347 68.1104 199.391 67.6562 199.391C67.4365 199.391 67.2168 199.369 66.9971 199.325C66.7773 199.281 66.5576 199.237 66.3379 199.193L65.1953 201.984L62.5806 200.907L63.7231 198.161C63.3569 197.912 63.0273 197.626 62.7344 197.304C62.4414 196.981 62.1631 196.637 61.8994 196.271L59.1089 197.436L58.0322 194.821L60.7568 193.7C60.6689 193.261 60.625 192.829 60.625 192.404C60.625 191.95 60.6689 191.488 60.7568 191.02L58.0322 189.899L59.1089 187.284L61.8335 188.427C62.0825 188.061 62.3608 187.716 62.6685 187.394C62.9761 187.072 63.3276 186.786 63.7231 186.537L62.5806 183.812L65.1953 182.736L66.3159 185.46C66.7554 185.373 67.1875 185.329 67.6123 185.329C68.0664 185.329 68.5278 185.373 68.9966 185.46L70.1172 182.736L72.7319 183.812L71.5894 186.537C71.9556 186.786 72.2998 187.064 72.6221 187.372C72.9443 187.68 73.23 188.031 73.479 188.427L76.2036 187.284L77.2803 189.899ZM67.6562 196.557C68.2422 196.557 68.7915 196.447 69.3042 196.227C69.8169 196.007 70.2637 195.707 70.6445 195.326C71.0254 194.945 71.3257 194.499 71.5454 193.986C71.7651 193.473 71.875 192.931 71.875 192.36C71.875 191.789 71.7651 191.247 71.5454 190.734C71.3257 190.221 71.0254 189.774 70.6445 189.394C70.2637 189.013 69.8096 188.705 69.2822 188.471C68.7549 188.236 68.2129 188.126 67.6562 188.141C67.085 188.141 66.543 188.251 66.0303 188.471C65.5176 188.69 65.0708 188.991 64.6899 189.372C64.3091 189.752 64.0015 190.207 63.7671 190.734C63.5327 191.261 63.4229 191.803 63.4375 192.36C63.4375 192.946 63.5474 193.488 63.7671 193.986C63.9868 194.484 64.2871 194.931 64.668 195.326C65.0488 195.722 65.5029 196.022 66.0303 196.227C66.5576 196.432 67.0996 196.542 67.6562 196.557Z" fill="var(--vscode-editor-background, white)"/>
<path d="M109.5 260C109.5 255.858 112.858 252.5 117 252.5H580C584.142 252.5 587.5 255.858 587.5 260V354C587.5 358.142 584.142 361.5 580 361.5H117C112.858 361.5 109.5 358.142 109.5 354V260Z" fill="var(--vscode-editorWidget-background, #252526)" stroke="var(--vscode-panelTitle-activeBorder, #005FB8)"/>
<path d="M147.371 275.197L144.685 285H142.846L140.979 278.144C140.902 277.852 140.854 277.533 140.836 277.187H140.809C140.786 277.51 140.731 277.825 140.645 278.13L138.771 285H136.892L134.15 275.197H135.935L137.712 282.375C137.785 282.676 137.83 282.99 137.849 283.318H137.883C137.901 283.086 137.965 282.771 138.074 282.375L140.084 275.197H141.759L143.618 282.43C143.682 282.676 143.73 282.967 143.762 283.305H143.789C143.803 283.077 143.855 282.776 143.946 282.402L145.689 275.197H147.371ZM154.774 285H153.188V281.172C153.188 279.786 152.726 279.094 151.801 279.094C151.336 279.094 150.944 279.294 150.625 279.695C150.306 280.096 150.146 280.609 150.146 281.233V285H148.554V274.637H150.146V279.162H150.174C150.702 278.278 151.459 277.836 152.443 277.836C153.997 277.836 154.774 278.786 154.774 280.687V285ZM162.629 281.931H157.857C157.876 282.578 158.074 283.077 158.452 283.428C158.835 283.779 159.359 283.954 160.024 283.954C160.772 283.954 161.458 283.731 162.082 283.284V284.562C161.444 284.964 160.601 285.164 159.553 285.164C158.523 285.164 157.714 284.847 157.126 284.214C156.543 283.576 156.251 282.68 156.251 281.527C156.251 280.438 156.572 279.552 157.215 278.868C157.862 278.18 158.664 277.836 159.621 277.836C160.578 277.836 161.319 278.144 161.843 278.759C162.367 279.374 162.629 280.229 162.629 281.322V281.931ZM161.098 280.81C161.093 280.24 160.959 279.798 160.694 279.483C160.43 279.164 160.065 279.005 159.601 279.005C159.145 279.005 158.757 279.171 158.438 279.504C158.124 279.837 157.93 280.272 157.857 280.81H161.098ZM168.2 279.511C168.009 279.36 167.733 279.285 167.373 279.285C166.904 279.285 166.512 279.497 166.197 279.921C165.883 280.345 165.726 280.921 165.726 281.65V285H164.14V278H165.726V279.442H165.753C165.908 278.95 166.145 278.567 166.464 278.294C166.787 278.016 167.147 277.877 167.544 277.877C167.831 277.877 168.05 277.92 168.2 278.007V279.511ZM175.125 281.931H170.354C170.372 282.578 170.57 283.077 170.948 283.428C171.331 283.779 171.855 283.954 172.521 283.954C173.268 283.954 173.954 283.731 174.578 283.284V284.562C173.94 284.964 173.097 285.164 172.049 285.164C171.019 285.164 170.21 284.847 169.622 284.214C169.039 283.576 168.747 282.68 168.747 281.527C168.747 280.438 169.068 279.552 169.711 278.868C170.358 278.18 171.16 277.836 172.117 277.836C173.074 277.836 173.815 278.144 174.339 278.759C174.863 279.374 175.125 280.229 175.125 281.322V281.931ZM173.594 280.81C173.589 280.24 173.455 279.798 173.19 279.483C172.926 279.164 172.562 279.005 172.097 279.005C171.641 279.005 171.254 279.171 170.935 279.504C170.62 279.837 170.426 280.272 170.354 280.81H173.594ZM184.183 284.925C183.873 285.08 183.465 285.157 182.959 285.157C181.601 285.157 180.922 284.506 180.922 283.202V279.244H179.753V278H180.922V276.38L182.508 275.929V278H184.183V279.244H182.508V282.744C182.508 283.159 182.583 283.455 182.733 283.633C182.884 283.811 183.134 283.899 183.485 283.899C183.754 283.899 183.987 283.822 184.183 283.667V284.925ZM188.571 285.164C187.491 285.164 186.628 284.838 185.98 284.187C185.338 283.53 185.017 282.662 185.017 281.582C185.017 280.406 185.352 279.488 186.021 278.827C186.696 278.166 187.603 277.836 188.742 277.836C189.836 277.836 190.688 278.157 191.299 278.8C191.91 279.442 192.215 280.333 192.215 281.473C192.215 282.589 191.884 283.485 191.224 284.159C190.567 284.829 189.683 285.164 188.571 285.164ZM188.646 279.101C188.027 279.101 187.537 279.317 187.177 279.75C186.817 280.183 186.637 280.78 186.637 281.541C186.637 282.275 186.819 282.854 187.184 283.277C187.548 283.697 188.036 283.906 188.646 283.906C189.271 283.906 189.749 283.699 190.082 283.284C190.419 282.869 190.588 282.279 190.588 281.514C190.588 280.743 190.419 280.149 190.082 279.729C189.749 279.31 189.271 279.101 188.646 279.101ZM197.253 284.781V283.312C197.845 283.763 198.499 283.988 199.215 283.988C200.172 283.988 200.65 283.706 200.65 283.141C200.65 282.981 200.609 282.847 200.527 282.737C200.445 282.623 200.334 282.523 200.192 282.437C200.056 282.35 199.892 282.272 199.7 282.204C199.513 282.136 199.304 282.058 199.071 281.972C198.784 281.858 198.524 281.737 198.292 281.609C198.064 281.482 197.873 281.338 197.718 281.179C197.567 281.015 197.453 280.83 197.376 280.625C197.299 280.42 197.26 280.181 197.26 279.907C197.26 279.57 197.34 279.274 197.499 279.019C197.659 278.759 197.873 278.542 198.142 278.369C198.41 278.191 198.716 278.059 199.058 277.973C199.399 277.882 199.753 277.836 200.117 277.836C200.764 277.836 201.343 277.934 201.854 278.13V279.518C201.361 279.18 200.796 279.012 200.158 279.012C199.958 279.012 199.775 279.032 199.611 279.073C199.452 279.114 199.315 279.171 199.201 279.244C199.087 279.317 198.998 279.406 198.935 279.511C198.871 279.611 198.839 279.723 198.839 279.846C198.839 279.996 198.871 280.124 198.935 280.229C198.998 280.333 199.092 280.427 199.215 280.509C199.342 280.586 199.493 280.659 199.666 280.728C199.844 280.791 200.047 280.862 200.274 280.939C200.575 281.062 200.844 281.188 201.081 281.315C201.323 281.443 201.528 281.589 201.696 281.753C201.865 281.912 201.995 282.099 202.086 282.313C202.177 282.523 202.223 282.774 202.223 283.065C202.223 283.421 202.141 283.731 201.977 283.995C201.812 284.259 201.594 284.478 201.32 284.651C201.047 284.825 200.73 284.952 200.37 285.034C200.015 285.121 199.639 285.164 199.242 285.164C198.477 285.164 197.813 285.036 197.253 284.781ZM209.66 281.931H204.889C204.907 282.578 205.105 283.077 205.483 283.428C205.866 283.779 206.39 283.954 207.056 283.954C207.803 283.954 208.489 283.731 209.113 283.284V284.562C208.475 284.964 207.632 285.164 206.584 285.164C205.554 285.164 204.745 284.847 204.157 284.214C203.574 283.576 203.282 282.68 203.282 281.527C203.282 280.438 203.604 279.552 204.246 278.868C204.893 278.18 205.695 277.836 206.652 277.836C207.609 277.836 208.35 278.144 208.874 278.759C209.398 279.374 209.66 280.229 209.66 281.322V281.931ZM208.129 280.81C208.124 280.24 207.99 279.798 207.726 279.483C207.461 279.164 207.097 279.005 206.632 279.005C206.176 279.005 205.789 279.171 205.47 279.504C205.155 279.837 204.962 280.272 204.889 280.81H208.129ZM217.405 285H215.819V281.056C215.819 279.748 215.357 279.094 214.432 279.094C213.949 279.094 213.55 279.276 213.235 279.641C212.921 280.001 212.764 280.456 212.764 281.008V285H211.171V278H212.764V279.162H212.791C213.315 278.278 214.072 277.836 215.061 277.836C215.822 277.836 216.403 278.084 216.804 278.581C217.205 279.073 217.405 279.786 217.405 280.721V285ZM225.711 285H224.125V283.811H224.098C223.587 284.713 222.801 285.164 221.739 285.164C220.878 285.164 220.188 284.852 219.668 284.228C219.153 283.599 218.896 282.744 218.896 281.664C218.896 280.507 219.18 279.579 219.75 278.882C220.324 278.185 221.088 277.836 222.04 277.836C222.983 277.836 223.669 278.214 224.098 278.971H224.125V274.637H225.711V285ZM224.146 281.801V280.885C224.146 280.388 223.984 279.966 223.66 279.62C223.337 279.274 222.924 279.101 222.423 279.101C221.83 279.101 221.363 279.322 221.021 279.764C220.684 280.206 220.516 280.819 220.516 281.603C220.516 282.313 220.677 282.876 221.001 283.291C221.329 283.701 221.769 283.906 222.32 283.906C222.863 283.906 223.302 283.708 223.64 283.312C223.977 282.91 224.146 282.407 224.146 281.801Z" fill="var(--vscode-editor-background, white)"/>
<path opacity="0.8" d="M141.957 311.59C141.232 311.973 140.33 312.164 139.25 312.164C137.855 312.164 136.739 311.715 135.9 310.817C135.062 309.92 134.643 308.742 134.643 307.283C134.643 305.715 135.114 304.449 136.058 303.482C137.001 302.516 138.197 302.033 139.646 302.033C140.576 302.033 141.346 302.168 141.957 302.437V303.66C141.255 303.268 140.48 303.072 139.633 303.072C138.507 303.072 137.593 303.448 136.892 304.2C136.194 304.952 135.846 305.957 135.846 307.215C135.846 308.409 136.172 309.361 136.823 310.072C137.479 310.779 138.339 311.132 139.4 311.132C140.385 311.132 141.237 310.913 141.957 310.476V311.59ZM149.463 312H148.342V310.893H148.314C147.85 311.74 147.13 312.164 146.154 312.164C144.486 312.164 143.652 311.171 143.652 309.184V305H144.767V309.006C144.767 310.482 145.332 311.221 146.462 311.221C147.009 311.221 147.458 311.02 147.809 310.619C148.164 310.214 148.342 309.685 148.342 309.033V305H149.463V312ZM151.309 311.747V310.544C151.919 310.995 152.591 311.221 153.325 311.221C154.31 311.221 154.802 310.893 154.802 310.236C154.802 310.049 154.758 309.892 154.672 309.765C154.59 309.632 154.476 309.516 154.33 309.416C154.189 309.316 154.02 309.227 153.824 309.149C153.633 309.067 153.425 308.983 153.202 308.896C152.892 308.773 152.619 308.65 152.382 308.527C152.149 308.4 151.953 308.258 151.794 308.104C151.639 307.944 151.521 307.764 151.438 307.563C151.361 307.363 151.322 307.128 151.322 306.859C151.322 306.531 151.397 306.242 151.548 305.991C151.698 305.736 151.899 305.524 152.149 305.355C152.4 305.182 152.685 305.052 153.004 304.966C153.327 304.879 153.66 304.836 154.002 304.836C154.608 304.836 155.15 304.941 155.629 305.15V306.285C155.114 305.948 154.521 305.779 153.852 305.779C153.642 305.779 153.453 305.804 153.284 305.854C153.116 305.9 152.97 305.966 152.847 306.053C152.728 306.139 152.635 306.244 152.566 306.367C152.503 306.486 152.471 306.618 152.471 306.764C152.471 306.946 152.503 307.099 152.566 307.222C152.635 307.345 152.733 307.454 152.86 307.55C152.988 307.646 153.143 307.732 153.325 307.81C153.507 307.887 153.715 307.971 153.947 308.062C154.257 308.181 154.535 308.304 154.781 308.432C155.027 308.555 155.237 308.696 155.41 308.855C155.583 309.01 155.715 309.19 155.807 309.396C155.902 309.601 155.95 309.844 155.95 310.127C155.95 310.473 155.873 310.774 155.718 311.029C155.567 311.285 155.365 311.496 155.109 311.665C154.854 311.834 154.56 311.959 154.228 312.041C153.895 312.123 153.546 312.164 153.182 312.164C152.462 312.164 151.837 312.025 151.309 311.747ZM160.927 311.932C160.662 312.077 160.314 312.15 159.881 312.15C158.655 312.15 158.042 311.467 158.042 310.1V305.957H156.839V305H158.042V303.291L159.163 302.929V305H160.927V305.957H159.163V309.901C159.163 310.371 159.243 310.706 159.402 310.906C159.562 311.107 159.826 311.207 160.195 311.207C160.478 311.207 160.722 311.13 160.927 310.975V311.932ZM165.35 312.164C164.315 312.164 163.488 311.838 162.868 311.187C162.253 310.53 161.945 309.662 161.945 308.582C161.945 307.406 162.267 306.488 162.909 305.827C163.552 305.166 164.42 304.836 165.514 304.836C166.557 304.836 167.371 305.157 167.954 305.8C168.542 306.442 168.836 307.333 168.836 308.473C168.836 309.589 168.519 310.485 167.886 311.159C167.257 311.829 166.411 312.164 165.35 312.164ZM165.432 305.779C164.712 305.779 164.142 306.025 163.723 306.518C163.303 307.005 163.094 307.68 163.094 308.541C163.094 309.37 163.306 310.024 163.729 310.503C164.153 310.981 164.721 311.221 165.432 311.221C166.156 311.221 166.712 310.986 167.1 310.517C167.492 310.047 167.688 309.38 167.688 308.514C167.688 307.639 167.492 306.964 167.1 306.49C166.712 306.016 166.156 305.779 165.432 305.779ZM180.566 312H179.445V307.98C179.445 307.206 179.325 306.645 179.083 306.299C178.846 305.952 178.445 305.779 177.88 305.779C177.401 305.779 176.993 305.998 176.656 306.436C176.324 306.873 176.157 307.397 176.157 308.008V312H175.036V307.844C175.036 306.467 174.505 305.779 173.443 305.779C172.951 305.779 172.546 305.987 172.227 306.401C171.908 306.812 171.748 307.347 171.748 308.008V312H170.627V305H171.748V306.107H171.775C172.272 305.26 172.997 304.836 173.949 304.836C174.428 304.836 174.845 304.97 175.2 305.239C175.556 305.504 175.799 305.852 175.932 306.285C176.451 305.319 177.226 304.836 178.256 304.836C179.796 304.836 180.566 305.786 180.566 307.687V312ZM183.26 303.223C183.059 303.223 182.888 303.154 182.747 303.018C182.606 302.881 182.535 302.708 182.535 302.498C182.535 302.288 182.606 302.115 182.747 301.979C182.888 301.837 183.059 301.767 183.26 301.767C183.465 301.767 183.638 301.837 183.779 301.979C183.925 302.115 183.998 302.288 183.998 302.498C183.998 302.699 183.925 302.869 183.779 303.011C183.638 303.152 183.465 303.223 183.26 303.223ZM183.807 312H182.686V305H183.807V312ZM190.957 305.321L186.814 311.043H190.916V312H185.167V311.651L189.31 305.957H185.557V305H190.957V305.321ZM198.032 308.78H193.09C193.108 309.56 193.318 310.161 193.719 310.585C194.12 311.009 194.671 311.221 195.373 311.221C196.161 311.221 196.886 310.961 197.547 310.441V311.494C196.932 311.941 196.118 312.164 195.106 312.164C194.118 312.164 193.34 311.847 192.775 311.214C192.21 310.576 191.928 309.68 191.928 308.527C191.928 307.438 192.235 306.552 192.851 305.868C193.47 305.18 194.238 304.836 195.154 304.836C196.07 304.836 196.779 305.132 197.28 305.725C197.782 306.317 198.032 307.14 198.032 308.192V308.78ZM196.884 307.83C196.879 307.183 196.722 306.679 196.412 306.319C196.107 305.959 195.681 305.779 195.134 305.779C194.605 305.779 194.156 305.968 193.787 306.347C193.418 306.725 193.19 307.219 193.104 307.83H196.884ZM212.395 305L210.296 312H209.134L207.691 306.989C207.637 306.798 207.6 306.581 207.582 306.34H207.555C207.541 306.504 207.493 306.716 207.411 306.976L205.846 312H204.725L202.605 305H203.781L205.23 310.264C205.276 310.423 205.308 310.633 205.326 310.893H205.381C205.395 310.692 205.436 310.478 205.504 310.25L207.117 305H208.143L209.592 310.277C209.637 310.446 209.672 310.656 209.694 310.906H209.749C209.758 310.729 209.797 310.519 209.865 310.277L211.287 305H212.395ZM219.504 312H218.383V307.967C218.383 306.508 217.84 305.779 216.756 305.779C216.209 305.779 215.749 305.991 215.375 306.415C215.001 306.834 214.814 307.374 214.814 308.035V312H213.693V301.637H214.814V306.162H214.842C215.38 305.278 216.145 304.836 217.139 304.836C218.715 304.836 219.504 305.786 219.504 307.687V312ZM227.249 308.78H222.307C222.325 309.56 222.535 310.161 222.936 310.585C223.337 311.009 223.888 311.221 224.59 311.221C225.378 311.221 226.103 310.961 226.764 310.441V311.494C226.148 311.941 225.335 312.164 224.323 312.164C223.334 312.164 222.557 311.847 221.992 311.214C221.427 310.576 221.145 309.68 221.145 308.527C221.145 307.438 221.452 306.552 222.067 305.868C222.687 305.18 223.455 304.836 224.371 304.836C225.287 304.836 225.996 305.132 226.497 305.725C226.998 306.317 227.249 307.14 227.249 308.192V308.78ZM226.101 307.83C226.096 307.183 225.939 306.679 225.629 306.319C225.324 305.959 224.897 305.779 224.351 305.779C223.822 305.779 223.373 305.968 223.004 306.347C222.635 306.725 222.407 307.219 222.32 307.83H226.101ZM232.602 306.135C232.406 305.984 232.123 305.909 231.754 305.909C231.275 305.909 230.874 306.135 230.551 306.586C230.232 307.037 230.072 307.652 230.072 308.432V312H228.951V305H230.072V306.442H230.1C230.259 305.95 230.503 305.567 230.831 305.294C231.159 305.016 231.526 304.877 231.932 304.877C232.223 304.877 232.447 304.909 232.602 304.973V306.135ZM239.444 308.78H234.502C234.52 309.56 234.73 310.161 235.131 310.585C235.532 311.009 236.083 311.221 236.785 311.221C237.574 311.221 238.298 310.961 238.959 310.441V311.494C238.344 311.941 237.53 312.164 236.519 312.164C235.53 312.164 234.753 311.847 234.188 311.214C233.622 310.576 233.34 309.68 233.34 308.527C233.34 307.438 233.647 306.552 234.263 305.868C234.882 305.18 235.65 304.836 236.566 304.836C237.482 304.836 238.191 305.132 238.692 305.725C239.194 306.317 239.444 307.14 239.444 308.192V308.78ZM238.296 307.83C238.291 307.183 238.134 306.679 237.824 306.319C237.519 305.959 237.093 305.779 236.546 305.779C236.017 305.779 235.568 305.968 235.199 306.347C234.83 306.725 234.602 307.219 234.516 307.83H238.296ZM250.799 312H249.678V308.008C249.678 306.522 249.135 305.779 248.051 305.779C247.49 305.779 247.025 305.991 246.656 306.415C246.292 306.834 246.109 307.365 246.109 308.008V312H244.988V305H246.109V306.162H246.137C246.665 305.278 247.431 304.836 248.434 304.836C249.199 304.836 249.785 305.084 250.19 305.581C250.596 306.073 250.799 306.786 250.799 307.721V312ZM255.844 312.164C254.809 312.164 253.982 311.838 253.362 311.187C252.747 310.53 252.439 309.662 252.439 308.582C252.439 307.406 252.761 306.488 253.403 305.827C254.046 305.166 254.914 304.836 256.008 304.836C257.051 304.836 257.865 305.157 258.448 305.8C259.036 306.442 259.33 307.333 259.33 308.473C259.33 309.589 259.013 310.485 258.38 311.159C257.751 311.829 256.906 312.164 255.844 312.164ZM255.926 305.779C255.206 305.779 254.636 306.025 254.217 306.518C253.798 307.005 253.588 307.68 253.588 308.541C253.588 309.37 253.8 310.024 254.224 310.503C254.647 310.981 255.215 311.221 255.926 311.221C256.65 311.221 257.206 310.986 257.594 310.517C257.986 310.047 258.182 309.38 258.182 308.514C258.182 307.639 257.986 306.964 257.594 306.49C257.206 306.016 256.65 305.779 255.926 305.779ZM264.368 311.932C264.104 312.077 263.755 312.15 263.322 312.15C262.096 312.15 261.483 311.467 261.483 310.1V305.957H260.28V305H261.483V303.291L262.604 302.929V305H264.368V305.957H262.604V309.901C262.604 310.371 262.684 310.706 262.844 310.906C263.003 311.107 263.268 311.207 263.637 311.207C263.919 311.207 264.163 311.13 264.368 310.975V311.932ZM266.439 303.223C266.239 303.223 266.068 303.154 265.927 303.018C265.785 302.881 265.715 302.708 265.715 302.498C265.715 302.288 265.785 302.115 265.927 301.979C266.068 301.837 266.239 301.767 266.439 301.767C266.645 301.767 266.818 301.837 266.959 301.979C267.105 302.115 267.178 302.288 267.178 302.498C267.178 302.699 267.105 302.869 266.959 303.011C266.818 303.152 266.645 303.223 266.439 303.223ZM266.986 312H265.865V305H266.986V312ZM272.715 302.621C272.496 302.498 272.248 302.437 271.97 302.437C271.186 302.437 270.794 302.931 270.794 303.92V305H272.435V305.957H270.794V312H269.68V305.957H268.483V305H269.68V303.865C269.68 303.132 269.892 302.553 270.315 302.129C270.739 301.701 271.268 301.486 271.901 301.486C272.243 301.486 272.514 301.527 272.715 301.609V302.621ZM274.219 303.223C274.018 303.223 273.847 303.154 273.706 303.018C273.565 302.881 273.494 302.708 273.494 302.498C273.494 302.288 273.565 302.115 273.706 301.979C273.847 301.837 274.018 301.767 274.219 301.767C274.424 301.767 274.597 301.837 274.738 301.979C274.884 302.115 274.957 302.288 274.957 302.498C274.957 302.699 274.884 302.869 274.738 303.011C274.597 303.152 274.424 303.223 274.219 303.223ZM274.766 312H273.645V305H274.766V312ZM281.807 311.679C281.269 312.002 280.631 312.164 279.893 312.164C278.895 312.164 278.088 311.84 277.473 311.193C276.862 310.542 276.557 309.699 276.557 308.664C276.557 307.511 276.887 306.586 277.548 305.889C278.209 305.187 279.09 304.836 280.193 304.836C280.809 304.836 281.351 304.95 281.82 305.178V306.326C281.301 305.962 280.745 305.779 280.152 305.779C279.437 305.779 278.849 306.037 278.389 306.552C277.933 307.062 277.705 307.734 277.705 308.568C277.705 309.389 277.919 310.036 278.348 310.51C278.781 310.984 279.359 311.221 280.084 311.221C280.695 311.221 281.269 311.018 281.807 310.612V311.679ZM288.513 312H287.392V310.906H287.364C286.877 311.745 286.159 312.164 285.211 312.164C284.514 312.164 283.967 311.979 283.57 311.61C283.178 311.241 282.982 310.751 282.982 310.141C282.982 308.833 283.753 308.072 285.293 307.857L287.392 307.563C287.392 306.374 286.911 305.779 285.949 305.779C285.106 305.779 284.345 306.066 283.666 306.641V305.492C284.354 305.055 285.147 304.836 286.045 304.836C287.69 304.836 288.513 305.706 288.513 307.447V312ZM287.392 308.459L285.703 308.691C285.184 308.764 284.792 308.894 284.527 309.081C284.263 309.263 284.131 309.589 284.131 310.059C284.131 310.4 284.252 310.681 284.493 310.899C284.739 311.114 285.065 311.221 285.471 311.221C286.027 311.221 286.485 311.027 286.845 310.64C287.209 310.248 287.392 309.753 287.392 309.156V308.459ZM293.872 311.932C293.608 312.077 293.259 312.15 292.826 312.15C291.6 312.15 290.987 311.467 290.987 310.1V305.957H289.784V305H290.987V303.291L292.108 302.929V305H293.872V305.957H292.108V309.901C292.108 310.371 292.188 310.706 292.348 310.906C292.507 311.107 292.771 311.207 293.141 311.207C293.423 311.207 293.667 311.13 293.872 310.975V311.932ZM295.943 303.223C295.743 303.223 295.572 303.154 295.431 303.018C295.289 302.881 295.219 302.708 295.219 302.498C295.219 302.288 295.289 302.115 295.431 301.979C295.572 301.837 295.743 301.767 295.943 301.767C296.148 301.767 296.322 301.837 296.463 301.979C296.609 302.115 296.682 302.288 296.682 302.498C296.682 302.699 296.609 302.869 296.463 303.011C296.322 303.152 296.148 303.223 295.943 303.223ZM296.49 312H295.369V305H296.49V312ZM301.686 312.164C300.651 312.164 299.824 311.838 299.204 311.187C298.589 310.53 298.281 309.662 298.281 308.582C298.281 307.406 298.603 306.488 299.245 305.827C299.888 305.166 300.756 304.836 301.85 304.836C302.893 304.836 303.707 305.157 304.29 305.8C304.878 306.442 305.172 307.333 305.172 308.473C305.172 309.589 304.855 310.485 304.222 311.159C303.593 311.829 302.747 312.164 301.686 312.164ZM301.768 305.779C301.048 305.779 300.478 306.025 300.059 306.518C299.639 307.005 299.43 307.68 299.43 308.541C299.43 309.37 299.642 310.024 300.065 310.503C300.489 310.981 301.057 311.221 301.768 311.221C302.492 311.221 303.048 310.986 303.436 310.517C303.827 310.047 304.023 309.38 304.023 308.514C304.023 307.639 303.827 306.964 303.436 306.49C303.048 306.016 302.492 305.779 301.768 305.779ZM312.773 312H311.652V308.008C311.652 306.522 311.11 305.779 310.025 305.779C309.465 305.779 309 305.991 308.631 306.415C308.266 306.834 308.084 307.365 308.084 308.008V312H306.963V305H308.084V306.162H308.111C308.64 305.278 309.406 304.836 310.408 304.836C311.174 304.836 311.759 305.084 312.165 305.581C312.571 306.073 312.773 306.786 312.773 307.721V312ZM314.469 311.747V310.544C315.079 310.995 315.752 311.221 316.485 311.221C317.47 311.221 317.962 310.893 317.962 310.236C317.962 310.049 317.919 309.892 317.832 309.765C317.75 309.632 317.636 309.516 317.49 309.416C317.349 309.316 317.18 309.227 316.984 309.149C316.793 309.067 316.586 308.983 316.362 308.896C316.052 308.773 315.779 308.65 315.542 308.527C315.31 308.4 315.114 308.258 314.954 308.104C314.799 307.944 314.681 307.764 314.599 307.563C314.521 307.363 314.482 307.128 314.482 306.859C314.482 306.531 314.558 306.242 314.708 305.991C314.858 305.736 315.059 305.524 315.31 305.355C315.56 305.182 315.845 305.052 316.164 304.966C316.488 304.879 316.82 304.836 317.162 304.836C317.768 304.836 318.311 304.941 318.789 305.15V306.285C318.274 305.948 317.682 305.779 317.012 305.779C316.802 305.779 316.613 305.804 316.444 305.854C316.276 305.9 316.13 305.966 316.007 306.053C315.888 306.139 315.795 306.244 315.727 306.367C315.663 306.486 315.631 306.618 315.631 306.764C315.631 306.946 315.663 307.099 315.727 307.222C315.795 307.345 315.893 307.454 316.021 307.55C316.148 307.646 316.303 307.732 316.485 307.81C316.668 307.887 316.875 307.971 317.107 308.062C317.417 308.181 317.695 308.304 317.941 308.432C318.188 308.555 318.397 308.696 318.57 308.855C318.743 309.01 318.876 309.19 318.967 309.396C319.062 309.601 319.11 309.844 319.11 310.127C319.11 310.473 319.033 310.774 318.878 311.029C318.728 311.285 318.525 311.496 318.27 311.665C318.014 311.834 317.72 311.959 317.388 312.041C317.055 312.123 316.706 312.164 316.342 312.164C315.622 312.164 314.997 312.025 314.469 311.747ZM329.692 312H328.571V310.906H328.544C328.056 311.745 327.339 312.164 326.391 312.164C325.693 312.164 325.146 311.979 324.75 311.61C324.358 311.241 324.162 310.751 324.162 310.141C324.162 308.833 324.932 308.072 326.473 307.857L328.571 307.563C328.571 306.374 328.09 305.779 327.129 305.779C326.286 305.779 325.525 306.066 324.846 306.641V305.492C325.534 305.055 326.327 304.836 327.225 304.836C328.87 304.836 329.692 305.706 329.692 307.447V312ZM328.571 308.459L326.883 308.691C326.363 308.764 325.971 308.894 325.707 309.081C325.443 309.263 325.311 309.589 325.311 310.059C325.311 310.4 325.431 310.681 325.673 310.899C325.919 311.114 326.245 311.221 326.65 311.221C327.206 311.221 327.664 311.027 328.024 310.64C328.389 310.248 328.571 309.753 328.571 309.156V308.459ZM335.455 306.135C335.259 305.984 334.977 305.909 334.607 305.909C334.129 305.909 333.728 306.135 333.404 306.586C333.085 307.037 332.926 307.652 332.926 308.432V312H331.805V305H332.926V306.442H332.953C333.113 305.95 333.356 305.567 333.685 305.294C334.013 305.016 334.38 304.877 334.785 304.877C335.077 304.877 335.3 304.909 335.455 304.973V306.135ZM342.298 308.78H337.355C337.374 309.56 337.583 310.161 337.984 310.585C338.385 311.009 338.937 311.221 339.639 311.221C340.427 311.221 341.152 310.961 341.812 310.441V311.494C341.197 311.941 340.384 312.164 339.372 312.164C338.383 312.164 337.606 311.847 337.041 311.214C336.476 310.576 336.193 309.68 336.193 308.527C336.193 307.438 336.501 306.552 337.116 305.868C337.736 305.18 338.504 304.836 339.42 304.836C340.336 304.836 341.045 305.132 341.546 305.725C342.047 306.317 342.298 307.14 342.298 308.192V308.78ZM341.149 307.83C341.145 307.183 340.988 306.679 340.678 306.319C340.372 305.959 339.946 305.779 339.399 305.779C338.871 305.779 338.422 305.968 338.053 306.347C337.684 306.725 337.456 307.219 337.369 307.83H341.149ZM347.418 311.747V310.544C348.029 310.995 348.701 311.221 349.435 311.221C350.419 311.221 350.911 310.893 350.911 310.236C350.911 310.049 350.868 309.892 350.781 309.765C350.699 309.632 350.585 309.516 350.439 309.416C350.298 309.316 350.13 309.227 349.934 309.149C349.742 309.067 349.535 308.983 349.312 308.896C349.002 308.773 348.728 308.65 348.491 308.527C348.259 308.4 348.063 308.258 347.903 308.104C347.748 307.944 347.63 307.764 347.548 307.563C347.47 307.363 347.432 307.128 347.432 306.859C347.432 306.531 347.507 306.242 347.657 305.991C347.808 305.736 348.008 305.524 348.259 305.355C348.509 305.182 348.794 305.052 349.113 304.966C349.437 304.879 349.77 304.836 350.111 304.836C350.717 304.836 351.26 304.941 351.738 305.15V306.285C351.223 305.948 350.631 305.779 349.961 305.779C349.751 305.779 349.562 305.804 349.394 305.854C349.225 305.9 349.079 305.966 348.956 306.053C348.838 306.139 348.744 306.244 348.676 306.367C348.612 306.486 348.58 306.618 348.58 306.764C348.58 306.946 348.612 307.099 348.676 307.222C348.744 307.345 348.842 307.454 348.97 307.55C349.097 307.646 349.252 307.732 349.435 307.81C349.617 307.887 349.824 307.971 350.057 308.062C350.367 308.181 350.645 308.304 350.891 308.432C351.137 308.555 351.346 308.696 351.52 308.855C351.693 309.01 351.825 309.19 351.916 309.396C352.012 309.601 352.06 309.844 352.06 310.127C352.06 310.473 351.982 310.774 351.827 311.029C351.677 311.285 351.474 311.496 351.219 311.665C350.964 311.834 350.67 311.959 350.337 312.041C350.004 312.123 349.656 312.164 349.291 312.164C348.571 312.164 347.947 312.025 347.418 311.747ZM359.415 308.78H354.473C354.491 309.56 354.701 310.161 355.102 310.585C355.503 311.009 356.054 311.221 356.756 311.221C357.544 311.221 358.269 310.961 358.93 310.441V311.494C358.314 311.941 357.501 312.164 356.489 312.164C355.5 312.164 354.723 311.847 354.158 311.214C353.593 310.576 353.311 309.68 353.311 308.527C353.311 307.438 353.618 306.552 354.233 305.868C354.853 305.18 355.621 304.836 356.537 304.836C357.453 304.836 358.162 305.132 358.663 305.725C359.164 306.317 359.415 307.14 359.415 308.192V308.78ZM358.267 307.83C358.262 307.183 358.105 306.679 357.795 306.319C357.49 305.959 357.063 305.779 356.517 305.779C355.988 305.779 355.539 305.968 355.17 306.347C354.801 306.725 354.573 307.219 354.486 307.83H358.267ZM366.928 312H365.807V308.008C365.807 306.522 365.264 305.779 364.18 305.779C363.619 305.779 363.154 305.991 362.785 306.415C362.421 306.834 362.238 307.365 362.238 308.008V312H361.117V305H362.238V306.162H362.266C362.794 305.278 363.56 304.836 364.562 304.836C365.328 304.836 365.914 305.084 366.319 305.581C366.725 306.073 366.928 306.786 366.928 307.721V312ZM372.294 311.932C372.03 312.077 371.681 312.15 371.248 312.15C370.022 312.15 369.409 311.467 369.409 310.1V305.957H368.206V305H369.409V303.291L370.53 302.929V305H372.294V305.957H370.53V309.901C370.53 310.371 370.61 310.706 370.77 310.906C370.929 311.107 371.193 311.207 371.562 311.207C371.845 311.207 372.089 311.13 372.294 310.975V311.932ZM374.181 312.15C373.971 312.15 373.791 312.075 373.641 311.925C373.495 311.774 373.422 311.594 373.422 311.385C373.422 311.175 373.495 310.995 373.641 310.845C373.791 310.69 373.971 310.612 374.181 310.612C374.395 310.612 374.577 310.69 374.728 310.845C374.878 310.995 374.953 311.175 374.953 311.385C374.953 311.594 374.878 311.774 374.728 311.925C374.577 312.075 374.395 312.15 374.181 312.15Z" fill="var(--vscode-editor-background, white)"/>
<path d="M0.5 260C0.5 255.858 3.85786 252.5 8 252.5H102C106.142 252.5 109.5 255.858 109.5 260V354C109.5 358.142 106.142 361.5 102 361.5H8C3.85786 361.5 0.5 358.142 0.5 354V260Z" fill="var(--vscode-editorWidget-background, #252526)" stroke="var(--vscode-panelTitle-activeBorder, #005FB8)"/>
<g clip-path="url(#clip0_105_4998)">
<path d="M31.8296 314.219L72.7427 287.5L56.9883 332.5L53.0552 312.175L31.8296 314.219ZM57.6694 323.359L68.1724 293.345L41.2559 310.901C43.5557 310.681 45.8408 310.469 48.1113 310.264C50.3818 310.059 52.6743 309.832 54.9888 309.583C55.4429 311.897 55.8896 314.189 56.3291 316.46C56.7686 318.73 57.2153 321.03 57.6694 323.359Z" fill="var(--vscode-editor-background, white)"/>
</g>
<defs>
<clipPath id="clip0_105_4998">
<rect width="45" height="45" fill="var(--vscode-editor-background, white)" transform="translate(31.5 287.5)"/>
</clipPath>
</defs>
</svg>
