<svg width="588" height="362" viewBox="0 0 588 362" fill="none" xmlns="http://www.w3.org/2000/svg">
<a href="command:fx-extension.selectTutorials?%5B%22WalkThrough%22%5D">
<path d="M109.5 0.5H584C585.933 0.5 587.5 2.067 587.5 4V106C587.5 107.933 585.933 109.5 584 109.5H109.5V0.5Z" fill="var(--vscode-notificationCenterHeader-background, #2c2c2d)" stroke="var(--vscode-contrastBorder)"/>
<path d="M143.769 48V38.1357H141.704V42.1416H137.261V38.1357H135.196V48H137.261V43.8438H141.704V48H143.769ZM149.306 48.1572C151.623 48.1572 153.018 46.6943 153.018 44.2334C153.018 41.793 151.603 40.3096 149.306 40.3096C147.009 40.3096 145.594 41.7998 145.594 44.2334C145.594 46.6875 146.988 48.1572 149.306 48.1572ZM149.306 46.585C148.239 46.585 147.638 45.7236 147.638 44.2334C147.638 42.7568 148.246 41.8887 149.306 41.8887C150.358 41.8887 150.974 42.7568 150.974 44.2334C150.974 45.7236 150.365 46.585 149.306 46.585ZM164.775 40.4736H162.8L161.679 45.9219H161.556L160.229 40.4736H158.329L157.01 45.9219H156.887L155.766 40.4736H153.749L155.759 48H157.851L159.184 42.75H159.307L160.653 48H162.772L164.775 40.4736ZM170.593 44.917V43.1191H166.102V44.917H170.593ZM173.163 38.6758V40.542H171.987V42.0527H173.163V45.9697C173.163 47.4326 173.888 48.0273 175.72 48.0273C176.103 48.0273 176.472 47.9863 176.718 47.9385V46.4688C176.526 46.4893 176.39 46.5029 176.13 46.5029C175.453 46.5029 175.152 46.1885 175.152 45.5117V42.0527H176.718V40.542H175.152V38.6758H173.163ZM181.667 48.1572C183.984 48.1572 185.379 46.6943 185.379 44.2334C185.379 41.793 183.964 40.3096 181.667 40.3096C179.37 40.3096 177.955 41.7998 177.955 44.2334C177.955 46.6875 179.35 48.1572 181.667 48.1572ZM181.667 46.585C180.601 46.585 179.999 45.7236 179.999 44.2334C179.999 42.7568 180.607 41.8887 181.667 41.8887C182.72 41.8887 183.335 42.7568 183.335 44.2334C183.335 45.7236 182.727 46.585 181.667 46.585ZM193.938 50.8506C196.214 50.8506 197.656 49.7432 197.656 47.9863V40.4736H195.729V41.6768H195.605C195.202 40.8564 194.334 40.3506 193.315 40.3506C191.401 40.3506 190.226 41.8408 190.226 44.1719C190.226 46.4277 191.395 47.8906 193.274 47.8906C194.334 47.8906 195.127 47.46 195.544 46.667H195.667V48.0684C195.667 48.9365 195.045 49.4424 193.979 49.4424C193.117 49.4424 192.557 49.1416 192.454 48.6631H190.485C190.608 49.9824 191.935 50.8506 193.938 50.8506ZM193.965 46.3662C192.885 46.3662 192.27 45.5186 192.27 44.165C192.27 42.8115 192.892 41.9639 193.965 41.9639C195.038 41.9639 195.688 42.8115 195.688 44.165C195.688 45.5186 195.045 46.3662 193.965 46.3662ZM206.475 40.4736H204.485V44.8213C204.485 45.8535 203.952 46.4893 202.961 46.4893C202.045 46.4893 201.573 45.9492 201.573 44.8828V40.4736H199.584V45.375C199.584 47.125 200.596 48.1572 202.223 48.1572C203.364 48.1572 204.068 47.665 204.424 46.79H204.547V48H206.475V40.4736ZM209.482 39.3184C210.098 39.3184 210.604 38.8262 210.604 38.2109C210.604 37.5889 210.098 37.0967 209.482 37.0967C208.867 37.0967 208.354 37.5889 208.354 38.2109C208.354 38.8262 208.867 39.3184 209.482 39.3184ZM208.484 48H210.474V40.4736H208.484V48ZM215.19 48.1162C216.236 48.1162 217.091 47.6309 217.494 46.8174H217.617V48H219.545V37.5957H217.556V41.6768H217.439C217.05 40.8428 216.209 40.3506 215.19 40.3506C213.297 40.3506 212.121 41.834 212.121 44.2266C212.121 46.626 213.29 48.1162 215.19 48.1162ZM215.867 41.9639C216.927 41.9639 217.576 42.832 217.576 44.2402C217.576 45.6484 216.934 46.5098 215.867 46.5098C214.801 46.5098 214.165 45.6553 214.165 44.2334C214.165 42.8184 214.808 41.9639 215.867 41.9639ZM226.483 45.874C226.271 46.3867 225.731 46.6738 224.945 46.6738C223.906 46.6738 223.25 45.9561 223.223 44.8076V44.7051H228.397V44.1104C228.397 41.7314 227.085 40.3096 224.863 40.3096C222.621 40.3096 221.24 41.8271 221.24 44.2744C221.24 46.708 222.594 48.1572 224.891 48.1572C226.736 48.1572 228.042 47.2754 228.336 45.874H226.483ZM224.87 41.793C225.8 41.793 226.401 42.4355 226.442 43.4678H223.229C223.298 42.4561 223.947 41.793 224.87 41.793ZM229.86 42.668C229.86 43.8232 230.571 44.5137 232.034 44.835L233.401 45.1426C234.064 45.293 234.352 45.5254 234.352 45.9082C234.352 46.4072 233.818 46.749 233.046 46.749C232.253 46.749 231.768 46.4414 231.617 45.9219H229.676C229.812 47.3438 231.016 48.1572 233.005 48.1572C234.98 48.1572 236.327 47.1865 236.327 45.6963C236.327 44.5752 235.671 43.96 234.208 43.6387L232.793 43.3311C232.096 43.1738 231.774 42.9346 231.774 42.5518C231.774 42.0596 232.301 41.7246 233.012 41.7246C233.75 41.7246 234.208 42.0322 234.311 42.5312H236.149C236.04 41.1094 234.912 40.3096 232.998 40.3096C231.118 40.3096 229.86 41.2598 229.86 42.668Z" fill="var(--vscode-inputOption-activeForeground, white)"/>
<path opacity="0.8" d="M134.717 67.5562C134.819 69.1812 136.184 70.2222 138.215 70.2222C140.386 70.2222 141.744 69.1304 141.744 67.3975C141.744 66.0264 140.97 65.271 139.091 64.8203L138.082 64.5728C136.888 64.2808 136.406 63.8999 136.406 63.2334C136.406 62.3765 137.155 61.8242 138.278 61.8242C139.345 61.8242 140.081 62.3574 140.214 63.2271H141.598C141.516 61.6973 140.157 60.6182 138.297 60.6182C136.298 60.6182 134.965 61.6973 134.965 63.3096C134.965 64.6426 135.72 65.4297 137.377 65.8296L138.558 66.1152C139.77 66.4072 140.303 66.8516 140.303 67.5688C140.303 68.4067 139.465 69.0098 138.323 69.0098C137.098 69.0098 136.247 68.4448 136.126 67.5562H134.717ZM149.311 65.3218C149.133 63.9824 148.085 62.9731 146.353 62.9731C144.34 62.9731 143.115 64.3379 143.115 66.5278C143.115 68.7622 144.347 70.1333 146.359 70.1333C148.066 70.1333 149.133 69.1748 149.311 67.8164H147.984C147.806 68.5654 147.216 68.9717 146.353 68.9717C145.216 68.9717 144.512 68.0513 144.512 66.5278C144.512 65.0361 145.21 64.1348 146.353 64.1348C147.267 64.1348 147.825 64.6489 147.984 65.3218H149.311ZM155.404 68.1528C155.15 68.7114 154.585 69.0161 153.76 69.0161C152.668 69.0161 151.964 68.229 151.919 66.9785V66.915H156.801V66.4453C156.801 64.2871 155.639 62.9731 153.716 62.9731C151.767 62.9731 150.529 64.376 150.529 66.5659C150.529 68.7686 151.742 70.1333 153.722 70.1333C155.303 70.1333 156.42 69.3716 156.718 68.1528H155.404ZM153.709 64.084C154.719 64.084 155.379 64.814 155.411 65.9312H151.919C151.996 64.8203 152.7 64.084 153.709 64.084ZM158.438 70H159.803V65.9565C159.803 64.8457 160.444 64.1602 161.454 64.1602C162.463 64.1602 162.945 64.7188 162.945 65.8613V70H164.31V65.5376C164.31 63.8936 163.459 62.9731 161.917 62.9731C160.876 62.9731 160.19 63.4365 159.854 64.1982H159.752V63.1064H158.438V70ZM168.144 70.1143C169.052 70.1143 169.807 69.7207 170.22 69.0225H170.328V70H171.642V65.2837C171.642 63.8364 170.664 62.9731 168.931 62.9731C167.363 62.9731 166.246 63.7285 166.106 64.8901H167.427C167.579 64.3887 168.106 64.103 168.868 64.103C169.801 64.103 170.283 64.5283 170.283 65.2837V65.8867L168.411 66.001C166.767 66.1025 165.84 66.8198 165.84 68.0576C165.84 69.3145 166.811 70.1143 168.144 70.1143ZM168.493 69.0161C167.75 69.0161 167.211 68.6416 167.211 68.0005C167.211 67.3721 167.643 67.0356 168.595 66.9722L170.283 66.8579V67.4546C170.283 68.3433 169.521 69.0161 168.493 69.0161ZM173.584 70H174.949V65.8804C174.949 64.9092 175.679 64.2427 176.713 64.2427C176.955 64.2427 177.361 64.2871 177.475 64.3188V63.0366C177.329 63.0049 177.069 62.9858 176.866 62.9858C175.964 62.9858 175.196 63.4746 175 64.1538H174.898V63.1064H173.584V70ZM179.494 61.875C179.97 61.875 180.357 61.4878 180.357 61.0181C180.357 60.542 179.97 60.1548 179.494 60.1548C179.018 60.1548 178.63 60.542 178.63 61.0181C178.63 61.4878 179.018 61.875 179.494 61.875ZM178.814 70H180.173V63.1064H178.814V70ZM185.099 70.1333C187.117 70.1333 188.355 68.7812 188.355 66.5532C188.355 64.3252 187.111 62.9731 185.099 62.9731C183.08 62.9731 181.836 64.3315 181.836 66.5532C181.836 68.7812 183.074 70.1333 185.099 70.1333ZM185.099 68.9717C183.912 68.9717 183.245 68.0894 183.245 66.5532C183.245 65.0171 183.912 64.1284 185.099 64.1284C186.279 64.1284 186.952 65.0171 186.952 66.5532C186.952 68.083 186.279 68.9717 185.099 68.9717ZM194.188 66.9404V65.6772H190.024V66.9404H194.188ZM199.857 70.1143C201.603 70.1143 202.713 68.7241 202.713 66.5532C202.713 64.3633 201.609 62.9858 199.857 62.9858C198.911 62.9858 198.099 63.4492 197.73 64.1982H197.623V60.4023H196.258V70H197.572V68.9082H197.673C198.086 69.6699 198.892 70.1143 199.857 70.1143ZM199.463 64.1538C200.619 64.1538 201.311 65.0615 201.311 66.5532C201.311 68.0449 200.619 68.9463 199.463 68.9463C198.314 68.9463 197.604 68.0322 197.597 66.5532C197.604 65.0742 198.321 64.1538 199.463 64.1538ZM206.268 70.1143C207.176 70.1143 207.931 69.7207 208.344 69.0225H208.452V70H209.766V65.2837C209.766 63.8364 208.788 62.9731 207.055 62.9731C205.487 62.9731 204.37 63.7285 204.23 64.8901H205.551C205.703 64.3887 206.23 64.103 206.992 64.103C207.925 64.103 208.407 64.5283 208.407 65.2837V65.8867L206.535 66.001C204.891 66.1025 203.964 66.8198 203.964 68.0576C203.964 69.3145 204.935 70.1143 206.268 70.1143ZM206.617 69.0161C205.875 69.0161 205.335 68.6416 205.335 68.0005C205.335 67.3721 205.767 67.0356 206.719 66.9722L208.407 66.8579V67.4546C208.407 68.3433 207.646 69.0161 206.617 69.0161ZM211.549 65.0361C211.549 66.0581 212.159 66.6421 213.473 66.9468L214.679 67.2324C215.371 67.3975 215.694 67.6768 215.694 68.1084C215.694 68.6733 215.091 69.0669 214.241 69.0669C213.416 69.0669 212.908 68.7305 212.736 68.1909H211.372C211.492 69.3906 212.565 70.1333 214.209 70.1333C215.859 70.1333 217.072 69.2637 217.072 67.9814C217.072 66.9785 216.456 66.4136 215.142 66.1089L213.993 65.8423C213.244 65.6646 212.895 65.3979 212.895 64.9727C212.895 64.4141 213.473 64.0396 214.234 64.0396C215.009 64.0396 215.504 64.376 215.631 64.8901H216.938C216.805 63.6968 215.79 62.9731 214.234 62.9731C212.673 62.9731 211.549 63.8364 211.549 65.0361ZM223.248 68.1528C222.994 68.7114 222.429 69.0161 221.604 69.0161C220.512 69.0161 219.808 68.229 219.763 66.9785V66.915H224.645V66.4453C224.645 64.2871 223.483 62.9731 221.56 62.9731C219.611 62.9731 218.373 64.376 218.373 66.5659C218.373 68.7686 219.585 70.1333 221.566 70.1333C223.146 70.1333 224.264 69.3716 224.562 68.1528H223.248ZM221.553 64.084C222.562 64.084 223.223 64.814 223.254 65.9312H219.763C219.839 64.8203 220.544 64.084 221.553 64.084ZM228.809 70.1143C229.761 70.1143 230.567 69.6636 230.979 68.9082H231.087V70H232.395V60.4023H231.03V64.1982H230.929C230.554 63.4429 229.754 62.9858 228.809 62.9858C227.063 62.9858 225.939 64.376 225.939 66.5469C225.939 68.7305 227.05 70.1143 228.809 70.1143ZM229.196 64.1538C230.338 64.1538 231.056 65.0806 231.056 66.5532C231.056 68.0386 230.345 68.9463 229.196 68.9463C228.041 68.9463 227.349 68.0513 227.349 66.5532C227.349 65.0615 228.047 64.1538 229.196 64.1538ZM238.063 70H239.428V65.9629C239.428 64.8838 240.05 64.1665 241.167 64.1665C242.132 64.1665 242.646 64.7314 242.646 65.8677V70H244.011V65.5439C244.011 63.9126 243.104 62.9795 241.631 62.9795C240.59 62.9795 239.86 63.4365 239.523 64.2046H239.416V60.4023H238.063V70ZM248.854 70.1333C250.873 70.1333 252.111 68.7812 252.111 66.5532C252.111 64.3252 250.867 62.9731 248.854 62.9731C246.836 62.9731 245.592 64.3315 245.592 66.5532C245.592 68.7812 246.83 70.1333 248.854 70.1333ZM248.854 68.9717C247.667 68.9717 247.001 68.0894 247.001 66.5532C247.001 65.0171 247.667 64.1284 248.854 64.1284C250.035 64.1284 250.708 65.0171 250.708 66.5532C250.708 68.083 250.035 68.9717 248.854 68.9717ZM262.489 63.1064H261.125L259.893 68.4258H259.785L258.363 63.1064H257.056L255.634 68.4258H255.532L254.294 63.1064H252.911L254.815 70H256.218L257.64 64.8584H257.748L259.176 70H260.591L262.489 63.1064ZM267.923 66.9404V65.6772H263.759V66.9404H267.923ZM270.195 61.3672V63.1255H269.097V64.2173H270.195V68.1846C270.195 69.5112 270.798 70.0444 272.315 70.0444C272.582 70.0444 272.836 70.0127 273.058 69.9746V68.8892C272.868 68.9082 272.747 68.9209 272.538 68.9209C271.858 68.9209 271.56 68.5972 271.56 67.8545V64.2173H273.058V63.1255H271.56V61.3672H270.195ZM277.508 70.1333C279.526 70.1333 280.764 68.7812 280.764 66.5532C280.764 64.3252 279.52 62.9731 277.508 62.9731C275.489 62.9731 274.245 64.3315 274.245 66.5532C274.245 68.7812 275.483 70.1333 277.508 70.1333ZM277.508 68.9717C276.321 68.9717 275.654 68.0894 275.654 66.5532C275.654 65.0171 276.321 64.1284 277.508 64.1284C278.688 64.1284 279.361 65.0171 279.361 66.5532C279.361 68.083 278.688 68.9717 277.508 68.9717ZM288.876 72.6343C290.832 72.6343 292.069 71.6377 292.069 70.0698V63.1064H290.762V64.2046H290.654C290.267 63.4556 289.435 62.9858 288.483 62.9858C286.718 62.9858 285.614 64.376 285.614 66.4644C285.614 68.5337 286.706 69.8984 288.47 69.8984C289.422 69.8984 290.184 69.4858 290.603 68.7368H290.705V70.0635C290.705 70.9966 290.032 71.5552 288.896 71.5552C287.975 71.5552 287.397 71.2251 287.283 70.7046H285.887C286.033 71.8662 287.15 72.6343 288.876 72.6343ZM288.857 68.7686C287.683 68.7686 287.023 67.8735 287.023 66.4644C287.023 65.0552 287.683 64.1538 288.857 64.1538C290.019 64.1538 290.73 65.0552 290.73 66.4644C290.73 67.8735 290.025 68.7686 288.857 68.7686ZM299.877 63.1064H298.512V67.1499C298.512 68.2607 297.909 68.9336 296.805 68.9336C295.802 68.9336 295.351 68.3877 295.351 67.2451V63.1064H293.986V67.5815C293.986 69.2002 294.837 70.1333 296.367 70.1333C297.414 70.1333 298.119 69.689 298.455 68.9082H298.563V70H299.877V63.1064ZM302.562 61.875C303.038 61.875 303.425 61.4878 303.425 61.0181C303.425 60.542 303.038 60.1548 302.562 60.1548C302.086 60.1548 301.699 60.542 301.699 61.0181C301.699 61.4878 302.086 61.875 302.562 61.875ZM301.883 70H303.241V63.1064H301.883V70ZM307.773 70.1143C308.726 70.1143 309.532 69.6636 309.944 68.9082H310.052V70H311.36V60.4023H309.995V64.1982H309.894C309.519 63.4429 308.719 62.9858 307.773 62.9858C306.028 62.9858 304.904 64.376 304.904 66.5469C304.904 68.7305 306.015 70.1143 307.773 70.1143ZM308.161 64.1538C309.303 64.1538 310.021 65.0806 310.021 66.5532C310.021 68.0386 309.31 68.9463 308.161 68.9463C307.005 68.9463 306.313 68.0513 306.313 66.5532C306.313 65.0615 307.012 64.1538 308.161 64.1538ZM317.942 68.1528C317.688 68.7114 317.124 69.0161 316.298 69.0161C315.207 69.0161 314.502 68.229 314.458 66.9785V66.915H319.339V66.4453C319.339 64.2871 318.177 62.9731 316.254 62.9731C314.305 62.9731 313.067 64.376 313.067 66.5659C313.067 68.7686 314.28 70.1333 316.26 70.1333C317.841 70.1333 318.958 69.3716 319.256 68.1528H317.942ZM316.248 64.084C317.257 64.084 317.917 64.814 317.949 65.9312H314.458C314.534 64.8203 315.238 64.084 316.248 64.084ZM320.818 65.0361C320.818 66.0581 321.427 66.6421 322.741 66.9468L323.947 67.2324C324.639 67.3975 324.963 67.6768 324.963 68.1084C324.963 68.6733 324.36 69.0669 323.509 69.0669C322.684 69.0669 322.176 68.7305 322.005 68.1909H320.64C320.761 69.3906 321.833 70.1333 323.478 70.1333C325.128 70.1333 326.34 69.2637 326.34 67.9814C326.34 66.9785 325.725 66.4136 324.411 66.1089L323.262 65.8423C322.513 65.6646 322.164 65.3979 322.164 64.9727C322.164 64.4141 322.741 64.0396 323.503 64.0396C324.277 64.0396 324.772 64.376 324.899 64.8901H326.207C326.074 63.6968 325.058 62.9731 323.503 62.9731C321.941 62.9731 320.818 63.8364 320.818 65.0361ZM332.021 61.3672V63.1255H330.923V64.2173H332.021V68.1846C332.021 69.5112 332.625 70.0444 334.142 70.0444C334.408 70.0444 334.662 70.0127 334.884 69.9746V68.8892C334.694 68.9082 334.573 68.9209 334.364 68.9209C333.685 68.9209 333.386 68.5972 333.386 67.8545V64.2173H334.884V63.1255H333.386V61.3672H332.021ZM339.334 70.1333C341.353 70.1333 342.59 68.7812 342.59 66.5532C342.59 64.3252 341.346 62.9731 339.334 62.9731C337.315 62.9731 336.071 64.3315 336.071 66.5532C336.071 68.7812 337.309 70.1333 339.334 70.1333ZM339.334 68.9717C338.147 68.9717 337.48 68.0894 337.48 66.5532C337.48 65.0171 338.147 64.1284 339.334 64.1284C340.515 64.1284 341.188 65.0171 341.188 66.5532C341.188 68.083 340.515 68.9717 339.334 68.9717ZM349.7 70.1143C350.607 70.1143 351.363 69.7207 351.775 69.0225H351.883V70H353.197V65.2837C353.197 63.8364 352.22 62.9731 350.487 62.9731C348.919 62.9731 347.802 63.7285 347.662 64.8901H348.982C349.135 64.3887 349.662 64.103 350.423 64.103C351.356 64.103 351.839 64.5283 351.839 65.2837V65.8867L349.966 66.001C348.322 66.1025 347.396 66.8198 347.396 68.0576C347.396 69.3145 348.367 70.1143 349.7 70.1143ZM350.049 69.0161C349.306 69.0161 348.767 68.6416 348.767 68.0005C348.767 67.3721 349.198 67.0356 350.15 66.9722L351.839 66.8579V67.4546C351.839 68.3433 351.077 69.0161 350.049 69.0161ZM357.666 70.1143C358.618 70.1143 359.424 69.6636 359.837 68.9082H359.945V70H361.252V60.4023H359.888V64.1982H359.786C359.412 63.4429 358.612 62.9858 357.666 62.9858C355.92 62.9858 354.797 64.376 354.797 66.5469C354.797 68.7305 355.908 70.1143 357.666 70.1143ZM358.053 64.1538C359.196 64.1538 359.913 65.0806 359.913 66.5532C359.913 68.0386 359.202 68.9463 358.053 68.9463C356.898 68.9463 356.206 68.0513 356.206 66.5532C356.206 65.0615 356.904 64.1538 358.053 64.1538ZM369.155 63.1064H367.708L365.994 68.6035H365.886L364.166 63.1064H362.706L365.201 70H366.667L369.155 63.1064ZM372.208 70.1143C373.116 70.1143 373.872 69.7207 374.284 69.0225H374.392V70H375.706V65.2837C375.706 63.8364 374.729 62.9731 372.996 62.9731C371.428 62.9731 370.311 63.7285 370.171 64.8901H371.491C371.644 64.3887 372.17 64.103 372.932 64.103C373.865 64.103 374.348 64.5283 374.348 65.2837V65.8867L372.475 66.001C370.831 66.1025 369.904 66.8198 369.904 68.0576C369.904 69.3145 370.875 70.1143 372.208 70.1143ZM372.558 69.0161C371.815 69.0161 371.275 68.6416 371.275 68.0005C371.275 67.3721 371.707 67.0356 372.659 66.9722L374.348 66.8579V67.4546C374.348 68.3433 373.586 69.0161 372.558 69.0161ZM377.648 70H379.013V65.9565C379.013 64.8457 379.654 64.1602 380.664 64.1602C381.673 64.1602 382.155 64.7188 382.155 65.8613V70H383.52V65.5376C383.52 63.8936 382.669 62.9731 381.127 62.9731C380.086 62.9731 379.4 63.4365 379.064 64.1982H378.962V63.1064H377.648V70ZM391.296 65.3218C391.118 63.9824 390.071 62.9731 388.338 62.9731C386.326 62.9731 385.101 64.3379 385.101 66.5278C385.101 68.7622 386.332 70.1333 388.344 70.1333C390.052 70.1333 391.118 69.1748 391.296 67.8164H389.969C389.792 68.5654 389.201 68.9717 388.338 68.9717C387.202 68.9717 386.497 68.0513 386.497 66.5278C386.497 65.0361 387.195 64.1348 388.338 64.1348C389.252 64.1348 389.811 64.6489 389.969 65.3218H391.296ZM397.39 68.1528C397.136 68.7114 396.571 69.0161 395.746 69.0161C394.654 69.0161 393.949 68.229 393.905 66.9785V66.915H398.786V66.4453C398.786 64.2871 397.625 62.9731 395.701 62.9731C393.752 62.9731 392.515 64.376 392.515 66.5659C392.515 68.7686 393.727 70.1333 395.708 70.1333C397.288 70.1333 398.405 69.3716 398.704 68.1528H397.39ZM395.695 64.084C396.704 64.084 397.364 64.814 397.396 65.9312H393.905C393.981 64.8203 394.686 64.084 395.695 64.084ZM404.664 72.501C406.073 72.501 406.727 71.9741 407.317 70.3174L409.895 63.1064H408.447L406.721 68.6289H406.613L404.88 63.1064H403.395L405.896 70.019L405.794 70.3745C405.559 71.1045 405.191 71.3774 404.543 71.3774C404.417 71.3774 404.207 71.3711 404.099 71.3521V72.4692C404.226 72.4883 404.55 72.501 404.664 72.501ZM413.944 70.1333C415.963 70.1333 417.201 68.7812 417.201 66.5532C417.201 64.3252 415.957 62.9731 413.944 62.9731C411.926 62.9731 410.682 64.3315 410.682 66.5532C410.682 68.7812 411.919 70.1333 413.944 70.1333ZM413.944 68.9717C412.757 68.9717 412.091 68.0894 412.091 66.5532C412.091 65.0171 412.757 64.1284 413.944 64.1284C415.125 64.1284 415.798 65.0171 415.798 66.5532C415.798 68.083 415.125 68.9717 413.944 68.9717ZM424.672 63.1064H423.307V67.1499C423.307 68.2607 422.704 68.9336 421.6 68.9336C420.597 68.9336 420.146 68.3877 420.146 67.2451V63.1064H418.781V67.5815C418.781 69.2002 419.632 70.1333 421.162 70.1333C422.209 70.1333 422.914 69.689 423.25 68.9082H423.358V70H424.672V63.1064ZM426.652 70H428.017V65.8804C428.017 64.9092 428.747 64.2427 429.782 64.2427C430.023 64.2427 430.429 64.2871 430.543 64.3188V63.0366C430.397 63.0049 430.137 62.9858 429.934 62.9858C429.033 62.9858 428.265 63.4746 428.068 64.1538H427.966V63.1064H426.652V70ZM439.316 70V62.0654H442.191V60.8403H435.012V62.0654H437.894V70H439.316ZM447.066 68.1528C446.812 68.7114 446.248 69.0161 445.422 69.0161C444.331 69.0161 443.626 68.229 443.582 66.9785V66.915H448.463V66.4453C448.463 64.2871 447.301 62.9731 445.378 62.9731C443.429 62.9731 442.191 64.376 442.191 66.5659C442.191 68.7686 443.404 70.1333 445.384 70.1333C446.965 70.1333 448.082 69.3716 448.38 68.1528H447.066ZM445.372 64.084C446.381 64.084 447.041 64.814 447.073 65.9312H443.582C443.658 64.8203 444.362 64.084 445.372 64.084ZM452.011 70.1143C452.919 70.1143 453.674 69.7207 454.087 69.0225H454.195V70H455.509V65.2837C455.509 63.8364 454.531 62.9731 452.798 62.9731C451.23 62.9731 450.113 63.7285 449.974 64.8901H451.294C451.446 64.3887 451.973 64.103 452.735 64.103C453.668 64.103 454.15 64.5283 454.15 65.2837V65.8867L452.278 66.001C450.634 66.1025 449.707 66.8198 449.707 68.0576C449.707 69.3145 450.678 70.1143 452.011 70.1143ZM452.36 69.0161C451.618 69.0161 451.078 68.6416 451.078 68.0005C451.078 67.3721 451.51 67.0356 452.462 66.9722L454.15 66.8579V67.4546C454.15 68.3433 453.389 69.0161 452.36 69.0161ZM457.451 70H458.816V65.7661C458.816 64.8647 459.444 64.1602 460.276 64.1602C461.088 64.1602 461.609 64.6489 461.609 65.436V70H462.948V65.6392C462.948 64.8076 463.526 64.1602 464.408 64.1602C465.303 64.1602 465.748 64.6235 465.748 65.5757V70H467.112V65.2456C467.112 63.811 466.3 62.9731 464.903 62.9731C463.945 62.9731 463.151 63.4619 462.802 64.2046H462.694C462.39 63.4619 461.736 62.9731 460.79 62.9731C459.87 62.9731 459.171 63.4302 458.867 64.2046H458.765V63.1064H457.451V70ZM468.871 65.0361C468.871 66.0581 469.48 66.6421 470.794 66.9468L472 67.2324C472.692 67.3975 473.016 67.6768 473.016 68.1084C473.016 68.6733 472.413 69.0669 471.562 69.0669C470.737 69.0669 470.229 68.7305 470.058 68.1909H468.693C468.813 69.3906 469.886 70.1333 471.53 70.1333C473.181 70.1333 474.393 69.2637 474.393 67.9814C474.393 66.9785 473.777 66.4136 472.463 66.1089L471.314 65.8423C470.565 65.6646 470.216 65.3979 470.216 64.9727C470.216 64.4141 470.794 64.0396 471.556 64.0396C472.33 64.0396 472.825 64.376 472.952 64.8901H474.26C474.126 63.6968 473.111 62.9731 471.556 62.9731C469.994 62.9731 468.871 63.8364 468.871 65.0361ZM481.502 70.1143C482.41 70.1143 483.166 69.7207 483.578 69.0225H483.686V70H485V65.2837C485 63.8364 484.022 62.9731 482.29 62.9731C480.722 62.9731 479.604 63.7285 479.465 64.8901H480.785C480.938 64.3887 481.464 64.103 482.226 64.103C483.159 64.103 483.642 64.5283 483.642 65.2837V65.8867L481.769 66.001C480.125 66.1025 479.198 66.8198 479.198 68.0576C479.198 69.3145 480.169 70.1143 481.502 70.1143ZM481.852 69.0161C481.109 69.0161 480.569 68.6416 480.569 68.0005C480.569 67.3721 481.001 67.0356 481.953 66.9722L483.642 66.8579V67.4546C483.642 68.3433 482.88 69.0161 481.852 69.0161ZM490.529 62.9858C489.589 62.9858 488.777 63.4619 488.358 64.249H488.256V63.1064H486.942V72.2979H488.307V68.959H488.415C488.777 69.689 489.558 70.1143 490.542 70.1143C492.287 70.1143 493.398 68.7305 493.398 66.5532C493.398 64.3633 492.287 62.9858 490.529 62.9858ZM490.142 68.9463C488.999 68.9463 488.282 68.0259 488.282 66.5532C488.282 65.0742 488.999 64.1538 490.148 64.1538C491.303 64.1538 491.995 65.0552 491.995 66.5532C491.995 68.0513 491.303 68.9463 490.142 68.9463ZM498.628 62.9858C497.689 62.9858 496.876 63.4619 496.458 64.249H496.356V63.1064H495.042V72.2979H496.407V68.959H496.515C496.876 69.689 497.657 70.1143 498.641 70.1143C500.387 70.1143 501.498 68.7305 501.498 66.5532C501.498 64.3633 500.387 62.9858 498.628 62.9858ZM498.241 68.9463C497.099 68.9463 496.381 68.0259 496.381 66.5532C496.381 65.0742 497.099 64.1538 498.248 64.1538C499.403 64.1538 500.095 65.0552 500.095 66.5532C500.095 68.0513 499.403 68.9463 498.241 68.9463ZM135.479 86H136.844V80.2173H138.367V79.1255H136.825V78.4463C136.825 77.748 137.136 77.3989 137.897 77.3989C138.113 77.3989 138.297 77.4116 138.424 77.4307V76.4023C138.189 76.3643 137.923 76.3389 137.612 76.3389C136.177 76.3389 135.479 77.0117 135.479 78.3828V79.1255H134.343V80.2173H135.479V86ZM145.743 79.1064H144.378V83.1499C144.378 84.2607 143.775 84.9336 142.671 84.9336C141.668 84.9336 141.217 84.3877 141.217 83.2451V79.1064H139.853V83.5815C139.853 85.2002 140.703 86.1333 142.233 86.1333C143.28 86.1333 143.985 85.689 144.321 84.9082H144.429V86H145.743V79.1064ZM147.724 86H149.088V81.9565C149.088 80.8457 149.729 80.1602 150.739 80.1602C151.748 80.1602 152.23 80.7188 152.23 81.8613V86H153.595V81.5376C153.595 79.8936 152.745 78.9731 151.202 78.9731C150.161 78.9731 149.476 79.4365 149.139 80.1982H149.038V79.1064H147.724V86ZM161.371 81.3218C161.193 79.9824 160.146 78.9731 158.413 78.9731C156.401 78.9731 155.176 80.3379 155.176 82.5278C155.176 84.7622 156.407 86.1333 158.419 86.1333C160.127 86.1333 161.193 85.1748 161.371 83.8164H160.044C159.867 84.5654 159.276 84.9717 158.413 84.9717C157.277 84.9717 156.572 84.0513 156.572 82.5278C156.572 81.0361 157.271 80.1348 158.413 80.1348C159.327 80.1348 159.886 80.6489 160.044 81.3218H161.371ZM163.517 77.3672V79.1255H162.418V80.2173H163.517V84.1846C163.517 85.5112 164.12 86.0444 165.637 86.0444C165.903 86.0444 166.157 86.0127 166.379 85.9746V84.8892C166.189 84.9082 166.068 84.9209 165.859 84.9209C165.18 84.9209 164.881 84.5972 164.881 83.8545V80.2173H166.379V79.1255H164.881V77.3672H163.517ZM168.69 77.875C169.166 77.875 169.553 77.4878 169.553 77.0181C169.553 76.542 169.166 76.1548 168.69 76.1548C168.214 76.1548 167.827 76.542 167.827 77.0181C167.827 77.4878 168.214 77.875 168.69 77.875ZM168.011 86H169.369V79.1064H168.011V86ZM174.295 86.1333C176.313 86.1333 177.551 84.7812 177.551 82.5532C177.551 80.3252 176.307 78.9731 174.295 78.9731C172.276 78.9731 171.032 80.3315 171.032 82.5532C171.032 84.7812 172.27 86.1333 174.295 86.1333ZM174.295 84.9717C173.108 84.9717 172.441 84.0894 172.441 82.5532C172.441 81.0171 173.108 80.1284 174.295 80.1284C175.476 80.1284 176.148 81.0171 176.148 82.5532C176.148 84.083 175.476 84.9717 174.295 84.9717ZM179.195 86H180.56V81.9565C180.56 80.8457 181.201 80.1602 182.21 80.1602C183.22 80.1602 183.702 80.7188 183.702 81.8613V86H185.067V81.5376C185.067 79.8936 184.216 78.9731 182.674 78.9731C181.633 78.9731 180.947 79.4365 180.611 80.1982H180.509V79.1064H179.195V86ZM188.901 86.1143C189.809 86.1143 190.564 85.7207 190.977 85.0225H191.084V86H192.398V81.2837C192.398 79.8364 191.421 78.9731 189.688 78.9731C188.12 78.9731 187.003 79.7285 186.863 80.8901H188.184C188.336 80.3887 188.863 80.103 189.625 80.103C190.558 80.103 191.04 80.5283 191.04 81.2837V81.8867L189.167 82.001C187.523 82.1025 186.597 82.8198 186.597 84.0576C186.597 85.3145 187.568 86.1143 188.901 86.1143ZM189.25 85.0161C188.507 85.0161 187.968 84.6416 187.968 84.0005C187.968 83.3721 188.399 83.0356 189.352 82.9722L191.04 82.8579V83.4546C191.04 84.3433 190.278 85.0161 189.25 85.0161ZM194.404 86H195.769V76.4023H194.404V86ZM198.524 77.875C199 77.875 199.387 77.4878 199.387 77.0181C199.387 76.542 199 76.1548 198.524 76.1548C198.048 76.1548 197.661 76.542 197.661 77.0181C197.661 77.4878 198.048 77.875 198.524 77.875ZM197.845 86H199.203V79.1064H197.845V86ZM201.691 77.3672V79.1255H200.593V80.2173H201.691V84.1846C201.691 85.5112 202.294 86.0444 203.812 86.0444C204.078 86.0444 204.332 86.0127 204.554 85.9746V84.8892C204.364 84.9082 204.243 84.9209 204.034 84.9209C203.354 84.9209 203.056 84.5972 203.056 83.8545V80.2173H204.554V79.1255H203.056V77.3672H201.691ZM206.865 77.875C207.341 77.875 207.728 77.4878 207.728 77.0181C207.728 76.542 207.341 76.1548 206.865 76.1548C206.389 76.1548 206.001 76.542 206.001 77.0181C206.001 77.4878 206.389 77.875 206.865 77.875ZM206.186 86H207.544V79.1064H206.186V86ZM214.082 84.1528C213.828 84.7114 213.263 85.0161 212.438 85.0161C211.346 85.0161 210.642 84.229 210.597 82.9785V82.915H215.479V82.4453C215.479 80.2871 214.317 78.9731 212.394 78.9731C210.445 78.9731 209.207 80.376 209.207 82.5659C209.207 84.7686 210.419 86.1333 212.4 86.1333C213.98 86.1333 215.098 85.3716 215.396 84.1528H214.082ZM212.387 80.084C213.396 80.084 214.057 80.814 214.088 81.9312H210.597C210.673 80.8203 211.378 80.084 212.387 80.084ZM216.958 81.0361C216.958 82.0581 217.567 82.6421 218.881 82.9468L220.087 83.2324C220.779 83.3975 221.103 83.6768 221.103 84.1084C221.103 84.6733 220.5 85.0669 219.649 85.0669C218.824 85.0669 218.316 84.7305 218.145 84.1909H216.78C216.9 85.3906 217.973 86.1333 219.617 86.1333C221.268 86.1333 222.48 85.2637 222.48 83.9814C222.48 82.9785 221.864 82.4136 220.55 82.1089L219.401 81.8423C218.652 81.6646 218.303 81.3979 218.303 80.9727C218.303 80.4141 218.881 80.0396 219.643 80.0396C220.417 80.0396 220.912 80.376 221.039 80.8901H222.347C222.213 79.6968 221.198 78.9731 219.643 78.9731C218.081 78.9731 216.958 79.8364 216.958 81.0361Z" fill="var(--vscode-menu-foreground, #CCCCCC)"/>
<path d="M0.5 4C0.5 2.06701 2.067 0.5 4 0.5H109.5V109.5H4C2.06701 109.5 0.5 107.933 0.5 106V4Z" fill="var(--vscode-editorWidget-background, #252526)" stroke="var(--vscode-contrastBorder)"/>
<path d="M43.9333 51.8L58.2 39.4L56.4667 37.5333L43.1333 49L39.4 44.4667L37.5333 46.0667L42.0667 51.6667L43.9333 51.8ZM72.4667 47.5333H52.0667L57.8 42.4667H72.4667V47.5333ZM50.0667 52.4667H72.4667V57.5333H50.0667V52.4667ZM72.4667 62.4667H50.0667V67.5333H72.4667V62.4667Z" fill="var(--vscode-menu-foreground, #CCCCCC)"/>
</a>
<a href="command:fx-extension.openReadMe?%5B%22WalkThrough%22%5D">
<path d="M109.5 126.5H584C585.933 126.5 587.5 128.067 587.5 130V232C587.5 233.933 585.933 235.5 584 235.5H109.5V126.5Z" fill="var(--vscode-notificationCenterHeader-background, #2c2c2d)" stroke="var(--vscode-contrastBorder)"/>
<path d="M0.5 130C0.5 128.067 2.067 126.5 4 126.5H109.5V235.5H4C2.06701 235.5 0.5 233.933 0.5 232V130Z" fill="var(--vscode-editorWidget-background, #252526)" stroke="var(--vscode-contrastBorder)"/>
<path d="M69.2667 171.667L61.8 164.2L60.0667 163.533H45L42.4667 165.933V195.933L45 198.467H67.5333L70.0667 195.933V173.533L69.2667 171.667ZM67.5333 195.933H45V165.933H57.5333V175.933H67.5333V195.933ZM60.0667 173.533V165.933L67.5333 173.533H60.0667Z" fill="var(--vscode-menu-foreground, #CCCCCC)"/>
<path d="M137.261 162.391H138.949L140.788 166H143.126L141.048 162.083C142.183 161.639 142.839 160.545 142.839 159.28C142.839 157.332 141.506 156.136 139.339 156.136H135.196V166H137.261V162.391ZM137.261 157.749H139.052C140.077 157.749 140.72 158.351 140.72 159.308C140.72 160.285 140.111 160.853 139.072 160.853H137.261V157.749ZM151.452 164.298H146.981V161.803H151.199V160.217H146.981V157.838H151.452V156.136H144.917V166H151.452V164.298ZM159.963 166H162.198L158.773 156.136H156.347L152.922 166H154.993L155.752 163.607H159.218L159.963 166ZM157.434 158.139H157.557L158.78 162.062H156.196L157.434 158.139ZM163.88 156.136V166H167.763C170.716 166 172.391 164.195 172.391 161.003C172.391 157.906 170.695 156.136 167.763 156.136H163.88ZM165.944 157.838H167.435C169.226 157.838 170.285 159 170.285 161.037C170.285 163.149 169.26 164.298 167.435 164.298H165.944V157.838ZM184.798 166V156.136H182.371L179.637 162.938H179.514L176.786 156.136H174.353V166H176.267V159.321H176.376L178.892 165.515H180.266L182.774 159.321H182.884V166H184.798ZM193.726 164.298H189.255V161.803H193.473V160.217H189.255V157.838H193.726V156.136H187.19V166H193.726V164.298ZM197.137 166.171C197.875 166.171 198.347 165.679 198.347 165.009C198.347 164.339 197.875 163.854 197.137 163.854C196.405 163.854 195.927 164.339 195.927 165.009C195.927 165.679 196.405 166.171 197.137 166.171ZM200.568 166H202.558V161.461C202.558 160.6 203.111 159.971 203.891 159.971C204.67 159.971 205.135 160.436 205.135 161.242V166H207.049V161.372C207.049 160.559 207.568 159.971 208.375 159.971C209.216 159.971 209.633 160.422 209.633 161.331V166H211.622V160.832C211.622 159.28 210.686 158.31 209.182 158.31C208.129 158.31 207.261 158.863 206.912 159.697H206.789C206.488 158.836 205.764 158.31 204.704 158.31C203.713 158.31 202.927 158.836 202.619 159.697H202.496V158.474H200.568V166ZM216.257 166.116C217.303 166.116 218.157 165.631 218.561 164.817H218.684V166H220.611V155.596H218.622V159.677H218.506C218.116 158.843 217.275 158.351 216.257 158.351C214.363 158.351 213.188 159.834 213.188 162.227C213.188 164.626 214.356 166.116 216.257 166.116ZM216.934 159.964C217.993 159.964 218.643 160.832 218.643 162.24C218.643 163.648 218 164.51 216.934 164.51C215.867 164.51 215.231 163.655 215.231 162.233C215.231 160.818 215.874 159.964 216.934 159.964Z" fill="var(--vscode-inputOption-activeForeground, white)"/>
<path opacity="0.8" d="M135.149 178.84H138.735C140.525 178.84 141.757 180.072 141.757 181.875C141.757 183.639 140.487 184.871 138.691 184.871H136.571V188H135.149V178.84ZM136.571 180.04V183.677H138.361C139.586 183.677 140.303 183.023 140.303 181.875C140.303 180.688 139.611 180.04 138.361 180.04H136.571ZM143.433 188V181.106H144.747V182.154H144.848C145.045 181.475 145.813 180.986 146.714 180.986C146.917 180.986 147.178 181.005 147.324 181.037V182.319C147.209 182.287 146.803 182.243 146.562 182.243C145.527 182.243 144.797 182.909 144.797 183.88V188H143.433ZM151.38 188.133C149.355 188.133 148.117 186.781 148.117 184.553C148.117 182.332 149.361 180.973 151.38 180.973C153.392 180.973 154.636 182.325 154.636 184.553C154.636 186.781 153.398 188.133 151.38 188.133ZM151.38 186.972C152.561 186.972 153.233 186.083 153.233 184.553C153.233 183.017 152.561 182.128 151.38 182.128C150.193 182.128 149.526 183.017 149.526 184.553C149.526 186.089 150.193 186.972 151.38 186.972ZM156.998 179.875C156.521 179.875 156.134 179.488 156.134 179.018C156.134 178.542 156.521 178.155 156.998 178.155C157.467 178.155 157.861 178.542 157.861 179.018C157.861 179.488 157.467 179.875 156.998 179.875ZM157.664 181.106V188.298C157.664 189.714 156.934 190.361 155.436 190.361C155.385 190.361 155.163 190.355 155.131 190.355V189.263C155.15 189.263 155.303 189.263 155.322 189.263C156.052 189.263 156.306 188.984 156.306 188.292V181.106H157.664ZM164.202 186.153H165.516C165.218 187.372 164.101 188.133 162.52 188.133C160.54 188.133 159.327 186.769 159.327 184.566C159.327 182.376 160.565 180.973 162.514 180.973C164.437 180.973 165.599 182.287 165.599 184.445V184.915H160.717V184.979C160.762 186.229 161.466 187.016 162.558 187.016C163.383 187.016 163.948 186.711 164.202 186.153ZM162.507 182.084C161.498 182.084 160.793 182.82 160.717 183.931H164.208C164.177 182.814 163.517 182.084 162.507 182.084ZM173.089 183.322H171.762C171.604 182.649 171.045 182.135 170.131 182.135C168.988 182.135 168.29 183.036 168.29 184.528C168.29 186.051 168.995 186.972 170.131 186.972C170.994 186.972 171.584 186.565 171.762 185.816H173.089C172.911 187.175 171.845 188.133 170.137 188.133C168.125 188.133 166.894 186.762 166.894 184.528C166.894 182.338 168.119 180.973 170.131 180.973C171.864 180.973 172.911 181.982 173.089 183.322ZM175.234 179.367H176.599V181.125H178.097V182.217H176.599V185.854C176.599 186.597 176.897 186.921 177.577 186.921C177.786 186.921 177.907 186.908 178.097 186.889V187.975C177.875 188.013 177.621 188.044 177.354 188.044C175.837 188.044 175.234 187.511 175.234 186.185V182.217H174.136V181.125H175.234V179.367ZM183.677 184.94H179.513V183.677H183.677V184.94ZM185.524 183.036C185.524 181.836 186.647 180.973 188.209 180.973C189.764 180.973 190.78 181.697 190.913 182.89H189.605C189.479 182.376 188.983 182.04 188.209 182.04C187.447 182.04 186.87 182.414 186.87 182.973C186.87 183.398 187.219 183.665 187.968 183.842L189.117 184.109C190.431 184.414 191.046 184.979 191.046 185.981C191.046 187.264 189.834 188.133 188.184 188.133C186.54 188.133 185.467 187.391 185.346 186.191H186.711C186.882 186.73 187.39 187.067 188.215 187.067C189.066 187.067 189.669 186.673 189.669 186.108C189.669 185.677 189.345 185.397 188.653 185.232L187.447 184.947C186.133 184.642 185.524 184.058 185.524 183.036ZM196.277 180.986C198.035 180.986 199.146 182.363 199.146 184.553C199.146 186.73 198.035 188.114 196.29 188.114C195.306 188.114 194.525 187.689 194.163 186.959H194.055V190.298H192.69V181.106H194.004V182.249H194.106C194.525 181.462 195.337 180.986 196.277 180.986ZM195.89 186.946C197.051 186.946 197.743 186.051 197.743 184.553C197.743 183.055 197.051 182.154 195.896 182.154C194.747 182.154 194.03 183.074 194.03 184.553C194.03 186.026 194.747 186.946 195.89 186.946ZM205.322 186.153H206.636C206.338 187.372 205.221 188.133 203.64 188.133C201.66 188.133 200.447 186.769 200.447 184.566C200.447 182.376 201.685 180.973 203.634 180.973C205.557 180.973 206.719 182.287 206.719 184.445V184.915H201.837V184.979C201.882 186.229 202.586 187.016 203.678 187.016C204.503 187.016 205.068 186.711 205.322 186.153ZM203.627 182.084C202.618 182.084 201.914 182.82 201.837 183.931H205.329C205.297 182.814 204.637 182.084 203.627 182.084ZM214.209 183.322H212.882C212.724 182.649 212.165 182.135 211.251 182.135C210.108 182.135 209.41 183.036 209.41 184.528C209.41 186.051 210.115 186.972 211.251 186.972C212.114 186.972 212.705 186.565 212.882 185.816H214.209C214.031 187.175 212.965 188.133 211.257 188.133C209.245 188.133 208.014 186.762 208.014 184.528C208.014 182.338 209.239 180.973 211.251 180.973C212.984 180.973 214.031 181.982 214.209 183.322ZM216.475 179.875C215.999 179.875 215.612 179.488 215.612 179.018C215.612 178.542 215.999 178.155 216.475 178.155C216.951 178.155 217.338 178.542 217.338 179.018C217.338 179.488 216.951 179.875 216.475 179.875ZM215.796 188V181.106H217.154V188H215.796ZM219.649 188V182.217H218.513V181.125H219.649V180.383C219.649 179.012 220.347 178.339 221.782 178.339C222.093 178.339 222.359 178.364 222.594 178.402V179.431C222.467 179.412 222.283 179.399 222.067 179.399C221.306 179.399 220.995 179.748 220.995 180.446V181.125H222.537V182.217H221.014V188H219.649ZM224.791 179.875C224.314 179.875 223.927 179.488 223.927 179.018C223.927 178.542 224.314 178.155 224.791 178.155C225.267 178.155 225.654 178.542 225.654 179.018C225.654 179.488 225.267 179.875 224.791 179.875ZM224.111 188V181.106H225.47V188H224.111ZM233.328 183.322H232.001C231.843 182.649 231.284 182.135 230.37 182.135C229.228 182.135 228.529 183.036 228.529 184.528C228.529 186.051 229.234 186.972 230.37 186.972C231.233 186.972 231.824 186.565 232.001 185.816H233.328C233.15 187.175 232.084 188.133 230.376 188.133C228.364 188.133 227.133 186.762 227.133 184.528C227.133 182.338 228.358 180.973 230.37 180.973C232.103 180.973 233.15 181.982 233.328 183.322ZM240.971 188.114C239.212 188.114 238.102 186.73 238.102 184.547C238.102 182.376 239.225 180.986 240.971 180.986C241.917 180.986 242.716 181.443 243.091 182.198H243.192V178.402H244.557V188H243.25V186.908H243.142C242.729 187.664 241.923 188.114 240.971 188.114ZM241.358 182.154C240.209 182.154 239.511 183.062 239.511 184.553C239.511 186.051 240.203 186.946 241.358 186.946C242.507 186.946 243.218 186.039 243.218 184.553C243.218 183.081 242.5 182.154 241.358 182.154ZM249.527 188.133C247.502 188.133 246.265 186.781 246.265 184.553C246.265 182.332 247.509 180.973 249.527 180.973C251.54 180.973 252.784 182.325 252.784 184.553C252.784 186.781 251.546 188.133 249.527 188.133ZM249.527 186.972C250.708 186.972 251.381 186.083 251.381 184.553C251.381 183.017 250.708 182.128 249.527 182.128C248.34 182.128 247.674 183.017 247.674 184.553C247.674 186.089 248.34 186.972 249.527 186.972ZM260.28 183.322H258.954C258.795 182.649 258.236 182.135 257.322 182.135C256.18 182.135 255.481 183.036 255.481 184.528C255.481 186.051 256.186 186.972 257.322 186.972C258.186 186.972 258.776 186.565 258.954 185.816H260.28C260.103 187.175 259.036 188.133 257.329 188.133C255.316 188.133 254.085 186.762 254.085 184.528C254.085 182.338 255.31 180.973 257.322 180.973C259.055 180.973 260.103 181.982 260.28 183.322ZM267.669 181.106V188H266.355V186.908H266.247C265.911 187.689 265.206 188.133 264.159 188.133C262.629 188.133 261.778 187.2 261.778 185.582V181.106H263.143V185.245C263.143 186.388 263.594 186.934 264.597 186.934C265.701 186.934 266.304 186.261 266.304 185.15V181.106H267.669ZM269.649 188V181.106H270.963V182.205H271.065C271.37 181.43 272.068 180.973 272.988 180.973C273.934 180.973 274.588 181.462 274.893 182.205H275C275.35 181.462 276.143 180.973 277.102 180.973C278.498 180.973 279.311 181.811 279.311 183.246V188H277.946V183.576C277.946 182.624 277.501 182.16 276.606 182.16C275.724 182.16 275.146 182.808 275.146 183.639V188H273.807V183.436C273.807 182.649 273.287 182.16 272.474 182.16C271.643 182.16 271.014 182.865 271.014 183.766V188H269.649ZM285.76 186.153H287.074C286.775 187.372 285.658 188.133 284.078 188.133C282.097 188.133 280.885 186.769 280.885 184.566C280.885 182.376 282.123 180.973 284.071 180.973C285.995 180.973 287.156 182.287 287.156 184.445V184.915H282.275V184.979C282.319 186.229 283.024 187.016 284.116 187.016C284.941 187.016 285.506 186.711 285.76 186.153ZM284.065 182.084C283.056 182.084 282.351 182.82 282.275 183.931H285.766C285.734 182.814 285.074 182.084 284.065 182.084ZM288.794 188V181.106H290.108V182.198H290.209C290.546 181.437 291.231 180.973 292.272 180.973C293.815 180.973 294.666 181.894 294.666 183.538V188H293.301V183.861C293.301 182.719 292.818 182.16 291.809 182.16C290.8 182.16 290.159 182.846 290.159 183.957V188H288.794ZM297.071 179.367H298.436V181.125H299.934V182.217H298.436V185.854C298.436 186.597 298.734 186.921 299.414 186.921C299.623 186.921 299.744 186.908 299.934 186.889V187.975C299.712 188.013 299.458 188.044 299.191 188.044C297.674 188.044 297.071 187.511 297.071 186.185V182.217H295.973V181.125H297.071V179.367ZM303.451 188.114C302.118 188.114 301.146 187.314 301.146 186.058C301.146 184.82 302.073 184.103 303.717 184.001L305.59 183.887V183.284C305.59 182.528 305.107 182.103 304.174 182.103C303.413 182.103 302.886 182.389 302.733 182.89H301.413C301.553 181.729 302.67 180.973 304.238 180.973C305.971 180.973 306.948 181.836 306.948 183.284V188H305.634V187.022H305.526C305.114 187.721 304.358 188.114 303.451 188.114ZM303.8 187.016C304.828 187.016 305.59 186.343 305.59 185.455V184.858L303.901 184.972C302.949 185.036 302.518 185.372 302.518 186C302.518 186.642 303.057 187.016 303.8 187.016ZM309.373 179.367H310.738V181.125H312.236V182.217H310.738V185.854C310.738 186.597 311.036 186.921 311.715 186.921C311.925 186.921 312.045 186.908 312.236 186.889V187.975C312.014 188.013 311.76 188.044 311.493 188.044C309.976 188.044 309.373 187.511 309.373 186.185V182.217H308.275V181.125H309.373V179.367ZM314.546 179.875C314.07 179.875 313.683 179.488 313.683 179.018C313.683 178.542 314.07 178.155 314.546 178.155C315.022 178.155 315.41 178.542 315.41 179.018C315.41 179.488 315.022 179.875 314.546 179.875ZM313.867 188V181.106H315.226V188H313.867ZM320.151 188.133C318.126 188.133 316.889 186.781 316.889 184.553C316.889 182.332 318.133 180.973 320.151 180.973C322.164 180.973 323.408 182.325 323.408 184.553C323.408 186.781 322.17 188.133 320.151 188.133ZM320.151 186.972C321.332 186.972 322.005 186.083 322.005 184.553C322.005 183.017 321.332 182.128 320.151 182.128C318.964 182.128 318.298 183.017 318.298 184.553C318.298 186.089 318.964 186.972 320.151 186.972ZM325.052 188V181.106H326.366V182.198H326.467C326.804 181.437 327.489 180.973 328.53 180.973C330.073 180.973 330.923 181.894 330.923 183.538V188H329.559V183.861C329.559 182.719 329.076 182.16 328.067 182.16C327.058 182.16 326.417 182.846 326.417 183.957V188H325.052ZM336.884 179.367H338.249V181.125H339.747V182.217H338.249V185.854C338.249 186.597 338.547 186.921 339.226 186.921C339.436 186.921 339.556 186.908 339.747 186.889V187.975C339.524 188.013 339.271 188.044 339.004 188.044C337.487 188.044 336.884 187.511 336.884 186.185V182.217H335.786V181.125H336.884V179.367ZM344.196 188.133C342.171 188.133 340.934 186.781 340.934 184.553C340.934 182.332 342.178 180.973 344.196 180.973C346.208 180.973 347.453 182.325 347.453 184.553C347.453 186.781 346.215 188.133 344.196 188.133ZM344.196 186.972C345.377 186.972 346.05 186.083 346.05 184.553C346.05 183.017 345.377 182.128 344.196 182.128C343.009 182.128 342.343 183.017 342.343 184.553C342.343 186.089 343.009 186.972 344.196 186.972ZM355.178 188.114C353.419 188.114 352.309 186.73 352.309 184.547C352.309 182.376 353.432 180.986 355.178 180.986C356.124 180.986 356.923 181.443 357.298 182.198H357.399V178.402H358.764V188H357.457V186.908H357.349C356.936 187.664 356.13 188.114 355.178 188.114ZM355.565 182.154C354.416 182.154 353.718 183.062 353.718 184.553C353.718 186.051 354.41 186.946 355.565 186.946C356.714 186.946 357.425 186.039 357.425 184.553C357.425 183.081 356.708 182.154 355.565 182.154ZM361.519 179.875C361.043 179.875 360.656 179.488 360.656 179.018C360.656 178.542 361.043 178.155 361.519 178.155C361.995 178.155 362.382 178.542 362.382 179.018C362.382 179.488 361.995 179.875 361.519 179.875ZM360.84 188V181.106H362.198V188H360.84ZM370.057 181.106L367.568 188H366.102L363.607 181.106H365.067L366.788 186.604H366.896L368.609 181.106H370.057ZM375.706 186.153H377.02C376.722 187.372 375.604 188.133 374.024 188.133C372.043 188.133 370.831 186.769 370.831 184.566C370.831 182.376 372.069 180.973 374.018 180.973C375.941 180.973 377.103 182.287 377.103 184.445V184.915H372.221V184.979C372.266 186.229 372.97 187.016 374.062 187.016C374.887 187.016 375.452 186.711 375.706 186.153ZM374.011 182.084C373.002 182.084 372.297 182.82 372.221 183.931H375.712C375.681 182.814 375.021 182.084 374.011 182.084ZM383 179.875C382.523 179.875 382.136 179.488 382.136 179.018C382.136 178.542 382.523 178.155 383 178.155C383.476 178.155 383.863 178.542 383.863 179.018C383.863 179.488 383.476 179.875 383 179.875ZM382.32 188V181.106H383.679V188H382.32ZM385.685 188V181.106H386.999V182.198H387.1C387.437 181.437 388.122 180.973 389.163 180.973C390.706 180.973 391.556 181.894 391.556 183.538V188H390.191V183.861C390.191 182.719 389.709 182.16 388.7 182.16C387.69 182.16 387.049 182.846 387.049 183.957V188H385.685ZM393.962 179.367H395.327V181.125H396.825V182.217H395.327V185.854C395.327 186.597 395.625 186.921 396.304 186.921C396.514 186.921 396.634 186.908 396.825 186.889V187.975C396.603 188.013 396.349 188.044 396.082 188.044C394.565 188.044 393.962 187.511 393.962 186.185V182.217H392.864V181.125H393.962V179.367ZM401.274 188.133C399.25 188.133 398.012 186.781 398.012 184.553C398.012 182.332 399.256 180.973 401.274 180.973C403.287 180.973 404.531 182.325 404.531 184.553C404.531 186.781 403.293 188.133 401.274 188.133ZM401.274 186.972C402.455 186.972 403.128 186.083 403.128 184.553C403.128 183.017 402.455 182.128 401.274 182.128C400.087 182.128 399.421 183.017 399.421 184.553C399.421 186.089 400.087 186.972 401.274 186.972ZM410.212 179.367H411.577V181.125H413.075V182.217H411.577V185.854C411.577 186.597 411.875 186.921 412.554 186.921C412.764 186.921 412.884 186.908 413.075 186.889V187.975C412.853 188.013 412.599 188.044 412.332 188.044C410.815 188.044 410.212 187.511 410.212 186.185V182.217H409.114V181.125H410.212V179.367ZM414.744 188V178.402H416.096V182.205H416.204C416.541 181.437 417.271 180.979 418.312 180.979C419.784 180.979 420.692 181.913 420.692 183.544V188H419.327V183.868C419.327 182.731 418.813 182.167 417.848 182.167C416.731 182.167 416.109 182.884 416.109 183.963V188H414.744ZM427.147 186.153H428.461C428.163 187.372 427.046 188.133 425.465 188.133C423.485 188.133 422.272 186.769 422.272 184.566C422.272 182.376 423.51 180.973 425.459 180.973C427.382 180.973 428.544 182.287 428.544 184.445V184.915H423.663V184.979C423.707 186.229 424.412 187.016 425.503 187.016C426.329 187.016 426.894 186.711 427.147 186.153ZM425.453 182.084C424.443 182.084 423.739 182.82 423.663 183.931H427.154C427.122 182.814 426.462 182.084 425.453 182.084ZM437.64 188H436.218V180.065H433.336V178.84H440.516V180.065H437.64V188ZM445.391 186.153H446.705C446.406 187.372 445.289 188.133 443.708 188.133C441.728 188.133 440.516 186.769 440.516 184.566C440.516 182.376 441.753 180.973 443.702 180.973C445.625 180.973 446.787 182.287 446.787 184.445V184.915H441.906V184.979C441.95 186.229 442.655 187.016 443.747 187.016C444.572 187.016 445.137 186.711 445.391 186.153ZM443.696 182.084C442.687 182.084 441.982 182.82 441.906 183.931H445.397C445.365 182.814 444.705 182.084 443.696 182.084ZM450.335 188.114C449.002 188.114 448.031 187.314 448.031 186.058C448.031 184.82 448.958 184.103 450.602 184.001L452.475 183.887V183.284C452.475 182.528 451.992 182.103 451.059 182.103C450.297 182.103 449.771 182.389 449.618 182.89H448.298C448.438 181.729 449.555 180.973 451.123 180.973C452.855 180.973 453.833 181.836 453.833 183.284V188H452.519V187.022H452.411C451.999 187.721 451.243 188.114 450.335 188.114ZM450.685 187.016C451.713 187.016 452.475 186.343 452.475 185.455V184.858L450.786 184.972C449.834 185.036 449.402 185.372 449.402 186C449.402 186.642 449.942 187.016 450.685 187.016ZM455.775 188V181.106H457.089V182.205H457.191C457.496 181.43 458.194 180.973 459.114 180.973C460.06 180.973 460.714 181.462 461.019 182.205H461.126C461.476 181.462 462.269 180.973 463.228 180.973C464.624 180.973 465.437 181.811 465.437 183.246V188H464.072V183.576C464.072 182.624 463.627 182.16 462.732 182.16C461.85 182.16 461.272 182.808 461.272 183.639V188H459.933V183.436C459.933 182.649 459.413 182.16 458.6 182.16C457.769 182.16 457.14 182.865 457.14 183.766V188H455.775ZM467.195 183.036C467.195 181.836 468.318 180.973 469.88 180.973C471.435 180.973 472.451 181.697 472.584 182.89H471.276C471.149 182.376 470.654 182.04 469.88 182.04C469.118 182.04 468.541 182.414 468.541 182.973C468.541 183.398 468.89 183.665 469.639 183.842L470.788 184.109C472.102 184.414 472.717 184.979 472.717 185.981C472.717 187.264 471.505 188.133 469.854 188.133C468.21 188.133 467.138 187.391 467.017 186.191H468.382C468.553 186.73 469.061 187.067 469.886 187.067C470.737 187.067 471.34 186.673 471.34 186.108C471.34 185.677 471.016 185.397 470.324 185.232L469.118 184.947C467.804 184.642 467.195 184.058 467.195 183.036ZM479.827 188.114C478.494 188.114 477.522 187.314 477.522 186.058C477.522 184.82 478.449 184.103 480.093 184.001L481.966 183.887V183.284C481.966 182.528 481.483 182.103 480.55 182.103C479.789 182.103 479.262 182.389 479.109 182.89H477.789C477.929 181.729 479.046 180.973 480.614 180.973C482.347 180.973 483.324 181.836 483.324 183.284V188H482.01V187.022H481.902C481.49 187.721 480.734 188.114 479.827 188.114ZM480.176 187.016C481.204 187.016 481.966 186.343 481.966 185.455V184.858L480.277 184.972C479.325 185.036 478.894 185.372 478.894 186C478.894 186.642 479.433 187.016 480.176 187.016ZM488.853 180.986C490.611 180.986 491.722 182.363 491.722 184.553C491.722 186.73 490.611 188.114 488.866 188.114C487.882 188.114 487.101 187.689 486.739 186.959H486.631V190.298H485.267V181.106H486.581V182.249H486.682C487.101 181.462 487.914 180.986 488.853 180.986ZM488.466 186.946C489.627 186.946 490.319 186.051 490.319 184.553C490.319 183.055 489.627 182.154 488.472 182.154C487.323 182.154 486.606 183.074 486.606 184.553C486.606 186.026 487.323 186.946 488.466 186.946ZM496.953 180.986C498.711 180.986 499.822 182.363 499.822 184.553C499.822 186.73 498.711 188.114 496.965 188.114C495.981 188.114 495.201 187.689 494.839 186.959H494.731V190.298H493.366V181.106H494.68V182.249H494.782C495.201 181.462 496.013 180.986 496.953 180.986ZM496.565 186.946C497.727 186.946 498.419 186.051 498.419 184.553C498.419 183.055 497.727 182.154 496.572 182.154C495.423 182.154 494.706 183.074 494.706 184.553C494.706 186.026 495.423 186.946 496.565 186.946ZM137.517 204.114C135.758 204.114 134.647 202.73 134.647 200.547C134.647 198.376 135.771 196.986 137.517 196.986C138.462 196.986 139.262 197.443 139.637 198.198H139.738V194.402H141.103V204H139.795V202.908H139.688C139.275 203.664 138.469 204.114 137.517 204.114ZM137.904 198.154C136.755 198.154 136.057 199.062 136.057 200.553C136.057 202.051 136.749 202.946 137.904 202.946C139.053 202.946 139.764 202.039 139.764 200.553C139.764 199.081 139.046 198.154 137.904 198.154ZM147.686 202.153H149C148.701 203.372 147.584 204.133 146.003 204.133C144.023 204.133 142.811 202.769 142.811 200.566C142.811 198.376 144.048 196.973 145.997 196.973C147.92 196.973 149.082 198.287 149.082 200.445V200.915H144.201V200.979C144.245 202.229 144.95 203.016 146.042 203.016C146.867 203.016 147.432 202.711 147.686 202.153ZM145.991 198.084C144.981 198.084 144.277 198.82 144.201 199.931H147.692C147.66 198.814 147 198.084 145.991 198.084ZM156.42 197.106L153.932 204H152.465L149.971 197.106H151.431L153.151 202.604H153.259L154.973 197.106H156.42ZM162.069 202.153H163.383C163.085 203.372 161.968 204.133 160.387 204.133C158.407 204.133 157.194 202.769 157.194 200.566C157.194 198.376 158.432 196.973 160.381 196.973C162.304 196.973 163.466 198.287 163.466 200.445V200.915H158.584V200.979C158.629 202.229 159.333 203.016 160.425 203.016C161.25 203.016 161.815 202.711 162.069 202.153ZM160.375 198.084C159.365 198.084 158.661 198.82 158.584 199.931H162.076C162.044 198.814 161.384 198.084 160.375 198.084ZM165.167 204V194.402H166.532V204H165.167ZM171.502 204.133C169.477 204.133 168.239 202.781 168.239 200.553C168.239 198.332 169.483 196.973 171.502 196.973C173.514 196.973 174.758 198.325 174.758 200.553C174.758 202.781 173.521 204.133 171.502 204.133ZM171.502 202.972C172.683 202.972 173.355 202.083 173.355 200.553C173.355 199.017 172.683 198.128 171.502 198.128C170.315 198.128 169.648 199.017 169.648 200.553C169.648 202.089 170.315 202.972 171.502 202.972ZM179.989 196.986C181.747 196.986 182.858 198.363 182.858 200.553C182.858 202.73 181.747 204.114 180.001 204.114C179.018 204.114 178.237 203.689 177.875 202.959H177.767V206.298H176.402V197.106H177.716V198.249H177.818C178.237 197.462 179.049 196.986 179.989 196.986ZM179.602 202.946C180.763 202.946 181.455 202.051 181.455 200.553C181.455 199.055 180.763 198.154 179.608 198.154C178.459 198.154 177.742 199.074 177.742 200.553C177.742 202.026 178.459 202.946 179.602 202.946ZM184.502 204V197.106H185.816V198.205H185.917C186.222 197.43 186.92 196.973 187.841 196.973C188.787 196.973 189.44 197.462 189.745 198.205H189.853C190.202 197.462 190.996 196.973 191.954 196.973C193.351 196.973 194.163 197.811 194.163 199.246V204H192.798V199.576C192.798 198.624 192.354 198.16 191.459 198.16C190.577 198.16 189.999 198.808 189.999 199.639V204H188.66V199.436C188.66 198.649 188.139 198.16 187.327 198.16C186.495 198.16 185.867 198.865 185.867 199.766V204H184.502ZM200.612 202.153H201.926C201.628 203.372 200.511 204.133 198.93 204.133C196.95 204.133 195.737 202.769 195.737 200.566C195.737 198.376 196.975 196.973 198.924 196.973C200.847 196.973 202.009 198.287 202.009 200.445V200.915H197.127V200.979C197.172 202.229 197.876 203.016 198.968 203.016C199.793 203.016 200.358 202.711 200.612 202.153ZM198.917 198.084C197.908 198.084 197.204 198.82 197.127 199.931H200.619C200.587 198.814 199.927 198.084 198.917 198.084ZM203.646 204V197.106H204.96V198.198H205.062C205.398 197.437 206.084 196.973 207.125 196.973C208.667 196.973 209.518 197.894 209.518 199.538V204H208.153V199.861C208.153 198.719 207.671 198.16 206.662 198.16C205.652 198.16 205.011 198.846 205.011 199.957V204H203.646ZM211.924 195.367H213.289V197.125H214.787V198.217H213.289V201.854C213.289 202.597 213.587 202.921 214.266 202.921C214.476 202.921 214.596 202.908 214.787 202.889V203.975C214.564 204.013 214.311 204.044 214.044 204.044C212.527 204.044 211.924 203.511 211.924 202.185V198.217H210.826V197.125H211.924V195.367Z" fill="var(--vscode-menu-foreground, #CCCCCC)"/>
</a>
<a href="command:fx-extension.openDocument?%5B%22WalkThrough%22%5D">
<path d="M109.5 252.5H583C584.933 252.5 586.5 254.067 586.5 256V358C586.5 359.933 584.933 361.5 583 361.5H109.5V252.5Z" fill="var(--vscode-notificationCenterHeader-background, #2c2c2d)" stroke="var(--vscode-contrastBorder)"/>
<path d="M135.196 292.136V302H139.079C142.032 302 143.707 300.195 143.707 297.003C143.707 293.906 142.012 292.136 139.079 292.136H135.196ZM137.261 293.838H138.751C140.542 293.838 141.602 295 141.602 297.037C141.602 299.149 140.576 300.298 138.751 300.298H137.261V293.838ZM148.813 302.157C151.131 302.157 152.525 300.694 152.525 298.233C152.525 295.793 151.11 294.31 148.813 294.31C146.517 294.31 145.102 295.8 145.102 298.233C145.102 300.688 146.496 302.157 148.813 302.157ZM148.813 300.585C147.747 300.585 147.146 299.724 147.146 298.233C147.146 296.757 147.754 295.889 148.813 295.889C149.866 295.889 150.481 296.757 150.481 298.233C150.481 299.724 149.873 300.585 148.813 300.585ZM160.824 297.099C160.66 295.417 159.464 294.31 157.468 294.31C155.109 294.31 153.783 295.738 153.783 298.22C153.783 300.729 155.116 302.157 157.468 302.157C159.43 302.157 160.66 301.077 160.824 299.423H158.965C158.814 300.175 158.281 300.578 157.468 300.578C156.401 300.578 155.793 299.737 155.793 298.22C155.793 296.723 156.395 295.896 157.468 295.896C158.315 295.896 158.828 296.374 158.965 297.099H160.824ZM169.205 294.474H167.216V298.821C167.216 299.854 166.683 300.489 165.691 300.489C164.775 300.489 164.304 299.949 164.304 298.883V294.474H162.314V299.375C162.314 301.125 163.326 302.157 164.953 302.157C166.095 302.157 166.799 301.665 167.154 300.79H167.277V302H169.205V294.474ZM171.201 302H173.19V297.461C173.19 296.6 173.744 295.971 174.523 295.971C175.303 295.971 175.768 296.436 175.768 297.242V302H177.682V297.372C177.682 296.559 178.201 295.971 179.008 295.971C179.849 295.971 180.266 296.422 180.266 297.331V302H182.255V296.832C182.255 295.28 181.318 294.31 179.814 294.31C178.762 294.31 177.894 294.863 177.545 295.697H177.422C177.121 294.836 176.396 294.31 175.337 294.31C174.346 294.31 173.56 294.836 173.252 295.697H173.129V294.474H171.201V302ZM189.063 299.874C188.852 300.387 188.312 300.674 187.525 300.674C186.486 300.674 185.83 299.956 185.803 298.808V298.705H190.978V298.11C190.978 295.731 189.665 294.31 187.443 294.31C185.201 294.31 183.82 295.827 183.82 298.274C183.82 300.708 185.174 302.157 187.471 302.157C189.316 302.157 190.622 301.275 190.916 299.874H189.063ZM187.45 295.793C188.38 295.793 188.981 296.436 189.022 297.468H185.81C185.878 296.456 186.527 295.793 187.45 295.793ZM192.611 302H194.601V297.646C194.601 296.627 195.168 295.971 196.091 295.971C197.034 295.971 197.479 296.524 197.479 297.584V302H199.468V297.133C199.468 295.335 198.565 294.31 196.891 294.31C195.776 294.31 195.011 294.836 194.662 295.684H194.539V294.474H192.611V302ZM201.97 292.676V294.542H200.794V296.053H201.97V299.97C201.97 301.433 202.694 302.027 204.526 302.027C204.909 302.027 205.278 301.986 205.524 301.938V300.469C205.333 300.489 205.196 300.503 204.937 300.503C204.26 300.503 203.959 300.188 203.959 299.512V296.053H205.524V294.542H203.959V292.676H201.97ZM209.25 302.116C210.228 302.116 211.048 301.699 211.438 301.002H211.561V302H213.488V296.859C213.488 295.253 212.36 294.31 210.364 294.31C208.471 294.31 207.192 295.178 207.062 296.559H208.895C209.059 296.087 209.537 295.834 210.255 295.834C211.075 295.834 211.526 296.21 211.526 296.859V297.481L209.701 297.591C207.828 297.7 206.782 298.493 206.782 299.854C206.782 301.228 207.801 302.116 209.25 302.116ZM209.906 300.66C209.216 300.66 208.73 300.312 208.73 299.73C208.73 299.177 209.147 298.855 210.002 298.801L211.526 298.698V299.259C211.526 300.052 210.829 300.66 209.906 300.66ZM216.011 292.676V294.542H214.835V296.053H216.011V299.97C216.011 301.433 216.735 302.027 218.567 302.027C218.95 302.027 219.319 301.986 219.565 301.938V300.469C219.374 300.489 219.237 300.503 218.978 300.503C218.301 300.503 218 300.188 218 299.512V296.053H219.565V294.542H218V292.676H216.011ZM222.238 293.318C222.854 293.318 223.359 292.826 223.359 292.211C223.359 291.589 222.854 291.097 222.238 291.097C221.623 291.097 221.11 291.589 221.11 292.211C221.11 292.826 221.623 293.318 222.238 293.318ZM221.24 302H223.229V294.474H221.24V302ZM228.589 302.157C230.906 302.157 232.301 300.694 232.301 298.233C232.301 295.793 230.886 294.31 228.589 294.31C226.292 294.31 224.877 295.8 224.877 298.233C224.877 300.688 226.271 302.157 228.589 302.157ZM228.589 300.585C227.522 300.585 226.921 299.724 226.921 298.233C226.921 296.757 227.529 295.889 228.589 295.889C229.642 295.889 230.257 296.757 230.257 298.233C230.257 299.724 229.648 300.585 228.589 300.585ZM233.928 302H235.917V297.646C235.917 296.627 236.484 295.971 237.407 295.971C238.351 295.971 238.795 296.524 238.795 297.584V302H240.784V297.133C240.784 295.335 239.882 294.31 238.207 294.31C237.093 294.31 236.327 294.836 235.979 295.684H235.855V294.474H233.928V302Z" fill="var(--vscode-inputOption-activeForeground, white)"/>
<path opacity="0.8" d="M138.894 323V315.065H141.77V313.84H134.59V315.065H137.472V323H138.894ZM143.42 323H144.785V318.963C144.785 317.884 145.407 317.167 146.524 317.167C147.489 317.167 148.003 317.731 148.003 318.868V323H149.368V318.544C149.368 316.913 148.46 315.979 146.987 315.979C145.946 315.979 145.216 316.437 144.88 317.205H144.772V313.402H143.42V323ZM155.823 321.153C155.569 321.711 155.004 322.016 154.179 322.016C153.087 322.016 152.383 321.229 152.338 319.979V319.915H157.22V319.445C157.22 317.287 156.058 315.973 154.135 315.973C152.186 315.973 150.948 317.376 150.948 319.566C150.948 321.769 152.161 323.133 154.141 323.133C155.722 323.133 156.839 322.372 157.137 321.153H155.823ZM154.128 317.084C155.138 317.084 155.798 317.814 155.83 318.931H152.338C152.415 317.82 153.119 317.084 154.128 317.084ZM162.253 318.036C162.253 319.058 162.863 319.642 164.177 319.947L165.383 320.232C166.075 320.397 166.398 320.677 166.398 321.108C166.398 321.673 165.795 322.067 164.945 322.067C164.12 322.067 163.612 321.73 163.44 321.191H162.076C162.196 322.391 163.269 323.133 164.913 323.133C166.563 323.133 167.776 322.264 167.776 320.981C167.776 319.979 167.16 319.414 165.846 319.109L164.697 318.842C163.948 318.665 163.599 318.398 163.599 317.973C163.599 317.414 164.177 317.04 164.938 317.04C165.713 317.04 166.208 317.376 166.335 317.89H167.643C167.509 316.697 166.494 315.973 164.938 315.973C163.377 315.973 162.253 316.836 162.253 318.036ZM170.125 314.875C170.601 314.875 170.988 314.488 170.988 314.018C170.988 313.542 170.601 313.155 170.125 313.155C169.648 313.155 169.261 313.542 169.261 314.018C169.261 314.488 169.648 314.875 170.125 314.875ZM169.445 323H170.804V316.106H169.445V323ZM172.81 323H174.174V318.957C174.174 317.846 174.815 317.16 175.825 317.16C176.834 317.16 177.316 317.719 177.316 318.861V323H178.681V318.538C178.681 316.894 177.831 315.973 176.288 315.973C175.247 315.973 174.562 316.437 174.225 317.198H174.124V316.106H172.81V323ZM183.518 325.634C185.473 325.634 186.711 324.638 186.711 323.07V316.106H185.403V317.205H185.295C184.908 316.456 184.077 315.986 183.125 315.986C181.36 315.986 180.255 317.376 180.255 319.464C180.255 321.534 181.347 322.898 183.112 322.898C184.064 322.898 184.826 322.486 185.245 321.737H185.346V323.063C185.346 323.997 184.673 324.555 183.537 324.555C182.617 324.555 182.039 324.225 181.925 323.705H180.528C180.674 324.866 181.792 325.634 183.518 325.634ZM183.499 321.769C182.325 321.769 181.665 320.874 181.665 319.464C181.665 318.055 182.325 317.154 183.499 317.154C184.661 317.154 185.372 318.055 185.372 319.464C185.372 320.874 184.667 321.769 183.499 321.769ZM188.755 323H190.12V313.402H188.755V323ZM196.702 321.153C196.448 321.711 195.883 322.016 195.058 322.016C193.966 322.016 193.262 321.229 193.217 319.979V319.915H198.099V319.445C198.099 317.287 196.937 315.973 195.014 315.973C193.065 315.973 191.827 317.376 191.827 319.566C191.827 321.769 193.04 323.133 195.02 323.133C196.601 323.133 197.718 322.372 198.016 321.153H196.702ZM195.007 317.084C196.017 317.084 196.677 317.814 196.708 318.931H193.217C193.293 317.82 193.998 317.084 195.007 317.084ZM203.132 318.036C203.132 319.058 203.742 319.642 205.056 319.947L206.262 320.232C206.954 320.397 207.277 320.677 207.277 321.108C207.277 321.673 206.674 322.067 205.824 322.067C204.999 322.067 204.491 321.73 204.319 321.191H202.955C203.075 322.391 204.148 323.133 205.792 323.133C207.442 323.133 208.655 322.264 208.655 320.981C208.655 319.979 208.039 319.414 206.725 319.109L205.576 318.842C204.827 318.665 204.478 318.398 204.478 317.973C204.478 317.414 205.056 317.04 205.817 317.04C206.592 317.04 207.087 317.376 207.214 317.89H208.521C208.388 316.697 207.373 315.973 205.817 315.973C204.256 315.973 203.132 316.836 203.132 318.036ZM213.219 323.133C215.237 323.133 216.475 321.781 216.475 319.553C216.475 317.325 215.231 315.973 213.219 315.973C211.2 315.973 209.956 317.332 209.956 319.553C209.956 321.781 211.194 323.133 213.219 323.133ZM213.219 321.972C212.032 321.972 211.365 321.089 211.365 319.553C211.365 318.017 212.032 317.128 213.219 317.128C214.399 317.128 215.072 318.017 215.072 319.553C215.072 321.083 214.399 321.972 213.219 321.972ZM223.946 316.106H222.582V320.15C222.582 321.261 221.979 321.934 220.874 321.934C219.871 321.934 219.42 321.388 219.42 320.245V316.106H218.056V320.582C218.056 322.2 218.906 323.133 220.436 323.133C221.483 323.133 222.188 322.689 222.524 321.908H222.632V323H223.946V316.106ZM225.927 323H227.292V318.88C227.292 317.909 228.021 317.243 229.056 317.243C229.297 317.243 229.704 317.287 229.818 317.319V316.037C229.672 316.005 229.412 315.986 229.208 315.986C228.307 315.986 227.539 316.475 227.342 317.154H227.241V316.106H225.927V323ZM236.807 318.322C236.629 316.982 235.582 315.973 233.849 315.973C231.836 315.973 230.611 317.338 230.611 319.528C230.611 321.762 231.843 323.133 233.855 323.133C235.562 323.133 236.629 322.175 236.807 320.816H235.48C235.302 321.565 234.712 321.972 233.849 321.972C232.712 321.972 232.008 321.051 232.008 319.528C232.008 318.036 232.706 317.135 233.849 317.135C234.763 317.135 235.321 317.649 235.48 318.322H236.807ZM242.9 321.153C242.646 321.711 242.082 322.016 241.256 322.016C240.165 322.016 239.46 321.229 239.416 319.979V319.915H244.297V319.445C244.297 317.287 243.135 315.973 241.212 315.973C239.263 315.973 238.025 317.376 238.025 319.566C238.025 321.769 239.238 323.133 241.218 323.133C242.799 323.133 243.916 322.372 244.214 321.153H242.9ZM241.206 317.084C242.215 317.084 242.875 317.814 242.907 318.931H239.416C239.492 317.82 240.196 317.084 241.206 317.084ZM252.409 323.133C254.428 323.133 255.666 321.781 255.666 319.553C255.666 317.325 254.421 315.973 252.409 315.973C250.391 315.973 249.146 317.332 249.146 319.553C249.146 321.781 250.384 323.133 252.409 323.133ZM252.409 321.972C251.222 321.972 250.556 321.089 250.556 319.553C250.556 318.017 251.222 317.128 252.409 317.128C253.59 317.128 254.263 318.017 254.263 319.553C254.263 321.083 253.59 321.972 252.409 321.972ZM257.798 323H259.163V317.217H260.687V316.125H259.144V315.446C259.144 314.748 259.455 314.399 260.217 314.399C260.433 314.399 260.617 314.412 260.744 314.431V313.402C260.509 313.364 260.242 313.339 259.931 313.339C258.497 313.339 257.798 314.012 257.798 315.383V316.125H256.662V317.217H257.798V323ZM266.272 314.367V316.125H265.174V317.217H266.272V321.185C266.272 322.511 266.875 323.044 268.393 323.044C268.659 323.044 268.913 323.013 269.135 322.975V321.889C268.945 321.908 268.824 321.921 268.615 321.921C267.936 321.921 267.637 321.597 267.637 320.854V317.217H269.135V316.125H267.637V314.367H266.272ZM270.741 323H272.106V318.88C272.106 317.909 272.836 317.243 273.871 317.243C274.112 317.243 274.518 317.287 274.632 317.319V316.037C274.486 316.005 274.226 315.986 274.023 315.986C273.122 315.986 272.354 316.475 272.157 317.154H272.055V316.106H270.741V323ZM281.773 316.106H280.409V320.15C280.409 321.261 279.806 321.934 278.701 321.934C277.698 321.934 277.248 321.388 277.248 320.245V316.106H275.883V320.582C275.883 322.2 276.733 323.133 278.263 323.133C279.311 323.133 280.015 322.689 280.352 321.908H280.459V323H281.773V316.106ZM284.236 314.367V316.125H283.138V317.217H284.236V321.185C284.236 322.511 284.839 323.044 286.356 323.044C286.623 323.044 286.877 323.013 287.099 322.975V321.889C286.909 321.908 286.788 321.921 286.579 321.921C285.899 321.921 285.601 321.597 285.601 320.854V317.217H287.099V316.125H285.601V314.367H284.236ZM288.769 323H290.133V318.963C290.133 317.884 290.755 317.167 291.873 317.167C292.837 317.167 293.352 317.731 293.352 318.868V323H294.716V318.544C294.716 316.913 293.809 315.979 292.336 315.979C291.295 315.979 290.565 316.437 290.229 317.205H290.121V313.402H288.769V323ZM300.683 323H302.048V317.217H303.571V316.125H302.029V315.446C302.029 314.748 302.34 314.399 303.102 314.399C303.317 314.399 303.501 314.412 303.628 314.431V313.402C303.394 313.364 303.127 313.339 302.816 313.339C301.381 313.339 300.683 314.012 300.683 315.383V316.125H299.547V317.217H300.683V323ZM307.773 323.133C309.792 323.133 311.03 321.781 311.03 319.553C311.03 317.325 309.786 315.973 307.773 315.973C305.755 315.973 304.511 317.332 304.511 319.553C304.511 321.781 305.749 323.133 307.773 323.133ZM307.773 321.972C306.586 321.972 305.92 321.089 305.92 319.553C305.92 318.017 306.586 317.128 307.773 317.128C308.954 317.128 309.627 318.017 309.627 319.553C309.627 321.083 308.954 321.972 307.773 321.972ZM312.674 323H314.039V318.88C314.039 317.909 314.769 317.243 315.803 317.243C316.044 317.243 316.451 317.287 316.565 317.319V316.037C316.419 316.005 316.159 315.986 315.956 315.986C315.054 315.986 314.286 316.475 314.089 317.154H313.988V316.106H312.674V323ZM323.344 323.114C324.252 323.114 325.007 322.721 325.42 322.022H325.528V323H326.842V318.284C326.842 316.836 325.864 315.973 324.131 315.973C322.563 315.973 321.446 316.729 321.307 317.89H322.627C322.779 317.389 323.306 317.103 324.068 317.103C325.001 317.103 325.483 317.528 325.483 318.284V318.887L323.611 319.001C321.967 319.103 321.04 319.82 321.04 321.058C321.04 322.314 322.011 323.114 323.344 323.114ZM323.693 322.016C322.951 322.016 322.411 321.642 322.411 321C322.411 320.372 322.843 320.036 323.795 319.972L325.483 319.858V320.455C325.483 321.343 324.722 322.016 323.693 322.016ZM328.848 323H330.212V313.402H328.848V323ZM332.326 323H333.691V313.402H332.326V323ZM343.2 323V315.065H346.075V313.84H338.896V315.065H341.778V323H343.2ZM350.95 321.153C350.696 321.711 350.131 322.016 349.306 322.016C348.214 322.016 347.51 321.229 347.465 319.979V319.915H352.347V319.445C352.347 317.287 351.185 315.973 349.262 315.973C347.313 315.973 346.075 317.376 346.075 319.566C346.075 321.769 347.288 323.133 349.268 323.133C350.849 323.133 351.966 322.372 352.264 321.153H350.95ZM349.255 317.084C350.265 317.084 350.925 317.814 350.957 318.931H347.465C347.542 317.82 348.246 317.084 349.255 317.084ZM355.895 323.114C356.803 323.114 357.558 322.721 357.971 322.022H358.079V323H359.393V318.284C359.393 316.836 358.415 315.973 356.682 315.973C355.114 315.973 353.997 316.729 353.857 317.89H355.178C355.33 317.389 355.857 317.103 356.619 317.103C357.552 317.103 358.034 317.528 358.034 318.284V318.887L356.162 319.001C354.518 319.103 353.591 319.82 353.591 321.058C353.591 322.314 354.562 323.114 355.895 323.114ZM356.244 322.016C355.501 322.016 354.962 321.642 354.962 321C354.962 320.372 355.394 320.036 356.346 319.972L358.034 319.858V320.455C358.034 321.343 357.272 322.016 356.244 322.016ZM361.335 323H362.7V318.766C362.7 317.865 363.328 317.16 364.16 317.16C364.972 317.16 365.493 317.649 365.493 318.436V323H366.832V318.639C366.832 317.808 367.41 317.16 368.292 317.16C369.187 317.16 369.631 317.624 369.631 318.576V323H370.996V318.246C370.996 316.811 370.184 315.973 368.787 315.973C367.829 315.973 367.035 316.462 366.686 317.205H366.578C366.273 316.462 365.62 315.973 364.674 315.973C363.753 315.973 363.055 316.43 362.75 317.205H362.649V316.106H361.335V323ZM372.754 318.036C372.754 319.058 373.364 319.642 374.678 319.947L375.884 320.232C376.576 320.397 376.899 320.677 376.899 321.108C376.899 321.673 376.296 322.067 375.446 322.067C374.621 322.067 374.113 321.73 373.941 321.191H372.577C372.697 322.391 373.77 323.133 375.414 323.133C377.064 323.133 378.277 322.264 378.277 320.981C378.277 319.979 377.661 319.414 376.347 319.109L375.198 318.842C374.449 318.665 374.1 318.398 374.1 317.973C374.1 317.414 374.678 317.04 375.439 317.04C376.214 317.04 376.709 317.376 376.836 317.89H378.144C378.01 316.697 376.995 315.973 375.439 315.973C373.878 315.973 372.754 316.836 372.754 318.036ZM385.386 323.114C386.294 323.114 387.049 322.721 387.462 322.022H387.57V323H388.884V318.284C388.884 316.836 387.906 315.973 386.173 315.973C384.605 315.973 383.488 316.729 383.349 317.89H384.669C384.821 317.389 385.348 317.103 386.11 317.103C387.043 317.103 387.525 317.528 387.525 318.284V318.887L385.653 319.001C384.009 319.103 383.082 319.82 383.082 321.058C383.082 322.314 384.053 323.114 385.386 323.114ZM385.735 322.016C384.993 322.016 384.453 321.642 384.453 321C384.453 320.372 384.885 320.036 385.837 319.972L387.525 319.858V320.455C387.525 321.343 386.764 322.016 385.735 322.016ZM394.413 315.986C393.473 315.986 392.661 316.462 392.242 317.249H392.14V316.106H390.826V325.298H392.191V321.959H392.299C392.661 322.689 393.441 323.114 394.425 323.114C396.171 323.114 397.282 321.73 397.282 319.553C397.282 317.363 396.171 315.986 394.413 315.986ZM394.025 321.946C392.883 321.946 392.166 321.026 392.166 319.553C392.166 318.074 392.883 317.154 394.032 317.154C395.187 317.154 395.879 318.055 395.879 319.553C395.879 321.051 395.187 321.946 394.025 321.946ZM402.512 315.986C401.573 315.986 400.76 316.462 400.341 317.249H400.24V316.106H398.926V325.298H400.291V321.959H400.398C400.76 322.689 401.541 323.114 402.525 323.114C404.271 323.114 405.381 321.73 405.381 319.553C405.381 317.363 404.271 315.986 402.512 315.986ZM402.125 321.946C400.982 321.946 400.265 321.026 400.265 319.553C400.265 318.074 400.982 317.154 402.131 317.154C403.287 317.154 403.979 318.055 403.979 319.553C403.979 321.051 403.287 321.946 402.125 321.946ZM413.106 323.114C414.059 323.114 414.865 322.664 415.277 321.908H415.385V323H416.693V313.402H415.328V317.198H415.227C414.852 316.443 414.052 315.986 413.106 315.986C411.361 315.986 410.237 317.376 410.237 319.547C410.237 321.73 411.348 323.114 413.106 323.114ZM413.494 317.154C414.636 317.154 415.354 318.081 415.354 319.553C415.354 321.039 414.643 321.946 413.494 321.946C412.338 321.946 411.646 321.051 411.646 319.553C411.646 318.062 412.345 317.154 413.494 317.154ZM423.275 321.153C423.021 321.711 422.457 322.016 421.631 322.016C420.54 322.016 419.835 321.229 419.791 319.979V319.915H424.672V319.445C424.672 317.287 423.51 315.973 421.587 315.973C419.638 315.973 418.4 317.376 418.4 319.566C418.4 321.769 419.613 323.133 421.593 323.133C423.174 323.133 424.291 322.372 424.589 321.153H423.275ZM421.581 317.084C422.59 317.084 423.25 317.814 423.282 318.931H419.791C419.867 317.82 420.571 317.084 421.581 317.084ZM432.01 316.106H430.562L428.849 321.604H428.741L427.021 316.106H425.561L428.055 323H429.521L432.01 316.106ZM437.659 321.153C437.405 321.711 436.84 322.016 436.015 322.016C434.923 322.016 434.219 321.229 434.174 319.979V319.915H439.056V319.445C439.056 317.287 437.894 315.973 435.971 315.973C434.022 315.973 432.784 317.376 432.784 319.566C432.784 321.769 433.997 323.133 435.977 323.133C437.558 323.133 438.675 322.372 438.973 321.153H437.659ZM435.964 317.084C436.974 317.084 437.634 317.814 437.666 318.931H434.174C434.25 317.82 434.955 317.084 435.964 317.084ZM440.757 323H442.122V313.402H440.757V323ZM447.092 323.133C449.11 323.133 450.348 321.781 450.348 319.553C450.348 317.325 449.104 315.973 447.092 315.973C445.073 315.973 443.829 317.332 443.829 319.553C443.829 321.781 445.067 323.133 447.092 323.133ZM447.092 321.972C445.905 321.972 445.238 321.089 445.238 319.553C445.238 318.017 445.905 317.128 447.092 317.128C448.272 317.128 448.945 318.017 448.945 319.553C448.945 321.083 448.272 321.972 447.092 321.972ZM455.579 315.986C454.639 315.986 453.827 316.462 453.408 317.249H453.306V316.106H451.992V325.298H453.357V321.959H453.465C453.827 322.689 454.607 323.114 455.591 323.114C457.337 323.114 458.448 321.73 458.448 319.553C458.448 317.363 457.337 315.986 455.579 315.986ZM455.191 321.946C454.049 321.946 453.332 321.026 453.332 319.553C453.332 318.074 454.049 317.154 455.198 317.154C456.353 317.154 457.045 318.055 457.045 319.553C457.045 321.051 456.353 321.946 455.191 321.946ZM460.092 323H461.457V318.766C461.457 317.865 462.085 317.16 462.917 317.16C463.729 317.16 464.25 317.649 464.25 318.436V323H465.589V318.639C465.589 317.808 466.167 317.16 467.049 317.16C467.944 317.16 468.388 317.624 468.388 318.576V323H469.753V318.246C469.753 316.811 468.94 315.973 467.544 315.973C466.585 315.973 465.792 316.462 465.443 317.205H465.335C465.03 316.462 464.376 315.973 463.431 315.973C462.51 315.973 461.812 316.43 461.507 317.205H461.406V316.106H460.092V323ZM476.202 321.153C475.948 321.711 475.383 322.016 474.558 322.016C473.466 322.016 472.762 321.229 472.717 319.979V319.915H477.599V319.445C477.599 317.287 476.437 315.973 474.514 315.973C472.565 315.973 471.327 317.376 471.327 319.566C471.327 321.769 472.54 323.133 474.52 323.133C476.101 323.133 477.218 322.372 477.516 321.153H476.202ZM474.507 317.084C475.517 317.084 476.177 317.814 476.208 318.931H472.717C472.793 317.82 473.498 317.084 474.507 317.084ZM479.236 323H480.601V318.957C480.601 317.846 481.242 317.16 482.251 317.16C483.261 317.16 483.743 317.719 483.743 318.861V323H485.108V318.538C485.108 316.894 484.257 315.973 482.715 315.973C481.674 315.973 480.988 316.437 480.652 317.198H480.55V316.106H479.236V323ZM487.514 314.367V316.125H486.416V317.217H487.514V321.185C487.514 322.511 488.117 323.044 489.634 323.044C489.9 323.044 490.154 323.013 490.376 322.975V321.889C490.186 321.908 490.065 321.921 489.856 321.921C489.177 321.921 488.878 321.597 488.878 320.854V317.217H490.376V316.125H488.878V314.367H487.514ZM495.378 318.036C495.378 319.058 495.988 319.642 497.302 319.947L498.508 320.232C499.2 320.397 499.523 320.677 499.523 321.108C499.523 321.673 498.92 322.067 498.07 322.067C497.245 322.067 496.737 321.73 496.565 321.191H495.201C495.321 322.391 496.394 323.133 498.038 323.133C499.688 323.133 500.901 322.264 500.901 320.981C500.901 319.979 500.285 319.414 498.971 319.109L497.822 318.842C497.073 318.665 496.724 318.398 496.724 317.973C496.724 317.414 497.302 317.04 498.063 317.04C498.838 317.04 499.333 317.376 499.46 317.89H500.768C500.634 316.697 499.619 315.973 498.063 315.973C496.502 315.973 495.378 316.836 495.378 318.036ZM508.397 318.322C508.22 316.982 507.172 315.973 505.439 315.973C503.427 315.973 502.202 317.338 502.202 319.528C502.202 321.762 503.434 323.133 505.446 323.133C507.153 323.133 508.22 322.175 508.397 320.816H507.071C506.893 321.565 506.303 321.972 505.439 321.972C504.303 321.972 503.599 321.051 503.599 319.528C503.599 318.036 504.297 317.135 505.439 317.135C506.354 317.135 506.912 317.649 507.071 318.322H508.397ZM514.491 321.153C514.237 321.711 513.672 322.016 512.847 322.016C511.755 322.016 511.051 321.229 511.006 319.979V319.915H515.888V319.445C515.888 317.287 514.726 315.973 512.803 315.973C510.854 315.973 509.616 317.376 509.616 319.566C509.616 321.769 510.829 323.133 512.809 323.133C514.39 323.133 515.507 322.372 515.805 321.153H514.491ZM512.796 317.084C513.806 317.084 514.466 317.814 514.498 318.931H511.006C511.083 317.82 511.787 317.084 512.796 317.084ZM517.525 323H518.89V318.957C518.89 317.846 519.531 317.16 520.541 317.16C521.55 317.16 522.032 317.719 522.032 318.861V323H523.397V318.538C523.397 316.894 522.546 315.973 521.004 315.973C519.963 315.973 519.277 316.437 518.941 317.198H518.839V316.106H517.525V323ZM527.231 323.114C528.139 323.114 528.894 322.721 529.307 322.022H529.415V323H530.729V318.284C530.729 316.836 529.751 315.973 528.018 315.973C526.45 315.973 525.333 316.729 525.193 317.89H526.514C526.666 317.389 527.193 317.103 527.955 317.103C528.888 317.103 529.37 317.528 529.37 318.284V318.887L527.498 319.001C525.854 319.103 524.927 319.82 524.927 321.058C524.927 322.314 525.898 323.114 527.231 323.114ZM527.58 322.016C526.837 322.016 526.298 321.642 526.298 321C526.298 320.372 526.729 320.036 527.682 319.972L529.37 319.858V320.455C529.37 321.343 528.608 322.016 527.58 322.016ZM532.671 323H534.036V318.88C534.036 317.909 534.766 317.243 535.8 317.243C536.042 317.243 536.448 317.287 536.562 317.319V316.037C536.416 316.005 536.156 315.986 535.953 315.986C535.051 315.986 534.283 316.475 534.086 317.154H533.985V316.106H532.671V323ZM538.581 314.875C539.057 314.875 539.444 314.488 539.444 314.018C539.444 313.542 539.057 313.155 538.581 313.155C538.104 313.155 537.717 313.542 537.717 314.018C537.717 314.488 538.104 314.875 538.581 314.875ZM537.901 323H539.26V316.106H537.901V323ZM544.186 323.133C546.204 323.133 547.442 321.781 547.442 319.553C547.442 317.325 546.198 315.973 544.186 315.973C542.167 315.973 540.923 317.332 540.923 319.553C540.923 321.781 542.161 323.133 544.186 323.133ZM544.186 321.972C542.999 321.972 542.332 321.089 542.332 319.553C542.332 318.017 542.999 317.128 544.186 317.128C545.366 317.128 546.039 318.017 546.039 319.553C546.039 321.083 545.366 321.972 544.186 321.972ZM548.927 318.036C548.927 319.058 549.537 319.642 550.851 319.947L552.057 320.232C552.749 320.397 553.072 320.677 553.072 321.108C553.072 321.673 552.469 322.067 551.619 322.067C550.793 322.067 550.286 321.73 550.114 321.191H548.75C548.87 322.391 549.943 323.133 551.587 323.133C553.237 323.133 554.45 322.264 554.45 320.981C554.45 319.979 553.834 319.414 552.52 319.109L551.371 318.842C550.622 318.665 550.273 318.398 550.273 317.973C550.273 317.414 550.851 317.04 551.612 317.04C552.387 317.04 552.882 317.376 553.009 317.89H554.316C554.183 316.697 553.167 315.973 551.612 315.973C550.051 315.973 548.927 316.836 548.927 318.036Z" fill="var(--vscode-menu-foreground, #CCCCCC)"/>
<path d="M0.5 256C0.5 254.067 2.067 252.5 4 252.5H109.5V361.5H4C2.06701 361.5 0.5 359.933 0.5 358V256Z" fill="var(--vscode-editorWidget-background, #252526)" stroke="var(--vscode-contrastBorder)"/>
<path d="M71.2667 291.933H57.5333L56.6 292.333L55 293.933L53.4 292.333L52.4667 291.933H38.7333L37.5333 293.267V318.2L38.7333 319.533H51.9333L54.0667 321.667H55.9333L58.0667 319.533H71.2667L72.4667 318.2V293.267L71.2667 291.933ZM53.8 317.8L53.2667 317.4L52.4667 317H40.0667V294.467H51.9333L53.8 296.333V317.8ZM70.0667 317H57.5333L56.6 317.4L56.3333 317.667V296.2L58.0667 294.467H70.0667V317ZM50.0667 299.533H42.4667V301.933H50.0667V299.533ZM50.0667 309.533H42.4667V311.933H50.0667V309.533ZM42.4667 304.467H50.0667V307H42.4667V304.467ZM67.5333 299.533H60.0667V301.933H67.5333V299.533ZM60.0667 304.467H67.5333V307H60.0667V304.467ZM60.0667 309.533H67.5333V311.933H60.0667V309.533Z" fill="var(--vscode-menu-foreground, #CCCCCC)"/>
</a>
</svg>
