<svg width="46" height="42" viewBox="0 0 46 42" fill="none" xmlns="http://www.w3.org/2000/svg">
<path fill-rule="evenodd" clip-rule="evenodd" d="M16.0005 0.000305295V6.10352e-05H16.0647H30.0647C31.3518 6.10352e-05 32.4955 0.821154 32.9071 2.04072L45.0571 38.0407C45.7134 39.9854 44.2671 42.0001 42.2147 42.0001H28.5005V41.9869C28.4067 41.9956 28.3113 42.0001 28.2147 42.0001H28.1621C27.5177 42.0001 26.8904 41.7926 26.3731 41.4083L17.2139 34.6043L15.4064 39.9596C14.9948 41.1792 13.8511 42.0003 12.564 42.0003H3.78564C1.73323 42.0003 0.286845 39.9856 0.943159 38.041L13.0932 2.04097C13.5048 0.821402 14.6485 0.000305295 15.9356 0.000305295H16.0005ZM10.6337 27.2247L27.5657 39.8028C27.7382 39.9309 27.9473 40.0001 28.1621 40.0001H28.2147C28.8988 40.0001 29.3809 39.3285 29.1621 38.6803L22.4526 18.8001L19.6013 26.3802L19.3576 27.0281H18.6653H10.3703L10.6337 27.2247ZM42.2147 40.0001H31.0445C31.2595 39.3963 31.2845 38.7143 31.0571 38.0407L18.9071 2.04073C18.9025 2.02712 18.8979 2.01357 18.8931 2.00006H30.0647C30.4937 2.00006 30.8749 2.27376 31.0121 2.68028L43.1621 38.6803C43.3809 39.3285 42.8988 40.0001 42.2147 40.0001Z" fill="#424242"/>
</svg>
