<svg width="14" height="15" viewBox="0 0 14 15" fill="none" xmlns="http://www.w3.org/2000/svg">
    <path d="M10.344 0.0879993C11.1653 0.258666 11.8853 0.626666 12.504 1.192C13.1227 1.75733 13.5493 2.44533 13.784 3.256C14.008 3.992 14.04 4.73333 13.88 5.48C13.7307 6.17333 13.4373 6.792 13 7.336C12.5733 7.88 12.0507 8.30667 11.432 8.616C10.8133 8.91467 10.152 9.06933 9.448 9.08C9 9.08 8.568 9.016 8.152 8.888L7.352 9.832L6.968 10.008H6.008V11.512L5.496 12.008H4.008V13.512L3.496 14.008H0.504L0.00800002 13.512V11.192L0.152 10.84L5.128 5.864C4.97867 5.40533 4.90933 4.94133 4.92 4.472C4.93067 3.78933 5.08 3.14933 5.368 2.552C5.66667 1.944 6.07733 1.42667 6.6 0.999999C7.13333 0.573333 7.72533 0.285333 8.376 0.136C9.02667 -0.0240008 9.68267 -0.0400009 10.344 0.0879993ZM11.672 7.288C11.9813 7.032 12.2427 6.73333 12.456 6.392C12.6693 6.05067 12.8187 5.68267 12.904 5.288H12.92C13.0373 4.70133 13.0107 4.12 12.84 3.544C12.68 2.968 12.3867 2.472 11.96 2.056C11.5333 1.62933 11.032 1.33067 10.456 1.16C9.89067 0.978666 9.31467 0.951999 8.728 1.08C8.19467 1.19733 7.71467 1.42133 7.288 1.752C6.872 2.08267 6.54133 2.488 6.296 2.968C6.06133 3.43733 5.93867 3.944 5.928 4.488C5.91733 4.94667 5.992 5.38933 6.152 5.816L6.056 6.36L1 11.4V13H3V11.496L3.496 11H5V9.496L5.496 9H6.744L7.624 7.992L8.184 7.848C8.58933 8.008 9.01067 8.088 9.448 8.088C9.85333 8.088 10.2427 8.01867 10.616 7.88C11 7.74133 11.352 7.544 11.672 7.288ZM10.824 4.552C10.9413 4.41333 11.0053 4.25333 11.016 4.072C11.0373 3.88 11.0053 3.704 10.92 3.544C10.8453 3.37333 10.728 3.24 10.568 3.144C10.4187 3.03733 10.2533 2.97867 10.072 2.968C9.89067 2.95733 9.72 2.99467 9.56 3.08C9.4 3.16533 9.272 3.288 9.176 3.448C9.02667 3.68267 8.97867 3.93333 9.032 4.2C9.096 4.456 9.24 4.65867 9.464 4.808C9.688 4.95733 9.93333 5.01067 10.2 4.968C10.4667 4.91467 10.6747 4.776 10.824 4.552Z" fill="#CCCCCC"/>
</svg>
