<svg width="15" height="15" viewBox="0 0 15 15" fill="none" xmlns="http://www.w3.org/2000/svg">
    <path d="M8.576 1.024C9.36533 1.10933 10.1173 1.328 10.832 1.68C11.5573 2.02133 12.1973 2.48 12.752 3.056C13.584 3.888 14.1653 4.86933 14.496 6C14.8267 7.09867 14.88 8.208 14.656 9.328C14.4427 10.48 13.9627 11.52 13.216 12.448C12.5333 13.2907 11.7013 13.936 10.72 14.384C9.76 14.8213 8.752 15.024 7.696 14.992C6.61867 14.96 5.6 14.688 4.64 14.176C3.936 13.792 3.312 13.3013 2.768 12.704C2.23467 12.096 1.81333 11.4187 1.504 10.672C1.20533 9.92533 1.03467 9.152 0.992 8.352C0.96 7.54133 1.056 6.752 1.28 5.984C1.51467 5.20533 1.86667 4.49067 2.336 3.84C2.816 3.18933 3.38667 2.64 4.048 2.192C4.72 1.73333 5.44 1.408 6.208 1.216C6.98667 1.01333 7.77067 0.949333 8.56 1.024H8.576ZM9.04 13.872C9.712 13.744 10.3413 13.504 10.928 13.152C11.5147 12.7893 12.0213 12.3413 12.448 11.808C13.088 11.0187 13.4987 10.128 13.68 9.136C13.8613 8.176 13.8133 7.22667 13.536 6.288C13.2587 5.31733 12.7627 4.46933 12.048 3.744C11.3973 3.08267 10.64 2.608 9.776 2.32C8.912 2.02133 8.02667 1.93067 7.12 2.048C6.224 2.16533 5.392 2.48533 4.624 3.008C3.76 3.60533 3.09333 4.37333 2.624 5.312C2.16533 6.25067 1.95733 7.248 2 8.304C2.05333 9.34933 2.35733 10.32 2.912 11.216C3.46667 12.1013 4.20267 12.7947 5.12 13.296C5.71733 13.6267 6.352 13.84 7.024 13.936C7.696 14.032 8.368 14.0107 9.04 13.872ZM7.376 6H8.624V4.992H7.376V6ZM8.624 6.992V10.992H7.376V6.992H8.624Z" fill="#424242"/>
</svg>
